<?xml version="1.0" encoding="UTF-8"?>
<!DOCTYPE svg PUBLIC "-//W3C//DTD SVG 1.1//EN" "http://www.w3.org/Graphics/SVG/1.1/DTD/svg11.dtd">
<!-- Creator: CorelDRAW X8 -->
<svg xmlns="http://www.w3.org/2000/svg" xml:space="preserve" width="512px" height="512px" version="1.1" style="shape-rendering:geometricPrecision; text-rendering:geometricPrecision; image-rendering:optimizeQuality; fill-rule:evenodd; clip-rule:evenodd"
viewBox="0 0 512 512"
 xmlns:xlink="http://www.w3.org/1999/xlink">
 <defs>
  <style type="text/css">
   <![CDATA[
    .str0 {stroke:white;stroke-width:0.999216}
    .fil1 {fill:none}
    .fil0 {fill:black}
   ]]>
  </style>
 </defs>
 <g id="Layer_x0020_1">
  <metadata id="CorelCorpID_0Corel-Layer"/>
  <g id="_1670274899232">
   <path class="fil0 str0" d="M249 228c37,-10 50,46 15,56 -37,9 -53,-45 -15,-56zm-120 155c19,-5 67,-33 85,-42 77,-44 82,-48 126,-127 11,-19 37,-65 43,-85 -16,4 -67,33 -83,42 -76,43 -85,49 -128,126 -11,20 -36,64 -43,86z"/>
   <path class="fil0 str0" d="M383 264c12,5 60,4 73,0l1 -15c-13,-3 -31,-2 -46,-2 -17,0 -34,-3 -28,17z"/>
   <path class="fil0 str0" d="M56 264c11,5 60,4 73,0l0 -15 -22 -2 -30 0c-17,0 -26,0 -21,17z"/>
   <g>
    <path class="fil0 str0" d="M230 37c131,-17 231,82 245,193 16,129 -81,230 -192,245 -69,9 -131,-18 -169,-51 -36,-31 -68,-76 -77,-143 -16,-128 81,-229 193,-244zm-11 -18c-120,20 -222,130 -199,274 18,118 129,222 272,200 120,-18 222,-130 201,-273 -18,-117 -131,-224 -274,-201z"/>
    <path class="fil0 str0" d="M247 80c0,24 -5,53 11,51 9,-1 8,-12 8,-20 0,-17 2,-41 -3,-54 -19,-5 -16,6 -16,23z"/>
    <path class="fil0 str0" d="M249 385c-4,11 -4,61 0,72 23,9 17,-19 17,-38 0,-18 6,-42 -17,-34z"/>
   </g>
  </g>
  <rect class="fil1" width="512" height="512"/>
 </g>
</svg>
