<?xml version="1.0" encoding="UTF-8"?>
<!DOCTYPE svg PUBLIC "-//W3C//DTD SVG 1.1//EN" "http://www.w3.org/Graphics/SVG/1.1/DTD/svg11.dtd">
<!-- Creator: CorelDRAW X8 -->
<svg xmlns="http://www.w3.org/2000/svg" xml:space="preserve" width="512px" height="512px" version="1.1" style="shape-rendering:geometricPrecision; text-rendering:geometricPrecision; image-rendering:optimizeQuality; fill-rule:evenodd; clip-rule:evenodd"
viewBox="0 0 512 512"
 xmlns:xlink="http://www.w3.org/1999/xlink">
 <defs>
  <style type="text/css">
   <![CDATA[
    .fil1 {fill:none}
    .fil0 {fill:black}
   ]]>
  </style>
 </defs>
 <g id="Layer_x0020_1">
  <metadata id="CorelCorpID_0Corel-Layer"/>
  <g id="_1670239145776">
   <path class="fil0" d="M250 74c28,-3 51,18 54,42 3,29 -18,51 -42,54 -28,4 -51,-17 -54,-41 -4,-29 18,-52 42,-55zm-7 -51c-21,2 -35,9 -49,18 -12,7 -26,21 -33,34 -20,31 -24,70 -7,107 4,9 19,32 25,41l54 82c4,6 8,13 13,20 5,8 9,17 17,4 18,-28 36,-54 54,-81 8,-13 17,-27 26,-41 22,-32 33,-64 21,-104 -5,-19 -14,-31 -24,-43 -19,-22 -53,-42 -97,-37z"/>
   <path class="fil0" d="M39 273c1,38 -1,40 27,40 28,0 16,0 32,34 4,9 11,16 3,24 -24,25 -29,23 -6,48 41,44 38,32 64,7 7,-6 16,2 23,5 8,3 15,6 24,9 13,4 10,10 10,24 0,25 1,26 40,26 40,0 40,-1 40,-27 0,-25 -3,-16 35,-33 8,-3 15,-10 23,-3 5,5 11,13 16,17 9,7 14,5 23,-2 3,-2 5,-5 8,-7 3,-3 6,-5 8,-8 4,-3 6,-6 9,-9 11,-12 19,-19 9,-31 -20,-23 -26,-15 -13,-40 16,-34 4,-34 32,-34 29,0 26,-2 27,-40l-103 0c0,63 -51,114 -114,114 -63,0 -114,-51 -114,-114l-103 0z"/>
  </g>
  <rect class="fil1" width="512" height="512"/>
 </g>
</svg>
