<?xml version="1.0" encoding="utf-8"?>
<!-- Generator: Adobe Illustrator 19.0.0, SVG Export Plug-In . SVG Version: 6.00 Build 0)  -->
<svg version="1.1" id="Layer_1" xmlns="http://www.w3.org/2000/svg" xmlns:xlink="http://www.w3.org/1999/xlink" width="51px" height="51px" x="0px" y="0px"
	 viewBox="0 0 500 500" style="enable-background:new 0 0 500 500;" xml:space="preserve">
<style type="text/css">
	.st0{fill:#41B147;}
	.st1{fill:#FFFFFF;}
</style>
<g id="XMLID_1418_">
	<path id="XMLID_740_" class="st0" d="M249.4,495c-13.7,0-24.8-11.1-24.8-24.8V203.1l-3.6-1.1c-20.3-6.1-38.5-18.8-51.4-35.9
		c-13.3-17.6-20.3-38.5-20.3-60.6C149.3,50.2,194.5,5,250,5c26.8,0,52.1,10.5,71.1,29.5c19,19,29.5,44.3,29.5,71.1
		c0,44.6-30,84.4-72.9,96.8l-3.6,1v266.7C274.2,483.9,263,495,249.4,495z M250,54.6c-28.2,0-51.1,22.9-51.1,51.1
		c0,28.2,22.9,51.1,51.1,51.1c13.6,0,26.5-5.3,36.1-15c9.7-9.7,15-22.5,15-36.1C301.1,77.5,278.2,54.6,250,54.6z"/>
	<g id="XMLID_493_">
		<path id="XMLID_322_" class="st1" d="M299.8,162.5c0,0,0.2-0.3,0.5-0.8c0.4-0.5,0.8-1.3,1.5-2.3c0.6-1,1.4-2.1,2.2-3.5
			c0.4-0.7,0.9-1.4,1.3-2.2c0.5-0.7,1-1.5,1.4-2.4c0.5-0.8,1-1.7,1.5-2.6c0.5-0.9,1-1.8,1.5-2.8c0.5-1,1-2,1.5-3
			c0.5-1,1-2.1,1.5-3.1c1-2.1,1.9-4.3,2.8-6.6c0.5-1.1,0.8-2.3,1.2-3.5c0.4-1.1,0.8-2.3,1.1-3.5c0.2-0.6,0.4-1.2,0.6-1.8l0.5-1.8
			l0.5-1.8c0.1-0.6,0.3-1.2,0.4-1.8c0.3-1.2,0.5-2.4,0.8-3.5c0.2-1.2,0.5-2.3,0.6-3.5c0.4-2.3,0.6-4.6,0.9-6.7
			c0.1-1.1,0.2-2.2,0.3-3.2c0.1-1,0.2-2,0.2-3c0.2-3.8,0.3-7.1,0.3-9.4c0-1.2,0-2.1,0-2.7c0-0.6,0-1,0-1s0.7,1.2,1.7,3.3
			c1,2.2,2.2,5.4,3.1,9.4c0.2,1,0.4,2.1,0.6,3.2c0.2,1.1,0.3,2.3,0.5,3.4c0.2,2.4,0.4,4.9,0.2,7.5c0,1.3-0.1,2.6-0.2,3.9
			c-0.1,0.7-0.1,1.3-0.2,2c-0.1,0.7-0.2,1.3-0.3,2c-0.1,0.7-0.2,1.4-0.3,2c-0.1,0.7-0.3,1.3-0.5,2c-0.3,1.3-0.6,2.7-1.1,4
			c-0.4,1.3-0.8,2.7-1.4,3.9c-0.5,1.3-1,2.6-1.6,3.8c-0.6,1.2-1.1,2.5-1.8,3.6c-0.7,1.2-1.3,2.3-2,3.4c-1.4,2.2-2.9,4.2-4.4,6
			c-0.8,0.9-1.5,1.8-2.3,2.6c-0.8,0.8-1.5,1.5-2.3,2.3c-0.7,0.7-1.5,1.4-2.2,2c-0.7,0.6-1.4,1.2-2.1,1.7c-1.4,1-2.6,1.8-3.6,2.4
			c-1,0.6-1.8,1-2.4,1.3C300.1,162.4,299.8,162.5,299.8,162.5z"/>
	</g>
	<g id="XMLID_717_">
		<path id="XMLID_320_" class="st1" d="M250,30c0,0-0.7,0.1-2,0.3c-0.7,0.1-1.5,0.2-2.5,0.4c-1,0.2-2,0.4-3.3,0.6
			c-1.2,0.3-2.6,0.6-4,0.9c-1.4,0.4-3,0.8-4.6,1.3c-3.3,1-6.8,2.4-10.6,4.2c-3.7,1.8-7.6,4-11.5,6.7c-3.9,2.7-7.6,5.9-11.2,9.5
			c-3.5,3.7-6.9,7.7-9.7,12.2c-2.8,4.5-5.3,9.3-7.2,14.3c-1.9,5-3.2,10.3-4,15.5l-0.3,2c-0.1,0.7-0.1,1.3-0.2,2
			c-0.1,0.7-0.1,1.3-0.2,2c0,0.7-0.1,1.3-0.1,2l0,1l0,0.5l0,0.1l0,0.1c0,0,0-0.2,0-0.1l0,0.3c0,0.7,0,1.4,0,2.1c0,0.7,0,1.4,0,2
			c0,0.6,0.1,1.2,0.1,1.9c0.3,5,1,9.9,2.1,14.5c1.1,4.6,2.6,8.8,4.2,12.6c0.4,1,0.8,1.9,1.3,2.8c0.4,0.9,0.8,1.8,1.3,2.6
			c0.4,0.8,0.9,1.7,1.3,2.5c0.5,0.8,0.9,1.5,1.3,2.3c0.8,1.5,1.8,2.8,2.6,4c0.9,1.2,1.7,2.3,2.4,3.3c0.8,1,1.5,1.8,2.1,2.6
			c0.6,0.8,1.2,1.4,1.6,1.9c0.9,1,1.3,1.6,1.3,1.6s-0.6-0.4-1.7-1.2c-1.1-0.8-2.7-2-4.6-3.7c-0.9-0.9-2-1.8-3.1-2.9
			c-0.5-0.6-1.1-1.1-1.7-1.7c-0.6-0.6-1.2-1.2-1.7-1.9c-2.4-2.7-4.8-6-7.1-9.8c-2.3-3.8-4.4-8.2-6.1-13.1
			c-1.7-4.9-2.9-10.1-3.6-15.9c-0.6-5.5-0.7-11.5,0-17.4c0.7-5.9,2.1-11.9,4.3-17.5c2.2-5.7,5-11.1,8.4-16c0.8-1.2,1.7-2.4,2.6-3.6
			c0.9-1.1,1.8-2.3,2.8-3.4c1.9-2.2,3.9-4.3,6-6.1c4.2-3.8,8.6-7,13.1-9.5c4.5-2.5,8.9-4.4,13.2-5.8c4.2-1.4,8.2-2.2,11.8-2.7
			c1.8-0.3,3.4-0.4,5-0.5c1.5-0.1,3-0.1,4.2-0.2c2.6,0,4.5,0.1,5.9,0.3C249.3,30,250,30,250,30z"/>
	</g>
</g>
</svg>
