<?xml version="1.0" encoding="utf-8"?>
<!-- Generator: Adobe Illustrator 19.0.0, SVG Export Plug-In . SVG Version: 6.00 Build 0)  -->
<svg version="1.1" id="Layer_1" xmlns="http://www.w3.org/2000/svg" xmlns:xlink="http://www.w3.org/1999/xlink" x="0px" y="0px"
	 viewBox="0 0 10.2 10.2" style="enable-background:new 0 0 10.2 10.2;" xml:space="preserve">
<style type="text/css">
	.st0{fill:#FFFFFF;}
</style>
<g id="_x38_cdaHh.tif_2_">
	<g id="XMLID_80_">
		<path id="XMLID_84_" class="st0" d="M7.3,5.1c0.2-0.2,0.3-0.2,0.4-0.4c0.7-0.7,1.4-1.3,2-2C10.6,1.8,10.2,0.3,9,0
			C8.4-0.1,7.9,0.1,7.4,0.5C6.7,1.3,5.9,2.1,5.1,2.9C4.3,2.1,3.5,1.3,2.7,0.5C2-0.2,1.1-0.2,0.5,0.5c-0.6,0.6-0.6,1.6,0,2.2
			c0.6,0.6,1.2,1.2,1.8,1.8C2.5,4.7,2.7,4.9,3,5.1C2.7,5.3,2.6,5.4,2.5,5.5c-0.7,0.7-1.4,1.3-2,2C0,8-0.1,8.5,0.1,9.1
			c0.2,0.6,0.6,1,1.2,1.1c0.6,0.1,1.1-0.1,1.5-0.5c0.8-0.8,1.5-1.5,2.3-2.3c0.1,0.1,0.3,0.2,0.4,0.3c0.7,0.7,1.3,1.3,2,2
			c0.4,0.4,0.9,0.6,1.5,0.5c0.6-0.1,1-0.5,1.2-1.1c0.2-0.6,0-1.1-0.4-1.6C8.9,6.7,8.1,5.9,7.3,5.1z"/>
		<path id="XMLID_81_" class="st0" d="M7.3,5.1c0.9,0.9,1.7,1.6,2.5,2.4c0.4,0.4,0.6,1,0.4,1.6c-0.2,0.6-0.6,1-1.2,1.1
			c-0.6,0.1-1.1-0.1-1.5-0.5c-0.7-0.7-1.3-1.3-2-2C5.3,7.6,5.2,7.5,5.1,7.3C4.3,8.1,3.5,8.9,2.8,9.7c-0.4,0.4-0.9,0.6-1.5,0.5
			c-0.6-0.1-1-0.5-1.2-1.1C-0.1,8.5,0,8,0.5,7.5c0.7-0.7,1.3-1.4,2-2C2.6,5.4,2.7,5.3,3,5.1C2.7,4.9,2.5,4.7,2.3,4.5
			C1.7,3.9,1.1,3.3,0.5,2.7c-0.6-0.7-0.6-1.6,0-2.2c0.6-0.6,1.6-0.6,2.2,0c0.8,0.8,1.6,1.6,2.4,2.4c0.8-0.8,1.6-1.6,2.3-2.3
			C7.9,0.1,8.4-0.1,9,0c1.2,0.3,1.6,1.7,0.8,2.6c-0.7,0.7-1.3,1.4-2,2C7.6,4.8,7.5,4.9,7.3,5.1z"/>
	</g>
</g>
</svg>
