<?xml version="1.0" encoding="utf-8"?>
<!-- Generator: Adobe Illustrator 19.0.0, SVG Export Plug-In . SVG Version: 6.00 Build 0)  -->
<svg version="1.1" id="Capa_1" xmlns="http://www.w3.org/2000/svg" xmlns:xlink="http://www.w3.org/1999/xlink" x="0px" y="0px"
	 viewBox="-64 155.6 482.4 482.4" style="enable-background:new -64 155.6 482.4 482.4;" xml:space="preserve">
<style type="text/css">
	.st0{fill:#D84756;}
</style>
<g>
	<g>
		<path class="st0" d="M317.2,213.4h-75.1c-3.7-32.5-31.4-57.8-64.9-57.8c-33.5,0-61.1,25.3-64.8,57.8H37.3
			c-30.4,0-55.1,24.7-55.1,55.1v2.8c0,23.2,14.5,43.1,34.8,51.2v260.4c0,30.4,24.7,55.1,55.1,55.1h210.2c30.4,0,55.1-24.7,55.1-55.1
			V322.5c20.4-8.1,34.8-28,34.8-51.2v-2.8C372.3,238.1,347.6,213.4,317.2,213.4z M177.2,181.7c19,0,34.9,13.6,38.4,31.7h-76.9
			C142.3,195.4,158.2,181.7,177.2,181.7z M311.3,582.9c0,16-13,29-29,29H72.1c-16,0-29-13-29-29V326.4h268.2V582.9z M346.1,271.3
			c0,16-13,29-29,29H37.3c-16,0-29-13-29-29v-2.8c0-16,13-29,29-29h279.9c16,0,29,13,29,29L346.1,271.3L346.1,271.3z"/>
		<path class="st0" d="M107.1,578.4c7.2,0,13.1-5.9,13.1-13.1V418.2c0-7.2-5.9-13.1-13.1-13.1s-13.1,5.9-13.1,13.1v147.2
			C94.1,572.6,99.9,578.4,107.1,578.4z"/>
		<path class="st0" d="M177.2,578.4c7.2,0,13.1-5.9,13.1-13.1V418.2c0-7.2-5.9-13.1-13.1-13.1c-7.2,0-13.1,5.9-13.1,13.1v147.2
			C164.1,572.6,170,578.4,177.2,578.4z"/>
		<path class="st0" d="M247.3,578.4c7.2,0,13.1-5.9,13.1-13.1V418.2c0-7.2-5.9-13.1-13.1-13.1c-7.2,0-13.1,5.9-13.1,13.1v147.2
			C234.2,572.6,240.1,578.4,247.3,578.4z"/>
	</g>
</g>
</svg>
