<?xml version="1.0" encoding="utf-8"?>
<!-- Generator: Adobe Illustrator 19.0.0, SVG Export Plug-In . SVG Version: 6.00 Build 0)  -->
<svg version="1.1" id="Layer_1" xmlns="http://www.w3.org/2000/svg" xmlns:xlink="http://www.w3.org/1999/xlink" x="0px" y="0px"
	 viewBox="0 0 13 9.1" style="enable-background:new 0 0 13 9.1;" xml:space="preserve">
<style type="text/css">
	.st0{fill:#BBBDBF;}
</style>
<path id="XMLID_132_" class="st0" d="M1.2,9.1C0.5,9.1,0,8.6,0,7.9V1.2C0,0.5,0.5,0,1.2,0h7.9c0.5,0,1.2,0.3,1.5,0.8l2.2,2.9
	c0.4,0.5,0.4,1.2,0,1.7l-2.2,2.9c-0.3,0.4-1,0.8-1.5,0.8H1.2z M1.2,1.1c-0.1,0-0.1,0.1-0.1,0.1v6.7C1.1,8,1.1,8,1.2,8h7.9
	c0.2,0,0.5-0.2,0.6-0.3l2.2-2.9c0.1-0.1,0.1-0.3,0-0.4L9.7,1.4C9.6,1.3,9.3,1.1,9.1,1.1H1.2z"/>
</svg>
