<?xml version="1.0" encoding="utf-8"?>
<!-- Generator: Adobe Illustrator 19.0.0, SVG Export Plug-In . SVG Version: 6.00 Build 0)  -->
<svg version="1.1" id="Layer_1" xmlns="http://www.w3.org/2000/svg" xmlns:xlink="http://www.w3.org/1999/xlink" x="0px" y="0px"
	 viewBox="0 0 13.8 13.8" style="enable-background:new 0 0 13.8 13.8;" xml:space="preserve">
<style type="text/css">
	.st0{fill:#71469C;}
</style>
<g id="Mifw3v.tif">
	<g>
		<path class="st0" d="M12.4,13.8c-0.1,0-0.1-0.1-0.2-0.1c-1.1-1.1-2.3-2.3-3.4-3.4c-0.2-0.2-0.2-0.4,0-0.6c0.1-0.1,0.1-0.2,0-0.2
			C8.6,9.3,8.5,9.2,8.4,9.1C8.3,9,8.3,9,8.2,9.1c-0.7,0.6-1.6,0.9-2.5,1C4.2,10.3,2.9,9.9,1.8,9C0.8,8.1,0.2,7,0,5.6
			c0,0,0-0.1,0-0.1c0-0.3,0-0.6,0-1c0.1-0.5,0.2-0.9,0.3-1.4c0.8-1.8,2.1-2.9,4-3.2C7-0.4,9.5,1.5,10,4.1C10.3,5.6,10,7,9,8.2
			C9,8.3,9,8.3,9,8.4c0.1,0.1,0.3,0.3,0.4,0.4c0.1,0.1,0.1,0.1,0.2,0c0,0,0.1-0.1,0.1-0.1c0.1-0.1,0.3-0.1,0.4,0
			c0,0,0.1,0.1,0.1,0.1c1.1,1.1,2.2,2.2,3.3,3.3c0.2,0.2,0.2,0.4,0,0.6c-0.3,0.3-0.6,0.6-0.8,0.8c-0.1,0.1-0.1,0.1-0.2,0.2
			C12.5,13.8,12.4,13.8,12.4,13.8z M9.2,5.1c0-2.1-1.7-4.1-4.1-4.2C2.7,0.9,0.9,2.9,0.9,5c0,2.2,1.7,4.2,4.1,4.2
			C7.5,9.2,9.2,7.2,9.2,5.1z"/>
		<path class="st0" d="M8.2,4.8c0,0.3-0.1,0.5-0.4,0.5c-0.2,0-0.4-0.1-0.5-0.3c0-0.1,0-0.3,0-0.4c-0.1-1-1-1.9-2-2
			c-0.1,0-0.2,0-0.3,0c-0.3,0-0.4-0.2-0.4-0.4C4.6,2,4.8,1.8,5,1.8c0.4,0,0.8,0.1,1.2,0.2C7.3,2.5,8,3.4,8.2,4.6
			C8.2,4.7,8.2,4.7,8.2,4.8C8.2,4.8,8.2,4.8,8.2,4.8z"/>
	</g>
</g>
</svg>
