<?xml version="1.0" encoding="utf-8"?>
<!-- Generator: Adobe Illustrator 19.0.0, SVG Export Plug-In . SVG Version: 6.00 Build 0)  -->
<svg version="1.1" id="Layer_1" xmlns="http://www.w3.org/2000/svg" xmlns:xlink="http://www.w3.org/1999/xlink" x="0px" y="0px"
	 viewBox="-297 392.1 15.5 9.9" style="enable-background:new -297 392.1 15.5 9.9;" xml:space="preserve">
<style type="text/css">
	.st0{fill:#46B877;}
	.st1{fill:#FFFFFF;stroke:#46B877;stroke-miterlimit:10;}
</style>
<g id="M81SCC.tif_10_">
	<g id="XMLID_2_">
		<path id="XMLID_6_" class="st0" d="M-290,402c-0.5-0.1-1-0.1-1.4-0.3c-1.6-0.4-3-1.2-4.1-2.4c-0.3-0.3-0.2-0.6,0-0.8
			c0.2-0.2,0.6-0.2,0.8,0.1c0.8,0.9,1.8,1.6,3,2c0.6,0.2,1.3,0.4,2,0.4c2.9,0.1,5-1.1,6.7-3.4c0.3-0.5,0.3-0.5,0-0.9
			c-1.1-1.6-2.6-2.8-4.5-3.2c-2.4-0.6-4.5-0.1-6.4,1.5c-0.8,0.7-1.5,1.5-2,2.4c-0.2,0.4-0.8,0.4-1,0.1c-0.1-0.3-0.1-0.5,0-0.7
			c1.4-2.4,3.4-4.1,6.2-4.6c2.4-0.4,4.7,0.2,6.6,1.7c1,0.8,1.8,1.7,2.5,2.9c0.1,0.2,0.1,0.4,0,0.6c-1.2,2-2.8,3.5-5.1,4.3
			c-0.6,0.2-1.2,0.3-1.8,0.3h-0.1C-289,402-289.5,402-290,402z"/>
		<path id="XMLID_3_" class="st0" d="M-289.3,399.9c-1.5,0-2.7-1.3-2.7-2.8s1.3-2.8,2.8-2.8s2.8,1.3,2.8,2.8
			C-286.5,398.6-287.8,399.9-289.3,399.9z M-287.6,397.1c0-0.9-0.7-1.6-1.6-1.6c-1,0-1.7,0.7-1.7,1.6s0.7,1.6,1.6,1.6
			C-288.3,398.7-287.7,398-287.6,397.1z"/>
	</g>
</g>
<line class="st1" x1="-296.5" y1="392.6" x2="-282.6" y2="402"/>
</svg>
