<?xml version="1.0" encoding="utf-8"?>
<!-- Generator: Adobe Illustrator 19.0.0, SVG Export Plug-In . SVG Version: 6.00 Build 0)  -->
<svg version="1.1" id="Layer_1" xmlns="http://www.w3.org/2000/svg" xmlns:xlink="http://www.w3.org/1999/xlink" x="0px" y="0px"
	 viewBox="0 0 12.9 10.9" style="enable-background:new 0 0 12.9 10.9;" xml:space="preserve">
<style type="text/css">
	.st0{fill:#BBBDBF;}
</style>
<g>
	<path class="st0" d="M12.9,1c0,3,0,5.9,0,8.9c-0.1,0.6-0.7,1-1.3,1c-3.4,0-6.9,0-10.3,0c-0.1,0-0.2,0-0.3,0c-0.5-0.1-0.8-0.5-1-1
		C0,6.9,0,4,0,1c0.2-0.7,0.6-1,1.4-1c2.3,0,4.7,0,7,0c1.1,0,2.2,0,3.3,0c0.3,0,0.6,0.1,0.8,0.3C12.7,0.5,12.8,0.7,12.9,1z M6.4,3.9
		c0.4,0,0.8,0,1.2,0c0.2,0,0.3-0.1,0.3-0.3c0-0.5,0-0.9,0-1.4C7.9,2.1,7.8,2,7.6,2C6.8,2,6,2,5.2,2C5,2,5,2.1,5,2.3
		c0,0.5,0,0.9,0,1.4C5,3.9,5,3.9,5.2,3.9C5.6,3.9,6,3.9,6.4,3.9z M2.5,6.9c0.4,0,0.8,0,1.2,0c0.2,0,0.3-0.1,0.3-0.3
		c0-0.5,0-0.9,0-1.4C3.9,5,3.9,5,3.7,5C2.9,5,2.1,5,1.3,5C1.1,5,1,5.1,1,5.3c0,0.5,0,0.9,0,1.4c0,0.2,0.1,0.3,0.3,0.3
		C1.7,6.9,2.1,6.9,2.5,6.9z M10.4,5C10,5,9.6,5,9.2,5C9,5,8.9,5,8.9,5.3c0,0.5,0,0.9,0,1.4c0,0.2,0.1,0.3,0.3,0.3c0.8,0,1.6,0,2.4,0
		c0.2,0,0.3-0.1,0.3-0.3c0-0.4,0-0.9,0-1.3c0-0.2-0.1-0.3-0.3-0.3C11.2,5,10.8,5,10.4,5z M6.4,7.9c-0.4,0-0.8,0-1.2,0
		C5,7.9,5,8,5,8.2c0,0.5,0,0.9,0,1.4C5,9.8,5,9.9,5.3,9.9c0.8,0,1.6,0,2.3,0c0.2,0,0.3-0.1,0.3-0.3c0-0.5,0-0.9,0-1.4
		c0-0.2-0.1-0.3-0.3-0.3C7.2,7.9,6.8,7.9,6.4,7.9z M2.5,3.9c0.4,0,0.8,0,1.2,0c0.2,0,0.3-0.1,0.3-0.3c0-0.5,0-0.9,0-1.4
		C3.9,2.1,3.9,2,3.7,2C2.9,2,2.1,2,1.3,2C1.1,2,1,2.1,1,2.3c0,0.5,0,0.9,0,1.4c0,0.2,0.1,0.3,0.3,0.3C1.7,3.9,2.1,3.9,2.5,3.9z
		 M10.4,3.9c0.4,0,0.8,0,1.2,0c0.2,0,0.3-0.1,0.3-0.3c0-0.5,0-0.9,0-1.4c0-0.2-0.1-0.3-0.3-0.3C10.8,2,10,2,9.2,2
		C9,2,8.9,2.1,8.9,2.3c0,0.5,0,0.9,0,1.4c0,0.2,0.1,0.3,0.3,0.3C9.6,3.9,10,3.9,10.4,3.9z M2.5,7.9c-0.4,0-0.8,0-1.2,0
		C1.1,7.9,1,8,1,8.2c0,0.5,0,0.9,0,1.4c0,0.2,0.1,0.3,0.3,0.3c0.8,0,1.6,0,2.4,0c0.2,0,0.3-0.1,0.3-0.3c0-0.5,0-0.9,0-1.4
		c0-0.2-0.1-0.3-0.3-0.3C3.3,7.9,2.9,7.9,2.5,7.9z M10.4,7.9c-0.4,0-0.8,0-1.2,0C9,8,8.9,8,8.9,8.2c0,0.5,0,0.9,0,1.4
		c0,0.2,0.1,0.3,0.3,0.3c0.8,0,1.6,0,2.4,0c0.2,0,0.3-0.1,0.3-0.3c0-0.5,0-0.9,0-1.4c0-0.2-0.1-0.3-0.3-0.3
		C11.2,7.9,10.8,7.9,10.4,7.9z M6.4,6.9c0.4,0,0.8,0,1.2,0c0.2,0,0.3-0.1,0.3-0.3c0-0.5,0-0.9,0-1.4C7.9,5.1,7.8,5,7.6,5
		C6.8,5,6,5,5.2,5C5,5,5,5.1,5,5.3c0,0.5,0,0.9,0,1.4C5,6.8,5,6.9,5.2,6.9C5.6,6.9,6,6.9,6.4,6.9z"/>
</g>
</svg>
