<?xml version="1.0" encoding="utf-8"?>
<!-- Generator: Adobe Illustrator 19.0.0, SVG Export Plug-In . SVG Version: 6.00 Build 0)  -->
<svg version="1.1" id="Layer_1" xmlns="http://www.w3.org/2000/svg" xmlns:xlink="http://www.w3.org/1999/xlink" x="0px" y="0px"
	 viewBox="0 0 11.2 13.5" style="enable-background:new 0 0 11.2 13.5;" xml:space="preserve">
<style type="text/css">
	.st0{fill:#667CBD;}
</style>
<g>
	<path class="st0" d="M6,0C5.7,0,5.5,0.2,5.5,0.5L5.4,6L3.7,4.9C3.5,4.7,3.2,4.8,3,5C2.9,5.2,2.9,5.5,3.2,5.7l2.6,1.8l3-1.8
		c0,0,0.1,0,0.1-0.1C9,5.5,9.1,5.2,8.9,5C8.8,4.8,8.5,4.7,8.3,4.9L6.4,6l0.1-5.5C6.5,0.2,6.2,0,6,0z"/>
	<g id="XMLID_16248_">
		<g>
			<path class="st0" d="M9.8,5.3c0,0.3-0.1,0.7-0.4,0.9c0,0,0,0,0,0c0.5,0.3,0.8,0.6,0.8,0.8c0,0.6-1.8,1.6-4.6,1.6
				C2.8,8.6,1,7.7,1,7c0-0.3,0.5-0.8,1.4-1.1c-0.2-0.3-0.2-0.7-0.1-1C2.1,4.9,1.9,5,1.8,5.1C0.6,5.5,0,6.2,0,7c0,0.8,0.6,1.5,1.8,2
				c1,0.4,2.4,0.7,3.8,0.7S8.3,9.4,9.4,9c1.2-0.5,1.8-1.2,1.8-2C11.2,6.3,10.7,5.7,9.8,5.3z"/>
			<path class="st0" d="M4.7,4.6"/>
		</g>
		<g id="XMLID_16252_">
			<g id="XMLID_16253_">
				<path id="XMLID_16254_" class="st0" d="M5.6,11.6c-2.2,0-4.3-0.5-5.4-1.2C0,10.2-0.1,9.9,0.1,9.7c0.2-0.2,0.5-0.3,0.7-0.1
					c0.9,0.6,2.8,1,4.8,1c2,0,3.9-0.4,4.8-1c0.2-0.2,0.5-0.1,0.7,0.1c0.2,0.2,0.1,0.5-0.1,0.7C9.9,11.1,7.8,11.6,5.6,11.6z"/>
			</g>
		</g>
		<g id="XMLID_16249_">
			<g id="XMLID_16250_">
				<path id="XMLID_16251_" class="st0" d="M5.6,13.5c-2.2,0-4.3-0.5-5.4-1.2c-0.2-0.2-0.3-0.5-0.1-0.7c0.2-0.2,0.5-0.3,0.7-0.1
					c0.9,0.6,2.8,1,4.8,1c2,0,3.9-0.4,4.8-1c0.2-0.2,0.5-0.1,0.7,0.1c0.2,0.2,0.1,0.5-0.1,0.7C9.9,13.1,7.8,13.5,5.6,13.5z"/>
			</g>
		</g>
	</g>
</g>
</svg>
