<?xml version="1.0" encoding="utf-8"?>
<!-- Generator: Adobe Illustrator 19.0.0, SVG Export Plug-In . SVG Version: 6.00 Build 0)  -->
<svg version="1.1" id="Layer_1" xmlns="http://www.w3.org/2000/svg" xmlns:xlink="http://www.w3.org/1999/xlink" x="0px" y="0px"
	 viewBox="-298 390 14 14" style="enable-background:new -298 390 14 14;" xml:space="preserve">
<style type="text/css">
	.st0{fill:#774F28;}
</style>
<g>
	<g>
		<circle class="st0" cx="-295.9" cy="393.5" r="0.2"/>
		<circle class="st0" cx="-294.5" cy="393.5" r="0.2"/>
		<circle class="st0" cx="-295.2" cy="392.8" r="0.2"/>
		<circle class="st0" cx="-293.1" cy="393.5" r="0.2"/>
		<circle class="st0" cx="-295.9" cy="392.1" r="0.2"/>
		<circle class="st0" cx="-294.5" cy="392.1" r="0.2"/>
		<circle class="st0" cx="-293.1" cy="392.1" r="0.2"/>
		<circle class="st0" cx="-293.8" cy="392.8" r="0.2"/>
		<circle class="st0" cx="-295.9" cy="394.9" r="0.2"/>
		<circle class="st0" cx="-294.5" cy="394.9" r="0.2"/>
		<circle class="st0" cx="-295.2" cy="394.2" r="0.2"/>
		<circle class="st0" cx="-293.1" cy="394.9" r="0.2"/>
		<circle class="st0" cx="-293.8" cy="394.2" r="0.2"/>
		<circle class="st0" cx="-292.4" cy="392.8" r="0.2"/>
		<circle class="st0" cx="-292.4" cy="394.2" r="0.2"/>
		<circle class="st0" cx="-292.4" cy="395.6" r="0.2"/>
		<circle class="st0" cx="-295.9" cy="396.3" r="0.2"/>
		<circle class="st0" cx="-294.5" cy="396.3" r="0.2"/>
		<circle class="st0" cx="-295.2" cy="395.6" r="0.2"/>
		<circle class="st0" cx="-293.1" cy="396.3" r="0.2"/>
		<circle class="st0" cx="-291.7" cy="393.5" r="0.2"/>
		<circle class="st0" cx="-291.7" cy="392.1" r="0.2"/>
		<circle class="st0" cx="-291.7" cy="394.9" r="0.2"/>
		<circle class="st0" cx="-291" cy="392.8" r="0.2"/>
		<circle class="st0" cx="-291" cy="394.2" r="0.2"/>
		<circle class="st0" cx="-291" cy="395.6" r="0.2"/>
		<circle class="st0" cx="-291.7" cy="396.3" r="0.2"/>
		<circle class="st0" cx="-290.3" cy="393.5" r="0.2"/>
		<circle class="st0" cx="-290.3" cy="392.1" r="0.2"/>
		<circle class="st0" cx="-290.3" cy="394.9" r="0.2"/>
		<circle class="st0" cx="-290.3" cy="396.3" r="0.2"/>
		<circle class="st0" cx="-293.8" cy="395.6" r="0.2"/>
		<circle class="st0" cx="-292.4" cy="397" r="0.2"/>
		<circle class="st0" cx="-295.9" cy="397.7" r="0.2"/>
		<circle class="st0" cx="-294.5" cy="397.7" r="0.2"/>
		<circle class="st0" cx="-295.2" cy="397" r="0.2"/>
		<circle class="st0" cx="-293.1" cy="397.7" r="0.2"/>
		<circle class="st0" cx="-291" cy="397" r="0.2"/>
		<circle class="st0" cx="-291.7" cy="397.7" r="0.2"/>
		<circle class="st0" cx="-290.3" cy="397.7" r="0.2"/>
		<circle class="st0" cx="-293.8" cy="397" r="0.2"/>
		<path class="st0" d="M-284,396.1v-1.9h-1.9v0.7h-3v-3h0.7V390h-1.9v0.7h-6V390h-1.9v1.9h0.7v6.1h-0.7v1.9h1.9v-0.8h3v3h-0.7v1.9
			h1.9v-0.7h6.1v0.7h1.8v-1.9h-0.7v-6H-284z M-296.1,398.6v-0.7h-0.7v-6h0.7v-0.7h6.1v0.7h0.7v3v3h-0.8v0.7h-3H-296.1z
			 M-285.2,402.1h-0.7v0.7h-6v-0.7h-0.7v-3h2.6v0.7h1.9v-1.9h-0.8v-2.5h3v0.7h0.7V402.1z"/>
	</g>
</g>
</svg>
