<?xml version="1.0" encoding="utf-8"?>
<!-- Generator: Adobe Illustrator 19.0.0, SVG Export Plug-In . SVG Version: 6.00 Build 0)  -->
<svg version="1.1" id="Layer_1" xmlns="http://www.w3.org/2000/svg" xmlns:xlink="http://www.w3.org/1999/xlink" x="0px" y="0px"
	 viewBox="0 0 12 8.2" style="enable-background:new 0 0 12 8.2;" xml:space="preserve">
<style type="text/css">
	.st0{fill:#3CC0E5;}
</style>
<g>
	<path class="st0" d="M3.4,1c0-0.3,0.2-0.5,0.5-0.5h7.7C11.8,0.5,12,0.8,12,1c0,0.3-0.2,0.5-0.5,0.5H3.9C3.6,1.5,3.4,1.3,3.4,1z
		 M11.5,6.7H3.9c-0.3,0-0.5,0.2-0.5,0.5c0,0.3,0.2,0.5,0.5,0.5h7.7c0.3,0,0.5-0.2,0.5-0.5C12,6.9,11.8,6.7,11.5,6.7z M3.9,4.8h5.1
		c0.3,0,0.5-0.2,0.5-0.5c0-0.3-0.2-0.5-0.5-0.5H3.9C3.6,3.8,3.4,4,3.4,4.3C3.4,4.6,3.6,4.8,3.9,4.8z M2,2.1H0.4C0.2,2.1,0,2,0,1.8
		V0.4C0,0.2,0.2,0,0.4,0H2c0.2,0,0.4,0.2,0.4,0.4v1.4C2.4,2,2.2,2.1,2,2.1z M0.9,3.3L0.1,4.7C0,5,0.1,5.2,0.4,5.2H2
		c0.3,0,0.4-0.3,0.3-0.5L1.5,3.3C1.3,3.1,1,3.1,0.9,3.3z"/>
</g>
<path class="st0" d="M1.9,8C1.8,8,1.7,8,1.6,7.9C1.5,7.6,1.3,7.6,1.1,7.6c-0.1,0-0.3,0-0.4,0C0.3,7.5,0,7.1,0.1,6.7
	c0-0.2,0.2-0.3,0.4-0.3c0.1,0,0.2,0,0.3,0.1c0,0,0.1,0.1,0.1,0.3C0.9,6.9,1.2,7,1.3,7c0.1,0,0.2,0,0.2,0c0.3,0.1,0.6,0.3,0.7,0.5
	c0.1,0.1,0.1,0.2,0,0.3C2.2,8,2.1,8,1.9,8z"/>
</svg>
