<?xml version="1.0" encoding="utf-8"?>
<!-- Generator: Adobe Illustrator 19.0.0, SVG Export Plug-In . SVG Version: 6.00 Build 0)  -->
<svg version="1.1" id="Layer_1" xmlns="http://www.w3.org/2000/svg" xmlns:xlink="http://www.w3.org/1999/xlink" x="0px" y="0px"
	 viewBox="0 0 15.5 9.9" style="enable-background:new 0 0 15.5 9.9;" xml:space="preserve">
<style type="text/css">
	.st0{fill:#46B877;}
</style>
<g id="M81SCC.tif_10_">
	<g id="XMLID_2_">
		<path id="XMLID_6_" class="st0" d="M7,9.9c-0.5-0.1-1-0.1-1.4-0.3C4,9.2,2.6,8.4,1.5,7.2c-0.3-0.3-0.2-0.6,0-0.8
			c0.2-0.2,0.6-0.2,0.8,0.1c0.8,0.9,1.8,1.6,3,2c0.6,0.2,1.3,0.4,2,0.4c2.9,0.1,5-1.1,6.7-3.4C14.3,5,14.3,5,14,4.6
			C12.9,3,11.4,1.8,9.5,1.4C7.1,0.8,5,1.3,3.1,2.9c-0.8,0.7-1.5,1.5-2,2.4c-0.2,0.4-0.8,0.4-1,0.1C0,5.1,0,4.9,0.1,4.7
			c1.4-2.4,3.4-4.1,6.2-4.6c2.4-0.4,4.7,0.2,6.6,1.7c1,0.8,1.8,1.7,2.5,2.9c0.1,0.2,0.1,0.4,0,0.6c-1.2,2-2.8,3.5-5.1,4.3
			C9.7,9.8,9.1,9.9,8.5,9.9c0,0-0.1,0-0.1,0C8,9.9,7.5,9.9,7,9.9z"/>
		<path id="XMLID_3_" class="st0" d="M7.7,7.8C6.2,7.8,5,6.5,5,5c0-1.5,1.3-2.8,2.8-2.8c1.5,0,2.8,1.3,2.8,2.8
			C10.5,6.5,9.2,7.8,7.7,7.8z M9.4,5c0-0.9-0.7-1.6-1.6-1.6C6.8,3.4,6.1,4.1,6.1,5c0,0.9,0.7,1.6,1.6,1.6C8.7,6.6,9.3,5.9,9.4,5z"/>
	</g>
</g>
</svg>
