<?xml version="1.0" encoding="utf-8"?>
<!-- Generator: Adobe Illustrator 16.0.0, SVG Export Plug-In . SVG Version: 6.00 Build 0)  -->
<!DOCTYPE svg PUBLIC "-//W3C//DTD SVG 1.1//EN" "http://www.w3.org/Graphics/SVG/1.1/DTD/svg11.dtd">
<svg version="1.1" id="Layer_1" xmlns="http://www.w3.org/2000/svg" xmlns:xlink="http://www.w3.org/1999/xlink" x="0px" y="0px"
	 width="612px" height="792px" viewBox="0 0 612 792" enable-background="new 0 0 612 792" xml:space="preserve">
<g>
	<path fill="#B59809" d="M612,184.884c0,142.326,0,279.907,0,422.232c-4.744,28.465-33.209,47.442-61.675,47.442
		c-161.302,0-327.349,0-488.651,0c-4.744,0-9.488,0-14.232,0C23.721,649.813,9.488,630.837,0,607.116c0-142.325,0-279.907,0-422.232
		c9.488-33.209,28.465-47.442,66.418-47.442c109.116,0,222.977,0,332.093,0c52.186,0,104.372,0,156.558,0
		c14.233,0,28.466,4.744,37.954,14.232C602.512,161.163,607.256,170.651,612,184.884z M303.628,322.465c18.977,0,37.953,0,56.931,0
		c9.488,0,14.232-4.744,14.232-14.233c0-23.721,0-42.697,0-66.418c0-4.744-4.744-9.488-14.232-9.488c-37.954,0-75.907,0-113.861,0
		c-9.488,0-9.488,4.744-9.488,14.232c0,23.721,0,42.698,0,66.418c0,9.489,0,9.489,9.488,9.489
		C265.674,322.465,284.651,322.465,303.628,322.465z M118.604,464.791c18.977,0,37.954,0,56.93,0
		c9.489,0,14.233-4.744,14.233-14.232c0-23.722,0-42.698,0-66.419c-4.744-9.488-4.744-9.488-14.233-9.488
		c-37.953,0-75.907,0-113.86,0c-9.488,0-14.232,4.744-14.232,14.232c0,23.721,0,42.697,0,66.419c0,9.488,4.744,14.232,14.232,14.232
		C80.651,464.791,99.628,464.791,118.604,464.791z M493.396,374.651c-18.977,0-37.954,0-56.931,0c-9.488,0-14.232,0-14.232,14.232
		c0,23.721,0,42.697,0,66.419c0,9.488,4.744,14.232,14.232,14.232c37.954,0,75.907,0,113.86,0c9.489,0,14.233-4.744,14.233-14.232
		c0-18.978,0-42.698,0-61.675c0-9.488-4.744-14.232-14.233-14.232C531.349,374.651,512.372,374.651,493.396,374.651z
		 M303.628,512.232c-18.977,0-37.954,0-56.93,0c-9.488,0-9.488,4.744-9.488,14.232c0,23.722,0,42.698,0,66.419
		c0,9.488,0,14.232,14.232,14.232c37.954,0,75.907,0,109.117,0c9.488,0,14.232-4.744,14.232-14.232c0-23.721,0-42.697,0-66.419
		c0-9.488-4.744-14.232-14.232-14.232C341.581,512.232,322.604,512.232,303.628,512.232z M118.604,322.465
		c18.977,0,37.954,0,56.93,0c9.489,0,14.233-4.744,14.233-14.233c0-23.721,0-42.697,0-66.418c-4.744-4.744-4.744-9.488-14.233-9.488
		c-37.953,0-75.907,0-113.86,0c-9.488,0-14.232,4.744-14.232,14.232c0,23.721,0,42.698,0,66.418c0,9.489,4.744,14.233,14.232,14.233
		C80.651,322.465,99.628,322.465,118.604,322.465z M493.396,322.465c18.977,0,37.953,0,56.93,0c9.488,0,14.233-4.744,14.233-14.233
		c0-23.721,0-42.697,0-66.418c0-9.488-4.745-14.232-14.233-14.232c-37.953,4.744-75.906,4.744-113.86,4.744
		c-9.488,0-14.232,4.744-14.232,14.232c0,23.721,0,42.698,0,66.418c0,9.489,4.744,14.233,14.232,14.233
		C455.441,322.465,474.419,322.465,493.396,322.465z M118.604,512.232c-18.977,0-37.953,0-56.93,0
		c-9.488,0-14.232,4.744-14.232,14.232c0,23.722,0,42.698,0,66.419c0,9.488,4.744,14.232,14.232,14.232c37.954,0,75.907,0,113.86,0
		c9.489,0,14.233-4.744,14.233-14.232c0-23.721,0-42.697,0-66.419c0-9.488-4.744-14.232-14.233-14.232
		C156.558,512.232,137.582,512.232,118.604,512.232z M493.396,512.232c-18.977,0-37.954,0-56.931,0
		c-9.488,4.744-14.232,4.744-14.232,14.232c0,23.722,0,42.698,0,66.419c0,9.488,4.744,14.232,14.232,14.232
		c37.954,0,75.907,0,113.86,0c9.489,0,14.233-4.744,14.233-14.232c0-23.721,0-42.697,0-66.419c0-9.488-4.744-14.232-14.233-14.232
		C531.349,512.232,512.372,512.232,493.396,512.232z M303.628,464.791c18.977,0,37.953,0,56.931,0
		c9.488,0,14.232-4.744,14.232-14.232c0-23.722,0-42.698,0-66.419c0-4.744-4.744-9.488-14.232-9.488c-37.954,0-75.907,0-113.861,0
		c-9.488,0-9.488,4.744-9.488,14.232c0,23.721,0,42.697,0,66.419c0,4.744,0,9.488,9.488,9.488
		C265.674,464.791,284.651,464.791,303.628,464.791z"/>
</g>
</svg>
