<?xml version="1.0" encoding="utf-8"?>
<!-- Generator: Adobe Illustrator 19.0.0, SVG Export Plug-In . SVG Version: 6.00 Build 0)  -->
<svg version="1.1" id="Layer_1" xmlns="http://www.w3.org/2000/svg" xmlns:xlink="http://www.w3.org/1999/xlink" x="0px" y="0px"
	 viewBox="0 0 15.2 15.2" style="enable-background:new 0 0 15.2 15.2;" xml:space="preserve">
<style type="text/css">
	.st0{fill:#959595;}
</style>
<g>
	<g>
		<path class="st0" d="M8.4,4.9c0,0.5,0,1,0,1.5c0,0.3,0.1,0.4,0.3,0.4c1,0,2,0,3,0c0.3,0,0.4-0.1,0.4-0.4c0-0.3,0-0.5,0-0.8
			c0-0.3,0.3-0.5,0.6-0.3C13.5,6,14.2,6.7,15,7.3c0.2,0.2,0.2,0.4,0,0.6c-0.8,0.6-1.6,1.3-2.3,1.9c-0.3,0.2-0.5,0.1-0.6-0.3
			c0-0.3,0-0.6,0-0.8c0-0.2-0.1-0.3-0.3-0.3c-1,0-2.1,0-3.1,0c-0.2,0-0.3,0.1-0.3,0.3c0,1,0,2.1,0,3.1c0,0.2,0.1,0.3,0.3,0.3
			c0.3,0,0.5,0,0.8,0c0.2,0,0.3,0.1,0.4,0.2c0.1,0.2,0,0.3-0.1,0.4c-0.6,0.8-1.2,1.5-1.9,2.3c-0.2,0.2-0.4,0.2-0.6,0
			c-0.6-0.8-1.3-1.5-1.9-2.3c-0.2-0.3-0.1-0.6,0.3-0.6c0.3,0,0.6,0,0.8,0c0.2,0,0.3-0.1,0.3-0.3c0-1.1,0-2.1,0-3.2
			c0-0.2-0.1-0.3-0.3-0.3c-1,0-2.1,0-3.1,0c-0.2,0-0.3,0.1-0.3,0.3c0,0.3,0,0.5,0,0.8c0,0.4-0.3,0.5-0.6,0.3
			C1.7,9.1,0.9,8.5,0.2,7.9c-0.3-0.2-0.3-0.4,0-0.6C0.9,6.6,1.7,6,2.5,5.4c0.3-0.2,0.6-0.1,0.6,0.3c0,0.3,0,0.5,0,0.8
			c0,0.2,0.1,0.3,0.3,0.3c1,0,2.1,0,3.1,0c0.2,0,0.3-0.1,0.3-0.3c0-1,0-2.1,0-3.1c0-0.2-0.1-0.3-0.3-0.3c-0.3,0-0.5,0-0.8,0
			C5.3,3,5.2,2.8,5.4,2.5C6,1.7,6.7,0.9,7.3,0.2c0.2-0.2,0.4-0.2,0.6,0c0.6,0.8,1.3,1.5,1.9,2.3C10,2.8,9.9,3.1,9.5,3.1
			c-0.3,0-0.5,0-0.8,0c-0.2,0-0.3,0.1-0.3,0.3C8.4,3.9,8.4,4.4,8.4,4.9z"/>
	</g>
</g>
</svg>
