<?xml version="1.0" encoding="UTF-8"?>
<!DOCTYPE svg PUBLIC "-//W3C//DTD SVG 1.1//EN" "http://www.w3.org/Graphics/SVG/1.1/DTD/svg11.dtd">
<!-- Creator: CorelDRAW X8 -->
<svg xmlns="http://www.w3.org/2000/svg" xml:space="preserve" width="512px" height="512px" version="1.1" style="shape-rendering:geometricPrecision; text-rendering:geometricPrecision; image-rendering:optimizeQuality; fill-rule:evenodd; clip-rule:evenodd"
viewBox="0 0 512 512"
 xmlns:xlink="http://www.w3.org/1999/xlink">
 <defs>
  <style type="text/css">
   <![CDATA[
    .fil0 {fill:none}
    .fil5 {fill:url(#id0)}
    .fil1 {fill:url(#id1)}
    .fil4 {fill:url(#id2)}
    .fil6 {fill:url(#id3)}
    .fil8 {fill:url(#id4)}
    .fil3 {fill:url(#id5)}
    .fil2 {fill:url(#id6)}
    .fil7 {fill:url(#id7)}
   ]]>
  </style>
  <radialGradient id="id0" gradientUnits="userSpaceOnUse" gradientTransform="matrix(1 -0 -0 0.447954 0 61)" cx="256.457" cy="110.32" r="619.292" fx="256.457" fy="110.32">
   <stop offset="0" style="stop-opacity:1; stop-color:#373435"/>
   <stop offset="1" style="stop-opacity:1; stop-color:#373435"/>
  </radialGradient>
  <radialGradient id="id1" gradientUnits="userSpaceOnUse" gradientTransform="matrix(1 -0 -0 0.447956 0 61)" xlink:href="#id0" cx="256.457" cy="110.32" r="619.292" fx="256.457" fy="110.32">
  </radialGradient>
  <radialGradient id="id2" gradientUnits="userSpaceOnUse" gradientTransform="matrix(0.999999 -0 -0 0.38951 0 190)" xlink:href="#id0" cx="256.098" cy="311.808" r="620.031" fx="256.098" fy="311.808">
  </radialGradient>
  <radialGradient id="id3" gradientUnits="userSpaceOnUse" gradientTransform="matrix(1 -0 -0 0.390705 0 132)" xlink:href="#id0" cx="256.128" cy="216.765" r="619.942" fx="256.128" fy="216.765">
  </radialGradient>
  <radialGradient id="id4" gradientUnits="userSpaceOnUse" gradientTransform="matrix(0.999995 -0 -0 0.390694 0 248)" xlink:href="#id0" cx="256" cy="406.335" r="620.892" fx="256" fy="406.335">
  </radialGradient>
  <radialGradient id="id5" gradientUnits="userSpaceOnUse" gradientTransform="matrix(1 -0 -0 0.390705 0 132)" xlink:href="#id0" cx="256.128" cy="216.765" r="619.942" fx="256.128" fy="216.765">
  </radialGradient>
  <radialGradient id="id6" gradientUnits="userSpaceOnUse" gradientTransform="matrix(0.999995 -0 -0 0.390694 0 248)" xlink:href="#id0" cx="256" cy="406.335" r="620.892" fx="256" fy="406.335">
  </radialGradient>
  <radialGradient id="id7" gradientUnits="userSpaceOnUse" gradientTransform="matrix(0.999999 -0 -0 0.38951 0 190)" xlink:href="#id0" cx="256.098" cy="311.808" r="620.031" fx="256.098" fy="311.808">
  </radialGradient>
 </defs>
 <g id="Layer_x0020_1">
  <metadata id="CorelCorpID_0Corel-Layer"/>
  <rect class="fil0" width="512" height="512"/>
  <g id="_1812124175984">
   <g>
    <path class="fil1" d="M229 23c-37,2 -80,10 -110,23 -28,11 -68,33 -68,66 0,24 12,35 28,49 42,34 126,45 182,45 50,0 133,-13 171,-44 14,-11 29,-24 30,-45 3,-72 -144,-98 -216,-95l-17 1z"/>
    <path class="fil2" d="M51 329c1,66 -15,98 51,130 41,21 97,31 150,31 62,0 173,-15 204,-69 8,-14 6,-22 6,-40 0,-15 0,-30 -1,-44 0,0 0,0 0,1l-3 6c-18,45 -95,65 -138,71 -45,6 -93,6 -136,-1 -36,-6 -78,-19 -106,-41 -5,-4 -14,-13 -18,-18 -11,-18 -6,-16 -9,-26z"/>
    <path class="fil3" d="M240 300c51,0 101,-2 149,-21 17,-7 34,-14 45,-24 10,-8 28,-24 28,-42l-1 -66c0,1 0,1 -1,3 0,1 -1,3 -1,3l-10 17c-15,17 -42,33 -65,40 -81,27 -176,27 -257,0 -27,-10 -61,-28 -72,-55 -3,-7 -2,-10 -4,-15 0,18 -2,72 2,84 8,20 25,32 44,43 34,19 97,33 143,33z"/>
    <path class="fil4" d="M462 307l-3 -60c-1,4 -2,4 -3,6 -6,12 -13,19 -23,27 -40,28 -110,45 -158,45 -54,0 -103,-2 -153,-23 -22,-9 -50,-23 -62,-42 -2,-4 -4,-8 -6,-11 -2,-6 -2,-10 -3,-14 0,17 -2,68 1,80 15,55 120,75 170,79 64,5 153,-4 205,-39 12,-9 35,-26 35,-48z"/>
   </g>
   <path class="fil5" d="M246 22c72,-3 219,23 216,95 -1,21 -16,34 -30,45 -38,31 -121,44 -171,44 -56,0 -140,-11 -182,-45 -16,-14 -28,-25 -28,-49 0,-33 40,-55 68,-66 30,-13 73,-21 110,-23l17 -1z"/>
   <path class="fil6" d="M240 300c-46,0 -109,-14 -143,-33 -19,-11 -36,-23 -44,-43 -4,-12 -2,-66 -2,-84 2,5 1,8 4,15 11,27 45,45 72,55 81,27 176,27 257,0 23,-7 50,-23 65,-40l10 -17c0,0 1,-2 1,-3 1,-2 1,-2 1,-3l1 66c0,18 -18,34 -28,42 -11,10 -28,17 -45,24 -48,19 -98,21 -149,21z"/>
   <path class="fil7" d="M462 307c0,22 -23,39 -35,48 -52,35 -141,44 -205,39 -50,-4 -155,-24 -170,-79 -3,-12 -1,-63 -1,-80 1,4 1,8 3,14 2,3 4,7 6,11 12,19 40,33 62,42 50,21 99,23 153,23 48,0 118,-17 158,-45 10,-8 17,-15 23,-27 1,-2 2,-2 3,-6l3 60z"/>
   <path class="fil8" d="M51 329c3,10 -2,8 9,26 4,5 13,14 18,18 28,22 70,35 106,41 43,7 91,7 136,1 43,-6 120,-26 138,-71l3 -6c0,-1 0,-1 0,-1 1,14 1,29 1,44 0,18 2,26 -6,40 -31,54 -142,69 -204,69 -53,0 -109,-10 -150,-31 -66,-32 -50,-64 -51,-130z"/>
  </g>
 </g>
</svg>
