<?xml version="1.0" encoding="UTF-8"?>
<!DOCTYPE svg PUBLIC "-//W3C//DTD SVG 1.1//EN" "http://www.w3.org/Graphics/SVG/1.1/DTD/svg11.dtd">
<!-- Creator: CorelDRAW X8 -->
<svg xmlns="http://www.w3.org/2000/svg" xml:space="preserve" width="512px" height="512px" version="1.1" style="shape-rendering:geometricPrecision; text-rendering:geometricPrecision; image-rendering:optimizeQuality; fill-rule:evenodd; clip-rule:evenodd"
viewBox="0 0 512 512"
 xmlns:xlink="http://www.w3.org/1999/xlink">
 <defs>
  <style type="text/css">
   <![CDATA[
    .str0 {stroke:#FFFFFF;stroke-width:0.3}
    .fil2 {fill:none}
    .fil1 {fill:#FFFFFF}
    .fil0 {fill:#5B5B5B}
   ]]>
  </style>
    <clipPath id="id0">
     <path d="M256 70c117,0 212,94 212,211 0,117 -95,212 -212,212 -117,0 -212,-95 -212,-212 0,-117 95,-211 212,-211z"/>
    </clipPath>
    <clipPath id="id1">
     <path d="M256 70c117,0 212,94 212,211 0,117 -95,212 -212,212 -117,0 -212,-95 -212,-212 0,-117 95,-211 212,-211z"/>
    </clipPath>
 </defs>
 <g id="Layer_x0020_1">
  <metadata id="CorelCorpID_0Corel-Layer"/>
  <g id="_2196504619440">
   <g style="clip-path:url(#id0)">
    <polygon class="fil0" points="44,70 468,70 468,493 44,493 "/>
   </g>
   <g style="clip-path:url(#id1)">
    <g>
     <path id="1" class="fil1" d="M57 212c14,-3 20,25 20,35 0,48 -14,24 32,43 26,11 -14,39 62,36 8,-1 8,9 31,11 20,2 8,23 1,31 -1,3 -9,36 1,36 21,0 55,10 55,35 0,3 8,44 8,44 24,19 10,8 40,-12 17,-11 18,-36 37,-48 19,-12 -12,-20 6,-35 1,0 15,-29 -21,-15 -26,10 -33,-40 -54,-25 -21,17 -28,-10 -41,-10 -5,0 -60,-27 -59,-39 2,-26 -31,41 -35,-20 -4,-47 27,-4 37,-4 41,0 -4,-36 34,-57 40,-23 -2,-50 47,-46 21,2 30,-23 2,-22 -5,0 -19,-32 -39,-6 -10,11 -29,-12 -30,-10 -6,12 -2,66 -31,25 -16,-21 -36,-15 7,-31 12,-5 -2,-23 12,-15 9,6 10,38 46,3 21,-21 -42,-15 -42,-19 -1,-18 7,-17 -22,-6 -31,12 9,16 -1,33 0,0 -20,9 -19,-9 1,-10 -24,-6 -10,12 9,12 -13,22 -17,6 -21,-7 -57,63 -57,79z"/>
     <path class="fil1" d="M211 79c10,0 20,15 33,8 1,0 -1,11 7,20 14,16 11,-1 25,17 0,0 14,9 14,-7 0,-6 -12,-23 3,-22 3,0 3,7 20,-12 5,-6 -3,-7 -23,-11 -19,-4 -62,-5 -78,5 -1,0 -1,2 -1,2z"/>
     <path class="fil1" d="M314 91c19,-8 3,1 25,0 3,0 7,15 -10,10 -4,-1 -18,3 -16,-9l1 -1z"/>
     <path class="fil1" d="M362 127c10,-2 7,12 4,13 -11,5 -12,-16 -4,-13z"/>
     <path class="fil1" d="M366 121c6,2 12,10 12,16 0,6 5,6 9,3 2,-1 12,7 7,-8 -4,-8 -12,-7 -20,-11 -1,-1 -7,-1 -8,0z"/>
     <path class="fil1" d="M382 109c-3,15 6,5 15,15 7,7 6,10 1,17 -6,8 -6,3 -13,5 0,2 16,14 -1,15 -5,0 -2,9 -1,11 2,6 -4,14 7,7 8,-4 16,12 14,-13 0,-4 11,-12 14,-4 3,7 -4,10 11,15 6,2 9,8 15,3 2,-2 1,-6 -2,-8 -2,-2 -9,-15 -13,-19 -2,-2 -10,-16 -13,-20 -7,-9 -12,-11 -17,-18 -3,-2 -9,-2 -14,-5 -1,-1 -3,-1 -3,-1z"/>
     <path class="fil1" d="M387 197c0,-15 13,1 32,-10 14,-7 5,1 20,17 6,6 5,-21 13,-2 2,4 5,17 9,25 5,11 9,79 4,92 -1,5 -4,29 -9,25 -4,-3 -4,-26 0,-29 7,-5 -8,-13 -8,-22 0,-12 -9,-5 -12,-16 -5,-2 -23,19 -44,-2 -8,-8 -20,-7 -8,-21 7,-7 -5,-20 -5,-21 0,-7 8,-10 10,-22 1,-6 -2,-10 -2,-14z"/>
     <path class="fil1" d="M209 294c3,-3 29,-5 29,-5 0,11 -12,10 -23,10 -3,0 -8,-4 -6,-5z"/>
    </g>
   </g>
   <path class="fil2 str0" d="M256 70c117,0 212,94 212,211 0,117 -95,212 -212,212 -117,0 -212,-95 -212,-212 0,-117 95,-211 212,-211z"/>
   <path class="fil1" d="M276 273l-10 -5c-1,7 1,2 -3,31 20,-21 17,-16 23,-22l-10 -4zm136 -222l-18 -10 -19 -10c1,-3 7,-9 13,-11 6,-2 11,-1 16,1l0 0c4,3 8,6 10,12 2,6 1,14 -2,18zm-143 213l7 4 2 1 113 -223 1 1 19 9 -73 142c-3,5 -23,22 -37,50 -5,8 -11,22 -14,26l-8 -4 -1 -1 113 -223 -1 0 -18 -10 -72 143c-3,5 -4,31 -19,59 -3,9 -11,22 -12,26z"/>
  </g>
  <rect class="fil2" width="512" height="512"/>
 </g>
</svg>
