<?xml version="1.0" encoding="UTF-8"?>
<!DOCTYPE svg PUBLIC "-//W3C//DTD SVG 1.1//EN" "http://www.w3.org/Graphics/SVG/1.1/DTD/svg11.dtd">
<!-- Creator: CorelDRAW X8 -->
<svg xmlns="http://www.w3.org/2000/svg" xml:space="preserve" width="512px" height="512px" version="1.1" style="shape-rendering:geometricPrecision; text-rendering:geometricPrecision; image-rendering:optimizeQuality; fill-rule:evenodd; clip-rule:evenodd"
viewBox="0 0 512 512"
 xmlns:xlink="http://www.w3.org/1999/xlink">
 <defs>
  <style type="text/css">
   <![CDATA[
    .str0 {stroke:#2B2A29;stroke-width:0.694489}
    .fil0 {fill:none}
    .fil1 {fill:#2B2A29}
   ]]>
  </style>
 </defs>
 <g id="Layer_x0020_1">
  <metadata id="CorelCorpID_0Corel-Layer"/>
  <rect class="fil0" width="512" height="512"/>
  <path class="fil1" d="M122 388c-28,-35 -26,-27 -26,-53l0 -160c0,-18 1,-19 10,-29 6,-8 11,-14 17,-21l67 -83c6,-6 -3,0 6,-5l0 438 -74 -87z"/>
  <g id="_1701203608208">
   <path class="fil1" d="M387 394c16,-9 36,-36 47,-56 45,-83 14,-167 -47,-222l0 -37c134,79 118,290 0,354l0 -39z"/>
   <path class="fil1" d="M310 357c39,-23 68,-97 34,-163 -13,-24 -33,-38 -34,-44l0 -25c97,59 90,211 -1,262l1 -30z"/>
   <path class="fil1" d="M249 168c33,13 68,86 33,141 -7,13 -20,29 -33,35 1,-31 6,-20 20,-41 19,-28 18,-65 0,-93 -13,-20 -21,-15 -20,-42z"/>
   <rect class="fil1 str0" x="31" y="158" width="45.0001" height="195.834" rx="26" ry="26"/>
  </g>
 </g>
</svg>
