<?xml version="1.0" encoding="UTF-8"?>
<!DOCTYPE svg PUBLIC "-//W3C//DTD SVG 1.1//EN" "http://www.w3.org/Graphics/SVG/1.1/DTD/svg11.dtd">
<!-- Creator: CorelDRAW 2019 (64-Bit) -->
<svg xmlns="http://www.w3.org/2000/svg" xml:space="preserve" width="512px" height="512px" version="1.1" style="shape-rendering:geometricPrecision; text-rendering:geometricPrecision; image-rendering:optimizeQuality; fill-rule:evenodd; clip-rule:evenodd"
viewBox="0 0 512 512"
 xmlns:xlink="http://www.w3.org/1999/xlink">
 <defs>
  <style type="text/css">
   <![CDATA[
    .fil0 {fill:none}
    .fil1 {fill:white}
   ]]>
  </style>
 </defs>
 <g id="Layer_x0020_1">
  <metadata id="CorelCorpID_0Corel-Layer"/>
  <rect class="fil0" width="512" height="512"/>
  <g id="_2525315180832">
   <path class="fil1" d="M237.83 442.164c-22.579,17.486 -50.936,27.901 -81.726,27.901 -73.819,0 -133.65,-59.831 -133.65,-133.651 0,-51.202 28.813,-95.676 71.082,-118.103 7.451,26.456 21.591,50.138 40.483,69.03 17.638,17.637 39.457,31.169 63.823,38.924 -0.229,3.421 -0.343,6.88 -0.343,10.378 0.038,40.52 15.281,77.506 40.331,105.521l0 0z"/>
   <path class="fil1" d="M489.547 336.642c0,73.82 -59.831,133.651 -133.651,133.651 -73.82,0 -133.651,-59.869 -133.651,-133.651 0,-1.558 0.038,-3.117 0.077,-4.675 7.716,1.14 15.622,1.749 23.681,1.749 43.714,0 83.323,-17.714 111.984,-46.375 20.716,-20.717 35.731,-47.173 42.459,-76.747 51.925,18.36 89.101,67.852 89.101,126.048l0 0z"/>
   <path class="fil1" d="M379.654 175.356c0,73.82 -59.833,133.652 -133.65,133.652 -73.82,0 -133.652,-59.832 -133.652,-133.652 0,-73.82 59.832,-133.65 133.652,-133.65 73.817,0 133.65,59.83 133.65,133.65l0 0zm-181.652 77.006l36.792 -48.818 48.818 36.793 -36.792 48.818 -48.818 -36.793zm22.027 -167.049c27.732,0 50.217,22.485 50.217,50.217 0,27.733 -22.485,50.215 -50.217,50.215 -27.733,0 -50.215,-22.482 -50.215,-50.215 0,-27.732 22.482,-50.217 50.215,-50.217zm65.949 103.979l55.11 -31.337 3.696 63.288 -58.806 -31.951z"/>
  </g>
 </g>
</svg>
