<?xml version="1.0" encoding="UTF-8"?>
<!DOCTYPE svg PUBLIC "-//W3C//DTD SVG 1.1//EN" "http://www.w3.org/Graphics/SVG/1.1/DTD/svg11.dtd">
<!-- Creator: CorelDRAW 2019 (64-Bit) -->
<svg xmlns="http://www.w3.org/2000/svg" xml:space="preserve" width="512px" height="512px" version="1.1" style="shape-rendering:geometricPrecision; text-rendering:geometricPrecision; image-rendering:optimizeQuality; fill-rule:evenodd; clip-rule:evenodd"
viewBox="0 0 512 512"
 xmlns:xlink="http://www.w3.org/1999/xlink">
 <defs>
  <style type="text/css">
   <![CDATA[
    .str0 {stroke:white;stroke-width:32.866;stroke-miterlimit:22.9256}
    .str1 {stroke:white;stroke-width:32.866;stroke-miterlimit:22.9256}
    .fil0 {fill:none}
    .fil2 {fill:none;fill-rule:nonzero}
    .fil1 {fill:white;fill-rule:nonzero}
   ]]>
  </style>
 </defs>
 <g id="Layer_x0020_1">
  <metadata id="CorelCorpID_0Corel-Layer"/>
  <rect class="fil0" width="512" height="512"/>
  <g id="_2525306457920">
   <g>
    <path class="fil1" d="M36.89 475.11l0 -438.221 438.221 0 0 438.221 -438.221 0zm109.553 -438.221l0 438.221 0 -438.221zm328.668 109.553l-438.221 0 438.221 0z"/>
    <path id="1" class="fil2 str0" d="M36.89 475.11l0 -438.221 438.221 0 0 438.221 -438.221 0zm109.553 -438.221l0 438.221m328.668 -328.668l-438.221 0m0 109.556m219.109 -219.109m219.112 219.109m-219.112 219.112m-109.556 -219.112m109.556 -109.556"/>
   </g>
   <line class="fil0 str1" x1="186.423" y1="218.198" x2="431.28" y2= "218.198" />
   <line class="fil0 str1" x1="186.423" y1="310.223" x2="391.84" y2= "310.223" />
   <line class="fil0 str1" x1="186.423" y1="398.967" x2="331.037" y2= "398.967" />
  </g>
 </g>
</svg>
