<?xml version="1.0" encoding="UTF-8"?>
<!DOCTYPE svg PUBLIC "-//W3C//DTD SVG 1.1//EN" "http://www.w3.org/Graphics/SVG/1.1/DTD/svg11.dtd">
<!-- Creator: CorelDRAW X8 -->
<svg xmlns="http://www.w3.org/2000/svg" xml:space="preserve" width="512px" height="512px" version="1.1" style="shape-rendering:geometricPrecision; text-rendering:geometricPrecision; image-rendering:optimizeQuality; fill-rule:evenodd; clip-rule:evenodd"
viewBox="0 0 512 512"
 xmlns:xlink="http://www.w3.org/1999/xlink">
 <defs>
  <style type="text/css">
   <![CDATA[
    .fil0 {fill:none}
    .fil1 {fill:#FFFFFF}
    .fil2 {fill:#FFFFFF;fill-rule:nonzero}
   ]]>
  </style>
 </defs>
 <g id="Layer_x0020_1">
  <metadata id="CorelCorpID_0Corel-Layer"/>
  <rect class="fil0" width="512" height="512"/>
  <g id="_1701287785120">
   <path class="fil1" d="M416 401l35 0 0 34 -35 0 0 -34zm-70 8l0 -8 4 0 28 0 2 0 0 34 -2 0 -32 0 0 -26zm-214 -8l35 0 0 34 -35 0 0 -34zm-71 0l35 0 0 34 -35 0 0 -34zm248 34c-11,0 -23,1 -35,0l0 -34 35 0 0 34zm-106 -34l35 0 0 34c-11,1 -24,0 -35,0 0,-6 0,-10 0,-16 0,-6 1,-12 0,-18zm-155 -17c0,-21 0,-43 0,-65l-1 -67c0,0 1,-2 1,-3 0,-14 0,-42 0,-57 0,-16 0,-51 0,-64 4,-2 91,-1 104,-1 104,0 208,1 312,0l0 258 -261 0c-17,0 -35,0 -52,0 -14,-1 -98,1 -103,-1zm403 -306l0 34c-10,0 -26,0 -35,0l0 -34 35 0zm-105 0l34 0 0 34 -34 0 0 -34zm-213 0l34 0 0 34 -35 0 1 -34zm-37 0l0 34 -35 0 0 -34 11 0 24 0zm130 0c4,0 8,-1 12,0l0 34 -35 0c0,-9 -1,-27 1,-34l11 0 11 0zm48 0c13,-1 22,-1 34,0 2,6 1,26 1,34l-35 0 0 -34zm-243 174c0,8 0,17 0,25l0 131c0,18 7,29 17,36 13,8 27,6 45,6l314 0c13,0 39,2 49,-2 12,-5 22,-14 25,-29 1,-7 0,-17 0,-25l0 -290c0,-18 -6,-28 -17,-36 -7,-5 -9,-4 -14,-5 -7,-2 -23,-1 -31,-1l-315 0c-16,0 -37,-2 -50,3 -11,4 -21,15 -23,30 -1,6 0,43 0,52l0 105z"/>
   <path class="fil2" d="M381 183l-71 0 -8 -21c-3,-7 -12,-13 -19,-13l-54 0c-8,0 -16,6 -19,13l-9 21 -70 0c-7,0 -19,5 -19,13l0 152c0,8 12,15 19,15l250 0c7,0 19,-7 19,-15l0 -152c0,-8 -12,-13 -19,-13zm-125 153l0 0c-37,0 -67,-30 -67,-68 0,-37 30,-67 67,-67 38,0 68,30 68,67 0,38 -30,68 -68,68zm105 -99l0 0c-10,0 -18,-8 -18,-18 0,-10 8,-18 18,-18 10,0 17,8 17,18 0,10 -7,18 -17,18z"/>
   <path class="fil1" d="M254 224c-7,1 -12,2 -18,5 -5,2 -6,4 -10,7 -1,0 -1,0 -1,1 -17,16 -18,40 -5,58 2,2 4,5 5,6l7 5c28,19 71,-1 69,-39 -1,-12 -6,-24 -14,-31 -8,-6 -19,-13 -33,-12z"/>
  </g>
 </g>
</svg>
