<?xml version="1.0" encoding="UTF-8"?>
<!DOCTYPE svg PUBLIC "-//W3C//DTD SVG 1.1//EN" "http://www.w3.org/Graphics/SVG/1.1/DTD/svg11.dtd">
<!-- Creator: CorelDRAW X8 -->
<svg xmlns="http://www.w3.org/2000/svg" xml:space="preserve" width="512px" height="512px" version="1.1" style="shape-rendering:geometricPrecision; text-rendering:geometricPrecision; image-rendering:optimizeQuality; fill-rule:evenodd; clip-rule:evenodd"
viewBox="0 0 512 512"
 xmlns:xlink="http://www.w3.org/1999/xlink">
 <defs>
  <style type="text/css">
   <![CDATA[
    .fil0 {fill:none}
    .fil1 {fill:#FFFFFF}
   ]]>
  </style>
 </defs>
 <g id="Layer_x0020_1">
  <metadata id="CorelCorpID_0Corel-Layer"/>
  <rect class="fil0" width="512" height="512"/>
  <g id="_1701183182512">
   <path class="fil1" d="M293 411c-9,0 -17,-4 -21,-8 -3,-3 -5,-5 -7,-9 -3,-7 -3,-9 -3,-16 0,-18 21,-37 44,-27 4,2 6,4 9,7 2,1 5,6 6,8 9,17 1,37 -15,43 -4,1 -7,2 -13,2zm156 -14l0 0c0,2 -6,12 -7,14 -4,7 -9,13 -14,20 -3,2 -12,11 -14,14 -5,3 -7,6 -12,9 -11,8 -13,9 -26,15 -10,5 -29,10 -40,12 -3,0 -6,1 -9,1l-15 1c-9,-1 -14,-1 -23,-2 -24,-4 -44,-13 -60,-23 -1,-1 -2,-2 -3,-3l-17 -14c-6,-5 -10,-10 -15,-16 -5,-6 -11,-15 -14,-22 -1,-1 -2,-2 -2,-3 -1,-2 -1,-2 -1,-4 3,-5 8,-14 12,-19 1,-2 3,-4 4,-6l7 -8c1,-1 2,-2 3,-3 2,-2 3,-3 5,-5l8 -7c5,-4 10,-8 15,-11 13,-9 28,-15 43,-19 20,-6 46,-7 67,-3 23,5 39,12 57,25 5,3 8,5 12,8 4,4 14,13 17,17 3,4 6,7 9,12 1,1 2,2 3,3 2,3 10,16 10,17zm-209 -48l-3 14c0,2 0,4 -1,5 0,5 0,12 0,17 1,2 1,3 1,5 3,16 8,26 18,39 3,4 9,9 12,11 18,14 41,19 64,12 6,-1 12,-4 16,-7 5,-3 6,-3 10,-7 5,-4 6,-5 9,-8l3 -3c8,-11 14,-23 16,-37 3,-14 1,-22 -1,-36 -1,-1 -1,-3 -1,-5l3 1c1,1 1,1 2,2 6,4 15,11 20,16 8,8 15,18 21,28 1,2 0,1 -2,5l-13 18c-4,4 -8,9 -11,12 -1,1 -1,1 -2,2l-5 4c-7,7 -21,16 -30,20 -1,0 -2,0 -3,1 -17,7 -32,11 -52,11 -14,0 -32,-3 -44,-9 -17,-6 -26,-11 -40,-22l-8 -6c0,-1 -1,-1 -2,-2 -8,-7 -18,-21 -23,-30 -1,-3 -1,-2 2,-6 2,-4 4,-7 7,-11 8,-10 16,-19 26,-27 1,-1 6,-5 8,-6 2,-1 1,-1 3,-1zm0 0l0 0z"/>
   <path class="fil1" d="M341 75c4,3 19,16 24,21l12 10 20 21c1,2 3,3 4,5l7 10 -67 0 0 -67zm-250 -46l221 0c10,0 26,9 33,13 8,5 14,9 20,15l13 11c1,1 2,1 3,2l9 9c10,8 31,32 38,43l9 14c6,7 14,20 16,30 1,5 1,176 1,183 -3,-2 -28,-17 -29,-17l0 -161 -100 0c-8,0 -13,-7 -13,-15l0 -98 -221 0c-2,0 -4,2 -5,4 0,2 0,59 0,62 0,68 0,137 0,204 0,39 0,78 0,117 0,9 6,8 10,8l100 0c7,0 31,26 34,29 -28,0 -95,0 -123,0l0 0 -13 0c-9,0 -14,-1 -22,-7 -7,-6 -14,-17 -14,-27l0 -388c0,-7 6,-16 11,-21 5,-5 14,-10 22,-10z"/>
   <path class="fil1" d="M103 99c0,5 0,8 3,12 2,3 3,4 7,4l96 0c7,0 11,-29 -2,-29l-94 0c-4,0 -6,2 -7,4 -2,2 -3,5 -3,9z"/>
   <path class="fil1" d="M102 150c0,6 1,17 10,17l143 0c8,0 13,-29 -4,-29l-137 0c-8,0 -12,6 -12,12z"/>
   <path class="fil1" d="M101 202c0,6 1,17 16,17l224 0c13,0 21,-29 -6,-29l-215 0c-13,0 -19,7 -19,12z"/>
   <path class="fil1" d="M101 257c0,5 1,16 18,16l260 0c15,0 24,-28 -8,-28l-248 0c-15,0 -22,6 -22,12z"/>
  </g>
 </g>
</svg>
