<?xml version="1.0" encoding="UTF-8"?>
<!DOCTYPE svg PUBLIC "-//W3C//DTD SVG 1.1//EN" "http://www.w3.org/Graphics/SVG/1.1/DTD/svg11.dtd">
<!-- Creator: CorelDRAW 2019 (64-Bit Evaluation Version) -->
<svg xmlns="http://www.w3.org/2000/svg" xml:space="preserve" width="512px" height="512px" version="1.1" style="shape-rendering:geometricPrecision; text-rendering:geometricPrecision; image-rendering:optimizeQuality; fill-rule:evenodd; clip-rule:evenodd"
viewBox="0 0 512 512"
 xmlns:xlink="http://www.w3.org/1999/xlink">
 <defs>
  <style type="text/css">
   <![CDATA[
    .fil0 {fill:none}
    .fil1 {fill:#373435}
   ]]>
  </style>
 </defs>
 <g id="Layer_x0020_1">
  <metadata id="CorelCorpID_0Corel-Layer"/>
  <rect class="fil0" width="512" height="512"/>
  <g id="_1751764270416">
   <path class="fil1" d="M96.208 442.617c-2.07,-5.087 -5.004,-10.549 -8.322,-14.477 -5.622,-6.651 -9.357,-7.264 -14.208,-12.531 3.741,-13.821 11.616,-31.306 16.843,-44.656 32.637,-83.365 68.891,-185.601 101.974,-265.353 6.726,-16.213 2.953,-5.643 15.919,-15.209 5.341,-3.939 9.982,-9.947 13.448,-17.19l155.794 7.647c4.091,4.958 4.832,8.776 7.78,13.096 5.516,8.086 6.02,4.864 13.109,10.912 9.05,7.72 18.763,100.52 21.082,115.788 7.941,52.258 17.873,108.388 23.51,161.171 -24.895,6.437 -17.474,18.154 -29.431,22.645l-317.498 38.157zm358.57 14.467c28.369,-0.778 46.064,-28.253 33.561,-56.478 -6.378,-14.4 -7.218,-8.423 -16.924,-16.689 -8.038,-6.85 -9.229,-39.98 -10.999,-51.633 -11.298,-74.508 -21.979,-149.077 -32.936,-223.093 12.023,-8.555 20.588,-8.682 26.006,-25.921 4.916,-15.652 -0.775,-32.725 -8.945,-40.659 -8.557,-8.307 -25.603,-13.778 -40.659,-8.838 -20.275,6.651 -16.543,18.753 -27.428,22.328l-153.533 -7.362c-9.493,-25.663 -40.184,-39.89 -63.84,-17.724 -9.421,8.825 -14.792,22.231 -10.956,38.396 3.636,15.321 13.437,17.676 22.667,27.386 -18.545,59.334 -49.41,128.927 -72.035,187.529 -11.918,30.87 -23.448,62.805 -35.841,93.898 -10.293,25.828 -9.012,33.654 -22.067,41.127 -37.764,21.614 -20.018,68.382 12.755,72.183 26.026,3.02 28.798,-10.768 40.152,-21.408 4.859,-4.552 3.271,-3.389 11.971,-4.438 56.781,-6.827 290.005,-36.634 310.196,-35.911 7.262,14.372 16.412,27.924 38.855,27.307z"/>
   <g>
    <g>
     <g>
      <g>
       <path class="fil1" d="M397.254 289.744c0,14.127 -11.559,25.683 -25.683,25.683 -2.313,0 -4.495,-0.257 -6.55,-0.898l-45.716 45.587c0.641,2.056 0.898,4.369 0.898,6.679 0,14.126 -11.559,25.683 -25.683,25.683 -14.124,0 -25.682,-11.559 -25.682,-25.683 0,-2.313 0.257,-4.623 0.898,-6.679l-32.747 -32.747c-2.054,0.643 -4.366,0.901 -6.677,0.901 -2.31,0 -4.623,-0.258 -6.678,-0.898l-58.43 58.558c0.643,2.056 0.898,4.237 0.898,6.55 0,14.126 -11.559,25.683 -25.683,25.683 -14.124,0 -25.682,-11.559 -25.682,-25.683 0,-14.124 11.558,-25.683 25.682,-25.683 2.313,0 4.495,0.258 6.55,0.898l58.559 -58.429c-0.643,-2.056 -0.901,-4.369 -0.901,-6.679 0,-14.126 11.559,-25.683 25.683,-25.683 14.124,0 25.683,11.559 25.683,25.683 0,2.313 -0.257,4.623 -0.898,6.679l32.747 32.747c2.055,-0.644 4.366,-0.901 6.678,-0.901 2.313,0 4.624,0.257 6.679,0.898l45.587 -45.716c-0.643,-2.055 -0.898,-4.237 -0.898,-6.55 0,-14.126 11.559,-25.682 25.683,-25.682 14.124,0 25.683,11.559 25.683,25.682z"/>
      </g>
     </g>
    </g>
    <path class="fil1" d="M232.595 173.436c0,19.693 2.728,26.89 12.189,43.789 8.621,15.406 24.014,46.5 32.903,64.283 3.46,6.915 15.398,28.656 16.329,32.652l1.554 0c1.338,-5.741 8.855,-17.64 11.925,-23.836 1.52,-3.074 2.611,-5.239 4.144,-8.301l24.615 -48.461c8.115,-16.224 20.737,-35.28 20.737,-52.349 0,-13.163 -0.048,-18.619 -5.698,-30.847 -8.803,-19.052 -30.717,-35.237 -52.614,-35.237 -20.195,0 -33.41,3.477 -48.006,18.078 -10.124,10.119 -18.078,24.538 -18.078,40.229zm58.312 -32.652c11.847,0 20.576,0.693 30.154,10.271 13.908,13.908 13.908,38.632 0,52.54 -14.41,14.41 -40.525,13.751 -53.675,-1.195 -12.647,-14.38 -12.647,-35.766 0,-50.146 4.33,-4.919 14.618,-11.47 23.521,-11.47z"/>
   </g>
  </g>
 </g>
</svg>
