<?xml version="1.0" encoding="UTF-8"?>
<!DOCTYPE svg PUBLIC "-//W3C//DTD SVG 1.1//EN" "http://www.w3.org/Graphics/SVG/1.1/DTD/svg11.dtd">
<!-- Creator: CorelDRAW 2019 (64-Bit Evaluation Version) -->
<svg xmlns="http://www.w3.org/2000/svg" xml:space="preserve" width="512px" height="512px" version="1.1" style="shape-rendering:geometricPrecision; text-rendering:geometricPrecision; image-rendering:optimizeQuality; fill-rule:evenodd; clip-rule:evenodd"
viewBox="0 0 512 512"
 xmlns:xlink="http://www.w3.org/1999/xlink">
 <defs>
  <style type="text/css">
   <![CDATA[
    .fil0 {fill:none}
    .fil1 {fill:#ffffff}
   ]]>
  </style>
 </defs>
 <g id="Layer_x0020_1">
  <metadata id="CorelCorpID_0Corel-Layer"/>
  <rect class="fil0" width="512" height="512"/>
  <g id="_1751248717904">
   <g>
    <path class="fil1" d="M129.653 166.705c0,21.74 6.594,39.189 14.824,54.063 7.194,13.001 12.924,19.314 22.426,29.899 5.874,6.544 7.224,4.54 7.224,14.445 0,4.012 -3.618,7.861 -6.305,9.806l-37.738 12.451c-37.483,13.515 -108.585,47.194 -108.585,88.906 0,16 4.238,27.88 15.394,38.06 8.343,7.613 21.95,15.699 35.145,15.699l240.566 0 0 -65.604c0,-6.971 3.919,-15.546 7.335,-19.812 11.929,-14.897 15.068,-6.894 17.403,-17.114 0.494,-2.16 0.911,-3.675 1.4,-5.116 5.327,-15.668 14.933,-23.193 15.304,-27.208l-35.377 -12.756c-17.731,-6.374 -29.313,-3.662 -29.313,-20.957 0,-8.441 20.89,-19.604 34.087,-49.455 17.879,-40.441 12.595,-89.156 -22.715,-121.163 -13.173,-11.941 -36.904,-23.462 -62.922,-23.462 -23.129,0 -32.8,0.205 -53.235,9.415 -36.048,16.249 -54.918,51.738 -54.918,89.903z"/>
    <path class="fil1" d="M427.833 424.567l-21.226 0 3.141 -21.894c-0.547,-7.842 -5.163,-2.75 -5.163,-12.73 0,-5.474 6.057,-10.934 12.13,-10.934 10.832,0 17.878,9.842 11.709,17.841 -3.502,4.541 -4.385,0.468 -2.437,12.062 0.678,4.032 1.846,11.048 1.846,15.655zm-40.431 -78.361c0,-25.006 25.307,-35.116 42.774,-27.625 18.785,8.056 17.873,22.236 17.873,38.559l-60.647 0 0 -10.934zm-20.216 -5.467l0 16.401c-10.675,0 -23.248,-2.275 -23.248,10.935l0 65.604c0,5.882 3.784,10.934 10.108,10.934l127.358 0c4.996,0 9.097,-3.697 9.097,-8.201l0 -71.071c0,-13.958 -22.237,-3.943 -22.237,-10.934 0,-15.045 2.4,-23.645 -11.528,-39.723 -15.08,-17.407 -47.015,-21.27 -67.885,-8.174 -11.625,7.296 -21.665,20.804 -21.665,34.229z"/>
   </g>
  </g>
 </g>
</svg>
