<?xml version="1.0" encoding="UTF-8"?>
<!DOCTYPE svg PUBLIC "-//W3C//DTD SVG 1.1//EN" "http://www.w3.org/Graphics/SVG/1.1/DTD/svg11.dtd">
<!-- Creator: CorelDRAW 2019 (64-Bit Evaluation Version) -->
<svg xmlns="http://www.w3.org/2000/svg" xml:space="preserve" width="512px" height="512px" version="1.1" style="shape-rendering:geometricPrecision; text-rendering:geometricPrecision; image-rendering:optimizeQuality; fill-rule:evenodd; clip-rule:evenodd"
viewBox="0 0 512 512"
 xmlns:xlink="http://www.w3.org/1999/xlink">
 <defs>
  <style type="text/css">
   <![CDATA[
    .fil0 {fill:none}
    .fil1 {fill:#ffffff}
   ]]>
  </style>
 </defs>
 <g id="Layer_x0020_1">
  <metadata id="CorelCorpID_0Corel-Layer"/>
  <rect class="fil0" width="512" height="512"/>
  <g id="_1751867758112">
   <g>
    <g>
     <g>
      <path class="fil1" d="M477.42 292.207c0,22.142 -18.118,40.257 -40.257,40.257 -3.625,0 -7.045,-0.403 -10.267,-1.408l-71.659 71.457c1.004,3.223 1.408,6.848 1.408,10.469 0,22.143 -18.119,40.257 -40.257,40.257 -22.14,0 -40.258,-18.118 -40.258,-40.257 0,-3.625 0.404,-7.246 1.408,-10.469l-51.331 -51.33c-3.218,1.008 -6.843,1.411 -10.464,1.411 -3.622,0 -7.247,-0.403 -10.469,-1.407l-91.587 91.789c1.008,3.222 1.407,6.642 1.407,10.267 0,22.143 -18.118,40.257 -40.257,40.257 -22.139,0 -40.257,-18.118 -40.257,-40.257 0,-22.139 18.118,-40.257 40.257,-40.257 3.625,0 7.045,0.403 10.267,1.407l91.789 -91.587c-1.008,-3.222 -1.411,-6.848 -1.411,-10.469 0,-22.143 18.118,-40.257 40.257,-40.257 22.139,0 40.257,18.118 40.257,40.257 0,3.625 -0.403,7.247 -1.407,10.469l51.33 51.33c3.222,-1.008 6.843,-1.411 10.469,-1.411 3.625,0 7.246,0.403 10.468,1.407l71.457 -71.659c-1.008,-3.221 -1.407,-6.641 -1.407,-10.266 0,-22.143 18.118,-40.257 40.257,-40.257 22.139,0 40.257,18.118 40.257,40.257z"/>
     </g>
    </g>
   </g>
   <path class="fil1" d="M219.321 109.896c0,30.868 4.276,42.148 19.106,68.639 13.513,24.148 37.641,72.887 51.575,100.762 5.423,10.839 24.135,44.917 25.594,51.181l2.437 0c2.097,-8.999 13.88,-27.65 18.692,-37.363 2.382,-4.819 4.092,-8.212 6.495,-13.011l38.585 -75.962c12.719,-25.431 32.504,-55.301 32.504,-82.056 0,-20.633 -0.075,-29.185 -8.932,-48.352 -13.798,-29.863 -48.148,-55.234 -82.471,-55.234 -31.655,0 -52.369,5.45 -75.249,28.337 -15.868,15.861 -28.336,38.462 -28.336,63.059zm91.402 -51.182c18.57,0 32.253,1.086 47.266,16.099 21.8,21.801 21.8,60.555 0,82.355 -22.588,22.588 -63.521,21.556 -84.134,-1.873 -19.825,-22.54 -19.825,-56.062 0,-78.602 6.787,-7.71 22.914,-17.979 36.868,-17.979z"/>
  </g>
 </g>
</svg>
