<?xml version="1.0" encoding="UTF-8"?>
<!DOCTYPE svg PUBLIC "-//W3C//DTD SVG 1.1//EN" "http://www.w3.org/Graphics/SVG/1.1/DTD/svg11.dtd">
<!-- Creator: CorelDRAW 2019 (64-Bit Evaluation Version) -->
<svg xmlns="http://www.w3.org/2000/svg" xml:space="preserve" width="512px" height="512px" version="1.1" style="shape-rendering:geometricPrecision; text-rendering:geometricPrecision; image-rendering:optimizeQuality; fill-rule:evenodd; clip-rule:evenodd"
viewBox="0 0 512 512"
 xmlns:xlink="http://www.w3.org/1999/xlink">
 <defs>
  <style type="text/css">
   <![CDATA[
    .str0 {stroke:#ffffff;stroke-width:0.567;stroke-miterlimit:22.9256}
    .fil0 {fill:none}
    .fil1 {fill:#ffffff}
   ]]>
  </style>
 </defs>
 <g id="Layer_x0020_1">
  <metadata id="CorelCorpID_0Corel-Layer"/>
  <rect class="fil0" width="512" height="512"/>
  <path class="fil1 str0" d="M69.696 97.87c4.945,-2.296 10.221,-5.467 13.957,-8.944 6.325,-5.894 6.755,-9.627 11.745,-14.689 13.884,3.047 31.598,10.019 45.086,14.562 84.226,28.371 187.337,59.425 268.002,88.411 16.398,5.893 5.736,2.657 15.842,15.057 4.162,5.107 10.342,9.421 17.689,12.511l-0.123 154.849c-4.72,4.294 -8.47,5.211 -12.612,8.341 -7.755,5.857 -4.536,6.202 -10.194,13.521 -7.221,9.343 -98.774,23.418 -113.803,26.449 -51.438,10.375 -106.619,22.912 -158.688,31.028 -7.575,-24.377 -18.838,-16.457 -23.864,-28.098l-53.037 -312.998zm2.823 356.243c2.13,28.093 30.221,44.323 57.609,30.574 13.974,-7.013 8.007,-7.561 15.739,-17.58 6.407,-8.299 39.201,-11.066 50.671,-13.378 73.34,-14.771 146.769,-28.933 219.637,-43.341 9.06,11.512 9.596,19.999 26.948,24.545 15.756,4.126 32.412,-2.335 39.889,-10.816 7.827,-8.882 12.436,-26.047 6.817,-40.739 -7.566,-19.786 -19.387,-15.506 -23.454,-26.128l-0.051 -152.593c24.992,-10.642 37.63,-41.755 14.519,-64.151 -9.203,-8.919 -22.753,-13.603 -38.598,-9.025 -15.018,4.339 -16.884,14.17 -26.07,23.788 -59.722,-15.548 -130.207,-42.822 -189.399,-62.451 -31.181,-10.339 -63.399,-20.243 -94.824,-31.043 -26.103,-8.969 -33.801,-7.324 -41.836,-19.912 -23.241,-36.411 -68.765,-16.575 -70.965,16.104 -1.749,25.952 12.056,28.04 23.151,38.789 4.745,4.6 3.516,3.081 4.973,11.658 9.489,55.976 50.211,285.808 50.461,305.864 -13.904,7.889 -26.904,17.61 -25.217,39.835z"/>
 </g>
</svg>
