<?xml version="1.0" encoding="UTF-8"?>
<!DOCTYPE svg PUBLIC "-//W3C//DTD SVG 1.1//EN" "http://www.w3.org/Graphics/SVG/1.1/DTD/svg11.dtd">
<!-- Creator: CorelDRAW X8 -->
<svg xmlns="http://www.w3.org/2000/svg" xml:space="preserve" width="512px" height="512px" version="1.1" style="shape-rendering:geometricPrecision; text-rendering:geometricPrecision; image-rendering:optimizeQuality; fill-rule:evenodd; clip-rule:evenodd"
viewBox="0 0 512 512"
 xmlns:xlink="http://www.w3.org/1999/xlink">
 <defs>
  <style type="text/css">
   <![CDATA[
    .str1 {stroke:#2B2E34;stroke-width:2.77756}
    .str0 {stroke:#47494F;stroke-width:2.77756}
    .fil0 {fill:none}
    .fil6 {fill:#2B2E34}
    .fil7 {fill:#47494F}
    .fil3 {fill:#9A9B9F}
    .fil5 {fill:#BABABD}
    .fil8 {fill:white}
    .fil2 {fill:white;fill-opacity:0.109804}
    .fil4 {fill:white;fill-opacity:0.678431}
    .fil1 {fill:white}
   ]]>
  </style>
    <clipPath id="id0">
     <path d="M256 15c133,0 241,108 241,241l0 0c-30,43 -479,31 -481,0 0,133 108,240 241,240 6,0 12,0 18,0 -6,0 -12,0 -19,0 -133,0 -240,-107 -240,-240 0,-133 107,-241 240,-241z"/>
    </clipPath>
    <clipPath id="id1">
     <path d="M256 15c133,0 241,108 241,241l0 0c-30,43 -479,31 -481,0 0,133 108,240 241,240 6,0 12,0 18,0 -6,0 -12,0 -19,0 -133,0 -240,-107 -240,-240 0,-133 107,-241 240,-241z"/>
    </clipPath>
     <clipPath id="id2">
      <path d="M304 141l24 0 0 162 -24 0 0 -162z"/>
     </clipPath>
    <clipPath id="id3">
     <path d="M496 256c0,133 -107,241 -240,241 -133,0 -241,-108 -241,-241 2,32 453,43 481,0z"/>
    </clipPath>
     <clipPath id="id4">
      <path d="M496 257c0,126 -98,230 -222,239 -6,1 -12,1 -18,1 -133,0 -241,-108 -241,-241 2,32 451,43 481,1z"/>
     </clipPath>
     <clipPath id="id5">
      <path d="M496 256c0,133 -107,241 -240,241 -133,0 -241,-108 -241,-241 2,32 453,43 481,0z"/>
     </clipPath>
     <clipPath id="id6">
      <path d="M496 257c0,126 -98,230 -222,239 -6,1 -12,1 -18,1 -133,0 -241,-108 -241,-241 2,32 451,43 481,1z"/>
     </clipPath>
     <clipPath id="id7">
      <path d="M496 256c0,133 -107,241 -240,241 -133,0 -241,-108 -241,-241 2,32 453,43 481,0z"/>
     </clipPath>
 </defs>
 <g id="Layer_x0020_1">
  <metadata id="CorelCorpID_0Corel-Layer"/>
  <rect class="fil0" width="512" height="512"/>
  <g id="_2077788767856">
   <path class="fil1" d="M256 16c133,0 240,107 240,240 0,133 -107,241 -240,241 -133,0 -241,-108 -241,-241 0,-133 108,-240 241,-240z"/>
   <g style="clip-path:url(#id0)">
    <polygon class="fil2" points="16,15 497,15 497,496 16,496 "/>
   </g>
   <g style="clip-path:url(#id1)">
    <g>
     <path id="1" class="fil3" d="M30 177c16,-3 23,29 23,40 0,55 -17,27 36,49 29,12 -16,44 71,40 8,0 9,11 35,13 23,2 9,26 2,36 -2,2 -11,41 0,41 25,0 63,11 63,39 0,4 8,50 9,50 27,22 11,9 46,-14 18,-12 20,-41 41,-54 22,-14 -13,-23 8,-40 0,0 17,-33 -25,-17 -30,12 -37,-46 -61,-28 -24,18 -31,-12 -47,-12 -6,0 -68,-30 -67,-44 3,-29 -35,46 -40,-22 -4,-55 31,-5 42,-5 47,0 -4,-42 39,-66 46,-26 -2,-56 54,-52 23,2 34,-26 2,-25 -6,0 -22,-36 -45,-7 -11,14 -33,-13 -34,-11 -7,14 -2,75 -35,29 -18,-24 -41,-17 8,-36 14,-5 -2,-26 14,-16 10,6 11,43 52,3 24,-24 -48,-17 -48,-22 -1,-21 8,-20 -25,-7 -35,14 11,19 -1,38 0,0 -22,10 -21,-10 1,-12 -27,-8 -12,13 10,14 -15,25 -19,7 -24,-8 -65,72 -65,90z"/>
     <path class="fil3" d="M205 26c11,0 23,17 38,9 1,0 -2,12 8,23 16,18 12,-1 28,19 0,0 16,10 16,-8 0,-7 -13,-27 4,-25 3,0 3,7 22,-14 6,-6 -3,-8 -26,-12 -22,-4 -70,-6 -89,5 0,0 -1,3 -1,3z"/>
     <path class="fil3" d="M322 40c21,-9 4,1 28,0 4,0 9,16 -10,10 -5,-1 -21,4 -19,-9l1 -1z"/>
     <path class="fil3" d="M377 80c12,-2 7,14 4,15 -12,5 -13,-19 -4,-15z"/>
     <path class="fil3" d="M382 73c6,3 13,11 13,18 0,7 6,8 10,4 2,-1 14,8 8,-9 -4,-10 -13,-8 -23,-13 0,0 -7,-1 -8,0z"/>
     <path class="fil3" d="M400 60c-4,17 6,6 17,17 7,8 7,11 1,19 -7,9 -7,3 -15,6 0,2 18,16 -1,16 -6,1 -2,11 -1,14 2,7 -5,15 8,8 9,-6 18,13 16,-16 0,-3 12,-13 16,-4 3,8 -5,11 12,18 7,2 10,9 17,2 2,-1 1,-6 -2,-8 -2,-2 -11,-17 -15,-23 -2,-1 -11,-17 -15,-22 -7,-10 -13,-12 -20,-20 -2,-3 -10,-2 -15,-7 -1,0 -3,0 -3,0z"/>
     <path class="fil3" d="M405 160c1,-17 15,1 37,-11 15,-8 5,1 22,19 7,7 6,-24 16,-2 2,4 5,19 9,28 7,13 11,90 5,104 -2,6 -4,34 -11,28 -4,-3 -4,-29 1,-32 7,-5 -9,-15 -9,-25 0,-14 -10,-5 -13,-18 -7,-2 -28,22 -51,-2 -10,-9 -23,-8 -9,-24 8,-8 -6,-23 -6,-25 0,-7 9,-11 12,-24 1,-7 -3,-11 -3,-16z"/>
     <path class="fil3" d="M203 270c3,-3 33,-5 33,-5 0,12 -14,11 -26,11 -4,0 -9,-4 -7,-6z"/>
     <path class="fil4" d="M246 -46c163,0 295,132 295,295 0,163 -132,295 -295,295 -162,0 -294,-132 -294,-295 0,-163 132,-295 294,-295z"/>
    </g>
   </g>
   <path class="fil0" d="M256 15c133,0 241,108 241,241l0 0c-30,43 -479,31 -481,0 0,133 108,240 241,240 6,0 12,0 18,0 -6,0 -12,0 -19,0 -133,0 -240,-107 -240,-240 0,-133 107,-241 240,-241z"/>
   <ellipse class="fil5" cx="255" cy="258" rx="239" ry="27"/>
   <g>
    <path class="fil6" d="M196 343c-64,22 -134,-12 -156,-76 -22,-64 12,-134 76,-156 24,-8 49,-8 72,-2l0 0c-21,-5 -42,-5 -63,0 -65,17 -104,84 -87,149l119 -31 118 32c-10,38 -39,71 -79,84z"/>
    <path class="fil7" d="M160 224l118 32c17,-66 -21,-133 -87,-150l-31 118z"/>
    <path class="fil7" d="M155 223l-119 31c-17,-65 22,-132 88,-149 21,-6 43,-6 63,0l-32 118z"/>
    <path class="fil8" d="M148 216l-101 27c-15,-57 19,-114 75,-128 18,-5 36,-5 54,0l-28 101z"/>
   </g>
   <g>
    <polygon class="fil7" points="304,141 328,141 328,303 304,303 "/>
    <g style="clip-path:url(#id2)">
     <g>
      <rect class="fil8" transform="matrix(1.12568 -0.760847 0.602216 1.4222 245.501 159.883)" width="60.417" height="5.20828"/>
      <rect class="fil8" transform="matrix(1.12568 -0.760847 0.602216 1.4222 253.865 179.636)" width="60.417" height="5.20828"/>
      <rect class="fil8" transform="matrix(1.12568 -0.760847 0.602216 1.4222 262.229 199.389)" width="60.417" height="5.20828"/>
      <rect class="fil8" transform="matrix(1.12568 -0.760847 0.602216 1.4222 270.593 219.142)" width="60.417" height="5.20828"/>
      <rect class="fil8" transform="matrix(1.12568 -0.760847 0.602216 1.4222 278.957 238.895)" width="60.417" height="5.20828"/>
      <rect class="fil8" transform="matrix(1.12568 -0.760847 0.602216 1.4222 287.321 258.647)" width="60.417" height="5.20828"/>
      <rect class="fil8" transform="matrix(1.12568 -0.760847 0.602216 1.4222 295.686 278.4)" width="60.417" height="5.20828"/>
      <rect class="fil8" transform="matrix(1.12568 -0.760847 0.602216 1.4222 304.05 298.153)" width="60.417" height="5.20828"/>
      <rect class="fil8" transform="matrix(1.12568 -0.760847 0.602216 1.4222 312.414 317.906)" width="60.417" height="5.20828"/>
     </g>
    </g>
    <polygon class="fil0 str0" points="304,141 328,141 328,303 304,303 "/>
    <rect class="fil7" x="360" y="76" width="23.7633" height="226.53"/>
    <rect class="fil8 str1" x="416" y="188" width="23.7633" height="114.648"/>
   </g>
   <path class="fil7" d="M496 256c0,133 -107,241 -240,241 -133,0 -241,-108 -241,-241 2,32 453,43 481,0z"/>
   <g style="clip-path:url(#id3)">
    <g>
    </g>
    <g style="clip-path:url(#id4)">
     <polygon id="1" class="fil1" points="15,16 496,16 496,497 15,497 "/>
    </g>
    <g style="clip-path:url(#id5)">
    </g>
    <g style="clip-path:url(#id6)">
     <g>
      <path id="2" class="fil3" d="M29 177c16,-3 23,29 23,40 0,55 -16,28 36,50 29,12 -16,44 71,40 8,-1 9,11 35,13 23,2 9,26 2,35 -2,3 -11,41 0,41 25,0 63,11 63,40 0,4 9,50 9,50 27,21 11,9 46,-14 18,-13 20,-41 41,-54 22,-14 -13,-23 8,-40 0,0 17,-33 -25,-17 -29,11 -37,-46 -60,-28 -25,18 -32,-13 -47,-12 -6,0 -69,-30 -68,-44 3,-30 -34,46 -40,-23 -4,-54 31,-4 42,-4 48,0 -4,-42 39,-66 46,-26 -2,-56 54,-52 23,2 34,-26 2,-25 -6,0 -22,-36 -45,-7 -11,13 -33,-13 -34,-11 -7,14 -2,75 -35,29 -18,-24 -41,-17 9,-36 13,-5 -2,-26 13,-17 10,6 12,44 52,4 24,-24 -48,-17 -48,-23 -1,-20 9,-19 -25,-6 -35,14 11,18 -1,38 0,0 -22,9 -21,-10 1,-13 -27,-8 -12,13 10,13 -15,25 -19,7 -23,-8 -65,72 -65,89z"/>
      <path class="fil3" d="M204 26c11,1 23,17 38,10 1,0 -2,12 8,22 16,19 12,-1 28,20 0,0 16,10 16,-8 0,-8 -13,-27 4,-26 3,1 3,8 22,-13 6,-7 -3,-9 -26,-13 -22,-4 -70,-6 -89,6 0,0 -1,2 -1,2z"/>
      <path class="fil3" d="M321 40c22,-9 4,2 29,0 3,0 8,17 -11,11 -5,-1 -21,4 -19,-10l1 -1z"/>
      <path class="fil3" d="M376 81c12,-3 8,14 4,15 -11,5 -13,-19 -4,-15z"/>
      <path class="fil3" d="M381 74c6,3 13,11 13,18 0,7 6,7 11,4 1,-1 13,8 7,-9 -4,-10 -13,-8 -23,-13 0,-1 -7,-1 -8,0z"/>
      <path class="fil3" d="M399 61c-4,16 6,5 17,17 7,7 7,11 1,19 -7,8 -7,3 -15,5 0,3 18,16 -1,17 -6,0 -2,11 -1,14 3,6 -5,15 8,7 9,-5 18,14 16,-15 0,-4 12,-13 16,-4 4,8 -5,11 13,17 6,3 9,9 16,3 2,-2 1,-7 -2,-9 -2,-2 -11,-17 -15,-22 -2,-2 -11,-18 -15,-22 -7,-10 -13,-13 -19,-20 -3,-3 -10,-2 -16,-7 -1,0 -3,-1 -3,0z"/>
      <path class="fil3" d="M404 161c1,-17 15,1 37,-11 15,-9 5,1 22,18 7,8 6,-23 16,-2 2,4 5,19 9,28 7,13 11,90 6,105 -3,5 -5,33 -12,28 -4,-3 -4,-29 1,-32 7,-6 -9,-15 -9,-25 0,-14 -10,-5 -13,-19 -7,-2 -27,22 -51,-1 -9,-10 -23,-9 -8,-24 7,-9 -7,-23 -7,-25 0,-7 9,-11 12,-24 1,-7 -3,-12 -3,-16z"/>
      <path class="fil3" d="M202 271c3,-4 33,-6 33,-6 0,13 -14,12 -26,12 -3,0 -9,-5 -7,-6z"/>
     </g>
    </g>
    <g style="clip-path:url(#id7)">
     <path class="fil0" d="M255 16c133,0 241,107 241,240 0,133 -108,241 -241,241 -132,0 -240,-108 -240,-241 0,-133 108,-240 240,-240z"/>
    </g>
   </g>
   <path class="fil0" d="M496 256c0,133 -107,241 -240,241 -133,0 -241,-108 -241,-241 2,32 453,43 481,0z"/>
  </g>
 </g>
</svg>
