<?xml version="1.0" encoding="UTF-8"?>
<!DOCTYPE svg PUBLIC "-//W3C//DTD SVG 1.1//EN" "http://www.w3.org/Graphics/SVG/1.1/DTD/svg11.dtd">
<!-- Creator: CorelDRAW X8 -->
<svg xmlns="http://www.w3.org/2000/svg" xml:space="preserve" width="512px" height="512px" version="1.1" style="shape-rendering:geometricPrecision; text-rendering:geometricPrecision; image-rendering:optimizeQuality; fill-rule:evenodd; clip-rule:evenodd"
viewBox="0 0 512 512"
 xmlns:xlink="http://www.w3.org/1999/xlink">
 <defs>
  <style type="text/css">
   <![CDATA[
    .str0 {stroke:#47494F;stroke-width:4.99961}
    .str1 {stroke:#9A9B9F;stroke-width:0.3}
    .fil0 {fill:none}
    .fil3 {fill:#9A9B9F}
    .fil1 {fill:white}
    .fil2 {fill:white}
   ]]>
  </style>
   <clipPath id="id0">
    <path d="M256 20c130,0 236,106 236,236 0,130 -106,236 -236,236 -130,0 -236,-106 -236,-236 0,-130 106,-236 236,-236z"/>
   </clipPath>
   <clipPath id="id1">
    <path d="M255 139c65,0 117,52 117,117 0,65 -52,117 -117,117 -65,0 -117,-52 -117,-117 0,-65 52,-117 117,-117z"/>
   </clipPath>
   <clipPath id="id2">
    <path d="M255 139c65,0 117,52 117,117 0,65 -52,117 -117,117 -65,0 -117,-52 -117,-117 0,-65 52,-117 117,-117z"/>
   </clipPath>
 </defs>
 <g id="Layer_x0020_1">
  <metadata id="CorelCorpID_0Corel-Layer"/>
  <rect class="fil0" width="512" height="512"/>
  <g>
  </g>
  <g style="clip-path:url(#id0)">
   <g>
    <path class="fil1 str0" d="M96 175l60 0c5,0 8,3 8,8l0 54c0,4 -3,8 -8,8l-60 0c-4,0 -7,-4 -7,-8l0 -54c0,-5 3,-8 7,-8z"/>
    <path class="fil1 str0" d="M183 175l59 0c5,0 8,3 8,8l0 54c0,4 -3,8 -8,8l-59 0c-5,0 -8,-4 -8,-8l0 -54c0,-5 3,-8 8,-8z"/>
    <path class="fil1 str0" d="M270 175l60 0c4,0 7,3 7,8l0 54c0,4 -3,8 -7,8l-60 0c-5,0 -8,-4 -8,-8l0 -54c0,-5 3,-8 8,-8z"/>
    <path class="fil1 str0" d="M356 175l60 0c4,0 8,3 8,8l0 54c0,4 -4,8 -8,8l-60 0c-4,0 -8,-4 -8,-8l0 -54c0,-5 4,-8 8,-8z"/>
    <path class="fil1 str0" d="M12 175l60 0c4,0 8,3 8,8l0 54c0,4 -4,8 -8,8l-60 0c-4,0 -8,-4 -8,-8l0 -54c0,-5 4,-8 8,-8z"/>
    <path class="fil1 str0" d="M440 175l60 0c4,0 8,3 8,8l0 54c0,4 -4,8 -8,8l-60 0c-4,0 -8,-4 -8,-8l0 -54c0,-5 4,-8 8,-8z"/>
    <path class="fil1 str0" d="M96 265l60 0c5,0 8,3 8,8l0 54c0,4 -3,8 -8,8l-60 0c-4,0 -7,-4 -7,-8l0 -54c0,-5 3,-8 7,-8z"/>
    <path class="fil1 str0" d="M183 265l59 0c5,0 8,3 8,8l0 54c0,4 -3,8 -8,8l-59 0c-5,0 -8,-4 -8,-8l0 -54c0,-5 3,-8 8,-8z"/>
    <path class="fil1 str0" d="M270 265l60 0c4,0 7,3 7,8l0 54c0,4 -3,8 -7,8l-60 0c-5,0 -8,-4 -8,-8l0 -54c0,-5 3,-8 8,-8z"/>
    <path class="fil1 str0" d="M356 265l60 0c4,0 8,3 8,8l0 54c0,4 -4,8 -8,8l-60 0c-4,0 -8,-4 -8,-8l0 -54c0,-5 4,-8 8,-8z"/>
    <path class="fil1 str0" d="M12 265l60 0c4,0 8,3 8,8l0 54c0,4 -4,8 -8,8l-60 0c-4,0 -8,-4 -8,-8l0 -54c0,-5 4,-8 8,-8z"/>
    <path class="fil1 str0" d="M440 265l60 0c4,0 8,3 8,8l0 54c0,4 -4,8 -8,8l-60 0c-4,0 -8,-4 -8,-8l0 -54c0,-5 4,-8 8,-8z"/>
    <path class="fil1 str0" d="M96 360l60 0c5,0 8,3 8,8l0 54c0,4 -3,8 -8,8l-60 0c-4,0 -7,-4 -7,-8l0 -54c0,-5 3,-8 7,-8z"/>
    <path class="fil1 str0" d="M183 360l59 0c5,0 8,3 8,8l0 54c0,4 -3,8 -8,8l-59 0c-5,0 -8,-4 -8,-8l0 -54c0,-5 3,-8 8,-8z"/>
    <path class="fil1 str0" d="M270 360l60 0c4,0 7,3 7,8l0 54c0,4 -3,8 -7,8l-60 0c-5,0 -8,-4 -8,-8l0 -54c0,-5 3,-8 8,-8z"/>
    <path class="fil1 str0" d="M356 360l60 0c4,0 8,3 8,8l0 54c0,4 -4,8 -8,8l-60 0c-4,0 -8,-4 -8,-8l0 -54c0,-5 4,-8 8,-8z"/>
    <path class="fil1 str0" d="M12 360l60 0c4,0 8,3 8,8l0 54c0,4 -4,8 -8,8l-60 0c-4,0 -8,-4 -8,-8l0 -54c0,-5 4,-8 8,-8z"/>
    <path class="fil1 str0" d="M440 360l60 0c4,0 8,3 8,8l0 54c0,4 -4,8 -8,8l-60 0c-4,0 -8,-4 -8,-8l0 -54c0,-5 4,-8 8,-8z"/>
    <path class="fil1 str0" d="M96 447l60 0c5,0 8,3 8,8l0 54c0,4 -3,8 -8,8l-60 0c-4,0 -7,-4 -7,-8l0 -54c0,-5 3,-8 7,-8z"/>
    <path class="fil1 str0" d="M183 447l59 0c5,0 8,3 8,8l0 54c0,4 -3,8 -8,8l-59 0c-5,0 -8,-4 -8,-8l0 -54c0,-5 3,-8 8,-8z"/>
    <path class="fil1 str0" d="M270 447l60 0c4,0 7,3 7,8l0 54c0,4 -3,8 -7,8l-60 0c-5,0 -8,-4 -8,-8l0 -54c0,-5 3,-8 8,-8z"/>
    <path class="fil1 str0" d="M356 447l60 0c4,0 8,3 8,8l0 54c0,4 -4,8 -8,8l-60 0c-4,0 -8,-4 -8,-8l0 -54c0,-5 4,-8 8,-8z"/>
    <path class="fil1 str0" d="M12 447l60 0c4,0 8,3 8,8l0 54c0,4 -4,8 -8,8l-60 0c-4,0 -8,-4 -8,-8l0 -54c0,-5 4,-8 8,-8z"/>
    <path class="fil1 str0" d="M440 447l60 0c4,0 8,3 8,8l0 54c0,4 -4,8 -8,8l-60 0c-4,0 -8,-4 -8,-8l0 -54c0,-5 4,-8 8,-8z"/>
    <path class="fil1 str0" d="M96 87l60 0c5,0 8,3 8,7l0 55c0,4 -3,8 -8,8l-60 0c-4,0 -7,-4 -7,-8l0 -55c0,-4 3,-7 7,-7z"/>
    <path class="fil1 str0" d="M183 87l59 0c5,0 8,3 8,7l0 55c0,4 -3,8 -8,8l-59 0c-5,0 -8,-4 -8,-8l0 -55c0,-4 3,-7 8,-7z"/>
    <path class="fil1 str0" d="M270 87l60 0c4,0 7,3 7,7l0 55c0,4 -3,8 -7,8l-60 0c-5,0 -8,-4 -8,-8l0 -55c0,-4 3,-7 8,-7z"/>
    <path class="fil1 str0" d="M356 87l60 0c4,0 8,3 8,7l0 55c0,4 -4,8 -8,8l-60 0c-4,0 -8,-4 -8,-8l0 -55c0,-4 4,-7 8,-7z"/>
    <path class="fil1 str0" d="M12 87l60 0c4,0 8,3 8,7l0 55c0,4 -4,8 -8,8l-60 0c-4,0 -8,-4 -8,-8l0 -55c0,-4 4,-7 8,-7z"/>
    <path class="fil1 str0" d="M440 87l60 0c4,0 8,3 8,7l0 55c0,4 -4,8 -8,8l-60 0c-4,0 -8,-4 -8,-8l0 -55c0,-4 4,-7 8,-7z"/>
    <path class="fil1 str0" d="M96 -5l60 0c5,0 8,3 8,7l0 55c0,4 -3,7 -8,7l-60 0c-4,0 -7,-3 -7,-7l0 -55c0,-4 3,-7 7,-7z"/>
    <path class="fil1 str0" d="M183 -5l59 0c5,0 8,3 8,7l0 55c0,4 -3,7 -8,7l-59 0c-5,0 -8,-3 -8,-7l0 -55c0,-4 3,-7 8,-7z"/>
    <path class="fil1 str0" d="M270 -5l60 0c4,0 7,3 7,7l0 55c0,4 -3,7 -7,7l-60 0c-5,0 -8,-3 -8,-7l0 -55c0,-4 3,-7 8,-7z"/>
    <path class="fil1 str0" d="M356 -5l60 0c4,0 8,3 8,7l0 55c0,4 -4,7 -8,7l-60 0c-4,0 -8,-3 -8,-7l0 -55c0,-4 4,-7 8,-7z"/>
    <path class="fil1 str0" d="M12 -5l60 0c4,0 8,3 8,7l0 55c0,4 -4,7 -8,7l-60 0c-4,0 -8,-3 -8,-7l0 -55c0,-4 4,-7 8,-7z"/>
    <path class="fil1 str0" d="M440 -5l60 0c4,0 8,3 8,7l0 55c0,4 -4,7 -8,7l-60 0c-4,0 -8,-3 -8,-7l0 -55c0,-4 4,-7 8,-7z"/>
   </g>
  </g>
  <path class="fil0" d="M256 20c130,0 236,106 236,236 0,130 -106,236 -236,236 -130,0 -236,-106 -236,-236 0,-130 106,-236 236,-236z"/>
  <g style="clip-path:url(#id1)">
   <polygon class="fil2" points="138,139 372,139 372,373 138,373 "/>
  </g>
  <g style="clip-path:url(#id2)">
   <g>
    <path id="1" class="fil3" d="M145 217c8,-1 11,15 11,20 0,27 -8,13 18,24 14,6 -8,21 34,20 4,-1 5,5 17,6 11,1 5,13 1,17 -1,2 -5,20 0,20 12,0 31,6 31,19 0,2 4,25 4,25 13,10 6,4 23,-7 9,-6 9,-20 20,-26 11,-7 -7,-12 3,-20 1,0 9,-16 -12,-8 -14,5 -18,-22 -29,-14 -12,9 -16,-6 -23,-6 -3,1 -33,-14 -33,-21 1,-14 -17,23 -19,-11 -2,-26 15,-2 20,-2 23,0 -2,-21 19,-32 23,-13 -1,-28 26,-25 12,0 17,-13 1,-13 -2,0 -10,-17 -21,-3 -6,6 -16,-6 -17,-6 -3,7 -1,37 -17,15 -9,-12 -20,-9 4,-18 7,-2 -1,-13 7,-8 5,3 5,21 25,2 11,-12 -23,-9 -23,-11 -1,-10 4,-10 -13,-3 -17,6 6,9 0,18 0,0 -11,5 -10,-5 0,-6 -14,-4 -6,7 5,6 -7,12 -10,3 -11,-4 -31,35 -31,43z"/>
    <path class="fil3" d="M230 144c6,0 11,8 18,5 1,0 0,5 4,11 8,9 6,-1 14,9 0,0 8,5 8,-4 0,-3 -6,-13 2,-12 1,0 1,4 11,-7 2,-3 -2,-4 -13,-6 -11,-2 -34,-3 -43,3 -1,0 -1,1 -1,1z"/>
    <path class="fil3" d="M287 151c11,-5 2,0 14,0 2,0 4,8 -5,5 -2,0 -10,2 -9,-5l0 0z"/>
    <path class="fil3" d="M314 171c6,-2 3,6 2,7 -6,2 -7,-9 -2,-7z"/>
    <path class="fil3" d="M316 167c3,2 7,6 7,9 0,3 3,4 5,2 1,-1 6,4 3,-4 -1,-5 -6,-4 -11,-7 0,0 -3,0 -4,0z"/>
    <path class="fil3" d="M325 161c-2,8 3,3 8,8 4,4 4,6 1,9 -4,5 -4,2 -7,3 0,1 8,8 -1,8 -3,0 -1,5 -1,7 2,3 -2,7 4,4 5,-3 9,6 8,-8 0,-2 6,-6 8,-2 2,4 -2,5 6,9 3,1 5,4 8,1 1,-1 1,-3 -1,-4 -1,-1 -5,-9 -7,-11 -1,-1 -6,-9 -7,-11 -4,-5 -7,-6 -10,-10 -1,-1 -5,-1 -8,-3 0,0 -1,0 -1,0z"/>
    <path class="fil3" d="M327 209c1,-8 8,1 19,-5 7,-4 2,1 10,9 4,4 3,-11 8,-1 1,2 2,9 4,14 4,6 6,44 3,51 -1,2 -2,16 -5,13 -2,-1 -2,-14 0,-15 4,-3 -4,-8 -4,-12 0,-7 -5,-3 -7,-9 -3,-1 -13,10 -25,-1 -4,-5 -11,-4 -4,-12 4,-4 -3,-11 -3,-12 0,-3 4,-5 6,-12 0,-3 -2,-5 -2,-8z"/>
    <path class="fil3" d="M229 263c2,-2 16,-3 16,-3 0,6 -7,6 -13,6 -1,0 -4,-2 -3,-3z"/>
   </g>
  </g>
  <path class="fil0 str1" d="M255 139c65,0 117,52 117,117 0,65 -52,117 -117,117 -65,0 -117,-52 -117,-117 0,-65 52,-117 117,-117z"/>
 </g>
</svg>
