<?xml version="1.0" encoding="UTF-8"?>
<!DOCTYPE svg PUBLIC "-//W3C//DTD SVG 1.1//EN" "http://www.w3.org/Graphics/SVG/1.1/DTD/svg11.dtd">
<!-- Creator: CorelDRAW X8 -->
<svg xmlns="http://www.w3.org/2000/svg" xml:space="preserve" width="512px" height="512px" version="1.1" style="shape-rendering:geometricPrecision; text-rendering:geometricPrecision; image-rendering:optimizeQuality; fill-rule:evenodd; clip-rule:evenodd"
viewBox="0 0 512 512"
 xmlns:xlink="http://www.w3.org/1999/xlink">
 <defs>
  <style type="text/css">
   <![CDATA[
    .str2 {stroke:#373435;stroke-width:0.3;stroke-dasharray:1.500002 0.300000;stroke-opacity:0.701961}
    .str3 {stroke:#2B2E34;stroke-width:0.3}
    .str1 {stroke:#373435;stroke-width:0.3;stroke-dasharray:0.600001 0.900001}
    .str0 {stroke:#373435;stroke-width:0.3;stroke-dasharray:1.500002 1.500002 3.000005 1.500002}
    .fil0 {fill:none}
    .fil5 {fill:#FEFEFE}
    .fil6 {fill:#2B2E34}
    .fil3 {fill:#9A9B9F}
    .fil1 {fill:#E6E4E5}
    .fil7 {fill:white}
    .fil4 {fill:#E6E4E5;fill-opacity:0.701961}
    .fil2 {fill:white}
   ]]>
  </style>
    <clipPath id="id0">
     <path d="M256 139c65,0 117,52 117,117 0,65 -52,117 -117,117 -65,0 -117,-52 -117,-117 0,-65 52,-117 117,-117z"/>
    </clipPath>
    <clipPath id="id1">
     <path d="M256 139c65,0 117,52 117,117 0,65 -52,117 -117,117 -65,0 -117,-52 -117,-117 0,-65 52,-117 117,-117z"/>
    </clipPath>
 </defs>
 <g id="Layer_x0020_1">
  <metadata id="CorelCorpID_0Corel-Layer"/>
  <rect class="fil0" width="512" height="512"/>
  <g id="_1835958962560">
   <path class="fil1 str0" d="M256 20c130,0 236,106 236,236 0,130 -106,236 -236,236 -130,0 -236,-106 -236,-236 0,-130 106,-236 236,-236z"/>
   <g style="clip-path:url(#id0)">
    <polygon class="fil2" points="139,139 373,139 373,373 139,373 "/>
   </g>
   <g style="clip-path:url(#id1)">
    <g>
     <path id="1" class="fil3" d="M145 217c8,-1 12,15 12,20 0,27 -8,13 17,24 15,6 -7,21 35,20 4,-1 5,5 17,6 11,1 4,13 1,17 -1,2 -5,20 0,20 12,0 31,6 31,19 0,2 4,25 4,25 13,10 6,4 23,-7 9,-6 9,-20 20,-26 10,-7 -7,-12 3,-20 0,0 9,-16 -12,-8 -14,6 -18,-22 -29,-14 -12,9 -16,-6 -23,-6 -3,1 -34,-14 -33,-21 1,-14 -17,23 -20,-11 -2,-26 16,-2 21,-2 23,0 -2,-21 19,-32 22,-13 -1,-28 26,-26 12,1 17,-13 1,-12 -3,0 -10,-17 -22,-3 -5,6 -16,-7 -16,-6 -4,7 -1,37 -17,14 -9,-11 -20,-8 4,-17 6,-3 -1,-13 7,-8 4,3 5,21 25,2 11,-12 -23,-9 -24,-11 0,-10 4,-10 -12,-3 -17,6 5,8 0,18 0,0 -11,5 -11,-5 1,-6 -13,-4 -5,6 4,7 -8,13 -10,4 -11,-4 -32,35 -32,43z"/>
     <path class="fil3" d="M231 144c5,0 11,8 18,5 1,-1 0,5 4,10 8,9 6,0 14,10 0,0 8,5 8,-4 0,-4 -7,-13 2,-12 1,0 1,3 11,-7 2,-3 -2,-4 -13,-6 -11,-2 -34,-3 -44,3 0,0 0,1 0,1z"/>
     <path class="fil3" d="M288 151c10,-5 2,0 14,0 2,0 4,8 -5,5 -3,-1 -10,2 -9,-5l0 0z"/>
     <path class="fil3" d="M315 170c6,-1 3,7 2,8 -6,2 -7,-9 -2,-8z"/>
     <path class="fil3" d="M317 167c3,1 7,5 7,9 0,3 3,4 5,2 1,-1 6,4 3,-5 -1,-4 -6,-4 -11,-6 0,0 -3,0 -4,0z"/>
     <path class="fil3" d="M326 161c-2,8 3,2 8,8 4,4 4,5 1,9 -4,4 -4,2 -7,3 0,1 8,8 -1,8 -3,0 -1,5 -1,7 2,3 -2,7 4,3 5,-2 9,7 8,-7 0,-2 6,-6 8,-2 2,4 -2,5 6,8 3,2 5,5 8,2 1,-1 1,-3 -1,-5 -1,-1 -5,-8 -7,-10 -1,-1 -6,-9 -7,-11 -4,-5 -7,-6 -10,-10 -1,-1 -5,-1 -8,-3 0,0 -1,-1 -1,0z"/>
     <path class="fil3" d="M328 209c1,-8 8,1 19,-5 7,-4 2,1 10,9 4,4 3,-11 8,-1 1,2 2,9 4,14 4,6 6,44 3,51 -1,2 -2,16 -5,14 -2,-2 -2,-15 0,-16 4,-3 -4,-8 -4,-12 0,-7 -5,-3 -7,-9 -3,-1 -13,10 -25,-1 -4,-5 -11,-4 -4,-12 4,-4 -3,-11 -3,-12 0,-3 4,-6 6,-12 0,-3 -2,-5 -2,-8z"/>
     <path class="fil3" d="M230 263c1,-2 16,-3 16,-3 0,6 -7,6 -13,6 -1,0 -4,-2 -3,-3z"/>
    </g>
   </g>
   <path class="fil0 str1" d="M256 139c65,0 117,52 117,117 0,65 -52,117 -117,117 -65,0 -117,-52 -117,-117 0,-65 52,-117 117,-117z"/>
   <path class="fil4 str2" d="M256 201c31,0 55,24 55,55 0,31 -24,55 -55,55 -31,0 -55,-24 -55,-55 0,-31 24,-55 55,-55z"/>
   <g>
    <path class="fil5 str3" d="M320 105l0 1c0,0 0,0 0,1l-4 75c-8,37 -107,42 -120,0l-3 -75c-1,-1 -1,-1 -1,-2l0 0c0,-18 29,-34 64,-34 35,0 64,16 64,34 0,0 0,0 0,0l0 0z"/>
    <path class="fil6" d="M256 257l34 -49c-26,6 -41,7 -67,0l33 49z"/>
    <g>
     <circle class="fil7 str3" cx="256" cy="117" r="13"/>
     <path class="fil0 str3" d="M225 167c11,-25 3,-30 31,-30 28,0 21,5 31,30"/>
     <line class="fil0 str3" x1="243" y1="155" x2="238" y2= "170" />
     <line class="fil0 str3" x1="270" y1="155" x2="274" y2= "170" />
    </g>
   </g>
  </g>
 </g>
</svg>
