<?xml version="1.0" encoding="UTF-8"?>
<!DOCTYPE svg PUBLIC "-//W3C//DTD SVG 1.1//EN" "http://www.w3.org/Graphics/SVG/1.1/DTD/svg11.dtd">
<!-- Creator: CorelDRAW X8 -->
<svg xmlns="http://www.w3.org/2000/svg" xml:space="preserve" width="10in" height="9.87342in" version="1.1" shape-rendering="geometricPrecision" text-rendering="geometricPrecision" image-rendering="optimizeQuality" fill-rule="evenodd" clip-rule="evenodd"
viewBox="0 0 77 76"
 xmlns:xlink="http://www.w3.org/1999/xlink">
 <defs>
   <linearGradient id="id0" gradientUnits="userSpaceOnUse" x1="56.6047" y1="70.5849" x2="18.524" y2="6.14063">
    <stop offset="0" stop-opacity="1" stop-color="#D4D2D2"/>
    <stop offset="0.231373" stop-opacity="1" stop-color="#DAD8D8"/>
    <stop offset="0.639216" stop-opacity="1" stop-color="#EFEEEE"/>
    <stop offset="1" stop-opacity="1" stop-color="white"/>
   </linearGradient>
    <clipPath id="id1">
     <path d="M0 0l74 0 3 58 -75 0 -2 -58z"/>
    </clipPath>
   <linearGradient id="id2" gradientUnits="userSpaceOnUse" x1="46.6269" y1="1.02247" x2="27.8151" y2="55.6192">
    <stop offset="0" stop-opacity="1" stop-color="#F0F0F0"/>
    <stop offset="1" stop-opacity="1" stop-color="white"/>
   </linearGradient>
 </defs>
 <g id="Layer_x0020_1">
  <metadata id="CorelCorpID_0Corel-Layer"/>
  <path fill="url(#id0)" d="M38 1c20,0 37,17 37,37 0,21 -17,38 -37,38 -21,0 -38,-17 -38,-38 0,-20 17,-37 38,-37z"/>
  <g id="_2023001268704">
   <g clip-path="url(#id1)">
    <image x="0" y="0" width="76.7797" height="58.3072" xlink:href="circle_Images\circle_ImgID1.png"/>
   </g>
  </g>
  <path fill="url(#id2)" d="M38 1c18,0 33,13 36,30 -28,-5 -51,3 -69,25 -3,-5 -4,-11 -4,-18 0,-21 16,-37 37,-37z"/>
 </g>
</svg>
