<?xml version="1.0" encoding="UTF-8"?>
<!DOCTYPE svg PUBLIC "-//W3C//DTD SVG 1.1//EN" "http://www.w3.org/Graphics/SVG/1.1/DTD/svg11.dtd">
<!-- Creator: CorelDRAW X8 -->
<svg xmlns="http://www.w3.org/2000/svg" xml:space="preserve" width="512px" height="512px" version="1.1" style="shape-rendering:geometricPrecision; text-rendering:geometricPrecision; image-rendering:optimizeQuality; fill-rule:evenodd; clip-rule:evenodd"
viewBox="0 0 512 512"
 xmlns:xlink="http://www.w3.org/1999/xlink">
 <defs>
  <style type="text/css">
   <![CDATA[
    .str0 {stroke:#9A9B9F;stroke-width:0.3}
    .fil0 {fill:none}
    .fil3 {fill:#FEFEFE}
    .fil2 {fill:#9A9B9F}
    .fil4 {fill:#D9D9D9}
    .fil1 {fill:white}
   ]]>
  </style>
     <clipPath id="id0">
      <path d="M256 79c16,0 30,13 30,29 0,17 -14,30 -30,30 -16,0 -30,-13 -30,-30 0,-16 14,-29 30,-29z"/>
     </clipPath>
     <clipPath id="id1">
      <path d="M256 79c16,0 30,13 30,29 0,17 -14,30 -30,30 -16,0 -30,-13 -30,-30 0,-16 14,-29 30,-29z"/>
     </clipPath>
     <clipPath id="id2">
      <path d="M107 185c17,0 30,13 30,29 0,17 -13,30 -30,30 -16,0 -29,-13 -29,-30 0,-16 13,-29 29,-29z"/>
     </clipPath>
     <clipPath id="id3">
      <path d="M107 185c17,0 30,13 30,29 0,17 -13,30 -30,30 -16,0 -29,-13 -29,-30 0,-16 13,-29 29,-29z"/>
     </clipPath>
     <clipPath id="id4">
      <path d="M164 360c16,0 30,13 30,30 0,16 -14,29 -30,29 -16,0 -30,-13 -30,-29 0,-17 14,-30 30,-30z"/>
     </clipPath>
     <clipPath id="id5">
      <path d="M164 360c16,0 30,13 30,30 0,16 -14,29 -30,29 -16,0 -30,-13 -30,-29 0,-17 14,-30 30,-30z"/>
     </clipPath>
     <clipPath id="id6">
      <path d="M347 359c16,0 30,13 30,30 0,16 -14,29 -30,29 -16,0 -30,-13 -30,-29 0,-17 14,-30 30,-30z"/>
     </clipPath>
     <clipPath id="id7">
      <path d="M347 359c16,0 30,13 30,30 0,16 -14,29 -30,29 -16,0 -30,-13 -30,-29 0,-17 14,-30 30,-30z"/>
     </clipPath>
     <clipPath id="id8">
      <path d="M404 185c17,0 30,14 30,30 0,16 -13,30 -30,30 -16,0 -30,-14 -30,-30 0,-16 14,-30 30,-30z"/>
     </clipPath>
     <clipPath id="id9">
      <path d="M404 185c17,0 30,14 30,30 0,16 -13,30 -30,30 -16,0 -30,-14 -30,-30 0,-16 14,-30 30,-30z"/>
     </clipPath>
     <clipPath id="id10">
      <path d="M258 150c63,0 114,52 114,115 0,63 -51,114 -114,114 -63,0 -115,-51 -115,-114 0,-63 52,-115 115,-115z"/>
     </clipPath>
     <clipPath id="id11">
      <path d="M258 150c63,0 114,52 114,115 0,63 -51,114 -114,114 -63,0 -115,-51 -115,-114 0,-63 52,-115 115,-115z"/>
     </clipPath>
 </defs>
 <g id="Layer_x0020_1">
  <metadata id="CorelCorpID_0Corel-Layer"/>
  <rect class="fil0" width="512" height="512"/>
  <g id="_1835958945376">
   <path class="fil1" d="M256 20c130,0 236,106 236,236 0,130 -106,236 -236,236 -130,0 -236,-106 -236,-236 0,-130 106,-236 236,-236z"/>
   <g>
    <path class="fil2 str0" d="M44 195c1,2 2,5 3,7 1,3 2,6 2,8l5 16c11,30 20,62 31,93 7,20 13,42 20,62l20 63 262 0 5 -16c2,-5 3,-10 5,-15l30 -94c7,-20 14,-41 21,-62 1,-5 3,-10 5,-15 1,-6 15,-45 15,-47l-7 -5c-12,-9 -24,-18 -36,-27l-30 -21c-2,-2 -4,-3 -6,-5 -3,-2 -5,-3 -7,-5l-7 -5c-8,-5 -18,-13 -26,-19 -5,-3 -9,-6 -13,-9l-53 -39c-3,-2 -5,-3 -7,-5l-20 -14c-7,5 -22,16 -30,21 -1,1 -2,2 -3,3 -1,1 -2,1 -3,2l-23 17c-2,1 -2,1 -4,2l-82 60c-2,1 -2,2 -4,3l-23 17c-2,1 -4,3 -6,4l-14 10c-2,2 -4,3 -6,5l-14 10z"/>
    <path class="fil3" d="M52 196c0,2 1,6 2,8 1,2 2,5 2,7l5 15c10,30 20,61 29,90 7,20 13,41 20,60l19 61 254 0 4 -15c2,-5 4,-10 5,-15l30 -90c6,-20 12,-40 19,-60 2,-5 3,-10 5,-15 2,-5 14,-44 14,-46l-6 -4c-11,-9 -24,-18 -35,-26l-28 -21c-3,-1 -5,-3 -7,-4 -2,-2 -4,-3 -6,-5l-7 -5c-7,-5 -18,-13 -25,-18 -5,-3 -9,-6 -13,-10l-51 -37c-2,-1 -4,-3 -7,-4l-19 -14c-7,5 -21,15 -29,21 -1,0 -2,1 -3,2 -1,1 -2,1 -3,2l-22 16c-1,1 -2,2 -3,3l-80 58c-2,0 -2,1 -3,2l-23 16c-2,2 -4,3 -6,5l-13 9c-2,2 -4,3 -7,5l-12 9z"/>
    <path class="fil3 str0" d="M200 90c0,0 1,1 1,2 0,0 0,1 0,2l2 4c2,8 5,16 8,24 2,6 3,11 5,17l5 16 70 0 1 -4c0,-1 1,-2 1,-4l8 -24c2,-6 4,-11 6,-17 0,-1 1,-3 1,-4 0,-1 4,-12 4,-12l-2 -2c-3,-2 -6,-4 -9,-7l-8 -5c-1,-1 -1,-1 -2,-2 -1,0 -1,0 -2,-1l-1 -1c-2,-2 -5,-4 -7,-5 -2,-1 -3,-2 -4,-3l-14 -10c0,0 -1,-1 -2,-1l-5 -4c-2,1 -6,4 -8,6 0,0 0,0 -1,0 0,1 0,1 -1,1l-6 4c0,1 0,1 0,1l-22 16c-1,0 -1,0 -1,1l-6 4c-1,0 -1,1 -2,1l-4 3c0,0 -1,1 -1,1l-4 3z"/>
    <g>
     <path class="fil2" d="M240 61c0,0 0,0 0,0 0,1 0,1 0,1l1 1c0,2 1,5 2,7 1,2 1,3 2,5l1 5 20 0 0 -1c1,-1 1,-1 1,-2l2 -7c1,-1 1,-3 2,-5 0,0 0,0 0,-1 0,0 1,-3 1,-3l0 -1c-1,0 -2,-1 -3,-2l-2 -1c0,0 -1,-1 -1,-1 0,0 0,0 0,0l-1 0c0,-1 -1,-1 -2,-2 0,0 -1,0 -1,-1l-4 -3c0,0 0,0 0,0l-2 -1c0,0 -2,1 -2,2 0,0 0,0 0,0 -1,0 -1,0 -1,0l-1 1c-1,0 -1,0 -1,0l-6 5c0,0 0,0 0,0l-2 1c0,1 0,1 -1,1l-1 1c0,0 0,0 0,0l-1 1z"/>
     <path class="fil2" d="M280 89c0,0 0,1 0,1 0,0 0,0 0,0l1 2c0,2 1,4 2,7 1,1 1,3 2,4l1 5 20 0 0 -1c1,0 1,-1 1,-1l2 -7c1,-2 1,-3 2,-5 0,0 0,-1 0,-1 0,-1 1,-4 1,-4l0 0c-1,-1 -2,-1 -3,-2l-2 -2c0,0 -1,0 -1,0 0,0 0,0 0,0l-1 -1c0,0 -1,-1 -2,-1 0,-1 -1,-1 -1,-1l-4 -3c0,0 0,0 0,0l-2 -1c-1,0 -2,1 -2,1 0,0 0,0 0,0 -1,0 -1,0 -1,1l-1 1c-1,0 -1,0 -1,0l-6 5c0,0 0,0 0,0l-2 1c0,0 0,0 -1,0l-1 1c0,0 0,0 0,1l-1 0z"/>
     <path class="fil2" d="M200 90c0,0 0,0 0,1 0,0 0,0 0,0l0 1c1,3 2,5 3,7 0,2 1,4 1,5l2 5 20 0 0 -1c0,-1 0,-1 1,-1l2 -8c0,-1 1,-3 1,-4 1,-1 1,-1 1,-1 0,-1 1,-4 1,-4l-1 0c0,-1 -1,-2 -2,-2l-3 -2c0,0 0,0 0,0 0,-1 0,-1 -1,-1l0 0c-1,-1 -2,-1 -2,-2 0,0 -1,0 -1,0l-4 -3c0,0 -1,-1 -1,-1l-1 -1c-1,1 -2,1 -2,2 -1,0 -1,0 -1,0 0,0 0,0 0,0l-2 1c0,1 0,1 0,1l-6 4c0,0 0,0 -1,0l-1 2c0,0 -1,0 -1,0l-1 1c0,0 0,0 0,0l-1 1z"/>
     <path class="fil2" d="M215 137c0,0 0,0 0,0 0,0 1,1 1,1l0 1c1,2 1,5 2,7 1,2 1,3 2,5l1 5 20 0 1 -2c0,0 0,0 0,-1l2 -7c1,-2 1,-3 2,-5 0,0 0,0 0,-1 0,0 1,-3 1,-3l0 -1c-1,0 -2,-1 -3,-2l-2 -1c0,-1 0,-1 -1,-1 0,0 0,0 0,0l-1 -1c0,0 -1,-1 -2,-1 0,0 0,-1 -1,-1l-4 -3c0,0 0,0 0,0l-2 -1c0,0 -1,1 -2,1 0,1 0,1 0,1 0,0 0,0 0,0l-2 1c0,0 0,0 0,0l-7 5c0,0 0,0 0,0l-2 1c0,0 0,1 0,1l-1 0c0,1 -1,1 -1,1l-1 1z"/>
     <path class="fil2" d="M264 136c0,1 0,1 0,1 1,0 1,0 1,1l0 1c1,2 2,5 2,7 1,2 1,3 2,5l1 4 20 0 1 -1c0,0 0,0 0,-1l3 -7c0,-2 1,-3 1,-5 0,0 0,-1 0,-1 1,0 2,-3 2,-4l-1 0c-1,-1 -2,-1 -3,-2l-2 -2c0,0 0,0 0,0 -1,0 -1,0 -1,0l0 -1c-1,0 -2,-1 -2,-1 -1,0 -1,-1 -1,-1l-4 -3c-1,0 -1,0 -1,0l-2 -1c0,0 -1,1 -2,1 0,0 0,1 0,1 0,0 0,0 0,0l-2 1c0,0 0,0 0,0l-7 5c0,0 0,0 0,0l-2 1c0,0 0,0 0,1l-1 0c0,0 0,1 -1,1l-1 0z"/>
    </g>
    <g style="clip-path:url(#id0)">
     <polygon class="fil1" points="226,79 286,79 286,138 226,138 "/>
    </g>
    <g style="clip-path:url(#id1)">
     <g>
      <path id="1" class="fil4" d="M228 98c2,0 3,4 3,5 0,7 -2,4 4,6 4,2 -2,6 9,5 1,0 1,2 5,2 2,0 1,3 0,4 -1,1 -2,5 0,5 3,0 7,2 7,5 0,1 2,6 2,7 3,2 1,1 5,-2 3,-2 3,-5 5,-7 3,-2 -1,-3 1,-5 0,0 2,-4 -3,-2 -3,2 -4,-6 -7,-3 -3,2 -4,-2 -6,-2 -1,0 -8,-4 -8,-5 0,-4 -5,5 -5,-3 -1,-7 4,-1 5,-1 6,0 -1,-5 5,-8 5,-3 -1,-7 6,-6 3,0 5,-3 1,-3 -1,0 -3,-5 -6,-1 -1,2 -4,-2 -4,-1 -1,1 0,9 -4,3 -3,-3 -5,-2 1,-4 1,-1 -1,-4 1,-2 2,0 2,5 7,0 3,-3 -6,-2 -6,-3 0,-2 1,-2 -3,0 -5,1 1,2 0,4 0,0 -3,1 -3,-1 0,-2 -3,-1 -1,2 1,1 -2,3 -3,0 -3,-1 -8,9 -8,11z"/>
      <path class="fil4" d="M250 80c1,0 3,2 4,1 0,0 0,1 1,3 2,2 2,0 4,2 0,0 2,1 2,-1 0,-1 -2,-3 0,-3 1,0 1,1 3,-2 1,0 0,-1 -3,-1 -3,-1 -9,-1 -11,1 0,0 0,0 0,0z"/>
      <path class="fil4" d="M264 82c3,-2 1,0 4,0 0,0 1,2 -2,1 0,0 -2,0 -2,-1l0 0z"/>
      <path class="fil4" d="M271 87c1,-1 1,1 0,1 -1,1 -1,-2 0,-1z"/>
      <path class="fil4" d="M272 86c0,0 1,1 1,2 0,1 1,1 1,0 1,0 2,1 1,-1 0,-1 -1,-1 -2,-1 0,0 -1,0 -1,0z"/>
      <path class="fil4" d="M274 84c-1,2 1,1 2,2 1,1 1,2 0,2 -1,2 -1,1 -2,1 0,1 2,2 0,2 -1,0 0,2 0,2 0,1 -1,2 1,1 1,-1 2,2 2,-2 0,0 1,-2 2,0 0,0 -1,1 1,2 1,0 2,1 2,0 1,0 1,-1 0,-1 0,0 -1,-2 -2,-3 0,0 -1,-2 -2,-3 0,-1 -1,-1 -2,-2 0,0 -1,0 -2,-1 0,0 0,0 0,0z"/>
      <path class="fil4" d="M274 96c0,-2 2,1 5,-1 2,-1 1,0 3,2 1,1 0,-3 2,0 0,1 0,2 1,4 1,1 1,11 0,12 0,1 0,5 -1,4 0,0 0,-4 0,-4 1,-1 -1,-2 -1,-3 0,-2 -1,-1 -2,-2 0,-1 -3,2 -6,-1 -1,-1 -3,-1 -1,-3 1,-1 -1,-2 -1,-3 0,-1 1,-1 2,-3 0,0 -1,-1 -1,-2z"/>
      <path class="fil4" d="M249 110c1,0 5,-1 5,-1 0,2 -2,2 -4,2 0,0 -1,-1 -1,-1z"/>
     </g>
    </g>
    <path class="fil0 str0" d="M256 79c16,0 30,13 30,29 0,17 -14,30 -30,30 -16,0 -30,-13 -30,-30 0,-16 14,-29 30,-29z"/>
    <path class="fil3 str0" d="M52 196c0,0 0,1 0,2 0,1 1,1 1,2l1 4c3,8 5,17 8,25 2,5 4,11 6,16l5 17 69 0 1 -4c1,-2 1,-3 2,-5l8 -24c2,-6 3,-11 5,-17 1,-1 1,-2 1,-4 1,-1 4,-12 4,-12l-1 -1c-3,-3 -7,-5 -10,-7l-8 -6c0,-1 -1,-1 -1,-1 -1,-1 -2,-1 -2,-2l-2 -1c-2,-1 -5,-4 -7,-5 -1,-1 -2,-2 -4,-3l-13 -10c-1,0 -2,-1 -2,-1l-6 -4c-1,2 -5,4 -7,6 -1,0 -1,0 -1,0 -1,1 -1,1 -1,1l-6 5c-1,0 -1,0 -1,0l-22 16c0,0 0,0 -1,1l-6 4c0,1 -1,1 -2,1l-3 3c-1,0 -1,1 -2,1l-3 3z"/>
    <path class="fil2" d="M91 167c0,0 0,0 1,1 0,0 0,0 0,0l0 1c1,3 2,5 2,7 1,2 1,4 2,5l2 5 20 0 0 -1c0,-1 0,-1 0,-1l3 -8c0,-1 1,-3 1,-4 0,-1 0,-1 1,-1 0,-1 1,-4 1,-4l-1 0c-1,-1 -2,-2 -3,-2l-2 -2c0,0 0,0 0,0 -1,-1 -1,-1 -1,-1l0 0c-1,-1 -2,-1 -2,-2 -1,0 -1,0 -1,0l-4 -3c-1,0 -1,-1 -1,-1l-1 -1c-1,1 -2,1 -3,2 0,0 0,0 0,0 0,0 0,0 0,0l-2 1c0,1 0,1 0,1l-7 4c0,0 0,0 0,0l-2 2c0,0 0,0 0,0l-1 1c0,0 0,0 -1,0l-1 1z"/>
    <path class="fil2" d="M131 195c0,1 0,1 1,1 0,0 0,0 0,1l0 1c1,2 2,5 2,7 1,2 1,3 2,5l1 4 20 0 1 -1c0,0 0,-1 0,-1l3 -7c0,-2 1,-3 1,-5 0,0 0,-1 0,-1 1,0 2,-3 2,-4l-1 0c-1,-1 -2,-1 -3,-2l-2 -2c0,0 0,0 0,0 -1,0 -1,0 -1,0l0 -1c-1,0 -2,-1 -2,-1 -1,0 -1,-1 -1,-1l-4 -3c-1,0 -1,0 -1,0l-2 -1c0,0 -1,1 -2,1 0,0 0,0 0,1 0,0 0,0 0,0l-2 1c0,0 0,0 0,0l-7 5c0,0 0,0 0,0l-2 1c0,0 0,0 0,1l-1 0c0,0 0,1 -1,1l-1 0z"/>
    <path class="fil2" d="M51 196c0,0 0,1 0,1 0,0 0,0 0,0l1 2c1,2 1,4 2,7 1,1 1,3 2,4l1 5 20 0 1 -1c0,0 0,-1 0,-1l2 -7c1,-2 1,-4 2,-5 0,0 0,-1 0,-1 0,-1 1,-4 1,-4l0 0c-1,-1 -2,-2 -3,-2l-2 -2c0,0 -1,0 -1,0 0,0 0,0 0,-1l-1 0c0,0 -1,-1 -2,-1 0,-1 0,-1 -1,-1l-4 -3c0,0 0,0 0,0l-2 -2c0,1 -1,2 -2,2 0,0 0,0 0,0 0,0 0,0 -1,0l-1 2c0,0 0,0 -1,0l-6 4c0,1 0,1 0,1l-2 1c0,0 0,0 0,0l-1 1c-1,0 -1,0 -1,0l-1 1z"/>
    <path class="fil2" d="M67 243c0,0 0,0 0,0 0,1 0,1 0,1l0 1c1,2 2,5 3,7 0,2 1,3 1,5l2 5 20 0 0 -1c0,-1 0,-1 1,-2l2 -7c0,-1 1,-3 1,-4 1,-1 1,-1 1,-2 0,0 1,-3 1,-3l-1 -1c0,0 -1,-1 -2,-2l-3 -1c0,0 0,-1 0,-1 0,0 0,0 -1,0l0 0c-1,-1 -2,-1 -2,-2 0,0 -1,0 -1,-1l-4 -2c0,-1 -1,-1 -1,-1l-1 -1c-1,0 -2,1 -2,2 -1,0 -1,0 -1,0 0,0 0,0 0,0l-2 1c0,0 0,0 0,0l-6 5c0,0 0,0 -1,0l-1 2c0,0 -1,0 -1,0l-1 1c0,0 0,0 0,0l-1 1z"/>
    <path class="fil2" d="M116 243c0,0 0,0 0,0 0,0 0,1 0,1l0 1c1,2 2,5 3,7 0,2 1,3 1,5l2 5 20 0 0 -2c0,0 1,0 1,-1l2 -7c0,-1 1,-3 2,-5 0,0 0,0 0,-1 0,0 1,-3 1,-3l0 -1c-1,0 -2,-1 -3,-2l-2 -1c-1,0 -1,-1 -1,-1 0,0 0,0 0,0l-1 0c-1,-1 -1,-1 -2,-2 0,0 -1,0 -1,-1l-4 -3c0,0 0,0 -1,0l-1 -1c-1,0 -2,1 -2,2 0,0 -1,0 -1,0 0,0 0,0 0,0l-2 1c0,0 0,0 0,0l-6 5c0,0 0,0 0,0l-2 1c0,1 -1,1 -1,1l-1 1c0,0 0,0 0,0l-1 1z"/>
    <g style="clip-path:url(#id2)">
     <polygon class="fil1" points="78,185 137,185 137,244 78,244 "/>
    </g>
    <g style="clip-path:url(#id3)">
     <g>
      <path id="1" class="fil4" d="M80 205c2,-1 2,3 2,5 0,6 -2,3 5,6 3,1 -2,5 9,5 1,0 1,1 4,1 3,0 1,3 0,5 0,0 -1,5 0,5 3,0 8,1 8,5 0,0 1,6 1,6 3,2 1,1 6,-2 2,-2 2,-5 5,-7 3,-1 -2,-3 1,-5 0,0 2,-4 -3,-2 -4,2 -5,-5 -8,-3 -3,2 -4,-2 -6,-2 0,0 -8,-3 -8,-5 0,-4 -4,6 -5,-3 0,-7 4,0 5,0 6,0 0,-6 5,-9 6,-3 0,-6 7,-6 3,0 4,-3 0,-3 -1,0 -3,-4 -5,-1 -2,2 -5,-1 -5,-1 -1,1 0,9 -4,3 -2,-3 -5,-2 1,-4 2,-1 0,-3 2,-2 1,1 1,5 6,0 3,-3 -6,-2 -6,-2 0,-3 1,-3 -3,-1 -4,1 1,2 0,4 0,0 -3,2 -3,-1 1,-1 -3,-1 -1,2 1,1 -2,3 -2,1 -3,-1 -8,9 -8,11z"/>
      <path class="fil4" d="M101 186c2,0 3,2 5,1 0,0 0,2 1,3 2,2 1,0 3,2 0,0 2,2 2,-1 0,-1 -1,-3 1,-3 0,0 0,1 2,-1 1,-1 0,-1 -3,-2 -2,0 -8,-1 -11,1 0,0 0,0 0,0z"/>
      <path class="fil4" d="M116 188c2,-1 0,0 3,0 1,0 1,2 -1,1 -1,0 -3,1 -3,-1l1 0z"/>
      <path class="fil4" d="M122 193c2,-1 1,1 1,2 -2,0 -2,-3 -1,-2z"/>
      <path class="fil4" d="M123 192c1,0 2,1 2,2 0,1 0,1 1,1 0,-1 2,1 1,-1 -1,-2 -2,-1 -3,-2 0,0 -1,0 -1,0z"/>
      <path class="fil4" d="M125 190c0,2 1,1 2,2 1,1 1,2 0,3 0,1 0,0 -1,0 0,1 2,2 -1,2 0,1 0,2 0,2 1,1 0,2 1,1 1,-1 2,2 2,-2 0,0 2,-1 2,0 1,1 0,1 2,2 1,0 1,1 2,0 0,0 0,-1 0,-1 -1,0 -2,-2 -2,-3 -1,0 -2,-2 -2,-2 -1,-2 -2,-2 -3,-3 0,0 -1,0 -1,-1 -1,0 -1,0 -1,0z"/>
      <path class="fil4" d="M126 203c0,-3 2,0 4,-2 2,-1 1,0 3,3 1,0 1,-3 2,-1 0,1 1,3 1,4 1,1 2,11 1,13 0,0 -1,4 -2,3 0,0 0,-3 1,-4 0,-1 -2,-2 -2,-3 0,-2 -1,-1 -1,-2 -1,0 -4,2 -6,0 -2,-2 -3,-1 -1,-3 0,-1 -1,-3 -1,-3 0,-1 1,-2 1,-3 0,-1 0,-2 0,-2z"/>
      <path class="fil4" d="M101 216c0,0 4,-1 4,0 0,1 -2,1 -3,1 -1,0 -1,-1 -1,-1z"/>
     </g>
    </g>
    <path class="fil0 str0" d="M107 185c17,0 30,13 30,29 0,17 -13,30 -30,30 -16,0 -29,-13 -29,-30 0,-16 13,-29 29,-29z"/>
    <path class="fil3 str0" d="M108 371c0,1 1,1 1,2 0,1 0,1 0,2l2 4c2,8 5,17 8,25 2,5 3,11 5,16l5 17 70 0 1 -4c0,-2 1,-3 1,-4l8 -25c2,-6 4,-11 6,-16 0,-2 1,-3 1,-5 0,-1 4,-12 4,-12l-2 -1c-3,-3 -6,-5 -9,-7l-8 -6c-1,0 -1,-1 -2,-1 -1,-1 -1,-1 -2,-1l-1 -2c-2,-1 -5,-3 -7,-5 -2,-1 -3,-2 -4,-2l-14 -11c0,0 -1,0 -2,-1l-5 -4c-2,2 -6,5 -8,6 0,0 0,0 -1,1 0,0 0,0 -1,0l-6 5c0,0 0,0 0,0l-22 16c-1,0 -1,1 -1,1l-6 4c-1,1 -1,1 -2,2l-4 2c0,1 -1,1 -1,1l-4 3z"/>
    <g>
     <path class="fil2" d="M148 342c0,0 0,1 0,1 0,0 0,0 0,0l1 1c0,3 1,5 2,8 1,1 1,3 2,4l1 5 20 0 0 -1c1,-1 1,-1 1,-1l2 -7c1,-2 1,-4 2,-5 0,-1 0,-1 0,-1 0,-1 1,-4 1,-4l0 0c-1,-1 -2,-2 -3,-2l-2 -2c0,0 -1,0 -1,0 0,0 0,-1 0,-1l-1 0c0,0 -1,-1 -2,-2 0,0 -1,0 -1,0l-4 -3c0,0 0,0 0,-1l-2 -1c0,1 -2,2 -2,2 0,0 0,0 0,0 -1,0 -1,0 -1,0l-1 2c-1,0 -1,0 -1,0l-6 4c0,0 0,1 0,1l-2 1c0,0 0,0 -1,0l-1 1c0,0 0,0 0,0l-1 1z"/>
     <path class="fil2" d="M188 371c0,0 0,0 0,0 0,0 0,1 0,1l1 1c0,2 1,5 2,7 1,2 1,3 2,5l1 5 20 0 0 -2c1,0 1,0 1,-1l2 -7c1,-1 1,-3 2,-5 0,0 0,0 0,-1 0,0 1,-3 1,-3l0 -1c-1,0 -2,-1 -3,-2l-2 -1c0,-1 -1,-1 -1,-1 0,0 0,0 0,0l-1 -1c0,0 -1,-1 -2,-1 0,0 -1,0 -1,-1l-4 -3c0,0 0,0 0,0l-2 -1c-1,0 -2,1 -2,2 0,0 0,0 0,0 -1,0 -1,0 -1,0l-1 1c-1,0 -1,0 -1,0l-6 5c0,0 0,0 0,0l-2 1c0,1 0,1 -1,1l-1 1c0,0 0,0 0,0l-1 1z"/>
     <path class="fil2" d="M108 371c0,0 0,1 0,1 0,0 0,0 0,0l0 2c1,2 2,4 3,7 0,1 1,3 1,5l2 4 20 0 0 -1c0,0 0,-1 1,-1l2 -7c0,-2 1,-3 1,-5 1,0 1,-1 1,-1 0,-1 1,-4 1,-4l-1 0c0,-1 -1,-1 -2,-2l-3 -2c0,0 0,0 0,0 0,0 0,0 -1,0l0 -1c-1,0 -2,-1 -2,-1 0,-1 -1,-1 -1,-1l-4 -3c0,0 -1,0 -1,0l-1 -1c-1,0 -2,1 -2,1 -1,0 -1,0 -1,0 0,0 0,1 0,1l-2 1c0,0 0,0 0,0l-6 5c0,0 0,0 -1,0l-1 1c0,0 -1,0 -1,0l-1 1c0,0 0,0 0,1l-1 0z"/>
     <path class="fil2" d="M123 418c0,0 0,0 0,1 0,0 1,0 1,0l0 1c1,3 1,5 2,7 1,2 1,4 2,5l1 5 20 0 1 -1c0,-1 0,-1 0,-1l2 -8c1,-1 1,-3 2,-4 0,-1 0,-1 0,-1 0,-1 1,-4 1,-4l0 0c-1,-1 -2,-2 -3,-2l-2 -2c0,0 0,0 -1,0 0,-1 0,-1 0,-1l-1 0c0,-1 -1,-1 -2,-2 0,0 0,0 -1,0l-4 -3c0,0 0,-1 0,-1l-2 -1c0,1 -1,1 -2,2 0,0 0,0 0,0 0,0 0,0 0,0l-2 1c0,1 0,1 0,1l-7 4c0,0 0,0 0,0l-2 2c0,0 0,0 0,0l-1 1c0,0 -1,0 -1,0l-1 1z"/>
     <path class="fil2" d="M172 418c0,0 0,0 0,0 1,1 1,1 1,1l0 1c1,3 2,5 2,7 1,2 1,4 2,5l1 5 20 0 1 -1c0,-1 0,-1 0,-2l3 -7c0,-1 1,-3 1,-4 0,-1 0,-1 0,-2 1,0 2,-3 2,-3l-1 -1c-1,0 -2,-1 -3,-2l-2 -1c0,0 0,0 0,-1 -1,0 -1,0 -1,0l0 0c-1,-1 -2,-1 -2,-2 -1,0 -1,0 -1,0l-4 -3c-1,-1 -1,-1 -1,-1l-2 -1c0,0 -1,1 -2,2 0,0 0,0 0,0 0,0 0,0 0,0l-2 1c0,0 0,1 0,1l-7 4c0,0 0,0 0,0l-2 2c0,0 0,0 0,0l-1 1c0,0 0,0 -1,0l-1 1z"/>
    </g>
    <g style="clip-path:url(#id4)">
     <polygon class="fil1" points="134,360 194,360 194,419 134,419 "/>
    </g>
    <g style="clip-path:url(#id5)">
     <g>
      <path id="1" class="fil4" d="M136 380c2,-1 3,3 3,5 0,7 -2,3 4,6 4,1 -2,5 9,5 1,0 1,1 5,1 2,1 1,4 0,5 -1,0 -2,5 0,5 3,0 7,1 7,5 0,0 2,6 2,6 3,3 1,1 5,-2 3,-1 3,-5 5,-7 3,-1 -1,-2 1,-4 0,0 2,-5 -3,-3 -3,2 -4,-5 -7,-3 -3,2 -4,-2 -6,-1 -1,0 -8,-4 -8,-6 0,-4 -5,6 -5,-3 -1,-6 4,0 5,0 6,0 -1,-5 5,-8 5,-4 -1,-7 6,-7 3,0 5,-3 1,-3 -1,0 -3,-4 -6,-1 -1,2 -4,-1 -4,-1 -1,2 0,9 -4,3 -3,-3 -5,-2 1,-4 1,-1 -1,-3 1,-2 2,1 2,5 7,0 3,-2 -6,-2 -6,-2 0,-3 1,-3 -3,-1 -5,2 1,2 0,5 0,0 -3,1 -3,-2 0,-1 -3,-1 -1,2 1,2 -2,3 -3,1 -3,-1 -8,9 -8,11z"/>
      <path class="fil4" d="M158 361c1,0 3,2 4,1 0,0 0,2 1,3 2,2 2,0 4,3 0,0 2,1 2,-1 0,-1 -2,-4 0,-4 1,0 1,1 3,-1 1,-1 0,-1 -3,-2 -3,0 -9,-1 -11,1 0,0 0,0 0,0z"/>
      <path class="fil4" d="M172 363c3,-1 1,0 4,0 0,0 1,2 -2,1 0,0 -2,1 -2,-1l0 0z"/>
      <path class="fil4" d="M179 368c1,0 1,2 0,2 -1,0 -1,-3 0,-2z"/>
      <path class="fil4" d="M180 367c0,0 1,1 1,2 0,1 1,1 1,1 1,0 2,1 1,-1 0,-2 -1,-1 -2,-2 0,0 -1,0 -1,0z"/>
      <path class="fil4" d="M182 365c-1,3 1,1 2,3 1,0 1,1 0,2 -1,1 -1,0 -2,1 0,0 2,2 0,2 -1,0 0,1 0,1 0,1 -1,2 1,1 1,0 2,2 2,-2 0,0 1,-1 2,0 0,1 -1,1 1,2 1,0 2,1 2,0 1,0 1,0 0,-1 0,0 -1,-2 -2,-2 0,-1 -1,-3 -2,-3 0,-1 -1,-2 -2,-3 0,0 -1,0 -2,-1 0,0 0,0 0,0z"/>
      <path class="fil4" d="M182 378c0,-2 2,0 5,-2 2,-1 1,1 3,3 1,1 0,-3 2,-1 0,1 0,3 1,4 1,2 1,11 0,13 0,0 0,4 -1,3 0,0 0,-3 0,-4 1,0 -1,-2 -1,-3 0,-2 -1,0 -2,-2 0,0 -3,3 -6,0 -1,-1 -3,-1 -1,-3 1,-1 -1,-3 -1,-3 0,-1 1,-2 2,-3 0,-1 -1,-2 -1,-2z"/>
      <path class="fil4" d="M157 391c1,0 5,0 5,0 0,1 -2,1 -4,1 0,0 -1,0 -1,-1z"/>
     </g>
    </g>
    <path class="fil0 str0" d="M164 360c16,0 30,13 30,30 0,16 -14,29 -30,29 -16,0 -30,-13 -30,-29 0,-17 14,-30 30,-30z"/>
    <path class="fil3 str0" d="M291 370c0,1 0,2 1,2 0,1 0,1 0,2l2 4c2,8 5,17 8,25 1,5 3,11 5,16l5 17 70 0 1 -4c0,-2 1,-3 1,-4l8 -25c2,-5 4,-11 6,-16 0,-2 0,-3 1,-5 0,-1 4,-11 4,-12l-2 -1c-3,-2 -6,-5 -9,-7l-8 -6c-1,0 -1,-1 -2,-1 -1,-1 -1,-1 -2,-1l-2 -2c-2,-1 -4,-3 -7,-5 -1,-1 -2,-1 -3,-2l-14 -11c-1,0 -1,0 -2,-1l-5 -4c-2,2 -6,5 -8,6 0,0 0,0 -1,1 0,0 0,0 -1,0l-6 5c0,0 0,0 -1,0l-21 16c-1,0 -1,1 -1,1l-6 4c-1,1 -2,1 -2,2l-4 2c0,1 -1,1 -1,1l-4 3z"/>
    <g>
     <path class="fil2" d="M331 341c0,0 0,1 0,1 0,0 0,0 0,0l1 1c0,3 1,5 2,8 0,1 1,3 1,4l2 5 20 0 0 -1c0,0 1,-1 1,-1l2 -7c1,-2 1,-4 2,-5 0,0 0,-1 0,-1 0,-1 1,-4 1,-4l0 0c-1,-1 -2,-2 -3,-2l-2 -2c-1,0 -1,0 -1,0 0,0 0,-1 0,-1l-1 0c-1,0 -1,-1 -2,-1 0,-1 -1,-1 -1,-1l-4 -3c0,0 0,0 -1,-1l-1 -1c-1,1 -2,2 -2,2 0,0 0,0 -1,0 0,0 0,0 0,0l-2 2c0,0 0,0 0,0l-6 4c0,1 0,1 0,1l-2 1c0,0 0,0 -1,0l-1 1c0,0 0,0 0,0l-1 1z"/>
     <path class="fil2" d="M371 370c0,0 0,0 0,0 0,0 0,1 0,1l1 1c0,2 1,5 2,7 0,2 1,3 1,5l2 5 20 0 0 -2c0,0 1,0 1,-1l2 -7c1,-1 1,-3 2,-5 0,0 0,0 0,-1 0,0 1,-3 1,-3l0 -1c-1,0 -2,-1 -3,-2l-2 -1c-1,0 -1,-1 -1,-1 0,0 0,0 0,0l-1 0c-1,-1 -1,-1 -2,-2 0,0 -1,0 -1,-1l-4 -3c0,0 0,0 -1,0l-1 -1c-1,0 -2,1 -2,2 0,0 0,0 -1,0 0,0 0,0 0,0l-2 1c0,0 0,0 0,0l-6 5c0,0 0,0 0,0l-2 1c0,1 0,1 -1,1l-1 1c0,0 0,0 0,0l-1 1z"/>
     <path class="fil2" d="M291 370c0,1 0,1 0,1 0,0 0,0 0,1l0 1c1,2 2,5 3,7 0,1 1,3 1,5l2 4 20 0 0 -1c0,0 0,-1 0,-1l3 -7c0,-2 1,-3 1,-5 0,0 1,-1 1,-1 0,0 1,-4 1,-4l-1 0c-1,-1 -2,-1 -2,-2l-3 -2c0,0 0,0 0,0 0,0 -1,0 -1,0l0 -1c-1,0 -2,-1 -2,-1 -1,-1 -1,-1 -1,-1l-4 -3c0,0 -1,0 -1,0l-1 -1c-1,0 -2,1 -3,1 0,0 0,0 0,0 0,0 0,1 0,1l-2 1c0,0 0,0 0,0l-6 5c-1,0 -1,0 -1,0l-1 1c-1,0 -1,0 -1,0l-1 1c0,0 0,0 0,1l-1 0z"/>
     <path class="fil2" d="M306 417c0,0 0,0 0,1 0,0 0,0 0,0l1 1c1,3 1,5 2,7 1,2 1,4 2,5l1 5 20 0 1 -1c0,-1 0,-1 0,-1l2 -8c1,-1 1,-3 2,-4 0,-1 0,-1 0,-1 0,-1 1,-4 1,-4l0 0c-1,-1 -2,-2 -3,-2l-2 -2c0,0 0,0 -1,0 0,-1 0,-1 0,-1l-1 0c0,-1 -1,-1 -2,-2 0,0 0,0 -1,0l-4 -3c0,0 0,-1 0,-1l-2 -1c0,1 -1,1 -2,2 0,0 0,0 0,0 0,0 0,0 -1,0l-1 2c0,0 0,0 -1,0l-6 4c0,0 0,0 0,0l-2 2c0,0 0,0 0,0l-1 1c-1,0 -1,0 -1,0l-1 1z"/>
     <path class="fil2" d="M355 417c0,0 0,0 0,0 0,1 1,1 1,1l0 1c1,3 1,5 2,7 1,2 1,4 2,5l1 5 20 0 1 -1c0,-1 0,-1 0,-1l2 -8c1,-1 1,-3 2,-4 0,-1 0,-1 0,-2 0,0 1,-3 1,-3l0 0c-1,-1 -2,-2 -3,-2l-2 -2c0,0 0,0 -1,-1 0,0 0,0 0,0l-1 0c0,-1 -1,-1 -2,-2 0,0 0,0 -1,0l-4 -3c0,-1 0,-1 0,-1l-2 -1c0,1 -1,1 -2,2 0,0 0,0 0,0 0,0 0,0 0,0l-2 1c0,1 0,1 0,1l-7 4c0,0 0,0 0,0l-2 2c0,0 0,0 0,0l-1 1c0,0 -1,0 -1,0l-1 1z"/>
    </g>
    <g style="clip-path:url(#id6)">
     <polygon class="fil1" points="317,359 377,359 377,418 317,418 "/>
    </g>
    <g style="clip-path:url(#id7)">
     <g>
      <path id="1" class="fil4" d="M319 379c2,0 3,3 3,5 0,7 -2,3 4,6 4,1 -2,5 9,5 1,0 1,1 4,1 3,1 1,4 1,5 -1,0 -2,5 0,5 3,0 7,1 7,5 0,0 1,6 1,6 4,3 2,1 6,-2 2,-1 3,-5 5,-6 3,-2 -1,-3 1,-5 0,0 2,-4 -3,-2 -4,1 -4,-6 -7,-4 -3,2 -4,-1 -6,-1 -1,0 -9,-4 -8,-6 0,-4 -5,6 -5,-3 -1,-6 3,0 5,0 6,0 -1,-5 5,-8 5,-4 -1,-7 6,-7 3,1 4,-3 0,-3 0,0 -2,-4 -5,-1 -1,2 -4,-1 -4,-1 -1,2 0,9 -5,4 -2,-3 -5,-3 1,-5 2,-1 0,-3 2,-2 1,1 2,5 7,0 2,-2 -6,-2 -6,-2 0,-3 1,-3 -3,-1 -5,2 1,2 -1,5 0,0 -2,1 -2,-2 0,-1 -4,-1 -2,2 2,2 -1,3 -2,1 -3,-1 -8,9 -8,11z"/>
      <path class="fil4" d="M341 360c1,0 2,2 4,1 0,0 0,2 1,3 2,2 2,0 4,3 0,0 2,1 2,-1 0,-1 -2,-4 0,-4 1,1 1,1 3,-1 1,-1 0,-1 -3,-2 -3,0 -9,0 -11,1 0,0 0,0 0,0z"/>
      <path class="fil4" d="M355 362c3,-1 0,0 4,0 0,0 1,2 -2,1 0,0 -2,1 -2,-1l0 0z"/>
      <path class="fil4" d="M362 367c1,0 1,2 0,2 -1,0 -1,-2 0,-2z"/>
      <path class="fil4" d="M362 366c1,0 2,1 2,2 0,1 1,1 1,1 1,0 2,1 1,-1 0,-2 -1,-1 -3,-2 0,0 0,0 -1,0z"/>
      <path class="fil4" d="M365 364c-1,3 0,1 2,3 1,1 1,1 0,2 -1,1 -1,0 -2,1 0,0 2,2 0,2 -1,0 0,1 0,1 0,1 -1,2 1,1 1,0 2,2 2,-2 0,0 1,-1 2,0 0,1 -1,1 1,2 1,0 1,1 2,0 1,0 0,0 0,-1 0,0 -1,-2 -2,-2 0,-1 -1,-3 -2,-3 -1,-1 -1,-2 -2,-3 0,0 -1,0 -2,0 0,-1 0,-1 0,-1z"/>
      <path class="fil4" d="M365 377c0,-2 2,0 5,-2 2,-1 0,1 3,3 0,1 0,-3 1,0 1,0 1,2 2,3 0,2 1,11 0,13 0,1 0,4 -1,3 -1,0 -1,-3 0,-4 1,0 -1,-2 -1,-3 0,-1 -1,0 -2,-2 -1,0 -3,3 -6,0 -1,-1 -3,-1 -1,-3 1,-1 -1,-3 -1,-3 0,-1 1,-2 2,-3 0,-1 -1,-2 -1,-2z"/>
      <path class="fil4" d="M340 390c1,0 4,0 4,0 0,1 -1,1 -3,1 0,0 -1,0 -1,-1z"/>
     </g>
    </g>
    <path class="fil0 str0" d="M347 359c16,0 30,13 30,30 0,16 -14,29 -30,29 -16,0 -30,-13 -30,-29 0,-17 14,-30 30,-30z"/>
    <path class="fil3 str0" d="M348 196c0,1 1,2 1,3 0,0 0,1 1,2l1 4c3,8 5,16 8,24 2,6 3,11 5,17l6 16 69 0 1 -4c1,-1 1,-3 1,-4l8 -25c2,-5 4,-11 6,-16 0,-1 1,-3 1,-4 1,-1 4,-12 4,-13l-2 -1c-3,-2 -6,-5 -9,-7l-8 -5c-1,-1 -1,-1 -2,-2 0,0 -1,-1 -2,-1l-1 -1c-2,-2 -5,-4 -7,-5 -2,-1 -3,-2 -4,-3l-14 -10c0,-1 -1,-1 -2,-1l-5 -4c-2,1 -6,4 -8,6 0,0 0,0 -1,0 0,0 0,1 0,1l-7 4c0,0 0,1 0,1l-22 16c-1,0 -1,0 -1,0l-6 5c-1,0 -1,1 -2,1l-3 3c-1,0 -2,0 -2,1l-4 2z"/>
    <g>
     <path class="fil2" d="M388 168c0,0 0,0 0,0 0,0 0,1 0,1l1 1c1,2 1,5 2,7 1,2 1,3 2,5l1 5 20 0 1 -2c0,0 0,0 0,-1l2 -7c1,-1 1,-3 2,-5 0,0 0,0 0,-1 0,0 1,-3 1,-3l0 -1c-1,0 -2,-1 -3,-2l-2 -1c0,-1 -1,-1 -1,-1 0,0 0,0 0,0l-1 -1c0,0 -1,-1 -2,-1 0,0 0,0 -1,-1l-4 -3c0,0 0,0 0,0l-2 -1c0,0 -2,1 -2,1 0,1 0,1 0,1 0,0 0,0 -1,0l-1 1c0,0 -1,0 -1,0l-6 5c0,0 0,0 0,0l-2 1c0,0 0,1 0,1l-1 0c-1,1 -1,1 -1,1l-1 1z"/>
     <path class="fil2" d="M428 196c0,0 0,1 0,1 0,0 0,0 0,0l1 2c1,2 1,4 2,7 1,1 1,3 2,4l1 5 20 0 1 -1c0,0 0,-1 0,-1l2 -7c1,-2 1,-4 2,-5 0,0 0,-1 0,-1 0,-1 1,-4 1,-4l0 0c-1,-1 -2,-2 -3,-2l-2 -2c0,0 -1,0 -1,0 0,0 0,0 0,-1l-1 0c0,0 -1,-1 -2,-1 0,-1 0,-1 -1,-1l-4 -3c0,0 0,0 0,0l-2 -2c0,1 -2,2 -2,2 0,0 0,0 0,0 0,0 -1,0 -1,0l-1 2c0,0 -1,0 -1,0l-6 4c0,1 0,1 0,1l-2 1c0,0 0,0 0,0l-1 1c-1,0 -1,0 -1,0l-1 1z"/>
     <path class="fil2" d="M348 197c0,0 0,0 0,0 0,1 0,1 0,1l0 1c1,3 2,5 3,7 0,2 1,3 1,5l2 5 20 0 0 -1c0,-1 1,-1 1,-2l2 -7c0,-1 1,-3 1,-4 1,-1 1,-1 1,-2 0,0 1,-3 1,-3l0 -1c-1,0 -2,-1 -3,-2l-3 -1c0,0 0,0 0,-1 0,0 0,0 -1,0l0 0c-1,-1 -1,-1 -2,-2 0,0 -1,0 -1,-1l-4 -2c0,-1 0,-1 -1,-1l-1 -1c-1,0 -2,1 -2,2 0,0 -1,0 -1,0 0,0 0,0 0,0l-2 1c0,0 0,0 0,1l-6 4c0,0 0,0 0,0l-2 2c0,0 -1,0 -1,0l-1 1c0,0 0,0 0,0l-1 1z"/>
     <path class="fil2" d="M363 243c0,1 0,1 0,1 1,0 1,0 1,1l0 1c1,2 2,5 2,7 1,1 1,3 2,5l1 4 20 0 1 -1c0,0 0,-1 0,-1l3 -7c0,-2 1,-3 1,-5 0,0 0,-1 0,-1 1,0 2,-3 2,-4l-1 0c-1,-1 -2,-1 -3,-2l-2 -2c0,0 0,0 0,0 -1,0 -1,0 -1,0l0 -1c-1,0 -2,-1 -2,-1 -1,0 -1,-1 -1,-1l-5 -3c0,0 0,0 0,0l-2 -1c0,0 -1,1 -2,1 0,0 0,0 0,1 0,0 0,0 0,0l-2 1c0,0 0,0 0,0l-7 5c0,0 0,0 0,0l-2 1c0,0 0,0 0,1l-1 0c0,0 -1,1 -1,1l-1 0z"/>
     <path class="fil2" d="M412 243c0,1 1,1 1,1 0,0 0,0 0,1l0 1c1,2 2,5 2,7 1,1 1,3 2,5l2 4 20 0 0 -1c0,0 0,-1 0,-1l3 -7c0,-2 1,-3 1,-5 0,0 0,-1 1,-1 0,0 1,-4 1,-4l-1 0c-1,-1 -2,-1 -3,-2l-2 -2c0,0 0,0 0,0 0,0 -1,0 -1,0l0 -1c-1,0 -2,-1 -2,-1 -1,-1 -1,-1 -1,-1l-4 -3c-1,0 -1,0 -1,0l-1 -1c-1,0 -2,1 -3,1 0,0 0,0 0,0 0,1 0,1 0,1l-2 1c0,0 0,0 0,0l-7 5c0,0 0,0 0,0l-2 1c0,0 0,0 0,0l-1 1c0,0 0,0 -1,1l-1 0z"/>
    </g>
    <g style="clip-path:url(#id8)">
     <polygon class="fil1" points="374,185 434,185 434,245 374,245 "/>
    </g>
    <g style="clip-path:url(#id9)">
     <g>
      <path id="1" class="fil4" d="M376 205c2,0 3,4 3,5 0,7 -2,4 4,6 4,2 -1,6 9,5 1,0 1,2 5,2 2,0 1,3 0,4 0,1 -1,5 0,5 3,0 8,2 8,5 0,1 1,6 1,6 3,3 1,2 5,-1 3,-2 3,-5 5,-7 3,-2 -1,-3 1,-5 0,0 2,-4 -3,-2 -3,1 -4,-6 -7,-4 -3,3 -4,-1 -6,-1 -1,0 -8,-4 -8,-5 0,-4 -4,5 -5,-3 -1,-7 4,-1 5,-1 6,0 -1,-5 5,-8 5,-3 0,-7 6,-6 3,0 5,-4 1,-3 -1,0 -3,-5 -6,-1 -1,1 -4,-2 -4,-2 -1,2 0,10 -4,4 -3,-3 -5,-2 1,-4 1,-1 -1,-4 1,-2 2,0 2,5 7,0 3,-3 -6,-2 -6,-3 0,-2 1,-2 -3,-1 -5,2 1,3 0,5 0,0 -3,1 -3,-1 0,-2 -3,-1 -1,1 1,2 -2,4 -3,1 -3,-1 -8,9 -8,11z"/>
      <path class="fil4" d="M398 187c1,0 3,2 4,1 1,0 0,1 1,3 2,2 2,0 4,2 0,0 2,1 2,-1 0,-1 -2,-3 0,-3 1,0 1,1 3,-2 1,-1 0,-1 -3,-1 -3,-1 -9,-1 -11,0 0,0 0,1 0,1z"/>
      <path class="fil4" d="M412 188c3,-1 1,1 4,0 0,0 1,2 -2,2 0,0 -2,0 -2,-1l0 -1z"/>
      <path class="fil4" d="M419 193c1,0 1,2 1,2 -2,1 -2,-2 -1,-2z"/>
      <path class="fil4" d="M420 193c0,0 1,1 1,2 0,1 1,1 2,0 0,0 1,1 0,-1 0,-1 -1,-1 -2,-1 0,0 -1,-1 -1,0z"/>
      <path class="fil4" d="M422 191c-1,2 1,1 2,2 1,1 1,1 0,2 -1,1 -1,1 -2,1 0,0 2,2 0,2 -1,0 0,1 0,2 0,1 -1,2 1,1 1,-1 2,1 2,-2 0,-1 1,-2 2,-1 0,1 -1,2 1,3 1,0 2,1 3,0 0,0 0,-1 -1,-1 0,0 -1,-2 -2,-3 0,0 -1,-2 -1,-3 -1,-1 -2,-1 -3,-2 0,-1 -1,0 -2,-1 0,0 0,0 0,0z"/>
      <path class="fil4" d="M422 203c1,-2 2,0 5,-1 2,-1 1,0 3,2 1,1 1,-3 2,0 0,0 0,2 1,3 1,2 1,12 1,13 -1,1 -1,4 -2,4 0,-1 0,-4 0,-4 1,-1 -1,-2 -1,-3 0,-2 -1,-1 -2,-3 0,0 -3,3 -6,0 -1,-1 -3,-1 -1,-3 1,-1 -1,-3 -1,-3 0,-1 1,-1 2,-3 0,-1 -1,-1 -1,-2z"/>
      <path class="fil4" d="M398 217c0,-1 4,-1 4,-1 0,2 -2,2 -4,2 0,0 -1,-1 0,-1z"/>
     </g>
    </g>
    <path class="fil0 str0" d="M404 185c17,0 30,14 30,30 0,16 -13,30 -30,30 -16,0 -30,-14 -30,-30 0,-16 14,-30 30,-30z"/>
    <g style="clip-path:url(#id10)">
     <polygon class="fil1" points="143,150 372,150 372,379 143,379 "/>
    </g>
    <g style="clip-path:url(#id11)">
     <g>
      <path id="1" class="fil2" d="M150 227c8,-1 11,14 11,19 0,27 -8,13 17,24 14,6 -7,21 34,19 4,0 5,5 17,6 11,1 4,12 1,17 -1,1 -5,19 0,19 11,0 30,6 30,19 0,2 4,24 4,24 13,10 5,4 22,-7 9,-6 9,-19 19,-25 11,-7 -6,-11 4,-19 0,0 8,-16 -12,-8 -14,5 -17,-22 -29,-14 -11,9 -15,-6 -22,-5 -3,0 -32,-15 -32,-21 1,-14 -16,22 -19,-11 -2,-26 15,-2 20,-2 23,0 -2,-20 18,-32 22,-12 0,-26 26,-24 11,1 16,-13 1,-12 -3,0 -10,-17 -21,-4 -5,7 -16,-6 -16,-5 -4,7 -1,36 -17,14 -8,-12 -19,-8 4,-17 6,-3 -1,-13 7,-8 4,3 5,21 24,2 11,-12 -23,-8 -23,-11 0,-10 4,-9 -12,-3 -16,7 6,9 0,18 0,0 -11,4 -10,-5 0,-6 -13,-4 -6,6 5,7 -7,12 -9,4 -11,-4 -31,34 -31,42z"/>
      <path class="fil2" d="M234 155c5,1 10,8 17,5 1,0 0,6 4,11 8,8 6,-1 14,9 0,0 7,5 7,-4 0,-3 -6,-13 2,-12 2,0 1,4 11,-7 2,-2 -2,-3 -13,-5 -10,-2 -33,-3 -42,2 0,0 -1,1 0,1z"/>
      <path class="fil2" d="M289 162c10,-4 2,1 14,0 2,0 4,8 -5,5 -2,0 -10,2 -9,-4l0 -1z"/>
      <path class="fil2" d="M315 181c6,-1 4,7 2,8 -5,2 -6,-9 -2,-8z"/>
      <path class="fil2" d="M318 178c3,1 6,5 6,9 0,3 3,3 5,2 1,-1 6,3 3,-5 -1,-4 -6,-4 -10,-6 0,0 -4,0 -4,0z"/>
      <path class="fil2" d="M326 172c-2,8 3,2 9,8 3,3 3,5 0,9 -3,4 -4,1 -7,3 0,1 8,7 -1,8 -2,0 -1,5 0,6 1,3 -3,7 3,4 5,-3 9,6 8,-8 0,-1 6,-6 8,-2 1,4 -3,6 6,9 3,1 4,4 8,1 1,-1 0,-3 -1,-4 -1,-1 -6,-8 -8,-11 0,-1 -5,-8 -7,-10 -3,-5 -6,-6 -9,-10 -1,-1 -5,-1 -7,-3 -1,0 -2,0 -2,0z"/>
      <path class="fil2" d="M329 219c0,-8 7,1 17,-5 8,-4 3,1 11,9 3,3 3,-11 7,-1 1,2 3,9 5,13 3,7 5,43 2,50 -1,3 -2,16 -5,14 -2,-2 -2,-14 0,-16 4,-2 -4,-7 -4,-12 0,-7 -5,-2 -6,-9 -3,-1 -13,11 -25,0 -4,-5 -10,-4 -4,-12 4,-4 -3,-11 -3,-11 0,-4 5,-6 6,-12 1,-3 -1,-5 -1,-8z"/>
      <path class="fil2" d="M233 272c1,-2 15,-3 15,-3 0,6 -6,6 -12,6 -2,0 -4,-3 -3,-3z"/>
     </g>
    </g>
    <path class="fil0 str0" d="M258 150c63,0 114,52 114,115 0,63 -51,114 -114,114 -63,0 -115,-51 -115,-114 0,-63 52,-115 115,-115z"/>
   </g>
  </g>
 </g>
</svg>
