<?xml version="1.0" encoding="UTF-8"?>
<!DOCTYPE svg PUBLIC "-//W3C//DTD SVG 1.1//EN" "http://www.w3.org/Graphics/SVG/1.1/DTD/svg11.dtd">
<!-- Creator: CorelDRAW X8 -->
<svg xmlns="http://www.w3.org/2000/svg" xml:space="preserve" width="512px" height="512px" version="1.1" style="shape-rendering:geometricPrecision; text-rendering:geometricPrecision; image-rendering:optimizeQuality; fill-rule:evenodd; clip-rule:evenodd"
viewBox="0 0 512 512"
 xmlns:xlink="http://www.w3.org/1999/xlink">
 <defs>
  <style type="text/css">
   <![CDATA[
    .fil0 {fill:none}
    .fil1 {fill:#FEFEFE}
   ]]>
  </style>
 </defs>
 <g id="Layer_x0020_1">
  <metadata id="CorelCorpID_0Corel-Layer"/>
  <rect class="fil0" width="512" height="512"/>
  <path class="fil1" d="M295 327c6,-3 18,-12 25,-17l49 -33c9,-6 16,-11 24,-17l98 -66 -24 -17c-9,-6 -16,-11 -25,-17l-98 -67c-5,-3 -47,-32 -49,-32l0 59c-42,0 -83,10 -116,25 -44,20 -73,45 -99,78 -48,60 -67,151 -57,228 3,-4 5,-18 6,-23 10,-35 28,-70 51,-97 11,-12 18,-19 30,-28 44,-36 105,-48 162,-39 3,1 22,4 23,7l0 56z"/>
 </g>
</svg>
