<?xml version="1.0" encoding="UTF-8"?>
<!DOCTYPE svg PUBLIC "-//W3C//DTD SVG 1.1//EN" "http://www.w3.org/Graphics/SVG/1.1/DTD/svg11.dtd">
<!-- Creator: CorelDRAW X8 -->
<svg xmlns="http://www.w3.org/2000/svg" xml:space="preserve" width="512px" height="512px" version="1.1" style="shape-rendering:geometricPrecision; text-rendering:geometricPrecision; image-rendering:optimizeQuality; fill-rule:evenodd; clip-rule:evenodd"
viewBox="0 0 512 512"
 xmlns:xlink="http://www.w3.org/1999/xlink">
 <defs>
  <style type="text/css">
   <![CDATA[
    .str0 {stroke:#2B2E34;stroke-width:1.38858}
    .str1 {stroke:#47494F;stroke-width:1.38858}
    .str2 {stroke:#9A9B9F;stroke-width:0.3}
    .fil0 {fill:none}
    .fil5 {fill:#2B2E34}
    .fil2 {fill:#47494F}
    .fil4 {fill:#9A9B9F}
    .fil6 {fill:white}
    .fil3 {fill:#47494F;fill-opacity:0.211765}
    .fil1 {fill:white}
   ]]>
  </style>
    <clipPath id="id0">
     <path d="M255 136c66,0 120,54 120,120 0,66 -54,120 -120,120 -66,0 -120,-54 -120,-120 0,-66 54,-120 120,-120z"/>
    </clipPath>
    <clipPath id="id1">
     <path d="M255 136c66,0 120,54 120,120 0,66 -54,120 -120,120 -66,0 -120,-54 -120,-120 0,-66 54,-120 120,-120z"/>
    </clipPath>
 </defs>
 <g id="Layer_x0020_1">
  <metadata id="CorelCorpID_0Corel-Layer"/>
  <rect class="fil0" width="512" height="512"/>
  <g id="_2077737362608">
   <path class="fil1" d="M256 15c133,0 241,108 241,241 0,133 -108,241 -241,241 -133,0 -241,-108 -241,-241 0,-133 108,-241 241,-241z"/>
   <line class="fil0 str0" x1="70" y1="151" x2="255" y2= "46" />
   <line class="fil0 str1" x1="70" y1="358" x2="256" y2= "466" />
   <line class="fil0 str1" x1="442" y1="150" x2="255" y2= "46" />
   <polyline class="fil0 str1" points="442,150 442,358 256,466 "/>
   <line class="fil0 str1" x1="70" y1="152" x2="70" y2= "358" />
   <line class="fil0 str1" x1="71" y1="357" x2="256" y2= "250" />
   <line class="fil0 str1" x1="255" y1="46" x2="256" y2= "250" />
   <line class="fil0 str1" x1="256" y1="250" x2="441" y2= "358" />
   <path class="fil2" d="M62 155c1,5 10,8 15,3 4,-4 3,-11 -1,-14 -1,-1 -1,-1 -2,-1 -4,-2 -8,-1 -10,2 -1,1 -2,2 -3,4 0,2 0,5 1,6z"/>
   <path class="fil2" d="M62 361c1,5 10,8 15,3 4,-4 3,-11 -1,-14 -1,0 -1,-1 -2,-1 -4,-1 -8,0 -10,2 -1,1 -2,2 -3,4 0,2 0,5 1,6z"/>
   <path class="fil2" d="M248 469c1,5 9,8 14,3 4,-4 4,-10 -1,-14 0,0 -1,0 -2,-1 -3,-1 -7,0 -9,2 -2,1 -2,2 -3,4 -1,2 0,5 1,6z"/>
   <path class="fil2" d="M433 361c2,5 10,8 15,3 4,-4 4,-11 -1,-14 -1,0 -1,-1 -2,-1 -4,-1 -7,0 -10,2 -1,1 -2,2 -2,4 -1,2 -1,5 0,6z"/>
   <path class="fil2" d="M433 154c2,4 10,8 15,3 4,-4 4,-11 -1,-14 -1,-1 -1,-1 -2,-1 -4,-2 -7,-1 -10,2 -1,1 -2,2 -2,4 -1,1 -1,4 0,6z"/>
   <path class="fil2" d="M246 50c2,5 10,8 15,3 4,-4 4,-11 -1,-14 0,-1 -1,-1 -2,-1 -4,-2 -7,-1 -10,2 -1,1 -2,2 -2,4 -1,2 0,5 0,6z"/>
   <path class="fil3" d="M254 312c66,0 119,21 119,48 0,26 -53,47 -119,47 -66,0 -119,-21 -119,-47 0,-27 53,-48 119,-48z"/>
   <g style="clip-path:url(#id0)">
    <polygon class="fil1" points="135,136 375,136 375,376 135,376 "/>
   </g>
   <g style="clip-path:url(#id1)">
    <g>
     <path id="1" class="fil4" d="M142 217c8,-2 12,14 12,20 0,27 -8,13 18,24 14,6 -8,22 35,20 4,0 5,6 18,7 11,1 4,13 0,17 -1,2 -5,21 1,21 12,0 31,5 31,19 0,2 4,25 4,25 14,11 6,5 23,-7 9,-6 10,-20 21,-27 11,-7 -7,-11 4,-20 0,0 8,-16 -13,-8 -14,6 -18,-23 -30,-14 -12,9 -16,-6 -23,-6 -3,0 -34,-15 -34,-22 1,-15 -17,23 -20,-11 -2,-27 16,-2 21,-2 24,0 -2,-21 19,-33 23,-13 0,-28 27,-26 12,1 17,-13 1,-12 -3,0 -10,-18 -22,-4 -5,7 -16,-6 -17,-5 -3,7 -1,37 -17,14 -9,-12 -21,-9 4,-18 6,-2 -1,-13 7,-8 5,3 5,21 25,2 12,-12 -23,-9 -23,-12 -1,-10 4,-9 -13,-3 -17,7 6,9 0,19 0,0 -12,5 -11,-5 1,-6 -13,-4 -6,7 5,6 -7,12 -9,3 -12,-4 -33,36 -33,45z"/>
     <path class="fil4" d="M230 141c5,1 11,9 18,5 1,0 -1,6 4,11 8,10 6,0 14,10 1,0 8,5 8,-4 0,-4 -6,-13 2,-13 2,1 2,4 11,-6 3,-4 -1,-5 -13,-7 -11,-2 -35,-2 -44,3 0,0 -1,1 0,1z"/>
     <path class="fil4" d="M288 148c10,-4 2,1 14,0 2,0 4,9 -6,6 -2,-1 -10,2 -9,-5l1 -1z"/>
     <path class="fil4" d="M315 169c6,-2 4,6 2,7 -6,3 -6,-9 -2,-7z"/>
     <path class="fil4" d="M318 165c3,1 6,6 6,9 0,3 3,4 5,2 1,0 7,4 4,-4 -2,-5 -6,-4 -11,-7 0,0 -4,0 -4,0z"/>
     <path class="fil4" d="M327 159c-2,8 3,2 8,8 4,4 3,6 1,9 -4,5 -4,2 -8,3 0,2 9,8 0,9 -3,0 -2,5 -1,6 1,4 -2,8 4,4 5,-2 9,7 8,-7 0,-2 6,-7 8,-2 2,3 -2,5 6,8 4,1 5,5 9,2 0,-1 0,-4 -1,-5 -2,-1 -6,-8 -8,-11 -1,-1 -6,-9 -7,-11 -4,-5 -7,-6 -10,-10 -1,-1 -5,-1 -8,-3 0,0 -1,-1 -1,0z"/>
     <path class="fil4" d="M329 208c0,-8 8,1 19,-5 7,-4 2,0 11,9 3,4 3,-11 7,-1 1,2 3,10 5,14 3,7 5,45 3,52 -1,3 -3,17 -6,14 -2,-1 -2,-14 0,-16 4,-3 -4,-7 -4,-12 0,-7 -5,-3 -7,-9 -3,-2 -13,10 -25,-1 -5,-5 -11,-5 -4,-12 4,-4 -3,-12 -3,-13 0,-3 4,-5 5,-12 1,-3 -1,-5 -1,-8z"/>
     <path class="fil4" d="M228 263c2,-2 17,-3 17,-3 0,7 -7,6 -13,6 -2,0 -4,-2 -4,-3z"/>
    </g>
   </g>
   <path class="fil0 str2" d="M255 136c66,0 120,54 120,120 0,66 -54,120 -120,120 -66,0 -120,-54 -120,-120 0,-66 54,-120 120,-120z"/>
   <path class="fil5" d="M378 248c2,2 3,3 4,5 1,2 3,6 3,9 1,3 1,5 1,8 0,2 -1,4 -3,7 -2,2 -5,5 -10,8 -5,3 -11,5 -20,8 -9,2 -20,4 -34,6 -14,2 -31,3 -68,4 -38,2 -81,3 -140,4l-11 -36c15,0 15,0 32,1 17,0 36,1 53,1 18,0 34,0 48,0 15,0 29,-1 42,-1 13,-1 25,-1 35,-2 10,-1 18,-2 23,-2 5,-1 8,-1 13,-2 4,-1 10,-2 15,-3 5,-2 10,-4 12,-5 3,-2 4,-3 5,-4 0,-1 0,-2 -1,-3 -1,-1 -2,-2 -3,-3l4 0z"/>
   <path class="fil6" d="M185 305l3 0 -4 -23c-1,-2 -2,-2 -4,-1 0,1 4,22 5,24z"/>
   <path class="fil6" d="M263 302l1 1 3 -1c-2,-3 -2,-21 -4,-24l-3 0c0,2 3,20 3,24z"/>
   <path class="fil6" d="M334 296c0,-4 -2,-19 -4,-21 -4,0 -3,2 -2,4 1,6 1,12 2,17l4 0z"/>
   <path class="fil6" d="M383 277c1,-2 2,-6 2,-7 -1,-2 -2,-7 -3,-9 -1,0 -2,0 -3,0l4 16z"/>
   <path class="fil6" d="M132 306l2 0c-1,-4 -3,-14 -4,-17 -3,1 -2,0 -1,4 1,3 2,10 3,13z"/>
   <path class="fil6" d="M119 306l1 0c1,-1 -1,-7 -2,-8 0,-2 -1,-8 -2,-9 -2,1 -2,1 -1,4 1,1 1,3 1,4 1,3 2,6 3,9z"/>
   <path class="fil6" d="M146 306l1 -1c1,0 -1,-6 -2,-7 0,-2 0,-8 -2,-8 -2,0 -1,2 0,3 0,1 0,3 1,4 0,2 1,7 2,9z"/>
   <path class="fil6" d="M159 305l2 0c-1,-2 -3,-15 -4,-15 -2,0 -1,0 -1,3 1,2 1,3 1,4 1,3 1,6 2,8z"/>
   <path class="fil6" d="M172 305l2 0c1,0 -1,-7 -1,-8 -1,-1 -1,-2 -1,-4 0,-1 0,-3 -2,-3 -1,0 -1,0 0,1l2 14z"/>
   <path class="fil6" d="M227 304c0,0 1,1 0,-1 0,-1 0,-1 0,-2 0,-2 -1,-3 -1,-4l-1 -6c0,-1 0,-2 -1,-2 -2,1 0,6 0,8 1,1 1,2 1,4l1 3c0,0 -1,0 1,0z"/>
   <path class="fil6" d="M212 305l2 0c1,-1 0,-1 0,-2l-2 -10c0,-1 0,-3 -1,-4 -2,1 -1,1 -1,4l2 12z"/>
   <path class="fil6" d="M199 305l2 0c0,-3 -1,-5 -1,-8 -1,-1 -1,-2 -1,-4 0,0 0,-1 0,-1l-1 -2c0,-1 -1,-1 -1,1l1 6c0,2 0,6 1,8z"/>
   <path class="fil6" d="M239 304c0,0 1,0 2,0 -1,-2 -2,-9 -2,-12 0,-1 0,-3 -1,-4 -2,1 -2,1 -1,2l2 14z"/>
   <path class="fil6" d="M252 303c1,1 1,0 2,0 -1,-1 -2,-10 -2,-13 0,-1 0,-2 -2,-2 -1,1 0,2 0,4l2 11z"/>
   <path class="fil6" d="M288 301l0 0 1 0c0,-2 0,-5 -1,-7 0,-2 0,-7 -2,-7 -1,0 0,5 0,6 1,3 1,5 2,8z"/>
   <path class="fil6" d="M276 302l1 0 1 0c-1,-3 -1,-14 -3,-15 -2,1 0,5 0,7 1,2 1,5 1,8z"/>
   <path class="fil6" d="M298 286c-2,1 -2,1 -1,3l1 9c1,2 1,2 1,2 2,0 1,-2 1,-3 0,-1 0,-2 -1,-4 0,-1 0,-6 -1,-7z"/>
   <path class="fil0" d="M311 298c0,-1 0,-2 0,-2 0,-1 0,-2 0,-4 -1,-1 -1,-2 -1,-3 0,-1 0,-3 -1,-3 -2,0 -1,2 -1,3l1 6c0,1 0,1 0,2 1,2 1,2 1,2"/>
   <path class="fil6" d="M323 297l-2 -11c-1,-1 1,2 -1,0 0,0 0,0 0,-1 -2,1 -1,4 0,6 0,2 0,4 1,7l2 -1z"/>
   <path class="fil6" d="M343 294l1 0c0,-2 -1,-10 -2,-11 -2,0 -1,0 -1,1l2 10z"/>
   <path class="fil6" d="M362 289l2 -1c-1,-2 -1,-9 -3,-10 -2,0 -1,2 0,5 0,1 0,5 1,6z"/>
   <path class="fil6" d="M353 292l2 -1c-1,-2 -1,-4 -1,-5l-1 -4c-1,-2 -1,-1 -2,-1 -1,1 2,8 2,11z"/>
   <path class="fil6" d="M370 285c2,0 2,0 2,-1l-2 -8c-1,-1 0,0 -1,-1 -1,1 -1,1 0,2l1 8z"/>
   <path class="fil6" d="M378 280l1 -1c-1,-1 -2,-6 -2,-7 -3,1 -2,1 -1,4l1 3c0,0 0,1 0,1 0,0 0,0 1,0z"/>
   <path class="fil6" d="M334 296l-4 0c-1,-5 -1,-11 -2,-17 -1,-2 -2,-4 2,-4 2,2 4,17 4,21z"/>
   <path class="fil6" d="M227 304c-2,0 -1,0 -1,0l-1 -3c0,-2 0,-3 -1,-4 0,-2 -2,-7 0,-8 1,0 1,1 1,2l1 6c0,1 1,2 1,4 0,1 0,1 0,2 1,2 0,1 0,1z"/>
   <path class="fil6" d="M298 286c1,1 1,6 1,7 1,2 1,3 1,4 0,3 1,4 -1,4 0,0 0,0 -1,-3l-1 -9c-1,-2 -1,-2 1,-3z"/>
   <path class="fil6" d="M309 297c0,-1 0,-1 0,-2l-1 -6c0,-1 -1,-3 1,-3 1,0 1,2 1,3 0,1 0,2 1,3 0,2 0,3 0,4 0,0 0,1 0,2 1,3 -1,2 -2,-1z"/>
   <path class="fil6" d="M254 303c-1,0 -1,1 -2,0l-2 -11c0,-2 -1,-3 0,-4 2,0 2,1 2,2 0,3 1,12 2,13z"/>
   <path class="fil6" d="M267 303l-3 0 -1 -1c0,-4 -3,-22 -3,-24l3 0c1,4 3,21 4,25z"/>
   <path class="fil6" d="M278 302l-2 0c0,-2 0,-6 -1,-8 0,-2 -2,-6 0,-7 2,1 3,12 3,15l0 0z"/>
   <path class="fil6" d="M289 301l-1 1c-1,-3 -1,-6 -2,-9 0,-1 -1,-6 0,-6 2,0 2,5 2,7 1,2 1,5 1,7z"/>
   <path class="fil6" d="M323 297l-2 1c-1,-3 -1,-5 -1,-7 -1,-2 -2,-5 0,-6 0,1 0,1 0,1 2,2 0,-1 1,0l2 11z"/>
  </g>
 </g>
</svg>
