<?xml version="1.0" encoding="UTF-8"?>
<!DOCTYPE svg PUBLIC "-//W3C//DTD SVG 1.1//EN" "http://www.w3.org/Graphics/SVG/1.1/DTD/svg11.dtd">
<!-- Creator: CorelDRAW X8 -->
<svg xmlns="http://www.w3.org/2000/svg" xml:space="preserve" width="512px" height="512px" version="1.1" style="shape-rendering:geometricPrecision; text-rendering:geometricPrecision; image-rendering:optimizeQuality; fill-rule:evenodd; clip-rule:evenodd"
viewBox="0 0 512 512"
 xmlns:xlink="http://www.w3.org/1999/xlink">
 <defs>
  <style type="text/css">
   <![CDATA[
    .str0 {stroke:#BABABD;stroke-width:0.3}
    .fil0 {fill:none}
    .fil2 {fill:#9A9B9F}
    .fil1 {fill:white}
   ]]>
  </style>
   <clipPath id="id0">
    <path d="M256 24c128,0 232,104 232,232 0,128 -104,232 -232,232 -128,0 -232,-104 -232,-232 0,-128 104,-232 232,-232z"/>
   </clipPath>
   <clipPath id="id1">
    <path d="M256 24c128,0 232,104 232,232 0,128 -104,232 -232,232 -128,0 -232,-104 -232,-232 0,-128 104,-232 232,-232z"/>
   </clipPath>
 </defs>
 <g id="Layer_x0020_1">
  <metadata id="CorelCorpID_0Corel-Layer"/>
  <rect class="fil0" width="512" height="512"/>
  <g style="clip-path:url(#id0)">
   <polygon class="fil1" points="24,24 488,24 488,488 24,488 "/>
  </g>
  <g style="clip-path:url(#id1)">
   <g id="_1835745316160">
    <path id="1" class="fil2" d="M37 180c16,-3 23,28 23,38 0,54 -16,27 35,48 28,12 -16,42 68,39 8,-1 9,10 34,12 22,2 9,25 1,35 -1,2 -9,39 1,39 23,0 60,11 60,38 0,4 9,48 9,48 26,21 11,9 44,-13 18,-12 19,-40 40,-52 22,-14 -13,-23 8,-39 0,0 16,-32 -24,-16 -29,11 -36,-44 -59,-27 -23,17 -30,-12 -45,-12 -6,0 -66,-29 -65,-42 2,-29 -33,44 -38,-22 -5,-52 29,-5 40,-5 46,0 -4,-40 37,-63 45,-25 -1,-54 52,-50 23,2 33,-25 2,-24 -5,0 -20,-35 -43,-7 -10,13 -32,-12 -32,-11 -7,14 -2,73 -35,28 -16,-23 -39,-16 9,-34 13,-5 -2,-25 13,-16 10,6 11,42 50,3 23,-23 -46,-16 -46,-21 -1,-20 8,-19 -24,-6 -34,13 10,17 -1,36 -1,0 -22,9 -21,-10 1,-12 -26,-7 -11,13 9,13 -15,24 -19,7 -22,-8 -63,69 -63,86z"/>
    <path class="fil2" d="M207 34c10,1 21,17 36,10 1,-1 -2,11 7,21 16,18 12,-1 28,19 0,0 15,10 15,-8 0,-7 -13,-26 4,-24 3,0 3,7 21,-14 6,-6 -3,-7 -25,-11 -21,-4 -68,-6 -86,5 0,0 -1,2 0,2z"/>
    <path class="fil2" d="M320 48c20,-9 3,1 27,0 3,0 8,16 -11,10 -4,-1 -19,4 -17,-9l1 -1z"/>
    <path class="fil2" d="M372 87c12,-3 7,13 4,14 -11,5 -13,-18 -4,-14z"/>
    <path class="fil2" d="M377 80c6,3 13,11 13,18 0,6 5,7 10,4 1,-2 13,7 7,-9 -4,-10 -12,-8 -22,-13 0,0 -7,-1 -8,0z"/>
    <path class="fil2" d="M394 67c-3,17 6,6 17,17 7,7 6,11 1,18 -7,9 -7,3 -14,5 0,3 17,16 -1,17 -6,0 -3,10 -2,13 3,6 -5,14 8,7 9,-5 17,13 16,-15 -1,-3 11,-12 15,-3 3,7 -5,10 12,16 6,2 9,9 16,3 2,-2 1,-6 -2,-9 -2,-2 -11,-16 -15,-21 -1,-2 -10,-17 -14,-22 -7,-9 -13,-12 -19,-19 -2,-3 -9,-2 -15,-6 0,0 -3,-1 -3,-1z"/>
    <path class="fil2" d="M399 164c1,-17 15,1 36,-11 15,-8 5,1 21,18 7,7 6,-22 15,-2 2,4 5,19 9,27 7,13 11,87 5,101 -2,5 -4,32 -10,27 -4,-3 -4,-28 0,-31 8,-5 -8,-15 -8,-24 0,-14 -10,-5 -13,-18 -6,-2 -26,21 -49,-1 -9,-9 -22,-9 -8,-24 7,-8 -7,-22 -7,-23 0,-7 9,-11 12,-24 1,-6 -3,-11 -3,-15z"/>
    <path class="fil2" d="M204 270c4,-3 32,-5 32,-5 0,12 -13,11 -25,11 -3,0 -8,-5 -7,-6z"/>
   </g>
  </g>
  <path class="fil0 str0" d="M256 24c128,0 232,104 232,232 0,128 -104,232 -232,232 -128,0 -232,-104 -232,-232 0,-128 104,-232 232,-232z"/>
 </g>
</svg>
