<?xml version="1.0" encoding="UTF-8"?>
<!DOCTYPE svg PUBLIC "-//W3C//DTD SVG 1.1//EN" "http://www.w3.org/Graphics/SVG/1.1/DTD/svg11.dtd">
<!-- Creator: CorelDRAW X8 -->
<svg xmlns="http://www.w3.org/2000/svg" xml:space="preserve" width="512px" height="512px" version="1.1" style="shape-rendering:geometricPrecision; text-rendering:geometricPrecision; image-rendering:optimizeQuality; fill-rule:evenodd; clip-rule:evenodd"
viewBox="0 0 512 512"
 xmlns:xlink="http://www.w3.org/1999/xlink">
 <defs>
  <style type="text/css">
   <![CDATA[
    .str0 {stroke:#BABABD;stroke-width:0.3}
    .fil0 {fill:none}
    .fil3 {fill:#2B2E34}
    .fil4 {fill:#47494F}
    .fil6 {fill:#6F7175}
    .fil2 {fill:#9A9B9F}
    .fil5 {fill:white;fill-rule:nonzero}
    .fil1 {fill:white}
   ]]>
  </style>
     <clipPath id="id0">
      <path d="M256 43c93,0 168,75 168,168 0,93 -75,168 -168,168 -93,0 -168,-75 -168,-168 0,-93 75,-168 168,-168z"/>
     </clipPath>
     <clipPath id="id1">
      <path d="M256 43c93,0 168,75 168,168 0,93 -75,168 -168,168 -93,0 -168,-75 -168,-168 0,-93 75,-168 168,-168z"/>
     </clipPath>
 </defs>
 <g id="Layer_x0020_1">
  <metadata id="CorelCorpID_0Corel-Layer"/>
  <rect class="fil0" width="512" height="512"/>
  <g id="_1835927951280">
   <path class="fil1" d="M256 20c130,0 236,106 236,236 0,130 -106,236 -236,236 -130,0 -236,-106 -236,-236 0,-130 106,-236 236,-236z"/>
   <g>
    <g>
     <path class="fil0" d="M110 407c0,21 65,37 146,37 81,0 146,-16 146,-37l0 26c0,21 -65,36 -146,36 -81,0 -146,-17 -146,-37l0 -25z"/>
     <g>
      <g>
       <ellipse class="fil2" cx="256" cy="408" rx="146" ry="37"/>
       <path class="fil3" d="M353 435l1 0c30,-6 48,-16 48,-27l0 26c0,11 -19,20 -49,27l0 0 0 -26z"/>
       <path class="fil4" d="M290 444l0 0c24,-2 46,-5 63,-9l0 26c-17,3 -39,6 -63,7l0 0 0 -24z"/>
       <path class="fil3" d="M226 444l1 0c9,0 19,1 29,1 12,0 23,-1 34,-1l0 24c-11,1 -22,1 -34,1 -10,0 -20,0 -30,0l0 0 0 -25z"/>
       <path class="fil4" d="M164 436l0 1c18,3 39,6 62,7l0 25c-23,-2 -44,-4 -62,-8l0 0 0 -25z"/>
       <path class="fil3" d="M110 408c0,11 21,22 54,28l0 25c-33,-7 -54,-17 -54,-29l0 -24z"/>
      </g>
      <g>
       <path class="fil5" d="M136 446c-1,0 -2,1 -3,1 -2,0 -3,-1 -4,-2 -1,-2 -2,-3 -2,-6 0,-2 1,-4 2,-5 1,-2 2,-2 4,-2 2,0 3,0 3,0l0 3c0,0 -1,-1 -2,-1 -2,0 -2,1 -3,2 -1,1 -1,2 -1,3 0,2 0,3 1,3 0,1 1,2 2,2 1,0 2,-1 3,-1l0 3z"/>
       <path class="fil5" d="M191 459l0 -3c0,0 1,1 2,1 0,0 1,0 1,0 1,0 1,0 1,0 0,0 1,0 1,0 0,0 0,0 0,0 0,-1 0,-1 0,-1 0,0 0,-1 0,-1 0,0 0,0 0,0 -1,-1 -1,-1 -1,-1 -1,0 -1,0 -1,0 -1,-1 -2,-2 -2,-2 -1,-1 -1,-2 -1,-3 0,0 0,-1 0,-2 1,0 1,-1 1,-1 1,0 1,0 2,-1 0,0 1,0 2,0 0,0 1,0 1,0 1,0 1,0 2,1l0 3c-1,-1 -1,-1 -1,-1 0,0 -1,0 -1,0 0,0 0,0 -1,0 0,0 0,0 0,0 -1,0 -1,0 -1,0 0,0 -1,0 -1,0 0,0 0,0 0,1 0,0 0,0 0,0 0,0 0,1 0,1 0,0 0,0 0,0 1,0 1,1 1,1 0,0 1,0 1,0 1,1 1,1 1,1 1,0 1,1 1,1 1,0 1,1 1,1 0,1 0,1 0,2 0,0 0,1 0,2 0,0 -1,1 -1,1 -1,0 -1,1 -2,1 0,0 -1,0 -2,0 0,0 -1,0 -1,0 -1,0 -2,-1 -2,-1z"/>
       <polygon class="fil5" points="262,452 257,452 257,456 261,456 261,458 257,458 257,464 255,464 255,449 262,449 "/>
       <path class="fil5" d="M318 459l0 -14 4 0c5,0 7,2 7,7 0,2 -1,4 -2,5 -1,1 -3,2 -5,2l-4 0zm3 -12l0 9 1 0c1,0 2,0 3,-1 1,-1 1,-2 1,-3 0,-2 0,-3 -1,-3 -1,-1 -2,-2 -3,-2l-1 0z"/>
       <polygon class="fil5" points="383,447 380,447 380,433 383,433 "/>
      </g>
     </g>
     <path class="fil0" d="M110 374c0,21 65,37 146,37 81,0 146,-16 146,-37l0 26c0,21 -65,36 -146,36 -81,0 -146,-17 -146,-37l0 -25z"/>
     <ellipse class="fil6" cx="256" cy="402" rx="146" ry="37"/>
     <ellipse class="fil2" cx="256" cy="375" rx="146" ry="37"/>
     <path class="fil4" d="M353 402l1 0c30,-6 48,-16 48,-27l0 26c0,11 -19,20 -49,26l0 1 0 -26z"/>
     <path class="fil3" d="M290 411l0 0c24,-2 46,-5 63,-9l0 26c-17,3 -39,6 -63,7l0 0 0 -24z"/>
     <path class="fil4" d="M226 411l1 0c9,0 19,1 29,1 12,0 23,-1 34,-1l0 24c-11,1 -22,1 -34,1 -10,0 -20,0 -30,0l0 0 0 -25z"/>
     <path class="fil3" d="M164 403l0 1c18,3 39,6 62,7l0 25c-23,-2 -44,-4 -62,-8l0 0 0 -25z"/>
     <path class="fil4" d="M110 375c0,11 21,22 54,28l0 25c-33,-7 -54,-17 -54,-29l0 -24z"/>
     <path class="fil0" d="M110 341c0,21 65,37 146,37 81,0 146,-16 146,-37l0 26c0,21 -65,36 -146,36 -81,0 -146,-17 -146,-37l0 -25z"/>
     <ellipse class="fil6" cx="256" cy="369" rx="146" ry="37"/>
     <ellipse class="fil2" cx="256" cy="342" rx="146" ry="37"/>
     <path class="fil3" d="M353 369l1 0c30,-6 48,-16 48,-27l0 26c0,11 -19,20 -49,26l0 0 0 -25z"/>
     <path class="fil4" d="M290 378l0 0c24,-2 46,-5 63,-9l0 25c-17,4 -39,7 -63,8l0 0 0 -24z"/>
     <path class="fil3" d="M226 378l1 0c9,0 19,1 29,1 12,0 23,-1 34,-1l0 24c-11,1 -22,1 -34,1 -10,0 -20,0 -30,0l0 -1 0 -24z"/>
     <path class="fil4" d="M164 370l0 0c18,4 39,7 62,8l0 24c-23,-1 -44,-3 -62,-7l0 0 0 -25z"/>
     <path class="fil3" d="M110 342c0,11 21,22 54,28l0 25c-33,-7 -54,-17 -54,-29l0 -24z"/>
     <path class="fil0" d="M110 308c0,21 65,37 146,37 81,0 146,-16 146,-37l0 26c0,21 -65,36 -146,36 -81,0 -146,-17 -146,-37l0 -25z"/>
    </g>
    <g style="clip-path:url(#id0)">
     <polygon class="fil1" points="88,43 424,43 424,379 88,379 "/>
    </g>
    <g style="clip-path:url(#id1)">
     <g>
      <path id="1" class="fil2" d="M98 155c11,-2 16,21 16,28 0,39 -12,20 25,35 21,9 -11,31 50,28 6,0 6,8 24,9 16,1 6,18 1,25 -1,2 -7,28 1,28 17,0 43,8 43,28 0,3 6,35 7,35 19,15 8,6 32,-10 13,-9 14,-28 29,-38 15,-9 -10,-16 5,-28 0,0 12,-23 -17,-11 -21,8 -26,-32 -43,-20 -17,13 -22,-9 -32,-8 -5,0 -48,-21 -47,-31 1,-21 -25,32 -28,-16 -3,-38 21,-3 29,-3 33,0 -3,-29 27,-46 32,-18 -1,-39 38,-36 16,1 24,-19 1,-18 -4,0 -15,-25 -31,-5 -8,10 -23,-9 -24,-7 -5,10 -1,52 -24,20 -13,-17 -29,-12 6,-25 9,-4 -2,-18 9,-12 7,5 8,31 36,3 17,-17 -33,-12 -33,-16 -1,-14 6,-13 -18,-4 -24,9 8,13 0,26 0,0 -16,7 -15,-7 1,-9 -19,-5 -8,9 7,10 -11,18 -14,5 -16,-6 -45,50 -45,62z"/>
      <path class="fil2" d="M220 50c8,0 16,12 26,7 1,0 -1,8 6,15 12,13 9,0 20,14 0,0 11,7 11,-6 0,-5 -9,-18 3,-17 2,0 2,5 15,-10 4,-4 -2,-6 -18,-9 -15,-2 -49,-4 -62,4 0,0 -1,2 -1,2z"/>
      <path class="fil2" d="M302 60c15,-6 2,1 20,0 2,0 5,12 -8,7 -3,0 -14,3 -13,-6l1 -1z"/>
      <path class="fil2" d="M340 88c8,-2 5,10 3,11 -8,3 -9,-13 -3,-11z"/>
      <path class="fil2" d="M344 83c4,2 9,8 9,13 0,5 4,5 7,3 1,-1 10,5 5,-6 -2,-8 -9,-6 -16,-10 0,0 -5,0 -5,0z"/>
      <path class="fil2" d="M356 74c-3,12 5,4 12,12 5,5 5,8 1,13 -5,6 -5,3 -11,4 0,2 13,11 0,12 -4,0 -2,7 -1,9 2,5 -4,11 5,6 7,-4 13,9 12,-11 0,-3 8,-9 11,-3 2,6 -4,8 9,12 4,2 6,7 11,2 2,-1 1,-4 -1,-6 -2,-1 -8,-12 -11,-15 -1,-2 -8,-13 -10,-16 -5,-7 -9,-9 -14,-14 -1,-2 -7,-1 -11,-5 0,0 -2,0 -2,0z"/>
      <path class="fil2" d="M360 144c0,-12 10,1 26,-8 10,-6 3,1 15,13 5,5 4,-16 11,-1 1,3 3,13 6,19 5,10 8,63 4,74 -1,3 -3,23 -8,19 -2,-2 -2,-20 1,-23 5,-3 -6,-10 -6,-17 0,-10 -7,-4 -10,-13 -4,-1 -19,16 -35,-1 -7,-7 -16,-6 -6,-17 5,-6 -5,-16 -5,-17 0,-5 7,-8 9,-17 1,-4 -2,-8 -2,-11z"/>
      <path class="fil2" d="M219 221c2,-3 23,-4 23,-4 0,9 -10,8 -19,8 -2,0 -6,-3 -4,-4z"/>
     </g>
    </g>
    <path class="fil0 str0" d="M256 43c93,0 168,75 168,168 0,93 -75,168 -168,168 -93,0 -168,-75 -168,-168 0,-93 75,-168 168,-168z"/>
   </g>
  </g>
 </g>
</svg>
