<?xml version="1.0" encoding="UTF-8"?>
<!DOCTYPE svg PUBLIC "-//W3C//DTD SVG 1.1//EN" "http://www.w3.org/Graphics/SVG/1.1/DTD/svg11.dtd">
<!-- Creator: CorelDRAW X8 -->
<svg xmlns="http://www.w3.org/2000/svg" xml:space="preserve" width="512px" height="512px" version="1.1" style="shape-rendering:geometricPrecision; text-rendering:geometricPrecision; image-rendering:optimizeQuality; fill-rule:evenodd; clip-rule:evenodd"
viewBox="0 0 512 512"
 xmlns:xlink="http://www.w3.org/1999/xlink">
 <defs>
  <style type="text/css">
   <![CDATA[
    .fil0 {fill:none}
    .fil1 {fill:black}
   ]]>
  </style>
 </defs>
 <g id="Layer_x0020_1">
  <metadata id="CorelCorpID_0Corel-Layer"/>
  <rect class="fil0" width="512" height="512"/>
  <path class="fil1" d="M284 398c6,0 2,0 4,-1 -6,0 -3,0 -4,1zm74 -181l-112 0 0 -76c7,0 7,-1 13,-2 18,-1 15,1 39,-3 9,-1 38,-6 46,-9 8,34 10,39 12,77 1,6 2,6 2,13zm-77 108c-4,3 -32,15 -35,15 0,-21 -2,-17 9,-17 4,0 9,0 14,0 5,1 6,2 12,2zm-125 74c-30,-7 -30,1 -57,-27 -4,-4 -12,-9 -13,-14 5,-2 12,-8 18,-10 6,-3 15,-7 21,-8 3,4 5,10 7,15 12,28 14,26 24,44zm-31 -290c-13,-7 -18,-5 -39,-19 13,-20 64,-56 84,-57 -3,4 -13,13 -20,25 -2,3 -4,6 -6,9 -10,18 -12,28 -19,42zm268 -19c-6,3 -12,7 -19,10 -7,3 -14,7 -22,9 -4,-17 -19,-45 -29,-59 -5,-7 -10,-11 -14,-17 19,1 72,39 84,57zm-161 236c0,32 1,17 -13,29 -4,5 -7,8 -9,14 -6,15 -2,26 4,37 -10,0 -33,1 -39,-6l-12 -16c-7,-11 -20,-35 -24,-49 10,-1 40,-10 70,-12 5,0 10,0 14,0 6,0 9,-2 9,3zm188 -5c-4,-3 -7,-6 -11,-8 -12,-8 -29,-16 -44,-16 0,-6 2,-12 2,-16 3,-15 4,-32 4,-49l73 0c0,7 -2,18 -3,25 -4,23 -11,43 -21,64zm-188 -196c-25,0 -76,-4 -93,-12 3,-5 5,-11 7,-17 7,-16 14,-29 26,-43 7,-10 14,-16 23,-23 12,-10 21,-10 37,-10l0 105zm-112 201c-9,4 -19,6 -34,15 -4,2 -6,4 -10,6 -5,-7 -10,-14 -15,-23 -15,-27 -26,-60 -26,-92l71 0c2,25 4,47 9,71l5 23zm324 -109l-73 0c0,-18 -1,-34 -4,-49 -1,-7 -2,-15 -4,-23 -2,-9 -4,-15 -5,-22 7,-4 15,-6 23,-10 4,-2 7,-3 11,-6 4,-2 6,-5 11,-6 10,18 18,25 27,50 7,19 14,46 14,66zm-324 -96l-9 46c-2,15 -3,33 -5,50l-71 0c0,-24 6,-48 13,-65 12,-29 13,-28 28,-51 3,1 29,19 44,20zm218 -7c-8,0 -41,11 -92,11l0 -105c17,0 23,0 36,9 18,13 33,32 43,51 4,8 13,25 13,34zm12 184c-14,0 -37,15 -41,15 -15,0 -33,-5 -63,-5l0 -76 112 0c0,10 -2,24 -3,34 -1,5 -2,11 -2,16 -1,5 -3,11 -3,16zm-118 10c-49,0 -90,13 -98,13l-8 -40c-3,-17 -4,-30 -4,-49l110 0 0 76zm0 -167l0 76 -110 0c0,-26 5,-73 13,-90 13,6 55,10 70,12l27 2zm56 256c4,-1 3,0 6,-3 -4,1 -4,1 -6,3zm6 -3c6,0 2,0 4,-1 -6,0 -3,0 -4,1zm4 -1l3 -1 -3 1zm5 -2l0 0c0,0 0,0 0,0zm4 -2l-1 1c0,0 1,-1 1,-1zm4 -1l-1 0c0,0 1,0 1,0zm-27 10c-5,1 -18,5 -23,7 -9,3 -15,7 -25,4 -15,-3 -26,-23 -16,-40 9,-15 65,-34 84,-43 31,-14 58,-34 95,-9 16,11 21,19 35,28 4,3 6,4 9,7 9,5 12,7 21,10 4,2 10,3 13,4l0 88c-29,-7 -55,-22 -90,-15 -23,4 -60,20 -82,29 -65,27 -67,32 -129,11 -14,-4 -28,-9 -42,-13l-72 -24c-14,-10 -24,-34 -10,-46 9,-8 27,-1 45,2 16,3 32,6 46,9 41,7 83,15 122,0 3,-2 5,-3 10,-4 4,-2 6,-2 9,-5z"/>
 </g>
</svg>
