<?xml version="1.0" encoding="UTF-8"?>
<!DOCTYPE svg PUBLIC "-//W3C//DTD SVG 1.1//EN" "http://www.w3.org/Graphics/SVG/1.1/DTD/svg11.dtd">
<!-- Creator: CorelDRAW X8 -->
<svg xmlns="http://www.w3.org/2000/svg" xml:space="preserve" width="512px" height="512px" version="1.1" style="shape-rendering:geometricPrecision; text-rendering:geometricPrecision; image-rendering:optimizeQuality; fill-rule:evenodd; clip-rule:evenodd"
viewBox="0 0 512 512"
 xmlns:xlink="http://www.w3.org/1999/xlink">
 <defs>
  <style type="text/css">
   <![CDATA[
    .fil0 {fill:none}
    .fil1 {fill:black}
   ]]>
  </style>
 </defs>
 <g id="Layer_x0020_1">
  <metadata id="CorelCorpID_0Corel-Layer"/>
  <rect class="fil0" width="512" height="512"/>
  <path class="fil1" d="M436 99c0,-11 1,-18 -9,-27 -2,-2 -5,-4 -8,-6 -8,-3 -15,-3 -23,0 -9,4 -18,14 -18,25 0,11 0,18 10,26 2,2 5,5 8,6 21,9 40,-9 40,-24zm-307 34l-8 26c-3,10 -4,19 -6,29 -2,10 -5,34 -5,45 0,5 2,15 -3,15l-90 0c0,-41 17,-90 39,-123 3,-5 19,-27 24,-30 3,2 8,6 11,9 9,10 27,21 38,29zm113 34l6 0 0 81 -123 0c0,-21 1,-39 5,-58 1,-9 3,-18 5,-26 2,-7 5,-18 7,-24 24,12 46,20 71,24 10,2 19,3 29,3zm-117 200c-10,5 -26,17 -35,25 -3,4 -6,5 -12,12 -3,3 -2,4 -6,5 -1,-2 -8,-11 -11,-14 -25,-35 -44,-86 -44,-131l92 0 2 27c0,14 4,38 7,52l7 24zm123 120c-17,-4 -24,-5 -39,-15 -21,-15 -39,-38 -50,-60l-13 -28c-1,-4 -2,-7 -4,-10 7,-5 15,-8 23,-12 20,-10 59,-18 83,-18l0 143zm122 -113l-17 38c-11,22 -29,45 -50,60 -14,10 -23,11 -39,15l0 -143c30,0 81,13 106,30zm69 35c-3,-2 -5,-6 -11,-11 -11,-10 -29,-25 -41,-31 5,-19 7,-26 11,-47 1,-6 1,-11 2,-16 3,2 10,10 16,-4l13 -31c1,-3 1,-5 4,-5l62 0c0,29 -9,63 -18,83 -5,13 -27,54 -38,62zm-191 -80c-30,0 -62,7 -87,18 -5,2 -20,10 -24,11 0,-4 -1,-7 -2,-11 -1,-4 -2,-7 -2,-11 -5,-21 -8,-50 -8,-72l123 0 0 65zm127 29c-5,-1 -8,-3 -12,-5 -4,-2 -7,-4 -11,-5 -27,-12 -57,-19 -88,-19l0 -65 117 0c4,0 5,6 6,8 1,5 0,8 -1,13 0,9 -1,16 -2,25l-7 35c-1,4 -2,8 -2,13zm-127 -206c-18,0 -41,-4 -55,-8 -17,-5 -32,-11 -46,-18 5,-9 8,-20 17,-34 6,-10 13,-21 21,-30 12,-14 25,-24 43,-32 7,-3 12,-3 20,-5l0 127zm128 96l-112 0 0 -81c21,0 37,-2 57,-8 4,-1 11,-3 16,-4 1,5 2,8 4,12l30 69c1,3 2,3 3,6 1,2 1,4 2,6zm-44 -180c-1,3 -2,4 -3,8 -8,20 -9,45 1,64 -14,7 -50,12 -66,12l0 -127c19,4 23,5 39,16 6,3 11,7 15,12 5,5 10,9 14,15zm-197 50c-9,-5 -38,-27 -44,-35 4,-3 7,-7 11,-10 25,-20 42,-30 71,-41 7,-3 28,-10 35,-10l-6 4c-2,2 -4,3 -6,5 -20,15 -36,35 -48,57 -3,5 -5,8 -7,14 -2,5 -5,11 -6,16zm296 300c-9,14 -40,36 -55,45 -16,9 -56,27 -73,27 5,-5 16,-10 26,-20 9,-9 14,-15 22,-25l18 -30c3,-6 12,-27 13,-34 9,5 29,21 36,28 4,4 7,6 9,11 3,-1 1,-1 4,-2l1 -1 0 -1 1 1 -1 0 -1 1zm-350 0c3,1 1,1 4,2 3,-5 10,-11 15,-15l30 -24c1,7 10,28 13,34 2,3 3,4 4,7l14 22c13,17 23,30 41,41l7 5c-17,0 -57,-18 -73,-27 -15,-9 -46,-30 -55,-45l-1 -1 -1 0 1 -1 0 1 1 1zm414 -170l-57 0c2,-3 3,-7 5,-10l23 -54c3,-5 8,-16 9,-22 4,3 6,14 8,18 6,20 12,46 12,68zm-139 -210c-2,4 -1,2 -4,4 -8,7 -8,11 -12,12 -3,-9 -35,-31 -36,-32 15,0 48,16 52,16zm123 63c0,27 -5,31 -15,56l-51 123c-2,4 -4,8 -5,12l-2 0c0,-3 -7,-19 -8,-22 -14,-32 -28,-70 -42,-102 -12,-26 -20,-40 -20,-67 0,-35 31,-72 66,-72 16,0 22,0 37,7 4,2 7,4 10,7 12,9 17,17 23,29 4,7 7,19 7,29z"/>
 </g>
</svg>
