<?xml version="1.0" encoding="UTF-8"?>
<!DOCTYPE svg PUBLIC "-//W3C//DTD SVG 1.1//EN" "http://www.w3.org/Graphics/SVG/1.1/DTD/svg11.dtd">
<!-- Creator: CorelDRAW X8 -->
<svg xmlns="http://www.w3.org/2000/svg" xml:space="preserve" width="512px" height="512px" version="1.1" style="shape-rendering:geometricPrecision; text-rendering:geometricPrecision; image-rendering:optimizeQuality; fill-rule:evenodd; clip-rule:evenodd"
viewBox="0 0 512 512"
 xmlns:xlink="http://www.w3.org/1999/xlink">
 <defs>
  <style type="text/css">
   <![CDATA[
    .str1 {stroke:#1A1A1A;stroke-width:3.99922}
    .str0 {stroke:black;stroke-width:0.900003}
    .fil0 {fill:none}
    .fil4 {fill:black}
    .fil3 {fill:#010100}
    .fil1 {fill:#0C161A}
    .fil2 {fill:#111A1D}
    .fil5 {fill:black;fill-rule:nonzero}
   ]]>
  </style>
 </defs>
 <g id="Layer_x0020_1">
  <metadata id="CorelCorpID_0Corel-Layer"/>
  <rect class="fil0" width="512" height="512"/>
  <g id="_2464278630544">
   <g>
    <path class="fil1 str0" d="M92 356c8,-1 38,-29 46,-36l45 -37 48 21c-2,-4 -1,-4 -5,-7l-45 -18c-4,6 -4,5 -10,10l-23 18c-5,5 -4,5 -11,9 -5,4 -7,7 -11,10 -8,7 -29,21 -34,30z"/>
    <path class="fil1 str0" d="M202 263l34 14c-2,-5 4,-2 -14,-9 -5,-2 -10,-4 -14,-7 7,-7 19,-14 24,-22 -9,1 -12,7 -24,18 -3,2 -4,4 -6,6z"/>
    <path class="fil2 str0" d="M143 272c-12,-5 -85,-41 -92,-37l94 42 35 -30c9,-7 32,-23 36,-31 -9,3 -49,37 -65,48 -3,3 -5,6 -8,8z"/>
    <path class="fil2 str0" d="M118 295l-49 42c10,1 33,-25 42,-32 8,-6 7,-5 13,-11l-78 -35c1,6 -8,1 15,10 6,3 12,6 18,8 13,6 26,12 39,18z"/>
   </g>
   <path class="fil3" d="M425 188l3 61 -11 1 -2 -52c-1,-4 -9,-4 -9,0l2 52 -11 1 -1 -25c0,-8 -9,-5 -9,-2l2 27 -12 1 -1 -28c0,-6 -4,-5 -6,-5 -3,0 -3,4 -3,7l1 26 -11 1 -3 -52c0,-5 -8,-5 -8,1l2 51 -11 1 -2 -37c0,-6 -9,-5 -8,1l1 36 -11 1 -1 -23c0,-6 -9,-6 -9,-1l2 24c-4,0 -8,0 -10,2 -2,2 -1,7 4,7l141 -7c6,0 5,-9 -1,-8l-6 0 -3 -62c0,-6 -9,-5 -9,1z"/>
   <path class="fil3" d="M305 204c0,-5 8,-7 9,0 0,6 -9,5 -9,0zm75 -17c-1,-6 8,-6 8,0 1,5 -8,6 -8,0zm-36 -15c8,-1 6,8 1,8 -5,0 -6,-8 -1,-8zm80 -14c0,-5 8,-7 9,0 0,6 -9,5 -9,0zm-8 4l-20 12c-6,5 -4,0 -12,0 -5,-1 -9,2 -11,5 -1,0 -13,-4 -15,-4 0,-7 -6,-12 -14,-12 -3,0 -6,2 -8,4 -2,1 -2,1 -3,3 -2,5 -1,6 0,10l-17 13 -3 -2c-8,-2 -17,4 -16,14 0,14 23,17 25,1 1,-4 0,-3 0,-7l12 -9c1,-1 2,-2 4,-3 1,0 12,5 17,-4 5,1 11,4 16,5 0,3 1,5 4,8 6,7 23,6 22,-12 2,-1 21,-14 23,-15 15,8 27,-8 19,-19 -5,-6 -15,-7 -21,0 -2,3 -3,6 -2,12z"/>
   <path class="fil4" d="M261 144c5,-2 12,-4 17,-5 28,-8 58,-16 85,-24 7,-2 14,1 21,3l85 20c6,2 8,1 8,5 1,28 2,65 1,91 -1,-1 -1,-2 -2,-2 -2,-2 -1,-1 -3,-3 -2,3 -6,6 -7,9 1,2 4,4 5,6 9,10 8,6 8,14l1 50c0,21 1,60 1,79 -28,-6 -63,-16 -92,-23 -4,-1 -11,-3 -15,-4 -5,-1 -54,15 -61,17 -9,2 -16,5 -25,7 -2,1 -21,7 -23,6l-3 -149c3,-2 5,-2 8,-4 -1,-4 -4,-7 -4,-11l-4 1 -1 -83zm-46 -8c6,1 28,6 32,8l1 92c-3,1 -3,2 -5,4 1,2 2,4 3,7l2 3c1,2 3,137 3,141 -5,0 -25,-6 -30,-8l-61 -15c-5,-1 -10,-3 -15,-4 -5,-1 -9,1 -13,2 -32,9 -65,20 -97,29l-2 -160 7 6c2,-2 5,-6 7,-9 -4,-4 -14,-9 -15,-14 -1,-7 0,-17 0,-23 0,-9 -2,-42 -1,-47 5,-3 11,-3 16,-5 6,-1 10,-3 16,-4 5,-2 28,-8 31,-10l-4 -12 -73 20c-1,7 3,191 3,207 0,3 1,66 2,69 8,-2 18,-5 27,-8l93 -27c3,0 44,11 50,12 8,2 62,17 66,17 3,0 46,-13 53,-15 18,-5 36,-11 53,-16 8,-2 7,-3 16,0l115 29 -5 -276c-11,-3 -25,-6 -37,-9l-74 -18c-16,-4 -12,-2 -32,3l-88 25c-5,1 -4,2 -9,1 -3,-1 -6,-2 -9,-3 -6,-1 -13,-3 -18,-4l-8 12z"/>
   <path class="fil5" d="M288 329l0 -26 -4 0 0 -4 4 0 0 -3c0,-2 0,-4 1,-5 0,-1 1,-2 2,-3 2,-1 3,-1 6,-1 1,0 3,0 4,0l0 5c-1,-1 -2,-1 -3,-1 -2,0 -3,1 -4,1 0,1 -1,2 -1,4l0 3 6 0 0 4 -6 0 0 26 -5 0z"/>
   <path id="1" class="fil5" d="M313 342c-3,-4 -5,-8 -7,-13 -2,-5 -3,-10 -3,-15 0,-4 1,-9 2,-13 2,-5 5,-10 8,-14l4 0c-2,4 -4,6 -5,8 -1,3 -2,6 -2,8 -1,4 -2,8 -2,11 0,9 3,19 9,28l-4 0z"/>
   <path id="2" class="fil5" d="M319 329l12 -15 -11 -15 7 0 4 7c1,1 2,3 3,3 0,-1 1,-2 2,-3l5 -7 6 0 -10 15 11 15 -6 0 -7 -9 -1 -2 -8 11 -7 0z"/>
   <path id="3" class="fil5" d="M354 329l0 -5 6 0 0 5c0,3 -1,4 -2,6 0,1 -2,2 -3,3l-2 -2c1,-1 2,-2 3,-3 0,0 1,-2 1,-4l-3 0z"/>
   <path id="4" class="fil5" d="M369 341l-1 -5c1,1 2,1 3,1 1,0 2,0 3,-1 0,0 1,-1 1,-1 1,-1 1,-2 2,-4 0,0 0,-1 0,-1l-11 -31 5 0 7 18c1,2 1,4 2,7 1,-3 1,-5 2,-7l7 -18 5 0 -12 31c-1,3 -2,6 -3,7 -1,2 -2,3 -3,4 -1,0 -2,1 -4,1 -1,0 -2,0 -3,-1z"/>
   <path id="5" class="fil5" d="M395 329l0 -5 6 0 0 5c0,3 0,4 -1,6 -1,1 -2,2 -4,3l-1 -2c1,-1 2,-2 2,-3 1,0 1,-2 1,-4l-3 0z"/>
   <path id="6" class="fil5" d="M407 329l0 -4 20 -22c-2,0 -4,0 -6,0l-12 0 0 -4 25 0 0 3 -17 20 -3 3c2,0 4,0 6,0l14 0 0 4 -27 0z"/>
   <path id="7" class="fil5" d="M443 342l-4 0c6,-9 9,-19 9,-28 0,-3 0,-7 -1,-10 -1,-3 -2,-6 -3,-9 -1,-1 -2,-4 -5,-8l4 0c4,4 6,9 8,14 1,4 2,9 2,13 0,5 -1,10 -3,15 -2,5 -4,9 -7,13z"/>
   <ellipse class="fil0 str1" cx="141" cy="225" rx="30" ry="9"/>
   <path class="fil4" d="M175 130c0,13 -3,15 -8,27l-25 61c-1,1 -2,4 -2,5l-1 0c0,-1 -3,-9 -4,-10 -7,-16 -14,-35 -21,-50 -6,-13 -10,-20 -10,-33 0,-18 16,-36 33,-36 8,0 11,0 18,4 2,1 3,2 5,3 6,5 8,9 11,15 2,3 4,9 4,14zm-21 -1c0,-6 0,-9 -5,-13 -1,-1 -2,-2 -4,-3 -4,-2 -7,-2 -11,0 -4,2 -9,7 -9,12 0,5 0,9 5,13 1,1 2,2 4,3 10,4 20,-5 20,-12z"/>
  </g>
 </g>
</svg>
