<?xml version="1.0" encoding="UTF-8"?>
<!DOCTYPE svg PUBLIC "-//W3C//DTD SVG 1.1//EN" "http://www.w3.org/Graphics/SVG/1.1/DTD/svg11.dtd">
<!-- Creator: CorelDRAW X8 -->
<svg xmlns="http://www.w3.org/2000/svg" xml:space="preserve" width="512px" height="512px" version="1.1" style="shape-rendering:geometricPrecision; text-rendering:geometricPrecision; image-rendering:optimizeQuality; fill-rule:evenodd; clip-rule:evenodd"
viewBox="0 0 512 512"
 xmlns:xlink="http://www.w3.org/1999/xlink">
 <defs>
  <style type="text/css">
   <![CDATA[
    .str0 {stroke:black;stroke-width:2.08347}
    .str1 {stroke:black;stroke-width:0.900003}
    .fil0 {fill:none}
    .fil1 {fill:black}
    .fil3 {fill:#151515}
    .fil2 {fill:white}
   ]]>
  </style>
 </defs>
 <g id="Layer_x0020_1">
  <metadata id="CorelCorpID_0Corel-Layer"/>
  <rect class="fil0" width="512" height="512"/>
  <g id="_2464205583808">
   <path class="fil1" d="M61 67l390 0c12,0 21,9 21,21l0 257c0,11 -9,20 -21,20l-390 0c-12,0 -21,-9 -21,-20l0 -257c0,-12 9,-21 21,-21zm3 11l384 0c11,0 20,9 20,20l0 237c0,10 -9,19 -20,19l-384 0c-11,0 -20,-9 -20,-19l0 -237c0,-11 9,-20 20,-20z"/>
   <rect class="fil2 str0" x="44" y="78" width="423" height="276" rx="19" ry="19"/>
   <path class="fil3 str1" d="M172 293c-5,1 -7,-2 -10,-2 -4,1 -5,4 -7,5 -5,-1 -6,-5 -6,-10 0,-5 -2,-11 2,-14 2,1 1,3 5,3 2,-1 4,-5 4,-8 -2,-1 -4,-1 -6,-2 -2,-1 -3,-3 -4,-4 -5,-1 -8,5 -10,-2 -2,-4 -3,-10 -5,-12 -4,0 -6,4 -8,6 -6,7 -5,2 -9,2 -3,0 -5,13 -13,14 -6,0 -11,-9 -5,-17 5,-7 6,-11 8,-20 4,0 6,2 11,1 1,-4 -1,-5 0,-8 1,-3 1,-1 2,-3 1,-1 1,-2 2,-3 1,-2 3,-3 2,-7 0,-2 -2,-3 -3,-5 4,2 7,10 14,10 2,-3 2,-3 3,-7 5,-18 -3,-14 -10,-15 -1,-4 -1,-7 -3,-11 -1,-4 -2,-7 -4,-11 -1,-4 -10,-16 -4,-20 5,-1 9,3 12,0 1,-2 0,-4 0,-6 18,3 10,-2 11,-15 5,1 7,3 13,2 4,0 9,-3 12,-2 3,3 9,10 14,3 3,-3 3,-8 11,-12 11,-7 14,11 24,0 2,-2 4,-4 5,-6 7,2 9,4 15,0 4,-3 10,-5 14,-1 0,4 -5,5 -7,8 -2,3 -4,8 1,9 3,-1 4,-4 7,-5 1,2 0,3 2,6 1,2 2,3 3,6 4,11 10,14 12,22 0,2 0,5 1,7 1,1 3,3 4,4 -1,2 -2,3 0,6 5,7 9,-2 12,-5 7,-11 11,3 20,-6 7,-7 3,-10 14,-16 6,-2 7,-14 13,-16 1,0 2,1 3,3 2,2 2,1 4,2 3,1 8,11 11,14 11,13 19,-10 26,-4 5,3 -3,6 -4,6 -5,3 0,4 0,9 -2,1 -6,2 -5,6 0,3 3,5 4,7 2,3 3,6 4,9 4,7 8,2 7,15 -1,6 -1,4 -4,8 -2,2 -2,4 0,8 2,3 5,2 9,3 0,1 1,3 0,5 -3,4 -11,-4 -14,14 -1,8 -5,4 -5,8 -1,5 3,5 5,8 -1,3 -5,3 -4,7 0,4 3,5 6,5 -1,7 2,14 1,22 -3,1 -12,0 -15,-2 -4,-2 -3,-1 -8,-1 -7,-1 -9,-4 -13,-5 -8,-2 -10,-12 -17,-11 -1,2 0,6 -1,9 -2,7 -5,6 -3,12 0,2 0,1 -1,3 -2,7 4,3 -6,15 -3,5 -4,2 -7,4 -2,1 -2,4 -7,1 -3,-1 -4,-3 -7,-3 -1,1 -2,9 -9,9 -7,0 -9,-7 -9,-7 -6,-2 -11,3 -14,5 -2,1 -4,5 -5,5 -3,1 -2,-1 -4,0 -2,1 -1,1 -3,2 -3,0 -3,-2 -5,-6 -1,-3 -4,-2 -8,-2 -6,-1 -6,1 -9,1 -3,0 0,-2 -4,0 -1,1 -2,1 -4,0 -2,-4 0,-9 -1,-14 -1,-8 -5,-2 -10,-2 -2,-3 -2,-7 -6,-7 -5,-1 -4,3 -7,6l-6 0c2,-11 -5,-10 -14,-10zm-6 -163c-2,-1 -9,2 -12,2 -5,0 -12,-2 -14,-1 -3,3 2,12 -1,14 -3,4 -10,-4 -11,1 0,0 0,2 0,2 0,2 0,2 0,4 -6,0 -13,-6 -14,5 0,7 4,11 6,16 2,5 4,11 6,16 0,4 0,7 3,8 3,1 6,-1 9,2 1,4 -1,13 -3,15 -6,0 -10,-12 -15,-10 -2,6 6,6 1,13 -1,1 0,1 -1,3 -1,2 -1,1 -2,3 -2,3 0,4 -1,7 0,5 -9,-5 -11,2 -2,5 -2,9 -4,13 -2,4 -6,7 -7,12 -2,11 9,19 17,11 3,-3 4,-7 7,-11 3,3 5,2 8,-1 2,-1 3,-2 3,-3 2,-2 2,-3 4,-4 0,0 0,0 0,1l1 2c1,1 1,2 1,3 4,15 7,9 13,8 2,3 4,4 9,5 -1,2 -2,4 -2,5 -2,-1 -4,-5 -7,-3 -4,4 -3,15 -2,19 1,5 1,5 4,7 7,7 6,-5 14,-1 6,2 14,-1 19,2 1,4 -1,4 0,7 2,1 7,2 9,1 3,-2 2,-4 5,-6 4,0 3,4 5,6 3,3 6,-1 9,-1 1,4 1,8 1,12 0,10 7,7 15,5 2,-1 9,0 10,1 2,1 1,1 2,3 2,4 7,7 10,2 3,0 4,0 6,-2 3,-3 9,-8 14,-9 2,3 4,8 11,8 6,0 9,-4 10,-8 4,1 10,8 14,0 4,1 5,0 7,-2 2,-2 3,-4 4,-6 5,-7 1,-6 3,-11 1,-3 1,0 2,-3 -2,-6 -2,-3 1,-9 2,-3 2,-7 2,-11 5,2 7,9 15,11 2,0 5,2 8,4 3,1 8,0 11,2 3,2 18,5 19,-1 1,-5 -1,-15 -1,-17 -1,-3 1,-2 0,-5 -3,-2 -11,-1 -3,-8 6,-5 -5,-6 -4,-10 1,-3 3,-1 4,-6 1,-3 1,-6 2,-9 2,-6 8,-4 13,-7 1,-3 1,-7 -1,-8 -4,-2 -7,1 -8,-3 -3,-7 4,-2 4,-17 1,-10 -5,-8 -8,-15 -1,-3 -1,-5 -3,-7 -2,-3 -7,-6 -2,-9 1,-1 1,-1 2,-1 3,-2 0,-6 -1,-9 4,-1 11,-3 7,-9 -4,-4 -11,-1 -14,1 -2,2 -3,3 -5,5 -7,6 -13,-11 -17,-16 -3,-2 -4,-1 -6,-3 -4,-3 -5,-7 -10,0 -3,3 -5,9 -7,12 -1,2 -6,3 -10,7 -3,4 -3,7 -7,11 -5,4 -9,-1 -14,0 -6,1 -10,15 -14,11 -2,-2 1,-2 0,-5 0,-2 -3,-4 -4,-5 -1,-2 -1,-5 -1,-7 -1,-5 -4,-8 -7,-12 -3,-5 -3,-8 -6,-12 0,-2 -2,-3 -3,-5 -1,-3 0,-5 -2,-6 -4,-2 -6,4 -8,5 -3,-5 3,-8 6,-10 5,-4 2,-8 -3,-9 -7,-1 -9,1 -13,3 -6,4 -10,0 -13,-1 -1,2 -2,3 -4,5 -6,5 -5,7 -14,2 -4,-3 -7,-3 -12,0 -10,5 -10,15 -15,15 -3,-1 -6,-6 -9,-6z"/>
   <g>
    <path class="fil2 str1" d="M327 238l98 0 0 172c0,11 -10,21 -22,21l-55 0c-11,0 -21,-10 -21,-21l0 -172z"/>
    <line class="fil0 str0" x1="327" y1="238" x2="342" y2= "180" />
    <path class="fil0 str1" d="M342 180c22,-19 45,-19 69,0l15 58"/>
    <circle class="fil0 str1" cx="376" cy="200" r="23"/>
    <circle class="fil0 str0" cx="376" cy="200" r="18"/>
    <path class="fil0 str0" d="M380 431l-11 0c0,4 0,9 0,13 0,5 -1,10 -2,13 -2,3 -4,4 -5,6 -2,1 -2,1 -3,2 0,0 0,0 2,0 1,0 5,0 8,-2 3,-2 5,-6 7,-10 1,-3 3,-5 3,-7 1,-3 1,-6 1,-8 0,-3 0,-5 0,-7"/>
    <rect class="fil0 str1" x="332" y="274" width="19.1055" height="13.3741" rx="8" ry="8"/>
    <rect class="fil0 str1" x="332" y="291" width="19.1055" height="13.3741" rx="8" ry="8"/>
    <rect class="fil0 str1" x="332" y="309" width="19.1055" height="13.3741" rx="8" ry="8"/>
    <rect class="fil0 str1" x="332" y="327" width="19.1055" height="13.3741" rx="8" ry="8"/>
    <rect class="fil0 str1" x="354" y="274" width="19.1055" height="13.3741" rx="8" ry="8"/>
    <rect class="fil0 str1" x="354" y="291" width="19.1055" height="13.3741" rx="8" ry="8"/>
    <rect class="fil0 str1" x="354" y="309" width="19.1055" height="13.3741" rx="8" ry="8"/>
    <rect class="fil0 str1" x="354" y="327" width="19.1055" height="13.3741" rx="8" ry="8"/>
    <rect class="fil0 str1" x="377" y="274" width="19.1055" height="13.3741" rx="8" ry="8"/>
    <rect class="fil0 str1" x="377" y="291" width="19.1055" height="13.3741" rx="8" ry="8"/>
    <rect class="fil0 str1" x="377" y="309" width="19.1055" height="13.3741" rx="8" ry="8"/>
    <rect class="fil0 str1" x="377" y="327" width="19.1055" height="13.3741" rx="8" ry="8"/>
    <rect class="fil0 str1" x="400" y="274" width="19.1055" height="13.3741" rx="8" ry="8"/>
    <rect class="fil0 str1" x="400" y="291" width="19.1055" height="13.3741" rx="8" ry="8"/>
    <rect class="fil0 str1" x="400" y="309" width="19.1055" height="13.3741" rx="8" ry="8"/>
    <rect class="fil0 str1" x="400" y="327" width="19.1055" height="13.3741" rx="8" ry="8"/>
   </g>
  </g>
 </g>
</svg>
