<?xml version="1.0" encoding="UTF-8"?>
<!DOCTYPE svg PUBLIC "-//W3C//DTD SVG 1.1//EN" "http://www.w3.org/Graphics/SVG/1.1/DTD/svg11.dtd">
<!-- Creator: CorelDRAW X8 -->
<svg xmlns="http://www.w3.org/2000/svg" xml:space="preserve" width="512px" height="512px" version="1.1" style="shape-rendering:geometricPrecision; text-rendering:geometricPrecision; image-rendering:optimizeQuality; fill-rule:evenodd; clip-rule:evenodd"
viewBox="0 0 512 512"
 xmlns:xlink="http://www.w3.org/1999/xlink">
 <defs>
  <style type="text/css">
   <![CDATA[
    .str0 {stroke:black;stroke-width:2.08347}
    .str1 {stroke:black;stroke-width:0.900003}
    .fil0 {fill:none}
    .fil3 {fill:black}
    .fil2 {fill:white}
    .fil1 {fill:black}
   ]]>
  </style>
 </defs>
 <g id="Layer_x0020_1">
  <metadata id="CorelCorpID_0Corel-Layer"/>
  <rect class="fil0" width="512" height="512"/>
  <g id="_2464204479088">
   <path class="fil1" d="M119 124c15,-11 31,-22 46,-33 5,-4 10,-7 15,-11 8,-6 74,-54 76,-55l15 11c6,4 10,7 16,11 10,7 20,15 30,22l182 133 -93 285 -301 0 -92 -285 106 -78z"/>
   <path class="fil2" d="M129 133c13,-10 29,-20 42,-31 5,-3 10,-7 14,-10 8,-5 69,-50 71,-51l14 10c5,4 10,7 14,10 10,7 19,14 29,21l169 123 -87 266 -279 0 -86 -266 99 -72z"/>
   <path class="fil3" d="M212 232c5,-3 10,-7 15,-11 1,-1 3,-2 5,-3 2,-2 23,-17 24,-18l5 4c2,1 3,2 5,3 3,3 6,5 10,7l58 43 -30 91 -96 0 -30 -91 34 -25z"/>
   <path class="fil2" d="M244 245c0,-17 27,-17 27,0 0,19 -27,19 -27,0zm13 -7c-9,0 -10,15 0,15 11,0 10,-15 0,-15z"/>
   <path class="fil2" d="M274 310l-3 0c0,9 0,6 -1,13 -7,4 -26,5 -26,-4l0 -9c-15,0 -11,-4 -11,-36 0,-16 22,-12 38,-12 16,0 12,22 12,39 0,5 -3,9 -9,9zm-37 -33c0,28 -2,26 7,26 0,-14 -2,-14 2,-17 3,1 3,1 3,4l0 29 15 0 0 -27c0,-8 7,-7 7,-2l0 13 5 0c0,-41 7,-35 -31,-35 -5,0 -8,4 -8,9z"/>
   <line class="fil0 str0" x1="256" y1="41" x2="256" y2= "200" />
   <line class="fil0 str0" x1="482" y1="205" x2="334" y2= "257" />
   <line class="fil0 str0" x1="395" y1="471" x2="304" y2= "348" />
   <line class="fil0 str0" x1="116" y1="471" x2="208" y2= "348" />
   <line class="fil0 str0" x1="30" y1="205" x2="178" y2= "257" />
   <path class="fil3" d="M203 156c0,9 -1,10 -5,18l-16 40c-1,1 -2,3 -2,4l-1 0c0,-1 -2,-6 -2,-7 -5,-11 -9,-23 -14,-33 -4,-9 -7,-13 -7,-22 0,-12 11,-24 22,-24 5,0 7,0 12,3 1,0 2,1 3,2 4,3 6,5 8,9 1,3 2,6 2,10zm-14 -1c0,-4 0,-6 -3,-9 -1,0 -1,-1 -3,-1 -2,-2 -4,-2 -7,0 -3,1 -6,4 -6,7 0,4 0,6 3,9 1,1 2,1 3,2 7,3 13,-3 13,-8z"/>
   <path class="fil3" d="M361 308l30 0 0 6 6 0 0 43 -36 0 0 -49zm-4 53l44 0 0 -48c0,-1 -5,-6 -6,-7 -1,0 -2,-1 -3,-1l-35 0 0 56z"/>
   <path class="fil3" d="M365 303l4 0 0 -3 29 0 0 6 6 0 0 42 -1 0 0 4 5 0 0 -48c0,0 -5,-5 -6,-6 0,0 -2,-2 -2,-2l-35 0 0 7z"/>
   <path class="fil3" d="M372 295l4 0 0 -3 30 0 0 6 6 0 0 43 -2 0 0 4 6 0 0 -49c0,0 -2,-2 -2,-2 -1,-1 -3,-3 -4,-4 -1,0 -2,-2 -2,-2l-36 0 0 7z"/>
   <path class="fil3" d="M366 349c0,1 0,2 2,2l22 0c1,0 2,-1 2,-2 0,-1 -1,-1 -2,-1l-22 0c-2,0 -2,0 -2,1z"/>
   <path class="fil3" d="M366 321c0,1 0,2 1,2l24 0c2,0 2,-3 0,-3l-24 0c0,0 -1,1 -1,1z"/>
   <path class="fil3" d="M366 335c0,1 0,2 1,2l24 0c2,0 2,-3 0,-3l-24 0c-1,0 -1,1 -1,1z"/>
   <path class="fil3" d="M366 342l0 1c0,0 1,1 1,1l24 0c2,0 2,-3 0,-3l-24 0c0,0 -1,1 -1,1z"/>
   <path class="fil3" d="M366 329c0,0 0,1 1,1l24 0c1,0 2,-3 -1,-3l-22 0c-1,0 -2,1 -2,2z"/>
   <path class="fil3" d="M145 324c-1,11 -11,21 -23,19 -11,-1 -20,-10 -19,-23 1,-11 11,-20 23,-19 11,1 20,11 19,23zm-2 20l13 11c1,1 1,1 3,2 2,0 4,-2 3,-4 0,-2 -1,-3 -2,-4l-12 -10 2 -5c1,-1 1,-3 2,-5 2,-7 0,-16 -4,-22l-2 -3c0,0 0,0 -1,-1 -1,-1 -1,-2 -3,-3 -5,-4 -13,-7 -22,-6 -6,1 -10,3 -14,6 -2,2 -5,5 -6,7 -1,2 -2,3 -3,5 -1,4 -2,8 -2,12 1,22 27,35 46,21 1,0 2,-1 2,-1z"/>
   <path class="fil3" d="M285 395c0,-2 0,-4 -1,-5 -2,-4 -6,-6 -10,-8 -14,-5 -38,-5 -50,4 -1,1 -1,1 -1,1 -1,1 -1,1 -2,2 0,0 -1,2 -1,3 -1,7 6,11 11,13 6,2 13,3 20,3 8,0 15,-1 21,-3 5,-1 12,-5 13,-10z"/>
   <path class="fil3" d="M219 429c0,2 0,5 0,7 0,3 0,4 1,7 5,8 23,11 32,11 10,0 28,-3 32,-12 1,-2 1,-3 1,-6 0,-2 0,-5 0,-7 0,2 -1,3 -2,4 0,1 -1,1 -1,1l-2 2c-2,1 -5,3 -8,4 -6,2 -12,3 -20,3 -9,0 -21,-2 -28,-7 -2,-2 -4,-4 -5,-7z"/>
   <path class="fil3" d="M219 398c0,2 0,6 0,8 0,2 0,4 1,6 2,3 5,5 8,7 6,3 16,4 24,4 8,0 18,-1 25,-4 3,-2 6,-4 7,-7 1,-2 1,-4 1,-6 0,-2 0,-6 0,-8 0,6 -7,9 -12,11 -13,4 -28,4 -41,0 -4,-1 -12,-5 -13,-11z"/>
   <path class="fil3" d="M219 414c0,2 0,5 0,7 0,2 0,4 1,6 5,9 22,12 32,12 10,0 27,-3 32,-12 1,-2 1,-4 1,-6 0,-2 0,-5 0,-7 -1,3 -3,5 -5,7 -2,1 -5,2 -8,3 -13,5 -36,5 -48,-4 -1,-1 -4,-3 -5,-6z"/>
   <path class="fil3 str1" d="M304 157l8 4c1,1 2,2 4,2l11 7c1,0 1,0 2,1l4 2c0,0 1,1 2,1l0 35c-2,-1 -3,-1 -4,-2 -1,-1 -3,-1 -4,-2 -1,-1 -1,-1 -2,-1 0,-1 -1,-1 -2,-1l-17 -9c0,-1 -1,-1 -2,-1l0 -36zm32 -21l0 0c1,0 2,1 4,2l17 9c0,0 1,0 1,1l11 5c1,1 1,1 1,2l0 39c0,0 -2,1 -3,2l-19 10c-1,0 -1,1 -1,1l-9 4c-1,1 -1,1 -2,1 -1,0 -8,-4 -9,-4l-7 -4c0,0 0,0 -1,0 0,-1 0,-1 -1,-1l-13 -7c0,0 0,0 -1,-1 -1,0 -2,-1 -2,-2l0 -38c0,-1 0,-1 1,-1l8 -5c0,0 0,0 1,0 0,-1 1,-1 2,-1l6 -4c1,0 2,-1 3,-1 0,0 1,-1 2,-1l9 -5c1,-1 1,-1 2,-1zm1 73l0 -35c1,-1 8,-4 10,-5 0,-1 0,-1 1,-1l20 -11 0 35 -8 5c-1,0 -2,1 -4,2l-19 10zm-31 -54c0,0 4,-2 5,-3l4 -2c1,0 1,-1 2,-1l11 -6c1,-1 8,-4 8,-4 0,0 20,11 23,12 1,1 2,1 3,2 2,1 3,1 4,2 0,0 -3,2 -4,2 0,1 -1,1 -1,1l-17 9c-1,1 -1,1 -1,1l-3 1c-1,1 -1,1 -1,1 -1,0 -1,0 -1,0 -3,2 -1,2 -8,-2l-2 -1c0,0 -1,0 -1,-1l-21 -11z"/>
  </g>
 </g>
</svg>
