<?xml version="1.0" encoding="UTF-8"?>
<!DOCTYPE svg PUBLIC "-//W3C//DTD SVG 1.1//EN" "http://www.w3.org/Graphics/SVG/1.1/DTD/svg11.dtd">
<!-- Creator: CorelDRAW X8 -->
<svg xmlns="http://www.w3.org/2000/svg" xml:space="preserve" width="512px" height="512px" version="1.1" style="shape-rendering:geometricPrecision; text-rendering:geometricPrecision; image-rendering:optimizeQuality; fill-rule:evenodd; clip-rule:evenodd"
viewBox="0 0 512 512"
 xmlns:xlink="http://www.w3.org/1999/xlink">
 <defs>
  <style type="text/css">
   <![CDATA[
    .fil0 {fill:none}
    .fil1 {fill:black}
   ]]>
  </style>
 </defs>
 <g id="Layer_x0020_1">
  <metadata id="CorelCorpID_0Corel-Layer"/>
  <rect class="fil0" width="512" height="512"/>
  <g id="_2464209550960">
   <path class="fil1" d="M367 235l-3 0 0 -2c0,-1 0,-1 1,-1l-1 -1 0 4 4 0 -1 0z"/>
   <path class="fil1" d="M56 154c2,-1 1,0 2,-1l-2 1z"/>
   <path class="fil1" d="M371 227c3,0 1,0 2,0 0,-1 0,-2 -1,-1 -1,0 0,0 -1,1z"/>
   <path class="fil1" d="M140 226c0,-1 0,0 0,0 -2,1 -1,1 0,1 0,0 0,1 0,-1z"/>
   <path class="fil1" d="M128 252c1,1 0,1 2,1l0 -3c-1,0 -1,1 -2,2z"/>
   <path class="fil1" d="M379 218c0,1 0,1 0,1l2 2c0,-1 0,-1 0,-3l-2 0z"/>
   <g>
    <path class="fil1" d="M113 217l4 0c-1,-1 -1,-1 -2,-2 -2,1 -1,0 -2,2z"/>
    <path class="fil1" d="M140 238c1,0 1,0 2,-2l-3 0 1 2z"/>
    <path class="fil1" d="M373 238c1,-1 0,0 1,-1l-3 -1c1,2 1,2 2,2z"/>
    <path class="fil1" d="M346 237c1,1 1,1 2,0 0,0 -1,-1 -1,0 -1,0 -1,0 -1,0z"/>
    <path class="fil1" d="M93 95l1 -1c-1,1 -1,1 -1,1z"/>
   </g>
   <path class="fil1" d="M377 235l4 0 0 -3c-1,0 -3,3 -4,3z"/>
   <path class="fil1" d="M149 221l0 -3 -3 0c1,1 2,2 3,3z"/>
   <path class="fil1" d="M364 221c1,0 2,-2 2,-3l-2 0 0 3z"/>
   <path class="fil1" d="M150 253c1,-1 1,0 2,-1l-2 -2 0 3z"/>
   <path class="fil1" d="M164 217c2,0 2,1 1,-2 -2,1 -1,0 -1,2z"/>
   <path class="fil1" d="M396 217l2 0 0 -2c-1,1 -2,1 -2,2z"/>
   <path class="fil1" d="M150 203c0,0 1,-1 1,-1 0,-2 0,-1 -1,-1 0,1 0,0 0,2z"/>
   <path class="fil1" d="M370 217l5 0c-1,-1 -1,-2 -3,-3 0,1 -2,2 -2,3z"/>
   <path class="fil1" d="M145 235l4 0 0 -3c-2,1 -3,2 -4,3z"/>
   <path class="fil1" d="M150 229l2 -2c-1,-2 -1,-2 -2,-3l0 5z"/>
   <path class="fil1" d="M361 226c0,1 0,1 0,1 1,1 1,1 2,1l0 -4 -2 2z"/>
   <path class="fil1" d="M346 217l3 0c0,-1 0,-1 -1,-1 -1,-2 0,-1 -1,-1 -1,1 -1,1 -1,2z"/>
   <path class="fil1" d="M131 221c2,-1 2,-1 3,-3l-3 0 0 3z"/>
   <path class="fil1" d="M361 253l2 0 0 -3c-2,1 -2,1 -2,3z"/>
   <path class="fil1" d="M383 253l1 -1c-1,-2 -1,-1 -2,-2 0,1 0,2 1,3z"/>
   <path class="fil1" d="M131 236l4 -1c0,0 -1,-1 -1,-2 -2,-1 -1,-1 -3,-1l0 4z"/>
   <path class="fil1" d="M128 226c1,1 0,0 1,1 1,1 0,1 1,1l0 -4c-1,1 -1,1 -2,2z"/>
   <path class="fil1" d="M374 239c0,1 6,7 7,8 0,-10 1,-11 -3,-10 -3,0 -3,1 -4,2z"/>
   <path class="fil1" d="M225 155l-1 -2c1,1 1,1 1,2z"/>
   <path class="fil1" d="M405 222c-1,0 -1,0 -2,-1 -1,-1 -1,-1 -1,-2 -2,-1 -1,-1 -3,-2l0 19c1,0 8,-8 10,-9 -1,-2 -3,-3 -4,-5z"/>
   <path class="fil1" d="M363 200l19 0c-1,-2 -9,-9 -10,-10l-5 5c-1,1 -4,4 -4,5z"/>
   <path class="fil1" d="M385 253l13 0 0 -13c-2,2 -12,11 -13,13z"/>
   <path class="fil1" d="M130 254c2,1 8,8 10,9 1,-1 8,-7 9,-9l-19 0z"/>
   <path class="fil1" d="M166 214l0 -13 -13 0c2,2 4,4 6,6 1,1 2,2 3,3l3 3c1,1 -1,0 1,1z"/>
   <path class="fil1" d="M372 263c1,0 9,-8 9,-9l-18 0 9 9z"/>
   <path class="fil1" d="M388 204c1,0 1,0 2,2 1,1 1,0 1,2 2,0 1,0 2,1 1,1 1,1 1,2 2,1 2,1 4,3l0 -13 -13 0c0,0 1,1 1,1 2,1 1,1 2,2z"/>
   <path class="fil1" d="M382 235l12 0c-1,0 -8,-7 -9,-8 -2,3 -4,4 -3,8z"/>
   <path class="fil1" d="M364 217c4,1 5,-1 7,-3 0,-2 -6,-8 -7,-8l0 11z"/>
   <path class="fil1" d="M138 217l5 0c-1,-1 -2,-2 -3,-3l-2 3z"/>
   <path class="fil1" d="M367 235c0,-2 -1,-2 -2,-3 -1,0 -1,0 -1,1l0 2 3 0z"/>
   <path class="fil1" d="M130 200l19 0c0,-1 -8,-9 -9,-10 -1,1 -9,8 -10,10z"/>
   <path class="fil1" d="M150 235l11 0c-1,-1 -6,-7 -8,-8 -3,1 -4,4 -3,8z"/>
   <path class="fil1" d="M374 213c0,1 2,3 2,3 2,1 3,1 5,1l0 -11c-1,0 -7,6 -7,7z"/>
   <path class="fil1" d="M364 247c2,-1 7,-7 7,-8 -1,-3 -2,-3 -7,-2l0 10z"/>
   <path class="fil1" d="M127 225c1,0 2,-2 3,-2 1,-1 0,-3 0,-5l-10 0c2,3 5,5 7,7z"/>
   <path class="fil1" d="M359 225c3,-1 4,-3 4,-7l-11 0 7 7z"/>
   <path class="fil1" d="M150 211l0 6c3,0 5,0 8,0 4,0 4,0 6,-3 0,-1 -10,-11 -12,-12 -3,2 -2,5 -2,9z"/>
   <path class="fil1" d="M167 236c1,-1 9,-8 9,-10l-9 -9 0 19z"/>
   <g>
    <path class="fil1" d="M306 136c-1,0 0,0 -1,1 -1,1 -2,1 -3,1 0,1 1,1 -1,1 -2,3 -12,9 -24,28 -7,11 -12,23 -15,37 -3,16 -3,33 0,48 2,7 4,13 7,20 1,3 3,6 4,9 2,2 4,5 5,8l2 0c0,-2 -5,-8 -6,-12 -7,-15 -12,-27 -12,-45 -2,-25 4,-43 14,-61 18,-33 56,-55 96,-55 22,0 43,7 59,17 33,22 53,59 51,100 -1,11 -3,21 -6,31 -3,7 -6,13 -9,19 -1,2 -3,4 -4,6l2 0c1,-2 6,-10 9,-16 9,-19 12,-41 9,-62 -10,-75 -93,-119 -162,-85 -5,3 -14,9 -15,10z"/>
    <path class="fil1" d="M46 289l2 0 -8 -15c-15,-29 -14,-63 -1,-93l8 -14c1,-3 2,-5 4,-7 1,-1 5,-5 5,-6l2 -1c5,-8 19,-18 29,-23 12,-7 23,-11 39,-13 56,-7 111,33 121,87 7,33 0,60 -16,84l0 1 2 0c2,-5 8,-11 14,-31 9,-30 4,-64 -12,-90l-10 -13c0,-1 0,-1 -1,-2 -4,-3 -12,-14 -29,-24 -12,-6 -24,-11 -40,-13 -33,-5 -61,5 -83,21 -45,33 -57,94 -31,143 1,3 4,7 5,9z"/>
   </g>
   <path class="fil1" d="M140 226c0,0 0,-1 0,0 0,2 0,1 0,1 -1,0 -2,0 0,-1zm-4 -8c-1,1 -4,4 -5,5 0,2 0,7 1,8 1,0 5,4 5,4 2,1 6,1 7,0 1,-1 4,-5 4,-5 1,-1 1,-6 0,-8 0,0 -3,-3 -4,-4 -1,0 -8,0 -8,0z"/>
   <path class="fil1" d="M373 227c-1,0 1,0 -2,0 1,-1 0,-1 1,-1 1,-1 1,0 1,1zm-2 8c5,0 4,0 7,-2 2,-2 3,-2 3,-6 0,-4 0,-4 -2,-6 -2,-3 -1,-3 -6,-3 -4,0 -4,0 -6,2 -2,2 -3,2 -3,5 0,6 0,5 4,9 1,1 1,1 3,1z"/>
   <path class="fil1" d="M113 235c3,1 4,1 5,0 2,-2 8,-8 8,-9l-5 -5c-2,-3 -3,-3 -7,-3 -1,2 -1,14 -1,17z"/>
   <path class="fil1" d="M140 240c-1,1 -4,4 -5,5 -3,3 -4,3 -3,8l17 0c0,-5 0,-4 -3,-8 -2,-1 -4,-3 -6,-5z"/>
   <path class="fil1" d="M364 253l17 0c0,-6 -1,-5 -6,-10 0,-1 -1,-2 -3,-3 -1,2 -3,4 -5,6 -3,3 -3,2 -3,7z"/>
   <path class="fil1" d="M130 249c1,-2 0,-10 0,-12 -3,-1 -5,0 -8,0 -5,-1 -4,-1 -7,2l12 12c1,0 2,-1 3,-2z"/>
   <path class="fil1" d="M116 214c2,4 8,3 14,3l0 -8c0,-4 1,-6 -3,-7 -2,3 -10,10 -11,12z"/>
   <path class="fil1" d="M348 214c3,4 5,3 15,3l0 -9c0,-4 0,-5 -3,-6 -2,2 -10,10 -12,12z"/>
   <path class="fil1" d="M346 235c4,1 5,-1 7,-3 2,-2 4,-4 5,-6 0,-1 -6,-7 -7,-7l-5 0 0 16z"/>
   <path class="fil1" d="M348 239c0,1 10,11 12,12 3,-4 3,-2 3,-10l0 -4c-3,0 -6,0 -9,0 -4,0 -4,-1 -6,2z"/>
   <path class="fil1" d="M394 211c-1,0 -1,0 -2,-1 -1,-1 -1,-1 -1,-2 -2,0 -1,0 -2,-2 -1,-1 -1,0 -1,-2 -3,0 -2,0 -4,-2 0,1 -1,2 -2,2l0 13c3,0 6,0 9,0 3,0 4,-1 5,-3 -1,-1 -1,-1 -2,-3z"/>
   <path class="fil1" d="M152 251c2,-1 12,-12 12,-13 -1,-2 -1,-1 -5,-1l-9 0c0,7 -1,11 2,14z"/>
   <path class="fil1" d="M385 251c1,-1 11,-12 12,-13 -3,-2 -2,-1 -6,-1 -3,0 -6,-1 -9,0 0,2 0,5 0,8 0,4 0,4 3,6z"/>
   <path class="fil1" d="M140 212c2,-1 4,-3 5,-5 4,-3 4,-3 4,-6l-18 0c0,2 0,2 1,4 1,1 2,1 3,2 1,2 4,5 5,5z"/>
   <path class="fil1" d="M364 201c0,3 -1,2 3,6 2,2 4,5 6,5 2,-2 3,-3 5,-5 2,-2 3,-2 3,-6 -2,-1 -15,-1 -17,0z"/>
   <path class="fil1" d="M387 226c0,2 3,4 5,5 1,2 3,5 6,4 0,-3 1,-14 0,-17 -4,-1 -7,4 -11,8z"/>
   <path class="fil1" d="M154 226c1,1 6,6 8,8 1,1 1,2 4,1l-1 -17c-4,0 -4,1 -6,3 -2,2 -3,3 -5,5z"/>
   <path class="fil1" d="M114 253l13 0c-1,-2 -5,-5 -6,-7 -2,-1 -6,-6 -8,-7l1 14z"/>
   <path class="fil1" d="M346 253l14 0c-1,-2 -6,-6 -7,-7 -2,-2 -5,-5 -7,-7l0 14z"/>
   <path class="fil1" d="M113 214c2,-1 6,-5 7,-6 2,-3 5,-5 7,-7l-14 0 0 13z"/>
   <path class="fil1" d="M166 240c-1,0 -13,12 -14,13l14 0 0 -13z"/>
   <path class="fil1" d="M346 214c2,-1 10,-11 13,-13l-13 0 0 13z"/>
   <path class="fil1" d="M103 226c1,2 3,4 5,5l4 5 0 -19 -9 9z"/>
   <path class="fil1" d="M344 235c1,0 0,1 1,-1l-1 -15c0,-1 1,0 0,-1 -2,3 -7,7 -8,9 1,1 7,7 8,8z"/>
   <path class="fil1" d="M119 235l11 0c0,-1 1,-3 0,-5 0,-1 -2,-2 -3,-3 -2,2 -7,7 -8,8z"/>
   <path class="fil1" d="M352 235l11 0c0,-5 0,-5 -4,-8 -1,1 -7,7 -7,8z"/>
   <path class="fil1" d="M131 217c3,0 4,1 5,-1 1,0 3,-2 3,-3 -1,-1 -6,-6 -8,-7l0 11z"/>
   <path class="fil1" d="M141 213c2,4 5,4 8,4l0 -11c-3,2 -6,5 -8,7z"/>
   <path class="fil1" d="M139 239c-2,-3 -3,-2 -8,-2l0 10 8 -8z"/>
   <path class="fil1" d="M141 239c1,2 6,7 8,8l0 -10c-4,0 -6,-1 -8,2z"/>
   <path class="fil1" d="M386 225c1,-1 5,-5 6,-7l-10 0c0,2 0,3 1,5 0,0 2,2 3,2z"/>
   <path class="fil1" d="M94 94l-1 1c-10,7 -28,26 -34,35 -5,6 -10,12 -15,20 -23,38 -33,79 -29,124 0,5 1,10 1,15l30 0c-1,-2 -4,-6 -5,-9 -26,-49 -14,-110 31,-143 22,-16 50,-26 83,-21 16,2 28,7 40,13 17,10 25,21 29,24l1 2 10 13c16,26 21,60 12,90 -6,20 -12,26 -14,31l45 0c-1,-3 -3,-6 -5,-8 -1,-3 -3,-6 -4,-9 -3,-7 -5,-13 -7,-20 -3,-15 -3,-32 0,-48 3,-14 8,-26 15,-37 12,-19 22,-25 24,-28l1 -1c1,0 2,0 3,-1l1 -1c1,-1 10,-7 15,-10 69,-34 152,10 162,85 3,21 0,43 -9,62 -3,6 -8,14 -9,16l31 0c0,-4 1,-8 1,-12 1,-14 1,-21 0,-36 -1,-14 -3,-29 -7,-42 -6,-18 -14,-36 -24,-51l-8 -11c0,-1 -1,-2 -2,-4 -1,0 -1,0 -1,-1 -1,-1 -6,-8 -8,-9 -6,-7 -11,-12 -17,-19 -2,-1 -8,-6 -9,-8 -2,0 -1,0 -2,-1 -4,-3 -10,-7 -15,-11 -17,-12 -35,-21 -54,-29 -59,-22 -127,-22 -186,0 -14,5 -25,10 -38,17 -6,3 -12,8 -17,11 -3,2 -13,9 -15,11z"/>
   <path class="fil1" d="M153 225c2,-1 6,-5 7,-7l-10 0c0,2 -1,3 0,5 1,0 3,2 3,2z"/>
   <path class="fil1" d="M344 235c0,1 -1,1 1,1 0,-2 0,-12 0,-15 0,-2 0,-2 1,-3 0,3 0,6 0,9l0 7c0,2 -1,0 0,1l0 -16 5 0c-1,-2 -5,1 -7,-2l0 1c1,1 0,0 0,1l1 15c-1,2 0,1 -1,1z"/>
   <path class="fil1" d="M382 229c1,-1 2,-2 3,-3 -1,-1 -2,-1 -3,-2l0 5z"/>
   <path class="fil1" d="M113 236c1,3 2,2 3,1l-3 -1z"/>
   <path class="fil1" d="M382 203c1,-1 1,-1 2,-2 -2,0 -2,-1 -2,2z"/>
   <path class="fil1" d="M130 202l0 -1 -1 0c0,1 0,1 1,1z"/>
   <path class="fil1" d="M363 202c0,-1 0,-2 -2,-1 1,0 1,1 2,1z"/>
   <path class="fil1" d="M397 236c0,2 0,1 1,2 0,-2 0,-1 -1,-2z"/>
   <path class="fil1" d="M165 238l0 -1c0,0 0,0 0,0 0,0 0,0 0,-1 0,1 -1,0 0,2z"/>
   <path class="fil1" d="M301 139c2,0 1,0 1,-1l-1 1z"/>
   <path class="fil1" d="M421 96l-2 -1c1,1 0,1 2,1z"/>
   <polygon class="fil1" points="230,289 231,289 231,288 "/>
   <path class="fil1" d="M305 137c1,-1 0,-1 1,-1l-1 1z"/>
   <path class="fil1" d="M456 133l-1 -1c0,1 0,1 1,1z"/>
   <g>
    <path class="fil1" d="M465 288l-2 0c-4,7 -19,21 -26,26 -3,3 -6,5 -10,7 -26,14 -56,19 -86,11 -20,-6 -40,-19 -53,-34 -1,-2 -6,-8 -7,-10l-2 0c2,4 12,16 16,19 21,19 45,31 76,31 31,0 57,-12 77,-31 4,-3 15,-14 17,-19z"/>
    <path class="fil1" d="M232 288l-2 0c-2,5 -11,14 -16,18 -18,19 -47,30 -74,30 -22,0 -41,-6 -56,-15 -12,-7 -29,-21 -36,-33l-2 0c3,5 13,16 16,19 36,33 91,41 133,16 11,-6 22,-16 30,-25 1,-2 6,-8 7,-10z"/>
   </g>
   <path class="fil1" d="M138 421c1,-1 1,-1 2,-2 11,-4 26,-16 34,-23l26 -28c4,-6 9,-11 13,-18 1,-1 2,-2 3,-4 6,-8 13,-19 19,-27 2,-2 2,-3 4,-4 5,-7 8,-12 12,-18 2,-1 2,-2 4,-4 1,1 9,11 11,13 0,1 9,14 13,18l22 31c2,3 4,6 6,9 5,6 7,7 11,12 1,2 2,3 3,4 4,6 11,12 15,16l9 7c2,2 5,4 8,6 6,5 18,10 20,12l-1 1c-1,0 -1,0 -1,0l-5 2c-12,5 -25,9 -37,14l-74 27c-1,0 -13,-5 -15,-5l-102 -39c0,0 0,0 0,0zm357 -133l-30 0c-2,5 -13,16 -17,19 -20,19 -46,31 -77,31 -31,0 -55,-12 -76,-31 -4,-3 -14,-15 -16,-19l-47 0c-1,2 -6,8 -7,10 -8,9 -19,19 -30,25 -42,25 -97,17 -133,-16 -3,-3 -13,-14 -16,-19l-29 0c1,12 7,31 11,41 16,39 38,65 69,91 16,13 44,30 68,38 61,21 120,21 181,0 24,-8 51,-24 69,-38 21,-18 35,-31 51,-55 7,-13 12,-23 18,-36 4,-10 10,-29 11,-41z"/>
  </g>
 </g>
</svg>
