<?xml version="1.0" encoding="UTF-8"?>
<!DOCTYPE svg PUBLIC "-//W3C//DTD SVG 1.1//EN" "http://www.w3.org/Graphics/SVG/1.1/DTD/svg11.dtd">
<!-- Creator: CorelDRAW X8 -->
<svg xmlns="http://www.w3.org/2000/svg" xml:space="preserve" width="512px" height="512px" version="1.1" style="shape-rendering:geometricPrecision; text-rendering:geometricPrecision; image-rendering:optimizeQuality; fill-rule:evenodd; clip-rule:evenodd"
viewBox="0 0 512 512"
 xmlns:xlink="http://www.w3.org/1999/xlink">
 <defs>
  <style type="text/css">
   <![CDATA[
    .str0 {stroke:white;stroke-width:2.77756}
    .str1 {stroke:#BABABD;stroke-width:0.999608}
    .fil0 {fill:none}
    .fil3 {fill:#47494F}
    .fil4 {fill:#6F7175}
    .fil2 {fill:#9A9B9F}
    .fil5 {fill:#BABABD}
    .fil6 {fill:#BABABD;fill-rule:nonzero}
    .fil1 {fill:white}
   ]]>
  </style>
    <clipPath id="id0">
     <path d="M256 15c125,0 226,102 226,226 0,125 -101,226 -226,226 -125,0 -226,-101 -226,-226 0,-124 101,-226 226,-226z"/>
    </clipPath>
    <clipPath id="id1">
     <path d="M256 15c125,0 226,102 226,226 0,125 -101,226 -226,226 -125,0 -226,-101 -226,-226 0,-124 101,-226 226,-226z"/>
    </clipPath>
 </defs>
 <g id="Layer_x0020_1">
  <metadata id="CorelCorpID_0Corel-Layer"/>
  <rect class="fil0" width="512" height="512"/>
  <g id="_2077769218512">
   <path class="fil1" d="M256 15c125,0 226,102 226,226 0,125 -101,226 -226,226 -125,0 -226,-101 -226,-226 0,-124 101,-226 226,-226z"/>
   <g style="clip-path:url(#id0)">
    <polygon class="fil1" points="30,15 482,15 482,467 30,467 "/>
   </g>
   <g style="clip-path:url(#id1)">
    <g>
     <path id="1" class="fil2" d="M42 166c15,-2 22,28 22,38 0,52 -16,26 34,47 28,12 -15,41 67,38 8,-1 9,10 33,12 21,2 9,25 2,34 -2,2 -10,38 0,38 23,0 59,11 59,37 0,4 8,48 9,48 25,20 10,8 43,-14 18,-11 19,-38 39,-51 21,-13 -13,-21 7,-37 0,0 16,-32 -23,-16 -28,11 -35,-43 -57,-27 -23,17 -30,-11 -45,-11 -5,0 -64,-29 -63,-42 2,-27 -33,44 -38,-21 -4,-51 29,-4 40,-4 44,0 -4,-39 36,-62 44,-25 -1,-53 51,-49 22,2 33,-25 2,-24 -5,0 -20,-34 -42,-7 -10,13 -31,-12 -32,-10 -7,13 -2,71 -33,27 -17,-22 -39,-16 8,-33 12,-5 -2,-25 13,-16 9,6 10,41 48,3 23,-22 -44,-16 -45,-21 0,-19 8,-18 -23,-6 -34,13 10,17 -1,36 0,0 -21,9 -20,-10 1,-11 -26,-7 -11,12 9,13 -15,24 -19,7 -22,-7 -61,68 -61,84z"/>
     <path class="fil2" d="M208 24c10,1 21,16 35,9 1,0 -1,11 8,21 15,18 11,0 27,19 0,0 15,9 15,-8 0,-7 -13,-25 3,-24 3,0 3,7 21,-13 5,-6 -3,-8 -24,-11 -21,-4 -67,-6 -85,5 0,0 -1,2 0,2z"/>
     <path class="fil2" d="M318 37c20,-8 3,1 27,0 3,0 7,16 -11,11 -4,-2 -19,3 -17,-10l1 -1z"/>
     <path class="fil2" d="M370 76c11,-3 7,13 4,14 -11,5 -13,-18 -4,-14z"/>
     <path class="fil2" d="M375 69c5,3 12,11 12,17 0,6 5,7 10,4 1,-1 13,7 7,-9 -4,-9 -12,-7 -22,-12 0,0 -7,-1 -7,0z"/>
     <path class="fil2" d="M391 57c-3,15 6,5 17,16 6,7 6,10 0,17 -6,9 -6,4 -14,6 0,2 17,15 0,16 -6,0 -3,10 -2,12 3,7 -4,15 8,8 9,-5 17,13 15,-15 0,-3 11,-12 15,-3 3,7 -5,10 12,16 6,2 9,8 16,2 1,-1 1,-6 -2,-8 -2,-2 -11,-16 -15,-21 -1,-2 -10,-16 -14,-21 -7,-10 -12,-12 -18,-19 -2,-3 -10,-2 -15,-6 0,0 -3,-1 -3,0z"/>
     <path class="fil2" d="M396 151c1,-16 15,1 35,-11 15,-7 5,2 21,18 7,7 6,-22 15,-2 1,4 4,18 8,27 7,12 11,85 6,98 -2,5 -5,32 -11,27 -4,-3 -4,-28 1,-31 7,-5 -9,-14 -9,-23 0,-14 -9,-5 -12,-17 -6,-3 -26,20 -48,-2 -9,-9 -22,-8 -8,-23 7,-8 -6,-22 -6,-23 0,-7 8,-11 11,-23 1,-6 -3,-11 -3,-15z"/>
     <path class="fil2" d="M205 255c4,-3 31,-5 31,-5 0,11 -13,11 -24,11 -3,0 -8,-5 -7,-6z"/>
    </g>
   </g>
   <path class="fil0" d="M256 15c125,0 226,102 226,226 0,125 -101,226 -226,226 -125,0 -226,-101 -226,-226 0,-124 101,-226 226,-226z"/>
   <g>
    <g>
     <polygon class="fil3" points="210,376 134,393 134,251 210,233 283,251 359,233 359,376 283,394 "/>
    </g>
    <g>
     <g>
      <path class="fil3" d="M210 235l71 18 2 1 2 -1 71 -16 0 138 -73 17 -71 -18 -2 -1 -2 1 -71 16 0 -138 73 -17 0 0zm152 -5l-79 19 -73 -19 0 0 0 0 0 0 0 0 -79 19 0 148 79 -19 73 19 79 -19 0 -148 0 0z"/>
     </g>
    </g>
   </g>
   <polygon class="fil4" points="283,392 210,373 210,235 283,253 "/>
   <path class="fil3 str0" d="M310 420c-13,-11 -50,24 -56,-6 -6,-29 50,-34 94,-56 40,-8 58,23 90,41l-37 45c-39,-9 -94,85 -177,40 -26,-14 -66,-22 -94,-30 -10,-6 -18,-30 -5,-29 14,-2 65,14 77,16 48,8 106,-6 108,-21z"/>
   <g id="_2077769219504">
    <polygon class="fil5" points="324,336 315,342 325,322 334,342 "/>
    <polygon class="fil6" points="319,315 319,302 322,302 327,311 327,302 330,302 330,315 327,315 322,307 322,315 "/>
    <g>
     <line class="fil0 str1" x1="305" y1="352" x2="344" y2= "352" />
     <line class="fil0 str1" x1="325" y1="350" x2="325" y2= "354" />
     <line class="fil0 str1" x1="315" y1="350" x2="315" y2= "354" />
     <line class="fil0 str1" x1="306" y1="349" x2="306" y2= "354" />
     <line class="fil0 str1" x1="343" y1="349" x2="343" y2= "354" />
     <line class="fil0 str1" x1="334" y1="350" x2="334" y2= "354" />
    </g>
   </g>
  </g>
 </g>
</svg>
