<?xml version="1.0" encoding="UTF-8"?>
<!DOCTYPE svg PUBLIC "-//W3C//DTD SVG 1.1//EN" "http://www.w3.org/Graphics/SVG/1.1/DTD/svg11.dtd">
<!-- Creator: CorelDRAW X8 -->
<svg xmlns="http://www.w3.org/2000/svg" xml:space="preserve" width="512px" height="512px" version="1.1" style="shape-rendering:geometricPrecision; text-rendering:geometricPrecision; image-rendering:optimizeQuality; fill-rule:evenodd; clip-rule:evenodd"
viewBox="0 0 512 512"
 xmlns:xlink="http://www.w3.org/1999/xlink">
 <defs>
  <style type="text/css">
   <![CDATA[
    .str1 {stroke:#2B2E34;stroke-width:1.38858}
    .str0 {stroke:#2B2E34;stroke-width:1.38858;stroke-dasharray:2.777170 6.942924}
    .fil0 {fill:none}
    .fil4 {fill:#2B2E34}
    .fil2 {fill:#9A9B9F}
    .fil3 {fill:white}
    .fil1 {fill:white}
   ]]>
  </style>
    <clipPath id="id0">
     <path d="M256 15c133,0 241,108 241,241 0,133 -108,241 -241,241 -133,0 -241,-108 -241,-241 0,-133 108,-241 241,-241z"/>
    </clipPath>
    <clipPath id="id1">
     <path d="M256 15c133,0 241,108 241,241 0,133 -108,241 -241,241 -133,0 -241,-108 -241,-241 0,-133 108,-241 241,-241z"/>
    </clipPath>
 </defs>
 <g id="Layer_x0020_1">
  <metadata id="CorelCorpID_0Corel-Layer"/>
  <rect class="fil0" width="512" height="512"/>
  <g id="_2077777513552">
   <g style="clip-path:url(#id0)">
    <polygon class="fil1" points="15,15 497,15 497,497 15,497 "/>
   </g>
   <g style="clip-path:url(#id1)">
    <g>
     <path id="1" class="fil2" d="M29 177c16,-3 23,29 23,40 0,55 -16,27 36,49 30,13 -16,44 72,41 8,-1 9,10 35,13 22,1 9,26 1,35 -2,3 -10,41 1,41 24,0 62,11 62,39 0,4 9,51 9,51 28,21 12,9 47,-14 18,-13 19,-41 41,-54 22,-14 -14,-24 8,-40 0,-1 16,-34 -25,-17 -30,11 -38,-46 -61,-29 -24,19 -32,-12 -47,-11 -6,0 -68,-31 -67,-45 2,-29 -35,47 -40,-22 -5,-54 30,-5 42,-5 47,0 -5,-41 38,-65 47,-26 -1,-57 54,-52 24,1 35,-27 2,-26 -5,0 -21,-36 -44,-7 -11,14 -33,-13 -34,-11 -7,14 -2,75 -36,29 -17,-24 -40,-17 9,-36 13,-5 -2,-26 14,-16 10,6 11,43 51,3 24,-24 -47,-17 -47,-22 -1,-21 8,-20 -25,-7 -36,14 10,19 -1,38 -1,0 -23,10 -22,-10 1,-12 -27,-8 -11,13 10,14 -16,25 -20,7 -23,-8 -65,72 -65,90z"/>
     <path class="fil2" d="M205 26c11,0 22,17 37,9 1,0 -1,12 8,23 17,18 12,-1 29,19 0,0 16,10 16,-8 0,-7 -14,-27 3,-25 4,0 3,7 23,-14 6,-6 -3,-8 -26,-12 -22,-4 -71,-6 -89,5 -1,0 -2,3 -1,3z"/>
     <path class="fil2" d="M322 40c21,-9 3,1 28,0 4,0 8,16 -11,11 -4,-2 -20,4 -18,-10l1 -1z"/>
     <path class="fil2" d="M377 80c12,-2 7,14 4,15 -12,6 -13,-18 -4,-15z"/>
     <path class="fil2" d="M382 73c6,3 13,11 13,18 0,7 6,8 10,5 2,-2 14,7 8,-9 -4,-11 -13,-9 -23,-14 0,0 -8,0 -8,0z"/>
     <path class="fil2" d="M400 60c-4,17 6,6 17,17 7,8 7,12 1,19 -7,9 -7,3 -15,6 0,2 18,16 -1,17 -6,0 -3,10 -1,13 2,7 -5,15 8,8 9,-6 17,14 16,-16 0,-3 12,-13 16,-3 3,7 -5,10 12,17 7,2 10,9 17,3 2,-2 1,-7 -2,-9 -2,-2 -11,-17 -16,-22 -1,-2 -10,-18 -14,-23 -7,-10 -13,-12 -20,-20 -2,-3 -10,-2 -16,-7 0,0 -2,0 -2,0z"/>
     <path class="fil2" d="M405 160c0,-17 15,1 37,-11 15,-8 5,1 22,19 7,7 6,-24 16,-2 2,4 4,19 9,28 7,13 11,90 5,105 -2,5 -4,33 -11,28 -4,-4 -4,-29 1,-33 7,-5 -9,-15 -9,-25 0,-14 -10,-5 -14,-18 -6,-2 -27,22 -50,-2 -10,-9 -23,-8 -9,-24 8,-8 -6,-23 -6,-24 0,-8 9,-12 11,-25 2,-6 -2,-11 -2,-16z"/>
     <path class="fil2" d="M202 270c4,-3 33,-5 33,-5 0,12 -14,12 -26,12 -3,0 -8,-5 -7,-7z"/>
     <polygon class="fil3" points="180,340 241,304 375,362 422,508 180,508 "/>
    </g>
   </g>
   <path class="fil0" d="M256 15c133,0 241,108 241,241 0,133 -108,241 -241,241 -133,0 -241,-108 -241,-241 0,-133 108,-241 241,-241z"/>
   <path class="fil0 str0" d="M206 326c0,8 -4,23 -8,29 -2,3 -11,41 0,41 25,0 63,11 63,39 0,4 9,49 9,50 27,21 11,9 46,-15 19,-12 20,-40 41,-53 23,-14 -13,-23 8,-40 0,0 17,-33 -25,-16 -29,11 -37,-46 -61,-28 -24,18 -31,-13 -47,-12 -1,0 -6,-2 -12,-4l-14 9z"/>
   <polygon class="fil3" points="208,324 216,318 223,314 288,315 296,359 214,332 "/>
   <path class="fil0 str1" d="M256 309c-17,20 -8,22 1,27 4,4 9,6 16,4 8,-1 15,-8 17,-8"/>
   <g>
    <rect class="fil4" x="252" y="306" width="6.01166" height="6.01165"/>
    <rect class="fil3" x="253" y="307" width="3.88259" height="3.88258"/>
   </g>
   <g>
    <rect class="fil4" x="288" y="329" width="6.01166" height="6.01165"/>
    <rect class="fil3" x="289" y="330" width="3.88259" height="3.88258"/>
   </g>
   <line class="fil0" x1="324" y1="120" x2="374" y2= "147" />
   <line class="fil0" x1="290" y1="185" x2="338" y2= "213" />
   <path class="fil4" d="M267 286l-7 -3c-1,5 1,1 -2,21 13,-14 11,-11 15,-15l-6 -3zm91 -149l-12 -7 -13 -6c1,-3 5,-7 9,-8 4,-1 7,-1 11,1l0 0c3,2 5,4 6,8 2,4 1,10 -1,12zm-96 143l5 3 1 1 76 -150 0 0 13 6 -49 96c-2,4 -15,14 -25,34 -3,5 -7,14 -9,17l-5 -3 -1 0 76 -150 -1 0 -12 -7 -48 96c-2,4 -3,21 -13,40 -2,6 -7,14 -8,17z"/>
  </g>
 </g>
</svg>
