<?xml version="1.0" encoding="UTF-8"?>
<!DOCTYPE svg PUBLIC "-//W3C//DTD SVG 1.1//EN" "http://www.w3.org/Graphics/SVG/1.1/DTD/svg11.dtd">
<!-- Creator: CorelDRAW X8 -->
<svg xmlns="http://www.w3.org/2000/svg" xml:space="preserve" width="512px" height="512px" version="1.1" style="shape-rendering:geometricPrecision; text-rendering:geometricPrecision; image-rendering:optimizeQuality; fill-rule:evenodd; clip-rule:evenodd"
viewBox="0 0 512 512"
 xmlns:xlink="http://www.w3.org/1999/xlink">
 <defs>
  <style type="text/css">
   <![CDATA[
    .fil0 {fill:black}
   ]]>
  </style>
 </defs>
 <g id="Layer_x0020_1">
  <metadata id="CorelCorpID_0Corel-Layer"/>
  <g id="_2464209581136">
   <path class="fil0" d="M318 318l20 8c7,3 15,8 21,9 8,-12 14,-20 20,-35 5,-12 10,-31 10,-46l-56 0c0,15 -4,37 -9,49 -2,5 -5,11 -6,15zm-7 -72c13,0 14,1 13,-5 0,-3 0,-5 0,-8 -2,-15 -8,-38 -14,-49 -5,2 -17,4 -24,6 -9,1 -17,2 -27,2 0,6 -1,50 0,52 3,4 20,2 25,2 9,0 18,0 27,0zm-106 77c3,12 36,54 45,60 0,-5 1,-7 1,-10l-1 -14c0,-4 1,-5 1,-7 0,-3 -1,-3 -1,-7l0 -29c-11,0 -38,4 -45,7zm-47 -166c7,4 30,15 38,16 4,-17 35,-49 40,-56 -18,0 -48,15 -63,26 -4,3 -13,10 -15,14zm156 16c8,-1 31,-12 38,-16 -4,-4 -11,-10 -16,-14 -14,-12 -41,-25 -62,-26 1,2 19,23 22,26 8,12 11,17 18,30zm-40 210c2,-1 9,-2 12,-2 26,-7 38,-16 58,-31 3,-3 5,-4 8,-8 -7,-3 -32,-15 -39,-16 -4,17 -38,53 -39,57zm-70 -207c10,4 33,7 46,7l0 -67c-5,3 -8,9 -13,13 -8,8 -31,39 -33,47zm55 208c10,-7 43,-51 46,-61 -17,-4 -28,-7 -46,-7l0 68zm-101 -43c3,12 40,32 53,36 5,1 8,2 12,3 3,1 11,2 13,3 -1,-4 -3,-3 -5,-6 -2,-3 -3,-4 -6,-7 -2,-2 -3,-4 -5,-7 -11,-14 -15,-20 -24,-37 -4,1 -15,6 -19,7l-19 8zm101 -158c13,0 37,-3 47,-7 -8,-15 -34,-51 -47,-60l0 67zm-59 132c10,-1 20,-7 50,-7l0 -54 -65 0c0,30 13,54 15,61zm59 -10c0,5 11,2 26,5l25 5c0,-2 8,-21 10,-30l4 -25c1,-4 2,-6 -2,-6l-63 0 0 51zm-74 -60c5,0 5,1 9,1 4,0 4,-1 9,-1 5,0 7,1 10,1 4,0 5,-1 10,-1 6,0 8,1 12,1l15 -1 1 -15c0,-4 -1,-5 -1,-11 0,-5 1,-7 1,-11l-1 -16c-13,0 -26,-2 -38,-5 -5,-1 -8,-2 -13,-2 -1,4 -4,9 -5,13 -2,4 -3,9 -5,14 -2,10 -4,21 -4,33zm-64 -4l0 4c5,0 7,0 10,1 5,0 6,-1 11,-1 5,0 7,1 10,1 7,0 3,-2 24,0 0,-16 4,-36 9,-50 2,-5 5,-11 6,-15 -5,-1 -16,-6 -20,-8 -4,-1 -6,-2 -10,-4 -3,-2 -6,-4 -10,-4 -12,8 -30,53 -30,76zm0 16c0,24 11,52 24,70 2,3 5,6 6,8 6,-1 14,-6 20,-9l21 -8c-7,-13 -16,-44 -16,-64l-55 0 0 3zm198 -76c0,4 4,12 6,16 4,13 7,25 8,38 2,16 -5,9 22,11 4,0 5,-1 11,-1 5,0 7,1 11,1 4,0 7,-1 12,-1 0,-16 -5,-35 -10,-46 -4,-9 -14,-30 -21,-34 -7,1 -23,12 -39,16z"/>
   <path class="fil0" d="M55 182c14,10 34,5 44,-5 4,-4 8,-12 9,-19 2,-12 -1,-17 -5,-24 -25,-33 -67,-12 -64,23 2,11 9,20 16,25zm224 258c-4,-5 -14,-9 -24,-9 -10,0 -19,5 -24,10 -13,14 -12,39 0,48 14,20 60,14 60,-25 -1,-9 -6,-20 -12,-24zm180 -108c-14,-11 -33,-10 -45,3 -6,5 -10,12 -11,22 0,10 3,21 9,24 3,9 22,17 39,11 9,-4 15,-10 19,-19 7,-14 2,-32 -11,-41zm-101 71c-8,4 -59,35 -63,36l6 14 20 -12 53 -30c3,-2 6,-4 10,-6l21 -12c-1,-4 -3,-3 -8,-12l-19 11c-7,4 -14,7 -20,11zm-189 -319c-8,2 -54,33 -63,35 2,2 3,3 5,6 2,2 2,3 4,6l21 -12c3,-1 7,-4 10,-6 23,-12 48,-28 70,-40 0,-5 -3,-8 -5,-14 -7,4 -14,8 -21,12 -4,2 -20,11 -21,13zm59 -18c17,29 68,14 62,-25 -1,-9 -9,-21 -16,-24 -5,-5 -15,-6 -24,-5 -8,1 -14,5 -19,10 -11,11 -14,31 -3,44zm-84 349l34 19c11,6 22,13 33,19 1,-2 2,-4 3,-7 2,-2 3,-4 3,-7 -6,-2 -57,-34 -63,-36 -3,-2 -15,-8 -19,-11 -6,-3 -13,-8 -19,-11 -2,2 -3,3 -5,6 -2,3 -4,3 -5,6l38 22zm-81 -164l0 63c5,0 8,-1 15,-1l0 -77 0 -37c-6,0 -10,-1 -15,-2l0 54zm371 -7l0 69c7,0 10,1 15,1l0 -84 0 -32c-6,0 -8,1 -15,1l0 45zm32 -111c-3,-7 -14,-14 -23,-15 -24,-3 -41,15 -40,38 1,10 8,22 16,25 2,3 6,4 9,5 12,3 26,0 35,-9 4,-5 9,-12 9,-20 1,-8 0,-18 -6,-24zm-128 -36c6,4 55,33 59,34 5,-9 7,-8 8,-12 -4,-1 -52,-31 -57,-33l-47 -27 -6 14c5,1 37,21 43,24zm-296 276c5,18 36,31 56,11 15,-15 14,-40 -4,-53 -2,-1 -4,-2 -6,-4 -15,-5 -29,-1 -38,8 -5,4 -8,8 -10,15 -2,7 -1,18 2,23z"/>
  </g>
 </g>
</svg>
