<?xml version="1.0" encoding="UTF-8"?>
<!DOCTYPE svg PUBLIC "-//W3C//DTD SVG 1.1//EN" "http://www.w3.org/Graphics/SVG/1.1/DTD/svg11.dtd">
<!-- Creator: CorelDRAW X8 -->
<svg xmlns="http://www.w3.org/2000/svg" xml:space="preserve" width="512px" height="512px" version="1.1" style="shape-rendering:geometricPrecision; text-rendering:geometricPrecision; image-rendering:optimizeQuality; fill-rule:evenodd; clip-rule:evenodd"
viewBox="0 0 512 512"
 xmlns:xlink="http://www.w3.org/1999/xlink">
 <defs>
  <style type="text/css">
   <![CDATA[
    .fil0 {fill:none}
    .fil1 {fill:black}
   ]]>
  </style>
 </defs>
 <g id="Layer_x0020_1">
  <metadata id="CorelCorpID_0Corel-Layer"/>
  <rect class="fil0" width="512" height="512"/>
  <g id="_2464280328160">
   <path class="fil1" d="M449 264l24 0 0 86 -23 1 -1 -87zm-388 -17l0 0c2,1 2,-1 2,5 0,1 0,5 0,7 0,16 -2,32 12,27 4,-2 4,-6 4,-13 0,-6 0,-12 0,-19l10 4c4,1 10,2 13,4 2,7 -1,16 2,23 5,3 5,3 11,1 1,-2 1,-2 3,-3l0 -18 17 3 6 1c2,7 0,20 1,28 2,8 12,9 15,-1l1 -25 22 1c1,1 1,2 1,6 0,7 -2,17 8,17 11,0 7,-15 8,-24l23 -1 1 12 0 14c2,6 3,7 10,7 7,-5 5,-10 5,-25 0,-1 0,-4 0,-5l1 -3c2,-2 -1,0 2,-2l21 -3c1,11 -3,24 11,22 3,-1 3,-1 4,-4 2,-7 0,-15 1,-22l18 -5 5 -2c1,6 1,13 0,19 0,8 0,10 5,14 12,1 11,-5 11,-15 0,-8 0,-16 0,-25l13 -7c2,-1 4,-3 5,-4 3,-1 2,-2 5,-2 0,-2 -2,-2 1,-2 0,6 1,80 -1,85l-3 4 -1 3c-3,4 -13,15 -19,15 -2,-12 5,-20 -12,-19 -3,4 -4,5 -4,12 1,5 1,10 0,16l-4 0c-3,4 -15,7 -19,7 1,-16 2,-27 -10,-28 -6,3 -6,5 -6,13 0,6 0,13 0,20l-4 0 -17 3 -3 0c0,-8 2,-18 -1,-25 -3,-4 -4,-2 -9,-3 -2,1 -3,2 -5,3 -1,8 0,18 0,27l-23 1c0,0 0,-1 -1,-1 0,0 0,0 0,0l0 -7c0,-3 0,-6 0,-10 -3,-6 -4,-4 -11,-5 -3,3 -4,2 -5,10l0 10c0,3 1,1 -1,3l-22 -1c0,-1 0,0 0,-2 -1,-1 -1,-3 -1,-4 0,-3 0,-6 0,-8 1,-11 0,-18 -12,-15 -1,1 -1,1 -2,2l-1 3 0 22 -13 -2c-2,0 -1,0 -2,-1l-9 0 0 -15 0 -8 -2 -8c-3,-1 -3,-2 -7,-2 -1,0 -3,1 -3,2 -5,2 2,-2 -2,0 -2,2 1,0 -2,1l0 25 -23 -7 0 -22 -1 -3 -3 -3c-14,-3 -12,7 -12,19 -4,0 -2,0 -5,-2 -4,-3 -9,-6 -11,-10l-4 -5c-7,-8 -4,-31 -4,-43 0,-15 0,-32 0,-47 3,2 7,5 11,7l11 8zm295 66c-3,-4 -1,-13 -1,-17l0 -55c1,1 14,9 16,11l0 16 0 14 2 4c6,3 11,1 13,-5l0 -23 16 4 0 18 1 2 0 3c6,2 6,2 12,1 4,-8 1,-14 3,-22l16 0 -1 85c0,1 1,2 -6,2 -7,0 -17,-2 -17,-2l-2 0 -6 0c-1,-10 4,-35 -5,-37 -15,-5 -11,21 -11,31 -11,-1 -33,-18 -30,-30zm-316 -117c1,-7 14,-20 20,-21 3,-6 24,-13 31,-15l25 -7 12 -2 11 -1c3,-2 14,-3 17,-3l52 -1c4,0 7,0 9,2 6,-2 8,0 14,0 2,0 6,0 8,1 1,0 3,0 4,0 2,1 1,1 2,1 6,0 44,9 48,12 15,3 39,19 43,29 7,8 1,18 -3,24 -3,4 -8,9 -13,11l-5 2c-2,3 -4,4 -7,5l-14 6 -11 4c-4,2 -24,7 -29,6 -2,2 1,1 -3,2 -1,0 -3,0 -4,1 -2,0 -5,0 -8,1l-18 1 -5 1 -7 0c-3,1 -8,1 -12,1l-34 -1 -6 -1 -14 -1c-2,0 -12,-1 -14,-2 -5,0 -30,-6 -34,-8l-8 -3c0,0 0,0 0,0 -3,0 -10,-3 -12,-5 -3,-1 -5,-2 -8,-3 -1,-1 -2,-1 -3,-2 -3,-2 -2,0 -3,-2 -3,-1 -6,-3 -8,-5 -7,-6 -16,-15 -13,-25 0,-2 -1,0 0,-2zm99 -63c-4,1 -22,4 -25,4 -1,1 -1,0 -3,1 0,0 -2,1 -2,1 -3,1 -4,1 -7,1l-11 3c-2,2 -8,3 -11,4 -2,2 0,1 -3,1 -2,2 -1,1 -4,2 -1,1 -2,1 -4,2 -3,1 -4,2 -8,3l-9 5c0,1 -1,1 -1,2 -1,0 -1,0 -2,1 -2,1 0,0 -3,1 -1,2 0,1 -2,3l-9 8c-4,5 -6,8 -9,12 -4,20 -3,46 -2,67 0,22 -2,45 1,67l0 1 9 15 0 1c3,2 5,3 7,6 3,2 5,2 7,5l0 0 22 11c4,2 5,2 7,4 3,0 21,6 26,8 8,2 20,5 28,5 5,1 15,1 17,3 9,0 24,2 34,2 11,0 22,-1 34,-1 19,-1 59,-9 60,-9l18 -5c1,-2 10,-4 13,-6 4,-2 9,-5 14,-6 2,-3 5,-4 8,-5 1,-1 1,-1 2,-2 4,-3 1,-1 3,-2l10 -10 2 -2c6,5 5,8 21,18 8,4 17,9 27,10 2,1 4,1 6,1 1,1 1,1 2,1 2,1 1,0 2,1l13 1c11,0 23,0 34,0 6,0 12,0 17,0 9,0 11,-1 17,-2 1,-4 3,-4 4,-10 1,-27 -2,-71 0,-98 -2,-2 -4,-4 -6,-6 -3,-1 -6,-2 -12,-2 -5,0 -10,0 -15,0 -36,0 -71,1 -92,-20 -16,-16 -4,-28 -14,-44 -11,-18 -26,-24 -29,-27 -2,0 -22,-9 -23,-10l-4 -2 -13 -4c-7,-1 -13,-2 -20,-4 -5,-1 -15,-1 -19,-4l-2 0c-6,0 -16,0 -19,-2l-2 0c-9,0 -17,-1 -25,-1 -8,0 -17,1 -24,0 -3,1 -10,1 -16,2 -5,0 -9,1 -15,1z"/>
   <path class="fil1" d="M155 191l14 -4c14,-2 26,-3 41,0 3,1 5,1 9,2 1,0 3,1 3,1 3,2 2,1 4,3 4,0 9,4 10,8 -2,6 -18,14 -26,13 -2,1 2,0 -2,1 -1,1 -2,0 -3,1 -12,1 -38,1 -46,-4 -7,-1 -13,-4 -16,-9 -2,-3 0,-6 3,-8 2,-1 5,-3 9,-4zm2 -18c-7,2 -12,4 -18,8 -7,4 -8,7 -12,14 -1,4 -1,8 0,12 1,2 1,2 2,4 2,3 1,0 1,3l13 9 12 5c3,0 3,0 5,2l10 1c18,2 26,0 43,-1 4,-1 8,-2 12,-3 4,-1 8,-4 12,-4 2,-4 3,-3 6,-5 1,-1 3,-3 5,-5 3,-5 4,-10 4,-17 -4,-10 -10,-13 -18,-18 -11,-5 -18,-5 -30,-8l-20 0 -10 0c-2,1 -4,1 -8,2 -3,0 -5,1 -9,1z"/>
  </g>
 </g>
</svg>
