<?xml version="1.0" encoding="UTF-8"?>
<!DOCTYPE svg PUBLIC "-//W3C//DTD SVG 1.1//EN" "http://www.w3.org/Graphics/SVG/1.1/DTD/svg11.dtd">
<!-- Creator: CorelDRAW X8 -->
<svg xmlns="http://www.w3.org/2000/svg" xml:space="preserve" width="512px" height="512px" version="1.1" style="shape-rendering:geometricPrecision; text-rendering:geometricPrecision; image-rendering:optimizeQuality; fill-rule:evenodd; clip-rule:evenodd"
viewBox="0 0 512 512"
 xmlns:xlink="http://www.w3.org/1999/xlink">
 <defs>
  <style type="text/css">
   <![CDATA[
    .fil0 {fill:none}
    .fil1 {fill:black}
   ]]>
  </style>
 </defs>
 <g id="Layer_x0020_1">
  <metadata id="CorelCorpID_0Corel-Layer"/>
  <rect class="fil0" width="512" height="512"/>
  <path class="fil1" d="M416 306c-27,0 -25,-40 -1,-40 12,0 20,10 21,19 0,11 -9,21 -20,21zm-163 -290l4 0c11,1 21,5 28,13 24,23 6,64 -19,66l0 220c11,-5 40,-30 52,-38 11,-8 7,-8 7,-23 0,-13 0,-26 0,-39 -7,-1 -17,-10 -21,-15 -5,-5 -10,-18 -8,-28 6,-36 46,-47 69,-24 8,8 11,18 11,31 0,15 -15,35 -30,36l0 63c0,5 -15,14 -19,17l-50 38c-3,2 -8,6 -11,7l0 124c13,-9 24,-19 36,-29l70 -56c3,-3 6,-5 9,-8 4,-3 25,-17 25,-21 0,-24 2,-24 -5,-27 -2,0 -4,-1 -5,-2 -4,-3 -6,-5 -10,-8 -8,-9 -10,-18 -10,-30 0,-19 19,-37 39,-37 41,0 55,50 24,73 -5,3 -8,4 -13,6 0,7 0,15 0,22 1,13 -1,15 -10,22 -2,2 -4,3 -6,5 -4,3 -7,6 -11,9 -36,28 -70,58 -106,86 -4,3 -7,6 -11,9 -5,3 -8,6 -12,10 -3,2 -9,8 -13,8 -6,0 -10,-3 -11,-8 -1,-7 0,-39 0,-48 -4,-2 -8,-5 -12,-8l-124 -93c-28,-21 -24,-12 -24,-54 -7,-2 -14,-7 -18,-11 -30,-30 4,-83 46,-64 10,4 22,18 22,33l0 6c0,15 -14,35 -30,36l0 26c5,2 117,87 131,98 3,2 6,4 9,6l0 -101c0,-7 2,-12 -4,-16l-68 -51c-5,-3 -8,-4 -8,-12l0 -59c-6,-3 -12,-6 -17,-11 -12,-11 -17,-32 -8,-47l8 -11c4,-4 6,-5 12,-8 26,-12 51,8 55,33 2,11 -3,22 -8,29 -9,12 -21,13 -21,16l0 53c0,2 1,2 3,3l41 31c4,3 10,9 15,11l0 -180c-16,-1 -30,-22 -30,-38 0,-12 4,-21 12,-29l5 -4c6,-5 13,-7 20,-8zm-137 227l0 5c0,9 -9,17 -18,17 -6,0 -9,1 -14,-4 -17,-15 -1,-40 19,-33 6,1 13,8 13,15zm200 -67c0,-10 9,-19 17,-19l5 0c24,0 23,40 -2,39 -11,0 -20,-9 -20,-20zm-139 -20c-27,0 -26,-39 -1,-39 27,0 26,39 1,39zm60 -100c0,-25 39,-25 39,0 0,27 -39,27 -39,0z"/>
 </g>
</svg>
