<?xml version="1.0" encoding="UTF-8"?>
<!DOCTYPE svg PUBLIC "-//W3C//DTD SVG 1.1//EN" "http://www.w3.org/Graphics/SVG/1.1/DTD/svg11.dtd">
<!-- Creator: CorelDRAW X8 -->
<svg xmlns="http://www.w3.org/2000/svg" xml:space="preserve" width="512px" height="512px" version="1.1" style="shape-rendering:geometricPrecision; text-rendering:geometricPrecision; image-rendering:optimizeQuality; fill-rule:evenodd; clip-rule:evenodd"
viewBox="0 0 512 512"
 xmlns:xlink="http://www.w3.org/1999/xlink">
 <defs>
  <style type="text/css">
   <![CDATA[
    .fil0 {fill:none}
    .fil1 {fill:black}
   ]]>
  </style>
 </defs>
 <g id="Layer_x0020_1">
  <metadata id="CorelCorpID_0Corel-Layer"/>
  <rect class="fil0" width="512" height="512"/>
  <path class="fil1" d="M95 123l28 -28c15,8 41,31 55,31 7,0 32,-11 36,-14 15,-10 14,-26 19,-49 1,-4 3,-10 3,-15l38 0c3,0 2,2 3,5 1,3 1,4 1,7 7,33 5,47 30,57 33,12 25,15 67,-13 5,-3 9,-6 14,-9l28 28c-9,16 -31,40 -31,55 0,7 11,33 14,37 3,4 6,6 9,8 7,5 18,6 28,8l21 4c3,0 6,0 6,3l0 38c-8,0 -50,10 -55,13 -8,4 -10,9 -14,19 -10,27 -15,25 5,55l17 26 -28 28 -33 -22c-6,-4 -11,-7 -20,-9 -8,-1 -35,11 -40,15 -12,9 -12,23 -15,40 -2,6 -5,17 -5,23l-40 0 -9 -46c-5,-18 -16,-20 -30,-26 -4,-1 -6,-3 -9,-4 -2,-1 -9,-2 -12,-2 -9,1 -13,5 -19,9 -6,3 -11,7 -17,11 -6,4 -11,8 -17,11l-28 -28c8,-15 28,-37 31,-53 1,-8 -11,-35 -15,-40 -9,-12 -23,-12 -40,-15 -6,-2 -17,-5 -23,-5l0 -40 46 -9c8,-2 13,-6 17,-11 5,-6 6,-11 9,-19 8,-18 8,-24 -3,-40 -4,-6 -7,-11 -11,-17 -4,-6 -8,-11 -11,-17zm116 133c0,-17 11,-33 27,-40 36,-16 75,18 59,58 -10,24 -48,38 -72,13 -8,-8 -14,-20 -14,-31zm-14 -4l0 8c0,28 27,55 55,55l8 0c28,0 55,-27 55,-55l0 -8c0,-28 -27,-55 -55,-55l-8 0c-28,0 -55,27 -55,55zm-32 4c0,-5 1,-15 2,-20 5,-22 19,-41 37,-54 31,-22 72,-22 104,-1 41,29 51,84 23,126 -6,9 -14,17 -23,23 -22,15 -45,21 -72,15 -15,-4 -33,-14 -44,-25 -16,-15 -27,-41 -27,-64zm-13 -5c0,19 1,33 9,49 17,34 52,60 90,60 33,0 56,-8 79,-30 31,-31 39,-81 21,-118 -12,-23 -27,-39 -50,-50 -38,-19 -88,-11 -119,20 -17,17 -30,43 -30,69zm45 -163c-4,0 -7,2 -10,3 -11,5 -5,7 -26,-8 -18,-11 -38,-30 -59,-10 -5,5 -10,10 -14,15 -18,17 -34,29 -16,56l23 34c0,2 -2,6 -4,9 -1,3 -3,7 -3,10l-44 9c-14,3 -26,14 -26,27l0 46c0,13 11,24 25,27l45 9c0,8 8,16 7,19 -3,10 -30,37 -30,54 0,17 10,24 23,36 18,19 29,34 56,16l34 -23c3,-1 11,7 19,7l9 44c3,14 13,26 27,26l46 0c13,0 24,-12 27,-25l9 -45c3,0 7,-2 10,-3 11,-5 4,-7 26,8 6,3 11,7 17,11 27,18 38,3 56,-16 5,-4 10,-9 15,-14 20,-21 1,-41 -10,-59 -15,-22 -13,-15 -8,-26 1,-3 3,-7 3,-10l44 -9c14,-3 26,-13 26,-27l0 -46c0,-13 -12,-24 -25,-27 -8,-2 -14,-3 -22,-4l-23 -5c0,-6 -8,-16 -7,-19 1,-2 10,-15 12,-17 9,-14 18,-24 18,-39 0,-15 -14,-26 -23,-34 -18,-19 -30,-33 -56,-16l-34 23c-2,0 -6,-2 -9,-4 -3,-1 -7,-3 -10,-3l-9 -44c-3,-14 -14,-26 -27,-26l-46 0c-7,0 -14,5 -18,8 -2,2 -4,5 -6,8 -2,3 -2,6 -3,9l-9 45z"/>
 </g>
</svg>
