<?xml version="1.0" encoding="UTF-8"?>
<!DOCTYPE svg PUBLIC "-//W3C//DTD SVG 1.1//EN" "http://www.w3.org/Graphics/SVG/1.1/DTD/svg11.dtd">
<!-- Creator: CorelDRAW X8 -->
<svg xmlns="http://www.w3.org/2000/svg" xml:space="preserve" width="512px" height="512px" version="1.1" style="shape-rendering:geometricPrecision; text-rendering:geometricPrecision; image-rendering:optimizeQuality; fill-rule:evenodd; clip-rule:evenodd"
viewBox="0 0 512 512"
 xmlns:xlink="http://www.w3.org/1999/xlink">
 <defs>
  <style type="text/css">
   <![CDATA[
    .fil0 {fill:none}
    .fil1 {fill:#FEFEFE}
   ]]>
  </style>
 </defs>
 <g id="Layer_x0020_1">
  <metadata id="CorelCorpID_0Corel-Layer"/>
  <rect class="fil0" width="512" height="512"/>
  <g id="_2193326043760">
   <g>
    <g>
     <path class="fil1" d="M392 77l-73 0c-3,-31 -30,-56 -63,-56 -33,0 -60,25 -63,56l-73 0c-30,0 -54,24 -54,54l0 3c0,22 14,42 34,50l0 253c0,30 24,54 54,54l204 0c30,0 54,-24 54,-54l0 -253c20,-8 34,-28 34,-50l0 -3c0,-30 -24,-54 -54,-54zm-136 -30c19,0 34,13 37,30l-74 0c3,-17 18,-30 37,-30zm131 390c0,16 -13,28 -29,28l-204 0c-16,0 -29,-12 -29,-28l0 -250 262 0 0 250zm33 -303c0,15 -12,28 -28,28l-272 0c-16,0 -28,-13 -28,-28l0 -3c0,-16 12,-28 28,-28l272 0c16,0 29,12 29,28l-1 3 0 0z"/>
     <path class="fil1" d="M188 433c7,0 12,-6 12,-13l0 -143c0,-7 -5,-13 -12,-13 -7,0 -13,6 -13,13l0 143c0,7 6,13 13,13z"/>
     <path class="fil1" d="M256 433c7,0 13,-6 13,-13l0 -143c0,-7 -6,-13 -13,-13 -7,0 -13,6 -13,13l0 143c0,7 6,13 13,13z"/>
     <path class="fil1" d="M324 433c7,0 13,-6 13,-13l0 -143c0,-7 -6,-13 -13,-13 -7,0 -12,6 -12,13l0 143c0,7 5,13 12,13z"/>
    </g>
   </g>
  </g>
 </g>
</svg>
