<?xml version="1.0" encoding="UTF-8"?>
<!DOCTYPE svg PUBLIC "-//W3C//DTD SVG 1.1//EN" "http://www.w3.org/Graphics/SVG/1.1/DTD/svg11.dtd">
<!-- Creator: CorelDRAW X8 -->
<svg xmlns="http://www.w3.org/2000/svg" xml:space="preserve" width="512px" height="512px" version="1.1" style="shape-rendering:geometricPrecision; text-rendering:geometricPrecision; image-rendering:optimizeQuality; fill-rule:evenodd; clip-rule:evenodd"
viewBox="0 0 512 512"
 xmlns:xlink="http://www.w3.org/1999/xlink">
 <defs>
  <style type="text/css">
   <![CDATA[
    .fil0 {fill:none}
    .fil1 {fill:#FEFEFE}
   ]]>
  </style>
 </defs>
 <g id="Layer_x0020_1">
  <metadata id="CorelCorpID_0Corel-Layer"/>
  <rect class="fil0" width="512" height="512"/>
  <g id="_2193333160704">
   <path class="fil1" d="M21 61l0 303c0,15 24,16 26,2l0 -276c0,-13 -3,-30 5,-37 6,-6 26,-4 38,-4 29,0 269,1 274,0 8,-2 14,-13 5,-22 -2,-3 -5,-4 -10,-4l-300 0c-20,0 -38,18 -38,38z"/>
   <path class="fil1" d="M77 118l0 302c0,15 24,17 26,3l0 -276c0,-13 -2,-31 5,-37 7,-6 26,-4 39,-4 28,0 268,1 274,-1 7,-2 13,-12 5,-21 -3,-3 -5,-4 -10,-4l-301 0c-20,0 -38,18 -38,38z"/>
   <path class="fil1" d="M491 451l0 -303c0,-6 -4,-10 -9,-11 0,-1 -1,-1 -1,-1l0 0 0 0 0 0c-1,0 -2,0 -3,0l-1 0 -300 0c-20,0 -38,18 -38,38l0 303c0,6 4,10 9,11 0,0 1,1 1,1l0 0 0 0 0 0c1,0 2,0 3,0l1 0 300 0c20,0 38,-18 38,-38zm-26 -289l0 260c0,13 3,30 -5,37 -6,6 -26,4 -38,4 -24,0 -201,-1 -257,0l0 -260c0,-13 -3,-30 5,-37 6,-6 26,-4 38,-4 24,0 201,1 257,0z"/>
  </g>
 </g>
</svg>
