<?xml version="1.0" encoding="UTF-8"?>
<!DOCTYPE svg PUBLIC "-//W3C//DTD SVG 1.1//EN" "http://www.w3.org/Graphics/SVG/1.1/DTD/svg11.dtd">
<!-- Creator: CorelDRAW X8 -->
<svg xmlns="http://www.w3.org/2000/svg" xml:space="preserve" width="512px" height="512px" version="1.1" style="shape-rendering:geometricPrecision; text-rendering:geometricPrecision; image-rendering:optimizeQuality; fill-rule:evenodd; clip-rule:evenodd"
viewBox="0 0 512 512"
 xmlns:xlink="http://www.w3.org/1999/xlink">
 <defs>
  <style type="text/css">
   <![CDATA[
    .fil0 {fill:none}
    .fil1 {fill:#2B2E35;fill-rule:nonzero}
   ]]>
  </style>
 </defs>
 <g id="Layer_x0020_1">
  <metadata id="CorelCorpID_0Corel-Layer"/>
  <rect class="fil0" width="512" height="512"/>
  <path class="fil1" d="M256 18l95 101 -85 0 0 127 127 0 0 -85 101 95 -101 95 0 -85 -127 0 0 127 85 0 -95 101 -95 -101 85 0 0 -127 -127 0 0 85 -101 -95 101 -95 0 85 127 0 0 -127 -85 0 95 -101zm48 51m4 50m-42 64m63 63m64 -42m50 4m0 96m-50 4m-64 -42m-63 63m42 64m-4 50m-96 0m-4 -50m42 -64m-63 -63m-64 42m-50 -4m0 -96m50 -4m64 42m63 -63m-42 -64m4 -50"/>
 </g>
</svg>
