<?xml version="1.0" encoding="UTF-8"?>
<!DOCTYPE svg PUBLIC "-//W3C//DTD SVG 1.1//EN" "http://www.w3.org/Graphics/SVG/1.1/DTD/svg11.dtd">
<!-- Creator: CorelDRAW 2019 (64-Bit) -->
<svg xmlns="http://www.w3.org/2000/svg" xml:space="preserve" width="512px" height="512px" version="1.1" style="shape-rendering:geometricPrecision; text-rendering:geometricPrecision; image-rendering:optimizeQuality; fill-rule:evenodd; clip-rule:evenodd"
viewBox="0 0 512 512"
 xmlns:xlink="http://www.w3.org/1999/xlink"
 xmlns:xodm="http://www.corel.com/coreldraw/odm/2003">
 <defs>
  <style type="text/css">
   <![CDATA[
    .fil0 {fill:none}
    .fil1 {fill:#FEFEFE}
   ]]>
  </style>
 </defs>
 <g id="Layer_x0020_1">
  <metadata id="CorelCorpID_0Corel-Layer"/>
  <rect class="fil0" width="512" height="512"/>
  <path class="fil1" d="M210.448 228.691c-9.342,0 -9.151,-9.158 -9.107,-16.379l0.007 -77.37c0,-16.035 1.105,-36.338 -0.026,-51.852 -2.299,-31.538 -50.894,-33.398 -53.853,0.717l0.178 85.721c0,46.417 0,92.834 0,139.251l-14.175 -18.589c-10.631,-14.149 -24.463,-37.964 -38.478,-44.34 -12.981,-5.912 -26.419,-3.804 -35.888,5.328 -12.365,11.927 -12.301,30.305 -3.569,44.137 23.389,37.069 51.592,77.313 75.903,115.226 22.856,35.64 48.83,61.208 91.925,71.889 14.467,3.588 30.344,5.894 46.462,6.554l18.893 0c19.515,-0.813 38.72,-4.242 55.517,-10.916 55.765,-22.151 72.81,-72.366 72.81,-129.242 0,-30.204 1.6,-219.701 -1.295,-233.52 -2.134,-10.173 -12.791,-20.404 -23.282,-20.404 -8.554,0 -12.771,-0.324 -20.443,5.944 -3.645,2.979 -6.42,6.948 -8.154,11.876 -3.353,9.526 -1.435,27.689 -1.435,39.514 0,27.015 -0.07,54.024 0.032,81.04 0.076,19.198 -16.925,15.508 -17.376,4.566 -0.546,-13.095 0.051,-27.733 0.051,-41.006l0 -121.964c0.146,-37.698 -30.127,-38.098 -42.409,-29.664 -8.796,6.04 -12.257,14.251 -12.2,28.756l0.025 142.006c0.083,8.758 -1.626,12.721 -9.125,12.721 -9.622,0 -8.193,-11.355 -8.193,-20.938l0 -149.26c0.007,-11.151 -0.425,-18.251 -5.296,-24.735 -5.157,-6.859 -12.683,-10.288 -20.208,-10.758l-3.62 0c-7.64,0.476 -14.867,3.982 -19.128,9.99 -2.146,3.029 -3.956,5.08 -4.934,9.633 -3.011,14.016 -1.423,136.66 -1.417,164.221 0,10.098 2.039,21.847 -8.192,21.847z"/>
 </g>
</svg>
