<?xml version="1.0" encoding="UTF-8"?>
<!DOCTYPE svg PUBLIC "-//W3C//DTD SVG 1.1//EN" "http://www.w3.org/Graphics/SVG/1.1/DTD/svg11.dtd">
<!-- Creator: CorelDRAW X8 -->
<svg xmlns="http://www.w3.org/2000/svg" xml:space="preserve" width="512px" height="512px" version="1.1" style="shape-rendering:geometricPrecision; text-rendering:geometricPrecision; image-rendering:optimizeQuality; fill-rule:evenodd; clip-rule:evenodd"
viewBox="0 0 512 512"
 xmlns:xlink="http://www.w3.org/1999/xlink">
 <defs>
  <style type="text/css">
   <![CDATA[
    .str0 {stroke:black;stroke-width:0.694096}
    .str1 {stroke:black;stroke-width:0.694489}
    .fil0 {fill:none}
    .fil1 {fill:#2B2E35}
   ]]>
  </style>
 </defs>
 <g id="Layer_x0020_1">
  <metadata id="CorelCorpID_0Corel-Layer"/>
  <rect class="fil0" width="512" height="512"/>
  <g id="_2193325129264">
   <path class="fil1 str0" d="M299 408c-31,0 -57,-9 -79,-31 -17,-17 -32,-44 -32,-70 0,-22 2,-32 11,-52 14,-33 54,-61 92,-61 33,0 57,9 80,32 37,37 42,92 12,137 -4,6 -7,9 -12,14 -5,5 -8,7 -13,11 -16,11 -37,20 -59,20zm-134 -111c0,24 3,40 12,59 7,15 16,27 27,38 36,36 90,47 140,28 18,-7 22,-12 35,-21 4,3 38,38 45,44l33 33c6,7 7,10 15,10 7,0 10,-6 10,-13 0,-5 -14,-18 -20,-23 -9,-9 -63,-63 -66,-67 1,-3 4,-5 5,-8 64,-90 -6,-206 -102,-206 -39,0 -69,12 -96,38 -22,22 -38,55 -38,88z"/>
   <path class="fil1 str1" d="M95 20l322 0c37,0 67,27 67,59l0 189 -19 0 0 -174c0,-29 -28,-54 -61,-54l-296 0c-33,0 -61,25 -61,54l0 324c0,29 28,54 61,54l214 0 0 20 -227 0c-37,0 -67,-27 -67,-59l0 -354c0,-32 30,-59 67,-59z"/>
  </g>
 </g>
</svg>
