<?xml version="1.0" encoding="UTF-8"?>
<!DOCTYPE svg PUBLIC "-//W3C//DTD SVG 1.1//EN" "http://www.w3.org/Graphics/SVG/1.1/DTD/svg11.dtd">
<!-- Creator: CorelDRAW X8 -->
<svg xmlns="http://www.w3.org/2000/svg" xml:space="preserve" width="512px" height="512px" version="1.1" style="shape-rendering:geometricPrecision; text-rendering:geometricPrecision; image-rendering:optimizeQuality; fill-rule:evenodd; clip-rule:evenodd"
viewBox="0 0 512 512"
 xmlns:xlink="http://www.w3.org/1999/xlink">
 <defs>
  <style type="text/css">
   <![CDATA[
    .str0 {stroke:black;stroke-width:0.3}
    .fil0 {fill:none}
    .fil1 {fill:black}
    .fil2 {fill:#303030}
   ]]>
  </style>
    <clipPath id="id0">
     <path d="M308 305c-3,3 -12,1 -23,-4 -12,-5 -26,-14 -39,-22 -13,-8 -25,-16 -39,-20 -14,-5 -30,-7 -46,-7 -16,0 -32,3 -40,4 -8,1 -8,1 -8,-4 1,-4 2,-14 4,-25 2,-12 5,-27 10,-41 4,-13 11,-26 18,-38 8,-12 16,-22 21,-27 4,-5 4,-5 8,-2 3,4 11,10 22,20 12,10 28,24 42,34 13,10 25,17 36,22 11,5 22,7 26,16 5,10 4,25 4,39 -1,13 0,26 2,35 2,10 5,17 2,20z"/>
    </clipPath>
 </defs>
 <g id="Layer_x0020_1">
  <metadata id="CorelCorpID_0Corel-Layer"/>
  <rect class="fil0" width="512" height="512"/>
  <g id="_2193288581392">
   <path class="fil1" d="M350 320c0,0 0,0 0,0l1 1c0,0 0,0 0,0 0,0 0,-1 0,-1l0 -1c0,1 0,1 -1,1z"/>
   <path class="fil1" d="M352 319l0 1c0,0 1,0 1,0l0 -1c0,0 -1,0 -1,0z"/>
   <path class="fil1" d="M354 320c0,0 0,0 1,0l0 -1c0,0 -1,0 -1,0l0 1z"/>
   <path class="fil1" d="M346 322c1,0 1,0 1,0l0 -1c0,0 0,0 0,0l-1 1z"/>
   <path class="fil1" d="M349 320l1 1c-1,0 -1,1 -1,1l-1 -1c1,0 1,0 1,-1z"/>
   <path class="fil1" d="M360 320c0,0 0,0 0,0l0 -1c0,0 0,0 0,0 -1,0 -1,0 -1,0l1 1c0,0 0,0 0,0z"/>
   <path class="fil1" d="M359 321l-1 -1c0,0 0,0 -1,0l1 1c0,0 0,0 1,0z"/>
   <path class="fil1" d="M357 320c-1,0 -1,0 -1,-1l-1 1c1,0 1,1 1,1l1 -1z"/>
   <path class="fil1" d="M364 318c0,0 -1,0 -1,0l0 1c0,0 1,0 1,0l0 -1z"/>
   <path class="fil1" d="M361 319l0 -1c0,0 1,0 1,0l0 1c0,0 0,0 -1,0z"/>
  </g>
  <g id="_2193288605168">
   <path class="fil2 str0" d="M159 114c-2,4 -7,9 -10,13 -15,18 -25,39 -33,61 -5,16 -10,42 -10,60 -22,2 -63,17 -69,18l0 -158 116 0c3,0 5,4 6,6zm191 -6c-2,4 -5,7 -7,10 -15,17 -41,58 -43,79 -24,-2 -75,-37 -93,-56 -7,-6 -21,-19 -25,-26 6,-10 12,-7 35,-7l133 0zm23 0l102 0 0 67c0,5 -17,11 -21,12 -9,4 -17,7 -26,9 -34,10 -59,13 -93,9 -7,-1 -13,-3 -20,-3 1,-19 26,-58 39,-74 3,-4 15,-20 19,-20zm-25 114c50,0 71,-4 115,-22 5,-2 8,-4 12,-5l0 61c-24,13 -25,18 -59,31 -33,13 -51,17 -88,17 -5,0 -6,-1 -10,-1 -1,-13 -14,-33 -8,-79 1,-8 0,-8 8,-6 8,1 19,4 30,4zm-47 77c-10,-1 -25,-10 -33,-16 -12,-8 -14,-12 -30,-20 -26,-14 -52,-19 -88,-19 -12,0 -18,1 -29,1 0,-37 20,-85 43,-113 2,-2 3,-3 5,-6 7,5 20,20 27,26l29 25c11,7 21,14 32,20 7,3 32,14 39,15 -5,22 -3,68 5,87zm174 -25l0 130 -83 0c-9,0 -15,-12 -20,-17 -6,-7 -11,-12 -17,-20 -8,-10 -26,-36 -29,-48 19,0 30,0 46,-3 32,-5 76,-24 103,-42zm-346 130l-92 0 0 -122c4,0 11,-3 15,-5 13,-4 41,-13 52,-13 0,32 3,49 9,78 2,11 4,20 7,31l9 31zm236 0l-218 0c-4,-8 -7,-21 -10,-30 -11,-33 -17,-73 -17,-110 0,-6 7,-3 14,-4 48,-6 85,6 120,32 12,10 29,19 44,22 16,4 6,0 20,25 16,27 18,28 36,52l9 8c3,4 0,1 2,5zm125 8l0 -312c0,-3 -3,-7 -7,-7l-454 0c-4,0 -7,4 -7,7l0 312c0,3 3,7 7,7l454 0c4,0 7,-4 7,-7z"/>
   <g>
   </g>
   <g style="clip-path:url(#id0)">
    <g id="_2193288606736">
     <path class="fil1" d="M221 226c-4,-2 -8,-5 -13,-8 -2,-1 -4,-2 -6,-4 0,-2 1,-4 1,-5 2,-8 5,-16 9,-24 0,0 1,0 1,1 5,3 9,6 13,8l0 0c4,2 7,4 12,7 2,2 4,3 6,4 0,2 0,4 -1,6 -1,8 -5,16 -8,24 -1,0 -1,-1 -2,-1 -4,-3 -9,-6 -12,-8l0 0zm7 -36l0 -1c-3,-2 -8,-5 -12,-7 -1,-1 -2,-1 -2,-2 4,-8 9,-16 13,-24 2,2 4,3 6,4l-1 3c2,2 5,4 8,6 3,8 5,19 5,31 -2,-1 -3,-2 -5,-3 -5,-3 -8,-5 -12,-8l0 1zm7 -30l0 -3c1,1 1,3 2,4l-2 -1zm-1 -5c-1,-1 -3,-2 -4,-3 1,-1 2,-2 2,-4 3,-4 5,-8 7,-11l2 -6 -3 -1c-3,5 -6,10 -10,16 -1,1 -1,2 -2,4 -1,-1 -2,-1 -3,-2 -6,-4 -12,-8 -19,-12 3,-4 5,-8 7,-11l-5 -1c-1,3 -3,6 -6,10 -9,-5 -19,-10 -28,-13l2 -4 -5 -1 -2 3c-1,0 -2,0 -3,0 -10,-2 -19,-2 -27,-1 2,-3 3,-5 4,-8l-5 -1c-1,3 -3,7 -6,10 -4,1 -8,3 -12,4l-1 1 -1 5c1,0 2,-1 4,-1 2,-1 4,-2 7,-3 -5,9 -11,18 -16,27l-4 20c1,-3 3,-7 5,-11 0,0 0,0 0,0 9,-3 20,-6 33,-5 -6,10 -11,21 -14,31 -11,1 -20,4 -28,6l-1 0 -1 6c1,0 3,-1 4,-1 7,-3 15,-5 25,-6 0,1 0,1 0,1 -2,9 -2,17 -1,24l0 0c-10,0 -19,2 -26,4 -1,-6 -2,-12 -2,-19l-4 16c1,2 1,3 1,5 0,0 -1,0 -1,0l-1 1 -1 6c1,-1 2,-2 4,-2 0,0 0,0 1,0 0,2 1,4 1,6 2,3 3,6 4,9l6 1c-1,-3 -3,-7 -5,-12 -1,-2 -1,-4 -2,-6 7,-2 16,-4 25,-4 1,7 3,13 5,18 1,4 3,7 4,10l6 1c-2,-3 -4,-7 -6,-12 -1,-5 -3,-10 -4,-16 3,0 5,0 8,1 8,1 17,5 25,9 1,6 3,11 4,15 2,4 3,7 4,10l6 1c-1,-3 -3,-8 -5,-13 -1,-3 -2,-6 -3,-10 9,5 18,11 27,16 0,1 1,2 2,2 0,0 0,1 1,1 1,3 2,7 3,9l7 2 -1 -2c1,1 3,2 4,3 0,2 -1,3 -2,4 -3,4 -5,8 -7,12l-1 5 3 1c2,-4 5,-10 9,-15 1,-2 2,-3 3,-4 0,0 1,1 2,2 6,3 12,7 19,11 -3,4 -5,8 -7,12l5 1c2,-3 4,-7 6,-10 9,5 19,10 29,13l-3 3 5 1 2 -3c1,0 3,1 4,1 9,2 18,2 26,0 -1,3 -3,6 -4,8l5 1c2,-3 4,-6 6,-10 5,-1 9,-2 12,-4l1 0 2 -6c-2,1 -3,1 -5,2 -2,1 -4,1 -6,2 5,-8 10,-17 15,-26l5 -21c-2,4 -4,8 -5,11 -1,0 -1,0 -1,0 -8,4 -20,7 -33,6 6,-10 11,-21 14,-32 11,0 21,-3 28,-6l1 0 1 -6c-1,1 -2,1 -4,2 -6,2 -15,5 -25,5 0,0 1,0 1,-1 1,-8 1,-16 1,-24l0 0c9,0 18,-2 25,-4 2,6 3,13 3,20l3 -16c0,-2 -1,-4 -1,-5 0,-1 1,-1 1,-1l1 0 2 -6c-2,1 -3,1 -5,2 0,0 0,0 0,0 -1,-2 -1,-4 -2,-6 -1,-4 -3,-7 -4,-10l-6 -1c2,3 4,8 5,13 1,2 2,3 2,5 -7,3 -16,4 -25,4 -1,-7 -3,-13 -5,-18 -1,-3 -2,-7 -3,-9l-7 -2c2,4 4,8 6,13 1,4 3,10 4,16 -2,0 -5,-1 -7,-1 -9,-2 -17,-5 -26,-10 -1,-5 -2,-10 -4,-15 -1,-3 -3,-6 -4,-9l-6 -1c2,3 4,7 6,12 1,3 2,7 3,10 -10,-5 -19,-11 -27,-16 -1,0 -2,-1 -3,-2 0,0 0,0 0,0 -2,-4 -3,-7 -4,-10l-6 -1 0 1zm-23 108c-1,-2 -1,-3 -2,-4l3 1 -1 3zm3 -3l1 -4c-3,-1 -6,-3 -9,-5 -2,-8 -5,-19 -4,-31 1,1 2,2 4,2 4,3 8,6 12,8l0 0c4,2 8,5 13,8 0,0 1,1 1,1 -4,8 -8,16 -13,24 -2,-1 -4,-2 -5,-3zm35 -52c7,5 16,10 24,14 -2,9 -7,19 -12,29 -8,-4 -15,-9 -22,-14 4,-8 7,-17 9,-25 0,-1 0,-3 1,-4l0 0zm29 16c6,3 13,5 19,7 5,1 9,1 13,1 -3,10 -8,21 -14,31 -2,0 -3,0 -5,0 -8,-2 -17,-6 -25,-10 5,-9 9,-19 12,-29l0 0zm2 -32c8,4 16,7 24,9 3,0 6,1 9,1 1,7 1,15 -1,23 0,1 0,2 -1,2 -4,0 -8,0 -13,-1 -6,-1 -12,-4 -19,-7 0,0 0,0 0,0 2,-10 2,-19 1,-27l0 0zm-34 -19c9,5 19,11 29,17 1,8 1,17 -1,27 -8,-4 -17,-9 -25,-14 1,-12 -1,-22 -3,-30l0 0zm-9 69c7,4 14,9 22,13 -5,8 -9,16 -14,23 0,0 0,1 -1,1 -6,-4 -12,-8 -18,-12 -1,0 -2,-1 -3,-1 5,-8 9,-16 14,-24l0 0zm12 39c0,0 0,0 0,-1 5,-7 10,-15 14,-23 9,5 18,9 27,10 1,1 2,1 3,1 -3,6 -7,12 -10,18 -2,3 -4,6 -6,8 -9,-2 -19,-7 -28,-13l0 0zm66 11c-1,2 -1,3 -2,4 -9,2 -19,2 -29,0 -1,0 -1,0 -2,0 1,-3 3,-5 5,-8 3,-6 8,-13 12,-19 12,1 24,-2 32,-4 -5,9 -11,19 -16,27zm-117 -81c-8,-4 -17,-9 -25,-13 3,-10 7,-20 12,-29 8,4 15,9 23,13 -5,9 -8,17 -10,26 0,1 0,2 0,3l0 0zm-30 -16c-6,-2 -13,-5 -19,-6 -4,-1 -9,-2 -13,-2 3,-10 9,-21 14,-31 2,0 4,1 5,1 8,2 17,5 26,10 -5,9 -10,19 -13,28l0 0zm-2 32c-8,-3 -16,-6 -23,-8 -3,-1 -6,-1 -9,-1 -1,-8 -1,-16 1,-24 0,0 0,-1 0,-2 4,0 9,1 13,2 6,1 13,3 19,6 0,0 0,1 0,1 -2,9 -2,18 -1,26l0 0zm34 20c-9,-6 -18,-12 -28,-17 -2,-8 -2,-18 0,-28 8,5 17,10 25,15 -1,11 1,22 3,30l0 0zm10 -69c-7,-5 -15,-9 -23,-14 5,-7 10,-15 14,-22 0,-1 1,-1 1,-1 6,3 13,7 19,11 0,1 1,1 2,2 -4,7 -9,15 -13,24l0 0zm-12 -40c-1,0 -1,1 -1,1 -4,7 -9,15 -14,23 -9,-4 -18,-8 -27,-10 -1,0 -2,0 -3,0 4,-7 7,-13 11,-18 2,-3 4,-6 5,-9 10,3 19,8 29,13l0 0zm-67 -11c1,-1 2,-2 2,-3 9,-2 19,-3 30,-1 0,1 1,1 1,1 -1,2 -3,5 -4,7 -4,6 -8,13 -12,20 -13,-1 -24,1 -33,4 5,-10 11,-19 16,-28z"/>
    </g>
   </g>
   <path class="fil0" d="M308 305c-3,3 -12,1 -23,-4 -12,-5 -26,-14 -39,-22 -13,-8 -25,-16 -39,-20 -14,-5 -30,-7 -46,-7 -16,0 -32,3 -40,4 -8,1 -8,1 -8,-4 1,-4 2,-14 4,-25 2,-12 5,-27 10,-41 4,-13 11,-26 18,-38 8,-12 16,-22 21,-27 4,-5 4,-5 8,-2 3,4 11,10 22,20 12,10 28,24 42,34 13,10 25,17 36,22 11,5 22,7 26,16 5,10 4,25 4,39 -1,13 0,26 2,35 2,10 5,17 2,20z"/>
  </g>
 </g>
</svg>
