<?xml version="1.0" encoding="UTF-8"?>
<!DOCTYPE svg PUBLIC "-//W3C//DTD SVG 1.1//EN" "http://www.w3.org/Graphics/SVG/1.1/DTD/svg11.dtd">
<!-- Creator: CorelDRAW X8 -->
<svg xmlns="http://www.w3.org/2000/svg" xml:space="preserve" width="512px" height="512px" version="1.1" style="shape-rendering:geometricPrecision; text-rendering:geometricPrecision; image-rendering:optimizeQuality; fill-rule:evenodd; clip-rule:evenodd"
viewBox="0 0 512 512"
 xmlns:xlink="http://www.w3.org/1999/xlink">
 <defs>
  <style type="text/css">
   <![CDATA[
    .fil0 {fill:none}
    .fil1 {fill:#FEFEFE}
   ]]>
  </style>
 </defs>
 <g id="Layer_x0020_1">
  <metadata id="CorelCorpID_0Corel-Layer"/>
  <rect class="fil0" width="512" height="512"/>
  <g id="M81SCC.tif_10_">
   <g id="XMLID_2_">
    <path id="XMLID_6_" class="fil1" d="M233 407c-15,-3 -30,-3 -42,-9 -49,-12 -92,-37 -125,-73 -10,-9 -6,-18 0,-25 6,-6 18,-6 24,4 24,27 55,48 91,60 19,7 40,13 61,13 89,3 153,-34 204,-104 10,-15 10,-15 0,-27 -33,-49 -79,-86 -137,-98 -73,-18 -137,-3 -195,46 -24,21 -45,46 -61,73 -6,12 -24,12 -30,3 -3,-9 -3,-15 0,-21 43,-73 104,-125 189,-140 73,-13 143,6 201,51 30,25 55,52 76,89 3,6 3,12 0,18 -37,61 -85,107 -155,131 -19,6 -37,9 -55,9l-3 0c-12,0 -28,0 -43,0z"/>
    <path id="XMLID_3_" class="fil1" d="M254 343c-45,0 -82,-39 -82,-85 0,-46 40,-85 86,-85 45,0 85,39 85,85 -3,46 -43,85 -89,85zm52 -85c0,-28 -21,-49 -48,-49 -31,0 -52,21 -52,49 0,27 21,49 48,49 31,0 49,-22 52,-49z"/>
   </g>
  </g>
  <rect class="fil1" transform="matrix(7.83633 -7.83633 0.938931 0.938931 20.1349 461.238)" width="56.2895" height="32.6186"/>
 </g>
</svg>
