<?xml version="1.0" encoding="UTF-8"?>
<!DOCTYPE svg PUBLIC "-//W3C//DTD SVG 1.1//EN" "http://www.w3.org/Graphics/SVG/1.1/DTD/svg11.dtd">
<!-- Creator: CorelDRAW X8 -->
<svg xmlns="http://www.w3.org/2000/svg" xml:space="preserve" width="512px" height="512px" version="1.1" style="shape-rendering:geometricPrecision; text-rendering:geometricPrecision; image-rendering:optimizeQuality; fill-rule:evenodd; clip-rule:evenodd"
viewBox="0 0 512 512"
 xmlns:xlink="http://www.w3.org/1999/xlink">
 <defs>
  <style type="text/css">
   <![CDATA[
    .str0 {stroke:#5B5B5B;stroke-width:19.9996}
    .fil1 {fill:none}
    .fil0 {fill:#FEFEFE}
   ]]>
  </style>
 </defs>
 <g id="Layer_x0020_1">
  <metadata id="CorelCorpID_0Corel-Layer"/>
  <path class="fil0 str0" d="M338 186c21,-10 51,-3 65,15 5,6 9,11 12,20 5,15 -4,7 16,14 29,11 52,41 52,72 0,23 -2,35 -15,54 -4,5 -6,7 -10,11 -7,7 -13,11 -23,16 -8,4 -21,7 -33,7l-302 0c-20,0 -36,-9 -49,-21l-4 -4c-2,-2 -3,-3 -4,-5 -2,-3 -5,-7 -7,-10 -4,-9 -6,-19 -7,-29l0 -11c0,-7 2,-13 4,-19 5,-14 15,-27 27,-35l15 -8c14,-6 10,1 11,-15 1,-24 13,-51 28,-69 5,-7 11,-14 17,-19 46,-39 111,-45 162,-12 7,5 20,15 25,21 8,10 13,15 20,27z"/>
  <rect class="fil1" width="512" height="512"/>
 </g>
</svg>
