<?xml version="1.0" encoding="UTF-8"?>
<!DOCTYPE svg PUBLIC "-//W3C//DTD SVG 1.1//EN" "http://www.w3.org/Graphics/SVG/1.1/DTD/svg11.dtd">
<!-- Creator: CorelDRAW X8 -->
<svg xmlns="http://www.w3.org/2000/svg" xml:space="preserve" width="512px" height="512px" version="1.1" style="shape-rendering:geometricPrecision; text-rendering:geometricPrecision; image-rendering:optimizeQuality; fill-rule:evenodd; clip-rule:evenodd"
viewBox="0 0 512 512"
 xmlns:xlink="http://www.w3.org/1999/xlink">
 <defs>
  <style type="text/css">
   <![CDATA[
    .fil1 {fill:none}
    .fil0 {fill:#ffffff}
   ]]>
  </style>
 </defs>
 <g id="Layer_x0020_1">
  <metadata id="CorelCorpID_0Corel-Layer"/>
  <path class="fil0" d="M341 178c21,-11 53,-3 68,17 5,7 9,13 12,22 5,17 -4,7 16,16 30,12 54,45 54,79 0,26 -2,40 -16,61 -3,5 -5,7 -10,12 -7,8 -13,12 -24,17 -8,5 -21,9 -33,9l-314 0c-20,0 -37,-10 -51,-24l-4 -4c-2,-2 -2,-3 -4,-6 -2,-3 -5,-8 -7,-12 -4,-9 -7,-20 -7,-32l0 -11c0,-8 1,-15 4,-22 5,-15 15,-29 28,-38l16 -10c14,-6 9,1 10,-16 2,-26 14,-56 29,-77 6,-7 12,-15 19,-21 48,-43 114,-49 167,-13 8,5 21,17 27,24 8,11 13,16 20,29z"/>
  <rect class="fil1" width="512" height="512"/>
 </g>
</svg>
