<?xml version="1.0" encoding="UTF-8"?>
<!DOCTYPE svg PUBLIC "-//W3C//DTD SVG 1.1//EN" "http://www.w3.org/Graphics/SVG/1.1/DTD/svg11.dtd">
<!-- Creator: CorelDRAW X8 -->
<svg xmlns="http://www.w3.org/2000/svg" xml:space="preserve" width="512px" height="512px" version="1.1" style="shape-rendering:geometricPrecision; text-rendering:geometricPrecision; image-rendering:optimizeQuality; fill-rule:evenodd; clip-rule:evenodd"
viewBox="0 0 512 512"
 xmlns:xlink="http://www.w3.org/1999/xlink">
 <defs>
  <style type="text/css">
   <![CDATA[
    .fil0 {fill:none}
    .fil1 {fill:#5B5B5B}
   ]]>
  </style>
 </defs>
 <g id="Layer_x0020_1">
  <metadata id="CorelCorpID_0Corel-Layer"/>
  <rect class="fil0" width="512" height="512"/>
  <path class="fil1" d="M415 304c-27,0 -25,-40 -1,-40 11,0 19,10 20,19 0,11 -9,21 -19,21l0 0zm-161 -286l4 0c11,1 21,5 28,13 23,23 6,63 -19,65l0 217c11,-5 39,-30 51,-38 11,-8 7,-8 7,-23 0,-12 0,-25 0,-38 -7,-1 -17,-10 -21,-15 -5,-5 -10,-17 -8,-27 6,-36 46,-47 68,-24 8,8 11,18 11,31 0,14 -15,34 -29,35l0 62c0,5 -15,14 -19,17l-49 37c-3,2 -8,6 -11,7l0 122c13,-9 24,-19 35,-28l69 -55c3,-3 6,-5 9,-8 4,-3 25,-17 25,-21 0,-24 2,-24 -5,-27 -2,0 -4,-1 -5,-2 -4,-3 -6,-5 -10,-7 -8,-9 -10,-18 -10,-30 0,-19 19,-36 39,-36 40,0 54,49 23,71 -5,3 -8,4 -13,6 0,7 0,15 0,22 1,13 -1,15 -9,22 -2,2 -4,3 -6,5 -4,3 -7,5 -11,8 -36,28 -69,58 -104,85 -4,3 -7,6 -11,9 -5,3 -8,6 -12,10 -3,2 -9,8 -13,8 -6,0 -10,-3 -11,-8 -1,-7 0,-39 0,-47 -4,-2 -8,-5 -12,-8l-122 -92c-27,-21 -23,-12 -23,-53 -7,-2 -14,-7 -18,-11 -29,-29 4,-82 45,-63 10,4 22,18 22,33l0 6c0,14 -14,34 -30,35l0 26c5,2 116,85 129,96 3,2 6,4 9,6l0 -99c0,-7 2,-12 -4,-16l-67 -50c-5,-3 -8,-4 -8,-12l0 -58c-5,-3 -11,-6 -16,-11 -12,-11 -17,-32 -8,-46l8 -11c4,-4 6,-5 12,-8 25,-12 50,8 54,32 2,11 -3,22 -8,29 -9,12 -21,13 -21,16l0 52c0,2 1,2 3,3l40 30c4,3 10,9 15,11l0 -177c-16,-1 -29,-22 -29,-37 0,-12 4,-21 12,-29l4 -4c6,-5 13,-7 20,-8l0 0zm-135 224l0 5c0,8 -9,16 -17,16 -6,0 -9,1 -14,-4 -17,-14 -1,-39 18,-32 6,1 13,8 13,15zm197 -66c0,-10 9,-19 17,-19l5 0c23,0 22,39 -2,38 -11,0 -20,-8 -20,-19l0 0zm-137 -20c-26,0 -25,-38 -1,-38 27,0 26,38 1,38zm59 -98c0,-25 39,-25 39,0 0,26 -39,26 -39,0z"/>
 </g>
</svg>
