<?xml version="1.0" encoding="UTF-8"?>
<!DOCTYPE svg PUBLIC "-//W3C//DTD SVG 1.1//EN" "http://www.w3.org/Graphics/SVG/1.1/DTD/svg11.dtd">
<!-- Creator: CorelDRAW X8 -->
<svg xmlns="http://www.w3.org/2000/svg" xml:space="preserve" width="512px" height="512px" version="1.1" style="shape-rendering:geometricPrecision; text-rendering:geometricPrecision; image-rendering:optimizeQuality; fill-rule:evenodd; clip-rule:evenodd"
viewBox="0 0 512 512"
 xmlns:xlink="http://www.w3.org/1999/xlink">
 <defs>
  <style type="text/css">
   <![CDATA[
    .fil0 {fill:none}
    .fil1 {fill:#D9DADA}
    .fil2 {fill:#9D9E9E}
    .fil3 {fill:#727271}
   ]]>
  </style>
 </defs>
 <g id="Layer_x0020_1">
  <metadata id="CorelCorpID_0Corel-Layer"/>
  <rect class="fil0" width="512" height="512"/>
  <g id="_2196745889904">
   <g>
    <path class="fil1" d="M56 113l400 1c0,-88 -3,-72 -160,-72 -34,0 -34,16 -39,30 -3,6 1,3 -5,6 -38,0 -76,0 -114,0 -38,0 -79,-10 -82,35z"/>
    <path class="fil1" d="M184 240c-15,7 -14,26 -1,32 8,4 141,2 147,0 12,-5 12,-27 0,-32 -8,-3 -140,-3 -146,0z"/>
    <path class="fil1" d="M184 311c-15,7 -14,27 -1,32 8,4 141,3 147,0 12,-5 12,-26 0,-32 -8,-3 -140,-3 -146,0z"/>
   </g>
   <path class="fil2" d="M184 311c6,-3 138,-3 146,0 12,6 12,27 0,32 -6,3 -139,4 -147,0 -13,-5 -14,-25 1,-32zm0 -71c6,-3 138,-3 146,0 12,5 12,27 0,32 -6,2 -139,4 -147,0 -13,-6 -14,-25 1,-32zm-161 -80c3,75 -5,222 0,279 4,42 55,31 102,31l325 0c51,0 39,-43 39,-98 0,-63 -2,-156 0,-212 -5,-10 -4,-13 -13,-21 -8,-7 -15,-7 -26,-8 -99,-2 -223,0 -325,0 -27,0 -74,-5 -90,9 -7,7 -7,11 -12,20z"/>
   <path class="fil3" d="M23 160c5,-9 5,-13 12,-20 16,-14 63,-9 90,-9 102,0 226,-2 325,0 11,1 18,1 26,8 9,8 8,11 13,21 0,-28 -7,-45 -33,-46l-400 -1c-26,2 -33,19 -33,47z"/>
  </g>
 </g>
</svg>
