<?xml version="1.0" encoding="UTF-8"?>
<!DOCTYPE svg PUBLIC "-//W3C//DTD SVG 1.1//EN" "http://www.w3.org/Graphics/SVG/1.1/DTD/svg11.dtd">
<!-- Creator: CorelDRAW X8 -->
<svg xmlns="http://www.w3.org/2000/svg" xml:space="preserve" width="512px" height="512px" version="1.1" style="shape-rendering:geometricPrecision; text-rendering:geometricPrecision; image-rendering:optimizeQuality; fill-rule:evenodd; clip-rule:evenodd"
viewBox="0 0 512 512"
 xmlns:xlink="http://www.w3.org/1999/xlink">
 <defs>
  <style type="text/css">
   <![CDATA[
    .fil0 {fill:none}
    .fil1 {fill:#FEFEFE}
    .fil6 {fill:#00B0F0}
    .fil2 {fill:#7030A0}
    .fil5 {fill:#8C6B56}
    .fil4 {fill:#BF2F66}
    .fil3 {fill:#CC9900}
    .fil7 {fill:#FEFEFE;fill-rule:nonzero}
   ]]>
  </style>
 </defs>
 <g id="Layer_x0020_1">
  <metadata id="CorelCorpID_0Corel-Layer"/>
  <rect class="fil0" width="512" height="512"/>
  <g id="_2196686667552">
   <circle class="fil1" cx="256" cy="256" r="233"/>
   <path class="fil2" d="M152 465c-91,-49 -133,-130 -128,-228l238 76 -110 152z"/>
   <path class="fil3" d="M421 418c-74,72 -164,88 -256,52l146 -202 110 150z"/>
   <path class="fil4" d="M216 26c102,-14 185,26 238,108l-237 79 -1 -187z"/>
   <path class="fil5" d="M25 223c18,-101 81,-167 176,-193l2 250 -178 -57z"/>
   <path class="fil6" d="M460 146c47,92 35,183 -25,260l-151 -199 176 -61z"/>
   <circle class="fil1" cx="256" cy="256" r="58"/>
   <path class="fil7" d="M143 170c-3,1 -6,2 -11,2 -5,0 -9,-2 -13,-5 -3,-4 -5,-8 -5,-14 0,-6 2,-11 6,-15 4,-4 8,-6 14,-6 4,0 7,1 9,2l0 5c-3,-2 -6,-3 -9,-3 -5,0 -8,2 -11,5 -3,3 -4,7 -4,12 0,4 1,8 4,11 2,2 6,4 10,4 4,0 7,-1 10,-3l0 5z"/>
   <path class="fil7" d="M283 116l0 -5c0,1 1,1 2,1 1,1 2,1 3,2 0,0 1,0 2,0 1,0 2,0 3,0 3,0 5,0 6,-1 2,-1 2,-3 2,-4 0,-2 0,-2 0,-3 -1,-1 -2,-2 -2,-2 -1,-1 -2,-2 -3,-2 -1,-1 -2,-1 -4,-2 -1,-1 -2,-1 -3,-2 -2,-1 -3,-1 -3,-2 -1,-1 -2,-2 -2,-3 -1,-1 -1,-2 -1,-4 0,-2 0,-3 1,-4 1,-2 2,-3 3,-4 1,0 3,-1 4,-1 2,-1 3,-1 5,-1 4,0 7,0 8,1l0 5c-2,-1 -5,-2 -8,-2 -1,0 -2,0 -3,0 -1,1 -2,1 -3,1 -1,1 -1,1 -2,2 0,1 -1,2 -1,3 0,1 1,2 1,2 0,1 1,2 2,2 0,1 1,1 2,2 1,1 2,1 4,2 1,0 2,1 4,2 1,1 2,1 3,2 1,1 2,2 2,3 1,1 1,3 1,4 0,2 0,4 -1,5 -1,1 -2,2 -3,3 -1,1 -3,2 -5,2 -1,0 -3,0 -5,0 0,0 -1,0 -2,0 -1,0 -2,0 -3,0 -1,0 -1,-1 -2,-1 -1,0 -2,0 -2,-1z"/>
   <polygon class="fil7" points="435,240 421,240 421,253 434,253 434,257 421,257 421,274 416,274 416,236 435,236 "/>
   <path class="fil7" d="M293 428l0 -39 10 0c14,0 20,7 20,19 0,6 -1,11 -5,14 -4,4 -9,6 -15,6l-10 0zm4 -34l0 30 6 0c5,0 9,-2 12,-4 2,-3 4,-7 4,-12 0,-10 -5,-14 -16,-14l-6 0z"/>
   <polygon class="fil7" points="119,369 115,369 115,331 119,331 "/>
  </g>
 </g>
</svg>
