<?xml version="1.0" encoding="UTF-8"?>
<!DOCTYPE svg PUBLIC "-//W3C//DTD SVG 1.1//EN" "http://www.w3.org/Graphics/SVG/1.1/DTD/svg11.dtd">
<!-- Creator: CorelDRAW X8 -->
<svg xmlns="http://www.w3.org/2000/svg" xml:space="preserve" width="512px" height="512px" version="1.1" style="shape-rendering:geometricPrecision; text-rendering:geometricPrecision; image-rendering:optimizeQuality; fill-rule:evenodd; clip-rule:evenodd"
viewBox="0 0 512 512"
 xmlns:xlink="http://www.w3.org/1999/xlink">
 <defs>
  <style type="text/css">
   <![CDATA[
    .fil0 {fill:#5B5B5B}
   ]]>
  </style>
 </defs>
 <g id="Layer_x0020_1">
  <metadata id="CorelCorpID_0Corel-Layer"/>
  <g id="_2196706940512">
   <path class="fil0" d="M117 223c2,3 8,7 12,10 3,3 7,6 11,9l42 34c17,13 37,30 54,44 8,6 16,13 24,20l42 34c3,1 4,3 7,5 5,-5 17,-30 19,-40 11,-39 -7,-62 -33,-82 -16,-13 -33,-28 -49,-40l-17 -14c-10,-8 -21,-18 -37,-21 -21,-5 -42,5 -54,17 -6,5 -20,18 -21,24zm211 -203c-4,2 -3,2 -7,7 -2,3 -3,8 0,11l29 24c3,2 6,5 8,6l22 19c11,8 26,21 38,30 2,2 4,5 8,2 1,0 12,-12 8,-17l-15 -12c-10,-8 -20,-17 -30,-25l-44 -36c-6,-5 -12,-11 -17,-9zm52 129c1,-1 10,-16 11,-18 2,-4 11,-16 11,-19l-17 -14c-3,-3 -6,-5 -9,-7l-44 -36c-4,3 -23,26 -28,32l-55 66c-3,5 -26,31 -27,34 2,2 8,7 11,9 4,3 7,6 11,9 2,2 4,3 6,5 2,1 4,3 6,4l11 10c4,3 8,6 11,9l35 27c2,-1 11,-17 13,-21 4,-7 9,-14 13,-22 3,-5 26,-41 26,-43 0,0 0,-1 0,0l8 -12c2,-5 5,-9 7,-13z"/>
   <path class="fil0" d="M77 492c3,-1 8,-5 11,-8l17 -12c2,-2 3,-4 5,-6l12 -17c2,-3 3,-4 4,-6 13,-17 29,-41 42,-59 3,-6 48,-68 49,-71l-18 -14 -41 57c-2,4 -5,8 -8,12 -3,3 -6,7 -8,11l-49 69c-3,4 -6,7 -7,12 -2,8 -8,27 -9,32z"/>
  </g>
 </g>
</svg>
