<?xml version="1.0" encoding="UTF-8"?>
<!DOCTYPE svg PUBLIC "-//W3C//DTD SVG 1.1//EN" "http://www.w3.org/Graphics/SVG/1.1/DTD/svg11.dtd">
<!-- Creator: CorelDRAW X8 -->
<svg xmlns="http://www.w3.org/2000/svg" xml:space="preserve" width="512px" height="512px" version="1.1" style="shape-rendering:geometricPrecision; text-rendering:geometricPrecision; image-rendering:optimizeQuality; fill-rule:evenodd; clip-rule:evenodd"
viewBox="0 0 512 512"
 xmlns:xlink="http://www.w3.org/1999/xlink">
 <defs>
  <style type="text/css">
   <![CDATA[
    .fil1 {fill:none}
    .fil0 {fill:#5B5B5B}
   ]]>
  </style>
 </defs>
 <g id="Layer_x0020_1">
  <metadata id="CorelCorpID_0Corel-Layer"/>
  <g id="_2160448054688">
   <path class="fil0" d="M423 108l0 0c0,1 0,2 0,3l-9 193c-23,96 -282,109 -315,0l-10 -192c0,-1 0,-3 0,-4l0 0c0,-49 75,-88 167,-88 92,0 167,39 167,88 0,0 0,0 0,0l0 0z"/>
   <path class="fil0" d="M256 492l88 -128c-67,18 -108,19 -176,1l88 127z"/>
  </g>
  <rect class="fil1" width="512" height="512"/>
 </g>
</svg>
