<?xml version="1.0" encoding="UTF-8"?>
<!DOCTYPE svg PUBLIC "-//W3C//DTD SVG 1.1//EN" "http://www.w3.org/Graphics/SVG/1.1/DTD/svg11.dtd">
<!-- Creator: CorelDRAW X8 -->
<svg xmlns="http://www.w3.org/2000/svg" xml:space="preserve" width="512px" height="512px" version="1.1" style="shape-rendering:geometricPrecision; text-rendering:geometricPrecision; image-rendering:optimizeQuality; fill-rule:evenodd; clip-rule:evenodd"
viewBox="0 0 512 512"
 xmlns:xlink="http://www.w3.org/1999/xlink">
 <defs>
  <style type="text/css">
   <![CDATA[
    .fil0 {fill:none}
    .fil1 {fill:#FFFFFF}
   ]]>
  </style>
 </defs>
 <g id="Layer_x0020_1">
  <metadata id="CorelCorpID_0Corel-Layer"/>
  <rect class="fil0" width="512" height="512"/>
  <path class="fil1" d="M172 291c-3,-10 -31,-44 -40,-56 -12,-15 -39,-38 -60,-38 -13,0 -24,6 -32,11 -49,37 0,41 57,137 13,22 34,63 50,73 16,10 32,9 47,0 13,-8 19,-22 27,-35 8,-13 16,-24 24,-37 4,-6 8,-12 13,-17l41 -52c2,-3 4,-5 7,-8 3,-3 3,-5 7,-8l62 -61c20,-19 70,-58 94,-76 11,-7 23,-13 23,-27 0,-21 -70,-2 -75,-1 -54,16 -132,68 -173,110 -22,21 -41,43 -59,67 -4,6 -8,15 -13,18z"/>
 </g>
</svg>
