<?xml version="1.0" encoding="utf-8"?>
<!-- Generator: Adobe Illustrator 19.0.0, SVG Export Plug-In . SVG Version: 6.00 Build 0)  -->
<svg version="1.1" id="Layer_1" xmlns="http://www.w3.org/2000/svg" xmlns:xlink="http://www.w3.org/1999/xlink" x="0px" y="0px"
	 viewBox="-220.1 404.2 33.9 34.3" style="enable-background:new -220.1 404.2 33.9 34.3;" xml:space="preserve">
<style type="text/css">
	.st0{fill:#929497;}
	.st1{fill:#6F3995;}
</style>
<g>
	<g id="XMLID_7_">
		<g id="XMLID_8_">
			<path id="XMLID_9_" class="st0" d="M-39.8,909c-1.7,0-3.3-0.3-4.6-0.8c-1.4-0.6-2.2-1.4-2.2-2.4c0-0.9,0.8-1.8,2.2-2.4
				c1.2-0.5,2.9-0.8,4.6-0.8s3.3,0.3,4.6,0.8c1.4,0.6,2.2,1.4,2.2,2.4c0,0.9-0.8,1.8-2.2,2.4C-36.4,908.7-38.1,909-39.8,909z
				 M-39.8,903.9c-3.4,0-5.5,1.1-5.5,1.9c0,0.8,2.2,1.9,5.5,1.9s5.5-1.1,5.5-1.9C-34.2,905-36.4,903.9-39.8,903.9z"/>
		</g>
	</g>
	<g id="XMLID_4_">
		<g id="XMLID_5_">
			<path id="XMLID_6_" class="st0" d="M-39.8,911.3c-2.7,0-5.2-0.6-6.5-1.5c-0.3-0.2-0.3-0.6-0.2-0.9c0.2-0.3,0.6-0.3,0.9-0.2
				c1.1,0.8,3.4,1.3,5.8,1.3c2.4,0,4.7-0.5,5.8-1.3c0.3-0.2,0.7-0.1,0.9,0.2c0.2,0.3,0.1,0.7-0.2,0.9
				C-34.6,910.8-37.1,911.3-39.8,911.3z"/>
		</g>
	</g>
	<g id="XMLID_1_">
		<g id="XMLID_2_">
			<path id="XMLID_3_" class="st0" d="M-39.8,915.5c-2.7,0-5.2-0.6-6.5-1.5c-0.3-0.2-0.3-0.6-0.2-0.9c0.2-0.3,0.6-0.3,0.9-0.2
				c1.1,0.8,3.4,1.3,5.8,1.3c2.4,0,4.7-0.5,5.8-1.3c0.3-0.2,0.7-0.1,0.9,0.2c0.2,0.3,0.1,0.7-0.2,0.9
				C-34.6,914.9-37.1,915.5-39.8,915.5z"/>
		</g>
	</g>
</g>
<g>
	<path id="XMLID_13_" class="st1" d="M-192,416c-0.6,0-1.1,0-1.5,0c-8.1,0-16.3,0-24.4,0c-0.2,0-0.4,0-0.5,0c-1,0-1.7-0.7-1.7-1.7
		c0-0.9,0.7-1.7,1.7-1.7c2,0,4,0,6,0c6.6,0,13.2,0,19.8,0c0.2,0,0.3,0,0.5,0c-0.2-0.2-0.3-0.4-0.5-0.5c-1.7-1.7-3.3-3.4-5-5.1
		c-0.5-0.5-0.7-1.1-0.5-1.8c0.2-0.6,0.7-1,1.3-1.1c0.6-0.1,1.1,0.1,1.5,0.6c2.3,2.3,4.5,4.6,6.8,6.9c0.5,0.5,1,1,1.4,1.5
		c0.7,0.8,0.7,1.7,0,2.5c-2.7,2.8-5.5,5.6-8.2,8.4c-0.7,0.7-1.8,0.8-2.4,0.1c-0.7-0.7-0.7-1.7,0.1-2.5c1.7-1.7,3.4-3.5,5.1-5.2
		C-192.3,416.4-192.2,416.3-192,416z"/>
	<path id="XMLID_12_" class="st1" d="M-214.4,429.9c0.2,0.2,0.3,0.3,0.4,0.4c1.7,1.7,3.4,3.5,5.1,5.2c0.5,0.5,0.7,1.1,0.4,1.8
		c-0.2,0.6-0.7,1-1.3,1.1c-0.6,0.1-1.1-0.1-1.5-0.6c-2.5-2.6-5-5.1-7.5-7.7c-0.3-0.3-0.5-0.5-0.8-0.8c-0.6-0.7-0.7-1.7,0-2.3
		c2.8-2.9,5.6-5.7,8.4-8.5c0.7-0.7,1.7-0.7,2.4,0c0.7,0.7,0.7,1.7,0,2.4c-1.7,1.7-3.4,3.5-5.1,5.2c-0.1,0.1-0.2,0.2-0.5,0.5
		c0.3,0,0.5,0,0.7,0c8.5,0,17,0,25.5,0c1.3,0,2.2,0.9,1.9,2.1c-0.2,0.8-0.9,1.2-1.8,1.2c-2.5,0-5,0-7.5,0c-6.1,0-12.1,0-18.2,0
		C-214,429.9-214.1,429.9-214.4,429.9z"/>
</g>
</svg>
