<?xml version="1.0" encoding="utf-8"?>
<!-- Generator: Adobe Illustrator 19.0.0, SVG Export Plug-In . SVG Version: 6.00 Build 0)  -->
<svg version="1.1" id="Layer_1" xmlns="http://www.w3.org/2000/svg" xmlns:xlink="http://www.w3.org/1999/xlink" x="0px" y="0px"
	 viewBox="-234.6 391.9 15.5 9.9" style="enable-background:new -234.6 391.9 15.5 9.9;" xml:space="preserve">
<style type="text/css">
	.st0{fill:#929497;}
</style>
<g id="XMLID_27_">
	<path id="XMLID_77_" class="st0" d="M-227.6,401.9c-0.5-0.1-1-0.1-1.4-0.3c-1.6-0.4-3-1.3-4.1-2.5c-0.3-0.3-0.2-0.6,0-0.8
		c0.2-0.2,0.6-0.2,0.8,0.1c0.8,0.9,1.8,1.6,3,2c0.6,0.2,1.3,0.4,2,0.4c2.9,0.1,5-1.1,6.7-3.4c0.3-0.4,0.3-0.4,0-0.8
		c-1.1-1.6-2.6-2.8-4.5-3.2c-2.4-0.6-4.5,0-6.4,1.5c-0.8,0.7-1.5,1.5-2,2.4c-0.2,0.4-0.8,0.4-1,0.1c-0.1-0.2-0.1-0.4,0-0.6
		c1.4-2.4,3.4-4.1,6.2-4.6c2.4-0.4,4.7,0.2,6.6,1.7c1,0.8,1.8,1.7,2.5,2.9c0.1,0.2,0.1,0.4,0,0.6c-1.2,2-2.8,3.5-5.1,4.3
		c-0.6,0.2-1.2,0.3-1.8,0.4c0,0-0.1,0-0.1,0C-226.6,401.9-227.1,401.9-227.6,401.9z"/>
	<path id="XMLID_28_" class="st0" d="M-226.8,399.7c-1.5,0-2.8-1.3-2.8-2.8c0-1.5,1.3-2.8,2.8-2.8c1.5,0,2.8,1.3,2.8,2.8
		C-224.1,398.4-225.3,399.7-226.8,399.7z M-225.2,396.9c0-0.9-0.7-1.6-1.6-1.6c-0.9,0-1.7,0.7-1.6,1.6c0,0.9,0.7,1.6,1.6,1.6
		C-225.9,398.5-225.2,397.8-225.2,396.9z"/>
</g>
</svg>
