<?xml version="1.0" encoding="utf-8"?>
<!-- Generator: Adobe Illustrator 19.0.0, SVG Export Plug-In . SVG Version: 6.00 Build 0)  -->
<svg version="1.1" id="Layer_1" xmlns="http://www.w3.org/2000/svg" xmlns:xlink="http://www.w3.org/1999/xlink" x="0px" y="0px"
	 viewBox="-249.1 378.7 44.6 36.4" style="enable-background:new -249.1 378.7 44.6 36.4;" xml:space="preserve">
<style type="text/css">
	.st0{fill:#FFFFFF;}
</style>
<g id="XMLID_79_">
	<g id="XMLID_16664_">
		<g id="XMLID_16665_">
			<path id="XMLID_16666_" class="st0" d="M-226.8,399.5c-5.7,0-11-0.9-15.1-2.6c-4.6-1.9-7.2-4.7-7.2-7.8s2.6-5.9,7.2-7.8
				c4.1-1.7,9.4-2.6,15.1-2.6s11,0.9,15.1,2.6c4.6,1.9,7.2,4.7,7.2,7.8s-2.6,5.9-7.2,7.8C-215.8,398.6-221.2,399.5-226.8,399.5z
				 M-226.8,382.8c-11.1,0-18.2,3.8-18.2,6.4s7.1,6.4,18.2,6.4c11.1,0,18.2-3.8,18.2-6.4S-215.7,382.8-226.8,382.8z"/>
		</g>
	</g>
	<g id="XMLID_10537_">
		<g id="XMLID_10538_">
			<path id="XMLID_10539_" class="st0" d="M-226.8,407.3c-8.9,0-17.1-1.9-21.4-4.9c-0.9-0.6-1.1-1.9-0.5-2.8
				c0.6-0.9,1.9-1.1,2.8-0.5c3.6,2.5,11.1,4.1,19.1,4.1c8,0,15.5-1.6,19.1-4.1c0.9-0.6,2.2-0.4,2.8,0.5c0.6,0.9,0.4,2.2-0.5,2.8
				C-209.7,405.5-217.9,407.3-226.8,407.3z"/>
		</g>
	</g>
	<g id="XMLID_143_">
		<g id="XMLID_159_">
			<path id="XMLID_10536_" class="st0" d="M-226.8,415.1c-8.9,0-17.1-1.9-21.4-4.9c-0.9-0.6-1.1-1.9-0.5-2.8
				c0.6-0.9,1.9-1.1,2.8-0.5c3.6,2.5,11.1,4.1,19.1,4.1c8,0,15.5-1.6,19.1-4.1c0.9-0.6,2.2-0.4,2.8,0.5c0.6,0.9,0.4,2.2-0.5,2.8
				C-209.7,413.3-217.9,415.1-226.8,415.1z"/>
		</g>
	</g>
</g>
</svg>
