<?xml version="1.0" encoding="utf-8"?>
<!-- Generator: Adobe Illustrator 19.0.0, SVG Export Plug-In . SVG Version: 6.00 Build 0)  -->
<svg version="1.1" id="Layer_1" xmlns="http://www.w3.org/2000/svg" xmlns:xlink="http://www.w3.org/1999/xlink" x="0px" y="0px"
	 viewBox="-235.5 388.3 17.2 17.2" style="enable-background:new -235.5 388.3 17.2 17.2;" xml:space="preserve">
<style type="text/css">
	.st0{fill:#929497;}
</style>
<g id="XMLID_12_">
	<path id="XMLID_11_" class="st0" d="M-220.9,397.6c-0.9,0-1.9,0-2.8,0c-0.4,0-0.7-0.3-0.8-0.7c0-0.4,0.3-0.7,0.7-0.7
		c0.1,0,0.3,0,0.4,0c0.8,0,1.6,0,2.6,0c-0.3-0.3-0.5-0.5-0.7-0.8c-0.4-0.4-0.4-0.8-0.1-1.1c0.3-0.3,0.7-0.3,1.1,0.1
		c0.6,0.6,1.3,1.3,1.9,1.9c0.4,0.4,0.4,0.8,0,1.2c-0.7,0.7-1.3,1.3-2,2c-0.4,0.4-0.8,0.4-1.1,0.1c-0.3-0.3-0.3-0.7,0.1-1.1
		c0.2-0.2,0.5-0.5,0.8-0.7C-220.8,397.7-220.9,397.7-220.9,397.6z"/>
	<path id="XMLID_9_" class="st0" d="M-232.8,396.2c0.9,0,1.8,0,2.7,0c0.6,0,0.9,0.3,0.9,0.7c0,0.4-0.4,0.7-0.9,0.7
		c-0.9,0-1.8,0-2.7,0c0.2,0.3,0.5,0.5,0.7,0.8c0.4,0.4,0.4,0.8,0.1,1.1c-0.3,0.3-0.7,0.3-1.1-0.1c-0.6-0.6-1.3-1.3-1.9-1.9
		c-0.4-0.4-0.4-0.8,0-1.2c0.6-0.6,1.3-1.3,1.9-1.9c0.4-0.4,0.8-0.4,1.1-0.1c0.3,0.3,0.3,0.7,0,1.1c-0.2,0.2-0.5,0.4-0.7,0.6
		C-232.9,396.1-232.9,396.1-232.8,396.2z"/>
	<path id="XMLID_8_" class="st0" d="M-227.7,390.8c-0.2,0.2-0.4,0.5-0.6,0.7c-0.4,0.3-0.7,0.4-1.1,0.1c-0.3-0.3-0.3-0.7,0-1.1
		c0.7-0.7,1.3-1.4,2-2c0.4-0.4,0.7-0.4,1.1,0c0.7,0.7,1.4,1.3,2,2c0.3,0.3,0.3,0.8,0,1.1c-0.3,0.3-0.7,0.3-1.1,0
		c-0.2-0.2-0.5-0.5-0.7-0.8c0,0-0.1,0-0.1,0.1c0,0.8,0,1.5,0,2.3c0,0.2,0,0.4,0,0.5c0,0.5-0.3,0.8-0.7,0.8c-0.4,0-0.7-0.3-0.7-0.8
		c0-0.8,0-1.5,0-2.3c0-0.2,0-0.4,0-0.5C-227.6,390.9-227.7,390.9-227.7,390.8z"/>
	<path id="XMLID_3_" class="st0" d="M-226,403c0.3-0.3,0.5-0.6,0.7-0.8c0.4-0.4,0.7-0.4,1.1-0.1c0.3,0.3,0.3,0.8,0,1.1
		c-0.7,0.7-1.3,1.4-2,2c-0.3,0.3-0.7,0.3-1.1,0c-0.7-0.7-1.4-1.4-2.1-2.1c-0.3-0.3-0.3-0.7,0-1c0.3-0.3,0.7-0.3,1,0
		c0.3,0.2,0.5,0.5,0.7,0.8c0.2-0.2,0.1-0.4,0.2-0.5c0-0.7,0-1.5,0-2.2c0-0.6,0.3-1,0.7-1c0.5,0,0.7,0.3,0.7,0.9c0,0.8,0,1.7,0,2.5
		C-226.1,402.8-226.1,402.8-226,403z"/>
</g>
</svg>
