<?xml version="1.0" encoding="utf-8"?>
<!-- Generator: Adobe Illustrator 19.0.0, SVG Export Plug-In . SVG Version: 6.00 Build 0)  -->
<svg version="1.1" id="Layer_1" xmlns="http://www.w3.org/2000/svg" xmlns:xlink="http://www.w3.org/1999/xlink" x="0px" y="0px"
	 viewBox="-244 379.8 34.3 34.3" style="enable-background:new -244 379.8 34.3 34.3;" xml:space="preserve">
<style type="text/css">
	.st0{fill:#929497;}
	.st1{fill:#29ACE3;}
</style>
<g>
	<g id="XMLID_7_">
		<g id="XMLID_8_">
			<path id="XMLID_9_" class="st0" d="M-39.8,909c-1.7,0-3.3-0.3-4.6-0.8c-1.4-0.6-2.2-1.4-2.2-2.4c0-0.9,0.8-1.8,2.2-2.4
				c1.2-0.5,2.9-0.8,4.6-0.8s3.3,0.3,4.6,0.8c1.4,0.6,2.2,1.4,2.2,2.4c0,0.9-0.8,1.8-2.2,2.4C-36.4,908.7-38.1,909-39.8,909z
				 M-39.8,903.9c-3.4,0-5.5,1.1-5.5,1.9c0,0.8,2.2,1.9,5.5,1.9s5.5-1.1,5.5-1.9C-34.2,905-36.4,903.9-39.8,903.9z"/>
		</g>
	</g>
	<g id="XMLID_4_">
		<g id="XMLID_5_">
			<path id="XMLID_6_" class="st0" d="M-39.8,911.3c-2.7,0-5.2-0.6-6.5-1.5c-0.3-0.2-0.3-0.6-0.2-0.9c0.2-0.3,0.6-0.3,0.9-0.2
				c1.1,0.8,3.4,1.3,5.8,1.3c2.4,0,4.7-0.5,5.8-1.3c0.3-0.2,0.7-0.1,0.9,0.2c0.2,0.3,0.1,0.7-0.2,0.9
				C-34.6,910.8-37.1,911.3-39.8,911.3z"/>
		</g>
	</g>
	<g id="XMLID_1_">
		<g id="XMLID_2_">
			<path id="XMLID_3_" class="st0" d="M-39.8,915.5c-2.7,0-5.2-0.6-6.5-1.5c-0.3-0.2-0.3-0.6-0.2-0.9c0.2-0.3,0.6-0.3,0.9-0.2
				c1.1,0.8,3.4,1.3,5.8,1.3c2.4,0,4.7-0.5,5.8-1.3c0.3-0.2,0.7-0.1,0.9,0.2c0.2,0.3,0.1,0.7-0.2,0.9
				C-34.6,914.9-37.1,915.5-39.8,915.5z"/>
		</g>
	</g>
</g>
<g>
	<path id="XMLID_15_" class="st1" d="M-226.9,414c-0.8,0-1.6,0-2.3,0c-1.1,0-1.6-0.5-1.6-1.6c0-0.4,0-0.7,0-1.1
		c0-0.4-0.1-0.7-0.6-0.8c-0.2-0.1-0.4-0.1-0.6-0.2c-1.1-0.7-2-0.7-2.9,0.5c-0.7,0.8-1.5,0.8-2.3,0c-1.1-1.1-2.2-2.2-3.3-3.3
		c-0.9-0.9-0.9-1.6,0-2.5c0.2-0.2,0.4-0.4,0.5-0.5c0.1-0.1,0.2-0.2,0.3-0.3c0.4-0.6-0.8-3-1.5-3.1c-2.8-0.3-2.8-0.3-2.8-3
		c0-1.1,0-2.2,0-3.4c0-1.1,0.5-1.8,1.7-1.7c1.4,0.1,1.9-0.5,2.4-1.7c0.4-0.9,0.3-1.5-0.4-2.2c-1.2-1.1-1.2-1.7,0-2.9c1-1,2-2,3-3
		c0.9-0.8,1.6-0.9,2.4,0c0.8,1,1.5,1,2.7,0.5c1.1-0.5,1.4-1,1.4-2.1c-0.1-1.3,0.5-1.8,1.8-1.8c1.5,0,3,0,4.5,0
		c1.2,0,1.7,0.5,1.8,1.8c0,0.5-0.3,1.3,0.2,1.6c0.8,0.5,1.6,0.8,2.5,1.1c0.3,0.1,0.4-0.2,0.6-0.4c0.3-0.3,0.6-0.7,1-1
		c0.6-0.5,1.3-0.5,1.9,0.1c1.2,1.2,2.4,2.4,3.6,3.6c0.7,0.7,0.7,1.5-0.1,2.2c-1.1,0.9-1,1.7-0.5,2.9c0.4,1,0.9,1.3,1.9,1.2
		c1.5-0.1,2,0.5,2,1.9c0,1.4,0,2.8,0,4.2c0,1.4-0.5,1.9-1.9,2c-0.5,0-1.2-0.3-1.5,0.2c-0.5,0.8-0.8,1.6-1,2.5
		c-0.1,0.4,0.4,0.6,0.6,0.9c1.4,1.4,1.4,1.9,0,3.3c-0.9,0.9-1.8,1.9-2.8,2.8c-0.9,0.9-1.6,0.9-2.6,0c-0.2-0.2-0.4-0.3-0.5-0.5
		c-0.4-0.5-0.8-0.6-1.3-0.2c-0.1,0.1-0.3,0.2-0.4,0.2c-1.3,0.3-1.9,1-1.7,2.4c0.1,1-0.6,1.6-1.6,1.6C-225.3,414-226.1,414-226.9,414
		z M-216,387.6c-0.3-0.6-0.8-1-1.4-1.4c-0.4-0.3-0.6,0.2-0.8,0.4c-1.1,1-1.4,1-2.6,0.3c-1-0.6-2.1-1.1-3.3-1.4
		c-1.2-0.3-1.6-0.7-1.5-1.9c0-0.8-0.3-1.1-1.1-1.1c-0.8,0-1.4-0.1-1.4,1.1c0,1.3-0.3,1.6-1.5,1.9c-1,0.3-2,0.7-2.9,1.2
		c-1.7,0.9-1.7,1-3.1-0.4c-0.3-0.3-0.6-0.4-0.9,0c-0.2,0.2-0.3,0.4-0.5,0.5c-0.7,0.5-0.7,0.9-0.1,1.5c1,0.9,1,1.4,0.3,2.4
		c-0.6,1-1.1,2.1-1.4,3.2c-0.4,1.4-0.7,1.6-2.1,1.7c-0.3,0-0.7-0.1-0.8,0.2c-0.2,0.6-0.2,1.2,0,1.8c0.1,0.5,0.7,0.3,1.1,0.3
		c1.2,0.1,1.6,0.4,1.8,1.5c0.3,1.2,0.8,2.4,1.4,3.4c0.7,1.1,0.7,1.6-0.3,2.4c-0.9,0.8-0.3,1.2,0.2,1.7c0.5,0.6,0.9,0.7,1.6,0
		c0.8-0.9,1.3-0.9,2.4-0.3c1.1,0.7,2.2,1.1,3.4,1.4c1.2,0.3,1.5,0.7,1.5,1.9c0,1,0.4,1.1,1.2,1.1c0.8,0,1.3-0.2,1.2-1.1
		c0-1.2,0.3-1.6,1.5-1.9c1.2-0.3,2.3-0.8,3.3-1.4c1.1-0.7,1.6-0.7,2.5,0.3c0.8,0.9,1.2,0.3,1.7-0.2c0.6-0.5,0.8-0.9,0.1-1.6
		c-0.9-0.9-1-1.4-0.3-2.5c0.6-1,1.1-2.1,1.4-3.3c0.3-1.3,0.7-1.6,2-1.6c1,0,1-0.4,1.1-1.2c0-0.8-0.1-1.3-1.1-1.2
		c-1.3,0-1.6-0.3-2-1.5c-0.3-1.2-0.8-2.4-1.4-3.4c-0.6-1-0.5-1.5,0.3-2.3C-216.4,388.2-216.1,388-216,387.6z"/>
	<path id="XMLID_12_" class="st1" d="M-233.5,396.9c0-3.6,3-6.6,6.6-6.6c3.7,0,6.7,3,6.7,6.7c0,3.6-3.1,6.7-6.7,6.6
		C-230.5,403.5-233.5,400.5-233.5,396.9z M-223,396.9c0-2.2-1.6-3.8-3.9-3.8c-2.2,0-3.7,1.6-3.8,3.8c0,2.3,1.6,3.9,3.9,3.8
		C-224.6,400.7-223,399-223,396.9z"/>
</g>
</svg>
