<?xml version="1.0" encoding="utf-8"?>
<!-- Generator: Adobe Illustrator 19.0.0, SVG Export Plug-In . SVG Version: 6.00 Build 0)  -->
<svg version="1.1" id="Layer_1" xmlns="http://www.w3.org/2000/svg" xmlns:xlink="http://www.w3.org/1999/xlink" x="0px" y="0px"
	 viewBox="-212.9 412.5 19.3 17.6" style="enable-background:new -212.9 412.5 19.3 17.6;" xml:space="preserve">
<style type="text/css">
	.st0{fill:#929497;}
	.st1{fill:#FFFFFF;}
</style>
<g>
	<g id="XMLID_7_">
		<g id="XMLID_8_">
			<path id="XMLID_9_" class="st0" d="M-39.8,909c-1.7,0-3.3-0.3-4.6-0.8c-1.4-0.6-2.2-1.4-2.2-2.4s0.8-1.8,2.2-2.4
				c1.2-0.5,2.9-0.8,4.6-0.8c1.7,0,3.3,0.3,4.6,0.8c1.4,0.6,2.2,1.4,2.2,2.4s-0.8,1.8-2.2,2.4C-36.4,908.7-38.1,909-39.8,909z
				 M-39.8,903.9c-3.4,0-5.5,1.1-5.5,1.9s2.2,1.9,5.5,1.9s5.5-1.1,5.5-1.9S-36.4,903.9-39.8,903.9z"/>
		</g>
	</g>
	<g id="XMLID_4_">
		<g id="XMLID_5_">
			<path id="XMLID_6_" class="st0" d="M-39.8,911.3c-2.7,0-5.2-0.6-6.5-1.5c-0.3-0.2-0.3-0.6-0.2-0.9c0.2-0.3,0.6-0.3,0.9-0.2
				c1.1,0.8,3.4,1.3,5.8,1.3c2.4,0,4.7-0.5,5.8-1.3c0.3-0.2,0.7-0.1,0.9,0.2c0.2,0.3,0.1,0.7-0.2,0.9
				C-34.6,910.8-37.1,911.3-39.8,911.3z"/>
		</g>
	</g>
	<g id="XMLID_1_">
		<g id="XMLID_2_">
			<path id="XMLID_3_" class="st0" d="M-39.8,915.5c-2.7,0-5.2-0.6-6.5-1.5c-0.3-0.2-0.3-0.6-0.2-0.9c0.2-0.3,0.6-0.3,0.9-0.2
				c1.1,0.8,3.4,1.3,5.8,1.3c2.4,0,4.7-0.5,5.8-1.3c0.3-0.2,0.7-0.1,0.9,0.2c0.2,0.3,0.1,0.7-0.2,0.9
				C-34.6,914.9-37.1,915.5-39.8,915.5z"/>
		</g>
	</g>
</g>
<g>
	<g id="GOjp9z.tif">
		<g>
			<g>
				<path class="st1" d="M-203.2,430.1c-2.3,0-4.5,0-6.8,0c-1.6,0-2.9-1.3-2.9-2.9c0-2.3,0-4.6,0-7c0-1.7,1.2-2.9,2.9-2.9
					c1.2,0,2.4,0,3.7,0c0.3,0,0.3,0.1,0.3,0.3c0,0.4,0,0.7,0,1.1c0,0.4,0,0.4-0.4,0.4c-1.2,0-2.3,0-3.5,0c-0.7,0-1.1,0.4-1.1,1.1
					c0,2.3,0,4.6,0,6.8c0,0.6,0.4,1,1,1c4.5,0,9,0,13.5,0c0.6,0,1-0.4,1-1c0-2.3,0-4.6,0-7c0-0.6-0.4-1-1-1c-1.2,0-2.5,0-3.7,0
					c-0.2,0-0.3-0.1-0.3-0.3c0-0.4,0-0.9,0-1.3c0-0.2,0.1-0.3,0.2-0.3c1.3,0,2.6,0,3.9,0c1.5,0,2.7,1.3,2.8,2.8c0,2.4,0,4.7,0,7.1
					c0,1.6-1.3,2.8-2.8,2.8C-198.6,430.1-200.9,430.1-203.2,430.1L-203.2,430.1z"/>
				<path class="st1" d="M-204.1,424c0-1,0-1.9,0-2.9c0-2.6,0-5.1,0-7.7c0-0.4,0.3-0.8,0.7-0.9c0.4-0.1,0.8,0.1,1.1,0.5
					c0.1,0.2,0.1,0.3,0.1,0.5c0,3.3,0,6.7,0,10c0,0.1,0,0.3,0,0.4c0.1,0,0.2-0.1,0.2-0.2c0.7-0.7,1.4-1.4,2.2-2.1
					c0.3-0.3,0.6-0.4,0.9-0.3c0.4,0.1,0.6,0.4,0.6,0.7c0.1,0.3-0.1,0.6-0.3,0.9c-1.3,1.3-2.6,2.6-3.9,3.9c0,0,0,0-0.1,0.1
					c-0.4,0.4-1,0.4-1.4,0c-1-1-2.1-2.1-3.1-3.1c-0.3-0.3-0.6-0.6-0.9-0.9c-0.4-0.4-0.4-1,0-1.3c0.4-0.4,0.9-0.4,1.3,0
					c0.7,0.7,1.5,1.5,2.2,2.2C-204.3,423.9-204.2,423.9-204.1,424z"/>
			</g>
		</g>
	</g>
</g>
</svg>
