<?xml version="1.0" encoding="utf-8"?>
<!-- Generator: Adobe Illustrator 19.0.0, SVG Export Plug-In . SVG Version: 6.00 Build 0)  -->
<svg version="1.1" id="Layer_1" xmlns="http://www.w3.org/2000/svg" xmlns:xlink="http://www.w3.org/1999/xlink" x="0px" y="0px"
	 viewBox="-209 415.5 11.7 11.6" style="enable-background:new -209 415.5 11.7 11.6;" xml:space="preserve">
<style type="text/css">
	.st0{fill:#929497;}
	.st1{fill:#BCBDBF;}
</style>
<g>
	<g id="XMLID_7_">
		<g id="XMLID_8_">
			<path id="XMLID_9_" class="st0" d="M-39.8,909c-1.7,0-3.3-0.3-4.6-0.8c-1.4-0.6-2.2-1.4-2.2-2.4s0.8-1.8,2.2-2.4
				c1.2-0.5,2.9-0.8,4.6-0.8s3.3,0.3,4.6,0.8c1.4,0.6,2.2,1.4,2.2,2.4s-0.8,1.8-2.2,2.4C-36.4,908.7-38.1,909-39.8,909z
				 M-39.8,903.9c-3.4,0-5.5,1.1-5.5,1.9s2.2,1.9,5.5,1.9s5.5-1.1,5.5-1.9S-36.4,903.9-39.8,903.9z"/>
		</g>
	</g>
	<g id="XMLID_4_">
		<g id="XMLID_5_">
			<path id="XMLID_6_" class="st0" d="M-39.8,911.3c-2.7,0-5.2-0.6-6.5-1.5c-0.3-0.2-0.3-0.6-0.2-0.9c0.2-0.3,0.6-0.3,0.9-0.2
				c1.1,0.8,3.4,1.3,5.8,1.3c2.4,0,4.7-0.5,5.8-1.3c0.3-0.2,0.7-0.1,0.9,0.2c0.2,0.3,0.1,0.7-0.2,0.9
				C-34.6,910.8-37.1,911.3-39.8,911.3z"/>
		</g>
	</g>
	<g id="XMLID_1_">
		<g id="XMLID_2_">
			<path id="XMLID_3_" class="st0" d="M-39.8,915.5c-2.7,0-5.2-0.6-6.5-1.5c-0.3-0.2-0.3-0.6-0.2-0.9c0.2-0.3,0.6-0.3,0.9-0.2
				c1.1,0.8,3.4,1.3,5.8,1.3c2.4,0,4.7-0.5,5.8-1.3c0.3-0.2,0.7-0.1,0.9,0.2c0.2,0.3,0.1,0.7-0.2,0.9
				C-34.6,914.9-37.1,915.5-39.8,915.5z"/>
		</g>
	</g>
</g>
<g id="_x31_ofQwn.tif">
	<g>
		<g>
			<path class="st1" d="M-199.4,419.8C-199.4,419.9-199.4,419.9-199.4,419.8c-0.9,1-1.8,1.8-2.7,2.7c-0.7,0.7-1.4,1.4-2.1,2.1
				c-0.4,0.4-0.8,0.8-1.2,1.2c0,0-0.1,0-0.1,0c-0.8-0.8-1.5-1.5-2.3-2.3c-0.1-0.1,0-0.1,0-0.2c0.8-0.8,1.6-1.6,2.4-2.4
				c1.1-1.1,2.3-2.3,3.4-3.4c0.1-0.1,0.1-0.1,0.2,0C-200.9,418.3-200.2,419-199.4,419.8C-199.4,419.8-199.4,419.8-199.4,419.8z"/>
			<path class="st1" d="M-197.4,417.5c0,0.2-0.1,0.4-0.3,0.6c-0.4,0.4-0.7,0.7-1.1,1.1c0,0-0.1,0.1-0.1,0c-0.8-0.8-1.5-1.5-2.3-2.3
				c0,0-0.1-0.1,0-0.1c0.4-0.3,0.7-0.7,1.1-1.1c0.3-0.3,0.9-0.3,1.3,0c0.4,0.4,0.8,0.8,1.2,1.2c0.1,0.1,0.2,0.2,0.2,0.4
				C-197.4,417.3-197.4,417.4-197.4,417.5z"/>
			<path class="st1" d="M-209,426.8c0-0.1,0-0.2,0.1-0.3c0.2-0.7,0.3-1.5,0.5-2.2c0,0,0-0.1,0-0.1c0,0,0.1,0.1,0.1,0.1
				c0.7,0.7,1.5,1.5,2.2,2.2c0,0,0.1,0,0.1,0.1c0,0-0.1,0-0.1,0c-0.8,0.2-1.6,0.4-2.4,0.6c0,0-0.1,0-0.1,0
				C-208.9,427.2-209,427-209,426.8z"/>
		</g>
	</g>
</g>
</svg>
