<?xml version="1.0" encoding="utf-8"?>
<!-- Generator: Adobe Illustrator 19.0.0, SVG Export Plug-In . SVG Version: 6.00 Build 0)  -->
<svg version="1.1" id="Layer_1" xmlns="http://www.w3.org/2000/svg" xmlns:xlink="http://www.w3.org/1999/xlink" x="0px" y="0px"
	 viewBox="-242.6 382.4 31.6 28.9" style="enable-background:new -242.6 382.4 31.6 28.9;" xml:space="preserve">
<style type="text/css">
	.st0{fill:#929497;}
	.st1{fill:#BE2F66;}
</style>
<g>
	<g id="XMLID_7_">
		<g id="XMLID_8_">
			<path id="XMLID_9_" class="st0" d="M-39.8,909c-1.7,0-3.3-0.3-4.6-0.8c-1.4-0.6-2.2-1.4-2.2-2.4c0-0.9,0.8-1.8,2.2-2.4
				c1.2-0.5,2.9-0.8,4.6-0.8c1.7,0,3.3,0.3,4.6,0.8c1.4,0.6,2.2,1.4,2.2,2.4c0,0.9-0.8,1.8-2.2,2.4C-36.4,908.7-38.1,909-39.8,909z
				 M-39.8,903.9c-3.4,0-5.5,1.1-5.5,1.9c0,0.8,2.2,1.9,5.5,1.9c3.4,0,5.5-1.1,5.5-1.9C-34.2,905-36.4,903.9-39.8,903.9z"/>
		</g>
	</g>
	<g id="XMLID_4_">
		<g id="XMLID_5_">
			<path id="XMLID_6_" class="st0" d="M-39.8,911.3c-2.7,0-5.2-0.6-6.5-1.5c-0.3-0.2-0.3-0.6-0.2-0.9c0.2-0.3,0.6-0.3,0.9-0.2
				c1.1,0.8,3.4,1.3,5.8,1.3c2.4,0,4.7-0.5,5.8-1.3c0.3-0.2,0.7-0.1,0.9,0.2c0.2,0.3,0.1,0.7-0.2,0.9
				C-34.6,910.8-37.1,911.3-39.8,911.3z"/>
		</g>
	</g>
	<g id="XMLID_1_">
		<g id="XMLID_2_">
			<path id="XMLID_3_" class="st0" d="M-39.8,915.5c-2.7,0-5.2-0.6-6.5-1.5c-0.3-0.2-0.3-0.6-0.2-0.9c0.2-0.3,0.6-0.3,0.9-0.2
				c1.1,0.8,3.4,1.3,5.8,1.3c2.4,0,4.7-0.5,5.8-1.3c0.3-0.2,0.7-0.1,0.9,0.2s0.1,0.7-0.2,0.9C-34.6,914.9-37.1,915.5-39.8,915.5z"/>
		</g>
	</g>
</g>
<path id="XMLID_19_" class="st1" d="M-242.6,384.8c0-0.1,0.1-0.2,0.1-0.4c0.3-1.2,1.3-1.9,2.5-2c0,0,0,0,0,0c8.8,0,17.5,0,26.3,0
	c1.3,0,2.3,0.8,2.6,2.1c0,0.2,0.1,0.3,0.1,0.5c0,1,0,1.9,0,2.9c0,0.7-0.5,1.3-1.2,1.4c-0.8,0-1.4-0.5-1.4-1.3c0-0.5,0-1,0-1.5
	c0-0.8-0.5-1.4-1.3-1.4c0,0-0.1,0-0.1,0c-7.8,0-15.6,0-23.4,0c-0.5,0-0.9,0.2-1.2,0.6c-0.2,0.2-0.2,0.5-0.2,0.8c0,2.8,0,5.6,0,8.4
	c0,4.1,0,8.3,0,12.4c0,0.7,0.4,1.2,1.1,1.4c0.1,0,0.3,0,0.4,0c4.3,0,8.6,0,12.9,0c0.7,0,1.2,0.4,1.3,1c0.2,0.8-0.4,1.5-1.2,1.6
	c-0.1,0-0.1,0-0.2,0c-4.7,0-9.5,0-14.2,0c-1.2,0-2.2-0.7-2.6-1.8c-0.1-0.2-0.1-0.3-0.1-0.5C-242.6,401-242.6,392.9-242.6,384.8z"/>
<path id="XMLID_15_" class="st1" d="M-232.3,408.5c0,0-0.1,0-0.1,0c-0.7-0.1-1.1-0.8-1.1-1.4c0-0.1,0-0.1,0-0.2c0-4.2,0-8.5,0-12.7
	c0-0.7,0-1.5,0-2.2c0-0.4,0.1-0.7,0.4-1c1.7-1.7,3.4-3.4,5-5c0,0,0.1-0.1,0.1-0.2c0.5-0.7,1.6-0.7,2.1,0c0.1,0.1,0.2,0.2,0.3,0.3
	c1.7,1.7,3.3,3.3,5,5c0.3,0.3,0.4,0.7,0.4,1.1c0,0.1,0,0.1,0,0.2c0,4.8,0,9.6,0,14.5c0,0.2,0,0.4,0,0.6c-0.1,0.6-0.5,1-1.1,1.1
	c0,0-0.1,0-0.1,0C-225,408.5-228.7,408.5-232.3,408.5z M-222.8,395.1c-2.7,0-5.4,0-8,0c0,3.6,0,7.2,0,10.8c2.7,0,5.4,0,8,0
	C-222.8,402.3-222.8,398.7-222.8,395.1z M-222.9,392.5c-1.3-1.3-2.7-2.7-4-4c-1.3,1.3-2.6,2.6-4,4
	C-228.2,392.5-225.5,392.5-222.9,392.5z"/>
<path id="XMLID_14_" class="st1" d="M-226.8,395.6c2.2,0,4.3,0,6.5,0c0.7,0,1.2,0.4,1.3,1c0.2,0.8-0.4,1.6-1.2,1.6c0,0-0.1,0-0.1,0
	c-4.3,0-8.6,0-12.9,0c-0.6,0-1.1-0.4-1.3-0.9c-0.3-0.9,0.4-1.7,1.3-1.7C-231.2,395.6-229,395.6-226.8,395.6z"/>
<path id="XMLID_13_" class="st1" d="M-226.8,395.6c1.3,0,2.6,0,3.9,0c0.8,0,1.4,0.6,1.4,1.3c0,0.7-0.6,1.3-1.3,1.3
	c-0.2,0-0.5,0-0.7,0c-2.4,0-4.8,0-7.2,0c-0.7,0-1.3-0.5-1.4-1.2c-0.1-0.7,0.5-1.4,1.2-1.5c0.6,0,1.1,0,1.7,0
	C-228.4,395.6-227.6,395.6-226.8,395.6z"/>
<path id="XMLID_12_" class="st1" d="M-226.8,398.2c-1.3,0-2.6,0-3.9,0c-0.7,0-1.1-0.3-1.3-0.9c-0.3-0.8,0.3-1.7,1.2-1.7
	c0.7,0,1.4,0,2.2,0c1.9,0,3.8,0,5.7,0c0.8,0,1.3,0.6,1.3,1.3c0,0.7-0.6,1.3-1.3,1.3C-224.2,398.2-225.5,398.2-226.8,398.2
	L-226.8,398.2z"/>
</svg>
