<?xml version="1.0" encoding="utf-8"?>
<!-- Generator: Adobe Illustrator 19.0.0, SVG Export Plug-In . SVG Version: 6.00 Build 0)  -->
<svg version="1.1" id="Layer_1" xmlns="http://www.w3.org/2000/svg" xmlns:xlink="http://www.w3.org/1999/xlink" x="0px" y="0px"
	 viewBox="-232.9 389.8 12.1 14.2" style="enable-background:new -232.9 389.8 12.1 14.2;" xml:space="preserve">
<style type="text/css">
	.st0{fill:#929497;}
</style>
<g>
	<g id="XMLID_7_">
		<g id="XMLID_8_">
			<path id="XMLID_9_" class="st0" d="M-39.8,909c-1.7,0-3.3-0.3-4.6-0.8c-1.4-0.6-2.2-1.4-2.2-2.4c0-0.9,0.8-1.8,2.2-2.4
				c1.2-0.5,2.9-0.8,4.6-0.8c1.7,0,3.3,0.3,4.6,0.8c1.4,0.6,2.2,1.4,2.2,2.4c0,0.9-0.8,1.8-2.2,2.4C-36.4,908.7-38.1,909-39.8,909z
				 M-39.8,903.9c-3.4,0-5.5,1.1-5.5,1.9c0,0.8,2.2,1.9,5.5,1.9c3.4,0,5.5-1.1,5.5-1.9C-34.2,905-36.4,903.9-39.8,903.9z"/>
		</g>
	</g>
	<g id="XMLID_4_">
		<g id="XMLID_5_">
			<path id="XMLID_6_" class="st0" d="M-39.8,911.3c-2.7,0-5.2-0.6-6.5-1.5c-0.3-0.2-0.3-0.6-0.2-0.9c0.2-0.3,0.6-0.3,0.9-0.2
				c1.1,0.8,3.4,1.3,5.8,1.3c2.4,0,4.7-0.5,5.8-1.3c0.3-0.2,0.7-0.1,0.9,0.2s0.1,0.7-0.2,0.9C-34.6,910.8-37.1,911.3-39.8,911.3z"/>
		</g>
	</g>
	<g id="XMLID_1_">
		<g id="XMLID_2_">
			<path id="XMLID_3_" class="st0" d="M-39.8,915.5c-2.7,0-5.2-0.6-6.5-1.5c-0.3-0.2-0.3-0.6-0.2-0.9c0.2-0.3,0.6-0.3,0.9-0.2
				c1.1,0.8,3.4,1.3,5.8,1.3c2.4,0,4.7-0.5,5.8-1.3c0.3-0.2,0.7-0.1,0.9,0.2s0.1,0.7-0.2,0.9C-34.6,914.9-37.1,915.5-39.8,915.5z"/>
		</g>
	</g>
</g>
<g id="XMLID_19_">
	<path id="XMLID_23_" class="st0" d="M-232.9,394.2c0-0.4,0-0.7,0-1.1c0.1,0,0.3,0,0.4,0c0.1,0,0.1,0,0.1-0.1c0-0.1,0-0.3,0-0.4
		c0-0.3,0.2-0.5,0.5-0.5c0.1,0,0.2,0,0.3,0c0.6,0,1.2,0,1.8,0c0.2,0,0.2,0,0.2-0.2c0-0.6,0.3-1.2,0.8-1.6c0.3-0.2,0.6-0.4,1-0.4
		c0.6,0,1.3,0,1.9,0c0.5,0,1,0.2,1.3,0.6c0.4,0.4,0.5,0.9,0.5,1.4c0,0.2,0,0.2,0.2,0.2c0.6,0,1.1,0,1.7,0c0.1,0,0.2,0,0.4,0
		c0.3,0,0.5,0.3,0.5,0.5c0,0.1,0,0.3,0,0.4c0,0.1,0,0.1,0.1,0.1c0.1,0,0.2,0,0.3,0c0.1,0,0.1,0,0.1,0.1c0,0.3,0,0.6,0,0.8
		c0,0.1,0,0.2-0.1,0.1c-0.2,0-0.4,0-0.7,0c-0.3,0-0.3,0-0.3,0.3c0,2.6,0,5.2,0,7.7c0,0.5-0.1,0.9-0.4,1.3c-0.3,0.3-0.6,0.4-1,0.5
		c-2.4,0-4.7,0-7.1,0c0,0-0.1,0-0.1,0c-0.6-0.2-1.1-0.6-1.2-1.2c-0.1-0.2-0.1-0.4-0.1-0.6c0-2.6,0-5.2,0-7.8c0-0.2,0-0.2-0.2-0.2
		C-232.3,394.2-232.6,394.2-232.9,394.2z M-230.7,398.4c0,0.5,0,1,0,1.5c0,0.8,0,1.6,0,2.4c0,0.4,0.2,0.6,0.6,0.6c2.2,0,4.3,0,6.5,0
		c0,0,0.1,0,0.1,0c0.2,0,0.4-0.2,0.5-0.5c0-0.1,0-0.1,0-0.2c0-2.6,0-5.2,0-7.8c0-0.2,0-0.2-0.2-0.2c-0.9,0-1.9,0-2.8,0
		c-0.7,0-1.4,0-2,0c-0.8,0-1.6,0-2.3,0c-0.2,0-0.2,0-0.2,0.2C-230.7,395.7-230.7,397.1-230.7,398.4z M-226.9,392c0.5,0,1,0,1.4,0
		c0.2,0,0.2,0,0.2-0.2c0-0.5-0.3-0.8-0.8-0.8c-0.5,0-1,0-1.5,0c-0.5,0-0.8,0.4-0.8,0.9c0,0.1,0,0.2,0.2,0.2
		C-227.8,392-227.3,392-226.9,392z"/>
	<path id="XMLID_65_" class="st0" d="M-228.5,398.6c0,1,0,2.1,0,3.1c0,0.2,0,0.2-0.2,0.2c-0.2,0-0.5,0-0.7,0c-0.2,0-0.2,0-0.2-0.2
		c0-1.5,0-3.1,0-4.6c0-0.5,0-1.1,0-1.6c0-0.2,0-0.2,0.2-0.2c0.2,0,0.5,0,0.7,0c0.2,0,0.2,0,0.2,0.2
		C-228.5,396.5-228.5,397.5-228.5,398.6z"/>
	<path id="XMLID_14_" class="st0" d="M-226.3,398.5c0,1,0,2.1,0,3.1c0,0.2,0,0.2-0.2,0.2c-0.2,0-0.5,0-0.7,0c-0.2,0-0.2,0-0.2-0.2
		c0-1.5,0-2.9,0-4.4c0-0.6,0-1.2,0-1.8c0-0.2,0-0.2,0.2-0.2c0.2,0,0.5,0,0.7,0c0.2,0,0.2,0,0.2,0.2
		C-226.3,396.5-226.3,397.5-226.3,398.5z"/>
	<path id="XMLID_13_" class="st0" d="M-225.2,398.6c0-1,0-2.1,0-3.1c0-0.2,0-0.2,0.2-0.2c0.3,0,0.5,0,0.8,0c0.1,0,0.1,0,0.1,0.1
		c0,0,0,0.1,0,0.1c0,2,0,4.1,0,6.1c0,0.2,0,0.2-0.2,0.2c-0.2,0-0.5,0-0.7,0c-0.1,0-0.2,0-0.2-0.2
		C-225.2,400.6-225.2,399.6-225.2,398.6z"/>
</g>
</svg>
