<?xml version="1.0" encoding="utf-8"?>
<!-- Generator: Adobe Illustrator 19.0.0, SVG Export Plug-In . SVG Version: 6.00 Build 0)  -->
<svg version="1.1" id="Layer_1" xmlns="http://www.w3.org/2000/svg" xmlns:xlink="http://www.w3.org/1999/xlink" x="0px" y="0px"
	 viewBox="-244 379.8 34.3 34.3" style="enable-background:new -244 379.8 34.3 34.3;" xml:space="preserve">
<style type="text/css">
	.st0{fill:#929497;}
	.st1{fill:#8B6B56;}
</style>
<g>
	<g id="XMLID_7_">
		<g id="XMLID_8_">
			<path id="XMLID_9_" class="st0" d="M-39.8,909c-1.7,0-3.3-0.3-4.6-0.8c-1.4-0.6-2.2-1.4-2.2-2.4s0.8-1.8,2.2-2.4
				c1.2-0.5,2.9-0.8,4.6-0.8s3.3,0.3,4.6,0.8c1.4,0.6,2.2,1.4,2.2,2.4s-0.8,1.8-2.2,2.4C-36.4,908.7-38.1,909-39.8,909z
				 M-39.8,903.9c-3.4,0-5.5,1.1-5.5,1.9s2.2,1.9,5.5,1.9s5.5-1.1,5.5-1.9S-36.4,903.9-39.8,903.9z"/>
		</g>
	</g>
	<g id="XMLID_4_">
		<g id="XMLID_5_">
			<path id="XMLID_6_" class="st0" d="M-39.8,911.3c-2.7,0-5.2-0.6-6.5-1.5c-0.3-0.2-0.3-0.6-0.2-0.9c0.2-0.3,0.6-0.3,0.9-0.2
				c1.1,0.8,3.4,1.3,5.8,1.3c2.4,0,4.7-0.5,5.8-1.3c0.3-0.2,0.7-0.1,0.9,0.2c0.2,0.3,0.1,0.7-0.2,0.9
				C-34.6,910.8-37.1,911.3-39.8,911.3z"/>
		</g>
	</g>
	<g id="XMLID_1_">
		<g id="XMLID_2_">
			<path id="XMLID_3_" class="st0" d="M-39.8,915.5c-2.7,0-5.2-0.6-6.5-1.5c-0.3-0.2-0.3-0.6-0.2-0.9c0.2-0.3,0.6-0.3,0.9-0.2
				c1.1,0.8,3.4,1.3,5.8,1.3c2.4,0,4.7-0.5,5.8-1.3c0.3-0.2,0.7-0.1,0.9,0.2c0.2,0.3,0.1,0.7-0.2,0.9
				C-34.6,914.9-37.1,915.5-39.8,915.5z"/>
		</g>
	</g>
</g>
<g id="XMLID_12_">
	<path id="XMLID_14_" class="st1" d="M-229.8,390.9c2.3,0,4.3,0.8,5.9,2.5c0.5,0.5,1.1,1,1.5,1.6c0.6,0.9,0.3,2-0.6,2.5
		c-0.8,0.4-1.7,0.2-2.3-0.5c-0.7-0.9-1.5-1.8-2.7-2.2c-1.9-0.7-3.7-0.4-5.2,1c-2,2-4,4-6,6c-1.8,1.9-1.8,4.8,0,6.7
		c0.8,0.8,1.6,1.6,2.8,1.9c1.8,0.4,3.4,0,4.7-1.3c1.2-1.2,2.4-2.4,3.7-3.7c0.9-0.9,2.2-0.7,2.8,0.4c0.4,0.6,0.3,1.4-0.2,2
		c-1.5,1.5-2.9,3.1-4.5,4.4c-1.5,1.3-3.3,1.8-5.2,1.8c-2.2,0-4.1-0.8-5.7-2.3c-1-1-2-2-2.5-3.4c-1.3-3-0.7-6.6,1.6-9
		c2.1-2.1,4.2-4.2,6.3-6.3C-233.9,391.6-232,390.9-229.8,390.9z"/>
	<path id="XMLID_13_" class="st1" d="M-224.5,402.9c-1.7,0-3.5-0.8-5.1-2.2c-0.6-0.6-1.2-1.1-1.7-1.8c-0.5-0.7-0.5-1.5,0-2.1
		c0.5-0.6,1.3-0.9,2-0.6c0.3,0.1,0.6,0.3,0.8,0.6c0.5,0.6,1.1,1.3,1.8,1.7c1.9,1.3,4.5,1.1,6.1-0.5c2-2,4-4,6-6
		c1.9-1.9,1.8-4.9,0-6.8c-0.5-0.5-0.9-1-1.5-1.3c-1.9-1.1-4.3-0.9-5.9,0.7c-1.2,1.2-2.5,2.5-3.7,3.7c-1,1-2.5,0.6-2.9-0.7
		c-0.2-0.6-0.1-1.2,0.4-1.6c1.4-1.5,2.8-3,4.4-4.3c3.2-2.7,8-2.5,11.1,0.5c1.1,1.1,2.1,2.2,2.6,3.7c1.1,3.2,0.5,6.1-1.8,8.5
		c-2,2.2-4.2,4.2-6.3,6.3C-219.8,402.1-221.8,402.9-224.5,402.9z"/>
</g>
</svg>
