<?xml version="1.0" encoding="utf-8"?>
<!-- Generator: Adobe Illustrator 19.0.0, SVG Export Plug-In . SVG Version: 6.00 Build 0)  -->
<svg version="1.1" id="Layer_1" xmlns="http://www.w3.org/2000/svg" xmlns:xlink="http://www.w3.org/1999/xlink" x="0px" y="0px"
	 viewBox="-232.2 391.5 10.7 10.8" style="enable-background:new -232.2 391.5 10.7 10.8;" xml:space="preserve">
<style type="text/css">
	.st0{fill:#929497;}
</style>
<g id="XMLID_5_">
	<path id="XMLID_6_" class="st0" d="M-232.2,401.4c0-3,0-6,0-9c0.3-0.7,0.6-0.9,1.3-0.9c2.7,0,5.4,0,8.1,0c0.9,0,1.3,0.5,1.3,1.3
		c0,2.7,0,5.4,0,8.1c0,0.9-0.5,1.3-1.3,1.3c-2.7,0-5.4,0-8.1,0C-231.6,402.3-231.9,402.1-232.2,401.4z M-231,396.9
		c0,1.3,0,2.6,0,3.9c0,0.3,0,0.3,0.3,0.3c2.6,0,5.1,0,7.7,0c0.3,0,0.3,0,0.3-0.4c0-2.6,0-5.1,0-7.7c0-0.3,0-0.4-0.3-0.4
		c-2.6,0-5.1,0-7.7,0c-0.3,0-0.4,0-0.4,0.4C-231,394.4-231,395.6-231,396.9z"/>
</g>
</svg>
