<?xml version="1.0" encoding="utf-8"?>
<!-- Generator: Adobe Illustrator 19.0.0, SVG Export Plug-In . SVG Version: 6.00 Build 0)  -->
<svg version="1.1" id="Layer_1" xmlns="http://www.w3.org/2000/svg" xmlns:xlink="http://www.w3.org/1999/xlink" x="0px" y="0px"
	 viewBox="-245.1 374.8 36.4 44.2" style="enable-background:new -245.1 374.8 36.4 44.2;" xml:space="preserve">
<style type="text/css">
	.st0{fill:#FFFFFF;}
	.st1{fill:none;}
</style>
<g>
	<path class="st0" d="M-225.6,374.8c-0.9,0-1.6,0.7-1.7,1.6l-0.2,18l-5.4-3.7c-0.7-0.5-1.8-0.3-2.3,0.4c-0.5,0.7-0.3,1.8,0.4,2.3
		l8.6,6l9.7-6c0.1-0.1,0.2-0.1,0.3-0.2c0.5-0.5,0.7-1.4,0.2-2c-0.5-0.8-1.5-1-2.2-0.5l-6.1,3.8l0.2-17.9
		C-224,375.6-224.7,374.8-225.6,374.8z"/>
	<g id="XMLID_56964_">
		<g>
			<path class="st1" d="M-226.2,402.3l-10-6.9c-0.5-0.3-0.9-0.8-1.2-1.3c-2.8,1.1-4.4,2.4-4.4,3.5c0,2.1,5.8,5.2,14.9,5.2
				c9.1,0,14.9-3.1,14.9-5.2c0-0.8-0.9-1.8-2.5-2.7c-0.2,0.2-0.4,0.3-0.6,0.5L-226.2,402.3z"/>
			<path class="st0" d="M-213.2,392c0,1.1-0.4,2.2-1.2,3c0,0-0.1,0-0.1,0.1c1.6,0.9,2.5,1.9,2.5,2.7c0,2.1-5.8,5.2-14.9,5.2
				c-9.1,0-14.9-3.1-14.9-5.2c0-1.1,1.6-2.5,4.4-3.5c-0.6-1-0.7-2.3-0.4-3.4c-0.5,0.2-1,0.4-1.5,0.6c-3.8,1.6-5.9,3.8-5.9,6.4
				c0,2.5,2.1,4.8,5.9,6.4c3.3,1.4,7.7,2.1,12.3,2.1c4.6,0,9-0.8,12.3-2.1c3.8-1.6,5.9-3.8,5.9-6.4
				C-208.6,395.5-210.2,393.5-213.2,392z"/>
			<path class="st0" d="M-229.9,389.8"/>
		</g>
		<g id="XMLID_56968_">
			<g id="XMLID_56969_">
				<path id="XMLID_56970_" class="st0" d="M-226.8,412.6c-7.3,0-14-1.5-17.5-4c-0.8-0.5-0.9-1.6-0.4-2.3c0.5-0.8,1.6-0.9,2.3-0.4
					c2.9,2,9.1,3.4,15.6,3.4c6.5,0,12.7-1.3,15.6-3.4c0.8-0.5,1.8-0.3,2.3,0.4s0.3,1.8-0.4,2.3
					C-212.9,411.1-219.6,412.6-226.8,412.6z"/>
			</g>
		</g>
		<g id="XMLID_56965_">
			<g id="XMLID_56966_">
				<path id="XMLID_56967_" class="st0" d="M-226.8,419c-7.3,0-14-1.5-17.5-4c-0.8-0.5-0.9-1.6-0.4-2.3c0.5-0.8,1.6-0.9,2.3-0.4
					c2.9,2,9.1,3.4,15.6,3.4c6.5,0,12.7-1.3,15.6-3.4c0.8-0.5,1.8-0.3,2.3,0.4c0.5,0.8,0.3,1.8-0.4,2.3
					C-212.9,417.5-219.6,419-226.8,419z"/>
			</g>
		</g>
	</g>
</g>
</svg>
