<?xml version="1.0" encoding="utf-8"?>
<!-- Generator: Adobe Illustrator 19.0.0, SVG Export Plug-In . SVG Version: 6.00 Build 0)  -->
<svg version="1.1" id="Layer_1" xmlns="http://www.w3.org/2000/svg" xmlns:xlink="http://www.w3.org/1999/xlink" x="0px" y="0px"
	 viewBox="-244 379.8 34.2 34.3" style="enable-background:new -244 379.8 34.2 34.3;" xml:space="preserve">
<style type="text/css">
	.st0{fill:#929497;}
	.st1{fill:#C9982C;}
</style>
<g>
	<g id="XMLID_7_">
		<g id="XMLID_8_">
			<path id="XMLID_9_" class="st0" d="M-39.8,909c-1.7,0-3.3-0.3-4.6-0.8c-1.4-0.6-2.2-1.4-2.2-2.4c0-0.9,0.8-1.8,2.2-2.4
				c1.2-0.5,2.9-0.8,4.6-0.8c1.7,0,3.3,0.3,4.6,0.8c1.4,0.6,2.2,1.4,2.2,2.4c0,0.9-0.8,1.8-2.2,2.4C-36.4,908.7-38.1,909-39.8,909z
				 M-39.8,903.9c-3.4,0-5.5,1.1-5.5,1.9c0,0.8,2.2,1.9,5.5,1.9s5.5-1.1,5.5-1.9C-34.2,905-36.4,903.9-39.8,903.9z"/>
		</g>
	</g>
	<g id="XMLID_4_">
		<g id="XMLID_5_">
			<path id="XMLID_6_" class="st0" d="M-39.8,911.3c-2.7,0-5.2-0.6-6.5-1.5c-0.3-0.2-0.3-0.6-0.2-0.9c0.2-0.3,0.6-0.3,0.9-0.2
				c1.1,0.8,3.4,1.3,5.8,1.3c2.4,0,4.7-0.5,5.8-1.3c0.3-0.2,0.7-0.1,0.9,0.2c0.2,0.3,0.1,0.7-0.2,0.9
				C-34.6,910.8-37.1,911.3-39.8,911.3z"/>
		</g>
	</g>
	<g id="XMLID_1_">
		<g id="XMLID_2_">
			<path id="XMLID_3_" class="st0" d="M-39.8,915.5c-2.7,0-5.2-0.6-6.5-1.5c-0.3-0.2-0.3-0.6-0.2-0.9c0.2-0.3,0.6-0.3,0.9-0.2
				c1.1,0.8,3.4,1.3,5.8,1.3c2.4,0,4.7-0.5,5.8-1.3c0.3-0.2,0.7-0.1,0.9,0.2c0.2,0.3,0.1,0.7-0.2,0.9
				C-34.6,914.9-37.1,915.5-39.8,915.5z"/>
		</g>
	</g>
</g>
<path id="XMLID_16_" class="st1" d="M-209.7,396.6c0,0.2,0,0.5,0,0.7c0,0.1-0.1,0.3-0.1,0.4c-0.2,3.7-1.5,7.1-3.8,10
	c-0.1,0.2-0.2,0.4-0.2,0.6c0,1.8,0,3.6-0.1,5.4c0,0.1,0,0.3,0,0.4c-0.2,0-0.3,0-0.4,0c-4.3,0-8.6,0-12.9-0.1c-0.9,0-1.9-0.1-2.8-0.3
	c-9.8-1.8-16-11.7-13.4-21.2c2.4-8.8,11-14.1,20-12.3c6.6,1.3,12,6.7,13.3,13.4C-209.9,394.5-209.9,395.5-209.7,396.6z
	 M-216.3,411.6c0-0.2,0-0.3,0-0.5c0-1.2,0-2.5,0-3.7c0-0.3,0.1-0.5,0.3-0.7c3.4-3.9,4.6-8.4,3.3-13.5c-2.1-8-10.2-12.6-18.2-10.4
	c-7.9,2.2-12.5,10.9-9.8,18.6c2.1,6.1,7.5,10,14,10.1c2.7,0,5.4,0,8,0.1C-218,411.6-217.2,411.6-216.3,411.6z"/>
<path id="XMLID_15_" class="st1" d="M-219.4,398.1h-15c-0.7,0-1.2-0.5-1.2-1.2l0,0c0-0.7,0.5-1.2,1.2-1.2h15c0.7,0,1.2,0.5,1.2,1.2
	l0,0C-218.2,397.6-218.7,398.1-219.4,398.1z"/>
<path id="XMLID_14_" class="st1" d="M-219.4,398.1h-15c-0.7,0-1.2-0.5-1.2-1.2l0,0c0-0.7,0.5-1.2,1.2-1.2h15c0.7,0,1.2,0.5,1.2,1.2
	l0,0C-218.2,397.6-218.7,398.1-219.4,398.1z"/>
<path id="XMLID_13_" class="st1" d="M-219.4,398.1h-15c-0.7,0-1.2-0.5-1.2-1.2l0,0c0-0.7,0.5-1.2,1.2-1.2h15c0.7,0,1.2,0.5,1.2,1.2
	l0,0C-218.2,397.6-218.7,398.1-219.4,398.1z"/>
<path id="XMLID_12_" class="st1" d="M-219.4,398.1h-15c-0.7,0-1.2-0.5-1.2-1.2l0,0c0-0.7,0.5-1.2,1.2-1.2h15c0.7,0,1.2,0.5,1.2,1.2
	l0,0C-218.2,397.6-218.7,398.1-219.4,398.1z"/>
</svg>
