<?xml version="1.0" encoding="utf-8"?>
<!-- Generator: Adobe Illustrator 19.0.0, SVG Export Plug-In . SVG Version: 6.00 Build 0)  -->
<svg version="1.1" id="Layer_1" xmlns="http://www.w3.org/2000/svg" xmlns:xlink="http://www.w3.org/1999/xlink" x="0px" y="0px"
	 viewBox="-231.9 391.8 10.2 10.2" style="enable-background:new -231.9 391.8 10.2 10.2;" xml:space="preserve">
<style type="text/css">
	.st0{fill:#929497;}
	.st1{fill:#FFFFFF;}
</style>
<g>
	<g id="XMLID_7_">
		<g id="XMLID_8_">
			<path id="XMLID_9_" class="st0" d="M-39.8,909c-1.7,0-3.3-0.3-4.6-0.8c-1.4-0.6-2.2-1.4-2.2-2.4s0.8-1.8,2.2-2.4
				c1.2-0.5,2.9-0.8,4.6-0.8s3.3,0.3,4.6,0.8c1.4,0.6,2.2,1.4,2.2,2.4s-0.8,1.8-2.2,2.4C-36.4,908.7-38.1,909-39.8,909z
				 M-39.8,903.9c-3.4,0-5.5,1.1-5.5,1.9c0,0.8,2.2,1.9,5.5,1.9s5.5-1.1,5.5-1.9C-34.2,905-36.4,903.9-39.8,903.9z"/>
		</g>
	</g>
	<g id="XMLID_4_">
		<g id="XMLID_5_">
			<path id="XMLID_6_" class="st0" d="M-39.8,911.3c-2.7,0-5.2-0.6-6.5-1.5c-0.3-0.2-0.3-0.6-0.2-0.9c0.2-0.3,0.6-0.3,0.9-0.2
				c1.1,0.8,3.4,1.3,5.8,1.3c2.4,0,4.7-0.5,5.8-1.3c0.3-0.2,0.7-0.1,0.9,0.2c0.2,0.3,0.1,0.7-0.2,0.9
				C-34.6,910.8-37.1,911.3-39.8,911.3z"/>
		</g>
	</g>
	<g id="XMLID_1_">
		<g id="XMLID_2_">
			<path id="XMLID_3_" class="st0" d="M-39.8,915.5c-2.7,0-5.2-0.6-6.5-1.5c-0.3-0.2-0.3-0.6-0.2-0.9c0.2-0.3,0.6-0.3,0.9-0.2
				c1.1,0.8,3.4,1.3,5.8,1.3c2.4,0,4.7-0.5,5.8-1.3c0.3-0.2,0.7-0.1,0.9,0.2c0.2,0.3,0.1,0.7-0.2,0.9
				C-34.6,914.9-37.1,915.5-39.8,915.5z"/>
		</g>
	</g>
</g>
<g id="XMLID_12_">
	<g id="_x38_cdaHh.tif_2_">
		<g id="XMLID_13_">
			<path id="XMLID_17_" class="st1" d="M-224.7,396.9c0.2-0.2,0.3-0.2,0.4-0.4c0.7-0.7,1.4-1.3,2-2c0.9-0.9,0.4-2.3-0.8-2.6
				c-0.6-0.1-1.1,0.1-1.5,0.5c-0.8,0.8-1.5,1.5-2.3,2.3c-0.8-0.8-1.6-1.6-2.4-2.4c-0.7-0.6-1.6-0.6-2.2,0c-0.6,0.6-0.6,1.6,0,2.2
				c0.6,0.6,1.2,1.2,1.8,1.8c0.2,0.2,0.4,0.3,0.7,0.6c-0.3,0.2-0.4,0.3-0.5,0.4c-0.7,0.7-1.4,1.3-2,2c-0.4,0.4-0.6,1-0.4,1.6
				c0.2,0.6,0.6,1,1.2,1.1c0.6,0.1,1.1-0.1,1.5-0.5c0.8-0.8,1.5-1.5,2.3-2.3c0.1,0.1,0.3,0.2,0.4,0.3c0.7,0.7,1.3,1.3,2,2
				c0.4,0.4,0.9,0.6,1.5,0.5c0.6-0.1,1-0.5,1.2-1.1c0.2-0.6,0-1.1-0.4-1.6C-223,398.5-223.8,397.7-224.7,396.9z"/>
			<path id="XMLID_14_" class="st1" d="M-224.7,396.9c0.9,0.9,1.7,1.6,2.5,2.4c0.4,0.4,0.6,1,0.4,1.6c-0.2,0.6-0.6,1-1.2,1.1
				c-0.6,0.1-1.1-0.1-1.5-0.5c-0.7-0.7-1.3-1.3-2-2c-0.1-0.1-0.2-0.2-0.4-0.3c-0.8,0.8-1.5,1.5-2.3,2.3c-0.4,0.4-0.9,0.6-1.5,0.5
				c-0.6-0.1-1-0.5-1.2-1.1c-0.2-0.6,0-1.1,0.4-1.6c0.7-0.7,1.3-1.4,2-2c0.1-0.1,0.3-0.2,0.5-0.4c-0.3-0.2-0.5-0.4-0.7-0.6
				c-0.6-0.6-1.2-1.2-1.8-1.8c-0.6-0.7-0.6-1.6,0-2.2c0.6-0.6,1.6-0.6,2.2,0c0.8,0.8,1.6,1.6,2.4,2.4c0.8-0.8,1.6-1.6,2.3-2.3
				c0.4-0.4,0.9-0.6,1.5-0.5c1.2,0.3,1.6,1.7,0.8,2.6c-0.7,0.7-1.3,1.4-2,2C-224.4,396.6-224.5,396.7-224.7,396.9z"/>
		</g>
	</g>
</g>
</svg>
