<?xml version="1.0" encoding="utf-8"?>
<!-- Generator: Adobe Illustrator 19.0.0, SVG Export Plug-In . SVG Version: 6.00 Build 0)  -->
<svg version="1.1" id="Layer_1" xmlns="http://www.w3.org/2000/svg" xmlns:xlink="http://www.w3.org/1999/xlink" x="0px" y="0px"
	 viewBox="-233.6 390.5 13.5 12.8" style="enable-background:new -233.6 390.5 13.5 12.8;" xml:space="preserve">
<style type="text/css">
	.st0{fill:#929497;}
</style>
<g>
	<g id="XMLID_73170_">
		<g id="XMLID_73171_">
			<path id="XMLID_73172_" class="st0" d="M-226.9,396.8c-1.7,0-3.3-0.3-4.6-0.8c-1.4-0.6-2.2-1.4-2.2-2.4c0-0.9,0.8-1.8,2.2-2.4
				c1.2-0.5,2.9-0.8,4.6-0.8s3.3,0.3,4.6,0.8c1.4,0.6,2.2,1.4,2.2,2.4c0,0.9-0.8,1.8-2.2,2.4C-223.5,396.5-225.1,396.8-226.9,396.8z
				 M-226.9,391.7c-3.4,0-5.5,1.1-5.5,1.9c0,0.8,2.2,1.9,5.5,1.9c3.4,0,5.5-1.1,5.5-1.9C-221.3,392.9-223.5,391.7-226.9,391.7z"/>
		</g>
	</g>
	<g id="XMLID_73167_">
		<g id="XMLID_73168_">
			<path id="XMLID_73169_" class="st0" d="M-226.9,399.2c-2.7,0-5.2-0.6-6.5-1.5c-0.3-0.2-0.3-0.6-0.2-0.9c0.2-0.3,0.6-0.3,0.9-0.2
				c1.1,0.8,3.4,1.3,5.8,1.3c2.4,0,4.7-0.5,5.8-1.3c0.3-0.2,0.7-0.1,0.9,0.2c0.2,0.3,0.1,0.7-0.2,0.9
				C-221.7,398.6-224.1,399.2-226.9,399.2z"/>
		</g>
	</g>
	<g id="XMLID_73164_">
		<g id="XMLID_73165_">
			<path id="XMLID_73166_" class="st0" d="M-226.9,403.3c-2.7,0-5.2-0.6-6.5-1.5c-0.3-0.2-0.3-0.6-0.2-0.9c0.2-0.3,0.6-0.3,0.9-0.2
				c1.1,0.8,3.4,1.3,5.8,1.3c2.4,0,4.7-0.5,5.8-1.3c0.3-0.2,0.7-0.1,0.9,0.2s0.1,0.7-0.2,0.9C-221.7,402.8-224.1,403.3-226.9,403.3z
				"/>
		</g>
	</g>
</g>
<g>
	<g id="XMLID_7_">
		<g id="XMLID_8_">
			<path id="XMLID_9_" class="st0" d="M-39.8,909c-1.7,0-3.3-0.3-4.6-0.8c-1.4-0.6-2.2-1.4-2.2-2.4c0-0.9,0.8-1.8,2.2-2.4
				c1.2-0.5,2.9-0.8,4.6-0.8c1.7,0,3.3,0.3,4.6,0.8c1.4,0.6,2.2,1.4,2.2,2.4c0,0.9-0.8,1.8-2.2,2.4C-36.4,908.7-38.1,909-39.8,909z
				 M-39.8,903.9c-3.4,0-5.5,1.1-5.5,1.9c0,0.8,2.2,1.9,5.5,1.9s5.5-1.1,5.5-1.9C-34.2,905-36.4,903.9-39.8,903.9z"/>
		</g>
	</g>
	<g id="XMLID_4_">
		<g id="XMLID_5_">
			<path id="XMLID_6_" class="st0" d="M-39.8,911.3c-2.7,0-5.2-0.6-6.5-1.5c-0.3-0.2-0.3-0.6-0.2-0.9c0.2-0.3,0.6-0.3,0.9-0.2
				c1.1,0.8,3.4,1.3,5.8,1.3c2.4,0,4.7-0.5,5.8-1.3c0.3-0.2,0.7-0.1,0.9,0.2c0.2,0.3,0.1,0.7-0.2,0.9
				C-34.6,910.8-37.1,911.3-39.8,911.3z"/>
		</g>
	</g>
	<g id="XMLID_1_">
		<g id="XMLID_2_">
			<path id="XMLID_3_" class="st0" d="M-39.8,915.5c-2.7,0-5.2-0.6-6.5-1.5c-0.3-0.2-0.3-0.6-0.2-0.9c0.2-0.3,0.6-0.3,0.9-0.2
				c1.1,0.8,3.4,1.3,5.8,1.3c2.4,0,4.7-0.5,5.8-1.3c0.3-0.2,0.7-0.1,0.9,0.2c0.2,0.3,0.1,0.7-0.2,0.9
				C-34.6,914.9-37.1,915.5-39.8,915.5z"/>
		</g>
	</g>
</g>
</svg>
