<?xml version="1.0" encoding="UTF-8"?>
<!DOCTYPE svg PUBLIC "-//W3C//DTD SVG 1.1//EN" "http://www.w3.org/Graphics/SVG/1.1/DTD/svg11.dtd">
<!-- Creator: CorelDRAW X8 -->
<svg xmlns="http://www.w3.org/2000/svg" xml:space="preserve" width="512px" height="512px" version="1.1" style="shape-rendering:geometricPrecision; text-rendering:geometricPrecision; image-rendering:optimizeQuality; fill-rule:evenodd; clip-rule:evenodd"
viewBox="0 0 512 512"
 xmlns:xlink="http://www.w3.org/1999/xlink">
 <defs>
  <style type="text/css">
   <![CDATA[
    .fil0 {fill:none}
    .fil1 {fill:black;fill-rule:nonzero}
    .fil2 {fill:black;fill-rule:nonzero}
   ]]>
  </style>
 </defs>
 <g id="Layer_x0020_1">
  <metadata id="CorelCorpID_0Corel-Layer"/>
  <rect class="fil0" width="512" height="512"/>
  <g id="_1812124189712">
   <path class="fil1" d="M337 495l-27 0 -114 -175 -1 0c1,21 2,40 2,57l0 118 -22 0 0 -208 27 0 113 174 2 0c-1,-3 -1,-11 -2,-25 0,-14 -1,-24 0,-30l0 -119 22 0 0 208z"/>
   <path class="fil2" d="M222 228l0 -105 -27 0 53 -106 53 106 -27 0 0 105 -52 0zm0 -53m-14 -52m14 -53m52 0m13 53m-13 52m-26 53"/>
  </g>
 </g>
</svg>
