<?xml version="1.0" encoding="utf-8"?>
<!-- Generator: Adobe Illustrator 19.0.0, SVG Export Plug-In . SVG Version: 6.00 Build 0)  -->
<svg version="1.1" id="Layer_1" xmlns="http://www.w3.org/2000/svg" xmlns:xlink="http://www.w3.org/1999/xlink" x="0px" y="0px"
	 viewBox="-297.1 381.5 39.5 33.4" style="enable-background:new -297.1 381.5 39.5 33.4;" xml:space="preserve">
<style type="text/css">
	.st0{fill:#43B149;}
	.st1{fill:#7E4D1F;}
</style>
<g id="XMLID_4222_">
	<path id="XMLID_4229_" class="st0" d="M-914.7,400.8c0-1.5,0-3,0-4.5c0-0.7-0.1-1-0.8-1.3c-1.6-0.6-2.5-2.3-2.2-4.1
		c0.2-1.6,1.6-3,3.2-3.2c1.2-0.2,2.3,0.2,3.3,1.1c0.1,0.1,0.1,0.1,0.2,0.2c0,0,0,0,0.1,0c0.6-0.4,1.2-0.7,1.9-1.1
		c0.9-0.5,1.9-1.1,2.8-1.6c0.2-0.1,0.2-0.2,0.2-0.4c-0.6-2.4,1.2-4.7,3.7-4.8c2.4-0.1,4.4,2.3,3.8,4.7c-0.1,0.4,0,0.5,0.3,0.7
		c1.5,0.9,3,1.7,4.6,2.6c0.6-0.6,1.3-1.1,2.2-1.2c2.1-0.4,4.3,1.1,4.5,3.2c0.2,2-0.9,3.7-2.8,4.3c-0.1,0-0.2,0.2-0.2,0.3
		c0,1.8,0,3.5,0,5.3c0,0.2,0.1,0.3,0.3,0.3c1.7,0.5,2.8,2,2.8,3.6c0,2.2-1.8,4-4,3.9c-1,0-1.8-0.4-2.5-1c-0.1-0.1-0.2-0.2-0.3-0.2
		c-0.7,0.4-1.4,0.8-2.2,1.3s-1.7,1-2.5,1.4c-0.2,0.1-0.2,0.2-0.2,0.4c0.4,2-1,4-3,4.5c-2,0.4-4.1-0.9-4.5-2.9
		c-0.1-0.5-0.1-1.1,0-1.6c0-0.2,0-0.3-0.2-0.3c-1.5-0.9-3.1-1.8-4.6-2.7c-0.2-0.1-0.3-0.1-0.4,0c-2.3,2-5.7,0.8-6.3-2.1
		c-0.4-1.9,0.8-3.9,2.7-4.5C-914.9,400.9-914.8,400.9-914.7,400.8z M-905.3,387.5L-905.3,387.5c-1.7,0.9-3.2,1.8-4.8,2.7
		c-0.2,0.1-0.2,0.2-0.1,0.4c0.2,0.6,0.2,1.3,0,2c-0.1,0.2,0,0.3,0.2,0.4c1.5,0.9,3,1.7,4.5,2.6c0.2,0.1,0.3,0.1,0.4-0.1
		c1.6-1.5,3.8-1.5,5.4,0c0.1,0.1,0.2,0.2,0.4,0.1c1.5-0.9,3-1.7,4.5-2.6c0.2-0.1,0.2-0.2,0.2-0.4c-0.2-0.7-0.2-1.3,0-2
		c0.1-0.2,0-0.3-0.2-0.4c-0.6-0.3-1.1-0.6-1.7-1c-1-0.6-2.1-1.2-3.1-1.8c-0.7,0.7-1.5,1.2-2.5,1.3c-0.1,0.3,0.1,0.8-0.4,0.8
		c-0.6,0-0.3-0.5-0.4-0.8C-903.8,388.6-904.6,388.2-905.3,387.5z M-899.3,400.5c-0.5,0.7-1.2,1.2-2.1,1.4c-0.2,0.1-0.3,0.2-0.3,0.4
		c0,1.5,0,3.1,0,4.6c0,0.2,0,0.3,0,0.5c1,0.2,1.7,0.7,2.3,1.4c0.1,0,0.1,0,0.1,0c1.5-0.9,3-1.7,4.5-2.6c0.2-0.1,0.2-0.2,0.1-0.4
		c-0.1-0.5-0.1-1-0.1-1.4s0.2-0.8,0.3-1.2c-0.2-0.1-0.3-0.2-0.5-0.3s-0.2-0.3-0.1-0.5c0.1-0.2,0.3-0.3,0.5-0.1
		c0.2,0.1,0.3,0.2,0.5,0.3c0.6-0.7,1.3-1.3,2.2-1.5c0.1,0,0.1-0.2,0.1-0.3c0-1.8,0-3.5,0-5.3c0-0.2,0-0.3-0.2-0.3
		c-0.7-0.2-1.2-0.5-1.7-1c-0.1-0.1-0.2-0.2-0.4-0.1c-1.5,0.9-3,1.8-4.6,2.6c-0.2,0.1-0.2,0.2-0.2,0.4c0.2,0.8,0.2,1.5-0.1,2.3
		c-0.1,0.2-0.1,0.4,0.2,0.5c0.2,0.1,0.3,0.3,0.2,0.5s-0.3,0.2-0.5,0.2C-899.1,400.6-899.1,400.5-899.3,400.5z M-903.2,407.4v-0.1
		c0-1.7,0-3.4,0-5.1c0-0.1-0.1-0.2-0.3-0.3c-0.4-0.2-0.9-0.4-1.3-0.7c-0.3-0.2-0.6-0.5-0.8-0.8c-0.1,0.1-0.3,0.2-0.4,0.2
		c-0.2,0.1-0.4,0.1-0.5-0.1s-0.1-0.4,0.1-0.5c0.1-0.1,0.3-0.2,0.4-0.3c-0.4-1.2-0.4-1.7-0.2-2.5c0.1-0.2,0-0.3-0.2-0.4
		c-1.5-0.9-3-1.7-4.5-2.6c-0.2-0.1-0.3-0.1-0.5,0c-0.5,0.5-1,0.8-1.7,1c-0.2,0.1-0.3,0.2-0.3,0.4c0,1.6,0,3.2,0,4.8
		c0,0.1,0,0.2,0,0.4c1.1,0.2,1.9,0.8,2.5,1.7c0.2-0.1,0.4-0.3,0.6-0.4c0.2-0.1,0.4-0.1,0.6,0.1c0.1,0.2,0,0.4-0.2,0.6
		c-0.2,0.1-0.4,0.3-0.7,0.4c0.3,0.9,0.3,1.8,0,2.7c0,0.1,0.1,0.2,0.2,0.3c0.8,0.5,1.6,1,2.5,1.4c0.7,0.4,1.4,0.8,2.2,1.3
		C-904.9,408.1-904.1,407.6-903.2,407.4z M-905.1,398.2c0,1.5,1.2,2.7,2.7,2.7s2.7-1.2,2.7-2.7s-1.2-2.7-2.7-2.7
		C-903.8,395.5-905.1,396.7-905.1,398.2z M-888.1,404.9c0-1.5-1.2-2.7-2.7-2.7s-2.7,1.2-2.7,2.7s1.2,2.7,2.7,2.7
		S-888.1,406.4-888.1,404.9z M-911.2,404.7c0-1.5-1.2-2.7-2.6-2.7c-1.5,0-2.7,1.2-2.8,2.6c0,1.5,1.1,2.7,2.6,2.8
		C-912.5,407.4-911.2,406.2-911.2,404.7z M-899.7,384.9c0-1.5-1.2-2.7-2.7-2.7s-2.7,1.2-2.7,2.7s1.2,2.7,2.7,2.7
		S-899.7,386.4-899.7,384.9z M-888.1,391.6c0-1.5-1.2-2.7-2.6-2.7c-1.5,0-2.7,1.2-2.8,2.7c0,1.5,1.2,2.7,2.7,2.7
		C-889.4,394.3-888.1,393.1-888.1,391.6z M-902.4,413.9c1.5,0,2.7-1.2,2.7-2.7s-1.2-2.7-2.7-2.7s-2.7,1.2-2.7,2.7
		C-905.1,412.7-903.9,413.9-902.4,413.9z M-913.9,394.3c1.5,0,2.7-1.2,2.7-2.6c0-1.5-1.1-2.8-2.6-2.8c-1.6,0-2.8,1.1-2.8,2.7
		C-916.6,393-915.4,394.2-913.9,394.3z"/>
	<path id="XMLID_4228_" class="st0" d="M-902,391.1c0,0.2,0,0.4,0,0.6c0,0.2-0.1,0.4-0.4,0.4c-0.2,0-0.4-0.2-0.4-0.4
		c0-0.4,0-0.8,0-1.1c0-0.2,0.2-0.4,0.4-0.4s0.4,0.2,0.4,0.4C-902,390.7-902,390.9-902,391.1z"/>
	<path id="XMLID_4227_" class="st0" d="M-902,393.4c0,0.2,0,0.3,0,0.5c-0.1,0.1-0.2,0.3-0.4,0.4c-0.2,0.1-0.4-0.1-0.4-0.4
		c0-0.3,0-0.7,0-1c0-0.1,0.2-0.3,0.4-0.3c0.1,0,0.3,0.2,0.4,0.3C-901.9,393-902,393.2-902,393.4z"/>
	<path id="XMLID_4226_" class="st0" d="M-897.2,401.7c-0.4-0.2-0.7-0.4-1-0.7c-0.1-0.1,0-0.3,0-0.4c0.1-0.1,0.3-0.2,0.4-0.1
		c0.3,0.1,0.6,0.3,0.8,0.5c0.1,0.1,0.1,0.3,0.1,0.4S-897,401.6-897.2,401.7z"/>
	<path id="XMLID_4225_" class="st0" d="M-895.2,402.1c0,0.3-0.3,0.5-0.5,0.4c-0.3-0.1-0.5-0.3-0.8-0.5c-0.1-0.1-0.2-0.3-0.1-0.5
		c0.1-0.1,0.3-0.3,0.4-0.2c0.3,0.1,0.6,0.3,0.9,0.5C-895.2,401.9-895.2,402-895.2,402.1z"/>
	<path id="XMLID_4224_" class="st0" d="M-906.7,401l-0.1,0.2c-0.2,0.1-0.3,0.3-0.5,0.3c-0.1,0-0.4-0.1-0.4-0.2c-0.1-0.1,0-0.3,0-0.4
		c0.2-0.2,0.4-0.3,0.6-0.3C-907,400.5-906.7,400.7-906.7,401z"/>
	<path id="XMLID_4223_" class="st0" d="M-908.9,402.4c-0.1-0.1-0.3-0.2-0.3-0.3s0-0.3,0.1-0.4c0.2-0.1,0.4-0.3,0.6-0.3
		c0.1,0,0.3,0.1,0.4,0.2c0.1,0.1,0.1,0.3,0,0.4C-908.4,402.1-908.6,402.3-908.9,402.4z"/>
</g>
<g id="XMLID_4218_">
	<path id="XMLID_4219_" class="st1" d="M-257.8,398.5c0,2.3,0,4.7,0,7c0,1.6-0.6,2.9-1.6,4c-1.3,1.3-2.8,2.2-4.5,3
		c-2.1,0.9-4.2,1.4-6.4,1.8c-1.9,0.3-3.7,0.5-5.6,0.6c-3.6,0.1-7.1-0.1-10.6-0.9c-2.1-0.5-4-1.1-5.9-2.1c-1.4-0.7-2.7-1.6-3.6-2.9
		c-0.8-1-1.1-2.1-1.1-3.4c0-4.5,0-9,0-13.4c0-1.9,0.7-3.5,2-5c1.5-1.8,3.5-2.8,5.6-3.7c2.1-0.8,4.3-1.3,6.5-1.6
		c2.2-0.3,4.4-0.4,6.7-0.4c2.3,0.1,4.6,0.2,6.9,0.9c1.6,0.5,3.1,1.1,4.2,2.3c0.9,0.9,1.5,2,1.5,3.3c0,1.9-0.6,3.4-2.1,4.6
		c-1.2,0.9-2.6,1.4-4,1.8c-2.6,0.7-5.3,0.8-8,0.7c-2.2-0.1-4.4-0.4-6.5-1.1c-1.3-0.4-2.4-1.1-3.1-2.3c-0.6-0.9-0.7-1.9-0.3-2.8
		c0.3-0.7,1-1.2,1.7-1.6c1.1-0.6,2.2-0.8,3.4-1c1.4-0.2,2.9-0.3,4.4-0.3c0.2,0,0.4,0,0.7,0c0.2,0,0.3,0.1,0.3,0.3c0,0.3,0,0.6,0,0.9
		c0,0.5,0,1,0,1.5s0,0.5-0.4,0.5c-1.4,0-2.9,0.1-4.3,0.3c-0.8,0.1-1.6,0.3-2.3,0.6c-0.1,0.1-0.3,0.1-0.3,0.2c0,0.2,0.1,0.2,0.3,0.3
		c0.6,0.4,1.2,0.6,1.9,0.8c1.3,0.4,2.6,0.5,4,0.6c1.9,0.1,3.7,0,5.6-0.2c1.6-0.2,3.2-0.5,4.7-1.3c0.3-0.2,0.6-0.4,0.8-0.6
		c0.6-0.6,0.8-1.4,0.6-2.2c-0.1-0.4-0.3-0.7-0.6-1c-0.5-0.5-1.1-0.8-1.8-1c-1.4-0.6-2.9-0.8-4.4-1c-1.4-0.1-2.8-0.2-4.2-0.2
		c-2.8,0.1-5.7,0.3-8.4,1c-1.9,0.5-3.7,1.2-5.3,2.3c-1.1,0.8-1.9,1.7-2.3,3c-0.1,0.4-0.1,0.7-0.1,1.1c0,0.6,0.3,1.1,0.7,1.6
		c1,1.1,2.2,1.8,3.5,2.3c1.8,0.8,3.7,1.2,5.6,1.6c1.9,0.3,3.9,0.5,5.9,0.5c2.1,0,4.2-0.1,6.2-0.3c2-0.2,4-0.6,5.9-1.2
		c1.5-0.5,2.9-1,4.1-2c0.8-0.7,1.3-1.5,1.2-2.6c0-0.4,0-0.7,0-1.1c0-0.3,0.1-0.3,0.3-0.3c0.8,0,1.6,0,2.4,0c0.3,0,0.3,0.1,0.3,0.3
		c0,1.5,0,3,0,4.5C-257.8,396.5-257.8,397.5-257.8,398.5z M-294.1,401.7c0,1.3,0,2.6,0,4c0,0.5,0.2,1,0.5,1.4
		c0.6,0.8,1.4,1.4,2.2,1.9c0.3,0.2,0.3,0.2,0.3-0.2c0-1.9,0-3.7,0-5.6c0-0.3,0-0.4,0.3-0.4c0.7,0,1.5,0,2.2,0c0.5,0,0.5,0,0.5,0.5
		c0,2.2,0,4.5,0,6.7c0,0.2,0.1,0.3,0.3,0.4c0.8,0.2,1.5,0.5,2.3,0.6c0.3,0.1,0.3,0.1,0.3-0.3c0-1.1,0-2.1,0-3.2
		c0-0.2,0.1-0.3,0.3-0.3c0.8,0,1.6,0,2.4,0c0.4,0,0.4,0,0.4,0.4c0,1.2,0,2.4,0,3.6c0,0.2,0,0.3,0.2,0.3c0.8,0.1,1.6,0.1,2.4,0.2
		c0.3,0,0.3,0,0.3-0.3c0-2.2,0-4.5,0-6.7c0-0.4,0-0.4,0.4-0.4c0.8,0,1.5,0,2.3,0c0.4,0,0.4,0,0.4,0.4c0,2.2,0,4.5,0,6.7
		c0,0.4,0,0.4,0.4,0.4c0.7,0,1.5-0.1,2.2-0.2c0.3,0,0.3-0.1,0.3-0.4c0-1.2,0-2.4,0-3.6c0-0.2,0.1-0.3,0.3-0.3c0.8,0,1.6,0,2.4,0
		c0.3,0,0.4,0,0.4,0.4c0,1,0,2.1,0,3.1c0,0.2,0.1,0.3,0.3,0.2c0.8-0.2,1.6-0.4,2.4-0.6c0.2-0.1,0.3-0.1,0.3-0.4c0-0.5,0-1.1,0-1.6
		c0-1.8,0-3.5,0-5.3c0-0.4,0-0.4,0.4-0.4c0.8,0,1.6,0,2.4,0c0.4,0,0.4,0,0.4,0.4c0,1.9,0,3.7,0,5.6c0,0.3,0,0.3,0.3,0.1
		c0.6-0.4,1.2-0.8,1.7-1.3c0.6-0.6,1-1.3,1-2.2c0-2.1,0-4.2,0-6.4c0-0.4,0-0.8,0-1.2c0-0.1,0-0.1,0-0.1c-0.1,0-0.1,0-0.1,0.1
		c-0.2,0.2-0.4,0.3-0.7,0.4c-1.8,1.1-3.8,1.7-5.9,2.1c-2.4,0.5-4.9,0.8-7.4,0.9c-2.3,0.1-4.6,0.1-6.9-0.2c-2.5-0.3-4.9-0.7-7.2-1.5
		c-1.7-0.5-3.2-1.2-4.7-2.2c-0.1,0-0.1-0.1-0.2-0.1c-0.1,0,0,0.1,0,0.2C-294.1,398.9-294.1,400.3-294.1,401.7z"/>
</g>
</svg>
