<?xml version="1.0" encoding="utf-8"?>
<!-- Generator: Adobe Illustrator 19.0.0, SVG Export Plug-In . SVG Version: 6.00 Build 0)  -->
<svg version="1.1" id="Layer_1" xmlns="http://www.w3.org/2000/svg" xmlns:xlink="http://www.w3.org/1999/xlink" x="0px" y="0px"
	 viewBox="-292.8 381.1 31 34.2" style="enable-background:new -292.8 381.1 31 34.2;" xml:space="preserve">
<style type="text/css">
	.st0{fill:#43B149;}
</style>
<g id="XMLID_4222_">
	<path id="XMLID_4229_" class="st0" d="M-289.8,400.8c0-1.5,0-3,0-4.5c0-0.7-0.1-1-0.8-1.3c-1.6-0.6-2.5-2.3-2.2-4.1
		c0.2-1.6,1.6-3,3.2-3.2c1.2-0.2,2.3,0.2,3.3,1.1c0.1,0.1,0.1,0.1,0.2,0.2c0,0,0,0,0.1,0c0.6-0.4,1.2-0.7,1.9-1.1
		c0.9-0.5,1.9-1.1,2.8-1.6c0.2-0.1,0.2-0.2,0.2-0.4c-0.6-2.4,1.2-4.7,3.7-4.8c2.4-0.1,4.4,2.3,3.8,4.7c-0.1,0.4,0,0.5,0.3,0.7
		c1.5,0.9,3,1.7,4.6,2.6c0.6-0.6,1.3-1.1,2.2-1.2c2.1-0.4,4.3,1.1,4.5,3.2c0.2,2-0.9,3.7-2.8,4.3c-0.1,0-0.2,0.2-0.2,0.3
		c0,1.8,0,3.5,0,5.3c0,0.2,0.1,0.3,0.3,0.3c1.7,0.5,2.8,2,2.8,3.6c0,2.2-1.8,4-4,3.9c-1,0-1.8-0.4-2.5-1c-0.1-0.1-0.2-0.2-0.3-0.2
		c-0.7,0.4-1.4,0.8-2.2,1.3s-1.7,1-2.5,1.4c-0.2,0.1-0.2,0.2-0.2,0.4c0.4,2-1,4-3,4.5c-2,0.4-4.1-0.9-4.5-2.9
		c-0.1-0.5-0.1-1.1,0-1.6c0-0.2,0-0.3-0.2-0.3c-1.5-0.9-3.1-1.8-4.6-2.7c-0.2-0.1-0.3-0.1-0.4,0c-2.3,2-5.7,0.8-6.3-2.1
		c-0.4-1.9,0.8-3.9,2.7-4.5C-290,400.9-289.9,400.9-289.8,400.8z M-280.4,387.5L-280.4,387.5c-1.7,0.9-3.2,1.8-4.8,2.7
		c-0.2,0.1-0.2,0.2-0.1,0.4c0.2,0.6,0.2,1.3,0,2c-0.1,0.2,0,0.3,0.2,0.4c1.5,0.9,3,1.7,4.5,2.6c0.2,0.1,0.3,0.1,0.4-0.1
		c1.6-1.5,3.8-1.5,5.4,0c0.1,0.1,0.2,0.2,0.4,0.1c1.5-0.9,3-1.7,4.5-2.6c0.2-0.1,0.2-0.2,0.2-0.4c-0.2-0.7-0.2-1.3,0-2
		c0.1-0.2,0-0.3-0.2-0.4c-0.6-0.3-1.1-0.6-1.7-1c-1-0.6-2.1-1.2-3.1-1.8c-0.7,0.7-1.5,1.2-2.5,1.3c-0.1,0.3,0.1,0.8-0.4,0.8
		c-0.6,0-0.3-0.5-0.4-0.8C-278.9,388.6-279.7,388.2-280.4,387.5z M-274.4,400.5c-0.5,0.7-1.2,1.2-2.1,1.4c-0.2,0.1-0.3,0.2-0.3,0.4
		c0,1.5,0,3.1,0,4.6c0,0.2,0,0.3,0,0.5c1,0.2,1.7,0.7,2.3,1.4c0.1,0,0.1,0,0.1,0c1.5-0.9,3-1.7,4.5-2.6c0.2-0.1,0.2-0.2,0.1-0.4
		c-0.1-0.5-0.1-1-0.1-1.4c0-0.4,0.2-0.8,0.3-1.2c-0.2-0.1-0.3-0.2-0.5-0.3c-0.2-0.1-0.2-0.3-0.1-0.5c0.1-0.2,0.3-0.3,0.5-0.1
		c0.2,0.1,0.3,0.2,0.5,0.3c0.6-0.7,1.3-1.3,2.2-1.5c0.1,0,0.1-0.2,0.1-0.3c0-1.8,0-3.5,0-5.3c0-0.2,0-0.3-0.2-0.3
		c-0.7-0.2-1.2-0.5-1.7-1c-0.1-0.1-0.2-0.2-0.4-0.1c-1.5,0.9-3,1.8-4.6,2.6c-0.2,0.1-0.2,0.2-0.2,0.4c0.2,0.8,0.2,1.5-0.1,2.3
		c-0.1,0.2-0.1,0.4,0.2,0.5c0.2,0.1,0.3,0.3,0.2,0.5c-0.1,0.2-0.3,0.2-0.5,0.2C-274.2,400.6-274.2,400.5-274.4,400.5z M-278.3,407.4
		L-278.3,407.4c0-1.8,0-3.5,0-5.2c0-0.1-0.1-0.2-0.3-0.3c-0.4-0.2-0.9-0.4-1.3-0.7c-0.3-0.2-0.6-0.5-0.8-0.8
		c-0.1,0.1-0.3,0.2-0.4,0.2c-0.2,0.1-0.4,0.1-0.5-0.1c-0.1-0.2-0.1-0.4,0.1-0.5c0.1-0.1,0.3-0.2,0.4-0.3c-0.4-1.2-0.4-1.7-0.2-2.5
		c0.1-0.2,0-0.3-0.2-0.4c-1.5-0.9-3-1.7-4.5-2.6c-0.2-0.1-0.3-0.1-0.5,0c-0.5,0.5-1,0.8-1.7,1c-0.2,0.1-0.3,0.2-0.3,0.4
		c0,1.6,0,3.2,0,4.8c0,0.1,0,0.2,0,0.4c1.1,0.2,1.9,0.8,2.5,1.7c0.2-0.1,0.4-0.3,0.6-0.4c0.2-0.1,0.4-0.1,0.6,0.1
		c0.1,0.2,0,0.4-0.2,0.6c-0.2,0.1-0.4,0.3-0.7,0.4c0.3,0.9,0.3,1.8,0,2.7c0,0.1,0.1,0.2,0.2,0.3c0.8,0.5,1.6,1,2.5,1.4
		c0.7,0.4,1.4,0.8,2.2,1.3C-280,408.1-279.2,407.6-278.3,407.4z M-280.2,398.2c0,1.5,1.2,2.7,2.7,2.7s2.7-1.2,2.7-2.7
		s-1.2-2.7-2.7-2.7C-278.9,395.5-280.2,396.7-280.2,398.2z M-263.2,404.9c0-1.5-1.2-2.7-2.7-2.7s-2.7,1.2-2.7,2.7s1.2,2.7,2.7,2.7
		S-263.2,406.4-263.2,404.9z M-286.3,404.7c0-1.5-1.2-2.7-2.6-2.7c-1.5,0-2.7,1.2-2.8,2.6c0,1.5,1.1,2.7,2.6,2.8
		C-287.6,407.4-286.3,406.2-286.3,404.7z M-274.8,384.9c0-1.5-1.2-2.7-2.7-2.7s-2.7,1.2-2.7,2.7s1.2,2.7,2.7,2.7
		S-274.8,386.4-274.8,384.9z M-263.2,391.6c0-1.5-1.2-2.7-2.6-2.7c-1.5,0-2.7,1.2-2.8,2.7c0,1.5,1.2,2.7,2.7,2.7
		C-264.5,394.3-263.2,393.1-263.2,391.6z M-277.5,413.9c1.5,0,2.7-1.2,2.7-2.7s-1.2-2.7-2.7-2.7s-2.7,1.2-2.7,2.7
		C-280.2,412.7-279,413.9-277.5,413.9z M-289,394.3c1.5,0,2.7-1.2,2.7-2.6c0-1.5-1.1-2.8-2.6-2.8c-1.6,0-2.8,1.1-2.8,2.7
		C-291.7,393-290.5,394.2-289,394.3z"/>
	<path id="XMLID_4228_" class="st0" d="M-277.1,391.1c0,0.2,0,0.4,0,0.6c0,0.2-0.1,0.4-0.4,0.4c-0.2,0-0.4-0.2-0.4-0.4
		c0-0.4,0-0.8,0-1.1c0-0.2,0.2-0.4,0.4-0.4s0.4,0.2,0.4,0.4C-277.1,390.7-277.1,390.9-277.1,391.1z"/>
	<path id="XMLID_4227_" class="st0" d="M-277.1,393.4c0,0.2,0,0.3,0,0.5c-0.1,0.1-0.2,0.3-0.4,0.4c-0.2,0.1-0.4-0.1-0.4-0.4
		c0-0.3,0-0.7,0-1c0-0.1,0.2-0.3,0.4-0.3c0.1,0,0.3,0.2,0.4,0.3C-277,393-277.1,393.2-277.1,393.4z"/>
	<path id="XMLID_4226_" class="st0" d="M-272.3,401.7c-0.4-0.2-0.7-0.4-1-0.7c-0.1-0.1,0-0.3,0-0.4c0.1-0.1,0.3-0.2,0.4-0.1
		c0.3,0.1,0.6,0.3,0.8,0.5c0.1,0.1,0.1,0.3,0.1,0.4C-272,401.5-272.1,401.6-272.3,401.7z"/>
	<path id="XMLID_4225_" class="st0" d="M-270.3,402.1c0,0.3-0.3,0.5-0.5,0.4c-0.3-0.1-0.5-0.3-0.8-0.5c-0.1-0.1-0.2-0.3-0.1-0.5
		c0.1-0.1,0.3-0.3,0.4-0.2c0.3,0.1,0.6,0.3,0.9,0.5C-270.3,401.9-270.3,402-270.3,402.1z"/>
	<path id="XMLID_4224_" class="st0" d="M-281.8,401l-0.1,0.2c-0.2,0.1-0.3,0.3-0.5,0.3c-0.1,0-0.4-0.1-0.4-0.2c-0.1-0.1,0-0.3,0-0.4
		c0.2-0.2,0.4-0.3,0.6-0.3C-282.1,400.5-281.8,400.7-281.8,401z"/>
	<path id="XMLID_4223_" class="st0" d="M-284,402.4c-0.1-0.1-0.3-0.2-0.3-0.3s0-0.3,0.1-0.4c0.2-0.1,0.4-0.3,0.6-0.3
		c0.1,0,0.3,0.1,0.4,0.2c0.1,0.1,0.1,0.3,0,0.4C-283.5,402.1-283.7,402.3-284,402.4z"/>
</g>
</svg>
