<?xml version="1.0" encoding="UTF-8"?>
<!DOCTYPE svg PUBLIC "-//W3C//DTD SVG 1.1//EN" "http://www.w3.org/Graphics/SVG/1.1/DTD/svg11.dtd">
<!-- Creator: CorelDRAW 2019 (64-Bit) -->
<svg xmlns="http://www.w3.org/2000/svg" xml:space="preserve" width="60px" height="60px" version="1.1" style="shape-rendering:geometricPrecision; text-rendering:geometricPrecision; image-rendering:optimizeQuality; fill-rule:evenodd; clip-rule:evenodd"
viewBox="0 0 512 512"
 xmlns:xlink="http://www.w3.org/1999/xlink">
 <defs>
  <style type="text/css">
   <![CDATA[
    .fil0 {fill:#FF6600}
    .fil1 {fill:white}
   ]]>
  </style>
 </defs>
 <g id="Layer_x0020_1">
  <metadata id="CorelCorpID_0Corel-Layer"/>
  <path class="fil0" d="M67.708 0c37.394,0 67.708,30.314 67.708,67.708 0,37.394 -30.314,67.708 -67.708,67.708 -37.394,0 -67.708,-30.314 -67.708,-67.708 0,-37.394 30.314,-67.708 67.708,-67.708z"/>
  <path class="fil0" d="M67.708 17.714c27.611,0 49.994,22.383 49.994,49.994 0,27.611 -22.383,49.994 -49.994,49.994 -27.611,0 -49.994,-22.383 -49.994,-49.994 0,-27.611 22.383,-49.994 49.994,-49.994z"/>
  <path class="fil1" d="M105.457 25.426c10.746,3.482 19.77,17.766 21.479,35.597 1.29,13.462 -1.9,25.729 -7.794,33.283 4.459,-8.249 6.654,-19.583 5.482,-31.815 -1.636,-17.08 -9.384,-31.195 -19.167,-37.065z"/>
  <path class="fil1" d="M12.15 70.987c-4.293,10.449 0.766,26.57 13.263,39.404 9.434,9.689 20.854,15.189 30.427,15.578 -9.175,-1.934 -19.24,-7.588 -27.812,-16.392 -11.97,-12.293 -17.727,-27.331 -15.878,-38.59z"/>
 </g>
</svg>
