<?xml version="1.0" encoding="utf-8"?>
<!-- Generator: Adobe Illustrator 19.0.0, SVG Export Plug-In . SVG Version: 6.00 Build 0)  -->
<svg version="1.1" id="Layer_1" xmlns="http://www.w3.org/2000/svg" xmlns:xlink="http://www.w3.org/1999/xlink" x="0px" y="0px"
	 viewBox="-222.5 400.7 38.6 41.2" style="enable-background:new -222.5 400.7 38.6 41.2;" xml:space="preserve">
<style type="text/css">
	.st0{fill:#929497;}
	.st1{fill:#42B049;}
	.st2{fill:#FFFFFF;}
</style>
<g>
	<g id="XMLID_7_">
		<g id="XMLID_8_">
			<path id="XMLID_9_" class="st0" d="M-39.8,909c-1.7,0-3.3-0.3-4.6-0.8c-1.4-0.6-2.2-1.4-2.2-2.4s0.8-1.8,2.2-2.4
				c1.2-0.5,2.9-0.8,4.6-0.8c1.7,0,3.3,0.3,4.6,0.8c1.4,0.6,2.2,1.4,2.2,2.4s-0.8,1.8-2.2,2.4C-36.4,908.7-38.1,909-39.8,909z
				 M-39.8,903.9c-3.4,0-5.5,1.1-5.5,1.9s2.2,1.9,5.5,1.9s5.5-1.1,5.5-1.9S-36.4,903.9-39.8,903.9z"/>
		</g>
	</g>
	<g id="XMLID_4_">
		<g id="XMLID_5_">
			<path id="XMLID_6_" class="st0" d="M-39.8,911.3c-2.7,0-5.2-0.6-6.5-1.5c-0.3-0.2-0.3-0.6-0.2-0.9c0.2-0.3,0.6-0.3,0.9-0.2
				c1.1,0.8,3.4,1.3,5.8,1.3c2.4,0,4.7-0.5,5.8-1.3c0.3-0.2,0.7-0.1,0.9,0.2c0.2,0.3,0.1,0.7-0.2,0.9
				C-34.6,910.8-37.1,911.3-39.8,911.3z"/>
		</g>
	</g>
	<g id="XMLID_1_">
		<g id="XMLID_2_">
			<path id="XMLID_3_" class="st0" d="M-39.8,915.5c-2.7,0-5.2-0.6-6.5-1.5c-0.3-0.2-0.3-0.6-0.2-0.9c0.2-0.3,0.6-0.3,0.9-0.2
				c1.1,0.8,3.4,1.3,5.8,1.3c2.4,0,4.7-0.5,5.8-1.3c0.3-0.2,0.7-0.1,0.9,0.2c0.2,0.3,0.1,0.7-0.2,0.9
				C-34.6,914.9-37.1,915.5-39.8,915.5z"/>
		</g>
	</g>
</g>
<g id="XMLID_108442_">
	<g id="XMLID_108449_">
		<g id="XMLID_108454_">
			<path id="XMLID_108455_" class="st1" d="M-196.9,413.8c-1.1,0-2.1-0.9-2.1-2.1s0.9-2.1,2.1-2.1h3.4c1.1,0,2.1,0.9,2.1,2.1
				s-0.9,2.1-2.1,2.1H-196.9z"/>
		</g>
		<g id="XMLID_108452_">
			<path id="XMLID_108453_" class="st1" d="M-196.9,419c-1.1,0-2.1-0.9-2.1-2.1s0.9-2.1,2.1-2.1h7.6c1.1,0,2.1,0.9,2.1,2.1
				s-0.9,2.1-2.1,2.1H-196.9z"/>
		</g>
		<g id="XMLID_108450_">
			<path id="XMLID_108451_" class="st1" d="M-196.9,424.1c-1.1,0-2.1-0.9-2.1-2.1s0.9-2.1,2.1-2.1h11c1.1,0,2.1,0.9,2.1,2.1
				s-0.9,2.1-2.1,2.1H-196.9z"/>
		</g>
	</g>
	<path id="XMLID_108446_" class="st1" d="M-207.1,423.3c-4,0-7.2-3.2-7.2-7.2c0-4,3.2-7.2,7.2-7.2c4,0,7.2,3.2,7.2,7.2
		c0,1.9-0.8,3.7-2.1,5.1C-203.4,422.6-205.2,423.3-207.1,423.3L-207.1,423.3z M-207.1,413.1c-1.7,0-3.1,1.4-3.1,3.1
		c0,0.8,0.3,1.6,0.9,2.2c0.6,0.6,1.3,0.9,2.2,0.9h0c1.7,0,3.1-1.4,3.1-3.1S-205.4,413.1-207.1,413.1z"/>
	<path id="XMLID_108445_" class="st2" d="M-210,420.9c0,0-0.1,0-0.2-0.1c0,0-0.1-0.1-0.2-0.1c-0.1,0-0.1-0.1-0.2-0.1
		c-0.2-0.1-0.4-0.2-0.6-0.4c-0.1,0-0.1-0.1-0.2-0.1c-0.1-0.1-0.1-0.1-0.2-0.2c-0.1-0.1-0.1-0.1-0.2-0.2c-0.1-0.1-0.1-0.1-0.2-0.2
		c-0.2-0.3-0.5-0.6-0.6-1c-0.2-0.4-0.4-0.8-0.5-1.2c-0.1-0.4-0.2-0.9-0.2-1.4c0-0.1,0-0.1,0-0.2l0-0.2c0-0.1,0-0.2,0-0.4
		c0-0.1,0-0.2,0.1-0.4c0-0.1,0.1-0.2,0.1-0.4c0.1-0.5,0.3-0.9,0.6-1.3c0.1-0.2,0.3-0.4,0.4-0.6c0.1-0.1,0.1-0.2,0.2-0.3
		c0.1-0.1,0.2-0.2,0.2-0.3c0.3-0.3,0.7-0.6,1-0.8c0.4-0.2,0.7-0.4,1-0.5c0.3-0.1,0.7-0.2,0.9-0.2c0.3,0,0.5,0,0.7-0.1
		c0.2,0,0.4,0,0.5,0c0.1,0,0.2,0,0.2,0s-0.1,0-0.2,0c-0.1,0-0.3,0-0.5,0.1c-0.1,0-0.2,0-0.3,0.1c-0.1,0-0.1,0-0.2,0.1
		c-0.1,0-0.1,0-0.2,0.1c-0.3,0.1-0.5,0.2-0.8,0.4c-0.6,0.3-1.2,0.8-1.7,1.4c-0.3,0.3-0.5,0.6-0.7,1c-0.2,0.4-0.4,0.8-0.5,1.2
		c0,0.1-0.1,0.2-0.1,0.3c0,0.1,0,0.2-0.1,0.3l0,0.2c0,0.1,0,0.1,0,0.2l0,0.2c0,0.1,0,0.1,0,0.2l0,0.1l0,0l0,0l0,0c0,0,0,0,0,0l0,0
		l0,0.2l0,0.2c0,0.1,0,0.1,0,0.2c0,0.2,0,0.4,0.1,0.6c0.1,0.4,0.2,0.8,0.3,1.1c0.1,0.3,0.3,0.7,0.5,0.9c0.1,0.1,0.2,0.3,0.3,0.4
		c0.1,0.1,0.2,0.2,0.3,0.3c0.2,0.2,0.3,0.4,0.5,0.5c0.1,0.1,0.1,0.1,0.2,0.2c0.1,0.1,0.1,0.1,0.2,0.1
		C-210,420.9-210,420.9-210,420.9z"/>
	<path id="XMLID_108444_" class="st2" d="M-202.4,413C-202.4,413-202.4,413-202.4,413c0.1,0.1,0.2,0.2,0.2,0.2c0,0,0.1,0.1,0.1,0.1
		c0,0,0.1,0.1,0.1,0.2c0.1,0.1,0.2,0.3,0.3,0.4c0.1,0.2,0.2,0.4,0.3,0.6c0.1,0.2,0.2,0.4,0.2,0.7c0,0.1,0,0.2,0.1,0.4
		c0,0.1,0,0.2,0,0.4c0,0.1,0,0.1,0,0.2l0,0.1l0,0.1l0,0.1c0,0,0,0.1,0,0.1l0,0.2c0,0.3-0.1,0.5-0.1,0.8c-0.1,0.2-0.1,0.5-0.2,0.7
		c-0.1,0.2-0.2,0.4-0.3,0.6c-0.1,0.1-0.1,0.2-0.2,0.3c-0.1,0.1-0.1,0.2-0.2,0.2c-0.1,0.1-0.1,0.1-0.2,0.2c-0.1,0.1-0.1,0.1-0.2,0.2
		c-0.1,0.1-0.2,0.2-0.3,0.2c-0.1,0.1-0.2,0.1-0.2,0.1c0,0-0.1,0-0.1,0s0,0,0-0.1c0-0.1,0.1-0.1,0.1-0.2c0-0.1,0.1-0.2,0.2-0.3
		c0,0,0-0.1,0.1-0.1c0,0,0-0.1,0.1-0.1c0-0.1,0.1-0.1,0.1-0.2c0-0.1,0.1-0.2,0.1-0.2c0,0,0-0.1,0.1-0.1c0,0,0-0.1,0.1-0.1
		c0.1-0.2,0.1-0.4,0.2-0.6c0-0.1,0.1-0.2,0.1-0.3c0-0.1,0-0.2,0.1-0.3c0-0.2,0.1-0.4,0.1-0.7l0-0.2c0,0,0-0.1,0-0.1l0-0.1l0-0.1
		l0-0.1c0-0.1,0-0.1,0-0.2c0-0.1,0-0.1,0-0.2c0-0.1,0-0.1,0-0.2c0-0.1,0-0.2,0-0.3c0-0.2,0-0.4-0.1-0.6c0-0.2-0.1-0.4-0.1-0.5
		c0-0.2-0.1-0.3-0.1-0.5c0-0.1,0-0.1-0.1-0.2c0-0.1,0-0.1-0.1-0.2C-202.4,413.2-202.4,413.1-202.4,413
		C-202.4,413-202.4,413-202.4,413z"/>
	<path id="XMLID_108443_" class="st1" d="M-199.4,425l-7.7,12.8l-10-16.7l0,0c-0.8-1.6-1.2-3.3-1.2-5.1c0-6,5-11,11-11.1
		c0.1,0,0.1,0,0.2,0c3,0,5.7,1.1,7.8,3.2c0.1,0.1,0.2,0.2,0.4,0.4h5.2c-0.7-1.2-1.6-2.4-2.6-3.4c-2.9-2.9-6.7-4.4-10.8-4.4
		c-0.1,0-0.1,0-0.2,0c-4,0.1-7.8,1.7-10.7,4.6c-2.9,2.9-4.5,6.7-4.5,10.7c0,2.5,0.6,4.9,1.7,7.1c0,0,0,0.1,0.1,0.1l9.9,16.5
		c0.8,1.3,2.2,2.1,3.8,2.1c1.6,0,3-0.8,3.8-2.1l8.8-14.8H-199.4z"/>
</g>
</svg>
