<?xml version="1.0" encoding="utf-8"?>
<!-- Generator: Adobe Illustrator 19.0.0, SVG Export Plug-In . SVG Version: 6.00 Build 0)  -->
<svg version="1.1" id="Layer_1" xmlns="http://www.w3.org/2000/svg" xmlns:xlink="http://www.w3.org/1999/xlink" x="0px" y="0px"
	 viewBox="-228.9 397.7 51.4 47.2" style="enable-background:new -228.9 397.7 51.4 47.2;" xml:space="preserve">
<style type="text/css">
	.st0{fill:#929497;}
	.st1{fill:#FFFFFF;}
	.st2{fill:#657BBB;}
	.st3{fill:#0E7DC1;}
</style>
<g>
	<g id="XMLID_7_">
		<g id="XMLID_8_">
			<path id="XMLID_9_" class="st0" d="M-39.8,909c-1.7,0-3.3-0.3-4.6-0.8c-1.4-0.6-2.2-1.4-2.2-2.4s0.8-1.8,2.2-2.4
				c1.2-0.5,2.9-0.8,4.6-0.8c1.7,0,3.3,0.3,4.6,0.8c1.4,0.6,2.2,1.4,2.2,2.4s-0.8,1.8-2.2,2.4C-36.4,908.7-38.1,909-39.8,909z
				 M-39.8,903.9c-3.4,0-5.5,1.1-5.5,1.9c0,0.8,2.2,1.9,5.5,1.9c3.4,0,5.5-1.1,5.5-1.9C-34.2,905-36.4,903.9-39.8,903.9z"/>
		</g>
	</g>
	<g id="XMLID_4_">
		<g id="XMLID_5_">
			<path id="XMLID_6_" class="st0" d="M-39.8,911.3c-2.7,0-5.2-0.6-6.5-1.5c-0.3-0.2-0.3-0.6-0.2-0.9c0.2-0.3,0.6-0.3,0.9-0.2
				c1.1,0.8,3.4,1.3,5.8,1.3c2.4,0,4.7-0.5,5.8-1.3c0.3-0.2,0.7-0.1,0.9,0.2s0.1,0.7-0.2,0.9C-34.6,910.8-37.1,911.3-39.8,911.3z"/>
		</g>
	</g>
	<g id="XMLID_1_">
		<g id="XMLID_2_">
			<path id="XMLID_3_" class="st0" d="M-39.8,915.5c-2.7,0-5.2-0.6-6.5-1.5c-0.3-0.2-0.3-0.6-0.2-0.9c0.2-0.3,0.6-0.3,0.9-0.2
				c1.1,0.8,3.4,1.3,5.8,1.3c2.4,0,4.7-0.5,5.8-1.3c0.3-0.2,0.7-0.1,0.9,0.2s0.1,0.7-0.2,0.9C-34.6,914.9-37.1,915.5-39.8,915.5z"/>
		</g>
	</g>
</g>
<g id="XMLID_108472_">
	<g id="XMLID_108473_">
		<g id="XMLID_108482_">
			<path id="XMLID_108486_" class="st1" d="M-184.2,432c5.9-11.6,1.2-25.8-10.4-31.7c-11.6-5.9-25.8-1.2-31.7,10.4
				c-5.9,11.6-1.2,25.8,10.4,31.7C-204.3,448.3-190.1,443.6-184.2,432z M-221.8,413c4.6-9.1,15.8-12.8,24.9-8.2
				c9.1,4.6,12.8,15.8,8.2,24.9c-4.6,9.1-15.8,12.8-24.9,8.2C-222.7,433.2-226.4,422.1-221.8,413z"/>
			<g id="XMLID_108483_">
				<path id="XMLID_108485_" class="st2" d="M-224.8,428.8c0,0-0.1-0.2-0.2-0.5c0-0.1-0.1-0.2-0.1-0.3c0-0.1,0-0.1-0.1-0.2
					c0-0.1,0-0.1-0.1-0.2c-0.1-0.3-0.2-0.5-0.3-0.9c-0.1-0.3-0.2-0.7-0.3-1.1c0-0.2-0.1-0.4-0.1-0.6c0-0.1,0-0.2-0.1-0.3
					c0-0.1,0-0.2-0.1-0.4c-0.2-0.9-0.3-2-0.3-3.2c0-0.1,0-0.3,0-0.5c0-0.2,0-0.3,0-0.5c0-0.3,0-0.6,0-1c0-0.3,0.1-0.6,0.1-1
					c0-0.3,0.1-0.7,0.2-1c0.2-1.4,0.6-2.8,1.2-4.2c0-0.1,0.1-0.2,0.1-0.3l0.1-0.1l0.1-0.1c0.1-0.2,0.2-0.3,0.2-0.5l0.1-0.3l0.1-0.1
					l0,0l0,0l0,0l0-0.1c0.1-0.2,0.2-0.3,0.3-0.5c0.2-0.3,0.4-0.7,0.6-1l0.2-0.3l0.2-0.2c0.1-0.2,0.2-0.3,0.3-0.5
					c0.1-0.2,0.2-0.3,0.3-0.5c0.1-0.2,0.2-0.3,0.4-0.5c0.2-0.3,0.5-0.6,0.8-0.9l0.4-0.4c0.1-0.1,0.3-0.3,0.4-0.4l0.4-0.4
					c0.1-0.1,0.1-0.1,0.2-0.2l0.2-0.2c1.2-1.1,2.5-2,3.9-2.8c0.2-0.1,0.4-0.2,0.5-0.3c0.2-0.1,0.3-0.2,0.5-0.3
					c0.2-0.1,0.4-0.2,0.5-0.2l0.3-0.1c0.1,0,0.2-0.1,0.3-0.1c0.4-0.1,0.7-0.3,1.1-0.4c0.2-0.1,0.4-0.1,0.5-0.2
					c0.2-0.1,0.4-0.1,0.5-0.2c1.4-0.4,2.9-0.7,4.3-0.8c0.1,0,0.2,0,0.3,0c0.1,0,0.2,0,0.3,0c0.2,0,0.3,0,0.5,0c0.2,0,0.3,0,0.5,0
					c0.2,0,0.3,0,0.5,0c0.3,0,0.6,0,0.9,0c0.2,0,0.3,0,0.5,0c0.2,0,0.3,0,0.4,0.1c0.1,0,0.3,0,0.4,0.1c0.1,0,0.3,0,0.4,0.1
					c0.1,0,0.3,0,0.4,0.1c0.1,0,0.3,0,0.4,0.1c0.3,0.1,0.5,0.1,0.8,0.2c0.3,0.1,0.5,0.1,0.7,0.2c0.1,0,0.2,0.1,0.3,0.1
					c0.1,0,0.2,0.1,0.3,0.1c0.2,0.1,0.4,0.1,0.6,0.2c0.4,0.1,0.7,0.3,1.1,0.4c0.3,0.1,0.6,0.3,0.8,0.4c0.1,0.1,0.2,0.1,0.3,0.2
					c0.1,0.1,0.2,0.1,0.3,0.1c0.3,0.2,0.5,0.3,0.5,0.3s-0.2-0.1-0.5-0.2c-0.1,0-0.2-0.1-0.3-0.1c-0.1,0-0.2-0.1-0.3-0.1
					c-0.3-0.1-0.5-0.2-0.9-0.3c-0.3-0.1-0.7-0.2-1.1-0.3c-0.2-0.1-0.4-0.1-0.6-0.2c-0.1,0-0.2-0.1-0.3-0.1c-0.1,0-0.2,0-0.3-0.1
					c-0.9-0.2-2-0.4-3.1-0.4c-0.1,0-0.3,0-0.4,0c-0.1,0-0.3,0-0.4,0c-0.3,0-0.6,0-0.9,0c-0.6,0-1.3,0.1-1.9,0.1
					c-1.3,0.1-2.7,0.4-4.1,0.9c-1.4,0.4-2.7,1-4.1,1.8c-1.3,0.8-2.6,1.6-3.7,2.7c-1.1,1-2.2,2.2-3,3.4c-0.1,0.2-0.2,0.3-0.3,0.5
					l-0.2,0.2l-0.1,0.2c-0.2,0.3-0.4,0.6-0.6,1c-0.1,0.2-0.2,0.3-0.3,0.5l0,0.1l0,0c0,0,0,0,0,0l0,0l-0.1,0.1l-0.1,0.2
					c-0.1,0.2-0.2,0.3-0.2,0.5l-0.1,0.1l-0.1,0.1l-0.1,0.2c-0.6,1.3-1,2.7-1.3,4c-0.3,1.3-0.4,2.5-0.5,3.7c0,0.1,0,0.3,0,0.4
					c0,0.1,0,0.3,0,0.4c0,0.3,0,0.6,0,0.8c0,0.3,0,0.5,0,0.8c0,0.3,0.1,0.5,0.1,0.7c0,0.1,0,0.2,0,0.3c0,0.1,0,0.2,0.1,0.3
					c0,0.2,0.1,0.4,0.1,0.6c0.1,0.4,0.2,0.8,0.2,1.1c0.1,0.3,0.2,0.6,0.2,0.9c0,0.1,0,0.1,0,0.2c0,0.1,0,0.1,0.1,0.2
					c0,0.1,0.1,0.2,0.1,0.3C-224.8,428.6-224.8,428.8-224.8,428.8z"/>
				<path id="XMLID_108484_" class="st2" d="M-186.7,430.7c0,0,0,0.1-0.1,0.2c-0.1,0.1-0.1,0.3-0.2,0.6c-0.1,0.1-0.1,0.3-0.2,0.4
					c-0.1,0.1-0.1,0.3-0.2,0.5c-0.1,0.2-0.2,0.3-0.3,0.5c0,0,0,0.1-0.1,0.1c0,0-0.1,0.1-0.1,0.1c-0.1,0.1-0.1,0.2-0.2,0.3
					c-0.1,0.2-0.2,0.4-0.4,0.6c-0.1,0.2-0.3,0.4-0.4,0.6c-0.3,0.4-0.7,0.9-1,1.3c-0.2,0.2-0.4,0.4-0.6,0.6c-0.1,0.1-0.2,0.2-0.3,0.3
					c-0.1,0.1-0.2,0.2-0.3,0.3c-0.1,0.1-0.2,0.2-0.3,0.3c-0.1,0.1-0.2,0.2-0.3,0.3c-0.2,0.2-0.5,0.4-0.7,0.6
					c-0.1,0.1-0.2,0.2-0.4,0.3c-0.1,0.1-0.3,0.2-0.4,0.3c-0.1,0.1-0.3,0.2-0.4,0.3c-0.1,0.1-0.3,0.2-0.4,0.2
					c-0.3,0.2-0.5,0.3-0.8,0.4c-0.3,0.1-0.5,0.3-0.8,0.4c-0.1,0-0.1,0.1-0.2,0.1c-0.1,0-0.1,0.1-0.2,0.1c-0.1,0.1-0.3,0.1-0.4,0.2
					c-0.3,0.1-0.5,0.2-0.8,0.3c-0.3,0.1-0.5,0.2-0.7,0.2c-0.1,0-0.1,0-0.2,0.1c-0.1,0-0.1,0-0.2,0c-0.1,0-0.2,0.1-0.3,0.1
					c-0.2,0.1-0.4,0.1-0.6,0.2c-0.2,0-0.4,0.1-0.6,0.1c-0.2,0-0.4,0.1-0.5,0.1c-0.2,0-0.3,0-0.4,0c-0.3,0-0.5,0-0.6,0.1
					c-0.1,0-0.2,0-0.2,0s0.1,0,0.2-0.1c0.1,0,0.3-0.1,0.6-0.2c0.1,0,0.3-0.1,0.4-0.1c0.1-0.1,0.3-0.1,0.5-0.2
					c0.2-0.1,0.4-0.1,0.5-0.2c0.2-0.1,0.4-0.2,0.6-0.2c0.1,0,0.2-0.1,0.3-0.1c0.1,0,0.1,0,0.2-0.1c0.1,0,0.1-0.1,0.2-0.1
					c0.2-0.1,0.4-0.2,0.7-0.3c0.2-0.1,0.5-0.2,0.7-0.3c0.1-0.1,0.2-0.1,0.4-0.2c0.1,0,0.1-0.1,0.2-0.1c0.1,0,0.1-0.1,0.2-0.1
					c0.2-0.1,0.5-0.3,0.7-0.4c0.1-0.1,0.2-0.1,0.4-0.2c0.1-0.1,0.2-0.2,0.4-0.2c0.1-0.1,0.2-0.2,0.4-0.2c0.1-0.1,0.2-0.2,0.4-0.3
					c0.1-0.1,0.2-0.2,0.4-0.3c0.1-0.1,0.2-0.2,0.4-0.3c0.2-0.2,0.5-0.4,0.7-0.5c0.2-0.2,0.4-0.4,0.7-0.6c0.1-0.1,0.2-0.2,0.3-0.3
					c0.1-0.1,0.2-0.2,0.3-0.3c0.1-0.1,0.2-0.2,0.3-0.3c0.1-0.1,0.2-0.2,0.3-0.3c0.4-0.4,0.8-0.8,1.1-1.2c0.2-0.2,0.3-0.4,0.5-0.6
					c0.2-0.2,0.3-0.4,0.4-0.5c0.1-0.1,0.1-0.2,0.2-0.3c0,0,0.1-0.1,0.1-0.1c0,0,0.1-0.1,0.1-0.1c0.1-0.2,0.2-0.3,0.3-0.5
					c0.1-0.1,0.2-0.3,0.3-0.4c0.1-0.1,0.2-0.3,0.2-0.4c0.1-0.2,0.3-0.4,0.4-0.5C-186.7,430.8-186.7,430.7-186.7,430.7z"/>
			</g>
		</g>
		<circle id="XMLID_108481_" class="st3" cx="-204.6" cy="420.9" r="2.4"/>
		<rect id="XMLID_108480_" x="-203.9" y="418.5" class="st1" width="17.9" height="4.8"/>
		<circle id="XMLID_108479_" class="st1" cx="-204.6" cy="420.9" r="2.9"/>
		<g id="XMLID_108474_">
			<path id="XMLID_108477_" class="st1" d="M-184.3,414.3c-3.7,0-6.8,3-6.8,6.8c0,3.7,3,6.8,6.8,6.8s6.8-3,6.8-6.8
				C-177.5,417.3-180.5,414.3-184.3,414.3z"/>
			<path id="XMLID_108475_" class="st2" d="M-184.3,419.4c-0.9,0-1.7,0.8-1.7,1.7c0,0.9,0.8,1.7,1.7,1.7c0.9,0,1.7-0.8,1.7-1.7
				C-182.6,420.1-183.4,419.4-184.3,419.4z"/>
		</g>
	</g>
</g>
</svg>
