<?xml version="1.0" encoding="utf-8"?>
<!-- Generator: Adobe Illustrator 19.0.0, SVG Export Plug-In . SVG Version: 6.00 Build 0)  -->
<svg version="1.1" id="Layer_1" xmlns="http://www.w3.org/2000/svg" xmlns:xlink="http://www.w3.org/1999/xlink" x="0px" y="0px"
	 viewBox="-220.9 400.9 35.3 40.8" style="enable-background:new -220.9 400.9 35.3 40.8;" xml:space="preserve">
<style type="text/css">
	.st0{fill:#929497;}
	.st1{fill:#45B876;}
	.st2{fill:#82479B;}
	.st3{fill:#FFFFFF;}
</style>
<g>
	<g id="XMLID_7_">
		<g id="XMLID_8_">
			<path id="XMLID_9_" class="st0" d="M-39.8,909c-1.7,0-3.3-0.3-4.6-0.8c-1.4-0.6-2.2-1.4-2.2-2.4s0.8-1.8,2.2-2.4
				c1.2-0.5,2.9-0.8,4.6-0.8c1.7,0,3.3,0.3,4.6,0.8c1.4,0.6,2.2,1.4,2.2,2.4s-0.8,1.8-2.2,2.4C-36.4,908.7-38.1,909-39.8,909z
				 M-39.8,903.9c-3.4,0-5.5,1.1-5.5,1.9c0,0.8,2.2,1.9,5.5,1.9s5.5-1.1,5.5-1.9C-34.2,905-36.4,903.9-39.8,903.9z"/>
		</g>
	</g>
	<g id="XMLID_4_">
		<g id="XMLID_5_">
			<path id="XMLID_6_" class="st0" d="M-39.8,911.3c-2.7,0-5.2-0.6-6.5-1.5c-0.3-0.2-0.3-0.6-0.2-0.9c0.2-0.3,0.6-0.3,0.9-0.2
				c1.1,0.8,3.4,1.3,5.8,1.3c2.4,0,4.7-0.5,5.8-1.3c0.3-0.2,0.7-0.1,0.9,0.2c0.2,0.3,0.1,0.7-0.2,0.9
				C-34.6,910.8-37.1,911.3-39.8,911.3z"/>
		</g>
	</g>
	<g id="XMLID_1_">
		<g id="XMLID_2_">
			<path id="XMLID_3_" class="st0" d="M-39.8,915.5c-2.7,0-5.2-0.6-6.5-1.5c-0.3-0.2-0.3-0.6-0.2-0.9c0.2-0.3,0.6-0.3,0.9-0.2
				c1.1,0.8,3.4,1.3,5.8,1.3c2.4,0,4.7-0.5,5.8-1.3c0.3-0.2,0.7-0.1,0.9,0.2c0.2,0.3,0.1,0.7-0.2,0.9
				C-34.6,914.9-37.1,915.5-39.8,915.5z"/>
		</g>
	</g>
</g>
<g id="XMLID_108456_">
	<g id="XMLID_108467_">
		<g id="XMLID_108470_">
			<polygon id="XMLID_108471_" class="st1" points="-203.2,423.7 -219.8,414.1 -217.8,410.5 -203.2,419 -188.6,410.5 -186.6,414.1 
							"/>
		</g>
		<g id="XMLID_108468_">
			<rect id="XMLID_108469_" x="-205.2" y="421.3" class="st1" width="4.1" height="18"/>
		</g>
	</g>
	<g id="XMLID_108463_">
		<path id="XMLID_108464_" class="st2" d="M-203.2,400.9l-17.7,10.2v20.4l4.1,2.4v-18l11.5,6.6v18l2,1.2l2-1.2v-18l11.5-6.6l0,18
			l4.1-2.4v-20.4L-203.2,400.9z M-203.2,419l-11.5-6.6l11.5-6.6l11.5,6.6L-203.2,419z"/>
	</g>
	<path id="XMLID_108462_" class="st3" d="M-187.8,416.3c0,0,0,0.1,0,0.2c0,0.1,0,0.3,0.1,0.4c0,0.2,0.1,0.4,0.1,0.7
		c0,0.3,0.1,0.6,0.1,0.9c0.1,0.7,0.1,1.4,0.1,2.2c0,0.2,0,0.4,0,0.6c0,0.2,0,0.4,0,0.6c0,0.4,0,0.9,0,1.3c0,0.4,0,0.9,0,1.3
		c0,0.2,0,0.4,0,0.6c0,0.2,0,0.4,0,0.6c0,0.8-0.1,1.6-0.1,2.2c0,0.3-0.1,0.6-0.1,0.9c0,0.3-0.1,0.5-0.1,0.7c0,0.2,0,0.3-0.1,0.4
		c0,0.1,0,0.2,0,0.2s0-0.1,0-0.2c0-0.1,0-0.3-0.1-0.4c0-0.2-0.1-0.4-0.1-0.7c0-0.3-0.1-0.6-0.1-0.9c-0.1-0.7-0.1-1.4-0.1-2.2
		c0-0.2,0-0.4,0-0.6c0-0.2,0-0.4,0-0.6c0-0.4,0-0.9,0-1.3c0-0.4,0-0.9,0-1.3c0-0.2,0-0.4,0-0.6c0-0.2,0-0.4,0-0.6
		c0-0.8,0.1-1.6,0.1-2.2c0-0.3,0.1-0.6,0.1-0.9c0-0.3,0.1-0.5,0.1-0.7c0-0.2,0-0.3,0.1-0.4C-187.8,416.3-187.8,416.3-187.8,416.3z"
		/>
	<path id="XMLID_108461_" class="st3" d="M-216.4,413.9C-216.4,413.9-216.3,413.9-216.4,413.9c0.1,0,0.2,0.1,0.3,0.1
		c0.2,0.1,0.5,0.2,0.9,0.3c0.4,0.1,0.8,0.3,1.2,0.5c0.1,0.1,0.2,0.1,0.3,0.2c0.1,0.1,0.2,0.1,0.3,0.2c0.2,0.1,0.4,0.2,0.7,0.4
		c0.2,0.1,0.4,0.3,0.6,0.4c0.1,0.1,0.2,0.1,0.3,0.2c0.1,0.1,0.2,0.1,0.3,0.2c0.4,0.3,0.7,0.5,1,0.7c0.3,0.2,0.5,0.4,0.7,0.6
		c0.1,0.1,0.1,0.1,0.2,0.2c0,0,0.1,0.1,0.1,0.1s0,0-0.1,0c-0.1,0-0.1,0-0.2-0.1c-0.2-0.1-0.5-0.2-0.9-0.3c-0.4-0.1-0.8-0.3-1.2-0.5
		c-0.1-0.1-0.2-0.1-0.3-0.2c-0.1-0.1-0.2-0.1-0.3-0.2c-0.2-0.1-0.4-0.2-0.7-0.4c-0.2-0.1-0.4-0.3-0.6-0.4c-0.1-0.1-0.2-0.1-0.3-0.2
		c-0.1-0.1-0.2-0.1-0.3-0.2c-0.4-0.3-0.7-0.5-1-0.7c-0.3-0.2-0.5-0.4-0.7-0.6C-216.2,414-216.2,414-216.4,413.9
		C-216.3,413.9-216.4,413.9-216.4,413.9z"/>
	<polygon id="XMLID_108460_" class="st2" points="-191.4,434.9 -194.2,436.6 -194.2,431.8 -191.4,430.1 	"/>
	<polygon id="XMLID_108459_" class="st2" points="-196.2,437.7 -199,439.3 -199,434.6 -196.2,432.9 	"/>
	<polygon id="XMLID_108458_" class="st2" points="-207.4,439.3 -210.2,437.6 -210.2,432.9 -207.4,434.6 	"/>
	<polygon id="XMLID_108457_" class="st2" points="-212.4,436.3 -215.3,434.7 -215.3,430 -212.4,431.6 	"/>
</g>
</svg>
