<?xml version="1.0" encoding="utf-8"?>
<!-- Generator: Adobe Illustrator 19.0.0, SVG Export Plug-In . SVG Version: 6.00 Build 0)  -->
<svg version="1.1" id="Layer_1" xmlns="http://www.w3.org/2000/svg" xmlns:xlink="http://www.w3.org/1999/xlink" x="0px" y="0px"
	 viewBox="-221.8 403.2 37.3 36.2" style="enable-background:new -221.8 403.2 37.3 36.2;" xml:space="preserve">
<style type="text/css">
	.st0{fill:#929497;}
	.st1{fill:#0E7DC1;}
	.st2{fill:#FFFFFF;}
</style>
<g>
	<g id="XMLID_7_">
		<g id="XMLID_8_">
			<path id="XMLID_9_" class="st0" d="M-39.8,909c-1.7,0-3.3-0.3-4.6-0.8c-1.4-0.6-2.2-1.4-2.2-2.4s0.8-1.8,2.2-2.4
				c1.2-0.5,2.9-0.8,4.6-0.8c1.7,0,3.3,0.3,4.6,0.8c1.4,0.6,2.2,1.4,2.2,2.4s-0.8,1.8-2.2,2.4C-36.4,908.7-38.1,909-39.8,909z
				 M-39.8,903.9c-3.4,0-5.5,1.1-5.5,1.9s2.2,1.9,5.5,1.9s5.5-1.1,5.5-1.9S-36.4,903.9-39.8,903.9z"/>
		</g>
	</g>
	<g id="XMLID_4_">
		<g id="XMLID_5_">
			<path id="XMLID_6_" class="st0" d="M-39.8,911.3c-2.7,0-5.2-0.6-6.5-1.5c-0.3-0.2-0.3-0.6-0.2-0.9c0.2-0.3,0.6-0.3,0.9-0.2
				c1.1,0.8,3.4,1.3,5.8,1.3c2.4,0,4.7-0.5,5.8-1.3c0.3-0.2,0.7-0.1,0.9,0.2c0.2,0.3,0.1,0.7-0.2,0.9
				C-34.6,910.8-37.1,911.3-39.8,911.3z"/>
		</g>
	</g>
	<g id="XMLID_1_">
		<g id="XMLID_2_">
			<path id="XMLID_3_" class="st0" d="M-39.8,915.5c-2.7,0-5.2-0.6-6.5-1.5c-0.3-0.2-0.3-0.6-0.2-0.9c0.2-0.3,0.6-0.3,0.9-0.2
				c1.1,0.8,3.4,1.3,5.8,1.3c2.4,0,4.7-0.5,5.8-1.3c0.3-0.2,0.7-0.1,0.9,0.2c0.2,0.3,0.1,0.7-0.2,0.9
				C-34.6,914.9-37.1,915.5-39.8,915.5z"/>
		</g>
	</g>
</g>
<g id="XMLID_108501_">
	<g id="XMLID_108511_">
		<path id="XMLID_108512_" class="st1" d="M-200.4,411.4c-1,0-1.9-0.8-1.9-1.9c0-1,0.8-1.9,1.9-1.9h8.8c1,0,1.9,0.8,1.9,1.9
			c0,1-0.8,1.9-1.9,1.9H-200.4z"/>
	</g>
	<g id="XMLID_108509_">
		<path id="XMLID_108510_" class="st1" d="M-196,415.8c-1,0-1.9-0.8-1.9-1.9v-8.8c0-1,0.8-1.9,1.9-1.9c1,0,1.9,0.8,1.9,1.9v8.8
			C-194.1,414.9-195,415.8-196,415.8z"/>
	</g>
	<path id="XMLID_108508_" class="st1" d="M-206.3,439.4c-0.5,0-1-0.2-1.3-0.6l-5.7-5.7h-1.8c-3.7,0-6.7-3-6.7-6.7v-16.4
		c0-3.7,3-6.7,6.7-6.7h9.7c1,0,1.9,0.8,1.9,1.9c0,1-0.8,1.9-1.9,1.9h-9.7c-1.6,0-3,1.3-3,3v16.4c0,1.6,1.3,3,3,3h2.4c0,0,0,0,0,0
		c0,0,0.1,0,0.1,0l0,0c0,0,0.1,0,0.1,0c0.5,0,1,0.2,1.3,0.5l4.9,4.9l4.8-4.8c0.1-0.1,0.3-0.2,0.5-0.3l0,0l0,0
		c0.3-0.2,0.7-0.3,1.1-0.3h8.6c1.6,0,3-1.3,3-3v-13.6c0-1,0.8-1.9,1.9-1.9s1.9,0.8,1.9,1.9v13.6c0,3.7-3,6.7-6.7,6.7h-8l-5.7,5.7
		C-205.3,439.2-205.8,439.4-206.3,439.4z"/>
	<g id="XMLID_108506_">
		<path id="XMLID_108507_" class="st1" d="M-213,421.9c-1,0-1.9-0.8-1.9-1.9s0.8-1.9,1.9-1.9h20c1,0,1.9,0.8,1.9,1.9
			s-0.8,1.9-1.9,1.9H-213z"/>
	</g>
	<g id="XMLID_108504_">
		<path id="XMLID_108505_" class="st1" d="M-213,427.5c-1,0-1.9-0.8-1.9-1.9c0-1,0.8-1.9,1.9-1.9h20c1,0,1.9,0.8,1.9,1.9
			c0,1-0.8,1.9-1.9,1.9H-213z"/>
	</g>
	<path id="XMLID_108503_" class="st2" d="M-219.9,426.1c0,0,0-0.1,0-0.2c0-0.1,0-0.3-0.1-0.5c0-0.2,0-0.5-0.1-0.8c0-0.3,0-0.7-0.1-1
		c0-0.8-0.1-1.7-0.1-2.6c0-0.2,0-0.5,0-0.7c0-0.2,0-0.5,0-0.7c0-0.5,0-1,0-1.5c0-0.5,0-1,0-1.5c0-0.3,0-0.5,0-0.7c0-0.2,0-0.5,0-0.7
		c0-1,0.1-1.9,0.1-2.6c0-0.4,0-0.7,0.1-1c0-0.3,0.1-0.6,0.1-0.8c0-0.2,0-0.4,0.1-0.5c0-0.1,0-0.2,0-0.2s0,0.1,0,0.2
		c0,0.1,0,0.3,0.1,0.5c0,0.2,0,0.5,0.1,0.8c0,0.3,0,0.7,0.1,1c0,0.8,0.1,1.7,0.1,2.6c0,0.2,0,0.5,0,0.7c0,0.2,0,0.5,0,0.7
		c0,0.5,0,1,0,1.5c0,0.5,0,1,0,1.5c0,0.3,0,0.5,0,0.7c0,0.2,0,0.5,0,0.7c0,1-0.1,1.9-0.1,2.6c0,0.4,0,0.7-0.1,1
		c0,0.3-0.1,0.6-0.1,0.8c0,0.2,0,0.4-0.1,0.5C-219.9,426.1-219.9,426.1-219.9,426.1z"/>
	<path id="XMLID_108502_" class="st2" d="M-187,425.4c0,0,0,0.2,0.1,0.4c0,0.1,0,0.3,0.1,0.5c0,0.2,0.1,0.4,0.1,0.6
		c0,0.2,0,0.5,0.1,0.8c0,0.1,0,0.1,0,0.2l0,0.1l0,0.1c0,0,0,0.1,0,0.1c0,0.2,0,0.3,0,0.5c0,0.2-0.1,0.3-0.1,0.5
		c-0.1,0.2-0.1,0.3-0.2,0.5c-0.2,0.3-0.4,0.6-0.6,0.8c-0.3,0.2-0.6,0.4-0.9,0.6c-0.3,0.1-0.7,0.2-1,0.2c-0.1,0-0.2,0-0.2,0
		c-0.1,0-0.2,0-0.2,0c-0.1,0-0.3,0-0.4,0c-0.3,0-0.5,0-0.8-0.1c-0.2,0-0.5,0-0.6-0.1c-0.2,0-0.4,0-0.5-0.1c-0.1,0-0.2,0-0.3,0
		c-0.1,0-0.1,0-0.1,0s0,0,0.1,0c0.1,0,0.2,0,0.3,0c0.1,0,0.3,0,0.5-0.1c0.2,0,0.4,0,0.6-0.1c0.2,0,0.5,0,0.8-0.1c0.1,0,0.3,0,0.4,0
		c0.1,0,0.3,0,0.4-0.1c0.3-0.1,0.5-0.1,0.8-0.3c0.1-0.1,0.2-0.1,0.4-0.2c0.1-0.1,0.2-0.2,0.3-0.3c0.4-0.4,0.7-0.9,0.8-1.4
		c0-0.1,0.1-0.3,0.1-0.4c0,0,0-0.1,0-0.1l0,0l0,0l0,0c0,0,0,0,0,0l0,0l0-0.1c0-0.1,0-0.1,0-0.2c0-0.3,0-0.5,0.1-0.8
		c0-0.2,0.1-0.5,0.1-0.6c0-0.2,0.1-0.4,0.1-0.5C-187,425.6-187,425.4-187,425.4z"/>
</g>
</svg>
