<?xml version="1.0" encoding="utf-8"?>
<!-- Generator: Adobe Illustrator 19.0.0, SVG Export Plug-In . SVG Version: 6.00 Build 0)  -->
<svg version="1.1" id="Layer_1" xmlns="http://www.w3.org/2000/svg" xmlns:xlink="http://www.w3.org/1999/xlink" x="0px" y="0px"
	 viewBox="0 0 512 512" style="enable-background:new 0 0 512 512;" xml:space="preserve">
<style type="text/css">
	.st0{fill:#FFFFFF;}
</style>
<title>compass navigation</title>
<g>
	<polygon points="423.5,250.5 261.5,250.5 261.5,88.5 250.5,88.5 250.5,250.5 88.5,250.5 88.5,256 88.5,256 88.5,286.3 99.5,286.3 
		99.5,261.5 120.8,261.5 120.8,276.3 131.8,276.3 131.8,261.5 153.1,261.5 153.1,286.3 164.1,286.3 164.1,261.5 185.3,261.5 
		185.3,276.3 196.3,276.3 196.3,261.5 217.6,261.5 217.6,286.3 228.6,286.3 228.6,261.5 250.5,261.5 250.5,283.4 234.4,283.4 
		234.4,294.4 250.5,294.4 250.5,315.7 224.4,315.7 224.4,326.7 250.5,326.7 250.5,348 234.4,348 234.4,359 250.5,359 250.5,380.2 
		224.4,380.2 224.4,391.2 250.5,391.2 250.5,412.5 234.4,412.5 234.4,423.5 254.7,423.5 254.7,423.4 261.5,423.4 261.5,261.5 
		423.5,261.5 	"/>
	<path class="st0" d="M254.7,424h-20.8v-12H250v-20.3h-26.1v-12H250v-20.3h-16.1v-12H250v-20.3h-26.1v-12H250v-20.3h-16.1v-12H250
		V262h-20.9v24.8h-12V262h-20.3v14.8h-12V262h-20.3v24.8h-12V262h-20.3v14.8h-12V262H100v24.8H88l0-36.8h162V88h12v162h162v12H262
		v162L254.7,424z M234.9,423l26.1,0V261h162v-10H261V89h-10v162H89l0,34.8h10V261h22.3v14.8h10V261h22.3v24.8h10V261h22.3v14.8h10
		V261h22.3v24.8h10V261H251v22.9h-16.1v10H251v22.3h-26.1v10H251v22.3h-16.1v10H251v22.3h-26.1v10H251V413h-16.1V423z"/>
</g>
</svg>
