<?xml version="1.0" encoding="utf-8"?>
<!-- Generator: Adobe Illustrator 19.0.0, SVG Export Plug-In . SVG Version: 6.00 Build 0)  -->
<svg version="1.1" id="Layer_1" xmlns="http://www.w3.org/2000/svg" xmlns:xlink="http://www.w3.org/1999/xlink" x="0px" y="0px"
	 viewBox="0 0 512 512" style="enable-background:new 0 0 512 512;" xml:space="preserve">
<style type="text/css">
	.st0{fill:#FFFFFF;}
</style>
<title>compass navigation</title>
<g>
	<g>
		<g>
			<g>
				<path class="st0" d="M366.9,359.8l-9.7-5.6l5.5-9.5l9.7,5.6L366.9,359.8z M352,351.2l-39.9-23l5.5-9.5l39.9,23L352,351.2z
					 M306.9,325.2l-39.9-23l5.5-9.5l39.9,23L306.9,325.2z M261.9,299.3l-39.9-23l5.5-9.5l39.9,23L261.9,299.3z M216.8,273.3
					l-39.9-23l5.5-9.5l39.9,23L216.8,273.3z M171.8,247.3l-39.9-23l5.5-9.5l39.9,23L171.8,247.3z"/>
			</g>
			<g>
				<path class="st0" d="M257.6,432.3l-45.1-26.5l5.6-9.5l28.5,16.8v-45.7h11v46h-10.5l7.8,4.6l-0.8,1.4h3.6V432.3z M207.4,402.8
					l-39.7-23.3l5.6-9.5l39.7,23.3L207.4,402.8z M162.5,376.5l-31.2-18.3V342h11v9.8l25.8,15.1L162.5,376.5z M257.6,361.4h-11v-46
					h11V361.4z M142.4,336h-11v-46h11V336z M257.6,309.4h-11v-25.3l23.4-13.5l5.5,9.5l-17.9,10.4V309.4z M142.4,284h-11v-46h11V284z
					 M280.8,277.1l-5.5-9.5l35.6-20.6l4.3-2.4l5.4,9.6l-4.3,2.4L280.8,277.1z M325.8,251.3l-5.4-9.6l38.2-21.3l-30.3-18l5.6-9.5
					l46.7,27.8l-9.4,5.3l-2.3-4.2l-2.1,3.5l-4.3-2.5l3.4,6.1L325.8,251.3z M142.4,232h-11v-15.6l31.8-18.4l5.5,9.5l-26.3,15.2V232z
					 M173.9,204.6l-5.5-9.5l27.5-15.9l13-6.6l5,9.8l-12.8,6.5L173.9,204.6z M323.2,199.3l-39.5-23.5l5.6-9.5l39.5,23.5L323.2,199.3z
					 M219.2,179.7l-5-9.8l41-20.9l2.5,4.9l2.8-4.7l23.7,14.1l-5.6,9.5l-21.1-12.6L219.2,179.7z"/>
			</g>
			<g>
				<path class="st0" d="M257.5,431.3l-5.8-9.3l39.1-24.3l5.8,9.3L257.5,431.3z M301.7,403.8l-5.8-9.3l39.1-24.3l5.8,9.3
					L301.7,403.8z M345.8,376.3L340,367l24.2-15.1l0.4-11.6l11,0.4l-0.6,17.5L345.8,376.3z M375.8,334.7l-11-0.4l1.5-46l11,0.4
					L375.8,334.7z M377.6,282.7l-11-0.4l1.5-46l11,0.4L377.6,282.7z M379.3,230.8l-11-0.4l0.3-10l11,0.4L379.3,230.8z"/>
			</g>
		</g>
		<g>
			<path class="st0" d="M257.6,283.2h-11v-46h11V283.2z M257.6,231.2h-11v-46h11V231.2z M257.6,179.2h-11v-19.6h11V179.2z"/>
		</g>
		<g>
			<path class="st0" d="M139.6,359.8l-5.6-9.5l39.7-23.3l5.6,9.5L139.6,359.8z M184.5,333.4l-5.6-9.5l39.7-23.3l5.6,9.5L184.5,333.4
				z M229.3,307.1l-5.6-9.5l25.6-15l5.6,9.5L229.3,307.1z"/>
		</g>
	</g>
	<g>
		<polygon points="136.9,219.6 198.3,184.1 257.7,153.9 143.5,87.3 		"/>
		<path class="st0" d="M131.9,227.6l7.4-148l127.7,74.5L200.5,188L131.9,227.6z M147.6,94.9l-5.9,116.7l54.5-31.5l52-26.4
			L147.6,94.9z"/>
	</g>
</g>
</svg>
