<?xml version="1.0" encoding="utf-8"?>
<!-- Generator: Adobe Illustrator 19.0.0, SVG Export Plug-In . SVG Version: 6.00 Build 0)  -->
<svg version="1.1" id="Layer_1" xmlns="http://www.w3.org/2000/svg" xmlns:xlink="http://www.w3.org/1999/xlink" x="0px" y="0px"
	 viewBox="0 0 512 512" style="enable-background:new 0 0 512 512;" xml:space="preserve">
<style type="text/css">
	.st0{fill:#FFFFFF;}
</style>
<title>compass navigation</title>
<g>
	<g>
		<g>
			<polygon class="st0" points="256.1,429 149,316.8 155.5,310.5 256.1,415.9 356.5,310.5 363,316.8 			"/>
		</g>
		<g>
			<g>
				<circle cx="256" cy="224.5" r="137"/>
				<path class="st0" d="M256,365.9c-78,0-141.5-63.5-141.5-141.5S178,83,256,83s141.5,63.5,141.5,141.5S334,365.9,256,365.9z
					 M256,92c-73,0-132.5,59.4-132.5,132.5S183,356.9,256,356.9s132.5-59.4,132.5-132.5S329,92,256,92z"/>
			</g>
		</g>
	</g>
	<g>
		<path class="st0" d="M248.2,257.3l-0.4-5c-1.2-10.4,2.3-21.8,12-33.4c8.7-10.2,13.5-17.8,13.5-26.4c0-9.8-6.2-16.4-18.3-16.6
			c-6.9,0-14.7,2.3-19.5,6l-4.6-12.2c6.4-4.6,17.4-7.7,27.6-7.7c22.2,0,32.2,13.7,32.2,28.4c0,13.1-7.3,22.6-16.6,33.6
			c-8.5,10-11.6,18.5-11,28.4l0.2,5H248.2z M243.9,284.3c0-7.1,4.8-12.2,11.6-12.2s11.4,5,11.4,12.2c0,6.8-4.4,12-11.6,12
			C248.5,296.2,243.9,291,243.9,284.3z"/>
	</g>
</g>
</svg>
