<?xml version="1.0" encoding="utf-8"?>
<!-- Generator: Adobe Illustrator 19.0.0, SVG Export Plug-In . SVG Version: 6.00 Build 0)  -->
<svg version="1.1" id="Layer_1" xmlns="http://www.w3.org/2000/svg" xmlns:xlink="http://www.w3.org/1999/xlink" x="0px" y="0px"
	 viewBox="0 0 512 512" style="enable-background:new 0 0 512 512;" xml:space="preserve">
<style type="text/css">
	.st0{fill:#FFFFFF;}
</style>
<title>compass navigation</title>
<g>
	<g>
		<polygon class="st0" points="256.1,430.2 148.2,317.2 156.2,309.6 256.1,414.3 355.8,309.6 363.8,317.2 		"/>
	</g>
	<g>
		<g>
			<path class="st0" d="M256,346.3c-67.3,0-122-54.7-122-122s54.7-122,122-122s122,54.7,122,122S323.3,346.3,256,346.3z M256,113.3
				c-61.2,0-111,49.8-111,111s49.8,111,111,111s111-49.8,111-111S317.2,113.3,256,113.3z"/>
		</g>
		<g>
			<path class="st0" d="M256,366.7c-78.6,0-142.5-63.9-142.5-142.5S177.4,81.8,256,81.8s142.5,63.9,142.5,142.5
				S334.6,366.7,256,366.7z M256,92.8c-72.5,0-131.5,59-131.5,131.5s59,131.5,131.5,131.5s131.5-59,131.5-131.5S328.5,92.8,256,92.8
				z"/>
		</g>
		<g>
			<rect x="139.5" y="218.8" class="st0" width="46.9" height="11"/>
		</g>
		<g>
			<rect x="250.5" y="107.8" class="st0" width="11" height="46.9"/>
		</g>
		<g>
			<rect x="325.6" y="218.8" class="st0" width="46.9" height="11"/>
		</g>
		<g>
			<rect x="250.5" y="293.9" class="st0" width="11" height="46.9"/>
		</g>
		<g>
			<path class="st0" d="M232.5,252.7l-43.3-93.4l93.1,42.8L232.5,252.7z M211.8,181.8l24.1,51.8l27.6-28.1L211.8,181.8z"/>
		</g>
		<g>
			<polyline class="st0" points="232.5,252.7 306.8,285.4 282.2,202.2 			"/>
		</g>
	</g>
</g>
</svg>
