<?xml version="1.0" encoding="utf-8"?>
<!-- Generator: Adobe Illustrator 19.0.0, SVG Export Plug-In . SVG Version: 6.00 Build 0)  -->
<svg version="1.1" id="Layer_1" xmlns="http://www.w3.org/2000/svg" xmlns:xlink="http://www.w3.org/1999/xlink" x="0px" y="0px"
	 viewBox="0 0 512 512" style="enable-background:new 0 0 512 512;" xml:space="preserve">
<style type="text/css">
	.st0{fill:#FFFFFF;}
</style>
<title>compass navigation</title>
<g>
	<g>
		<g>
			<path d="M315,360.6l25.4-88.7v-73.9c0,0-1.4-20.6-18.9-20.6S302.8,196,302.8,196v27.7v-46.5c0,0-1.5-16.8-20.8-16.8
				c-19.3,0-19.4,19.4-19.4,19.4v33.5v-52.9c0,0-1.5-12.7-21.8-12.7c-5.6,0-18.2,3.7-18.2,12.7v-55.2c0,0-2.6-16.7-18.9-16.7
				s-18.9,15.1-18.9,17s0,143.5,0,143.5l-39.2-40.7c0,0-13.1-14-24.9-2.2s-4,24-4,24l54.3,85.6l21.8,44.9H315z"/>
			<path class="st0" d="M318.4,365.1H189.8L167,317.9l-54.2-85.3c-3.4-5.3-6.7-18.3,4.6-29.6c4-4,8.6-6,13.6-6c0.1,0,0.2,0,0.3,0
				c9.7,0.2,17.1,8,17.5,8.4l31.5,32.6V105.6c0-5.7,5.5-21.5,23.4-21.5c16,0,22.3,13.4,23.4,20.5l0.1,0.3v42
				c4.5-2.5,9.9-3.7,13.7-3.7c24,0,26.2,16,26.3,16.7l0,0.7c3.6-2.8,8.4-4.7,14.9-4.7c18.5,0,24.6,13.7,25.3,20.9l0,0.6
				c3.5-2.8,8.1-4.7,14.2-4.7c17.2,0,22.8,16.2,23.4,24.8l0,0.3v74.6L318.4,365.1z M195.5,356.1h116.2l24.3-84.8v-73.1
				c-0.1-1.6-1.8-16.3-14.4-16.3c-12.7,0-14.1,12.9-14.2,14.4v27.6h-9v-46.2c-0.2-1.9-2.3-12.6-16.3-12.6c-14.2,0-14.9,13.3-14.9,15
				v33.5h-9v-52.6c-0.3-1.2-2.6-8.6-17.3-8.6c-4.1,0-13.7,2.8-13.7,8.2h-9v-54.8c-0.4-2.2-3.1-12.6-14.4-12.6
				c-13.1,0-14.4,12.5-14.4,12.6l0,154.6l-47-48.7c-0.1-0.1-5.3-5.5-11.1-5.6c0,0-0.1,0-0.1,0c-2.6,0-5,1.1-7.3,3.4
				c-9.1,9.1-3.6,18-3.4,18.4l54.4,85.8l0.1,0.2L195.5,356.1z"/>
		</g>
		<g>
			<line x1="222.6" y1="160.4" x2="222.6" y2="200.4"/>
			<rect x="218.1" y="160.4" class="st0" width="9" height="40"/>
		</g>
	</g>
	<g>
		<g>
			<circle cx="328" cy="353.5" r="69.9"/>
			<path class="st0" d="M328,428c-41,0-74.4-33.4-74.4-74.4s33.4-74.4,74.4-74.4c41,0,74.4,33.4,74.4,74.4S369,428,328,428z
				 M328,288.1c-36.1,0-65.4,29.3-65.4,65.4S291.9,419,328,419s65.4-29.3,65.4-65.4S364,288.1,328,288.1z"/>
		</g>
		<g>
			<path class="st0" d="M321.5,368.8l-0.2-2.6c-0.6-5.4,1.2-11.3,6.2-17.4c4.5-5.3,7-9.2,7-13.7c0-5.1-3.2-8.5-9.5-8.6
				c-3.6,0-7.6,1.2-10.1,3.1l-2.4-6.3c3.3-2.4,9-4,14.4-4c11.5,0,16.8,7.1,16.8,14.8c0,6.8-3.8,11.7-8.6,17.5
				c-4.4,5.2-6,9.6-5.7,14.8l0.1,2.6H321.5z M319.3,382.8c0-3.7,2.5-6.3,6-6.3c3.5,0,5.9,2.6,5.9,6.3c0,3.5-2.3,6.2-6,6.2
				C321.7,389.1,319.3,386.3,319.3,382.8z"/>
		</g>
	</g>
</g>
</svg>
