<?xml version="1.0" encoding="utf-8"?>
<!-- Generator: Adobe Illustrator 19.0.0, SVG Export Plug-In . SVG Version: 6.00 Build 0)  -->
<svg version="1.1" id="Layer_1" xmlns="http://www.w3.org/2000/svg" xmlns:xlink="http://www.w3.org/1999/xlink" x="0px" y="0px"
	 viewBox="0 0 512 512" style="enable-background:new 0 0 512 512;" xml:space="preserve">
<style type="text/css">
	.st0{fill:#FFFFFF;}
</style>
<title>compass navigation</title>
<g>
	<g>
		<path class="st0" d="M256,421.4c-91.2,0-165.4-74.2-165.4-165.4h11c0,85.1,69.3,154.4,154.4,154.4S410.4,341.1,410.4,256
			c0-85.1-69.3-154.4-154.4-154.4v-11c91.2,0,165.4,74.2,165.4,165.4C421.4,347.2,347.2,421.4,256,421.4z"/>
	</g>
	<g>
		
			<rect x="74.1" y="161.7" transform="matrix(0.7071 0.7071 -0.7071 0.7071 167.3508 -69.6574)" class="st0" width="187.4" height="11"/>
	</g>
	<g>
		
			<rect x="242.3" y="244.6" transform="matrix(0.7071 0.7071 -0.7071 0.7071 250.2727 -104.0047)" class="st0" width="16.7" height="11"/>
	</g>
	<g>
		<polygon points="96.1,199.2 199.1,96.1 96.1,95.5 		"/>
		<path class="st0" d="M91.6,210.1V91l118.2,0.7L91.6,210.1z M100.6,100.1v88.3l87.6-87.8L100.6,100.1z"/>
	</g>
</g>
</svg>
