<?xml version="1.0" encoding="UTF-8"?>
<!DOCTYPE svg PUBLIC "-//W3C//DTD SVG 1.1//EN" "http://www.w3.org/Graphics/SVG/1.1/DTD/svg11.dtd">
<!-- Creator: CorelDRAW 2019 (64-Bit) -->
<svg xmlns="http://www.w3.org/2000/svg" xml:space="preserve" width="512px" height="512px" version="1.1" style="shape-rendering:geometricPrecision; text-rendering:geometricPrecision; image-rendering:optimizeQuality; fill-rule:evenodd; clip-rule:evenodd"
viewBox="0 0 512 512"
 xmlns:xlink="http://www.w3.org/1999/xlink">
 <defs>
  <style type="text/css">
   <![CDATA[
    .str0 {stroke:#FEFEFE;stroke-width:10;stroke-miterlimit:22.9256}
    .fil0 {fill:none}
    .fil1 {fill:#FEFEFE}
   ]]>
  </style>
 </defs>
 <g id="Layer_x0020_1">
  <metadata id="CorelCorpID_0Corel-Layer"/>
  <rect class="fil0" width="512" height="512"/>
  <path class="fil1" d="M256.007 469l76.701 -113.412c-58.09,15.587 -93.878,16.625 -153.463,0.527l76.762 112.885z"/>
  <path class="fil0 str0" d="M402.174 121.157l-0.02 0.334c-0.013,0.824 -0.053,1.654 -0.118,2.472l-8.161 172.002c-19.899,85.639 -245.956,97.161 -275.304,-0.346l-8.546 -170.747c-0.131,-1.373 -0.203,-2.753 -0.203,-4.146l0 0c0,-42.93 65.446,-77.726 146.173,-77.726 80.734,0 146.179,56.179 146.179,77.726 0,21.547 0.006,-0.163 0,0l0 0.431z"/>
  <path class="fil1" d="M222.163 281.05l5.147 2.731 1.248 0.618 80.277 -157.951 0.583 0.304 13.362 6.465 -51.744 100.663c-2.065,4.003 -15.952,15.545 -26.222,35.745 -3.477,5.555 -7.468,15.218 -9.674,18.018l-5.239 -2.556 -1.343 -0.688 80.277 -157.951 -0.502 -0.245 -13.105 -6.99 -50.799 101.142c-2.019,4.038 -3.15,22.056 -13.42,42.257 -2.439,6.08 -7.877,15.007 -8.846,18.438z"/>
  <path class="fil1" d="M331.393 115.339l-13.421 -6.757 -13.291 -6.815c0.758,-2.696 5.379,-6.955 9.195,-7.982 4.377,-1.191 7.971,-0.911 11.32,0.688l0 0c3.256,1.75 5.602,4.493 7.224,8.729 1.412,3.699 0.7,9.931 -1.027,12.137z"/>
  <path class="fil1" d="M219.386 294.587l-6.745 -3.42c-0.957,5.415 0.56,1.576 -2.684,21.987 14.575,-14.658 12.486,-11.11 16.279,-15.078l-6.85 -3.489z"/>
 </g>
</svg>
