<?xml version="1.0" encoding="utf-8"?>
<!-- Generator: Adobe Illustrator 19.0.0, SVG Export Plug-In . SVG Version: 6.00 Build 0)  -->
<svg version="1.1" id="Layer_1" xmlns="http://www.w3.org/2000/svg" xmlns:xlink="http://www.w3.org/1999/xlink" x="0px" y="0px"
	 viewBox="150 -150 500 500" style="enable-background:new 150 -150 500 500;" xml:space="preserve">
<style type="text/css">
	.st0{fill:#FFFFFF;}
</style>
<path class="st0" d="M400-150c-137.9,0-250,112.2-250,250s112.1,250,250,250s250-112.2,250-250S537.9-150,400-150z M245.4,262
	c-0.7-0.6-1.6-1.4-2.5-2.2c-0.5-0.4-0.9-0.8-1.4-1.3c-0.5-0.4-1-0.9-1.5-1.4c-2.1-2-4.4-4.3-7.1-6.9c-2.5-2.7-5.3-5.7-8.3-9
	c-1.4-1.7-2.9-3.5-4.4-5.4c-0.8-0.9-1.5-1.9-2.3-2.9c-0.7-1-1.5-2-2.3-3.1c-1.5-2.1-3.1-4.2-4.7-6.5c-1.5-2.3-3.1-4.7-4.7-7.1
	c-1.7-2.4-3.1-5-4.6-7.6c-0.8-1.3-1.5-2.7-2.3-4s-1.5-2.8-2.2-4.2c-0.7-1.4-1.5-2.9-2.2-4.3c-0.8-1.4-1.5-2.9-2.2-4.4
	c-1.4-3-2.8-6.1-4.2-9.3c-1.2-3.2-2.5-6.5-3.8-9.8c-1.2-3.4-2.2-6.8-3.4-10.3c-4.3-14-7.4-29.3-8.7-45.3c-0.1-1-0.2-2-0.3-3
	l-0.1-1.5l-0.1-1.5c-0.1-2-0.2-4.1-0.2-6.1c0-1-0.1-2-0.1-3.1l-0.1-1.5v-0.2v-0.3v-0.4v-0.8c0-2,0.1-4,0.1-6.1c0-4,0.3-8.3,0.6-12.5
	l0.2-3.2c0.1-1,0.2-2.1,0.4-3.1c0.3-2.1,0.5-4.2,0.8-6.3c0.2-2.1,0.6-4.2,1-6.3c0.4-2.1,0.7-4.2,1.1-6.3c0.9-4.2,1.8-8.3,2.8-12.5
	c0.6-2.1,1.2-4.1,1.7-6.2c0.6-2.1,1.1-4.1,1.8-6.2l2.1-6.1c0.4-1,0.7-2,1.1-3l1.2-3c6.2-16,14.2-31.4,23.8-45.4
	c1.2-1.7,2.5-3.4,3.7-5.2l1.8-2.6c0.6-0.9,1.2-1.7,1.9-2.5c1.3-1.6,2.6-3.3,3.9-4.9l2-2.4c0.7-0.8,1.4-1.6,2.1-2.3
	c2.8-3.1,5.4-6.2,8.3-9.1c1.4-1.5,2.8-2.9,4.3-4.4c1.4-1.4,2.9-2.8,4.4-4.2c11.7-11,24.3-20.3,36.9-27.8c0.8-0.5,1.6-1,2.3-1.4
	c0.8-0.5,1.6-0.9,2.4-1.3c1.6-0.9,3.2-1.7,4.7-2.6c0.8-0.4,1.6-0.9,2.3-1.3c0.8-0.4,1.6-0.8,2.4-1.2c1.6-0.8,3.1-1.5,4.7-2.3
	c3.1-1.6,6.2-2.8,9.3-4.1c1.5-0.6,3-1.3,4.6-1.9c1.5-0.6,3-1.1,4.5-1.7c1.5-0.6,3-1.1,4.5-1.6c1.5-0.6,3-1,4.4-1.4
	c1.5-0.5,2.9-0.9,4.3-1.3c1.4-0.4,2.8-0.9,4.2-1.2c2.8-0.7,5.6-1.4,8.2-2.1c2.7-0.6,5.3-1.1,7.8-1.6c1.3-0.3,2.5-0.5,3.7-0.7
	s2.5-0.4,3.6-0.6c2.4-0.3,4.7-0.7,6.9-1c4.4-0.5,8.5-0.8,12.2-1.2c3.7-0.2,7-0.3,9.9-0.4c1.4-0.1,2.8-0.1,4,0c1.2,0,2.3,0,3.3,0.1
	c3.9,0.1,6.1,0.1,6.1,0.1s-2.1,0.2-6,0.4c-1,0.1-2.1,0.1-3.3,0.2c-1.2,0.1-2.5,0.2-3.9,0.4c-2.8,0.3-6.1,0.7-9.7,1.1
	c-3.6,0.6-7.6,1.2-12,2c-2.2,0.5-4.4,0.9-6.7,1.4c-1.2,0.3-2.4,0.5-3.5,0.8c-1.2,0.3-2.4,0.6-3.6,1c-9.9,2.4-20.8,6.1-32.2,10.9
	c-1.4,0.6-2.9,1.2-4.3,1.8c-1.5,0.6-2.9,1.4-4.3,2.1c-2.9,1.4-5.9,2.8-8.8,4.4c-5.9,3.1-11.9,6.6-17.9,10.5
	c-11.9,7.8-23.7,17.1-34.8,27.9c-11.1,10.8-21.3,23.1-30.4,36.6C209.7-8.7,202,6,196.1,21.3c-6,15.3-10.2,31.3-12.5,47.4
	c-0.3,2-0.5,4-0.8,6c-0.1,1-0.3,2-0.4,3l-0.2,3c-0.3,4-0.8,7.8-0.8,12c-0.1,2-0.1,4.1-0.2,6.1v0.8v0.4c0,0,0,0.1,0,0.1c0,0,0,0,0,0
	v0.2v1.5c0,1,0,2,0,2.9c0,2,0.1,3.9,0.1,5.9v1.5l0.1,1.5c0.1,1,0.1,1.9,0.2,2.9c1,15.4,3.4,30.3,7.1,44c3.6,13.8,8.4,26.4,13.7,37.7
	c0.7,1.4,1.2,2.8,2,4.2c0.7,1.4,1.4,2.7,2.1,4c1.4,2.6,2.7,5.3,4.1,7.7c1.4,2.5,2.8,4.9,4.2,7.2c1.4,2.3,2.9,4.5,4.3,6.6
	c0.7,1.1,1.4,2.1,2,3.2c0.7,1,1.4,2,2.1,2.9c1.4,1.9,2.7,3.8,4,5.6c2.7,3.5,5.2,6.6,7.5,9.5c2.4,2.8,4.6,5.2,6.4,7.4
	c0.5,0.5,0.9,1.1,1.4,1.5c0.5,0.5,0.9,0.9,1.3,1.4c0.8,0.9,1.6,1.7,2.3,2.4c2.4,2.7,3.9,4.2,3.9,4.2S248.4,264.6,245.4,262z
	 M199.6,100c0-110.5,89.9-200.4,200.4-200.4S600.4-10.5,600.4,100S510.5,300.4,400,300.4S199.6,210.5,199.6,100z M624.6,125.6
	c0,0.6,0,1.1,0,1.7c0,0.6-0.1,1.1-0.1,1.7c-0.1,1.2-0.2,2.4-0.3,3.6c-0.2,2.5-0.5,5-0.7,7.6c-0.3,2.6-0.8,5.3-1.3,8.1
	c-0.8,5.6-2.3,11.4-3.7,17.4c-0.8,3-1.8,6-2.7,9c-0.5,1.5-1,3-1.4,4.6c-0.6,1.5-1.2,3-1.7,4.5c-0.6,1.5-1.2,3-1.8,4.6
	c-0.6,1.5-1.1,3.1-1.9,4.5c-1.4,3-2.8,6-4.2,9c-0.7,1.5-1.5,2.9-2.3,4.4c-0.8,1.4-1.6,2.9-2.4,4.3c-0.8,1.4-1.6,2.9-2.4,4.3
	c-0.9,1.4-1.8,2.8-2.6,4.1c-1.8,2.7-3.4,5.5-5.3,8.1c-1.9,2.6-3.7,5.1-5.6,7.6c-0.5,0.6-0.9,1.2-1.4,1.8c-0.5,0.6-1,1.2-1.5,1.7
	c-1,1.2-2,2.3-2.9,3.4c-2,2.2-3.8,4.5-5.8,6.5s-3.9,4-5.8,5.9c-0.5,0.5-0.9,0.9-1.4,1.4c-0.5,0.4-1,0.9-1.4,1.3
	c-1,0.9-1.9,1.7-2.8,2.5c-1.8,1.6-3.6,3.2-5.3,4.6c-1.8,1.4-3.5,2.7-5,3.9c-1.6,1.2-3.1,2.3-4.4,3.3c-1.4,1-2.7,1.8-3.9,2.6
	c-2.4,1.6-4.3,2.7-5.6,3.6c-1.3,0.8-2,1.2-2,1.2s0.6-0.6,1.6-1.7c1.1-1.1,2.6-2.7,4.7-4.6c1-1,2.2-2,3.3-3.3c1.1-1.3,2.4-2.6,3.7-4
	c1.3-1.4,2.8-2.9,4.3-4.5c1.4-1.7,2.9-3.4,4.5-5.2c0.8-0.9,1.6-1.8,2.4-2.8c0.4-0.5,0.8-0.9,1.2-1.4c0.4-0.5,0.8-1,1.2-1.5
	c1.6-2,3.3-4.1,5-6.2c1.8-2.1,3.3-4.4,5-6.7c0.8-1.2,1.7-2.3,2.6-3.5c0.4-0.6,0.9-1.2,1.3-1.8c0.4-0.6,0.8-1.2,1.2-1.8
	c1.6-2.5,3.3-5,5-7.5c0.9-1.2,1.6-2.6,2.4-3.9s1.6-2.6,2.4-4c0.8-1.3,1.6-2.7,2.4-4c0.7-1.4,1.5-2.8,2.2-4.2
	c0.7-1.4,1.5-2.8,2.2-4.2c0.7-1.4,1.5-2.8,2.2-4.2c1.4-2.8,2.7-5.7,4.1-8.5c1.3-2.9,2.5-5.8,3.7-8.6c0.6-1.4,1.2-2.9,1.8-4.3
	c0.5-1.4,1.1-2.9,1.6-4.3c0.5-1.4,1-2.9,1.6-4.3c0.5-1.4,1.1-2.8,1.5-4.2c1.7-5.7,3.6-11.1,4.9-16.4c0.7-2.6,1.4-5.2,2-7.7
	c0.5-2.5,1.1-5,1.6-7.3c0.3-1.2,0.5-2.3,0.8-3.4c0.1-0.6,0.2-1.1,0.4-1.7c0.1-0.5,0.2-1.1,0.3-1.6c0.4-2.2,0.7-4.2,1-6.1
	c0.3-1.9,0.6-3.7,1-5.4c0.2-1.7,0.4-3.3,0.6-4.7c0.3-2.8,0.7-5,0.9-6.5c0-1.6,0.1-2.4,0.1-2.4s0.1,0.8,0.2,2.3
	c0.1,1.5,0.3,3.7,0.5,6.6c0.1,1.4,0.2,3,0.3,4.7c0,1.7,0,3.6,0,5.6S624.6,123.3,624.6,125.6z"/>
</svg>
