<?xml version="1.0" encoding="UTF-8"?>
<!DOCTYPE svg PUBLIC "-//W3C//DTD SVG 1.1//EN" "http://www.w3.org/Graphics/SVG/1.1/DTD/svg11.dtd">
<!-- Creator: CorelDRAW X8 -->
<svg xmlns="http://www.w3.org/2000/svg" xml:space="preserve" width="512px" height="512px" version="1.1" style="shape-rendering:geometricPrecision; text-rendering:geometricPrecision; image-rendering:optimizeQuality; fill-rule:evenodd; clip-rule:evenodd"
viewBox="0 0 512 512"
 xmlns:xlink="http://www.w3.org/1999/xlink">
 <defs>
  <style type="text/css">
   <![CDATA[
    .str1 {stroke:#FEFEFE;stroke-width:7.29135}
    .str0 {stroke:#FEFEFE;stroke-width:0.3}
    .fil0 {fill:none}
    .fil1 {fill:#FEFEFE}
   ]]>
  </style>
 </defs>
 <g id="Layer_x0020_1">
  <metadata id="CorelCorpID_0Corel-Layer"/>
  <rect class="fil0" width="512" height="512"/>
  <g id="_1898415292992">
   <path class="fil1 str0" d="M389 396l19 11c5,2 4,1 4,6l0 22c0,4 0,5 6,5 3,-1 2,-2 2,-5l0 -21c4,0 6,2 8,2l4 3 0 56c-2,-1 -6,-2 -8,-3 -4,-3 -7,-4 -10,-6l-16 -8c-1,-2 -3,-3 -5,-4 -5,-2 -4,-1 -4,-9 0,-10 0,-42 0,-49zm-174 -36c42,0 91,1 131,10 26,7 51,18 21,31 -57,25 -241,25 -282,-5 -11,-7 0,-14 9,-19 29,-11 87,-16 121,-17l0 0zm-134 42c4,1 7,4 13,6 5,1 11,4 16,5 0,3 0,7 0,12 0,2 -1,8 3,9 3,0 5,-1 5,-2 1,-2 1,-16 1,-17 4,0 8,1 13,2 4,0 8,2 12,3 0,3 0,7 0,10 0,4 -1,9 4,11 7,0 5,-5 5,-8 0,-4 0,-10 0,-12l26 2 0 20c0,3 0,4 4,4 7,1 5,-6 5,-9 0,-5 0,-10 0,-15 13,2 26,2 39,2 0,9 0,22 0,31 0,3 -2,8 4,8 5,0 4,-5 4,-8l0 -31 39 -2c0,5 0,10 0,13 0,5 -3,12 5,11 5,0 3,-5 3,-11 0,-4 0,-9 0,-13l26 -2c0,4 0,7 0,12 0,3 -1,8 6,8 5,-2 3,-7 3,-11 0,-3 0,-7 0,-10l25 -5 0 17c1,1 4,2 6,2 5,-1 4,-7 4,-9 0,-4 0,-9 0,-12 6,-3 10,-4 15,-5 2,-1 5,-2 7,-4 2,-1 5,-2 6,-2 0,5 1,51 0,53 -1,3 -5,6 -7,7 -31,17 -103,22 -142,22 -42,-2 -111,-5 -143,-22 -2,-1 -5,-3 -7,-6 -1,-2 0,-8 0,-10 0,-14 0,-30 0,-44l0 0zm351 10c-15,-8 -21,-11 -37,-19 0,-1 -4,-4 -6,-5 -1,-2 0,-8 -22,-17 -58,-22 -192,-21 -254,-5 -13,3 -25,7 -32,11 -11,7 -9,13 -9,25l0 47c0,6 0,9 5,13 11,11 40,17 67,22 52,7 129,7 181,-2 11,-2 26,-4 36,-8 6,-2 11,-5 15,-7 8,-2 8,-5 11,-8 4,1 8,5 11,6l9 6c3,1 5,2 7,3 6,2 12,6 18,8l0 0 7 3 1 -70 -8 -3 0 0z"/>
   <path class="fil1" d="M313 419l0 0c2,0 4,7 4,15l0 9c0,8 -2,15 -4,15l0 0c-3,0 -5,-7 -5,-15l0 -9c0,-8 2,-15 5,-15z"/>
   <path class="fil0" d="M149 419l0 0c2,0 4,7 4,15l0 9c0,8 -2,15 -4,15l0 0c-3,0 -5,-7 -5,-15l0 -9c0,-8 2,-15 5,-15z"/>
   <path class="fil1 str0" d="M282 389c-5,6 -39,8 -52,8 -9,0 -20,-1 -29,-2 -31,-3 -25,-8 1,-12 9,-1 20,-1 29,-1 13,0 48,1 51,7zm-60 -13c-12,0 -24,1 -34,4 -36,7 -18,24 52,22 14,0 37,-2 48,-8 7,-4 4,-8 -5,-12 -14,-6 -46,-6 -61,-6l0 0z"/>
   <path class="fil0 str1" d="M359 91l0 0c0,1 0,2 0,2l-7 149c-18,74 -217,85 -243,0l-9 -148c0,-1 0,-2 0,-3l0 0c0,-38 58,-68 130,-68 71,0 129,30 129,68 0,0 0,0 0,0l0 0z"/>
   <path class="fil1" d="M230 392l67 -98c-50,14 -82,14 -135,0l68 98z"/>
  </g>
 </g>
</svg>
