<?xml version="1.0" encoding="utf-8"?>
<!-- Generator: Adobe Illustrator 19.0.0, SVG Export Plug-In . SVG Version: 6.00 Build 0)  -->
<svg version="1.1" id="Layer_1" xmlns="http://www.w3.org/2000/svg" xmlns:xlink="http://www.w3.org/1999/xlink" x="0px" y="0px"
	 viewBox="150 -150 500 500" style="enable-background:new 150 -150 500 500;" xml:space="preserve">
<style type="text/css">
	.st0{fill:#FFFFFF;}
</style>
<path class="st0" d="M627.9,166.9c-13.6,1.9-27.3,3.7-40.9,5.3c-2.3-11-8.2-21.1-18.2-29.8c-9.5-8.5-21.5-14.8-34.7-18.4
	c2.2-80.9-6.8-161.7-27.1-242.5c-3.5-13.3-15.2-27-25.7-29.9c-10.6-2.9-17.3,6.7-15.4,20.6C478.5-43.6,484,40.8,482.7,125
	c-13.4,4.2-25.8,11.6-36,21.9c-10.5,10.4-17.7,22.8-21.8,35.9c-84.4,1.1-168.6-4.5-252.8-17c-13.9-1.9-23.3,4.8-20.4,15.2
	c3,10.4,16.7,22.1,29.9,25.5c80.6,20.3,161.4,29.5,242.1,27.7c3.4,13,9.5,25,18.2,34.8c8.5,9.5,18.5,15.8,29.6,18.4
	c-1.7,13.8-3.5,27.7-5.6,41.5c-1.9,13.9,4.8,23.5,15.4,20.6c10.5-2.9,22.3-16.7,25.7-29.9c3.3-13.3,6.3-26.6,9.1-39.9
	c12.4-6.3,24.5-15.7,35.8-26.9c11.7-11.6,20.9-23.8,27.1-35.9c13.1-2.6,26.1-5.4,39.2-8.6c13.2-3.3,27.1-15,30.1-25.7
	C651.3,172,641.8,165.1,627.9,166.9z M530.3,178.5c5.9,5.8,8.6,13.6,7.5,22.4c-1.1,8.8-5.8,17.5-12.9,24.6
	c-7.2,7.1-15.9,11.7-24.6,12.8c-8.8,1-16.6-1.7-22.3-7.7s-8.6-14.5-8-23.8c0.5-9.3,4.5-18.3,11.4-25.1c6.9-6.9,15.8-10.9,25.1-11.4
	C515.8,169.8,524.3,172.8,530.3,178.5z M453.1,183.7c-0.4,0.6-0.8,1.1-1.1,1.7c-0.3,0.6-0.6,1.2-0.9,1.7c-0.6,1.1-1.2,2.2-1.9,3.3
	c-0.5,1.1-1,2.2-1.5,3.2s-1.1,2.1-1.4,3c-0.4,1-0.8,1.9-1.1,2.8c-0.4,0.9-0.7,1.7-1.1,2.5c-0.3,0.8-0.5,1.6-0.8,2.3
	c-0.5,1.4-0.9,2.5-1.2,3.2c-0.2,0.3-0.4,0.7-0.4,0.7s-0.1-0.4-0.3-1.1c-0.1-0.7-0.4-1.8-0.6-3.2c-0.1-0.7-0.3-1.5-0.4-2.3
	c-0.1-0.9-0.1-1.8-0.1-2.9c0-1,0-2.1,0-3.3c0-0.6,0-1.2,0.1-1.8c0.1-0.6,0.1-1.2,0.2-1.9c0.1-1.3,0.3-2.6,0.5-4
	c0.3-1.4,0.7-2.7,1-4.2c0.2-0.7,0.4-1.5,0.6-2.2s0.5-1.4,0.8-2.2c0.5-1.5,1.2-3,1.8-4.5c0.7-1.5,1.5-2.9,2.4-4.4
	c0.4-0.7,0.8-1.5,1.3-2.2s1-1.4,1.5-2.1c1.9-3,4.4-5.5,6.7-8.2c2.7-2.4,5.2-4.8,8.2-6.7c0.7-0.5,1.4-1,2.1-1.5s1.5-0.9,2.2-1.3
	c1.5-0.8,3-1.6,4.4-2.4c1.5-0.6,3-1.3,4.5-1.8c0.7-0.3,1.5-0.6,2.2-0.8s1.5-0.4,2.2-0.6c1.5-0.4,2.8-0.7,4.2-1
	c1.4-0.2,2.7-0.4,4-0.5c1.3-0.1,2.5-0.3,3.6-0.3c1.2,0,2.3,0,3.3,0.1c1,0,2,0.1,2.8,0.1c0.9,0.1,1.7,0.2,2.4,0.4
	c1.4,0.2,2.5,0.5,3.3,0.7c0.7,0.2,1.1,0.3,1.1,0.3s-0.4,0.2-1.1,0.5s-1.8,0.7-3.2,1.2c-0.7,0.2-1.4,0.5-2.2,0.8
	c-0.8,0.4-1.6,0.7-2.5,1.1c-0.9,0.4-1.8,0.7-2.8,1.1c-1,0.4-2,0.9-3,1.4s-2.1,1-3.2,1.5c-1.1,0.6-2.2,1.2-3.3,1.9
	c-0.6,0.3-1.1,0.6-1.7,0.9c-0.6,0.3-1.1,0.7-1.7,1.1c-1.1,0.8-2.3,1.4-3.5,2.2c-2.2,1.7-4.6,3.2-6.8,5.1c-2.3,1.7-4.3,3.8-6.5,5.8
	c-2,2.1-4.1,4.2-5.8,6.5c-1.9,2.2-3.4,4.6-5.1,6.8C454.6,181.4,453.9,182.5,453.1,183.7z M571.2,192.9c0,5.1-1.3,10.7-3.3,16.6
	c-0.6,1.5-1.1,3-1.7,4.5c-0.6,1.5-1.4,3-2.2,4.5c-0.4,0.8-0.8,1.5-1.1,2.3c-0.4,0.8-0.9,1.5-1.3,2.3c-0.9,1.5-1.8,3.1-2.8,4.6
	c-1.1,1.5-2.1,3-3.2,4.5c-0.3,0.4-0.5,0.8-0.8,1.1c-0.3,0.4-0.6,0.7-0.9,1.1c-0.6,0.7-1.2,1.5-1.8,2.2c-0.6,0.7-1.2,1.5-1.8,2.2
	c-0.6,0.7-1.3,1.4-1.9,2.1c-0.7,0.7-1.3,1.4-2,2.1c-0.3,0.3-0.7,0.7-1,1.1c-0.2,0.2-0.3,0.3-0.5,0.5c-0.1,0.1-0.2,0.2-0.2,0.3
	l-0.1,0.1c0,0,0,0-0.1,0.1c0,0,0,0,0,0c0,0-0.1,0.1-0.3,0.3c-1.3,1.2-2.6,2.4-3.8,3.6c-0.3,0.3-0.6,0.6-1,0.9
	c-0.3,0.3-0.6,0.6-1,0.9c-0.8,0.6-1.5,1.3-2.3,1.9c-0.8,0.6-1.5,1.3-2.3,1.9c-0.4,0.3-0.8,0.6-1.1,0.9c-0.4,0.3-0.8,0.5-1.1,0.8
	c-1.5,1.1-3,2.1-4.5,3.2c-1.5,1-3.1,1.9-4.6,2.8c-0.8,0.4-1.5,0.9-2.3,1.3c-0.8,0.4-1.5,0.8-2.3,1.1c-1.5,0.7-3,1.5-4.5,2.2
	c-1.5,0.6-3,1.2-4.4,1.7c-5.9,1.9-11.5,3.2-16.5,3.2c-2.6,0.2-4.9-0.2-7.3-0.4c-1.2-0.1-2.2-0.5-3.3-0.7c-1.1-0.3-2.1-0.5-3.1-0.8
	c-1-0.4-1.9-0.8-2.9-1.1c-0.9-0.4-1.9-0.7-2.7-1.2c-0.8-0.5-1.6-0.9-2.4-1.4s-1.6-0.8-2.2-1.4c-1.3-1.1-2.6-2-3.7-3
	c-1.1-1-2-2.1-2.9-2.9c-0.4-0.4-0.8-0.9-1.2-1.3c-0.4-0.4-0.6-0.9-0.9-1.3c-0.6-0.8-1.1-1.5-1.5-2c-0.8-1.1-1.2-1.7-1.2-1.7
	s0.6,0.4,1.7,1.1c0.5,0.4,1.2,0.8,2,1.3c0.4,0.3,0.8,0.5,1.2,0.8c0.5,0.3,1,0.5,1.5,0.8c1.1,0.5,2.2,1.2,3.4,1.8
	c1.3,0.5,2.7,1.1,4.2,1.7c1.5,0.5,3.2,0.9,4.9,1.4c1.7,0.4,3.6,0.6,5.5,0.9c1,0.1,2,0.1,3,0.2c1,0,2,0.2,3.1,0.1
	c2.2-0.2,4.3-0.1,6.6-0.6c4.5-0.6,9.4-2.1,14.3-4c5-2,9.9-4.9,14.9-8.1c1.2-0.9,2.4-1.8,3.6-2.7c0.3-0.2,0.6-0.4,0.9-0.7
	c0.3-0.2,0.6-0.5,0.8-0.7c0.6-0.5,1.1-0.9,1.7-1.4c0.6-0.5,1.1-0.9,1.7-1.4c0.3-0.2,0.6-0.5,0.9-0.8s0.6-0.6,0.9-0.9
	c1.2-1.1,2.4-2.3,3.6-3.3c0,0,0,0,0-0.1l0.1-0.1c0.1-0.1,0.1-0.1,0.2-0.2c0.1-0.1,0.3-0.3,0.4-0.4c0.3-0.3,0.5-0.6,0.8-0.8
	c0.5-0.6,1.1-1.1,1.6-1.7c0.5-0.6,1.1-1.1,1.6-1.7c0.5-0.6,1-1.2,1.5-1.8c0.5-0.6,1-1.2,1.5-1.8c0.2-0.3,0.5-0.6,0.7-0.9
	s0.4-0.6,0.7-0.9c0.9-1.2,1.8-2.4,2.7-3.6c3.3-4.9,6.2-9.9,8.2-14.9c2-4.9,3.6-9.8,4.1-14.4c0.5-2.3,0.5-4.5,0.7-6.6
	c0.1-1.1,0-2.1,0-3.1c-0.1-1-0.1-2-0.1-3c-0.3-1.9-0.5-3.8-0.9-5.5c-0.5-1.7-0.8-3.4-1.4-4.9c-0.6-1.5-1.1-2.9-1.6-4.2
	c-0.6-1.2-1.2-2.4-1.8-3.4c-0.3-0.5-0.5-1-0.8-1.5s-0.6-0.9-0.8-1.3c-0.5-0.8-1-1.5-1.3-2c-1-1.1-1.4-1.7-1.4-1.7s0.6,0.4,1.7,1.2
	c0.5,0.4,1.2,0.9,2,1.4c0.4,0.3,0.8,0.6,1.2,0.9c0.4,0.4,0.8,0.8,1.3,1.2c0.9,0.9,1.9,1.8,2.9,2.9c0.9,1.1,1.9,2.4,2.9,3.8
	c0.6,0.7,0.9,1.5,1.4,2.2c0.4,0.8,0.9,1.6,1.4,2.4s0.8,1.8,1.2,2.7s0.7,1.9,1.1,2.9c0.3,1,0.5,2.1,0.8,3.1c0.2,1.1,0.6,2.2,0.7,3.3
	C571.1,187.9,571.4,190.3,571.2,192.9z"/>
</svg>
