<?xml version="1.0" encoding="UTF-8"?>
<!DOCTYPE svg PUBLIC "-//W3C//DTD SVG 1.1//EN" "http://www.w3.org/Graphics/SVG/1.1/DTD/svg11.dtd">
<!-- Creator: CorelDRAW 2019 (64-Bit Evaluation Version) -->
<svg xmlns="http://www.w3.org/2000/svg" xml:space="preserve" width="512px" height="512px" version="1.1" style="shape-rendering:geometricPrecision; text-rendering:geometricPrecision; image-rendering:optimizeQuality; fill-rule:evenodd; clip-rule:evenodd"
viewBox="0 0 512 512"
 xmlns:xlink="http://www.w3.org/1999/xlink">
 <defs>
  <style type="text/css">
   <![CDATA[
    .fil0 {fill:none}
    .fil1 {fill:#373435}
   ]]>
  </style>
 </defs>
 <g id="Layer_x0020_1">
  <metadata id="CorelCorpID_0Corel-Layer"/>
  <rect class="fil0" width="512" height="512"/>
  <path class="fil1" d="M353.197 18.4l-259.197 0c-23.756,0 -43.202,19.438 -43.202,43.203l0 302.398 43.202 -0.008 0 -302.39 259.197 0 0 -43.203zm64.803 86.396l-237.595 0c-23.757,0 -43.202,19.438 -43.202,43.203l0 302.398c0,23.757 19.437,43.203 43.202,43.203l237.595 -0.008c23.757,0 43.203,-19.438 43.203,-43.203l-0.009 -302.39c0,-23.757 -19.437,-43.203 -43.202,-43.203l0.008 0zm0 345.593l-237.595 0 0 -302.39 237.595 0 0 302.398 0 -0.008z"/>
 </g>
</svg>
