<?xml version="1.0" encoding="UTF-8"?>
<!DOCTYPE svg PUBLIC "-//W3C//DTD SVG 1.1//EN" "http://www.w3.org/Graphics/SVG/1.1/DTD/svg11.dtd">
<!-- Creator: CorelDRAW 2019 (64-Bit Evaluation Version) -->
<svg xmlns="http://www.w3.org/2000/svg" xml:space="preserve" width="512px" height="512px" version="1.1" style="shape-rendering:geometricPrecision; text-rendering:geometricPrecision; image-rendering:optimizeQuality; fill-rule:evenodd; clip-rule:evenodd"
viewBox="0 0 512 512"
 xmlns:xlink="http://www.w3.org/1999/xlink">
 <defs>
  <style type="text/css">
   <![CDATA[
    .fil0 {fill:none}
    .fil1 {fill:#373435}
   ]]>
  </style>
 </defs>
 <g id="Layer_x0020_1">
  <metadata id="CorelCorpID_0Corel-Layer"/>
  <rect class="fil0" width="512" height="512"/>
  <g id="_2314230225680">
   <path class="fil1" d="M298.252 467.26l-192.619 0c-15.582,0 -34.796,-17.184 -34.796,-38.525l0 -239.842c0,-20.847 17.676,-38.523 38.524,-38.523l39.766 0 0 164.036c0,11.37 1.403,21.487 4.467,30.33 3.885,11.215 6.841,13.943 13.086,21.709 9.121,11.339 28.167,22.524 48.31,22.524l120.544 0c0,26.148 3.696,48.758 -10.279,65.527 -5.25,6.3 -15.798,12.764 -27.003,12.764zm-121.785 -147.882l0 -232.386c0,-23.229 15.936,-42.253 37.28,-42.253l147.882 0 0 65.863c0,9.594 8.996,13.671 18.641,13.671l60.893 0 0 198.833c0,20.847 -17.676,38.523 -38.524,38.523l-187.649 0c-10.55,0 -22.734,-6.428 -27.564,-12.202 -6.287,-7.516 -10.959,-16.58 -10.959,-30.049zm212.502 -254.755l32.616 32.005 -32.616 0.305 0 -32.31zm-239.842 28.582l0 29.825 -38.524 0c-37.238,0 -67.106,29.79 -67.106,67.106l0 237.357c0,36.562 30.02,67.107 63.378,67.107l192.619 0c19.199,0 37.857,-12.085 46.863,-22.73 19.674,-23.254 16.515,-51.79 16.515,-82.901l38.525 0c37.221,0 67.106,-29.884 67.106,-67.107l0 -210.017c0,-10.159 -9.188,-16.021 -19.572,-26.408l-58.409 -58.406c-3.643,-3.651 -7.57,-9.631 -13.98,-9.631l-164.037 0c-19.198,0 -37.856,12.083 -46.862,22.729 -11.355,13.421 -16.516,28.774 -16.516,53.076z"/>
   <path class="fil1" d="M242.33 229.903l132.97 0c17.874,0 17.874,-27.341 0,-27.341l-132.97 0c-17.147,0 -17.147,27.341 0,27.341z"/>
   <path class="fil1" d="M241.087 176.467l135.455 0c14.661,0 20.437,-27.34 -6.213,-27.34l-124.27 0c-22.855,0 -20.241,27.34 -4.972,27.34z"/>
   <path class="fil1" d="M246.059 283.34c12.319,0 49.601,1.959 56.971,-2.679 11.968,-7.531 5.442,-24.662 -6.021,-24.662l-55.922 0c-15.269,0 -17.883,27.341 4.972,27.341z"/>
  </g>
 </g>
</svg>
