<?xml version="1.0" encoding="UTF-8"?>
<!DOCTYPE svg PUBLIC "-//W3C//DTD SVG 1.1//EN" "http://www.w3.org/Graphics/SVG/1.1/DTD/svg11.dtd">
<!-- Creator: CorelDRAW 2019 (64-Bit Evaluation Version) -->
<svg xmlns="http://www.w3.org/2000/svg" xml:space="preserve" width="512px" height="512px" version="1.1" style="shape-rendering:geometricPrecision; text-rendering:geometricPrecision; image-rendering:optimizeQuality; fill-rule:evenodd; clip-rule:evenodd"
viewBox="0 0 512 512"
 xmlns:xlink="http://www.w3.org/1999/xlink">
 <defs>
  <style type="text/css">
   <![CDATA[
    .fil0 {fill:none}
    .fil1 {fill:#ffffff}
   ]]>
  </style>
 </defs>
 <g id="Layer_x0020_1">
  <metadata id="CorelCorpID_0Corel-Layer"/>
  <rect class="fil0" width="512" height="512"/>
  <g id="_2314492018752">
   <path class="fil1" d="M188.575 78.092c-4.541,-2.179 -14.402,-2.144 -20.363,-2.144 -24.491,0 -41.867,10.483 -57.133,23.248 -12.131,10.144 -20.657,24.346 -25.74,39.636 -2.074,6.243 -2.953,5.205 -8.229,7.846 -6.83,3.419 -12.738,8.549 -18.839,13.313 -3.359,2.622 -5.565,5.023 -7.952,8.124 -8.337,10.825 -12.889,15.711 -18.836,30.465 -14.905,36.977 -6.235,74.712 13.162,100.606 10.842,14.471 18.799,20.433 34.389,29.914 13.712,8.34 35.637,12.639 52.739,12.639l67.519 0 0 -38.583 -70.735 0c-47.444,0 -78.966,-49.179 -61.416,-90.354 9.508,-22.31 26.971,-35.692 51.771,-41.469 0,-43.396 36.738,-66.809 72.13,-52.84 5.145,2.032 11.342,4.421 15.752,6.755 9.596,-18.134 13.768,-31.53 31.984,-46.254 45.209,-36.544 112.286,-25.043 141.592,25.936 8.322,14.474 9.957,22.807 12.154,39.293 2.537,19.037 -5.229,23.708 3.408,27.668 2.116,0.971 3.226,1.226 5.504,1.999 20.745,7.038 32.932,16.782 42.588,36.721 19.527,40.318 -11.189,92.545 -60.393,92.545l-70.735 0 0 38.583 67.52 0c54.88,0 91.537,-34.468 104.107,-77.017 6.556,-22.191 3.976,-54.657 -7.681,-75.141 -7.658,-13.457 -18.252,-27.542 -31.242,-36.276 -5.47,-3.677 -8.953,-5.666 -14.813,-8.766 0,-65.406 -61.822,-125.394 -129.68,-125.394 -47.885,0 -87.433,21.465 -112.532,58.947z"/>
   <path class="fil1" d="M236.803 426.406c-5.29,-3.543 -15.855,-15.319 -21.168,-20.632 -7.135,-7.135 -13.602,-14.03 -20.877,-20.919 -19.335,-18.309 -46.983,7.741 -26.3,28.445l62.718 62.674c6.204,6.204 13.518,16.88 24.918,16.88 11.4,0 18.714,-10.676 24.918,-16.88l62.719 -62.674c20.682,-20.704 -6.965,-46.754 -26.301,-28.445 -7.924,7.504 -36.724,37.988 -42.044,41.551l0 -163.976c0,-10.461 2.829,-35.367 -19.292,-35.367 -22.102,0 -19.291,25.038 -19.291,35.367l0 163.976z"/>
  </g>
 </g>
</svg>
