<?xml version="1.0" encoding="UTF-8"?>
<!DOCTYPE svg PUBLIC "-//W3C//DTD SVG 1.1//EN" "http://www.w3.org/Graphics/SVG/1.1/DTD/svg11.dtd">
<!-- Creator: CorelDRAW 2019 (64-Bit Evaluation Version) -->
<svg xmlns="http://www.w3.org/2000/svg" xml:space="preserve" width="512px" height="512px" version="1.1" style="shape-rendering:geometricPrecision; text-rendering:geometricPrecision; image-rendering:optimizeQuality; fill-rule:evenodd; clip-rule:evenodd"
viewBox="0 0 512 512"
 xmlns:xlink="http://www.w3.org/1999/xlink">
 <defs>
  <style type="text/css">
   <![CDATA[
    .str0 {stroke:#ffffff;stroke-width:0.216;stroke-miterlimit:2.61313}
    .fil0 {fill:none}
    .fil1 {fill:#ffffff}
   ]]>
  </style>
 </defs>
 <g id="Layer_x0020_1">
  <metadata id="CorelCorpID_0Corel-Layer"/>
  <rect class="fil0" width="512" height="512"/>
  <g id="_2312514474128">
   <g>
    <path class="fil1 str0" d="M208.629 140.016c0,10.205 8.217,18.423 18.422,18.423 38.948,0 86.92,-133.424 177.189,-95.606 45.115,18.901 67.585,76.813 38.19,121.502 -7.793,11.848 -49.096,51.254 -62.083,64.239 -11.843,11.844 -26.974,20.688 -26.974,38.818 0,7.436 10.975,15.79 18.422,15.79 15.729,0 61.474,-52.267 74.345,-65.134 35.768,-35.758 46.713,-53.85 46.713,-108.558 0,-52.097 -54.621,-110.532 -110.531,-110.532 -74.644,0 -89.547,27.703 -144.086,82.241 -8.921,8.922 -29.607,24.072 -29.607,38.817z"/>
    <path class="fil1 str0" d="M19.147 366.343c0,37.995 9.06,65.848 34.766,91.555 40.173,40.173 98.395,45.451 148.631,18.153 18.984,-10.316 54.195,-48.602 71.22,-65.627 12.262,-12.263 29.607,-23.04 29.607,-41.449 0,-5.315 -7.173,-15.791 -18.422,-15.791 -16.091,0 -73.421,64.374 -87.45,78.347 -75.902,75.599 -192.818,-41.316 -117.219,-117.218l61.905 -61.785c9.73,-9.616 16.442,-12.369 16.442,-28.297 0,-5.315 -7.172,-15.79 -18.422,-15.79 -14.746,0 -29.896,20.685 -38.817,29.607 -12.486,12.485 -23.041,23.044 -35.528,35.527 -22.54,22.534 -46.713,48.914 -46.713,92.768z"/>
    <path class="fil1 str0" d="M158.627 334.763c0,10.205 8.217,18.421 18.422,18.421 14.389,0 33.384,-24.172 48.029,-38.817l110.533 -110.529c10.049,-9.979 17.762,-13.379 17.762,-29.609 0,-5.315 -7.173,-15.79 -18.422,-15.79 -14.389,0 -33.384,24.172 -48.029,38.817l-110.533 110.53c-7.359,7.307 -17.762,13.907 -17.762,26.977z"/>
   </g>
  </g>
 </g>
</svg>
