<?xml version="1.0" encoding="UTF-8"?>
<!DOCTYPE svg PUBLIC "-//W3C//DTD SVG 1.1//EN" "http://www.w3.org/Graphics/SVG/1.1/DTD/svg11.dtd">
<!-- Creator: CorelDRAW 2019 (64-Bit Evaluation Version) -->
<svg xmlns="http://www.w3.org/2000/svg" xml:space="preserve" width="512px" height="512px" version="1.1" style="shape-rendering:geometricPrecision; text-rendering:geometricPrecision; image-rendering:optimizeQuality; fill-rule:evenodd; clip-rule:evenodd"
viewBox="0 0 512 512"
 xmlns:xlink="http://www.w3.org/1999/xlink">
 <defs>
  <style type="text/css">
   <![CDATA[
    .fil0 {fill:none}
    .fil1 {fill:#373435}
   ]]>
  </style>
 </defs>
 <g id="Layer_x0020_1">
  <metadata id="CorelCorpID_0Corel-Layer"/>
  <rect class="fil0" width="512" height="512"/>
  <path id="XMLID_1021_" class="fil1" d="M165.258 371.735c0,-40.756 -33.165,-73.921 -73.921,-73.921l-0.131 0.002c-0.548,-5.471 -0.832,-11.018 -0.832,-16.631 0,-69.019 42.35,-128.371 102.413,-153.45 12.895,21.846 36.681,36.561 63.79,36.561 27.191,0.065 50.97,-14.65 63.837,-36.542 60.038,25.089 102.364,84.429 102.364,153.431 0,5.618 -0.286,11.169 -0.832,16.646l-1.283 -0.017c-40.757,0 -73.921,33.165 -73.921,73.921 0,14.895 4.435,28.775 12.047,40.393 -28.215,22.079 -63.711,35.258 -102.212,35.258 -38.848,0 -74.634,-13.42 -102.97,-35.857 7.373,-11.494 11.651,-25.154 11.651,-39.794zm-125.158 -9.228c0,0 0,0.288 0.097,0.768 0,0.481 0.097,1.155 0.192,2.115 0,0.481 0,0.963 0.097,1.444 0.097,0.577 0.191,1.057 0.191,1.729 0.097,0.577 0.194,1.249 0.194,1.923 0.095,0.672 0.192,1.346 0.384,2.115 0.097,0.769 0.191,1.441 0.385,2.21 0.192,0.769 0.384,1.538 0.575,2.403 0.097,0.386 0.194,0.866 0.289,1.25 0.097,0.385 0.288,0.865 0.385,1.251 0.289,0.863 0.481,1.729 0.769,2.595 0.289,0.864 0.578,1.729 0.866,2.595 0.095,0.48 0.289,0.864 0.48,1.346 0.192,0.384 0.384,0.864 0.578,1.344l0.575 1.346c0.193,0.48 0.385,0.866 0.577,1.249 0.385,0.866 0.768,1.732 1.249,2.598 0.48,0.863 0.963,1.632 1.443,2.498 0.48,0.866 1.057,1.635 1.538,2.403 0.288,0.384 0.48,0.77 0.769,1.152 0.288,0.386 0.577,0.77 0.768,1.155 0.577,0.769 1.058,1.441 1.635,2.212 1.152,1.344 2.21,2.787 3.364,3.941 0.577,0.575 1.154,1.249 1.635,1.827 0.577,0.574 1.152,1.057 1.634,1.632 1.058,1.057 2.113,1.923 2.979,2.692 0.48,0.383 0.866,0.769 1.249,1.155 0.386,0.286 0.769,0.671 1.155,0.863 0.671,0.577 1.249,1.058 1.634,1.346 0.383,0.289 0.575,0.48 0.575,0.48 0,0 -0.286,-0.094 -0.672,-0.191 -0.48,-0.097 -1.154,-0.289 -2.018,-0.577 -0.48,-0.095 -0.963,-0.289 -1.443,-0.481 -0.48,-0.191 -1.057,-0.48 -1.632,-0.672 -0.577,-0.288 -1.155,-0.577 -1.827,-0.865 -0.674,-0.289 -1.251,-0.675 -1.923,-1.058 -0.674,-0.385 -1.346,-0.866 -2.115,-1.249 -0.672,-0.48 -1.346,-1.057 -2.115,-1.538 -1.538,-1.057 -2.883,-2.403 -4.324,-3.749 -0.675,-0.675 -1.346,-1.538 -2.021,-2.307 -0.288,-0.385 -0.671,-0.769 -1.057,-1.154 -0.289,-0.384 -0.575,-0.866 -0.961,-1.249 -0.577,-0.866 -1.249,-1.732 -1.826,-2.595 -0.577,-0.963 -1.057,-1.827 -1.635,-2.79 -0.48,-0.96 -0.866,-1.921 -1.346,-2.881 -0.48,-0.963 -0.863,-1.923 -1.152,-2.981 -0.769,-1.923 -1.249,-3.941 -1.635,-5.959 -0.191,-0.963 -0.288,-1.924 -0.48,-2.884 -0.097,-0.963 -0.288,-1.826 -0.288,-2.789 0,-0.864 -0.097,-1.826 -0.097,-2.595 0,-0.864 0.097,-1.635 0.097,-2.499 0.097,-0.768 0.097,-1.537 0.191,-2.212 0.097,-0.671 0.192,-1.346 0.386,-2.017 0.095,-0.675 0.191,-1.249 0.288,-1.732 0.095,-0.575 0.289,-0.961 0.384,-1.441 0.288,-0.866 0.48,-1.538 0.674,-2.018 0.192,-0.866 0.286,-1.154 0.286,-1.154zm96.032 29.512c0,0 0.094,-0.483 0.383,-1.346 0.288,-0.866 0.577,-2.115 1.154,-3.75 0.192,-0.769 0.384,-1.729 0.578,-2.692 0.094,-0.48 0.191,-0.96 0.288,-1.441 0.095,-0.288 0.095,-0.48 0.192,-0.768 0,-0.289 0.094,-0.578 0.094,-0.866 0.097,-1.155 0.289,-2.307 0.386,-3.556 0.097,-1.251 0.097,-2.595 0.097,-3.941 0.095,-1.346 -0.097,-2.79 -0.194,-4.23 -0.095,-0.769 0,-1.443 -0.192,-2.212 -0.097,-0.769 -0.191,-1.538 -0.383,-2.307 -0.097,-0.769 -0.194,-1.538 -0.385,-2.306 -0.192,-0.769 -0.384,-1.538 -0.578,-2.307 -0.288,-1.635 -0.863,-3.172 -1.44,-4.807 -0.097,-0.383 -0.289,-0.769 -0.386,-1.249 -0.095,-0.386 -0.383,-0.769 -0.48,-1.155 -0.384,-0.768 -0.672,-1.537 -1.058,-2.403 -0.288,-0.769 -0.769,-1.538 -1.152,-2.307 -0.385,-0.768 -0.866,-1.538 -1.251,-2.306 -0.961,-1.443 -1.921,-2.981 -2.979,-4.422l-1.635 -2.018c-0.577,-0.674 -1.154,-1.443 -1.731,-2.02 -1.249,-1.249 -2.401,-2.595 -3.844,-3.747 -0.672,-0.578 -1.347,-1.155 -2.018,-1.732 -0.675,-0.577 -1.443,-1.058 -2.115,-1.538 -0.769,-0.48 -1.443,-1.057 -2.115,-1.537 -0.769,-0.481 -1.538,-0.866 -2.307,-1.25 -0.769,-0.385 -1.538,-0.865 -2.212,-1.249 -0.769,-0.385 -1.635,-0.771 -2.403,-1.154 -2.979,-1.346 -6.151,-2.404 -9.227,-3.075 -3.077,-0.675 -5.961,-1.155 -8.748,-1.347 -2.787,-0.191 -5.287,-0.191 -7.594,0 -2.306,0.192 -4.23,0.384 -5.864,0.672 -1.633,0.289 -2.884,0.577 -3.748,0.769 -0.866,0.194 -1.346,0.289 -1.346,0.289 0,0 0.383,-0.192 1.249,-0.575 0.769,-0.386 2.018,-0.963 3.558,-1.54 1.538,-0.575 3.556,-1.249 5.862,-1.73 2.307,-0.577 4.999,-0.96 7.883,-1.154 2.981,-0.192 6.153,-0.095 9.517,0.385 3.364,0.481 6.825,1.347 10.381,2.693 0.866,0.288 1.635,0.672 2.501,1.057 0.96,0.383 1.729,0.864 2.595,1.344 0.863,0.482 1.729,0.866 2.595,1.346 0.863,0.48 1.632,1.058 2.498,1.635 0.769,0.577 1.635,1.057 2.404,1.634 0.769,0.672 1.537,1.25 2.306,1.921 1.635,1.252 2.884,2.693 4.327,4.136 0.769,0.671 1.346,1.44 1.921,2.306l1.826 2.307c0.578,0.769 1.058,1.634 1.635,2.5 0.48,0.864 1.058,1.633 1.538,2.499 1.826,3.461 3.364,7.016 4.421,10.574 0.483,1.827 1.058,3.556 1.252,5.382 0.095,0.866 0.288,1.732 0.383,2.596 0.097,0.865 0.097,1.731 0.192,2.595 0,0.866 0.097,1.634 0.097,2.5 0.097,0.864 0,1.635 -0.097,2.404 -0.095,1.632 -0.095,3.075 -0.384,4.613 -0.288,1.443 -0.385,2.884 -0.768,4.133 -0.386,1.249 -0.675,2.5 -0.963,3.652 -0.095,0.289 -0.192,0.578 -0.192,0.866 -0.095,0.289 -0.191,0.577 -0.288,0.769 -0.192,0.48 -0.384,1.058 -0.578,1.538 -0.383,0.963 -0.769,1.826 -1.057,2.595 -0.769,1.443 -1.441,2.595 -1.827,3.364 -0.286,0.577 -0.574,0.963 -0.574,0.963zm284.531 -71.135c0,0 -0.48,0.097 -1.346,0.194 -0.864,0.095 -2.21,0.384 -3.845,0.575 -0.768,0.194 -1.634,0.386 -2.595,0.675 -0.48,0.094 -0.96,0.191 -1.443,0.383 -0.286,0.097 -0.48,0.097 -0.769,0.194 -0.288,0.094 -0.48,0.191 -0.768,0.286 -1.058,0.386 -2.21,0.771 -3.365,1.154 -1.152,0.48 -2.403,1.058 -3.652,1.538 -1.249,0.48 -2.498,1.249 -3.75,2.018 -0.672,0.386 -1.344,0.674 -1.921,1.155 -0.674,0.383 -1.249,0.865 -1.923,1.346 -0.672,0.48 -1.346,0.866 -1.921,1.346 -0.577,0.48 -1.252,1.057 -1.923,1.537 -1.347,0.961 -2.501,2.21 -3.653,3.364l-0.866 0.866c-0.289,0.289 -0.577,0.672 -0.866,0.961 -0.575,0.672 -1.152,1.249 -1.729,1.923 -0.577,0.672 -1.057,1.346 -1.538,2.115 -0.48,0.672 -1.057,1.441 -1.537,2.113 -0.963,1.54 -1.827,3.077 -2.693,4.615l-1.154 2.404c-0.383,0.769 -0.769,1.635 -1.058,2.498 -0.575,1.732 -1.343,3.364 -1.729,5.096 -0.192,0.865 -0.48,1.729 -0.672,2.595 -0.194,0.866 -0.288,1.729 -0.482,2.595 -0.095,0.866 -0.287,1.729 -0.384,2.595 -0.097,0.866 -0.097,1.73 -0.191,2.595 -0.097,0.866 -0.194,1.73 -0.194,2.501 0,0.863 0,1.826 0,2.69 0.097,3.269 0.482,6.633 1.154,9.614 0.672,3.075 1.538,5.862 2.595,8.458 1.058,2.595 2.115,4.901 3.267,6.824 1.155,2.018 2.212,3.653 3.173,4.999 0.963,1.346 1.731,2.404 2.309,3.076 0.575,0.674 0.863,1.057 0.863,1.057 0,0 -0.383,-0.289 -1.057,-0.863 -0.672,-0.578 -1.729,-1.346 -2.979,-2.501 -1.154,-1.152 -2.692,-2.595 -4.135,-4.518 -1.538,-1.827 -2.978,-4.036 -4.421,-6.631 -1.441,-2.596 -2.69,-5.479 -3.748,-8.749 -1.057,-3.267 -1.731,-6.728 -2.115,-10.572 -0.097,-0.963 -0.097,-1.827 -0.194,-2.692 0,-1.058 0,-1.924 0,-2.884 0,-0.963 0.097,-1.924 0.097,-2.884 0.097,-0.963 0.289,-1.923 0.386,-2.884 0.191,-0.963 0.191,-1.923 0.48,-2.884 0.192,-0.96 0.481,-1.923 0.672,-2.883 0.386,-1.924 1.154,-3.845 1.826,-5.671 0.289,-0.963 0.769,-1.826 1.249,-2.789l1.347 -2.692c0.48,-0.864 1.057,-1.73 1.537,-2.596 0.578,-0.863 1.058,-1.729 1.635,-2.498 2.306,-3.172 4.902,-6.153 7.691,-8.554 1.441,-1.252 2.787,-2.404 4.324,-3.367 0.769,-0.48 1.443,-0.96 2.212,-1.537 0.672,-0.481 1.538,-0.864 2.21,-1.249 0.769,-0.384 1.443,-0.769 2.212,-1.153 0.672,-0.385 1.538,-0.674 2.209,-0.963 1.443,-0.577 2.884,-1.248 4.327,-1.634 1.441,-0.383 2.787,-0.863 4.039,-1.152 1.343,-0.192 2.595,-0.48 3.747,-0.674 0.289,-0.095 0.577,-0.095 0.866,-0.192 0.288,0 0.577,0 0.866,-0.095 0.574,0 1.057,-0.097 1.632,-0.097 1.057,-0.097 1.923,-0.097 2.789,-0.191 1.635,0.094 2.979,0.191 3.844,0.191 0.578,-0.097 1.058,-0.097 1.058,-0.097zm14.804 99.396c0,0 0.192,-0.097 0.672,-0.386 0.386,-0.288 1.058,-0.672 1.827,-1.057 0.385,-0.192 0.866,-0.481 1.249,-0.769 0.48,-0.289 0.963,-0.577 1.443,-0.961 0.48,-0.288 1.057,-0.674 1.635,-1.057 0.575,-0.386 1.152,-0.769 1.729,-1.249 0.577,-0.483 1.249,-0.866 1.826,-1.346 0.578,-0.481 1.249,-0.963 1.923,-1.538 0.289,-0.289 0.672,-0.483 0.961,-0.769 0.289,-0.288 0.672,-0.577 0.96,-0.866 0.675,-0.577 1.347,-1.154 2.021,-1.732 0.672,-0.671 1.249,-1.249 1.921,-1.92 0.385,-0.289 0.674,-0.675 0.963,-1.058 0.288,-0.385 0.672,-0.674 0.96,-1.057l0.96 -1.058c0.289,-0.385 0.578,-0.769 0.866,-1.154 0.578,-0.769 1.249,-1.441 1.73,-2.21 0.577,-0.769 1.057,-1.54 1.634,-2.309 0.578,-0.769 0.963,-1.632 1.538,-2.401 0.289,-0.386 0.483,-0.771 0.769,-1.155 0.194,-0.383 0.483,-0.865 0.674,-1.249 0.48,-0.768 0.866,-1.634 1.346,-2.403 0.672,-1.635 1.538,-3.173 2.115,-4.807 0.289,-0.769 0.575,-1.538 0.961,-2.307 0.288,-0.769 0.48,-1.44 0.672,-2.209 0.482,-1.346 0.866,-2.693 1.154,-3.847 0.192,-0.577 0.289,-1.152 0.48,-1.635 0.098,-0.48 0.192,-0.96 0.289,-1.44 0.191,-0.866 0.386,-1.538 0.48,-2.018 0.097,-0.481 0.192,-0.769 0.192,-0.769 0,0 0,0.288 0.097,0.769 0.097,0.48 0.192,1.152 0.288,2.115 0.097,0.48 0.097,0.96 0.192,1.537 0,0.577 0,1.152 0.097,1.729 0,0.675 0,1.347 0,2.018 0,0.769 -0.097,1.444 -0.192,2.212 -0.097,0.769 -0.193,1.635 -0.288,2.499 -0.097,0.865 -0.289,1.731 -0.48,2.597 -0.289,1.827 -0.963,3.653 -1.54,5.479 -0.384,0.961 -0.769,1.827 -1.153,2.787 -0.191,0.48 -0.385,0.96 -0.674,1.441 -0.286,0.482 -0.48,0.962 -0.769,1.346 -0.48,0.866 -0.96,1.923 -1.632,2.789 -0.577,0.863 -1.252,1.729 -1.826,2.69 -0.674,0.866 -1.347,1.635 -2.021,2.5 -0.671,0.866 -1.44,1.538 -2.115,2.307 -1.44,1.538 -3.075,2.787 -4.613,4.038 -0.769,0.575 -1.634,1.152 -2.403,1.633 -0.769,0.48 -1.538,1.057 -2.404,1.443 -0.769,0.383 -1.538,0.865 -2.306,1.249 -0.769,0.385 -1.538,0.671 -2.307,0.96 -0.769,0.289 -1.443,0.577 -2.115,0.769 -0.672,0.194 -1.346,0.386 -2.018,0.577 -0.577,0.194 -1.155,0.289 -1.732,0.481 -0.575,0.097 -1.057,0.194 -1.44,0.288 -0.866,0.194 -1.635,0.194 -2.115,0.289 -0.192,0.194 -0.481,0.194 -0.481,0.194zm-163.414 -281.553c0,0 0.192,-0.097 0.673,-0.386 0.385,-0.288 1.057,-0.672 1.826,-1.057 0.385,-0.192 0.866,-0.48 1.249,-0.769 0.48,-0.289 0.963,-0.577 1.443,-0.961 0.48,-0.288 1.057,-0.674 1.635,-1.057 0.575,-0.386 1.152,-0.769 1.729,-1.249 0.577,-0.48 1.249,-0.866 1.826,-1.346 0.578,-0.48 1.249,-0.961 1.924,-1.538 0.288,-0.289 0.672,-0.48 0.96,-0.769 0.289,-0.288 0.672,-0.577 0.961,-0.866 0.674,-0.577 1.346,-1.154 2.02,-1.729 0.672,-0.674 1.249,-1.251 1.921,-1.923 0.385,-0.289 0.674,-0.675 0.963,-1.058 0.288,-0.385 0.672,-0.674 0.96,-1.057l0.961 -1.058c0.288,-0.385 0.577,-0.769 0.866,-1.154 0.577,-0.769 1.248,-1.441 1.729,-2.21 0.577,-0.769 1.057,-1.537 1.635,-2.306 0.577,-0.769 0.962,-1.635 1.537,-2.404 0.289,-0.385 0.483,-0.769 0.769,-1.154 0.194,-0.383 0.483,-0.866 0.674,-1.249 0.48,-0.769 0.866,-1.635 1.346,-2.404 0.672,-1.635 1.538,-3.172 2.115,-4.807 0.289,-0.769 0.575,-1.538 0.961,-2.307 0.289,-0.769 0.48,-1.44 0.672,-2.209 0.482,-1.346 0.866,-2.692 1.154,-3.847 0.192,-0.575 0.289,-1.152 0.48,-1.632 0.098,-0.483 0.192,-0.963 0.289,-1.443 0.192,-0.866 0.386,-1.538 0.48,-2.018 0.097,-0.48 0.194,-0.769 0.194,-0.769 0,0 0,0.289 0.095,0.769 0.097,0.48 0.192,1.152 0.289,2.115 0.096,0.48 0.096,0.96 0.191,1.537 0,0.578 0,1.152 0.097,1.73 0,0.674 0,1.346 0,2.02 0,0.769 -0.097,1.441 -0.192,2.21 -0.096,0.768 -0.193,1.634 -0.288,2.5 -0.097,0.864 -0.289,1.73 -0.48,2.595 -0.289,1.827 -0.963,3.653 -1.538,5.479 -0.386,0.961 -0.771,1.827 -1.154,2.787 -0.192,0.48 -0.386,0.96 -0.672,1.443 -0.289,0.48 -0.483,0.961 -0.771,1.344 -0.481,0.866 -0.961,1.923 -1.633,2.789 -0.577,0.864 -1.251,1.73 -1.826,2.69 -0.674,0.866 -1.346,1.635 -2.021,2.501 -0.671,0.865 -1.44,1.537 -2.114,2.306 -1.441,1.538 -3.076,2.789 -4.614,4.038 -0.769,0.578 -1.634,1.152 -2.403,1.635 -0.769,0.48 -1.538,1.055 -2.404,1.441 -0.769,0.383 -1.537,0.866 -2.306,1.249 -0.769,0.385 -1.538,0.674 -2.307,0.963 -0.769,0.286 -1.443,0.574 -2.115,0.769 -0.672,0.191 -1.346,0.383 -2.018,0.575 -0.577,0.193 -1.154,0.288 -1.732,0.482 -0.574,0.095 -1.057,0.192 -1.44,0.286 -0.866,0.194 -1.635,0.194 -2.115,0.289 -0.289,0.194 -0.481,0.194 -0.481,0.194zm-227.442 175.774c-16.587,13.567 -27.196,34.186 -27.196,57.234 0,40.757 33.163,73.922 73.922,73.922 8.12,0 15.937,-1.322 23.252,-3.752 37.853,33.482 87.581,53.834 141.988,53.834 54.259,0 103.863,-20.24 141.677,-53.56 7.073,2.255 14.599,3.478 22.409,3.478 40.759,0 73.921,-33.165 73.921,-73.922 0,-22.575 -10.177,-42.82 -26.184,-56.39 1.787,-11.128 2.728,-22.535 2.728,-34.16 0,-92.623 -58.957,-171.696 -141.323,-201.684 -5.239,-35.751 -36.124,-63.24 -73.228,-63.24 -37.184,0 -67.996,27.558 -73.23,63.24 -82.367,29.988 -141.323,109.061 -141.323,201.684 0,11.332 0.89,22.455 2.587,33.316zm207.659 -249.523l0.167 -0.029 0.17 -0.027 0.322 -0.049 0.015 -0.002 0.169 -0.022 0.17 -0.024 0.025 -0.005 0.148 -0.017 0.169 -0.019 0.172 -0.02 0.156 -0.017 0.014 0 0.173 -0.017 0.172 -0.017 0.172 -0.014 0.119 -0.01 0.053 -0.002 0.046 -0.005 0.301 -0.019 0.175 -0.01 0.077 -0.005 0.097 -0.005 0.172 -0.007 0.175 -0.007 0.175 -0.005 0.041 -0.003 0.136 -0.002 0.174 -0.003 0.175 -0.002 0.177 0 0.177 0 0.175 0.002 0.175 0.003 0.135 0.002 0.041 0.003 0.175 0.005 0.175 0.007 0.172 0.007 0.097 0.005 0.078 0.005 0.174 0.01 0.301 0.019 0.046 0.005 0.053 0.002 0.119 0.01 0.172 0.014 0.173 0.017 0.172 0.017 0.014 0 0.156 0.017 0.172 0.02 0.17 0.019 0.148 0.017 0.024 0.005 0.17 0.024 0.169 0.022 0.015 0.002 0.322 0.049 0.17 0.027 0.168 0.029c12.122,2.049 21.358,12.595 21.358,25.302 0,12.473 -8.894,22.856 -20.682,25.178l-0.099 0.019 -0.097 0.02 -0.497 0.089 -0.1 0.015 -0.102 0.017 -0.099 0.017 -0.1 0.014 -0.099 0.015 -0.102 0.014 -0.099 0.015 -0.102 0.014 -0.1 0.015 -0.118 0.017 -0.085 0.01 -0.1 0.012 -0.102 0.012 -0.101 0.01 -0.102 0.012 -0.1 0.012 -0.056 0.005 -0.046 0.005 -0.102 0.009 -0.102 0.01 -0.206 0.017 -0.101 0.01 -0.093 0.007 -0.009 0 -0.102 0.007 -0.102 0.008 -0.104 0.007 -0.207 0.012 -0.101 0.007 -0.027 0 -0.078 0.005 -0.206 0.007 -0.102 0.005 -0.104 0.003 -0.104 0.004 -0.066 0.003 -0.039 0 -0.102 0.002 -0.104 0.003 -0.104 0 -0.104 0.002 -0.105 0 -0.104 0 -0.104 0 -0.104 0 -0.105 -0.002 -0.104 0 -0.104 -0.003 -0.102 -0.002 -0.039 0 -0.066 -0.003 -0.104 -0.004 -0.104 -0.003 -0.102 -0.005 -0.206 -0.007 -0.078 -0.005 -0.026 0 -0.102 -0.007 -0.206 -0.012 -0.105 -0.007 -0.102 -0.008 -0.102 -0.007 -0.009 0 -0.092 -0.007 -0.102 -0.01 -0.206 -0.017 -0.102 -0.01 -0.102 -0.009 -0.046 -0.005 -0.056 -0.005 -0.1 -0.012 -0.101 -0.012 -0.102 -0.01 -0.102 -0.012 -0.1 -0.012 -0.084 -0.01 -0.119 -0.017 -0.1 -0.015 -0.101 -0.014 -0.1 -0.015 -0.102 -0.014 -0.099 -0.015 -0.1 -0.014 -0.099 -0.017 -0.102 -0.017 -0.099 -0.015 -0.498 -0.089 -0.097 -0.02 -0.099 -0.019c-11.79,-2.319 -20.682,-12.709 -20.682,-25.178 0,-12.71 9.234,-23.251 21.359,-25.302zm-38.69 5.981c-2.28,0.465 -4.541,0.979 -6.794,1.516l0.669 -1.805c0.289,-0.963 0.769,-1.826 1.249,-2.789l1.347 -2.69c0.48,-0.866 1.057,-1.731 1.537,-2.595 0.578,-0.866 1.058,-1.732 1.635,-2.501 2.306,-3.172 4.902,-6.151 7.691,-8.554 1.441,-1.249 2.787,-2.404 4.324,-3.364 0.769,-0.483 1.444,-0.963 2.212,-1.538 0.672,-0.482 1.538,-0.866 2.21,-1.251 0.769,-0.383 1.443,-0.769 2.212,-1.152 0.672,-0.386 1.538,-0.675 2.212,-0.963 1.441,-0.575 2.884,-1.249 4.324,-1.633 1.441,-0.385 2.787,-0.865 4.039,-1.154 1.343,-0.192 2.595,-0.48 3.747,-0.672 0.289,-0.097 0.577,-0.097 0.866,-0.194 0.288,0 0.577,0 0.866,-0.095 0.574,0 1.057,-0.096 1.632,-0.096 1.057,-0.097 1.923,-0.097 2.789,-0.192 1.635,0.095 2.979,0.192 3.844,0.192 0.578,-0.097 1.058,-0.097 1.058,-0.097 0,0 -0.48,0.097 -1.346,0.193 -0.864,0.095 -2.21,0.384 -3.845,0.575 -0.768,0.194 -1.634,0.386 -2.595,0.675 -0.48,0.097 -0.96,0.191 -1.443,0.383 -0.286,0.097 -0.48,0.097 -0.769,0.194 -0.288,0.094 -0.48,0.191 -0.768,0.288 -1.058,0.384 -2.21,0.769 -3.364,1.153 -1.152,0.48 -2.404,1.057 -3.653,1.537 -1.249,0.48 -2.498,1.252 -3.75,2.021 -0.672,0.383 -1.343,0.672 -1.921,1.152 -0.674,0.385 -1.249,0.865 -1.923,1.346 -0.672,0.48 -1.346,0.866 -1.921,1.346 -0.577,0.48 -1.251,1.057 -1.923,1.538 -1.346,0.96 -2.501,2.211 -3.653,3.364l-0.866 0.865c-0.289,0.289 -0.577,0.672 -0.866,0.961 -0.575,0.674 -1.152,1.249 -1.729,1.923 -0.577,0.672 -1.057,1.346 -1.538,2.115 -0.48,0.672 -1.057,1.441 -1.537,2.115 -0.963,1.538 -1.827,3.076 -2.693,4.613l-1.154 2.404 -0.412 0.866zm1.535 49.267c0.698,-0.18 1.399,-0.342 2.1,-0.514 0.803,1.327 1.555,2.459 2.256,3.441 0.963,1.347 1.731,2.404 2.309,3.078 0.575,0.672 0.863,1.058 0.863,1.058 0,0 -0.383,-0.289 -1.057,-0.866 -0.672,-0.577 -1.729,-1.346 -2.979,-2.501 -0.984,-0.982 -2.25,-2.175 -3.492,-3.696zm179.914 252.766l-0.003 -0.039 -0.002 -0.039 0 -0.039 -0.002 -0.039 -0.003 -0.038 -0.002 -0.078 -0.003 -0.041 0 -0.039 -0.002 -0.039 -0.003 -0.039 0 -0.038 -0.002 -0.039 0 -0.041 0 -0.039 -0.002 -0.008 0 -0.031 0 -0.039 -0.003 -0.039 0 -0.039 0 -0.041 -0.002 -0.039 0 -0.038 0 -0.039 0 -0.041 0 -0.039 -0.003 -0.08 0 -0.039 0 -0.039 0 -0.039 0 -0.041 0 -0.039 0.005 -0.448 0.003 -0.214 0.007 -0.233 0.019 -0.427 0 -0.017 0.036 -0.569 0.006 -0.066 0.021 -0.25 0.037 -0.4 0.004 -0.039 0.049 -0.436 0.02 -0.17 0.036 -0.264 0.012 -0.073c1.753,-12.462 12.464,-22.059 25.411,-22.059 14.174,0 25.665,11.491 25.665,25.665 0,14.174 -11.491,25.666 -25.665,25.666 -13.755,0 -24.979,-10.82 -25.634,-24.409zm-277.934 -1.565l-0.098 -0.15 0.006 0.458c0,14.174 -11.492,25.666 -25.666,25.666 -14.174,0 -25.666,-11.492 -25.666,-25.666 0,-14.174 11.492,-25.665 25.666,-25.665 5.217,0 10.068,1.557 14.121,4.232l-0.027 -0.056c6.932,4.538 11.559,12.336 11.664,21.181z"/>
 </g>
</svg>
