<?xml version="1.0" encoding="utf-8"?>
<!-- Generator: Adobe Illustrator 19.0.0, SVG Export Plug-In . SVG Version: 6.00 Build 0)  -->
<svg version="1.1" id="Layer_1" xmlns="http://www.w3.org/2000/svg" xmlns:xlink="http://www.w3.org/1999/xlink" x="0px" y="0px"
	 viewBox="0 0 512 512" style="enable-background:new 0 0 512 512;" xml:space="preserve">
<style type="text/css">
	.st0{fill:#FFFFFF;}
</style>
<title>compass navigation</title>
<g>
	<g>
		<g>
			<polygon class="st0" points="125.8,214.4 187.3,178.9 246.6,148.7 132.5,82 			"/>
			<path d="M119.8,224.2l7.6-151.5L258.1,149l-68.2,34.7L119.8,224.2z M137.5,91.4l-5.7,113.2l53-30.6l50.3-25.6L137.5,91.4z"/>
		</g>
		<g>
			<path d="M355.8,354.6l-9.7-5.6l5.5-9.5l9.7,5.6L355.8,354.6z M340.9,346l-39.9-23l5.5-9.5l39.9,23L340.9,346z M295.9,320L256,297
				l5.5-9.5l39.9,23L295.9,320z M250.8,294l-39.9-23l5.5-9.5l39.9,23L250.8,294z M205.8,268.1l-39.9-23l5.5-9.5l39.9,23L205.8,268.1
				z M160.7,242.1l-39.9-23l5.5-9.5l39.9,23L160.7,242.1z"/>
		</g>
		<g>
			<path d="M246.6,427.1l-45.1-26.5l5.6-9.5l28.5,16.8v-45.7h11v46h-10.5l7.8,4.6l-0.8,1.4h3.6V427.1z M196.3,397.6l-39.7-23.3
				l5.6-9.5l39.7,23.3L196.3,397.6z M151.5,371.3l-31.2-18.3v-16.1h11v9.8l25.8,15.1L151.5,371.3z M246.6,356.2h-11v-46h11V356.2z
				 M131.3,330.8h-11v-46h11V330.8z M246.6,304.2h-11v-25.3l23.4-13.5l5.5,9.5l-17.9,10.4V304.2z M131.3,278.8h-11v-46h11V278.8z
				 M269.7,271.9l-5.5-9.5l35.6-20.6l4.3-2.4l5.4,9.6l-4.3,2.4L269.7,271.9z M314.8,246.1l-5.4-9.6l38.2-21.3l-30.3-18l5.6-9.5
				l46.7,27.8l-9.4,5.3l-2.3-4.2l-2.1,3.5l-4.3-2.5l3.4,6.1L314.8,246.1z M131.3,226.8h-11v-15.6l31.8-18.4l5.5,9.5l-26.3,15.2
				V226.8z M162.8,199.4l-5.5-9.5l27.5-15.9l13-6.6l5,9.8l-12.8,6.5L162.8,199.4z M312.2,194.1l-39.5-23.5l5.6-9.5l39.5,23.5
				L312.2,194.1z M208.1,174.5l-5-9.8l41-20.9l2.5,4.9l2.8-4.7l23.7,14.1l-5.6,9.5L246.4,155L208.1,174.5z"/>
		</g>
		<g>
			<path d="M246.5,426.1l-5.8-9.3l39.1-24.3l5.8,9.3L246.5,426.1z M290.6,398.6l-5.8-9.3l39.1-24.3l5.8,9.3L290.6,398.6z
				 M334.8,371.1l-5.8-9.3l24.2-15.1l0.4-11.6l11,0.4l-0.6,17.5L334.8,371.1z M364.8,329.5l-11-0.4l1.5-46l11,0.4L364.8,329.5z
				 M366.5,277.5l-11-0.4l1.5-46l11,0.4L366.5,277.5z M368.3,225.5l-11-0.4l0.3-10l11,0.4L368.3,225.5z"/>
		</g>
	</g>
	<g>
		<path d="M246.6,278h-11v-46h11V278z M246.6,226h-11v-46h11V226z M246.6,174h-11v-19.6h11V174z"/>
	</g>
	<g>
		<path d="M128.6,354.5l-5.6-9.5l39.7-23.3l5.6,9.5L128.6,354.5z M173.4,328.2l-5.6-9.5l39.7-23.3l5.6,9.5L173.4,328.2z
			 M218.3,301.9l-5.6-9.5l25.6-15l5.6,9.5L218.3,301.9z"/>
	</g>
</g>
</svg>
