<?xml version="1.0" encoding="utf-8"?>
<!-- Generator: Adobe Illustrator 19.0.0, SVG Export Plug-In . SVG Version: 6.00 Build 0)  -->
<svg version="1.1" id="Layer_1" xmlns="http://www.w3.org/2000/svg" xmlns:xlink="http://www.w3.org/1999/xlink" x="0px" y="0px"
	 viewBox="0 0 512 512" style="enable-background:new 0 0 512 512;" xml:space="preserve">
<title>compass navigation</title>
<g>
	<g>
		<polygon points="256.1,424.9 148.2,312 156.2,304.4 256.1,409 355.8,304.4 363.8,312 		"/>
	</g>
	<g>
		<g>
			<path d="M256,341c-67.3,0-122-54.7-122-122S188.7,97,256,97s122,54.7,122,122S323.3,341,256,341z M256,108
				c-61.2,0-111,49.8-111,111s49.8,111,111,111s111-49.8,111-111S317.2,108,256,108z"/>
		</g>
		<g>
			<path d="M256,361.5c-78.6,0-142.5-63.9-142.5-142.5S177.4,76.5,256,76.5S398.5,140.4,398.5,219S334.6,361.5,256,361.5z M256,87.5
				c-72.5,0-131.5,59-131.5,131.5c0,72.5,59,131.5,131.5,131.5s131.5-59,131.5-131.5C387.5,146.5,328.5,87.5,256,87.5z"/>
		</g>
		<g>
			<rect x="139.5" y="213.5" width="46.9" height="11"/>
		</g>
		<g>
			<rect x="250.5" y="102.5" width="11" height="46.9"/>
		</g>
		<g>
			<rect x="325.6" y="213.5" width="46.9" height="11"/>
		</g>
		<g>
			<rect x="250.5" y="288.6" width="11" height="46.9"/>
		</g>
		<g>
			<path d="M232.5,247.4L189.2,154l93.1,42.8L232.5,247.4z M211.8,176.5l24.1,51.8l27.6-28.1L211.8,176.5z"/>
		</g>
		<g>
			<polygon points="319.5,285.5 232.7,247.2 237.1,237.1 298.6,264.2 272.1,201.2 282.2,196.9 			"/>
		</g>
	</g>
</g>
</svg>
