<?xml version="1.0" encoding="utf-8"?>
<!-- Generator: Adobe Illustrator 19.0.0, SVG Export Plug-In . SVG Version: 6.00 Build 0)  -->
<svg version="1.1" id="Layer_1" xmlns="http://www.w3.org/2000/svg" xmlns:xlink="http://www.w3.org/1999/xlink" x="0px" y="0px"
	 viewBox="0 0 512 512" style="enable-background:new 0 0 512 512;" xml:space="preserve">
<style type="text/css">
	.st0{fill:#FFFFFF;}
</style>
<title>compass navigation</title>
<g>
	<g>
		<path class="st0" d="M165.1,417H89.3l18-113.4l196.5-198.5c0,0,52.1-51.4,98.3-5.2s0,100.2,0,100.2L199.7,402.4l-92.4-98.9"/>
		<path d="M165.1,426H78.8l20.1-126.6L297.5,98.7c0.6-0.6,14.6-14.3,35-21.9c19.6-7.4,48.7-10.5,76,16.8c27,27,25.6,56.4,19.6,76.4
			c-6.2,20.9-18.6,35.4-19.1,36.1l-0.5,0.5l-209,208.9l-86.2-92.2L99.9,408h65.2V426z M119.8,303.8l80.1,85.7L395.5,194
			c3.4-4.1,38.9-49.1,0.3-87.8c-16.4-16.4-35.6-20.7-56.9-12.7c-16.4,6.2-28,17.3-28.6,17.9L119.8,303.8z"/>
	</g>
	<g>
		<polyline class="st0" points="159.2,345.9 350.2,154.9 302.2,106.8 393.9,198.5 		"/>
		<polygon points="165.6,352.2 152.8,339.5 337.5,154.9 295.8,113.2 295.8,113.2 295.8,113.2 308.5,100.4 400.2,192.1 387.5,204.9 
			350.2,167.6 		"/>
	</g>
</g>
</svg>
