<?xml version="1.0" encoding="UTF-8"?>
<!DOCTYPE svg PUBLIC "-//W3C//DTD SVG 1.1//EN" "http://www.w3.org/Graphics/SVG/1.1/DTD/svg11.dtd">
<!-- Creator: CorelDRAW 2019 (64-Bit) -->
<svg xmlns="http://www.w3.org/2000/svg" xml:space="preserve" width="512px" height="512px" version="1.1" style="shape-rendering:geometricPrecision; text-rendering:geometricPrecision; image-rendering:optimizeQuality; fill-rule:evenodd; clip-rule:evenodd"
viewBox="0 0 512 512"
 xmlns:xlink="http://www.w3.org/1999/xlink">
 <defs>
  <style type="text/css">
   <![CDATA[
    .str2 {stroke:#2B2E34;stroke-width:2.083;stroke-miterlimit:22.9256}
    .str1 {stroke:#47494F;stroke-width:2.083;stroke-miterlimit:22.9256}
    .str0 {stroke:#999999;stroke-width:0.567;stroke-miterlimit:22.9256}
    .fil0 {fill:none}
    .fil7 {fill:#2B2E34}
    .fil8 {fill:#47494F}
    .fil4 {fill:#9A9B9F}
    .fil6 {fill:#BABABD}
    .fil2 {fill:white}
    .fil1 {fill:white}
    .fil3 {fill:white;fill-opacity:0.109804}
    .fil5 {fill:white;fill-opacity:0.678431}
   ]]>
  </style>
    <clipPath id="id0">
     <path d="M256 62.645c106.706,0 193.355,86.648 193.355,193.355l0 0c-24.069,34.499 -384.303,24.871 -385.908,0 0,106.706 86.649,192.552 193.355,192.552 4.814,0 9.628,0 14.442,0 -4.814,0 -9.628,0 -15.244,0 -106.707,0 -192.553,-85.846 -192.553,-192.552 0,-106.707 85.846,-193.355 192.553,-193.355z"/>
    </clipPath>
    <clipPath id="id1">
     <path d="M256 62.645c106.706,0 193.355,86.648 193.355,193.355l0 0c-24.069,34.499 -384.303,24.871 -385.908,0 0,106.706 86.649,192.552 193.355,192.552 4.814,0 9.628,0 14.442,0 -4.814,0 -9.628,0 -15.244,0 -106.707,0 -192.553,-85.846 -192.553,-192.552 0,-106.707 85.846,-193.355 192.553,-193.355z"/>
    </clipPath>
     <clipPath id="id2">
      <path d="M294.51 163.735l19.256 0 0 129.973 -19.256 0 0 -129.973z"/>
     </clipPath>
    <clipPath id="id3">
     <path d="M448.552 256c0,106.706 -85.846,193.355 -192.552,193.355 -106.707,0 -193.355,-86.649 -193.355,-193.355 1.605,25.674 363.443,34.499 385.907,0z"/>
    </clipPath>
 </defs>
 <g id="Layer_x0020_1">
  <metadata id="CorelCorpID_0Corel-Layer"/>
  <rect class="fil0" width="512" height="512"/>
  <circle class="fil1 str0" cx="256" cy="256" r="236.074"/>
  <g id="_2077788767856">
   <path class="fil2" d="M256 63.447c106.706,0 192.552,85.846 192.552,192.553 0,106.706 -85.846,193.355 -192.552,193.355 -106.707,0 -193.355,-86.649 -193.355,-193.355 0,-106.707 86.648,-192.553 193.355,-192.553z"/>
   <g>
   </g>
   <g style="clip-path:url(#id0)">
    <g id="_1999738670032">
     <polygon class="fil3" points="63.447,62.645 449.355,62.645 449.355,448.552 63.447,448.552 "/>
    </g>
   </g>
   <path class="fil0" d="M256 62.645c106.706,0 193.355,86.648 193.355,193.355l0 0c-24.069,34.499 -384.303,24.871 -385.908,0 0,106.706 86.649,192.552 193.355,192.552 4.814,0 9.628,0 14.442,0 -4.814,0 -9.628,0 -15.244,0 -106.707,0 -192.553,-85.846 -192.553,-192.552 0,-106.707 85.846,-193.355 192.553,-193.355z"/>
   <g>
   </g>
   <g style="clip-path:url(#id1)">
    <g>
     <path id="_1" class="fil4" d="M74.68 192.618c12.836,-2.407 18.452,23.267 18.452,32.092 0,44.127 -13.639,21.662 28.883,39.313 23.267,9.627 -12.836,35.301 56.964,32.092 6.418,0 7.221,8.825 28.08,10.43 18.453,1.605 7.221,20.86 1.605,28.883 -1.605,1.604 -8.825,32.894 0,32.894 20.058,0 50.545,8.825 50.545,31.29 0,3.209 6.419,40.115 7.221,40.115 21.662,17.651 8.825,7.221 36.906,-11.232 14.441,-9.628 16.046,-32.894 32.894,-43.324 17.651,-11.233 -10.43,-18.453 6.419,-32.092 0,0 13.639,-26.476 -20.058,-13.639 -24.069,9.627 -29.685,-36.906 -48.94,-22.465 -19.255,14.442 -24.872,-9.628 -37.708,-9.628 -4.814,0 -54.557,-24.069 -53.755,-35.301 2.407,-23.267 -28.08,36.906 -32.092,-17.65 -3.209,-44.127 24.872,-4.012 33.697,-4.012 37.708,0 -3.209,-33.697 31.29,-52.952 36.906,-20.86 -1.605,-44.929 43.324,-41.72 18.453,1.605 27.279,-20.86 1.605,-20.057 -4.814,0 -17.651,-28.883 -36.104,-5.616 -8.825,11.232 -26.476,-10.431 -27.278,-8.826 -5.616,11.233 -1.605,60.173 -28.081,23.267 -14.441,-19.255 -32.894,-13.639 6.419,-28.883 11.232,-4.011 -1.605,-20.86 11.232,-12.837 8.023,4.814 8.826,34.5 41.72,2.407 19.255,-19.255 -38.511,-13.639 -38.511,-17.65 -0.802,-16.849 6.419,-16.046 -20.057,-5.616 -28.081,11.232 8.825,15.243 -0.803,30.487 0,0 -17.65,8.023 -16.848,-8.023 0.802,-9.627 -21.662,-6.418 -9.628,10.43 8.023,11.233 -12.034,20.058 -15.244,5.617 -19.255,-6.419 -52.149,57.765 -52.149,72.207l0 -0.001z"/>
     <path class="fil4" d="M215.082 71.47c8.826,0 18.453,13.639 30.488,7.221 0.802,0 -1.605,9.627 6.418,18.453 12.837,14.441 9.628,-0.803 22.465,15.244 0,0 12.836,8.023 12.836,-6.419 0,-5.616 -10.429,-21.662 3.209,-20.057 2.408,0 2.408,5.616 17.651,-11.233 4.814,-4.813 -2.407,-6.418 -20.86,-9.628 -17.65,-3.209 -56.161,-4.813 -71.405,4.012 0,0 -0.802,2.407 -0.802,2.407l0 0z"/>
     <path class="fil4" d="M308.952 82.702c16.848,-7.22 3.209,0.803 22.464,0 3.209,0 7.221,12.837 -8.023,8.023 -4.011,-0.802 -16.848,3.209 -15.243,-7.221l0.802 -0.802 0 0z"/>
     <path class="fil4" d="M353.079 114.794c9.627,-1.604 5.616,11.233 3.209,12.035 -9.628,4.012 -10.43,-15.244 -3.209,-12.035z"/>
     <path class="fil4" d="M357.09 109.179c4.814,2.407 10.43,8.825 10.43,14.441 0,5.616 4.814,6.419 8.023,3.209 1.605,-0.802 11.232,6.419 6.418,-7.221 -3.209,-8.023 -10.43,-6.418 -18.453,-10.43 0,0 -5.616,-0.802 -6.418,0l0 0.001z"/>
     <path class="fil4" d="M371.531 98.749c-3.209,13.639 4.814,4.813 13.64,13.639 5.616,6.418 5.616,8.825 0.802,15.243 -5.616,7.221 -5.616,2.408 -12.035,4.814 0,1.605 14.442,12.837 -0.802,12.837 -4.814,0.802 -1.605,8.825 -0.802,11.232 1.604,5.617 -4.012,12.035 6.418,6.419 7.221,-4.814 14.441,10.43 12.837,-12.837 0,-2.407 9.627,-10.43 12.836,-3.209 2.408,6.419 -4.011,8.825 9.628,14.441 5.616,1.605 8.023,7.221 13.639,1.605 1.605,-0.802 0.803,-4.814 -1.604,-6.418 -1.605,-1.605 -8.826,-13.639 -12.035,-18.453 -1.605,-0.802 -8.825,-13.639 -12.035,-17.651 -5.616,-8.023 -10.43,-9.627 -16.046,-16.046 -1.605,-2.407 -8.023,-1.605 -12.035,-5.616 -0.802,0 -2.407,0 -2.407,0l0.001 0z"/>
     <path class="fil4" d="M375.543 178.979c0.802,-13.639 12.035,0.802 29.685,-8.825 12.035,-6.419 4.012,0.802 17.651,15.243 5.616,5.616 4.814,-19.255 12.836,-1.605 1.605,3.21 4.012,15.244 7.221,22.465 5.616,10.43 8.826,72.207 4.012,83.44 -1.605,4.813 -3.209,27.278 -8.825,22.464 -3.209,-2.407 -3.209,-23.267 0.802,-25.674 5.616,-4.011 -7.221,-12.035 -7.221,-20.057 0,-11.233 -8.023,-4.012 -10.43,-14.442 -5.616,-1.605 -22.464,17.651 -40.918,-1.605 -8.022,-7.221 -18.452,-6.418 -7.22,-19.255 6.418,-6.419 -4.814,-18.453 -4.814,-20.057 0,-5.617 7.221,-8.826 9.627,-19.256 0.803,-5.616 -2.407,-8.825 -2.407,-12.837l0.001 0.001z"/>
     <path class="fil4" d="M213.478 267.232c2.407,-2.407 26.476,-4.011 26.476,-4.011 0,9.627 -11.232,8.825 -20.86,8.825 -3.209,0 -7.221,-3.209 -5.616,-4.814z"/>
     <path class="fil5" d="M247.977 13.704c130.775,0 236.679,105.904 236.679,236.68 0,130.775 -105.904,236.679 -236.679,236.679 -129.973,0 -235.877,-105.904 -235.877,-236.679 0,-130.776 105.904,-236.68 235.877,-236.68z"/>
    </g>
   </g>
   <path class="fil0" d="M256 62.645c106.706,0 193.355,86.648 193.355,193.355l0 0c-24.069,34.499 -384.303,24.871 -385.908,0 0,106.706 86.649,192.552 193.355,192.552 4.814,0 9.628,0 14.442,0 -4.814,0 -9.628,0 -15.244,0 -106.707,0 -192.553,-85.846 -192.553,-192.552 0,-106.707 85.846,-193.355 192.553,-193.355z"/>
   <path class="fil0" d="M256 62.645c106.706,0 193.355,86.648 193.355,193.355l0 0c-24.069,34.499 -384.303,24.871 -385.908,0 0,106.706 86.649,192.552 193.355,192.552 4.814,0 9.628,0 14.442,0 -4.814,0 -9.628,0 -15.244,0 -106.707,0 -192.553,-85.846 -192.553,-192.552 0,-106.707 85.846,-193.355 192.553,-193.355z"/>
   <ellipse class="fil6" cx="255.197" cy="257.605" rx="191.75" ry="21.662"/>
   <g>
    <path class="fil7" d="M207.862 325.8c-51.348,17.651 -107.509,-9.627 -125.16,-60.975 -17.65,-51.347 9.628,-107.508 60.975,-125.159 19.256,-6.418 39.313,-6.418 57.766,-1.605l0 0c-16.848,-4.011 -33.697,-4.011 -50.545,0 -52.15,13.64 -83.44,67.394 -69.8,119.544l95.474 -24.872 94.671 25.674c-8.023,30.488 -31.29,56.963 -63.382,67.393l0.001 0z"/>
    <path class="fil8" d="M178.979 230.326l94.671 25.674c13.639,-52.952 -16.848,-106.707 -69.8,-120.345l-24.872 94.671 0.001 0z"/>
    <path class="fil8" d="M174.967 229.524l-95.474 24.871c-13.639,-52.15 17.651,-105.904 70.603,-119.543 16.848,-4.814 34.499,-4.814 50.545,0l-25.674 94.672z"/>
    <path class="fil2" d="M169.351 223.908l-81.033 21.662c-12.034,-45.731 15.244,-91.462 60.174,-102.695 14.441,-4.011 28.882,-4.011 43.324,0l-22.465 81.033 0 0z"/>
   </g>
   <g>
    <polygon class="fil8" points="294.51,163.735 313.766,163.735 313.766,293.708 294.51,293.708 "/>
    <g>
    </g>
    <g style="clip-path:url(#id2)">
     <g>
      <rect class="fil2" transform="matrix(1.20418 -0.813906 0.644213 1.52138 247.576 178.885)" width="45.313" height="3.906"/>
      <rect class="fil2" transform="matrix(1.20418 -0.813906 0.644213 1.52138 254.287 194.733)" width="45.313" height="3.906"/>
      <rect class="fil2" transform="matrix(1.20418 -0.813906 0.644213 1.52138 260.997 210.581)" width="45.313" height="3.906"/>
      <rect class="fil2" transform="matrix(1.20418 -0.813906 0.644213 1.52138 267.708 226.429)" width="45.313" height="3.906"/>
      <rect class="fil2" transform="matrix(1.20418 -0.813906 0.644213 1.52138 274.418 242.277)" width="45.313" height="3.906"/>
      <rect class="fil2" transform="matrix(1.20418 -0.813906 0.644213 1.52138 281.129 258.124)" width="45.313" height="3.906"/>
      <rect class="fil2" transform="matrix(1.20418 -0.813906 0.644213 1.52138 287.84 273.972)" width="45.313" height="3.906"/>
      <rect class="fil2" transform="matrix(1.20418 -0.813906 0.644213 1.52138 294.551 289.82)" width="45.313" height="3.906"/>
      <rect class="fil2" transform="matrix(1.20418 -0.813906 0.644213 1.52138 301.261 305.667)" width="45.313" height="3.906"/>
     </g>
    </g>
    <polygon class="fil0" points="294.51,163.735 313.766,163.735 313.766,293.708 294.51,293.708 "/>
    <polygon class="fil0 str1" points="294.51,163.735 313.766,163.735 313.766,293.708 294.51,293.708 "/>
    <rect class="fil8" x="339.439" y="111.585" width="19.065" height="181.746"/>
    <rect class="fil2 str2" x="384.368" y="201.443" width="19.065" height="91.983"/>
   </g>
   <path class="fil8" d="M448.552 256c0,106.706 -85.846,193.355 -192.552,193.355 -106.707,0 -193.355,-86.649 -193.355,-193.355 1.605,25.674 363.443,34.499 385.907,0z"/>
   <g>
   </g>
   <g style="clip-path:url(#id3)">
    <g>
     <path id="_1_0" class="fil2" d="M256.677 449.355l-0.677 0c-106.707,0 -193.355,-86.649 -193.355,-193.355 1.605,25.674 361.838,34.499 385.907,0.802 0,101.09 -78.625,184.53 -178.111,191.75 -4.588,0.765 -9.176,0.801 -13.764,0.803z"/>
     <path id="_2" class="fil4" d="M129.577 272.687c4.349,11.356 -6.4,26.759 48.599,24.23 6.419,-0.802 7.221,8.825 28.081,10.43 18.453,1.605 7.221,20.86 1.605,28.081 -1.605,2.407 -8.826,32.894 0,32.894 20.057,0 50.545,8.825 50.545,32.092 0,3.209 7.221,40.115 7.221,40.115 4.869,3.787 7.992,6.233 10.232,7.545 2.252,-0.231 4.492,-0.499 6.721,-0.805 2.937,-3.109 7.274,-9.64 19.953,-17.972 14.441,-10.43 16.046,-32.894 32.894,-43.325 17.651,-11.232 -10.43,-18.452 6.418,-32.091 0,0 13.64,-26.477 -20.057,-13.64 -23.267,8.826 -29.685,-36.905 -48.138,-22.464 -20.058,14.442 -25.674,-10.43 -37.708,-9.627 -4.329,0 -45.621,-19.457 -53.325,-31.548 -5.132,-0.267 -10.179,-0.558 -15.133,-0.87 -4.59,3.021 -9.434,4.454 -13.062,-0.892 -8.705,-0.645 -17.015,-1.366 -24.846,-2.153z"/>
     <path class="fil4" d="M448.547 256.808l0.004 0.121c-0.012,19.296 -2.898,37.944 -8.237,55.544 -0.857,1.02 -1.84,1.314 -2.994,0.49 -3.209,-2.407 -3.209,-23.267 0.803,-25.674 5.616,-4.814 -7.221,-12.034 -7.221,-20.057 0,-0.454 -0.015,-0.875 -0.04,-1.271 8.994,-2.612 15.178,-5.65 17.685,-9.153z"/>
    </g>
   </g>
   <path class="fil0" d="M448.552 256c0,106.706 -85.846,193.355 -192.552,193.355 -106.707,0 -193.355,-86.649 -193.355,-193.355 1.605,25.674 363.443,34.499 385.907,0z"/>
   <path class="fil0" d="M448.552 256c0,106.706 -85.846,193.355 -192.552,193.355 -106.707,0 -193.355,-86.649 -193.355,-193.355 1.605,25.674 363.443,34.499 385.907,0z"/>
  </g>
 </g>
</svg>
