<?xml version="1.0" encoding="UTF-8"?>
<!DOCTYPE svg PUBLIC "-//W3C//DTD SVG 1.1//EN" "http://www.w3.org/Graphics/SVG/1.1/DTD/svg11.dtd">
<!-- Creator: CorelDRAW 2019 (64-Bit) -->
<svg xmlns="http://www.w3.org/2000/svg" xml:space="preserve" width="512px" height="512px" version="1.1" style="shape-rendering:geometricPrecision; text-rendering:geometricPrecision; image-rendering:optimizeQuality; fill-rule:evenodd; clip-rule:evenodd"
viewBox="0 0 512 511.999"
 xmlns:xlink="http://www.w3.org/1999/xlink">
 <defs>
  <style type="text/css">
   <![CDATA[
    .str0 {stroke:#999999;stroke-width:0.567;stroke-miterlimit:22.9256}
    .fil0 {fill:none}
    .fil2 {fill:#293445}
    .fil1 {fill:white}
   ]]>
  </style>
 </defs>
 <g id="Layer_x0020_1">
  <metadata id="CorelCorpID_0Corel-Layer"/>
  <rect class="fil0" width="511.999" height="511.999"/>
  <rect class="fil0" width="511.999" height="511.999"/>
  <circle class="fil1 str0" cx="256" cy="256" r="236.074"/>
  <g id="_1999902348080">
   <path class="fil2" d="M54.395 252.856c0,19.467 3.597,29.786 15.069,43.984 1.466,1.81 1.761,2.502 3.602,4.272 1.421,1.363 2.36,1.913 3.915,3.178 1.868,1.514 2.364,1.966 4.495,3.378 18.162,12.003 39.756,15.038 59.804,6.091 40.958,-18.273 50.025,-67.713 23.176,-98.522 -1.39,-1.591 -2.02,-2.909 -3.629,-4.245 -17.348,-14.391 -34.496,-21.152 -57.43,-16.218 -8.143,1.752 -14.422,4.594 -20.973,8.946 -6.744,4.478 -11.163,8.576 -15.901,14.811 -6.328,8.325 -12.128,22.416 -12.128,34.325zm13.5 3.129c0,-13.233 6.23,-26.233 15.007,-34.688 0.148,-0.139 0.366,-0.34 0.514,-0.478 33.352,-31.171 81.889,-3.24 81.889,30.196 0,18.672 -1.189,26.421 -15.154,40.511 -29.473,29.768 -82.256,6.315 -82.256,-35.541z"/>
   <path class="fil2" d="M335.624 138.712c0,9.324 5.038,8.371 12.692,15.984 1.782,1.772 2.986,2.347 4.8,4.161 1.738,1.739 2.223,2.825 3.859,4.505 8.025,8.242 7.162,12.987 16.286,12.987 4.301,0 7.767,-4.343 7.767,-8.961 0,-4.435 -4.141,-8.76 -6.384,-11.54 -1.642,-2.034 -2.642,-2.921 -4.193,-4.767 -5.426,-6.452 -18.643,-20.135 -27.06,-20.135 -3.664,0 -7.767,4.103 -7.767,7.766z"/>
   <path class="fil2" d="M130.904 344.626c0,7.328 18.277,24.818 24.571,29.793 4.285,3.389 6.971,6.649 13.065,6.649 4.857,0 7.767,-4.356 7.767,-10.156 0,-5.404 -7.647,-8.576 -12.691,-13.594 -1.806,-1.795 -3.038,-2.314 -4.804,-4.157 -5.759,-6.014 -12.717,-17.496 -17.752,-17.496 -5.477,0 -10.156,2.122 -10.156,8.961z"/>
   <path class="fil2" d="M130.904 167.388c0,6.839 4.679,8.961 10.156,8.961 5.504,0 8.637,-7.829 13.587,-12.699 1.89,-1.858 2.444,-2.999 4.165,-4.796l9.317 -8.008c6.006,-4.888 8.178,-4.725 8.178,-12.134 0,-3.671 -3.562,-7.766 -8.961,-7.766 -8.258,0 -36.442,28.214 -36.442,36.442z"/>
   <path class="fil2" d="M335.624 370.912c0,5.836 2.406,10.156 8.961,10.156 8.258,0 36.443,-28.214 36.443,-36.442 0,-6.839 -4.679,-8.961 -10.157,-8.961 -5.266,0 -11.677,11.413 -17.755,17.492 -5.932,5.933 -17.492,12.459 -17.492,17.755z"/>
   <path class="fil2" d="M332.273 252.914c0,19.467 3.598,29.786 15.07,43.984 1.465,1.81 1.761,2.502 3.602,4.272 1.421,1.363 2.359,1.913 3.915,3.178 1.868,1.515 2.363,1.966 4.495,3.378 18.162,12.004 39.756,15.038 59.804,6.091 40.957,-18.273 50.025,-67.713 23.175,-98.522 -1.389,-1.591 -2.02,-2.909 -3.628,-4.245 -17.349,-14.39 -34.496,-21.152 -57.431,-16.218 -8.142,1.752 -14.421,4.594 -20.972,8.947 -6.744,4.477 -11.164,8.575 -15.901,14.81 -6.328,8.325 -12.129,22.416 -12.129,34.325zm13.501 3.129c0,-13.233 6.23,-26.233 15.007,-34.688 0.147,-0.139 0.366,-0.34 0.514,-0.478 33.351,-31.171 81.889,-3.24 81.889,30.196 0,18.672 -1.189,26.421 -15.155,40.511 -29.472,29.768 -82.255,6.315 -82.255,-35.541z"/>
   <path class="fil2" d="M193.155 113.832c0,19.467 3.598,29.786 15.07,43.984 1.465,1.81 1.76,2.502 3.602,4.272 1.421,1.363 2.359,1.913 3.914,3.177 1.868,1.515 2.364,1.966 4.496,3.379 18.162,12.003 39.756,15.038 59.804,6.091 40.957,-18.273 50.025,-67.713 23.175,-98.522 -1.389,-1.591 -2.02,-2.91 -3.628,-4.246 -17.349,-14.39 -34.496,-21.151 -57.431,-16.218 -8.142,1.752 -14.421,4.595 -20.972,8.947 -6.744,4.478 -11.164,8.576 -15.901,14.81 -6.328,8.326 -12.129,22.416 -12.129,34.326zm13.501 3.128c0,-13.232 6.23,-26.232 15.007,-34.687 0.147,-0.139 0.366,-0.34 0.514,-0.479 33.351,-31.17 81.889,-3.24 81.889,30.197 0,18.671 -1.189,26.42 -15.155,40.511 -29.472,29.768 -82.255,6.315 -82.255,-35.542z"/>
   <path class="fil2" d="M193.392 391.769c0,19.467 3.598,29.785 15.069,43.983 1.466,1.81 1.761,2.503 3.602,4.273 1.422,1.363 2.36,1.912 3.915,3.177 1.868,1.515 2.364,1.966 4.496,3.379 18.162,12.003 39.756,15.037 59.803,6.091 40.958,-18.274 50.026,-67.714 23.176,-98.522 -1.389,-1.592 -2.02,-2.91 -3.629,-4.246 -17.348,-14.39 -34.495,-21.151 -57.43,-16.218 -8.142,1.752 -14.421,4.594 -20.973,8.947 -6.743,4.478 -11.163,8.576 -15.9,14.81 -6.328,8.326 -12.129,22.416 -12.129,34.326zm13.501 3.128c0,-13.232 6.23,-26.232 15.007,-34.688 0.147,-0.138 0.366,-0.339 0.513,-0.478 33.352,-31.171 81.889,-3.24 81.889,30.197 0,18.671 -1.189,26.42 -15.154,40.511 -29.473,29.767 -82.255,6.314 -82.255,-35.542z"/>
   <path class="fil2" d="M264.709 427.528c0.332,-0.495 0.781,-0.786 1.163,-1.263 2.699,-3.371 4.022,-5.089 5.707,-9.276 0.215,-0.533 0.448,-1.364 0.693,-1.876 2.227,0.185 7.578,2.867 8.134,2.997 -0.185,0.694 -2.424,2.541 -3.158,3.121 -3.522,2.786 -8.079,5.258 -12.539,6.297zm27.827 -34.151l0 2.028c-0.135,5.256 -1.309,10.494 -3.425,14.714 -2.689,5.36 -5.93,9.818 -10.804,13.455 -0.45,0.335 -0.774,0.583 -1.222,0.918 -4.929,3.688 -13.411,6.604 -19.796,6.604l-2.426 0c-4.775,0 -12.098,-1.91 -15.922,-4.199 -3.741,-2.239 -3.268,-1.886 -6.543,-4.445 -2.842,-2.221 -5.247,-5.348 -7.246,-8.309 -0.726,-1.075 -1.861,-3.081 -2.337,-4.227 -2.575,-6.203 -3.342,-9.552 -3.342,-16.493 0,-5.614 1.831,-11.292 3.783,-15.196 0.726,-1.452 1.969,-3.613 2.882,-4.824 1.8,-2.388 2.057,-2.759 4.073,-4.774 6.124,-6.125 15.444,-10.596 24.794,-10.596 10.01,0 17.048,2.546 24.525,8.582 1.591,1.284 3.167,2.932 4.488,4.502 1.297,1.544 2.662,3.445 3.659,5.189 0.692,1.209 1.725,3.151 2.202,4.504 0.212,0.605 0.376,0.961 0.599,1.542 1.286,3.346 1.958,7.155 2.058,11.025zm-61.076 24.733c0.469,-0.109 1.435,-0.574 1.902,-0.809 1.079,-0.546 5.329,-2.164 6.374,-2.188 0.082,0.979 0.942,2.662 1.304,3.548 0.725,1.775 2.589,4.678 3.812,6.177 0.754,0.924 1.669,1.741 2.305,2.69 -4.374,-1.019 -9.14,-3.594 -12.513,-6.324 -0.626,-0.506 -1.097,-0.907 -1.715,-1.424l-1.156 -1.127c-0.398,-0.453 -0.134,-0.202 -0.313,-0.543zm25.829 10.417l0 -15.554c5.808,0 11.334,1.402 12.415,1.427 -0.149,1.787 -3.189,7.132 -4.484,8.787 -0.935,1.194 -2.053,2.407 -3.261,3.303 -0.979,0.726 -3.095,2.037 -4.67,2.037zm-15.127 -14.127c1.359,-0.03 6.61,-1.427 12.558,-1.427l0 15.554c-2.774,0 -6.417,-3.076 -7.993,-5.278 -1.988,-2.778 -2.882,-4.523 -4.116,-7.585 -0.162,-0.4 -0.298,-0.927 -0.449,-1.264zm-3.139 -17.41l0 -1.141 15.697 0 0 14.555 -3.529 0.182c-0.977,0.132 -2.3,0.145 -3.387,0.323l-6.498 1.065c-0.266,-1.143 -0.578,-2.282 -0.858,-3.423 -0.708,-2.893 -1.425,-8.522 -1.425,-11.561zm43.381 19.265l-4.472 -1.95c-0.71,-0.32 -1.7,-0.654 -2.394,-0.888 -0.555,-0.187 -2.015,-0.685 -2.552,-0.73 0.632,-1.317 1.517,-6.184 1.774,-7.929 0.203,-1.387 0.473,-2.916 0.509,-4.343 0.022,-0.875 0.15,-1.281 0.143,-2.282 -0.006,-0.984 0.079,-1.523 0.142,-2.284l14.413 0c0,3.942 -1.218,8.812 -2.43,11.555 -1.455,3.293 -2.221,4.84 -4.399,7.73 -0.254,0.336 -0.624,0.707 -0.734,1.121zm-11.844 -4.281c-0.931,0 -2.27,-0.403 -3.158,-0.552 -1.11,-0.187 -2.054,-0.316 -3.219,-0.492l-5.185 -0.38c-0.819,0.004 -1.085,-0.132 -1.709,-0.146l0 -14.555 15.697 0 -0.222 4.344c-0.383,2.621 -1.153,9.59 -2.204,11.781zm-48.661 -16.125l14.555 0c0,3.926 0.552,9.403 1.484,13.071l0.942 3.767c-4.343,1.012 -8.585,3.44 -9.132,3.568 -0.608,-0.407 -2.495,-3.27 -2.953,-4.04 -2.784,-4.676 -4.896,-10.934 -4.896,-16.366zm35.39 -17.125c4.467,0 9.057,-0.587 13.271,-1.569 0.26,0.541 0.762,2.825 0.939,3.627 0.293,1.334 0.521,2.719 0.733,3.976 0.233,1.386 0.329,2.622 0.494,4.073l0.26 4.449 -15.697 0 0 -14.556zm-18.266 13.557c0,-3.358 0.644,-8.359 1.425,-11.56 0.232,-0.95 0.782,-2.648 0.858,-3.566 4.272,0.995 8.877,1.569 13.414,1.569l0 14.556 -15.697 0 0 -0.999zm34.105 -15.84c1.752,-0.039 7.201,-2.545 9.133,-3.567 0.468,0.698 0.943,1.289 1.449,1.975 0.504,0.683 0.978,1.427 1.414,2.155 2.673,4.468 4.843,10.492 4.843,16.276l-14.413 0c-0.173,-0.743 -0.147,-1.221 -0.142,-2.141 0.036,-5.541 -2.284,-14.044 -2.284,-14.698zm-36.674 16.268l0 0.571 -14.555 0c0,-0.772 0.16,-2.426 0.284,-3.14 0.175,-1.007 0.314,-2.13 0.543,-3.025 0.954,-3.739 2.042,-6.744 3.998,-9.987l2.881 -4.254c4.936,2.612 7.941,3.07 9.275,3.71 -0.781,3.352 -1.035,3.778 -1.671,7.605 -0.432,2.607 -0.755,5.569 -0.755,8.52zm20.835 -16.41l0 -15.698c1.162,0.559 1.473,-0.062 4.539,2.026 2.852,1.942 5.638,6.418 6.96,9.593 0.234,0.562 0.873,1.995 0.916,2.509 -0.391,0.187 -2.19,0.49 -2.816,0.609 -0.924,0.177 -2.042,0.296 -3.113,0.455 -1.901,0.281 -4.518,0.342 -6.486,0.506zm-2.569 -15.698l0 15.698c-0.579,-0.049 -0.779,-0.15 -1.567,-0.146 -0.525,0.002 -1.185,0.039 -1.694,-0.018 -2.211,-0.246 -4.03,-0.353 -6.362,-0.773 -0.628,-0.113 -2.56,-0.453 -2.935,-0.633 0.284,-1.218 1.418,-3.406 1.998,-4.567 0.371,-0.742 0.719,-1.414 1.17,-2.112 0.458,-0.709 0.87,-1.398 1.377,-2.047 1.305,-1.668 3.367,-3.718 5.402,-4.587 0.972,-0.416 1.52,-0.56 2.611,-0.815zm9.989 1.142c0.982,0.022 3.875,1.206 4.731,1.548 1.362,0.543 2.93,1.404 4.143,2.136 1.272,0.766 3.456,2.282 4.575,3.274l2.391 2.318c-0.428,0.1 -4.653,2.295 -8.277,3.139l-1.386 -3.609c-0.818,-1.91 -2.523,-4.532 -3.809,-6.179l-2.368 -2.627zm-17.552 0c-0.321,0.479 -0.767,0.795 -1.142,1.284 -0.34,0.445 -0.717,0.84 -1.109,1.318 -1.686,2.058 -4.974,7.461 -5.17,9.813 -1.885,-0.439 -3.612,-1.067 -5.34,-1.795l-2.936 -1.344c2.15,-3.212 11.854,-8.956 15.697,-9.276zm17.552 0l0 0zm-17.552 0l0 0z"/>
   <path class="fil2" d="M403.648 289.08c0.332,-0.495 0.781,-0.785 1.163,-1.263 2.699,-3.371 4.022,-5.089 5.708,-9.276 0.214,-0.533 0.447,-1.364 0.692,-1.876 2.228,0.186 7.579,2.868 8.134,2.997 -0.185,0.694 -2.424,2.541 -3.157,3.121 -3.522,2.786 -8.079,5.258 -12.54,6.297zm27.827 -34.151l0 2.029c-0.134,5.255 -1.308,10.493 -3.425,14.713 -2.689,5.361 -5.93,9.819 -10.804,13.455 -0.45,0.336 -0.774,0.584 -1.222,0.918 -4.928,3.688 -13.411,6.604 -19.796,6.604l-2.426 0c-4.775,0 -12.098,-1.909 -15.922,-4.199 -3.741,-2.239 -3.267,-1.886 -6.543,-4.445 -2.842,-2.221 -5.247,-5.348 -7.246,-8.309 -0.725,-1.075 -1.861,-3.081 -2.336,-4.227 -2.575,-6.203 -3.343,-9.552 -3.343,-16.493 0,-5.613 1.831,-11.292 3.783,-15.196 0.726,-1.451 1.97,-3.613 2.883,-4.824 1.8,-2.388 2.057,-2.758 4.072,-4.774 6.124,-6.124 15.444,-10.596 24.795,-10.596 10.01,0 17.047,2.546 24.524,8.582 1.591,1.284 3.168,2.932 4.488,4.502 1.297,1.544 2.662,3.446 3.659,5.189 0.692,1.21 1.726,3.151 2.202,4.505 0.213,0.604 0.376,0.96 0.599,1.541 1.286,3.347 1.959,7.156 2.058,11.025zm-61.076 24.733c0.469,-0.109 1.435,-0.573 1.902,-0.809 1.08,-0.545 5.329,-2.164 6.375,-2.188 0.081,0.979 0.942,2.662 1.304,3.548 0.725,1.775 2.588,4.679 3.812,6.177 0.754,0.924 1.668,1.741 2.304,2.69 -4.374,-1.019 -9.14,-3.594 -12.513,-6.323 -0.626,-0.507 -1.097,-0.908 -1.715,-1.424l-1.155 -1.128c-0.399,-0.452 -0.134,-0.201 -0.314,-0.543zm25.829 10.417l0 -15.554c5.809,0 11.334,1.403 12.415,1.427 -0.149,1.787 -3.188,7.132 -4.484,8.787 -0.935,1.194 -2.052,2.408 -3.261,3.304 -0.978,0.725 -3.094,2.036 -4.67,2.036zm-15.126 -14.127c1.358,-0.03 6.609,-1.427 12.557,-1.427l0 15.554c-2.774,0 -6.417,-3.075 -7.993,-5.278 -1.987,-2.778 -2.881,-4.523 -4.116,-7.585 -0.161,-0.4 -0.298,-0.927 -0.448,-1.264zm-3.14 -17.41l0 -1.141 15.697 0 0 14.555 -3.528 0.182c-0.978,0.132 -2.301,0.145 -3.387,0.323l-6.498 1.065c-0.267,-1.142 -0.579,-2.282 -0.859,-3.423 -0.707,-2.892 -1.425,-8.521 -1.425,-11.561zm43.381 19.265l-4.471 -1.95c-0.71,-0.32 -1.701,-0.654 -2.394,-0.888 -0.556,-0.187 -2.016,-0.685 -2.553,-0.729 0.632,-1.317 1.518,-6.185 1.774,-7.93 0.204,-1.387 0.474,-2.916 0.509,-4.343 0.022,-0.875 0.15,-1.281 0.144,-2.282 -0.007,-0.984 0.078,-1.523 0.142,-2.284l14.412 0c0,3.943 -1.217,8.812 -2.429,11.555 -1.455,3.294 -2.221,4.841 -4.4,7.73 -0.253,0.336 -0.623,0.707 -0.734,1.121zm-11.844 -4.281c-0.931,0 -2.27,-0.403 -3.158,-0.552 -1.11,-0.187 -2.053,-0.316 -3.219,-0.491l-5.185 -0.381c-0.819,0.004 -1.085,-0.132 -1.709,-0.146l0 -14.555 15.697 0 -0.222 4.345c-0.382,2.62 -1.153,9.589 -2.204,11.78zm-48.661 -16.125l14.556 0c0,3.926 0.551,9.403 1.483,13.072l0.943 3.767c-4.344,1.011 -8.585,3.439 -9.133,3.567 -0.608,-0.407 -2.494,-3.27 -2.953,-4.04 -2.784,-4.675 -4.896,-10.934 -4.896,-16.366zm35.39 -17.124c4.467,0 9.057,-0.588 13.271,-1.57 0.26,0.541 0.763,2.825 0.939,3.627 0.294,1.334 0.521,2.719 0.733,3.976 0.234,1.386 0.329,2.622 0.494,4.073l0.26 4.449 -15.697 0 0 -14.555zm-18.266 13.556c0,-3.357 0.644,-8.359 1.425,-11.56 0.233,-0.95 0.782,-2.648 0.859,-3.566 4.271,0.995 8.876,1.57 13.413,1.57l0 14.555 -15.697 0 0 -0.999zm34.106 -15.84c1.751,-0.038 7.2,-2.545 9.132,-3.567 0.468,0.698 0.944,1.289 1.45,1.976 0.504,0.682 0.977,1.426 1.413,2.154 2.673,4.468 4.843,10.492 4.843,16.276l-14.412 0c-0.174,-0.742 -0.148,-1.22 -0.142,-2.141 0.035,-5.541 -2.284,-14.043 -2.284,-14.698zm-36.674 16.269l0 0.57 -14.556 0c0,-0.772 0.161,-2.425 0.285,-3.14 0.174,-1.006 0.314,-2.13 0.542,-3.025 0.954,-3.739 2.043,-6.744 3.998,-9.987l2.881 -4.254c4.936,2.612 7.941,3.07 9.276,3.71 -0.781,3.352 -1.036,3.779 -1.671,7.605 -0.433,2.607 -0.755,5.569 -0.755,8.521zm20.834 -16.411l0 -15.697c1.163,0.558 1.474,-0.063 4.539,2.025 2.852,1.942 5.639,6.418 6.961,9.593 0.234,0.562 0.872,1.995 0.915,2.509 -0.39,0.187 -2.19,0.49 -2.815,0.61 -0.925,0.177 -2.043,0.295 -3.114,0.454 -1.901,0.281 -4.518,0.342 -6.486,0.506zm-2.569 -15.697l0 15.697c-0.579,-0.048 -0.779,-0.15 -1.566,-0.146 -0.526,0.002 -1.186,0.039 -1.695,-0.018 -2.211,-0.246 -4.029,-0.353 -6.362,-0.773 -0.628,-0.113 -2.559,-0.453 -2.934,-0.633 0.283,-1.218 1.417,-3.405 1.997,-4.566 0.371,-0.743 0.719,-1.415 1.17,-2.113 0.458,-0.709 0.87,-1.398 1.378,-2.047 1.304,-1.668 3.367,-3.717 5.401,-4.587 0.973,-0.416 1.521,-0.56 2.611,-0.814zm9.989 1.141c0.982,0.022 3.876,1.206 4.732,1.548 1.361,0.543 2.93,1.404 4.143,2.136 1.272,0.767 3.455,2.283 4.574,3.274l2.391 2.318c-0.428,0.1 -4.653,2.295 -8.277,3.139l-1.385 -3.608c-0.818,-1.911 -2.523,-4.533 -3.81,-6.18l-2.368 -2.627zm-17.552 0c-0.32,0.479 -0.767,0.795 -1.142,1.285 -0.34,0.444 -0.717,0.839 -1.108,1.317 -1.686,2.058 -4.974,7.461 -5.17,9.813 -1.886,-0.439 -3.613,-1.066 -5.34,-1.794l-2.937 -1.345c2.151,-3.212 11.854,-8.956 15.697,-9.276zm17.552 0l0 0zm-17.552 0l0 0z"/>
   <path class="fil2" d="M264.526 149.998c0.331,-0.495 0.78,-0.786 1.163,-1.263 2.699,-3.371 4.022,-5.089 5.707,-9.276 0.215,-0.533 0.448,-1.365 0.693,-1.876 2.227,0.185 7.578,2.867 8.134,2.997 -0.185,0.693 -2.424,2.54 -3.158,3.121 -3.522,2.786 -8.079,5.258 -12.539,6.297zm27.826 -34.151l0 2.028c-0.134,5.256 -1.308,10.494 -3.425,14.714 -2.688,5.36 -5.93,9.818 -10.803,13.455 -0.45,0.335 -0.775,0.583 -1.222,0.918 -4.929,3.688 -13.411,6.604 -19.797,6.604l-2.425 0c-4.775,0 -12.098,-1.91 -15.923,-4.199 -3.74,-2.239 -3.267,-1.886 -6.542,-4.445 -2.843,-2.221 -5.247,-5.349 -7.246,-8.309 -0.726,-1.076 -1.861,-3.081 -2.337,-4.227 -2.575,-6.203 -3.342,-9.552 -3.342,-16.493 0,-5.614 1.831,-11.292 3.783,-15.197 0.725,-1.451 1.969,-3.612 2.882,-4.823 1.8,-2.389 2.057,-2.759 4.073,-4.775 6.124,-6.124 15.443,-10.595 24.794,-10.595 10.01,0 17.047,2.546 24.525,8.582 1.59,1.284 3.167,2.932 4.487,4.502 1.298,1.543 2.662,3.445 3.659,5.189 0.692,1.209 1.726,3.151 2.202,4.504 0.213,0.605 0.377,0.96 0.6,1.542 1.285,3.346 1.958,7.155 2.057,11.025zm-61.075 24.733c0.469,-0.11 1.434,-0.574 1.902,-0.809 1.079,-0.546 5.328,-2.165 6.374,-2.188 0.081,0.979 0.942,2.662 1.304,3.548 0.725,1.775 2.588,4.678 3.812,6.177 0.754,0.923 1.669,1.74 2.305,2.69 -4.374,-1.019 -9.14,-3.594 -12.513,-6.324 -0.626,-0.506 -1.097,-0.907 -1.715,-1.424l-1.156 -1.128c-0.398,-0.452 -0.134,-0.201 -0.313,-0.542zm25.828 10.417l0 -15.554c5.809,0 11.335,1.403 12.415,1.427 -0.148,1.787 -3.188,7.132 -4.484,8.787 -0.934,1.194 -2.052,2.407 -3.26,3.303 -0.979,0.726 -3.095,2.037 -4.671,2.037zm-15.126 -14.127c1.359,-0.031 6.61,-1.427 12.558,-1.427l0 15.554c-2.774,0 -6.417,-3.076 -7.993,-5.278 -1.988,-2.778 -2.882,-4.523 -4.117,-7.585 -0.161,-0.401 -0.297,-0.928 -0.448,-1.264zm-3.139 -17.41l0 -1.141 15.697 0 0 14.555 -3.529 0.182c-0.978,0.132 -2.3,0.145 -3.387,0.323l-6.498 1.065c-0.266,-1.143 -0.579,-2.282 -0.858,-3.423 -0.708,-2.893 -1.425,-8.522 -1.425,-11.561zm43.381 19.265l-4.472 -1.951c-0.71,-0.319 -1.701,-0.653 -2.394,-0.887 -0.555,-0.188 -2.015,-0.685 -2.553,-0.73 0.632,-1.317 1.518,-6.184 1.775,-7.929 0.203,-1.387 0.473,-2.916 0.509,-4.343 0.021,-0.875 0.15,-1.281 0.143,-2.282 -0.006,-0.984 0.079,-1.523 0.142,-2.284l14.413 0c0,3.942 -1.218,8.812 -2.43,11.555 -1.455,3.293 -2.221,4.84 -4.399,7.729 -0.254,0.337 -0.624,0.707 -0.734,1.122zm-11.845 -4.281c-0.93,0 -2.27,-0.403 -3.157,-0.552 -1.11,-0.187 -2.054,-0.316 -3.219,-0.492l-5.185 -0.38c-0.82,0.004 -1.085,-0.132 -1.71,-0.146l0 -14.555 15.697 0 -0.221 4.344c-0.383,2.621 -1.153,9.59 -2.205,11.781zm-48.66 -16.125l14.555 0c0,3.926 0.551,9.402 1.484,13.071l0.942 3.767c-4.344,1.012 -8.585,3.44 -9.133,3.568 -0.607,-0.407 -2.494,-3.271 -2.952,-4.04 -2.784,-4.676 -4.896,-10.934 -4.896,-16.366zm35.389 -17.125c4.468,0 9.057,-0.587 13.271,-1.569 0.26,0.541 0.763,2.825 0.94,3.627 0.293,1.333 0.521,2.719 0.733,3.976 0.233,1.385 0.328,2.622 0.494,4.073l0.259 4.449 -15.697 0 0 -14.556zm-18.265 13.557c0,-3.358 0.643,-8.359 1.425,-11.561 0.232,-0.949 0.781,-2.647 0.858,-3.565 4.272,0.995 8.877,1.569 13.414,1.569l0 14.556 -15.697 0 0 -0.999zm34.105 -15.84c1.751,-0.039 7.201,-2.545 9.133,-3.567 0.468,0.698 0.943,1.289 1.449,1.975 0.504,0.683 0.978,1.426 1.414,2.155 2.673,4.468 4.843,10.492 4.843,16.276l-14.413 0c-0.173,-0.743 -0.148,-1.221 -0.142,-2.141 0.036,-5.541 -2.284,-14.044 -2.284,-14.698zm-36.674 16.268l0 0.571 -14.555 0c0,-0.772 0.16,-2.426 0.284,-3.14 0.174,-1.007 0.314,-2.13 0.543,-3.026 0.953,-3.739 2.042,-6.743 3.997,-9.986l2.881 -4.254c4.937,2.611 7.942,3.07 9.276,3.71 -0.781,3.351 -1.035,3.778 -1.671,7.605 -0.432,2.607 -0.755,5.568 -0.755,8.52zm20.834 -16.41l0 -15.698c1.163,0.558 1.474,-0.062 4.54,2.026 2.852,1.942 5.638,6.418 6.96,9.592 0.234,0.563 0.873,1.995 0.915,2.51 -0.39,0.187 -2.189,0.49 -2.815,0.609 -0.924,0.177 -2.043,0.296 -3.113,0.454 -1.901,0.282 -4.519,0.343 -6.487,0.507zm-2.568 -15.698l0 15.698c-0.579,-0.049 -0.779,-0.15 -1.567,-0.146 -0.525,0.002 -1.185,0.039 -1.694,-0.018 -2.212,-0.247 -4.03,-0.353 -6.362,-0.774 -0.629,-0.113 -2.56,-0.452 -2.935,-0.632 0.284,-1.218 1.418,-3.406 1.998,-4.567 0.371,-0.742 0.718,-1.414 1.169,-2.112 0.458,-0.709 0.871,-1.398 1.378,-2.047 1.305,-1.668 3.367,-3.718 5.402,-4.588 0.972,-0.415 1.52,-0.559 2.611,-0.814zm9.989 1.142c0.981,0.022 3.875,1.206 4.731,1.548 1.362,0.543 2.93,1.404 4.143,2.135 1.272,0.767 3.456,2.283 4.574,3.275l2.391 2.318c-0.428,0.1 -4.652,2.295 -8.276,3.139l-1.386 -3.609c-0.818,-1.91 -2.523,-4.532 -3.809,-6.179l-2.368 -2.627zm-17.552 0c-0.321,0.478 -0.767,0.795 -1.142,1.284 -0.34,0.445 -0.718,0.84 -1.109,1.317 -1.686,2.059 -4.974,7.462 -5.17,9.814 -1.885,-0.439 -3.612,-1.067 -5.34,-1.795l-2.936 -1.344c2.15,-3.212 11.853,-8.956 15.697,-9.276zm17.552 0l0 0zm-17.552 0l0 0z"/>
   <path class="fil2" d="M125.765 289.018c0.332,-0.495 0.781,-0.786 1.163,-1.263 2.699,-3.372 4.022,-5.09 5.707,-9.276 0.215,-0.533 0.448,-1.365 0.693,-1.876 2.227,0.185 7.578,2.867 8.134,2.997 -0.185,0.693 -2.424,2.54 -3.158,3.12 -3.522,2.787 -8.079,5.259 -12.539,6.298zm27.827 -34.151l0 2.028c-0.135,5.256 -1.308,10.494 -3.425,14.713 -2.689,5.361 -5.93,9.819 -10.804,13.455 -0.45,0.336 -0.774,0.584 -1.222,0.919 -4.928,3.688 -13.411,6.603 -19.796,6.603l-2.426 0c-4.775,0 -12.098,-1.909 -15.922,-4.198 -3.741,-2.239 -3.268,-1.886 -6.543,-4.445 -2.842,-2.221 -5.247,-5.349 -7.246,-8.309 -0.726,-1.076 -1.861,-3.082 -2.337,-4.228 -2.575,-6.202 -3.342,-9.551 -3.342,-16.493 0,-5.613 1.831,-11.292 3.783,-15.196 0.726,-1.451 1.97,-3.612 2.882,-4.823 1.8,-2.389 2.058,-2.759 4.073,-4.775 6.124,-6.124 15.444,-10.595 24.795,-10.595 10.01,0 17.047,2.546 24.524,8.582 1.591,1.284 3.168,2.932 4.488,4.502 1.297,1.543 2.662,3.445 3.659,5.188 0.692,1.21 1.726,3.151 2.202,4.505 0.213,0.605 0.376,0.96 0.599,1.541 1.286,3.347 1.958,7.156 2.058,11.026zm-61.076 24.733c0.469,-0.11 1.435,-0.574 1.902,-0.81 1.08,-0.545 5.329,-2.164 6.375,-2.187 0.081,0.979 0.942,2.662 1.303,3.548 0.726,1.774 2.589,4.678 3.812,6.177 0.755,0.923 1.669,1.74 2.305,2.69 -4.374,-1.019 -9.14,-3.595 -12.513,-6.324 -0.626,-0.507 -1.097,-0.907 -1.715,-1.424l-1.156 -1.128c-0.398,-0.452 -0.134,-0.201 -0.313,-0.542zm25.829 10.417l0 -15.555c5.808,0 11.334,1.403 12.415,1.427 -0.149,1.788 -3.189,7.133 -4.484,8.788 -0.935,1.194 -2.052,2.407 -3.261,3.303 -0.979,0.726 -3.095,2.037 -4.67,2.037zm-15.127 -14.128c1.359,-0.03 6.61,-1.427 12.558,-1.427l0 15.555c-2.774,0 -6.417,-3.076 -7.993,-5.279 -1.987,-2.778 -2.882,-4.522 -4.116,-7.584 -0.162,-0.401 -0.298,-0.928 -0.449,-1.265zm-3.139 -17.409l0 -1.142 15.697 0 0 14.556 -3.528 0.181c-0.978,0.133 -2.301,0.146 -3.387,0.324l-6.499 1.064c-0.266,-1.142 -0.578,-2.282 -0.858,-3.423 -0.708,-2.892 -1.425,-8.521 -1.425,-11.56zm43.381 19.265l-4.471 -1.951c-0.711,-0.319 -1.701,-0.654 -2.395,-0.887 -0.555,-0.188 -2.015,-0.685 -2.552,-0.73 0.632,-1.317 1.518,-6.184 1.774,-7.929 0.204,-1.387 0.473,-2.916 0.509,-4.343 0.022,-0.875 0.15,-1.282 0.144,-2.283 -0.007,-0.984 0.078,-1.522 0.142,-2.284l14.412 0c0,3.943 -1.218,8.812 -2.429,11.555 -1.456,3.294 -2.222,4.841 -4.4,7.73 -0.253,0.337 -0.623,0.707 -0.734,1.122zm-11.844 -4.282c-0.931,0 -2.27,-0.403 -3.158,-0.552 -1.11,-0.186 -2.054,-0.316 -3.219,-0.491l-5.185 -0.38c-0.819,0.004 -1.085,-0.132 -1.709,-0.146l0 -14.556 15.697 0 -0.222 4.345c-0.382,2.621 -1.153,9.59 -2.204,11.78zm-48.661 -16.125l14.556 0c0,3.926 0.551,9.403 1.483,13.072l0.942 3.767c-4.343,1.012 -8.585,3.44 -9.132,3.568 -0.608,-0.408 -2.494,-3.271 -2.953,-4.04 -2.784,-4.676 -4.896,-10.935 -4.896,-16.367zm35.39 -17.124c4.467,0 9.057,-0.588 13.271,-1.569 0.26,0.541 0.763,2.825 0.939,3.627 0.294,1.333 0.521,2.719 0.733,3.976 0.234,1.385 0.329,2.621 0.494,4.072l0.26 4.45 -15.697 0 0 -14.556zm-18.266 13.557c0,-3.358 0.644,-8.359 1.425,-11.561 0.232,-0.95 0.782,-2.648 0.858,-3.565 4.272,0.995 8.877,1.569 13.414,1.569l0 14.556 -15.697 0 0 -0.999zm34.106 -15.84c1.751,-0.039 7.2,-2.545 9.132,-3.568 0.468,0.699 0.943,1.29 1.45,1.976 0.503,0.683 0.977,1.426 1.413,2.154 2.673,4.469 4.843,10.493 4.843,16.277l-14.412 0c-0.174,-0.743 -0.148,-1.221 -0.142,-2.142 0.035,-5.541 -2.284,-14.043 -2.284,-14.697zm-36.674 16.268l0 0.571 -14.556 0c0,-0.772 0.161,-2.426 0.285,-3.141 0.174,-1.006 0.314,-2.129 0.542,-3.025 0.954,-3.739 2.042,-6.743 3.998,-9.986l2.881 -4.255c4.936,2.612 7.941,3.07 9.275,3.711 -0.78,3.351 -1.035,3.778 -1.67,7.605 -0.433,2.606 -0.755,5.568 -0.755,8.52zm20.834 -16.411l0 -15.697c1.162,0.558 1.473,-0.062 4.539,2.025 2.852,1.943 5.638,6.418 6.961,9.593 0.234,0.563 0.872,1.995 0.915,2.51 -0.391,0.187 -2.19,0.489 -2.816,0.609 -0.924,0.177 -2.042,0.296 -3.113,0.454 -1.901,0.281 -4.518,0.342 -6.486,0.506zm-2.569 -15.697l0 15.697c-0.579,-0.048 -0.779,-0.149 -1.566,-0.146 -0.526,0.003 -1.186,0.04 -1.695,-0.017 -2.211,-0.247 -4.03,-0.354 -6.362,-0.774 -0.628,-0.113 -2.56,-0.452 -2.935,-0.632 0.284,-1.218 1.418,-3.406 1.998,-4.567 0.371,-0.743 0.719,-1.414 1.17,-2.113 0.458,-0.708 0.87,-1.397 1.378,-2.046 1.304,-1.668 3.366,-3.718 5.401,-4.588 0.972,-0.416 1.52,-0.56 2.611,-0.814zm9.989 1.142c0.982,0.022 3.875,1.206 4.731,1.547 1.362,0.543 2.93,1.405 4.144,2.136 1.271,0.767 3.455,2.283 4.574,3.275l2.391 2.317c-0.428,0.1 -4.653,2.296 -8.277,3.14l-1.385 -3.609c-0.819,-1.911 -2.523,-4.533 -3.81,-6.179l-2.368 -2.627zm-17.552 0c-0.32,0.478 -0.767,0.795 -1.142,1.284 -0.34,0.444 -0.717,0.839 -1.109,1.317 -1.685,2.059 -4.974,7.462 -5.169,9.814 -1.886,-0.44 -3.613,-1.067 -5.341,-1.795l-2.936 -1.345c2.15,-3.211 11.854,-8.955 15.697,-9.275zm17.552 0l0 0zm-17.552 0l0 0z"/>
  </g>
 </g>
</svg>
