<?xml version="1.0" encoding="UTF-8"?>
<!DOCTYPE svg PUBLIC "-//W3C//DTD SVG 1.1//EN" "http://www.w3.org/Graphics/SVG/1.1/DTD/svg11.dtd">
<!-- Creator: CorelDRAW 2019 (64-Bit) -->
<svg xmlns="http://www.w3.org/2000/svg" xml:space="preserve" width="513px" height="513px" version="1.1" style="shape-rendering:geometricPrecision; text-rendering:geometricPrecision; image-rendering:optimizeQuality; fill-rule:evenodd; clip-rule:evenodd"
viewBox="0 0 513 513"
 xmlns:xlink="http://www.w3.org/1999/xlink">
 <defs>
  <style type="text/css">
   <![CDATA[
    .str0 {stroke:#999999;stroke-width:0.567;stroke-miterlimit:22.9256}
    .fil0 {fill:none}
    .fil3 {fill:#293445}
    .fil2 {fill:white}
    .fil1 {fill:white}
   ]]>
  </style>
 </defs>
 <g id="Layer_x0020_1">
  <metadata id="CorelCorpID_0Corel-Layer"/>
  <rect class="fil0" x="0.283" y="0.284" width="512.433" height="512.433"/>
  <circle class="fil1" cx="256.5" cy="256.5" r="256.216"/>
  <rect class="fil0" x="0.284" y="0.284" width="512.433" height="512.433"/>
  <circle class="fil2 str0" cx="256.5" cy="256.5" r="236.274"/>
  <g id="_1825796559200">
   <path class="fil3" d="M84.773 253.823c0,16.581 3.065,25.371 12.836,37.465 1.249,1.541 1.5,2.131 3.069,3.639 1.21,1.161 2.009,1.629 3.334,2.706 1.591,1.29 2.014,1.675 3.83,2.878 15.47,10.224 33.863,12.809 50.94,5.188 34.887,-15.565 42.611,-57.678 19.741,-83.921 -1.184,-1.355 -1.721,-2.478 -3.091,-3.616 -14.777,-12.257 -29.383,-18.017 -48.919,-13.814 -6.936,1.492 -12.284,3.913 -17.865,7.621 -5.744,3.814 -9.508,7.305 -13.544,12.615 -5.39,7.092 -10.331,19.094 -10.331,29.239zm11.5 2.664c0,-11.271 5.307,-22.345 12.783,-29.547 0.126,-0.118 0.312,-0.289 0.438,-0.407 28.408,-26.551 69.752,-2.76 69.752,25.721 0,15.904 -1.012,22.505 -12.908,34.507 -25.105,25.356 -70.065,5.379 -70.065,-30.274z"/>
   <path class="fil3" d="M324.324 156.595c0,7.942 4.29,7.13 10.811,13.615 1.518,1.509 2.543,1.999 4.088,3.544 1.481,1.481 1.894,2.407 3.287,3.838 6.836,7.021 6.101,11.062 13.873,11.062 3.663,0 6.615,-3.7 6.615,-7.633 0,-3.778 -3.527,-7.462 -5.437,-9.829 -1.399,-1.733 -2.251,-2.489 -3.572,-4.061 -4.622,-5.497 -15.88,-17.152 -23.05,-17.152 -3.12,0 -6.615,3.495 -6.615,6.616z"/>
   <path class="fil3" d="M149.944 331.992c0,6.241 15.568,21.139 20.929,25.378 3.65,2.886 5.938,5.663 11.129,5.663 4.137,0 6.616,-3.711 6.616,-8.651 0,-4.603 -6.513,-7.305 -10.811,-11.579 -1.538,-1.529 -2.587,-1.971 -4.092,-3.542 -4.905,-5.122 -10.832,-14.902 -15.12,-14.902 -4.666,0 -8.651,1.807 -8.651,7.633z"/>
   <path class="fil3" d="M149.944 181.021c0,5.825 3.985,7.633 8.651,7.633 4.688,0 7.357,-6.669 11.573,-10.817 1.61,-1.583 2.082,-2.555 3.547,-4.086l7.937 -6.821c5.115,-4.163 6.966,-4.024 6.966,-10.335 0,-3.127 -3.034,-6.616 -7.633,-6.616 -7.034,0 -31.041,24.033 -31.041,31.042z"/>
   <path class="fil3" d="M324.324 354.382c0,4.971 2.049,8.651 7.633,8.651 7.034,0 31.041,-24.033 31.041,-31.041 0,-5.826 -3.985,-7.633 -8.651,-7.633 -4.486,0 -9.946,9.721 -15.124,14.899 -5.053,5.054 -14.899,10.613 -14.899,15.124z"/>
   <path class="fil3" d="M321.469 253.872c0,16.582 3.065,25.371 12.836,37.465 1.249,1.542 1.5,2.132 3.069,3.639 1.21,1.161 2.01,1.629 3.334,2.706 1.591,1.291 2.014,1.675 3.83,2.878 15.47,10.225 33.863,12.81 50.94,5.189 34.888,-15.565 42.611,-57.678 19.741,-83.921 -1.184,-1.355 -1.721,-2.478 -3.091,-3.616 -14.777,-12.258 -29.383,-18.017 -48.919,-13.815 -6.936,1.492 -12.284,3.914 -17.864,7.621 -5.745,3.814 -9.509,7.305 -13.544,12.616 -5.391,7.091 -10.332,19.093 -10.332,29.238zm11.5 2.665c0,-11.272 5.307,-22.345 12.783,-29.547 0.126,-0.118 0.312,-0.29 0.438,-0.408 28.409,-26.551 69.752,-2.759 69.752,25.722 0,15.904 -1.012,22.505 -12.908,34.507 -25.105,25.356 -70.065,5.379 -70.065,-30.274z"/>
   <path class="fil3" d="M202.969 135.402c0,16.582 3.065,25.371 12.836,37.465 1.249,1.542 1.5,2.132 3.068,3.639 1.211,1.161 2.01,1.629 3.335,2.707 1.591,1.29 2.014,1.674 3.829,2.877 15.47,10.225 33.864,12.81 50.94,5.189 34.888,-15.565 42.612,-57.678 19.742,-83.921 -1.184,-1.355 -1.721,-2.478 -3.091,-3.616 -14.778,-12.258 -29.383,-18.017 -48.919,-13.815 -6.936,1.493 -12.284,3.914 -17.865,7.621 -5.744,3.814 -9.509,7.305 -13.544,12.615 -5.39,7.092 -10.331,19.095 -10.331,29.239zm11.5 2.665c0,-11.272 5.306,-22.345 12.783,-29.547 0.125,-0.118 0.312,-0.289 0.437,-0.407 28.409,-26.552 69.753,-2.76 69.753,25.721 0,15.904 -1.013,22.505 -12.908,34.507 -25.105,25.356 -70.065,5.379 -70.065,-30.274z"/>
   <path class="fil3" d="M203.171 372.148c0,16.581 3.064,25.371 12.836,37.465 1.248,1.541 1.5,2.131 3.068,3.639 1.21,1.161 2.01,1.629 3.335,2.706 1.591,1.291 2.013,1.675 3.829,2.878 15.47,10.225 33.864,12.81 50.94,5.188 34.888,-15.565 42.612,-57.677 19.741,-83.92 -1.183,-1.356 -1.72,-2.479 -3.09,-3.617 -14.778,-12.257 -29.384,-18.016 -48.919,-13.814 -6.936,1.492 -12.284,3.913 -17.865,7.621 -5.744,3.814 -9.509,7.305 -13.544,12.615 -5.39,7.092 -10.331,19.094 -10.331,29.239zm11.5 2.665c0,-11.272 5.306,-22.346 12.782,-29.548 0.126,-0.118 0.313,-0.289 0.438,-0.407 28.409,-26.551 69.753,-2.76 69.753,25.721 0,15.905 -1.013,22.505 -12.909,34.508 -25.104,25.356 -70.064,5.378 -70.064,-30.274z"/>
   <path class="fil3" d="M263.918 402.607c0.283,-0.421 0.665,-0.669 0.991,-1.075 2.299,-2.872 3.426,-4.336 4.861,-7.902 0.183,-0.454 0.382,-1.162 0.591,-1.597 1.897,0.157 6.454,2.442 6.928,2.552 -0.158,0.591 -2.065,2.164 -2.69,2.658 -3,2.374 -6.881,4.479 -10.681,5.364zm23.703 -29.089l0 1.727c-0.114,4.477 -1.114,8.939 -2.917,12.533 -2.291,4.566 -5.051,8.363 -9.203,11.461 -0.383,0.286 -0.66,0.497 -1.041,0.782 -4.198,3.142 -11.423,5.625 -16.862,5.625l-2.067 0c-4.067,0 -10.305,-1.626 -13.562,-3.576 -3.186,-1.907 -2.783,-1.607 -5.573,-3.787 -2.421,-1.891 -4.47,-4.555 -6.172,-7.077 -0.619,-0.916 -1.586,-2.625 -1.991,-3.601 -2.193,-5.283 -2.847,-8.136 -2.847,-14.048 0,-4.782 1.56,-9.619 3.223,-12.944 0.618,-1.237 1.677,-3.078 2.455,-4.109 1.533,-2.035 1.752,-2.35 3.469,-4.067 5.217,-5.217 13.155,-9.025 21.12,-9.025 8.526,0 14.52,2.169 20.89,7.31 1.355,1.093 2.698,2.497 3.822,3.835 1.106,1.314 2.268,2.934 3.117,4.419 0.589,1.031 1.47,2.684 1.876,3.838 0.181,0.514 0.32,0.817 0.51,1.312 1.095,2.851 1.668,6.095 1.753,9.392zm-52.024 21.067c0.399,-0.093 1.222,-0.489 1.62,-0.689 0.92,-0.465 4.539,-1.844 5.43,-1.863 0.069,0.833 0.802,2.267 1.11,3.021 0.618,1.512 2.205,3.985 3.247,5.262 0.643,0.787 1.422,1.482 1.963,2.291 -3.726,-0.868 -7.785,-3.061 -10.658,-5.386 -0.533,-0.432 -0.935,-0.773 -1.461,-1.213l-0.984 -0.961c-0.339,-0.385 -0.114,-0.171 -0.267,-0.462zm22.001 8.873l0 -13.249c4.947,0 9.654,1.195 10.575,1.216 -0.127,1.522 -2.716,6.075 -3.82,7.485 -0.796,1.017 -1.748,2.05 -2.777,2.813 -0.834,0.618 -2.636,1.735 -3.978,1.735zm-12.885 -12.033c1.157,-0.026 5.63,-1.216 10.697,-1.216l0 13.249c-2.363,0 -5.466,-2.62 -6.809,-4.496 -1.693,-2.366 -2.454,-3.852 -3.506,-6.461 -0.138,-0.341 -0.254,-0.789 -0.382,-1.076zm-2.674 -14.83l0 -0.972 13.371 0 0 12.398 -3.006 0.155c-0.833,0.112 -1.96,0.124 -2.885,0.275l-5.535 0.907c-0.227,-0.973 -0.493,-1.944 -0.731,-2.916 -0.603,-2.463 -1.214,-7.258 -1.214,-9.847zm36.952 16.41l-3.809 -1.661c-0.605,-0.272 -1.449,-0.557 -2.039,-0.757 -0.474,-0.159 -1.717,-0.583 -2.175,-0.621 0.539,-1.122 1.293,-5.268 1.512,-6.754 0.173,-1.181 0.403,-2.484 0.433,-3.7 0.019,-0.745 0.128,-1.091 0.122,-1.944 -0.005,-0.838 0.067,-1.297 0.121,-1.945l12.277 0c0,3.358 -1.037,7.506 -2.07,9.842 -1.239,2.806 -1.892,4.124 -3.747,6.585 -0.216,0.286 -0.531,0.602 -0.625,0.955zm-10.089 -3.647c-0.793,0 -1.934,-0.343 -2.69,-0.47 -0.946,-0.159 -1.749,-0.269 -2.742,-0.418l-4.417 -0.324c-0.697,0.003 -0.923,-0.113 -1.455,-0.125l0 -12.398 13.37 0 -0.189 3.7c-0.325,2.233 -0.982,8.169 -1.877,10.035zm-41.449 -13.735l12.398 0c0,3.344 0.47,8.009 1.264,11.134l0.802 3.209c-3.699,0.862 -7.312,2.93 -7.779,3.039 -0.517,-0.347 -2.124,-2.786 -2.515,-3.442 -2.371,-3.982 -4.17,-9.313 -4.17,-13.94zm30.145 -14.587c3.805,0 7.714,-0.5 11.304,-1.336 0.221,0.461 0.65,2.406 0.8,3.089 0.25,1.136 0.444,2.316 0.624,3.387 0.199,1.18 0.28,2.233 0.421,3.469l0.221 3.79 -13.37 0 0 -12.399zm-15.559 11.548c0,-2.86 0.548,-7.12 1.214,-9.847 0.198,-0.809 0.666,-2.255 0.731,-3.037 3.639,0.847 7.561,1.336 11.426,1.336l0 12.399 -13.371 0 0 -0.851zm29.051 -13.492c1.492,-0.034 6.133,-2.168 7.779,-3.039 0.399,0.595 0.803,1.098 1.235,1.683 0.429,0.581 0.832,1.215 1.203,1.835 2.278,3.806 4.126,8.937 4.126,13.864l-12.277 0c-0.147,-0.633 -0.125,-1.04 -0.121,-1.824 0.03,-4.72 -1.945,-11.962 -1.945,-12.519zm-31.239 13.857l0 0.486 -12.398 0c0,-0.658 0.136,-2.066 0.242,-2.675 0.148,-0.857 0.267,-1.814 0.462,-2.577 0.813,-3.185 1.74,-5.744 3.405,-8.506l2.454 -3.624c4.205,2.225 6.765,2.615 7.901,3.16 -0.665,2.855 -0.881,3.219 -1.423,6.478 -0.368,2.22 -0.643,4.743 -0.643,7.258zm17.747 -13.979l0 -13.37c0.99,0.475 1.255,-0.054 3.866,1.724 2.43,1.655 4.803,5.467 5.929,8.172 0.2,0.479 0.743,1.699 0.78,2.137 -0.333,0.16 -1.865,0.417 -2.398,0.519 -0.788,0.151 -1.74,0.252 -2.652,0.387 -1.62,0.24 -3.849,0.292 -5.525,0.431zm-2.188 -13.37l0 13.37c-0.493,-0.041 -0.664,-0.127 -1.335,-0.124 -0.447,0.002 -1.01,0.033 -1.443,-0.015 -1.884,-0.21 -3.433,-0.301 -5.419,-0.659 -0.535,-0.096 -2.18,-0.385 -2.5,-0.539 0.242,-1.037 1.208,-2.901 1.702,-3.889 0.316,-0.633 0.612,-1.205 0.996,-1.8 0.39,-0.604 0.741,-1.191 1.174,-1.744 1.111,-1.42 2.867,-3.166 4.601,-3.907 0.828,-0.354 1.295,-0.477 2.224,-0.693zm8.508 0.972c0.836,0.019 3.301,1.027 4.03,1.318 1.16,0.463 2.496,1.196 3.529,1.819 1.084,0.654 2.944,1.945 3.897,2.79l2.036 1.974c-0.364,0.085 -3.963,1.955 -7.049,2.674l-1.181 -3.074c-0.697,-1.628 -2.149,-3.861 -3.245,-5.264l-2.017 -2.237zm-14.951 0c-0.273,0.407 -0.653,0.677 -0.972,1.094 -0.29,0.378 -0.611,0.715 -0.945,1.122 -1.436,1.753 -4.236,6.355 -4.403,8.359 -1.606,-0.374 -3.077,-0.909 -4.549,-1.529l-2.501 -1.145c1.832,-2.736 10.097,-7.629 13.37,-7.901zm14.951 0l0 0zm-14.951 0l0 0z"/>
   <path class="fil3" d="M382.266 284.678c0.283,-0.422 0.665,-0.669 0.991,-1.076 2.299,-2.872 3.426,-4.335 4.862,-7.901 0.182,-0.454 0.381,-1.162 0.59,-1.598 1.897,0.158 6.455,2.442 6.928,2.553 -0.158,0.59 -2.065,2.164 -2.69,2.658 -3,2.373 -6.881,4.479 -10.681,5.364zm23.703 -29.09l0 1.728c-0.114,4.477 -1.114,8.938 -2.917,12.533 -2.29,4.566 -5.051,8.363 -9.203,11.461 -0.383,0.285 -0.66,0.497 -1.041,0.782 -4.198,3.141 -11.423,5.625 -16.862,5.625l-2.067 0c-4.067,0 -10.305,-1.626 -13.562,-3.577 -3.186,-1.907 -2.783,-1.606 -5.573,-3.786 -2.421,-1.892 -4.47,-4.556 -6.172,-7.077 -0.619,-0.917 -1.585,-2.625 -1.991,-3.601 -2.193,-5.284 -2.847,-8.136 -2.847,-14.049 0,-4.782 1.56,-9.618 3.223,-12.944 0.618,-1.236 1.677,-3.077 2.455,-4.109 1.533,-2.034 1.752,-2.349 3.469,-4.066 5.217,-5.217 13.155,-9.026 21.12,-9.026 8.526,0 14.521,2.169 20.89,7.31 1.355,1.094 2.698,2.498 3.822,3.835 1.106,1.315 2.268,2.935 3.117,4.42 0.59,1.03 1.47,2.684 1.876,3.837 0.181,0.515 0.32,0.818 0.51,1.313 1.096,2.851 1.668,6.095 1.753,9.391zm-52.024 21.068c0.399,-0.094 1.222,-0.489 1.62,-0.69 0.92,-0.464 4.539,-1.843 5.43,-1.863 0.069,0.834 0.802,2.267 1.11,3.022 0.618,1.512 2.205,3.985 3.247,5.262 0.643,0.786 1.422,1.482 1.963,2.291 -3.725,-0.868 -7.785,-3.062 -10.658,-5.386 -0.533,-0.432 -0.934,-0.773 -1.461,-1.214l-0.984 -0.96c-0.339,-0.385 -0.114,-0.171 -0.267,-0.462zm22.001 8.873l0 -13.249c4.947,0 9.654,1.195 10.575,1.215 -0.127,1.523 -2.716,6.075 -3.82,7.485 -0.796,1.017 -1.748,2.051 -2.777,2.814 -0.834,0.618 -2.636,1.735 -3.978,1.735zm-12.885 -12.034c1.157,-0.026 5.63,-1.215 10.697,-1.215l0 13.249c-2.363,0 -5.466,-2.62 -6.809,-4.496 -1.693,-2.367 -2.454,-3.853 -3.506,-6.461 -0.137,-0.341 -0.254,-0.79 -0.382,-1.077zm-2.674 -14.829l0 -0.972 13.371 0 0 12.398 -3.006 0.154c-0.833,0.113 -1.959,0.124 -2.885,0.276l-5.535 0.907c-0.227,-0.973 -0.493,-1.944 -0.731,-2.916 -0.603,-2.464 -1.214,-7.258 -1.214,-9.847zm36.952 16.41l-3.809 -1.662c-0.605,-0.272 -1.449,-0.557 -2.039,-0.756 -0.473,-0.159 -1.717,-0.583 -2.175,-0.622 0.539,-1.121 1.293,-5.267 1.512,-6.754 0.173,-1.181 0.403,-2.483 0.433,-3.699 0.019,-0.745 0.128,-1.091 0.123,-1.944 -0.006,-0.838 0.066,-1.297 0.12,-1.945l12.277 0c0,3.358 -1.037,7.506 -2.069,9.842 -1.24,2.805 -1.892,4.123 -3.748,6.584 -0.216,0.287 -0.531,0.603 -0.625,0.956zm-10.089 -3.647c-0.793,0 -1.934,-0.343 -2.69,-0.471 -0.945,-0.158 -1.749,-0.269 -2.742,-0.418l-4.417 -0.324c-0.697,0.003 -0.923,-0.112 -1.455,-0.124l0 -12.398 13.37 0 -0.189 3.7c-0.325,2.232 -0.982,8.169 -1.877,10.035zm-41.449 -13.735l12.398 0c0,3.344 0.47,8.009 1.264,11.134l0.802 3.208c-3.699,0.863 -7.312,2.931 -7.779,3.04 -0.517,-0.347 -2.124,-2.786 -2.515,-3.442 -2.371,-3.982 -4.17,-9.314 -4.17,-13.94zm30.145 -14.587c3.805,0 7.714,-0.501 11.304,-1.337 0.221,0.461 0.65,2.407 0.8,3.09 0.25,1.136 0.444,2.316 0.624,3.387 0.199,1.18 0.28,2.233 0.421,3.469l0.221 3.79 -13.37 0 0 -12.399zm-15.559 11.548c0,-2.861 0.548,-7.12 1.214,-9.848 0.198,-0.808 0.666,-2.255 0.731,-3.037 3.639,0.848 7.561,1.337 11.426,1.337l0 12.399 -13.371 0 0 -0.851zm29.051 -13.493c1.492,-0.033 6.133,-2.168 7.779,-3.038 0.399,0.594 0.803,1.098 1.235,1.682 0.429,0.582 0.833,1.215 1.204,1.835 2.277,3.807 4.125,8.938 4.125,13.865l-12.277 0c-0.147,-0.633 -0.125,-1.04 -0.12,-1.824 0.03,-4.72 -1.946,-11.962 -1.946,-12.52zm-31.239 13.857l0 0.487 -12.398 0c0,-0.658 0.137,-2.067 0.242,-2.675 0.149,-0.857 0.268,-1.815 0.462,-2.577 0.813,-3.185 1.74,-5.744 3.406,-8.507l2.453 -3.623c4.205,2.224 6.765,2.615 7.901,3.16 -0.665,2.855 -0.881,3.218 -1.423,6.478 -0.368,2.22 -0.643,4.743 -0.643,7.257zm17.747 -13.978l0 -13.371c0.99,0.475 1.255,-0.053 3.866,1.725 2.43,1.654 4.803,5.467 5.929,8.171 0.2,0.479 0.743,1.7 0.78,2.138 -0.332,0.159 -1.865,0.417 -2.398,0.519 -0.788,0.151 -1.74,0.252 -2.652,0.387 -1.62,0.239 -3.849,0.291 -5.525,0.431zm-2.188 -13.371l0 13.371c-0.493,-0.041 -0.664,-0.128 -1.335,-0.125 -0.447,0.003 -1.01,0.034 -1.443,-0.014 -1.884,-0.211 -3.433,-0.302 -5.419,-0.659 -0.535,-0.097 -2.18,-0.386 -2.5,-0.539 0.242,-1.038 1.208,-2.901 1.702,-3.89 0.316,-0.632 0.612,-1.205 0.996,-1.799 0.39,-0.604 0.741,-1.191 1.174,-1.744 1.111,-1.421 2.868,-3.167 4.601,-3.908 0.828,-0.354 1.295,-0.476 2.224,-0.693zm8.508 0.973c0.836,0.018 3.301,1.027 4.031,1.318 1.159,0.462 2.495,1.196 3.529,1.819 1.083,0.653 2.943,1.945 3.896,2.789l2.037 1.974c-0.365,0.086 -3.964,1.955 -7.05,2.675l-1.181 -3.074c-0.697,-1.628 -2.149,-3.861 -3.245,-5.264l-2.017 -2.237zm-14.951 0c-0.273,0.407 -0.653,0.677 -0.972,1.093 -0.29,0.379 -0.611,0.715 -0.945,1.122 -1.436,1.754 -4.236,6.356 -4.403,8.36 -1.606,-0.375 -3.077,-0.909 -4.549,-1.529l-2.501 -1.146c1.832,-2.735 10.097,-7.628 13.37,-7.9zm14.951 0l0 0zm-14.951 0l0 0z"/>
   <path class="fil3" d="M263.762 166.208c0.283,-0.422 0.665,-0.669 0.991,-1.076 2.299,-2.872 3.426,-4.335 4.861,-7.901 0.183,-0.454 0.382,-1.162 0.591,-1.598 1.897,0.158 6.454,2.442 6.928,2.553 -0.158,0.591 -2.065,2.164 -2.69,2.658 -3,2.374 -6.882,4.479 -10.681,5.364zm23.703 -29.09l0 1.728c-0.114,4.477 -1.115,8.938 -2.917,12.533 -2.291,4.566 -5.052,8.363 -9.203,11.461 -0.384,0.286 -0.66,0.497 -1.041,0.782 -4.198,3.141 -11.423,5.625 -16.862,5.625l-2.067 0c-4.067,0 -10.305,-1.626 -13.562,-3.577 -3.186,-1.907 -2.783,-1.606 -5.573,-3.786 -2.421,-1.892 -4.47,-4.556 -6.172,-7.077 -0.619,-0.917 -1.586,-2.625 -1.991,-3.601 -2.193,-5.283 -2.847,-8.136 -2.847,-14.049 0,-4.781 1.56,-9.618 3.223,-12.944 0.618,-1.236 1.677,-3.077 2.455,-4.109 1.533,-2.034 1.752,-2.349 3.469,-4.066 5.217,-5.217 13.155,-9.026 21.12,-9.026 8.526,0 14.52,2.169 20.89,7.311 1.354,1.093 2.698,2.497 3.822,3.834 1.105,1.315 2.268,2.935 3.117,4.42 0.589,1.03 1.47,2.684 1.876,3.837 0.181,0.515 0.32,0.818 0.51,1.313 1.095,2.851 1.668,6.095 1.753,9.391zm-52.024 21.068c0.399,-0.093 1.222,-0.489 1.62,-0.69 0.919,-0.464 4.539,-1.843 5.43,-1.863 0.069,0.834 0.802,2.268 1.11,3.022 0.618,1.512 2.205,3.985 3.247,5.262 0.643,0.786 1.422,1.482 1.963,2.291 -3.726,-0.868 -7.785,-3.062 -10.658,-5.386 -0.534,-0.432 -0.935,-0.773 -1.461,-1.213l-0.984 -0.961c-0.339,-0.385 -0.115,-0.171 -0.267,-0.462zm22.001 8.873l0 -13.249c4.947,0 9.654,1.195 10.575,1.215 -0.127,1.523 -2.716,6.076 -3.82,7.485 -0.796,1.017 -1.748,2.051 -2.777,2.814 -0.834,0.618 -2.636,1.735 -3.978,1.735zm-12.885 -12.034c1.157,-0.026 5.63,-1.215 10.697,-1.215l0 13.249c-2.363,0 -5.466,-2.62 -6.809,-4.496 -1.693,-2.366 -2.455,-3.852 -3.506,-6.461 -0.138,-0.341 -0.254,-0.79 -0.382,-1.077zm-2.674 -14.829l0 -0.972 13.371 0 0 12.398 -3.006 0.155c-0.833,0.113 -1.96,0.124 -2.885,0.275l-5.535 0.907c-0.227,-0.973 -0.493,-1.944 -0.731,-2.916 -0.603,-2.464 -1.214,-7.258 -1.214,-9.847zm36.952 16.41l-3.809 -1.662c-0.605,-0.272 -1.449,-0.556 -2.039,-0.756 -0.474,-0.159 -1.717,-0.583 -2.175,-0.621 0.538,-1.122 1.293,-5.268 1.512,-6.754 0.173,-1.182 0.403,-2.484 0.433,-3.7 0.019,-0.745 0.128,-1.091 0.122,-1.944 -0.005,-0.838 0.067,-1.297 0.121,-1.945l12.277 0c0,3.358 -1.037,7.506 -2.07,9.842 -1.239,2.806 -1.892,4.123 -3.747,6.585 -0.216,0.286 -0.531,0.602 -0.625,0.955zm-10.089 -3.647c-0.793,0 -1.934,-0.343 -2.69,-0.47 -0.946,-0.159 -1.749,-0.269 -2.742,-0.419l-4.417 -0.324c-0.697,0.004 -0.923,-0.112 -1.455,-0.124l0 -12.398 13.37 0 -0.189 3.7c-0.325,2.232 -0.982,8.169 -1.877,10.035zm-41.449 -13.735l12.398 0c0,3.344 0.47,8.009 1.264,11.134l0.802 3.209c-3.699,0.862 -7.312,2.93 -7.779,3.039 -0.517,-0.347 -2.124,-2.786 -2.515,-3.442 -2.371,-3.982 -4.17,-9.314 -4.17,-13.94zm30.145 -14.587c3.805,0 7.714,-0.501 11.304,-1.337 0.221,0.461 0.649,2.407 0.8,3.09 0.25,1.136 0.444,2.316 0.624,3.387 0.199,1.18 0.28,2.233 0.421,3.469l0.221 3.79 -13.37 0 0 -12.399zm-15.559 11.548c0,-2.86 0.548,-7.12 1.214,-9.847 0.197,-0.809 0.666,-2.256 0.731,-3.038 3.639,0.848 7.561,1.337 11.426,1.337l0 12.399 -13.371 0 0 -0.851zm29.051 -13.492c1.492,-0.034 6.133,-2.169 7.779,-3.039 0.398,0.594 0.803,1.098 1.235,1.683 0.429,0.581 0.832,1.214 1.203,1.835 2.278,3.806 4.126,8.937 4.126,13.864l-12.277 0c-0.147,-0.633 -0.125,-1.04 -0.121,-1.824 0.03,-4.72 -1.945,-11.962 -1.945,-12.519zm-31.239 13.856l0 0.487 -12.398 0c0,-0.658 0.136,-2.066 0.242,-2.675 0.148,-0.858 0.267,-1.814 0.462,-2.577 0.813,-3.185 1.74,-5.744 3.405,-8.507l2.454 -3.623c4.205,2.224 6.765,2.615 7.901,3.16 -0.665,2.855 -0.882,3.218 -1.423,6.478 -0.368,2.22 -0.643,4.743 -0.643,7.257zm17.747 -13.978l0 -13.371c0.99,0.475 1.255,-0.053 3.866,1.725 2.43,1.655 4.803,5.467 5.929,8.171 0.2,0.48 0.743,1.7 0.78,2.138 -0.333,0.16 -1.865,0.417 -2.398,0.519 -0.788,0.151 -1.74,0.252 -2.653,0.387 -1.619,0.239 -3.848,0.291 -5.524,0.431zm-2.188 -13.371l0 13.371c-0.493,-0.041 -0.664,-0.128 -1.335,-0.124 -0.447,0.002 -1.01,0.033 -1.443,-0.015 -1.884,-0.21 -3.433,-0.301 -5.419,-0.659 -0.535,-0.097 -2.18,-0.386 -2.5,-0.539 0.242,-1.037 1.208,-2.901 1.702,-3.89 0.316,-0.632 0.612,-1.205 0.996,-1.799 0.39,-0.604 0.741,-1.191 1.174,-1.744 1.111,-1.42 2.867,-3.167 4.601,-3.907 0.828,-0.354 1.295,-0.477 2.224,-0.694zm8.508 0.973c0.836,0.018 3.301,1.027 4.03,1.318 1.16,0.463 2.496,1.196 3.529,1.819 1.084,0.653 2.944,1.945 3.897,2.789l2.036 1.974c-0.364,0.086 -3.963,1.956 -7.049,2.675l-1.181 -3.074c-0.697,-1.628 -2.149,-3.861 -3.245,-5.264l-2.017 -2.237zm-14.951 0c-0.273,0.407 -0.653,0.677 -0.972,1.093 -0.29,0.379 -0.612,0.716 -0.945,1.123 -1.436,1.753 -4.236,6.355 -4.403,8.359 -1.606,-0.374 -3.077,-0.909 -4.549,-1.529l-2.501 -1.146c1.832,-2.735 10.097,-7.628 13.37,-7.9zm14.951 0l0 0zm-14.951 0l0 0z"/>
   <path class="fil3" d="M145.567 284.625c0.282,-0.422 0.665,-0.67 0.99,-1.076 2.299,-2.872 3.426,-4.335 4.862,-7.902 0.182,-0.454 0.381,-1.162 0.59,-1.597 1.897,0.158 6.454,2.442 6.928,2.552 -0.157,0.591 -2.065,2.164 -2.69,2.659 -3,2.373 -6.881,4.479 -10.68,5.364zm23.702 -29.09l0 1.728c-0.114,4.476 -1.114,8.938 -2.917,12.533 -2.29,4.565 -5.051,8.363 -9.203,11.46 -0.383,0.286 -0.66,0.497 -1.041,0.783 -4.198,3.141 -11.423,5.624 -16.862,5.624l-2.067 0c-4.067,0 -10.305,-1.626 -13.562,-3.576 -3.186,-1.907 -2.783,-1.606 -5.573,-3.786 -2.421,-1.892 -4.469,-4.556 -6.172,-7.078 -0.619,-0.916 -1.585,-2.624 -1.991,-3.6 -2.193,-5.284 -2.847,-8.137 -2.847,-14.049 0,-4.782 1.56,-9.619 3.223,-12.944 0.618,-1.236 1.678,-3.077 2.455,-4.109 1.533,-2.035 1.752,-2.35 3.469,-4.067 5.217,-5.216 13.155,-9.025 21.12,-9.025 8.526,0 14.521,2.169 20.89,7.31 1.355,1.094 2.698,2.497 3.822,3.835 1.106,1.314 2.268,2.935 3.117,4.42 0.59,1.03 1.47,2.684 1.876,3.837 0.181,0.515 0.32,0.817 0.51,1.313 1.096,2.85 1.668,6.095 1.753,9.391zm-52.024 21.067c0.399,-0.093 1.222,-0.488 1.62,-0.689 0.92,-0.464 4.539,-1.843 5.43,-1.863 0.069,0.833 0.802,2.267 1.11,3.022 0.618,1.512 2.205,3.985 3.247,5.261 0.643,0.787 1.422,1.483 1.964,2.292 -3.727,-0.868 -7.786,-3.062 -10.659,-5.387 -0.533,-0.431 -0.934,-0.773 -1.461,-1.213l-0.984 -0.96c-0.339,-0.386 -0.114,-0.172 -0.267,-0.463zm22.001 8.874l0 -13.249c4.947,0 9.654,1.194 10.575,1.215 -0.127,1.522 -2.716,6.075 -3.82,7.485 -0.796,1.017 -1.748,2.051 -2.777,2.814 -0.834,0.618 -2.636,1.735 -3.978,1.735zm-12.885 -12.034c1.157,-0.026 5.63,-1.215 10.697,-1.215l0 13.249c-2.363,0 -5.466,-2.62 -6.809,-4.497 -1.693,-2.366 -2.454,-3.852 -3.506,-6.46 -0.137,-0.341 -0.254,-0.79 -0.382,-1.077zm-2.674 -14.83l0 -0.972 13.371 0 0 12.399 -3.006 0.154c-0.833,0.113 -1.959,0.124 -2.885,0.276l-5.535 0.906c-0.227,-0.973 -0.493,-1.943 -0.731,-2.915 -0.603,-2.464 -1.214,-7.259 -1.214,-9.848zm36.952 16.41l-3.809 -1.661c-0.605,-0.272 -1.449,-0.557 -2.039,-0.756 -0.473,-0.16 -1.717,-0.584 -2.175,-0.622 0.539,-1.122 1.293,-5.267 1.512,-6.754 0.173,-1.181 0.403,-2.484 0.433,-3.699 0.019,-0.746 0.128,-1.092 0.123,-1.944 -0.006,-0.838 0.066,-1.297 0.12,-1.946l12.277 0c0,3.358 -1.037,7.506 -2.069,9.843 -1.24,2.805 -1.892,4.123 -3.748,6.584 -0.216,0.286 -0.531,0.602 -0.625,0.955zm-10.089 -3.647c-0.793,0 -1.934,-0.343 -2.69,-0.47 -0.945,-0.159 -1.749,-0.269 -2.742,-0.418l-4.417 -0.324c-0.697,0.003 -0.923,-0.113 -1.455,-0.124l0 -12.399 13.37 0 -0.189 3.701c-0.325,2.232 -0.982,8.169 -1.877,10.034zm-41.449 -13.735l12.398 0c0,3.344 0.47,8.009 1.264,11.134l0.802 3.209c-3.699,0.862 -7.312,2.931 -7.779,3.039 -0.517,-0.346 -2.124,-2.786 -2.515,-3.441 -2.371,-3.982 -4.17,-9.314 -4.17,-13.941zm30.145 -14.586c3.805,0 7.714,-0.501 11.304,-1.337 0.221,0.461 0.65,2.406 0.8,3.09 0.25,1.135 0.444,2.316 0.624,3.386 0.199,1.18 0.28,2.233 0.421,3.469l0.221 3.79 -13.37 0 0 -12.398zm-15.559 11.547c0,-2.86 0.548,-7.12 1.214,-9.847 0.198,-0.809 0.666,-2.255 0.731,-3.037 3.639,0.848 7.561,1.337 11.426,1.337l0 12.398 -13.371 0 0 -0.851zm29.051 -13.492c1.492,-0.033 6.133,-2.168 7.779,-3.039 0.399,0.595 0.803,1.099 1.235,1.683 0.429,0.582 0.833,1.215 1.204,1.835 2.277,3.806 4.125,8.937 4.125,13.864l-12.277 0c-0.147,-0.632 -0.125,-1.039 -0.12,-1.824 0.029,-4.719 -1.946,-11.962 -1.946,-12.519zm-31.239 13.857l0 0.486 -12.398 0c0,-0.657 0.137,-2.066 0.242,-2.675 0.149,-0.857 0.268,-1.814 0.462,-2.576 0.813,-3.186 1.74,-5.745 3.406,-8.507l2.454 -3.624c4.204,2.225 6.764,2.615 7.9,3.161 -0.665,2.855 -0.881,3.218 -1.422,6.478 -0.369,2.22 -0.644,4.743 -0.644,7.257zm17.747 -13.978l0 -13.371c0.99,0.475 1.255,-0.053 3.866,1.725 2.43,1.654 4.803,5.467 5.929,8.171 0.2,0.479 0.743,1.699 0.78,2.138 -0.332,0.159 -1.865,0.417 -2.398,0.519 -0.788,0.15 -1.74,0.252 -2.652,0.386 -1.619,0.24 -3.849,0.292 -5.525,0.432zm-2.188 -13.371l0 13.371c-0.493,-0.042 -0.664,-0.128 -1.335,-0.125 -0.447,0.002 -1.009,0.034 -1.443,-0.015 -1.883,-0.21 -3.433,-0.301 -5.419,-0.658 -0.535,-0.097 -2.18,-0.386 -2.5,-0.539 0.242,-1.038 1.208,-2.901 1.702,-3.89 0.316,-0.633 0.612,-1.205 0.996,-1.8 0.39,-0.604 0.741,-1.19 1.174,-1.743 1.111,-1.421 2.868,-3.167 4.601,-3.908 0.828,-0.354 1.295,-0.477 2.224,-0.693zm8.509 0.972c0.835,0.019 3.3,1.027 4.03,1.319 1.159,0.462 2.495,1.196 3.529,1.819 1.083,0.653 2.943,1.944 3.896,2.789l2.037 1.974c-0.365,0.085 -3.964,1.955 -7.05,2.674l-1.181 -3.074c-0.697,-1.627 -2.149,-3.86 -3.245,-5.263l-2.016 -2.238zm-14.951 0c-0.273,0.408 -0.654,0.678 -0.973,1.094 -0.29,0.379 -0.611,0.715 -0.945,1.122 -1.435,1.753 -4.236,6.356 -4.403,8.359 -1.606,-0.374 -3.077,-0.908 -4.549,-1.529l-2.501 -1.145c1.832,-2.735 10.097,-7.628 13.371,-7.901zm14.951 0l0 0zm-14.951 0l0 0z"/>
  </g>
 </g>
</svg>
