<?xml version="1.0" encoding="UTF-8"?>
<!DOCTYPE svg PUBLIC "-//W3C//DTD SVG 1.1//EN" "http://www.w3.org/Graphics/SVG/1.1/DTD/svg11.dtd">
<!-- Creator: CorelDRAW 2019 (64-Bit) -->
<svg xmlns="http://www.w3.org/2000/svg" xml:space="preserve" width="512px" height="512px" version="1.1" style="shape-rendering:geometricPrecision; text-rendering:geometricPrecision; image-rendering:optimizeQuality; fill-rule:evenodd; clip-rule:evenodd"
viewBox="0 0 512 511.999"
 xmlns:xlink="http://www.w3.org/1999/xlink">
 <defs>
  <style type="text/css">
   <![CDATA[
    .str1 {stroke:#293445;stroke-width:0.24;stroke-miterlimit:22.9256}
    .str0 {stroke:#999999;stroke-width:0.567;stroke-miterlimit:22.9256}
    .fil0 {fill:none}
    .fil2 {fill:#293445}
    .fil1 {fill:white}
   ]]>
  </style>
 </defs>
 <g id="Layer_x0020_1">
  <metadata id="CorelCorpID_0Corel-Layer"/>
  <rect class="fil0" width="511.999" height="511.999"/>
  <rect class="fil0" width="511.999" height="511.999"/>
  <circle class="fil1 str0" cx="256" cy="256" r="236.074"/>
  <g id="_1999774390768">
   <path class="fil2 str1" d="M153.593 392.403c8.353,-25.972 18.407,-52.728 27.263,-79.474 11.888,-35.912 37.251,-30.247 77.083,-30.249 68.601,0 67.596,-11.643 104.437,110.018l10.435 -3.041c-1.966,-14.46 -22.825,-72.117 -29.007,-87.845 -13.28,-33.783 -45.452,-30.861 -85.865,-30.867 -40.655,-0.006 -71.58,-2.682 -85.549,31.147 -6.407,15.517 -27.324,73.327 -29.14,87.421l10.343 2.89z"/>
   <path class="fil2 str1" d="M243.543 169.353c54.319,-20.839 79.321,61.133 29.475,79.229 -52.815,19.172 -82.789,-58.775 -29.475,-79.229zm-0.049 -12.272c-70.333,21.566 -38.461,122.818 29.515,103.934 24.91,-6.921 46.226,-34.938 37.121,-67.37 -6.791,-24.2 -34.692,-46.361 -66.636,-36.564z"/>
   <g>
    <path class="fil2" d="M376.719 125.758c4.074,8.024 17.241,19.279 25.568,38.92 13.961,32.931 15.182,70.607 0.257,103.83 -3.312,7.375 -7.12,14.561 -11.307,20.53 -5.567,7.932 -9.26,10.057 -13.354,18.382 3.15,3.672 2.757,3.274 6.615,6.236 50.516,-39.081 55.589,-143.983 0.525,-194.355l-8.304 6.457z"/>
    <path class="fil2" d="M354.976 147.867c14.365,25.511 41.199,53.565 19.401,107.214 -6.038,14.865 -14.013,19.924 -18.702,30.451 2.63,2.487 2.824,2.64 7.045,5.568 45.022,-35.808 36.356,-113.206 0.096,-149.874l-7.84 6.641z"/>
    <path class="fil2" d="M333.017 169.994c6.026,16.409 18.047,20.864 17.36,48.916 -0.82,33.373 -18.506,34.572 -15.468,47.23 11.448,4.909 6.078,5.013 12.661,-3.47 21.921,-28.257 17.925,-81.046 -8.775,-99.199l-5.778 6.523z"/>
   </g>
   <g>
    <path class="fil2" d="M127.501 313.783l8.356 -6.525c-18.188,-26.308 -36.191,-45.336 -36.561,-90.721 -0.442,-54.221 28.924,-77.295 35.568,-91.21 -3.872,-4.235 -2.085,-2.324 -6.898,-5.11 -17.495,5.171 -39.879,58.523 -40.335,93.81 -0.563,43.079 19.724,79.694 39.87,99.756z"/>
    <path class="fil2" d="M149.726 291.625l8.238 -6.324c-16.993,-27.67 -40.771,-56.446 -19.73,-107.22 6.107,-14.74 14.763,-20.561 18.575,-30.8 -2.475,-2.319 -2.417,-2.195 -6.142,-5.094 -17.423,5.192 -60.709,85.097 -0.941,149.438z"/>
    <path class="fil2" d="M172.251 269.429l8.226 -7.1c-8.775,-12.064 -18.208,-23.351 -18.26,-45.879 -0.084,-36.082 18.867,-35.963 15.37,-49.785 -6.852,-2.723 -8.518,-8.114 -19.75,16.441 -15.89,34.733 -5.764,60.798 14.414,86.323z"/>
   </g>
   <path class="fil2 str1" d="M312.94 381.512c3.901,12.554 4.253,10.481 14.717,8.281l-15.993 -50.152 -9.304 2.177 10.58 39.694z"/>
   <path class="fil2 str1" d="M196.821 391.826c2.624,-1.871 2.763,0.719 6.115,-10.314l10.574 -39.688 -10.112 -2.128 -14.376 50.094 7.799 2.036z"/>
  </g>
 </g>
</svg>
