<?xml version="1.0" encoding="UTF-8"?>
<!DOCTYPE svg PUBLIC "-//W3C//DTD SVG 1.1//EN" "http://www.w3.org/Graphics/SVG/1.1/DTD/svg11.dtd">
<!-- Creator: CorelDRAW 2019 (64-Bit) -->
<svg xmlns="http://www.w3.org/2000/svg" xml:space="preserve" width="513px" height="513px" version="1.1" style="shape-rendering:geometricPrecision; text-rendering:geometricPrecision; image-rendering:optimizeQuality; fill-rule:evenodd; clip-rule:evenodd"
viewBox="0 0 513 513"
 xmlns:xlink="http://www.w3.org/1999/xlink">
 <defs>
  <style type="text/css">
   <![CDATA[
    .str1 {stroke:#293445;stroke-width:0.24;stroke-miterlimit:22.9256}
    .str0 {stroke:#999999;stroke-width:0.567;stroke-miterlimit:22.9256}
    .fil0 {fill:none}
    .fil3 {fill:#293445}
    .fil2 {fill:white}
    .fil1 {fill:white}
   ]]>
  </style>
 </defs>
 <g id="Layer_x0020_1">
  <metadata id="CorelCorpID_0Corel-Layer"/>
  <rect class="fil0" x="0.283" y="0.284" width="512.433" height="512.433"/>
  <circle class="fil1" cx="256.5" cy="256.5" r="256.216"/>
  <rect class="fil0" x="0.284" y="0.284" width="512.433" height="512.433"/>
  <circle class="fil2 str0" cx="256.5" cy="256.5" r="236.274"/>
  <g id="_1825811001408">
   <path class="fil3 str1" d="M154.006 393.019c8.36,-25.995 18.423,-52.773 27.286,-79.542 11.898,-35.941 37.283,-30.272 77.149,-30.274 68.658,0 67.653,-11.652 104.525,110.111l10.444 -3.043c-1.968,-14.473 -22.845,-72.179 -29.032,-87.92 -13.29,-33.812 -45.49,-30.887 -85.937,-30.893 -40.69,-0.006 -71.641,-2.685 -85.622,31.173 -6.413,15.531 -27.347,73.39 -29.165,87.495l10.352 2.893z"/>
   <path class="fil3 str1" d="M244.032 169.78c54.365,-20.857 79.389,61.185 29.5,79.296 -52.859,19.189 -82.859,-58.824 -29.5,-79.296zm-0.049 -12.283c-70.392,21.585 -38.494,122.923 29.541,104.023 24.931,-6.927 46.264,-34.968 37.152,-67.428 -6.797,-24.22 -34.722,-46.4 -66.693,-36.595z"/>
   <g>
    <path class="fil3" d="M377.321 126.148c4.078,8.031 17.256,19.296 25.59,38.953 13.973,32.959 15.195,70.667 0.257,103.918 -3.315,7.381 -7.126,14.574 -11.317,20.547 -5.571,7.939 -9.268,10.066 -13.365,18.397 3.152,3.676 2.76,3.277 6.62,6.242 50.559,-39.114 55.637,-144.105 0.526,-194.519l-8.311 6.462z"/>
    <path class="fil3" d="M355.56 148.276c14.377,25.532 41.233,53.61 19.417,107.305 -6.043,14.877 -14.025,19.94 -18.718,30.477 2.633,2.488 2.827,2.641 7.052,5.572 45.059,-35.838 36.386,-113.302 0.095,-150.001l-7.846 6.647z"/>
    <path class="fil3" d="M333.582 170.421c6.031,16.423 18.062,20.883 17.374,48.958 -0.82,33.402 -18.521,34.601 -15.481,47.27 11.459,4.913 6.083,5.017 12.672,-3.473 21.94,-28.281 17.941,-81.114 -8.782,-99.283l-5.783 6.528z"/>
   </g>
   <g>
    <path class="fil3" d="M127.892 314.333l8.364 -6.532c-18.204,-26.329 -36.223,-45.374 -36.592,-90.797 -0.442,-54.267 28.948,-77.36 35.598,-91.287 -3.876,-4.239 -2.087,-2.326 -6.904,-5.115 -17.51,5.176 -39.913,58.573 -40.369,93.89 -0.564,43.115 19.741,79.762 39.903,99.841z"/>
    <path class="fil3" d="M150.136 292.156l8.245 -6.33c-17.007,-27.693 -40.806,-56.494 -19.747,-107.31 6.112,-14.753 14.776,-20.579 18.591,-30.827 -2.477,-2.32 -2.419,-2.196 -6.147,-5.098 -17.438,5.196 -60.76,85.169 -0.942,149.565z"/>
    <path class="fil3" d="M172.68 269.941l8.233 -7.106c-8.782,-12.074 -18.223,-23.371 -18.275,-45.918 -0.084,-36.112 18.882,-35.994 15.383,-49.828 -6.858,-2.725 -8.526,-8.121 -19.767,16.455 -15.903,34.763 -5.769,60.85 14.426,86.397z"/>
   </g>
   <path class="fil3 str1" d="M313.488 382.118c3.904,12.565 4.257,10.491 14.73,8.289l-16.007 -50.195 -9.311 2.179 10.588 39.727z"/>
   <path class="fil3 str1" d="M197.271 392.441c2.627,-1.873 2.765,0.72 6.12,-10.323l10.583 -39.721 -10.12 -2.13 -14.389 50.137 7.806 2.037z"/>
  </g>
 </g>
</svg>
