<?xml version="1.0" encoding="UTF-8"?>
<!DOCTYPE svg PUBLIC "-//W3C//DTD SVG 1.1//EN" "http://www.w3.org/Graphics/SVG/1.1/DTD/svg11.dtd">
<!-- Creator: CorelDRAW 2019 (64-Bit) -->
<svg xmlns="http://www.w3.org/2000/svg" xml:space="preserve" width="512px" height="512px" version="1.1" style="shape-rendering:geometricPrecision; text-rendering:geometricPrecision; image-rendering:optimizeQuality; fill-rule:evenodd; clip-rule:evenodd"
viewBox="0 0 512 512"
 xmlns:xlink="http://www.w3.org/1999/xlink">
 <defs>
  <style type="text/css">
   <![CDATA[
    .fil0 {fill:none}
    .fil1 {fill:#293445}
   ]]>
  </style>
 </defs>
 <g id="Layer_x0020_1">
  <metadata id="CorelCorpID_0Corel-Layer"/>
  <rect class="fil0" width="512" height="512"/>
  <path class="fil1" d="M312.167 466.679c-9.681,0 -16.723,-0.869 -24.142,-7.727 -16.273,-15.043 -10.364,-51.581 22.372,-51.581 14.593,0 28.328,13.613 28.328,28.327 0,8.882 -2.125,16.587 -8.259,22.722 -3.31,3.306 -12.126,8.259 -18.299,8.259zm-0.372 15.933l-8.242 0c-7.441,-0.703 -14.885,-3.381 -21.617,-8.716 -6.409,-5.078 -3.899,-2.586 -8.115,-7.818l-6.227 -9.708c-6.125,-12.739 -5.252,-28.841 1.199,-41.033 -3.977,-1.063 -20.367,-12.739 -25.297,-16.306l-37.554 -29.725c-3.885,2.604 -56.856,56.416 -61.742,61.3 -4.99,4.99 -9.669,11.72 -16.912,14.07l-48.628 13.336c-13.241,3.369 -24.803,9.475 -29.433,2.463 -3.058,-4.631 0.321,-12.107 2.118,-18.269l14.036 -51.471c3.083,-12.19 4.596,-11.604 12.428,-19.437 4.923,-4.922 61.806,-60.967 64.4,-64.842 -1.751,-3.309 -1.355,-2.431 -3.733,-5.118 -13.881,-15.683 -29.222,-37.782 -40.707,-54.895 -24.54,-36.567 -55.535,-103.052 -44.112,-148.037 2.472,-9.73 8.922,-23.669 16.208,-29.827 11.459,-9.677 24.687,-16.414 40.482,-17.055 4.697,-0.193 6.324,-1.108 10.585,-0.931 3.648,0.152 5.948,0.721 10.638,0.94 9.95,0.467 25.051,5.204 29.228,5.296 9.846,-18.609 21.966,-27.441 44.261,-27.441 30.077,0 54.663,35.019 38.063,66.39 6.202,3.282 11.155,6.865 16.822,10.62 12.624,8.36 27.692,20.146 39.219,29.825 3.07,2.577 4.55,3.1 6.808,6.471 6.42,-4.298 10.28,-14.163 20.36,-14.163 9.262,0 8.562,2.478 13.947,5.982l14.38 -13.95c-2.562,-4.838 -2.656,-2.837 -2.656,-7.966 0,-3.155 25.731,-54.413 28.327,-56.653 4.616,-3.986 48.146,-5.419 57.028,-6.706 30.612,-4.433 26.78,1.345 26.174,14.666 -0.309,6.839 -1.262,13.848 -1.83,21.185 -0.226,2.881 -0.6,7.712 -1.066,11.326 -4.378,33.97 2.838,32.149 -16.572,41.854 -8.373,4.187 -42.319,22.129 -46.917,22.129 -0.866,0 -5.362,-2.983 -5.98,-3.327l-14.378 13.949c1.818,2.715 4.525,4.637 5.817,8.372 4.594,13.294 -8.815,20.052 -12.9,26.152 1.941,2.897 5.697,6.668 8.093,9.612 2.737,3.359 5.263,6.56 7.843,9.862 14.418,18.457 22.941,30.983 35.587,51.161 22.41,35.75 62.534,123.998 22.632,164.628 -26.399,26.882 -60.502,20.989 -92.743,13.478 -3.087,13.256 -20.316,26.585 -39.322,28.327zm-244.828 -38.064c1.48,-6.349 11.399,-39.44 11.507,-44.26l32.971 32.536 -44.478 11.724zm59.308 -19.474l-14.378 -13.949 66.385 -66.824c1.223,0.891 14.811,13.7 15.269,14.383 -2.575,3.843 -49.9,50.338 -58.204,58.645 -2.743,2.745 -5.112,6.688 -9.072,7.745zm-25.451 -25.451l-14.598 -14.169 67.27 -67.709c4.308,6.327 10.106,10.202 13.499,15.268l-66.171 66.61zm161.772 -86.97l50.238 -50.674c4.245,2.963 25.78,32.762 29.787,38.81 3.345,5.047 5.703,8.857 8.879,14.137 7.844,13.043 27.621,49.681 27.942,64.118 -20.153,-1.678 -59.854,-24.561 -77.721,-36.471 -5.888,-3.924 -35.579,-24.624 -39.125,-29.92zm-12.177 -10.405l-7.972 -6.624c-2.71,-2.506 -5.327,-4.825 -7.292,-7.755l20.568 -21.04 15.054 14.626 -20.358 20.793zm-26.564 -25.68c-5.517,-3.764 -7.498,-7.528 -10.623,-11.037 -1.667,-1.871 -2.361,-2.148 -3.749,-4.219l20.577 -20.145 15.046 14.618 -21.251 20.783zm58.434 -6.188l-41.156 -40.718 85.864 -85.417 41.158 40.719 -85.866 85.416zm68.613 -124.814l15.061 -14.583 14.151 14.581c-1.578,2.46 -3.863,4.965 -6.467,7.267 -2.929,2.59 -5.442,4.522 -7.482,7.567l-15.263 -14.832zm-218.431 -13.493c39.879,9.29 73.399,32.616 104.842,56.263 4.779,3.597 8.1,6.918 12.89,10.125l-51.121 51.561 -20.322 -26.148c-13.752,-18.266 -45.718,-71.157 -46.289,-91.801zm192.09 118.616l33.42 -33.856c6.067,4.267 24.718,30.094 28.681,35.489 10.269,13.978 16.17,24.087 25.035,38.699 11.803,19.45 33.252,64.586 33.252,94.219 0,18.129 -0.067,32.407 -13.484,45.824 -15.154,15.155 -39.376,15.201 -59.999,11.726 -5.503,-0.929 -12.016,-3.154 -16.808,-3.554 0,-40.182 -41.571,-59.365 -70.299,-40.199 -8.516,5.679 -3.765,6.148 -24.949,-7.957l-17.563 -12.532c-5.992,-4.545 -11.016,-8.608 -16.704,-13.392 -2.937,-2.472 -5.389,-4.27 -8.316,-6.735l-50.457 -48.684c-27.759,-33.211 -44.304,-50.331 -68.15,-92.959 -13.06,-23.35 -31.253,-62.47 -31.253,-90.904 0,-16.637 1.22,-35.415 14.401,-46.675 18.245,-15.583 44.379,-14.431 67.574,-8.744 8.705,2.134 7.605,-0.475 8.709,8.111 4.445,34.568 38.523,48.67 63.341,37.573 8.675,-3.878 7.416,-4.635 12.391,-7.969 3.243,0.866 12.758,7.914 16.29,10.269 5.604,3.734 10.485,7.143 15.58,10.975 5.068,3.816 10.04,7.667 15.063,11.494l15.034 12.409 -33.852 34.309c-5.888,-3.753 -24.086,-19.247 -36.617,-27.577 -3.205,-2.13 -4.526,-3.272 -7.936,-5.342 -5.677,-3.448 -10.635,-7.194 -16.311,-10.243 -21.863,-11.749 -52.686,-29.212 -77.9,-29.212 -8.478,0 -7.967,7.556 -6.839,14.801 2.941,18.874 11.67,38.088 19.819,54.545 2.753,5.556 5.723,10.656 8.87,15.914 3.308,5.528 5.934,9.977 9.488,15.298 6.687,10.019 13.207,19.802 20.685,28.889l13.613 16.484c1.26,1.565 1.189,1.768 2.748,3.446 35.268,37.937 50.131,54.468 97.153,87.855 4.834,3.432 9.977,6.646 15.095,9.691 22.206,13.203 41.73,24.432 67.919,31.222 22.107,5.732 28.243,4.895 24.19,-15.337 -8.127,-40.562 -39.104,-88.086 -65.479,-120.416 -2.277,-2.791 -3.355,-3.847 -5.435,-6.955zm-120.389 -146.944c-30.886,0 -39.193,-33.606 -22.818,-50.261 18.847,-19.173 51.747,-6.508 51.79,21.056 0.024,15.395 -13.088,29.205 -28.972,29.205zm230.154 -38.063c-8.387,12.524 -32.884,24.948 -21.97,34.364 7.35,6.341 14.574,-4.395 18.651,-8.472 4.039,-4.04 11.652,-12.55 15.71,-15.272 -0.173,7.8 -3.074,27.189 -3.537,38.954 -0.234,6.027 -1.117,6.46 -5.581,8.582 -12.707,6.038 -25.624,12.416 -37.796,18.856l-30.77 -30.307 21.374 -42.995c6.269,-0.17 14.532,-1.45 21.72,-2.009 7.321,-0.566 13.774,-1.701 22.199,-1.701zm0 0l0 0z"/>
 </g>
</svg>
