<?xml version="1.0" encoding="UTF-8"?>
<!DOCTYPE svg PUBLIC "-//W3C//DTD SVG 1.1//EN" "http://www.w3.org/Graphics/SVG/1.1/DTD/svg11.dtd">
<!-- Creator: CorelDRAW 2019 (64-Bit) -->
<svg xmlns="http://www.w3.org/2000/svg" xml:space="preserve" width="512px" height="512px" version="1.1" style="shape-rendering:geometricPrecision; text-rendering:geometricPrecision; image-rendering:optimizeQuality; fill-rule:evenodd; clip-rule:evenodd"
viewBox="0 0 512 512"
 xmlns:xlink="http://www.w3.org/1999/xlink">
 <defs>
  <style type="text/css">
   <![CDATA[
    .str0 {stroke:#999999;stroke-width:0.567;stroke-miterlimit:22.9256}
    .fil0 {fill:none}
    .fil2 {fill:#293445}
    .fil1 {fill:white}
   ]]>
  </style>
 </defs>
 <g id="Layer_x0020_1">
  <metadata id="CorelCorpID_0Corel-Layer"/>
  <rect class="fil0" width="512" height="512"/>
  <rect class="fil0" width="512" height="512"/>
  <circle class="fil1 str0" cx="256" cy="256" r="236.074"/>
  <g id="_1998882545264">
   <line class="fil2" x1="288.148" y1="77.583" x2="288.148" y2= "77.583" />
   <path class="fil2" d="M375.182 366.481l-4.792 3.128c-4.593,2.416 -9.937,3.685 -15.876,3.138 -5.654,-0.518 -3.248,-0.022 -7.686,-1.463l-7.305 -3.28c-8.396,-5.081 -14.002,-14.773 -14.879,-24.31 -2.716,0.892 -16.676,0.325 -20.897,0.123l-33.115 -3.025c-1.27,2.988 -11.204,50.935 -12.625,59.074 -10.498,60.175 -73.921,51.767 -61.11,-9.276 0.994,-4.731 12.788,-58.906 12.825,-62.143 -2.274,-1.259 -1.711,-0.899 -4.113,-1.558 -14.023,-3.848 -31.33,-10.872 -44.503,-16.462 -28.147,-11.943 -71.404,-38.828 -81.84,-69.317 -2.256,-6.594 -3.798,-17.146 -1.9,-23.492 2.989,-9.976 8.121,-18.914 17.06,-25.282 2.658,-1.895 3.256,-3.045 5.801,-4.56 2.178,-1.297 3.731,-1.839 6.541,-3.492 5.962,-3.504 16.539,-6.484 19.002,-8.016 -1.34,-14.555 2.354,-24.291 15.315,-32.754 17.485,-11.418 45.072,-0.392 47.33,24.147 4.851,-0.446 9.091,-0.243 13.811,-0.211 10.512,0.067 23.746,1.2 34.122,2.451 2.763,0.333 3.822,0.075 6.414,1.178 2.101,-4.936 0.6,-12.137 6.46,-15.963 5.287,-3.453 5.898,-1.869 10.141,-1.818l39.831 8.847c0.689,0.287 1.376,0.655 2.05,1.177 7.717,5.985 2.487,15.004 2.428,20.101 2.228,0.947 5.843,1.714 8.353,2.516 2.867,0.914 5.55,1.815 8.304,2.756 15.388,5.257 25.098,9.304 40.109,16.234 26.599,12.277 83.425,48.349 75.65,87.116 -5.142,25.649 -27.205,35.169 -48.8,43.041 3.237,8.878 -1.719,23.167 -12.106,31.395zm-63.068 -263.438c2.151,3.592 1.802,4.179 0.013,7.107 -5.095,8.334 -10.184,16.945 -14.816,25.31l-29.392 -5.939 -3.896 -33.109c3.58,-2.478 7.899,-6.359 11.865,-9.413 25.744,-26.455 17.518,-15.223 36.226,16.044zm-143.318 84.035c-17.957,11.725 -35.542,-4.659 -32.345,-20.558 3.679,-18.3 27.612,-23.426 38.101,-7.418 5.858,8.941 3.478,21.947 -5.756,27.976zm200.553 169.998c-5.628,3.676 -10.051,5.844 -16.968,4.673 -15.171,-2.568 -25.606,-26.053 -6.574,-38.479 8.483,-5.54 21.636,-2.839 27.221,5.714 3.372,5.164 5.062,10.45 3.824,16.345 -0.669,3.179 -3.914,9.405 -7.503,11.747zm-106.694 -217.3l0.011 -0.045c-3.327,-1.84 -2.622,-0.641 -4.569,-3.623 -1.197,-1.834 -5.696,-41.401 -5.037,-43.688 1.17,-4.07 25.933,-21.427 30.608,-25.547 16.114,-14.198 16.079,-9.384 20.783,-1.41 2.417,4.094 4.523,8.529 6.978,13.011 0.963,1.761 2.579,4.711 3.68,6.989 10.35,21.411 13.853,17.613 6.254,30.623 -3.279,5.612 -16.202,28.929 -18.876,30.674 -0.503,0.329 -4.249,0.302 -4.739,0.337l0 0 -35.093 -7.321zm0.3 184.048l-39.229 -8.22 31.849 -151.605 39.384 8.049 -32.004 151.776zm-50.903 -6.724c18.198,5.055 42.265,9.656 60.776,13.232 9.995,-47.944 18.657,-88.373 28.313,-135.895 5.147,0.177 25.794,8.112 30.145,9.744 11.276,4.228 18.545,7.865 29.246,12.994 14.244,6.827 43.848,24.925 55.097,42.152 6.882,10.54 12.262,18.866 9.555,31.759 -3.057,14.563 -17.121,23.784 -30.429,29.592 -3.552,1.55 -8.183,2.729 -11.121,4.315 -15.253,-23.36 -46.702,-18.732 -56.128,3.315 -2.795,6.535 0.145,5.005 -17.524,4.846l-14.969 -0.619c-5.208,-0.368 -9.671,-0.822 -14.794,-1.445 -2.645,-0.322 -4.754,-0.436 -7.391,-0.758 -44.826,-8.578 -81.301,-15.636 -122.721,-37.322 -16.456,-8.617 -41.883,-24.453 -52.677,-40.984 -6.315,-9.671 -12.734,-21.052 -9.346,-32.601 4.693,-15.985 20.323,-25.236 35.966,-30.735 5.871,-2.063 4.241,-3.162 8.142,1.41 15.706,18.409 40.871,13.671 51.086,-2.201 3.572,-5.548 2.552,-5.51 4.179,-9.337 2.214,-0.728 10.421,-0.242 13.369,-0.214 4.675,0.044 8.806,0.173 13.223,0.467 4.395,0.294 8.747,0.646 13.12,0.964l13.451 1.507c-6.994,34.46 -21.576,101.353 -28.568,135.814zm33.435 86.355l-13.654 -2.652 13.227 -64.048c1.049,0.054 13.811,2.342 14.336,2.565 -0.038,3.212 -9.901,48.207 -11.575,56.188 -0.553,2.637 -0.433,5.829 -2.334,7.947zm-24.458 -5.135l-13.865 -2.696 13.405 -64.899c4.906,2.043 9.748,2.094 13.644,3.752l-13.184 63.843z"/>
   <polygon class="fil1" points="220.569,330.725 259.396,339.32 245.487,403.455 207.164,395.624 "/>
  </g>
 </g>
</svg>
