<?xml version="1.0" encoding="UTF-8"?>
<!DOCTYPE svg PUBLIC "-//W3C//DTD SVG 1.1//EN" "http://www.w3.org/Graphics/SVG/1.1/DTD/svg11.dtd">
<!-- Creator: CorelDRAW 2019 (64-Bit) -->
<svg xmlns="http://www.w3.org/2000/svg" xml:space="preserve" width="731px" height="495px" version="1.1" style="shape-rendering:geometricPrecision; text-rendering:geometricPrecision; image-rendering:optimizeQuality; fill-rule:evenodd; clip-rule:evenodd"
viewBox="0 0 715.14 484.592"
 xmlns:xlink="http://www.w3.org/1999/xlink">
 <defs>
  <style type="text/css">
   <![CDATA[
    .str1 {stroke:#E6E6E6;stroke-width:1.388;stroke-miterlimit:22.9256}
    .str0 {stroke:#E6E6E6;stroke-width:0.555;stroke-miterlimit:22.9256}
    .fil0 {fill:none}
    .fil2 {fill:none}
    .fil1 {fill:#E6E6E6}
    .fil3 {fill:white;fill-rule:nonzero}
   ]]>
  </style>
 </defs>
 <g id="Layer_x0020_1">
  <metadata id="CorelCorpID_0Corel-Layer"/>
  <rect class="fil0" width="715.14" height="484.592"/>
  <path class="fil1 str0" d="M382.133 22.213c-17.496,1.05 -35.611,6.538 -50.672,15.343 -12.439,7.287 -23.641,16.953 -32.67,28.193 -12.308,15.323 -20.738,33.719 -24.447,53.295 -1.554,8.205 -2.06,13.844 -2.06,22.854 0,9.01 0.506,14.649 2.06,22.854 3.335,17.702 10.566,34.468 21.056,48.874 6.201,8.505 14.125,16.766 22.236,23.173 1.012,0.805 2.51,2.098 3.353,2.885 2.342,2.191 5.451,4.327 8.973,6.144 2.623,1.349 12.289,5.957 14.237,6.781 11.109,4.702 22.424,7.531 34.843,8.73 4.703,0.468 15.155,0.468 19.857,0 15.342,-1.48 29.523,-5.601 42.505,-12.364 10.715,-5.564 12.626,-6.744 16.879,-10.434 0.936,-0.806 2.997,-2.529 4.589,-3.859 3.204,-2.641 9.142,-8.374 11.989,-11.577 14.762,-16.541 24.615,-36.548 28.736,-58.353 1.555,-8.205 2.061,-13.844 2.061,-22.854 0,-9.01 -0.506,-14.649 -2.061,-22.854 -4.083,-21.637 -13.693,-41.269 -28.305,-57.885 -2.81,-3.203 -8.936,-9.16 -12.233,-11.914 -15.829,-13.244 -34.337,-21.936 -54.175,-25.458 -8.786,-1.536 -18.077,-2.098 -26.751,-1.573l0 -0.001zm13.113 0.918c25.046,1.537 47.919,10.678 67.251,26.863 4.815,4.028 12.926,12.233 12.345,12.458 -0.149,0.056 -0.768,0.655 -1.386,1.311 -0.618,0.656 -1.929,1.798 -2.922,2.548 -1.724,1.292 -5.901,3.84 -6.276,3.84 -0.112,0 -0.955,-0.993 -1.892,-2.211 -8.092,-10.453 -18.227,-19.482 -30.197,-26.9l-2.848 -1.761 0.862 -0.506c1.161,-0.674 4.365,-3.109 5.058,-3.821 0.506,-0.543 0.525,-0.618 0.244,-0.881 -0.282,-0.281 -0.431,-0.206 -1.78,0.956 -1.48,1.255 -4.027,3.053 -4.964,3.465 -0.45,0.206 -0.637,0.15 -2.173,-0.73 -2.248,-1.274 -9.854,-4.983 -12.72,-6.182 -8.598,-3.616 -19.014,-6.875 -26.001,-8.168 -0.918,-0.187 -1.723,-0.356 -1.761,-0.393 -0.15,-0.15 6.144,-0.075 9.16,0.112l0 0zm-18.452 1.012c-10.134,2.585 -19.969,6.444 -28.623,11.24 -1.405,0.787 -2.623,1.423 -2.679,1.423 -0.319,0 -1.892,-2.416 -2.267,-3.503l-0.206 -0.58 1.049 -0.469c9.498,-4.233 21.805,-7.455 33.288,-8.729 2.735,-0.3 2.642,-0.187 -0.562,0.618l0 0zm7.007 3.859c0.412,7.1 0.749,19.557 0.543,19.763 -0.038,0.038 -2.173,0 -4.74,-0.112 -5.395,-0.206 -12.738,-0.956 -13.131,-1.349 -0.113,-0.112 1.985,-4.365 3.259,-6.594 1.293,-2.286 4.159,-6.557 5.601,-8.336 0.694,-0.881 2.042,-2.36 2.96,-3.297 1.986,-2.005 4.983,-4.29 5.17,-3.953 0.075,0.131 0.225,1.873 0.338,3.878l0 0zm2.098 -3.166c2.753,1.78 6.519,5.395 9.16,8.804 3.316,4.272 8.242,12.552 7.68,12.907 -0.262,0.169 -1.03,0.263 -5.245,0.656 -2.903,0.281 -11.764,0.674 -12.008,0.544 -0.056,-0.038 -0.168,-2.698 -0.224,-5.92 -0.131,-6.013 -0.431,-13.207 -0.675,-16.129 -0.075,-0.899 -0.075,-1.63 0,-1.63 0.057,0 0.656,0.356 1.311,0.768l0.001 0zm-5.92 0.394c-4.552,3.765 -9.198,10.115 -13.057,17.833 -0.824,1.667 -1.536,3.054 -1.573,3.091 -0.094,0.094 -3.541,-0.693 -5.695,-1.311 -3.522,-1.012 -8.186,-2.979 -7.961,-3.353 0.168,-0.281 4.308,-3.709 5.994,-4.983 6.463,-4.871 14.368,-9.123 21.543,-11.577 1.779,-0.6 1.817,-0.6 0.749,0.299l0 0.001zm14.518 2.041c7.475,3.316 14.78,8.149 21.168,13.994 1.087,0.974 1.986,1.854 2.023,1.929 0.169,0.394 -11.464,3.166 -13.337,3.166 -0.319,0 -0.544,-0.281 -1.031,-1.274 -1.854,-3.821 -5.432,-9.441 -8.13,-12.776 -1.742,-2.173 -5.732,-6.125 -7.118,-7.08 -0.487,-0.338 -0.881,-0.656 -0.881,-0.675 0,-0.187 4.946,1.667 7.306,2.716l0 0zm1.78 -0.861c5.264,1.442 11.951,3.821 17.59,6.219 3.166,1.33 9.572,4.44 11.764,5.695l1.705 0.974 -1.106 0.562c-1.517,0.768 -4.196,1.929 -5.9,2.566l-1.405 0.506 -2.154 -1.948c-7.175,-6.557 -13.544,-10.734 -23.211,-15.211 -0.599,-0.263 -0.318,-0.207 2.717,0.637l0 0zm-24.091 0.356c-6.95,3.109 -15.829,8.973 -20.606,13.562l-0.88 0.824 -1.368 -0.936c-0.768,-0.506 -1.798,-1.293 -2.323,-1.761l-0.918 -0.843 1.387 -0.787c4.814,-2.679 10.902,-5.526 16.241,-7.568 3.184,-1.218 9.441,-3.297 9.985,-3.316 0.149,0 -0.525,0.375 -1.518,0.825l0 0zm-28.942 8.729c0.3,0.468 0.749,1.068 1.011,1.349l0.469 0.506 -0.9 0.524c-1.929,1.143 -7.043,4.571 -9.179,6.163 -8.504,6.369 -16.372,14.312 -22.31,22.555l-1.612 2.229 -1.03 -0.881c-2.004,-1.723 -3.84,-4.308 -4.646,-6.537l-0.43 -1.162 4.065 -3.99c9.404,-9.273 19.332,-16.335 30.647,-21.805l2.81 -1.349 0.281 0.768c0.168,0.431 0.543,1.162 0.824,1.63l0 0zm3.166 3.672c0.637,0.58 1.686,1.386 2.323,1.817l1.161 0.768 -2.847 2.903c-3.185,3.26 -5.077,5.471 -7.906,9.217 -4.458,5.901 -8.71,13.15 -11.726,19.932 -0.637,1.442 -1.218,2.697 -1.293,2.772 -0.206,0.225 -4.515,-1.461 -7.774,-3.053 -2.398,-1.18 -5.114,-2.773 -6.725,-3.972 -0.225,-0.149 2.285,-3.652 4.889,-6.837 6.819,-8.374 15.005,-15.717 24.072,-21.655 2.604,-1.705 4.477,-2.904 4.608,-2.922 0.037,-0.019 0.599,0.449 1.218,1.03l0 0zm85.834 3.034c9.572,5.958 18.471,13.488 25.514,21.618 1.667,1.911 4.252,5.114 5.077,6.294l0.449 0.6 -1.667 0.768c-5.17,2.398 -12.607,4.889 -19.745,6.594 -0.43,0.112 -0.524,0.056 -0.749,-0.487 -1.63,-4.121 -4.496,-10.153 -6.594,-13.9 -3.578,-6.388 -9.123,-13.956 -13.356,-18.264 -0.862,-0.881 -1.574,-1.649 -1.574,-1.705 0,-0.056 0.356,-0.225 0.806,-0.337 1.105,-0.338 4.402,-1.761 6.313,-2.717l1.592 -0.805 0.843 0.468c0.468,0.263 1.854,1.106 3.091,1.873l0 0zm-75.437 2.736c2.004,0.692 6.856,1.985 7.511,1.985 0.207,0 0.431,0.075 0.487,0.187 0.057,0.094 -0.224,0.956 -0.636,1.911 -3.391,7.999 -6.52,18.621 -8.749,29.692 -0.674,3.409 -0.73,3.615 -1.142,3.615 -1.611,0 -11.296,-1.442 -15.792,-2.36 -3.653,-0.749 -11.09,-2.679 -11.371,-2.96 -0.15,-0.15 2.548,-5.92 4.309,-9.198 4.739,-8.86 9.872,-15.923 16.484,-22.704l2.773 -2.829 2.098 0.993c1.161,0.543 2.96,1.293 4.028,1.668l0 0zm63.466 0.899c5.527,5.62 11.278,13.9 15.624,22.461 2.06,4.064 4.608,9.872 4.402,10.059 -0.281,0.281 -8.58,1.855 -14.05,2.641 -4.739,0.694 -10.771,1.386 -10.902,1.255 -0.056,-0.037 -0.375,-1.461 -0.731,-3.147 -2.341,-11.239 -5.807,-22.292 -9.516,-30.366 -0.356,-0.787 -0.6,-1.442 -0.525,-1.442 1.181,0 9.966,-1.967 12.495,-2.791 0.619,-0.206 1.218,-0.375 1.311,-0.375 0.113,-0.019 0.956,0.768 1.892,1.705l0 0zm-52.32 1.742c3.034,0.487 6.874,0.824 11.764,1.03 2.604,0.113 4.777,0.225 4.795,0.262 0.113,0.113 0.394,34.694 0.281,34.806 -0.168,0.15 -14.405,-0.15 -18.77,-0.412 -7.25,-0.412 -10.303,-0.712 -10.303,-1.012 0,-0.112 0.131,-0.843 0.281,-1.611 2.173,-11.239 5.208,-21.917 8.524,-29.991 0.524,-1.274 1.049,-2.548 1.161,-2.847 0.225,-0.6 0.075,-0.581 2.267,-0.225l0 0zm36.21 1.348c2.267,4.89 5.283,13.432 7.1,20.101 0.974,3.634 2.81,11.633 2.941,12.832l0.056 0.562 -1.311 0.131c-5.208,0.525 -16.691,1.068 -22.704,1.105l-4.346 0 -0.113 -7.081c-0.037,-3.896 -0.131,-11.726 -0.206,-17.403l-0.112 -10.34 1.948 -0.112c1.068,-0.057 3.746,-0.188 5.957,-0.3 2.211,-0.131 5.245,-0.375 6.744,-0.544 1.498,-0.187 2.866,-0.356 3.034,-0.374 0.225,-0.019 0.525,0.393 1.012,1.423l0 0zm-99.809 13.301c0.619,1.686 2.192,3.915 4.084,5.788l1.742 1.705 -0.805 1.199c-4.665,6.969 -9.198,16.447 -12.139,25.402 -0.656,1.985 -1.255,3.615 -1.349,3.615 -0.299,0 -3.391,-2.529 -5.151,-4.215 -1.93,-1.873 -3.841,-4.271 -4.721,-5.994l-0.6 -1.124 0.993 -1.967c3.073,-6.126 7.625,-13.301 12.102,-19.033 1.442,-1.854 5.283,-6.444 5.395,-6.444 0.037,0 0.243,0.487 0.449,1.068l0 0zm174.141 4.215c5.114,6.35 9.723,13.562 13.582,21.28l1.517 3.035 -1.911 1.93c-1.986,1.967 -5.095,4.402 -7.737,6.069 -2.041,1.293 -4.233,2.548 -4.289,2.454 -0.038,-0.019 -0.3,-0.768 -0.581,-1.648 -2.997,-9.142 -7.231,-17.815 -12.701,-26.002 -0.918,-1.386 -1.63,-2.529 -1.592,-2.547 0.037,-0.038 0.656,-0.375 1.367,-0.768 1.743,-0.956 3.653,-2.192 5.152,-3.316 1.368,-1.03 3.672,-3.222 3.971,-3.803 0.244,-0.412 0.113,-0.562 3.222,3.316l0 0zm-165.58 5.114c3.091,2.042 10.004,5.301 12.252,5.807 0.318,0.075 0.58,0.15 0.58,0.187 0,0.038 -0.449,1.218 -1.011,2.66 -2.342,6.014 -4.552,13.451 -6.107,20.475 -0.468,2.08 -1.405,7.007 -1.592,8.28 -0.075,0.506 -0.188,0.9 -0.263,0.9 -0.3,0 -4.084,-1.349 -6.856,-2.455 -4.758,-1.873 -12.663,-6.05 -12.963,-6.837 -0.113,-0.318 2.21,-7.25 3.559,-10.565 2.023,-4.983 4.178,-9.404 6.707,-13.807 1.217,-2.116 3.596,-5.863 3.727,-5.863 0.075,0 0.956,0.543 1.967,1.218zm152.748 2.585c4.402,6.632 7.887,13.357 10.734,20.737 0.843,2.173 2.417,6.782 2.342,6.857 -0.019,0.018 -0.899,0.468 -1.93,0.974 -4.327,2.173 -10.79,4.683 -16.466,6.406 -3.69,1.124 -10.397,2.866 -10.509,2.754 -0.056,-0.056 -0.3,-1.461 -0.562,-3.147 -1.386,-9.273 -3.541,-18.04 -6.5,-26.638 -0.675,-1.93 -0.956,-2.998 -0.806,-3.035 0.113,-0.037 1.386,-0.375 2.829,-0.749 6.35,-1.649 13.094,-3.991 17.422,-6.07 0.824,-0.393 1.573,-0.674 1.648,-0.637 0.075,0.057 0.88,1.199 1.798,2.548zm-132.141 5.657c5.507,1.349 11.558,2.417 18.32,3.222 2.304,0.263 2.735,0.356 2.66,0.6 -0.037,0.168 -0.374,2.154 -0.749,4.421 -1.161,7.381 -2.154,15.885 -2.829,24.54 -0.168,2.154 -0.337,3.971 -0.374,4.009 -0.132,0.131 -8.13,-0.937 -12.57,-1.668 -5.245,-0.88 -10.284,-1.966 -14.518,-3.09 -5.096,-1.349 -5.732,-1.574 -5.657,-1.93 0.037,-0.168 0.281,-1.536 0.543,-3.035 1.686,-9.535 4.908,-20.887 8.036,-28.305l0.281 -0.693 1.742 0.562c0.956,0.3 3.26,0.918 5.115,1.368l0 -0.001zm108.126 1.874c1.611,4.439 3.709,11.782 4.833,17.046 1.18,5.471 2.454,13.17 2.21,13.413 -0.225,0.206 -6.837,1.536 -11.408,2.304 -5.713,0.956 -8.018,1.256 -16.972,2.267 -0.656,0.075 -0.899,0.038 -0.899,-0.131 0,-0.749 -0.806,-10.341 -1.143,-13.45 -0.618,-5.995 -1.985,-15.792 -2.623,-18.771 -0.112,-0.505 -0.168,-0.955 -0.131,-0.992 0.038,-0.057 1.63,-0.262 3.541,-0.469 6.463,-0.73 12.382,-1.667 17.871,-2.81 1.855,-0.393 3.484,-0.693 3.634,-0.674 0.169,0 0.6,0.899 1.087,2.267l0 0zm-81.245 2.154c4.159,0.337 9.61,0.562 20.662,0.862l3.878 0.112 0 16.785 0 16.766 -7.53 -0.113c-4.159,-0.075 -9.742,-0.262 -12.42,-0.412 -5.395,-0.318 -13.207,-0.974 -13.357,-1.124 -0.356,-0.337 1.649,-19.669 2.791,-26.881 0.993,-6.314 0.993,-6.37 1.237,-6.37 0.075,0 2.21,0.169 4.739,0.375l0 0zm54.194 0.037c0.282,1.143 1.499,8.992 1.986,12.889 0.974,7.68 2.042,19.8 1.761,20.062 -0.15,0.131 -8.767,0.787 -14.78,1.106 -1.967,0.093 -6.782,0.243 -10.678,0.318l-7.1 0.112 0.056 -16.765 0.038 -16.766 0.712 -0.131c0.374,-0.056 2.341,-0.113 4.346,-0.113 5.376,0 21.056,-0.787 21.336,-1.049 0.038,-0.037 0.562,-0.075 1.162,-0.075 0.955,0 1.068,0.038 1.161,0.412l0 0zm-129.107 6.857c1.443,2.603 4.946,6.331 8.43,8.991l1.799 1.368 -0.525 1.911c-2.079,7.38 -3.784,17.665 -4.383,26.45 -0.169,2.361 -0.356,4.89 -0.431,5.583l-0.131 1.274 -3.091 -1.555c-5.733,-2.904 -9.592,-5.657 -12.327,-8.823l-0.618 -0.693 0.487 -2.867c1.555,-9.141 3.803,-17.346 7.006,-25.42 1.087,-2.754 3.054,-7.119 3.185,-7.119 0.056,0 0.337,0.412 0.599,0.9l0 0zm209.753 3.84c3.784,9.01 6.369,18.002 7.98,27.762 0.693,4.196 0.73,4.646 0.505,4.496 -0.112,-0.056 -0.655,0.262 -1.18,0.749 -1.723,1.536 -5.02,3.691 -8.392,5.47 -2.51,1.312 -8.542,3.934 -8.692,3.784 -0.038,-0.037 -0.169,-1.723 -0.281,-3.728 -0.6,-10.34 -2.192,-20.231 -4.608,-28.605 -0.469,-1.648 -0.581,-2.248 -0.413,-2.36 0.132,-0.075 1.387,-0.843 2.81,-1.686 3.503,-2.098 6.744,-4.533 9.011,-6.781 1.049,-1.031 1.948,-1.855 2.023,-1.836 0.056,0.037 0.618,1.255 1.237,2.735zm-196.003 8.692c4.047,2.417 9.648,4.945 14.818,6.725 1.424,0.487 2.623,0.899 2.623,0.899 0.018,0.019 -0.038,0.487 -0.132,1.049 -1.086,6.725 -1.948,17.178 -2.154,26.507 -0.075,2.941 -0.187,5.339 -0.262,5.339 -0.318,0 -7.268,-1.779 -9.648,-2.454 -4.402,-1.274 -9.591,-3.072 -12.326,-4.271l-0.899 -0.393 0.113 -2.005c0.636,-11.951 2.397,-23.453 4.889,-32.052l0.3 -0.993 0.487 0.319c0.28,0.187 1.273,0.787 2.191,1.33l0 0zm180.492 1.686c2.472,9.01 3.896,17.833 4.496,27.874 0.093,1.742 0.187,3.485 0.187,3.859l0 0.675 -3.971 1.33c-7.831,2.622 -14.874,4.383 -24.859,6.219 -2.192,0.412 -4.028,0.749 -4.046,0.749 -0.019,0 -0.094,-4.027 -0.15,-8.954 -0.113,-9.535 -0.412,-14.462 -1.387,-22.816l-0.093 -0.956 2.398 -0.599c9.197,-2.286 17.609,-5.227 24.427,-8.524 1.181,-0.562 2.211,-1.049 2.267,-1.049 0.075,0 0.394,0.993 0.731,2.192l0 0zm-160.241 6.781c8.673,2.548 16.578,4.065 30.047,5.789l1.03 0.131 -0.037 0.655c-0.431,6.482 -0.805,18.434 -0.805,25.646l0 4.945 -1.537 -0.131c-10.097,-0.843 -21.355,-2.398 -29.86,-4.103l-2.978 -0.599 0.056 -5.339c0.056,-7.643 0.655,-16.185 1.63,-23.416 0.15,-1.18 0.337,-2.604 0.393,-3.147 0.075,-0.525 0.15,-0.974 0.169,-0.974 0.018,0 0.88,0.244 1.892,0.543zm129.669 3.147c0.243,1.911 0.693,6.688 0.992,10.453 0.094,1.443 0.244,6.632 0.3,11.54l0.112 8.917 -2.603 0.393c-7.4,1.143 -17.853,2.285 -24.896,2.754 -0.918,0.056 -2.023,0.168 -2.417,0.224l-0.73 0.094 0.112 -3.334c0.112,-3.915 -0.15,-20.738 -0.412,-25.084 -0.113,-1.648 -0.169,-2.997 -0.15,-3.034 0.038,-0.019 1.948,-0.263 4.252,-0.525 4.983,-0.562 9.742,-1.218 14.181,-1.985 3.616,-0.6 9.835,-1.836 9.966,-1.967 0.038,-0.038 0.3,-0.075 0.581,-0.075 0.506,0 0.524,0.037 0.712,1.629l0 0zm-91.005 3.41c7.25,0.562 12.158,0.805 19.726,0.936l6.875 0.113 0 15.342c0,8.43 -0.037,15.38 -0.075,15.455 -0.206,0.337 -20.082,-0.244 -29.036,-0.825 -2.267,-0.149 -4.309,-0.281 -4.552,-0.281l-0.431 0 0 -5.395c0,-5.919 0.244,-14.312 0.6,-21.374l0.224 -4.552 0.937 0.112c0.524,0.057 3.11,0.263 5.732,0.469l0 0zm60.676 6.575c0.225,5.919 0.337,24.09 0.15,24.278 -0.3,0.299 -16.073,0.918 -27.819,1.086l-5.469 0.075 0.037 -15.492 0.056 -15.473 6.557 -0.131c8.542,-0.15 17.421,-0.6 24.633,-1.237l1.405 -0.131 0.113 0.656c0.075,0.356 0.225,3.222 0.337,6.369l0 0zm-140.122 5.919c2.267,1.668 5.976,3.841 8.954,5.264l2.679 1.274 0 5.526c0,7.587 0.45,14.35 1.387,20.794 0.243,1.592 0.412,2.941 0.374,2.978 -0.094,0.113 -4.72,-2.397 -6.819,-3.69 -4.083,-2.529 -8.298,-6.107 -10.041,-8.561 -0.58,-0.805 -0.824,-1.011 -1.123,-0.936 -0.506,0.112 -0.544,-0.188 -0.843,-5.527 -0.319,-5.732 0,-15.117 0.693,-20.437l0.112 -0.843 1.555 1.517c0.862,0.843 2.248,2.023 3.072,2.641l0 0zm225.544 -0.73c0.88,9.76 0.693,19.314 -0.562,28.343 -2.66,19.182 -9.741,37.353 -20.606,52.864 -2.173,3.072 -4.084,4.777 -8.28,7.381 -4.927,3.053 -13.581,6.669 -20.55,8.598 -0.525,0.15 -0.674,0.337 1.929,-2.491 6.126,-6.65 12.158,-15.455 16.429,-24.016l1.368 -2.716 2.791 -1.105c7.268,-2.867 14.537,-7.156 18.208,-10.716 1.255,-1.217 1.274,-1.236 0.881,-1.517 -0.394,-0.262 -0.469,-0.225 -1.48,0.787 -2.848,2.828 -8.917,6.65 -14.462,9.104 -2.36,1.03 -5.301,2.248 -5.339,2.192 -0.019,-0.038 0.544,-1.424 1.255,-3.11 2.866,-6.837 5.377,-15.267 6.8,-22.798 0.281,-1.442 0.562,-2.735 0.637,-2.866 0.056,-0.131 1.124,-0.693 2.361,-1.236 6.743,-2.979 12.925,-6.8 16.653,-10.303 1.274,-1.181 1.311,-1.237 0.974,-1.593 -0.337,-0.356 -0.356,-0.356 -1.386,0.675 -2.285,2.248 -5.489,4.533 -9.685,6.893 -2.604,1.48 -8.486,4.309 -8.636,4.159 -0.037,-0.037 0.075,-1.199 0.281,-2.585 0.974,-6.725 1.349,-11.521 1.499,-19.426l0.112 -6.632 1.78 -0.711c6.125,-2.417 12.869,-6.163 15.642,-8.692 0.524,-0.469 0.993,-0.843 1.049,-0.862 0.056,0 0.206,1.068 0.337,2.379l0 0zm-210.501 8.655c4.72,1.873 11.558,3.971 17.534,5.376l3.034 0.712 0 1.049c0,2.266 0.394,10.415 0.656,13.675 0.375,4.496 0.731,7.736 1.33,11.858 0.262,1.836 0.45,3.39 0.393,3.428 -0.299,0.3 -11.783,-3.035 -16.597,-4.833 -2.192,-0.806 -6.744,-2.679 -6.894,-2.829 -0.018,-0.037 -0.243,-1.517 -0.505,-3.316 -0.993,-7.062 -1.424,-13.375 -1.424,-20.999 0,-2.773 0.037,-5.039 0.094,-5.039 0.037,0 1.123,0.412 2.379,0.918zm190.607 6.238c-0.131,7.474 -0.656,13.993 -1.649,20.381 -0.281,1.798 -0.262,1.798 -1.63,2.341 -7.399,2.979 -17.346,5.826 -27.387,7.85 -2.323,0.468 -4.421,0.899 -4.665,0.955 -0.412,0.112 -0.431,0.075 -0.318,-0.506 1.03,-5.582 2.154,-16.597 2.548,-25.233 0.093,-2.211 0.206,-4.046 0.243,-4.065 0.038,-0.038 1.461,-0.318 3.147,-0.637 10.678,-1.929 21.131,-4.571 27.987,-7.081 0.824,-0.3 1.574,-0.562 1.668,-0.581 0.093,0 0.112,2.735 0.056,6.576zm-166.292 0.618c8.673,1.742 20.157,3.315 30.085,4.14l1.536 0.112 0.112 4.814c0.169,6.332 0.581,14.518 1.068,20.513 0.206,2.66 0.356,4.87 0.3,4.908 -0.169,0.169 -10.097,-0.918 -15.867,-1.723 -5.638,-0.787 -17.122,-2.885 -17.403,-3.185 -0.112,-0.112 -0.655,-3.615 -1.142,-7.381 -0.712,-5.582 -1.162,-11.727 -1.424,-19.163 -0.094,-2.885 -0.075,-3.504 0.131,-3.504 0.15,0 1.311,0.225 2.604,0.469l0 0zm132.366 2.754c-0.056,0.861 -0.149,2.697 -0.206,4.083 -0.281,6.407 -1.049,14.181 -2.06,20.944 -0.262,1.667 -0.469,3.109 -0.469,3.203 0,0.468 -16.166,2.623 -25.289,3.391 -1.292,0.112 -2.735,0.243 -3.222,0.299l-0.899 0.113 0.093 -0.543c0.338,-1.911 1.124,-14.874 1.424,-23.379 0.113,-3.409 0.244,-6.219 0.263,-6.238 0.037,-0.038 2.079,-0.225 4.533,-0.431 7.924,-0.618 17.702,-1.724 23.097,-2.585 3.166,-0.525 2.866,-0.656 2.735,1.143zm-94.807 1.929c7.212,0.468 12.889,0.693 21.075,0.824l7.961 0.113 0.057 15.155 0.037 15.154 -7.531 -0.112c-4.158,-0.075 -9.197,-0.206 -11.202,-0.319 -6.2,-0.299 -13.581,-0.786 -13.712,-0.917 -0.338,-0.3 -1.33,-16.541 -1.574,-25.365l-0.112 -4.814 0.431 0c0.243,0 2.304,0.131 4.57,0.281l0 0zm63.411 1.068c0,3.859 -0.618,16.148 -1.124,22.76 -0.206,2.604 -0.375,4.964 -0.375,5.245 0,0.918 -0.168,0.993 -2.547,1.181 -4.627,0.374 -14.106,0.749 -21.562,0.88l-7.736 0.112 0 -15.154 0 -15.155 6.05 -0.056c9.123,-0.075 17.066,-0.356 26.882,-0.956 0.393,-0.019 0.412,0.056 0.412,1.143l0 0zm-144.374 3.877c0.281,0.375 1.292,1.461 2.248,2.436 3.184,3.222 8.167,6.612 13.825,9.404l1.611 0.786 0.224 1.237c1.63,8.935 4.702,19.201 7.962,26.507 0.262,0.618 0.45,1.143 0.412,1.18 -0.225,0.243 -7.287,-3.278 -10.078,-5.02 -3.653,-2.286 -7.194,-5.283 -8.992,-7.606 -0.618,-0.824 -0.806,-0.955 -1.086,-0.805 -0.413,0.224 -0.6,-0.225 -2.042,-4.852 -2.117,-6.763 -3.616,-13.45 -4.515,-20.251 -0.599,-4.552 -0.581,-4.458 -0.318,-4.046 0.131,0.188 0.468,0.656 0.749,1.03l0 0zm21.749 14.35c5.151,2.098 11.033,4.009 17.328,5.601l3.259 0.824 0.787 3.897c1.611,7.905 3.84,15.698 6.35,22.161 0.375,0.974 0.637,1.798 0.6,1.836 -0.131,0.131 -1.817,-0.244 -6.294,-1.349 -4.684,-1.162 -9.236,-2.529 -12.552,-3.747 -1.292,-0.487 -2.584,-0.955 -2.866,-1.068 -0.636,-0.224 -1.105,-1.142 -2.735,-5.17 -2.753,-6.837 -5.02,-14.555 -6.481,-22.011 -0.263,-1.443 -0.338,-2.192 -0.206,-2.136 0.112,0.057 1.386,0.581 2.81,1.162l0 0zm185.755 -1.068c0,0.45 -1.18,5.92 -1.855,8.58 -1.573,6.238 -3.353,11.577 -5.863,17.459 -1.33,3.128 -0.824,2.753 -5.582,4.308 -7.793,2.548 -15.511,4.421 -25.103,6.107 -1.386,0.244 -2.547,0.412 -2.584,0.394 -0.038,-0.038 0.524,-1.818 1.254,-3.972 2.248,-6.687 4.009,-13.356 5.339,-20.269 0.375,-1.911 0.693,-3.484 0.731,-3.503 0.019,-0.018 2.192,-0.468 4.814,-1.011 9.798,-1.967 20.326,-4.946 27.163,-7.662 1.555,-0.618 1.686,-0.656 1.686,-0.431l0 0zm-159.604 8.636c7.699,1.555 16.503,2.81 26.507,3.765 1.236,0.131 2.266,0.244 2.285,0.262 0.019,0.019 0.169,1.218 0.338,2.661 0.711,6.425 2.154,15.585 3.353,21.336 0.356,1.649 0.618,3.016 0.599,3.035 -0.056,0.075 -7.868,-0.656 -10.696,-0.993 -5.751,-0.674 -11.596,-1.555 -16.879,-2.529l-2.06 -0.393 -1.049 -2.735c-2.023,-5.301 -3.653,-10.584 -5.021,-16.223 -0.693,-2.81 -1.873,-8.505 -1.873,-8.954 0,-0.113 0.169,-0.15 0.431,-0.075 0.225,0.056 2.061,0.449 4.065,0.843l0 0zm124.798 1.086c-1.311,7.587 -3.859,17.385 -6.35,24.409l-1.031 2.941 -2.098 0.319c-3.503,0.524 -8.991,1.199 -13.131,1.611 -3.709,0.356 -10.266,0.918 -10.341,0.862 -0.019,-0.019 0.262,-1.63 0.618,-3.578 1.162,-6.295 2.155,-13.338 2.866,-20.101 0.207,-1.779 0.394,-3.278 0.45,-3.334 0.037,-0.056 1.892,-0.244 4.084,-0.45 4.814,-0.412 8.617,-0.824 12.532,-1.33 3.747,-0.468 11.689,-1.667 11.783,-1.78 0.038,-0.037 0.225,-0.074 0.393,-0.074 0.244,0 0.3,0.112 0.225,0.505l0 0zm-91.079 3.241c4.908,0.394 13.675,0.75 20.943,0.881l7.531 0.112 0 11.071c0,6.088 0.056,12.139 0.131,13.45l0.113 2.379 -5.133 -0.093c-8.58,-0.15 -20.831,-0.656 -22.592,-0.937 -0.581,-0.093 -0.6,-0.112 -0.974,-1.817 -1.293,-5.676 -2.96,-15.942 -3.578,-21.955 -0.113,-1.03 -0.244,-2.192 -0.3,-2.585l-0.112 -0.693 0.824 0c0.431,0 1.855,0.094 3.147,0.187l0 0zm60.938 0.693c-0.712,7.493 -2.454,19.614 -3.541,24.803l-0.299 1.442 -1.442 0.113c-4.497,0.374 -25.814,0.992 -26.058,0.749 -0.056,-0.056 -0.131,-6.107 -0.15,-13.45l-0.075 -13.357 7.83 -0.131c8.299,-0.131 18.696,-0.581 23.51,-1.03 0.263,-0.019 0.3,0.131 0.225,0.861l0 0zm-133.509 5.321c3.578,3.446 10.434,7.643 16.485,10.097l1.517 0.618 1.349 2.735c4.402,8.842 10.303,17.346 16.991,24.521 1.086,1.143 1.948,2.098 1.892,2.098 -0.038,0 -1.293,-0.412 -2.773,-0.918 -9.835,-3.315 -17.89,-7.924 -21.73,-12.401 -0.562,-0.656 -1.274,-1.442 -1.592,-1.761 -1.742,-1.705 -6.782,-9.947 -9.872,-16.148 -2.099,-4.158 -5.189,-11.277 -5.189,-11.914 0,-0.093 0.318,0.244 0.73,0.75 0.393,0.487 1.386,1.536 2.192,2.323zm187.947 13.112c-4.403,8.805 -10.154,17.047 -17.291,24.747 -1.873,2.042 -2.51,2.603 -3.072,2.753 -5.863,1.593 -14.574,3.297 -21.393,4.234 -1.18,0.15 -2.435,0.337 -2.754,0.393 -0.337,0.056 -0.618,0.038 -0.618,-0.018 0,-0.057 0.656,-1.049 1.461,-2.211 4.215,-6.051 7.775,-12.532 10.959,-19.988 0.768,-1.798 1.443,-3.447 1.517,-3.671 0.113,-0.338 0.394,-0.45 2.136,-0.712 3.26,-0.525 11.034,-2.098 14.387,-2.923 3.99,-0.955 10.191,-2.753 13.188,-3.784 1.292,-0.449 2.36,-0.805 2.398,-0.786 0.037,0.018 -0.375,0.899 -0.918,1.966l0 0zm-164.175 -0.262c4.87,1.63 12.345,3.672 16.785,4.552l1.049 0.206 1.011 2.286c3.541,8.13 9.46,17.927 14.181,23.528l0.862 1.012 -1.012 -0.131c-1.855,-0.225 -9.404,-1.799 -12.832,-2.66l-3.372 -0.862 -1.18 -1.143c-5.039,-4.908 -10.921,-12.476 -15.118,-19.426 -1.479,-2.435 -4.776,-8.561 -4.776,-8.86 0,-0.057 0.318,0.018 0.712,0.187 0.374,0.168 2.041,0.749 3.69,1.311l0 0zm30.254 6.875c4.814,0.693 9.328,1.218 14.798,1.705 1.799,0.169 3.335,0.356 3.41,0.393 0.075,0.056 0.15,0.244 0.15,0.412 0,0.637 2.248,8.805 3.372,12.289 1.199,3.69 2.866,8.13 4.008,10.734 0.375,0.843 0.675,1.574 0.675,1.63 0,0.112 -0.412,0.075 -6.744,-0.468 -4.59,-0.394 -7.231,-0.675 -11.802,-1.293l-2.716 -0.375 -0.731 -0.786c-2.21,-2.436 -6.818,-9.067 -9.479,-13.638 -1.873,-3.222 -6.181,-11.895 -6.181,-12.439 0,-0.018 1.498,0.244 3.334,0.581 1.817,0.319 5.376,0.899 7.905,1.255l0.001 0zm101.719 -0.449c0,0.412 -2.885,6.893 -4.477,10.097 -2.642,5.264 -6.463,11.576 -9.142,15.042 -0.918,1.199 -0.524,1.087 -5.114,1.555 -6.144,0.618 -13.675,1.161 -13.675,0.956 0,-0.057 0.318,-0.975 0.731,-2.024 2.191,-5.845 4.233,-13.15 6.294,-22.573 0.112,-0.487 0.225,-0.506 4.215,-0.805 5.807,-0.431 14.686,-1.405 19.295,-2.136 0.88,-0.15 1.648,-0.262 1.742,-0.281 0.075,0 0.131,0.075 0.131,0.169l0 0zm-76.336 2.903c2.997,0.15 9.104,0.375 13.562,0.469 4.477,0.112 8.168,0.224 8.186,0.243 0,0.019 0.131,5.508 0.244,12.214 0.131,6.688 0.281,12.232 0.318,12.307 0.188,0.319 -15.867,0.019 -19.182,-0.337l-0.974 -0.093 -0.581 -1.256c-2.379,-5.226 -5.133,-13.431 -7.006,-20.831 -0.749,-2.959 -0.787,-3.184 -0.318,-3.072 0.168,0.038 2.772,0.206 5.751,0.356l0 0zm49.717 1.349c-1.368,6.706 -4.14,16.41 -6.182,21.711l-0.731 1.892 -2.585 0.113c-1.405,0.075 -5.826,0.187 -9.797,0.262l-7.231 0.112 -0.113 -5.507c-0.074,-3.035 -0.187,-8.598 -0.262,-12.364l-0.112 -6.875 4.664 -0.112c7.306,-0.169 17.403,-0.525 19.557,-0.674 1.087,-0.075 2.23,-0.15 2.548,-0.15l0.581 -0.038 -0.337 1.63 0 0zm65.377 6.744c-4.571,5.901 -16.653,17.74 -18.115,17.759 -0.205,0 -0.674,0.374 -1.067,0.843 -0.862,1.03 -3.147,2.753 -7.306,5.526 -4.271,2.828 -5.732,3.653 -8.711,4.87 -5.226,2.173 -11.801,4.103 -18.358,5.414 -3.166,0.637 -9.16,1.611 -9.872,1.611 -0.188,0 0.712,-0.468 1.986,-1.03 3.371,-1.48 8.523,-4.103 11.633,-5.901 8.261,-4.777 14.93,-9.666 21.636,-15.848l2.435 -2.248 1.873 -0.524c2.773,-0.787 7.906,-2.548 10.678,-3.672 3.653,-1.461 8.917,-4.14 11.24,-5.695 1.143,-0.768 2.098,-1.405 2.136,-1.405 0.037,-0.019 -0.057,0.131 -0.188,0.3zm-176.951 1.142c4.271,3.241 11.315,6.613 19.033,9.105l3.241 1.049 1.911 1.798c9.141,8.655 21.13,16.504 33.869,22.18 0.805,0.356 1.386,0.674 1.292,0.712 -0.524,0.168 -9.535,-1.536 -13.787,-2.623 -3.541,-0.899 -9.198,-2.735 -11.071,-3.597 -2.941,-1.367 -9.048,-5.132 -13.451,-8.317 -4.363,-3.166 -11.416,-9.29 -15.286,-13.263 -2.903,-2.978 -7.305,-7.943 -7.043,-7.943 0.056,0 0.637,0.412 1.292,0.899l0 0zm147.859 11.652c-6.35,5.939 -14.555,11.84 -22.873,16.429 -4.477,2.473 -12.719,6.332 -15.267,7.156 -0.656,0.206 -6.163,0.768 -7.549,0.768 -0.731,0 -0.712,-0.019 1.292,-1.33 2.379,-1.573 5.114,-3.615 7.474,-5.582 2.642,-2.192 8.974,-8.655 11.128,-11.353 1.068,-1.348 2.061,-2.528 2.21,-2.641 0.131,-0.112 0.806,-0.262 1.518,-0.337 4.271,-0.431 16.129,-2.548 20.831,-3.747 2.566,-0.655 2.603,-0.636 1.236,0.637l0 0zm-120.19 -0.112c3.166,0.768 8.411,1.817 11.277,2.285l2.023 0.319 1.162 1.33c6.744,7.662 15.829,15.024 24.221,19.613l1.312 0.731 -1.218 -0.113c-3.409,-0.299 -5.676,-1.161 -13.3,-4.964 -8.206,-4.102 -15.211,-8.542 -21.749,-13.769 -2.061,-1.648 -5.733,-4.833 -6.725,-5.826 -0.413,-0.412 -0.431,-0.449 -0.094,-0.355 0.206,0.056 1.592,0.393 3.091,0.749l0 0zm19.538 3.466c4.328,0.562 8.261,0.936 13.432,1.329 1.498,0.113 2.716,0.225 2.735,0.244 0,0.019 0.73,1.424 1.611,3.128 3.278,6.332 6.069,10.472 10.247,15.118 1.592,1.798 1.873,1.648 -2.454,1.349l-2.866 -0.188 -2.66 -1.48c-8.074,-4.477 -15.567,-10.265 -21.974,-17.009 -2.361,-2.473 -2.829,-3.035 -2.548,-3.035 0.075,0 2.079,0.244 4.477,0.544l0 0zm75.288 0.711c-1.967,2.736 -8.449,9.498 -11.933,12.458 -2.473,2.098 -6.126,4.795 -8.823,6.519 -2.435,1.536 -2.773,1.648 -6.032,1.667l-1.742 0.019 0.768 -0.899c2.978,-3.447 6.837,-10.097 9.535,-16.373l1.068 -2.491 2.247 -0.131c2.679,-0.169 10.922,-0.881 12.627,-1.068 0.674,-0.094 1.536,-0.169 1.929,-0.188l0.712 -0.018 -0.356 0.505 0 0zm-50.71 1.181c3.503,0.112 7.718,0.224 9.366,0.243l2.997 0.037 0.038 1.499c0.113,3.204 0.637,14.874 0.749,16.373l0.113 1.573 -3.541 -0.093 -3.54 -0.113 -1.555 -1.648c-2.773,-2.979 -5.938,-7.25 -8.224,-11.146 -1.218,-2.08 -3.353,-6.126 -3.521,-6.707 -0.113,-0.393 -0.094,-0.43 0.299,-0.337 0.244,0.056 3.316,0.206 6.819,0.319zm31.883 1.255c-1.011,2.491 -4.364,9.048 -5.695,11.165 -1.554,2.454 -3.54,5.188 -4.608,6.369l-0.824 0.88 -3.278 0 -3.279 0 -0.131 -1.742c-0.206,-2.885 -0.674,-13.769 -0.674,-15.829l0 -1.911 4.646 -0.019c2.548,-0.018 6.144,-0.093 7.999,-0.149 1.854,-0.075 4.065,-0.15 4.908,-0.169l1.536 -0.038 -0.6 1.443 0 0zm32.745 12.776c-0.524,0.505 -8.467,3.727 -12.644,5.132 -9.142,3.091 -19.351,5.096 -28.568,5.658 -1.03,0.056 -2.248,0.15 -2.716,0.206 -1.349,0.168 -0.768,-0.094 1.33,-0.6 4.121,-0.993 10.49,-2.96 14.143,-4.383 1.105,-0.431 2.211,-0.675 4.477,-0.956 8.111,-1.011 16.766,-2.791 22.011,-4.533 2.323,-0.768 2.173,-0.731 1.967,-0.524zm-92.016 1.966c4.215,1.143 9.854,2.23 15.624,3.016 2.847,0.394 3.521,0.544 5.994,1.462 3.203,1.18 7.737,2.641 11.109,3.578 2.622,0.73 2.379,0.805 -1.311,0.393 -10.584,-1.162 -19.707,-3.409 -29.729,-7.325 -2.586,-1.011 -4.834,-2.004 -3.747,-1.685 0.168,0.056 1.105,0.318 2.06,0.561l0 0zm26.695 4.684c0.693,0.337 1.742,0.805 2.323,1.049 2.098,0.862 0.861,0.58 -2.604,-0.562 -1.93,-0.637 -3.559,-1.218 -3.616,-1.274 -0.056,-0.038 0.525,-0.038 1.274,0.037 0.993,0.075 1.705,0.282 2.623,0.75l0 0zm31.583 0.206c-2.866,0.955 -9.01,2.716 -9.441,2.716 -0.131,0 1.293,-0.749 3.129,-1.667l3.334 -1.686 2.06 -0.169c4.234,-0.356 4.29,-0.299 0.918,0.806zm-24.69 -0.131c0.225,0.187 1.031,0.824 1.799,1.442 0.749,0.618 1.592,1.274 1.836,1.461l0.468 0.337 -0.468 -0.131c-1.068,-0.281 -5.246,-1.854 -7.194,-2.716l-2.079 -0.918 2.622 0.112c2.042,0.075 2.717,0.169 3.016,0.413l0 0zm4.459 -0.15l2.679 0 0.131 1.985c0.075,1.106 0.094,2.042 0.037,2.08 -0.15,0.149 -2.903,-1.592 -4.552,-2.885 -1.517,-1.18 -1.855,-1.517 -1.255,-1.293 0.169,0.056 1.499,0.113 2.96,0.113l0 0zm13.132 0.693c-0.918,0.468 -2.23,1.086 -2.904,1.386 -1.48,0.618 -3.316,1.349 -3.185,1.255 0.057,-0.037 0.9,-0.843 1.911,-1.798l1.798 -1.724 2.042 0.019 2.024 0 -1.686 0.862zm-5.227 0.58c-1.274,1.181 -3.522,2.848 -3.859,2.848 -0.131,0 -0.374,-2.248 -0.374,-3.503l0 -0.618 2.809 0 2.81 0 -1.386 1.273z"/>
  <g id="_2000016125472">
   <path class="fil2 str1" d="M178.286 200.663c7.765,-1.753 20.915,-5.009 32.124,-7.953 11.209,-2.942 20.476,-5.572 27.677,-7.764 7.202,-2.192 12.336,-3.945 17.284,-5.448 4.946,-1.503 9.705,-2.755 14.464,-3.757 4.759,-1.002 9.519,-1.753 14.528,-2.129 5.009,-0.376 10.269,-0.376 15.655,-0.125 5.385,0.25 10.895,0.751 16.423,2.194 5.527,1.443 11.072,3.827 16.513,4.847 5.441,1.021 10.778,0.677 15.708,-0.327 4.93,-1.004 9.452,-2.669 16.009,-4.328 6.556,-1.659 15.146,-3.311 21.533,-3.687 6.387,-0.375 10.572,0.525 13.477,2.228 2.906,1.703 4.535,4.207 5.412,6.649 0.876,2.442 1.001,4.822 0.187,7.139 -0.814,2.317 -2.567,4.571 -6.45,6.762 -3.882,2.192 -9.894,4.322 -16.844,6.325 -6.951,2.004 -14.841,3.883 -22.015,4.885 -7.175,1.003 -13.635,1.13 -16.867,1.257 -3.232,0.127 -3.236,0.255 -2.537,1.478 0.699,1.223 2.102,3.542 3.793,6.027 1.691,2.486 3.67,5.139 5.324,6.545 1.654,1.406 2.983,1.565 5.025,1.645 2.042,0.08 4.797,0.08 8.742,0.393 3.945,0.313 9.08,0.94 13.212,1.252 4.133,0.313 7.264,0.313 11.146,-0.564 3.883,-0.876 8.517,-2.629 13.025,-3.506 4.509,-0.876 8.892,-0.876 13.15,-2.191 4.258,-1.315 8.392,-3.946 12.784,-6.118 4.393,-2.173 9.046,-3.888 15.371,-6.706 6.324,-2.818 14.32,-6.738 19.758,-8.761 5.439,-2.023 8.319,-2.148 10.997,-1.517 2.677,0.631 5.151,2.017 8.44,2.161 3.289,0.144 7.394,-0.955 9.091,-0.632 1.695,0.324 0.982,2.068 -1.159,5.643 -2.14,3.576 -5.708,8.981 -10.049,14.381 -4.342,5.402 -9.457,10.799 -14.918,15.691 -5.461,4.892 -11.268,9.28 -17.607,13.103 -6.339,3.823 -13.209,7.081 -22.861,9.954 -9.652,2.872 -22.084,5.359 -32.972,5.73 -10.889,0.372 -20.234,-1.371 -28.65,-3.404 -8.417,-2.032 -15.907,-4.354 -21.617,-7.347 -5.711,-2.992 -9.642,-6.655 -22.516,-8.654 -12.874,-2 -34.69,-2.336 -49.418,-1.878 -14.728,0.458 -22.368,1.71 -32.512,4.591 -10.144,2.88 -22.793,7.389 -32.436,10.896 -9.644,3.506 -16.282,6.011 -19.224,7.201 -2.944,1.19 -2.192,1.064 -4.697,-9.143 -2.505,-10.206 -8.266,-30.495 -11.146,-40.64 -2.881,-10.144 -2.881,-10.144 -1.691,-10.269 1.19,-0.125 3.57,-0.376 11.334,-2.129z"/>
   <path class="fil2 str1" d="M214.793 191.211c8.778,22.583 16.966,40.295 24.54,52.339"/>
   <path class="fil2 str1" d="M199.146 195.61c13.795,36.21 20.693,54.316 20.693,54.316"/>
   <path class="fil2 str1" d="M182.801 199.619c12.418,37.903 18.628,56.855 18.628,56.855"/>
   <path class="fil2 str1" d="M175.582 237.796c56.316,-19.27 101.191,-22.01 132.976,-9.663"/>
   <path class="fil2 str1" d="M277.064 174.433c8.819,31.429 30.075,57.765 55.255,71.696m3.464 1.828l0.005 0.002"/>
   <path class="fil2 str1" d="M317.375 175.36c9.694,48.558 31.124,73.284 69.056,86.117m-0.237 -0.005c-50.005,-12.35 -81.323,-41.189 -92.757,-88.159"/>
   <path class="fil2 str1" d="M351.602 179.228c1.22,11.221 2.682,20.364 4.385,27.428"/>
   <path class="fil2 str1" d="M360.355 223.318c6.115,20.33 20.052,36.134 26.575,37.665"/>
   <line class="fil2 str1" x1="385.241" y1="200.319" x2="385.308" y2= "172.246" />
   <path class="fil2 str1" d="M411.405 219.16c-7.329,27.443 -15.924,37.017 -24.458,42.324m0 0l-1.257 -36.871"/>
   <path class="fil2 str1" d="M387.805 261.49c15.176,-3.895 38.48,-21.261 52.231,-54.88"/>
   <path class="fil2 str1" d="M387.843 261.49c42.097,-9.761 71.679,-31.278 86.483,-65.68"/>
   <path class="fil2 str1" d="M279.831 183.039c8.381,11.686 33.093,20.141 63.322,24.39m97.355 -1.025c13.247,-2.293 25.475,-5.575 35.781,-9.931"/>
   <path class="fil2 str1" d="M295.125 212.227c20.974,28.743 137.49,33.266 184.581,4.122"/>
   <path class="fil2 str1" d="M335.788 247.959c36.23,11.582 75.764,10.575 110.905,-2.204"/>
   <path class="fil2 str1" d="M179.264 251.599c65.086,-25.71 114.45,-28.186 148.096,-7.437"/>
   <path class="fil2 str1" d="M405.446 181.402c-35.046,1.125 -43.848,0.361 -54.278,-1.364"/>
   <path class="fil0 str1" d="M230.917 187.072c7.451,19.965 17.454,36.991 28.258,53.56"/>
   <path class="fil0 str1" d="M246.733 182.234c11.823,26.128 22.24,45.378 31.251,57.751"/>
   <path class="fil0 str1" d="M262.562 177.461c14.015,33.604 24.346,53.938 32.852,63.07"/>
   <path class="fil0 str1" d="M280.328 184.382c-7.087,10.632 -30.753,10.206 -111.248,30.22"/>
   <path class="fil0 str1" d="M172.311 226.034c70.008,-18.791 111.8,-22.231 125.375,-10.32"/>
  </g>
  <g id="_2000016136832">
   <path class="fil3" d="M118.649 330.467c-5.421,0 -9.724,3.542 -12.886,10.651 -3.139,7.11 -5.849,15.835 -8.06,26.202 0.166,0.547 0.356,0.88 0.546,0.975l14.218 0c0.405,0.237 0.619,0.594 0.619,1.117 0,0.785 -0.119,1.593 -0.357,2.425 -0.238,0.832 -0.594,1.379 -1.117,1.617l-14.956 0 -0.285 0.333c-0.143,0.19 -0.333,0.404 -0.571,0.642 -4.398,17.832 -8.083,32.312 -11.032,43.463 -2.948,11.127 -6.11,20.447 -9.51,27.937 -3.376,7.466 -7.609,13.386 -12.673,17.761 -5.064,4.351 -11.151,6.538 -18.26,6.538 -3.115,0 -5.516,-0.475 -7.204,-1.426 -1.688,-0.952 -2.544,-2.212 -2.544,-3.805 0,-1.426 0.499,-2.948 1.498,-4.517 0.998,-1.593 2.163,-2.378 3.518,-2.378 1.356,0 3.282,0.808 5.778,2.449 2.52,1.617 4.993,2.425 7.466,2.425 7.014,0 12.363,-7.323 16.073,-21.969 3.732,-14.646 6.466,-26.082 8.274,-34.309 1.783,-8.227 4.327,-18.95 7.608,-32.169 -0.214,-0.523 -0.452,-0.856 -0.69,-0.975l-8.416 0c-0.381,-0.238 -0.571,-0.689 -0.571,-1.331 0,-0.737 0.119,-1.522 0.309,-2.331 0.214,-0.808 0.523,-1.307 0.951,-1.497l9.273 0c0.357,-0.143 0.571,-0.286 0.618,-0.428 0.048,-0.143 0.856,-2.853 2.402,-8.155 1.569,-5.279 3.186,-9.559 4.921,-12.84 1.712,-3.281 3.923,-6.491 6.61,-9.653 2.687,-3.162 5.587,-5.873 8.702,-8.179 3.115,-2.306 6.158,-3.994 9.154,-5.064 2.996,-1.046 5.944,-1.593 8.821,-1.593 2.877,0 5.587,0.618 8.155,1.807 2.544,1.212 3.828,2.829 3.828,4.874 0,1.403 -0.666,2.901 -1.997,4.541 -1.308,1.617 -2.592,2.425 -3.852,2.425 -1.07,0 -3.067,-0.927 -5.968,-2.782 -2.901,-1.854 -5.682,-2.781 -8.393,-2.781zm3.424 79.626l0 -30.386c0,-1.949 -0.095,-3.233 -0.309,-3.828 -0.214,-0.594 -0.69,-1.046 -1.427,-1.331l-3.423 -1.237c-0.405,-0.142 -0.666,-0.285 -0.785,-0.427 -0.119,-0.143 -0.19,-0.429 -0.19,-0.904l0.142 -1.664c4.233,-0.571 8.037,-1.332 11.389,-2.307 3.376,-0.974 5.469,-1.474 6.301,-1.474 0.333,0 0.666,0.167 0.975,0.5l-0.072 3.209c-0.119,3.377 -0.19,6.729 -0.19,10.034l0 28.698c0,4.256 0.476,7.299 1.427,9.13 0.951,1.807 2.401,3.352 4.375,4.612 1.973,1.284 4.612,1.926 7.917,1.926 3.757,0 6.847,-0.689 9.296,-2.092 2.425,-1.403 4.114,-2.449 5.017,-3.162 0.904,-0.737 1.355,-2.069 1.355,-4.019l0 -35.093c0,-1.783 -0.166,-3.043 -0.475,-3.828 -0.333,-0.809 -0.951,-1.284 -1.831,-1.474l-6.824 -1.522c-0.356,0 -0.594,-0.095 -0.689,-0.285 -0.095,-0.191 -0.143,-0.547 -0.143,-1.046l0.143 -1.807 2.568 -0.286c6.086,-0.546 10.628,-1.283 13.6,-2.163 2.972,-0.88 4.707,-1.332 5.207,-1.332 0.428,0 0.808,0.167 1.117,0.5l-0.071 3.209c-0.143,3.377 -0.191,6.729 -0.191,10.034l0 39.492c0,1.712 0.143,2.948 0.476,3.733 0.333,0.761 0.88,1.141 1.664,1.141l5.921 -0.428c0.808,0 1.188,0.69 1.188,2.021 0,0.666 -0.047,1.165 -0.142,1.546 -2.544,0.356 -6.301,1.093 -11.27,2.163l-4.399 1.165c-2.401,0.761 -3.947,1.118 -4.588,1.118 -0.476,0 -0.833,-0.167 -1.118,-0.476l0.285 -7.679c-0.19,-0.167 -0.57,-0.262 -1.117,-0.262 -4.922,3.947 -8.94,6.467 -12.055,7.585 -3.114,1.117 -6.491,1.664 -10.104,1.664 -4.233,0 -7.87,-0.903 -10.89,-2.734 -3.043,-1.855 -5.159,-4.161 -6.325,-6.967 -1.141,-2.805 -1.735,-7.252 -1.735,-13.267zm73.92 19.425c0,-1.355 -0.024,-2.758 -0.071,-4.256l-0.143 -4.113c-0.143,-2.734 -0.214,-4.898 -0.214,-6.467 0.571,-0.19 1.118,-0.285 1.688,-0.285 1.023,0 1.593,0.594 1.736,1.735 0.143,1.165 0.761,2.83 1.831,4.97 1.093,2.116 2.567,3.827 4.422,5.064 1.878,1.26 4.232,1.878 7.109,1.878 3.733,0 6.634,-0.832 8.702,-2.496 2.092,-1.665 3.139,-4.161 3.139,-7.466 0,-4.399 -3.139,-8.417 -9.439,-12.031 -6.277,-3.638 -10.795,-6.99 -13.529,-10.105 -2.758,-3.114 -4.113,-7.014 -4.113,-11.698 0,-5.111 1.997,-9.486 6.015,-13.1 4.018,-3.614 9.13,-5.445 15.359,-5.445 2.687,0 5.326,0.309 7.87,0.903 2.568,0.619 4.684,1.403 6.42,2.378 0,1.665 0.048,4.09 0.142,7.252l0.12 4.731 -0.405 0.143c-0.238,0.095 -0.618,0.143 -1.117,0.143 -0.428,0 -0.809,-0.072 -1.189,-0.191 -0.357,-0.118 -0.809,-1.093 -1.332,-2.948 -0.499,-1.854 -1.688,-3.59 -3.542,-5.159 -1.855,-1.569 -4.494,-2.378 -7.942,-2.378 -3.162,0 -5.611,0.856 -7.346,2.521 -1.736,1.664 -2.616,3.685 -2.616,6.062 0,2.354 0.856,4.589 2.544,6.658 1.689,2.068 5.302,4.731 10.842,8.036 5.517,3.305 9.297,6.348 11.342,9.13 2.044,2.782 3.067,5.92 3.067,9.392 0,6.229 -2.212,11.222 -6.658,15.026 -4.422,3.781 -10.057,5.659 -16.881,5.659 -2.568,0 -5.373,-0.309 -8.464,-0.975 -3.091,-0.642 -5.54,-1.498 -7.347,-2.568zm103.64 -10.509c0,0.928 -1.331,2.734 -3.97,5.469 -2.64,2.71 -5.73,4.826 -9.226,6.324 -3.494,1.522 -7.37,2.259 -11.602,2.259 -8.774,0 -15.811,-3.234 -21.137,-9.748 -5.326,-6.491 -7.965,-14.409 -7.965,-23.753 0,-9.51 2.948,-17.547 8.844,-24.061 5.897,-6.515 12.792,-9.796 20.686,-9.796 6.205,0 11.365,1.379 15.431,4.113 4.065,2.735 6.752,6.372 8.083,10.914 1.308,4.517 1.665,7.346 1.07,8.464 -0.19,0.309 -0.499,0.666 -0.903,1.046l-41.038 0c-0.594,0.594 -0.975,1.26 -1.117,2.021 -0.119,0.737 -0.19,1.736 -0.19,2.996 0,7.561 2.425,14.265 7.275,20.091 4.85,5.825 10.889,8.726 18.141,8.726 2.687,0 5.421,-0.714 8.179,-2.14 2.758,-1.451 5.041,-3.21 6.8,-5.302 0.238,0 0.737,0.285 1.498,0.832 0.761,0.57 1.141,1.07 1.141,1.545zm-41.014 -34.428c0.167,0.523 0.452,0.832 0.833,0.975l26.819 -0.404c0.404,-0.428 0.69,-0.904 0.832,-1.474 0,-4.232 -1.189,-7.537 -3.519,-9.915 -2.353,-2.401 -5.254,-3.59 -8.749,-3.59 -3.947,0 -7.347,1.284 -10.2,3.828 -2.853,2.544 -4.874,6.087 -6.016,10.58zm54.59 38.328c0,-2.664 0.856,-4.851 2.545,-6.634 1.688,-1.759 3.899,-2.639 6.586,-2.639 2.686,0 4.921,0.856 6.657,2.568 1.736,1.735 2.615,3.899 2.615,6.562 0,2.687 -0.856,4.922 -2.52,6.681 -1.664,1.759 -3.876,2.639 -6.61,2.639 -2.639,0 -4.85,-0.856 -6.61,-2.592 -1.783,-1.759 -2.663,-3.946 -2.663,-6.585zm101.715 7.869c-0.38,-0.142 -1.355,-0.214 -2.948,-0.214 -1.569,0 -3.804,-0.023 -6.681,-0.071l-42.417 0c-4.779,0 -8.631,0.071 -11.555,0.214 -2.925,0.143 -4.518,0.214 -4.732,0.214 -0.19,-0.761 -0.285,-1.474 -0.285,-2.164 0,-0.475 0.071,-0.832 0.214,-1.093 0.142,-0.238 0.38,-0.452 0.761,-0.595l5.159 -0.832c2.14,-0.357 3.329,-1.735 3.59,-4.137 0.238,-2.401 0.381,-5.992 0.381,-10.842l0 -58.228c0,-4.684 -0.119,-8.274 -0.357,-10.747 -0.238,-2.496 -1.45,-3.899 -3.614,-4.232l-5.159 -0.832c-0.642,-0.285 -0.975,-0.856 -0.975,-1.736 0,-0.594 0.095,-1.331 0.285,-2.163 1.522,0.19 3.781,0.309 6.777,0.356 2.995,0.048 6.134,0.072 9.367,0.072l22.778 0 14.361 0.071c4.137,0 6.633,-0.119 7.513,-0.357 0.88,0.595 1.284,0.928 1.212,0.975 -0.071,0.048 0.238,2.164 0.928,6.348 0.666,4.161 1.331,7.538 1.973,10.082 -0.428,0.285 -0.927,0.475 -1.521,0.594 -0.619,0.119 -0.999,0.19 -1.189,0.19 -0.618,0 -1.023,-0.309 -1.26,-0.903l-1.332 -3.281c-1.379,-3.258 -3.352,-5.421 -5.873,-6.515 -2.544,-1.094 -7.513,-1.641 -14.955,-1.641l-12.673 0c-1.165,1.403 -1.735,5.826 -1.735,13.315l0 24.085c0.095,0.333 0.404,0.666 0.903,0.975l12.673 0c5.207,0 8.869,-0.333 11.008,-1.046 2.14,-0.689 3.329,-1.997 3.567,-3.899l0.547 -4.304c0.19,-0.665 0.642,-0.974 1.402,-0.974 0.405,0 0.856,0.047 1.308,0.118l0.975 0.286 -0.214 5.777c-0.119,2.806 -0.19,5.231 -0.19,7.323 0,1.997 0.071,4.328 0.19,6.967l0.214 6.063c-0.927,0.19 -1.688,0.285 -2.283,0.285 -0.808,0 -1.26,-0.285 -1.402,-0.856l-0.547 -5.136c-0.238,-1.997 -1.522,-3.352 -3.852,-4.089 -2.306,-0.713 -5.896,-1.07 -10.723,-1.07l-12.673 0c-0.499,0.309 -0.808,0.642 -0.903,0.975l0 23.966c0,6.348 0.594,10.747 1.807,13.196 1.212,2.425 3.804,3.661 7.798,3.661l11.08 0c7.062,0 11.96,-0.475 14.694,-1.426 2.734,-0.951 5.23,-3.4 7.466,-7.299l2.282 -4.09c0.523,-0.523 0.998,-0.784 1.474,-0.784 0.19,0 0.618,0.095 1.332,0.261 0.689,0.143 1.165,0.333 1.45,0.523 -0.88,2.116 -1.807,5.445 -2.758,9.939 -0.951,4.517 -1.427,6.966 -1.427,7.394 0,0.428 -0.404,0.856 -1.236,1.331zm69.569 -7.394c0.452,0 0.761,0.119 0.856,0.38 0.119,0.262 0.19,0.642 0.19,1.165 0,0.452 -0.024,0.857 -0.071,1.165 -0.048,0.333 -0.071,0.571 -0.071,0.714 -5.516,3.709 -9.963,5.564 -13.315,5.564 -1.807,0 -3.281,-0.333 -4.446,-0.999 -1.165,-0.69 -2.188,-1.807 -3.115,-3.4 -0.903,-1.569 -1.355,-2.449 -1.355,-2.639 0,-0.191 -0.333,-0.286 -1.046,-0.286 -3.281,2.853 -6.325,4.898 -9.083,6.135 -2.758,1.26 -5.825,1.878 -9.153,1.878 -4.328,0 -7.799,-1.355 -10.462,-4.089 -2.639,-2.759 -3.971,-6.23 -3.971,-10.462 0,-5.611 2.235,-9.653 6.705,-12.078 4.446,-2.449 12.887,-5.635 25.274,-9.582 0.238,-0.238 0.476,-0.571 0.69,-1.046l0 -10.509c0,-3.686 -1.07,-6.562 -3.234,-8.679 -2.163,-2.116 -4.755,-3.162 -7.751,-3.162 -2.972,0 -5.349,0.618 -7.085,1.878 -1.736,1.237 -2.615,3.163 -2.615,5.778 0,1.427 0.095,2.52 0.261,3.234 0.143,0.713 -0.856,1.64 -3.043,2.781 -2.188,1.142 -3.876,1.712 -5.088,1.712 -1.379,0 -2.093,-0.998 -2.093,-2.996 0,-3.352 1.237,-6.157 3.709,-8.464 2.449,-2.306 5.944,-4.731 10.438,-7.275 4.518,-2.568 8.916,-3.828 13.243,-3.828 4.399,0 8.108,1.379 11.08,4.137 2.972,2.758 4.446,6.586 4.446,11.46l0 32.954c0,3.281 0.309,5.801 0.951,7.513 0.618,1.712 1.926,2.591 3.923,2.591 0.738,0 1.689,-0.261 2.854,-0.784 1.164,-0.499 1.949,-0.761 2.377,-0.761zm-42.488 -7.87c0,2.877 0.808,5.207 2.425,7.014 1.641,1.783 3.852,2.663 6.705,2.663 2.069,0 3.971,-0.38 5.707,-1.165 1.711,-0.808 3.019,-1.64 3.923,-2.52 0.903,-0.88 1.355,-2.212 1.355,-3.971l0 -16.572c-3.139,0.975 -6.729,2.306 -10.747,4.042 -4.018,1.712 -6.586,3.305 -7.703,4.755 -1.118,1.474 -1.665,3.377 -1.665,5.754zm70.401 15.05c-1.807,0 -3.447,-0.023 -4.945,-0.071 -1.522,0 -3.044,0.024 -4.518,0.071l-4.113 0.143c-2.734,0.143 -4.945,0.214 -6.61,0.214 -0.19,-0.761 -0.285,-1.474 -0.285,-2.164 0,-0.784 0.333,-1.26 0.975,-1.402l4.874 -0.832c1.95,-0.238 2.996,-1.641 3.115,-4.256 0.095,-2.592 0.166,-5.184 0.166,-7.728l0 -31.408c0,-1.593 -0.095,-2.663 -0.238,-3.21 -0.166,-0.547 -0.665,-1.07 -1.498,-1.522l-5.016 -2.662c-0.476,-0.262 -0.761,-0.476 -0.833,-0.595 -0.094,-0.119 -0.142,-0.356 -0.142,-0.713 0,-0.428 0.024,-0.761 0.071,-1.022 0.048,-0.262 0.071,-0.429 0.071,-0.523 6.777,-1.998 11.27,-3.852 13.505,-5.564 2.235,-1.736 3.757,-2.592 4.589,-2.592 0.333,0 0.69,0.143 1.046,0.428l0.428 11.151c0.19,0.167 0.547,0.262 1.118,0.262l3.614 -3.9c1.807,-1.997 3.994,-3.637 6.538,-4.969 2.568,-1.331 5.302,-1.997 8.227,-1.997 1.949,0 3.59,0.428 4.921,1.26 1.308,0.832 1.974,2.14 1.974,3.899 0,1.998 -0.523,3.995 -1.593,5.992 -1.07,1.997 -2.449,2.996 -4.114,2.996 -1.212,0 -2.734,-0.69 -4.564,-2.045 -1.831,-1.379 -3.662,-2.068 -5.469,-2.068 -1.997,0 -3.733,0.665 -5.231,1.949 -1.474,1.308 -2.686,2.616 -3.614,3.947 -0.927,1.308 -1.403,3.043 -1.403,5.183l0 27.723c0,4.09 0.191,6.99 0.523,8.702 0.357,1.736 1.403,2.735 3.187,2.996l7.442 0.975c0.641,0.143 0.974,0.618 0.974,1.403 0,0.784 -0.095,1.545 -0.285,2.306 -1.807,0 -4.375,-0.071 -7.727,-0.214l-5.16 -0.143zm73.445 -5.444c0,1.45 -2.14,3.138 -6.42,5.064 -4.256,1.926 -8.321,2.877 -12.173,2.877 -5.397,0 -9.344,-1.403 -11.817,-4.208 -2.496,-2.806 -3.733,-7.538 -3.733,-14.171l0 -35.522c0,-1.45 -0.071,-2.377 -0.238,-2.782 -0.166,-0.427 -0.57,-0.641 -1.212,-0.641l-4.684 0c-0.499,0 -0.927,-0.238 -1.236,-0.69 -0.333,-0.475 -0.5,-0.998 -0.5,-1.593 4.565,-3.638 8.489,-7.276 11.817,-10.913 3.305,-3.638 5.16,-5.849 5.564,-6.61 0.404,-0.761 0.951,-1.165 1.64,-1.165 0.476,0 0.975,0.285 1.522,0.856 -0.166,4.351 -0.262,8.25 -0.262,11.698 0.143,0.261 0.452,0.594 0.975,0.975l18.308 0c0.475,0.19 0.737,0.452 0.832,0.784 0.095,0.357 0.143,1.284 0.143,2.758 0,1.641 -0.048,2.639 -0.167,3.044 -0.119,0.38 -0.38,0.665 -0.808,0.856l-18.45 0c-0.428,0.285 -0.69,0.618 -0.833,0.974l0 37.353c0,4.161 0.856,7.085 2.568,8.773 1.712,1.665 4.541,2.497 8.441,2.497 1.617,0 3.305,-0.214 5.064,-0.666 1.783,-0.428 3.305,-1.022 4.613,-1.759 0.356,0.451 0.642,0.879 0.808,1.236 0.143,0.38 0.238,0.713 0.238,0.975zm6.943 2.235l4.327 -0.832c1.949,-0.333 2.972,-1.831 3.091,-4.494 0.119,-2.663 0.19,-5.16 0.19,-7.49l0 -68.808c0,-2.901 -0.119,-5.064 -0.333,-6.562 -0.19,-1.474 -0.999,-2.615 -2.401,-3.4l-4.447 -2.449c-0.237,-0.095 -0.38,-0.214 -0.451,-0.357 -0.072,-0.119 -0.119,-0.333 -0.119,-0.618 0,-0.285 0.047,-0.594 0.119,-0.975 0.071,-0.38 0.118,-0.57 0.166,-0.618 5.445,-1.26 9.796,-2.758 13.101,-4.494 3.305,-1.759 5.326,-2.615 6.063,-2.615 0.356,0 0.689,0.143 0.975,0.404 -0.191,7.062 -0.286,12.102 -0.286,15.122l0 35.26c0.19,0.166 0.571,0.261 1.118,0.261 4.779,-3.804 8.702,-6.253 11.769,-7.347 3.067,-1.093 6.443,-1.64 10.105,-1.64 4.28,0 7.893,0.927 10.866,2.758 2.972,1.831 5.064,4.09 6.276,6.8 1.189,2.687 1.808,7.157 1.808,13.434l0 25.844c0,2.33 0.047,4.827 0.166,7.49 0.119,2.663 1.141,4.161 3.091,4.494l4.327 0.832c0.642,0.142 0.975,0.618 0.975,1.402 0,0.69 -0.095,1.403 -0.285,2.164 -1.522,0 -3.543,-0.071 -6.063,-0.214l-3.757 -0.143c-1.427,0 -2.877,-0.023 -4.303,-0.071 -1.498,0 -2.973,0.024 -4.47,0.071l-3.971 0.143c-2.497,0.143 -4.541,0.214 -6.134,0.214 -0.167,-0.761 -0.262,-1.474 -0.262,-2.164 0,-0.784 0.309,-1.26 0.975,-1.402l4.161 -0.69c1.949,-0.428 2.996,-1.95 3.115,-4.565 0.118,-2.615 0.166,-5.135 0.166,-7.561l0 -24.727c0,-5.897 -1.284,-10.01 -3.852,-12.34 -2.591,-2.306 -5.92,-3.471 -10.01,-3.471 -4.137,0 -7.632,0.927 -10.485,2.758 -2.853,1.831 -4.446,2.972 -4.803,3.448 -0.356,0.451 -0.523,1.521 -0.523,3.209l0 31.123c0,2.426 0.071,4.946 0.167,7.561 0.119,2.615 1.165,4.137 3.114,4.565l4.114 0.69c0.689,0.142 1.046,0.618 1.046,1.402 0,0.69 -0.095,1.403 -0.286,2.164 -1.545,0 -3.566,-0.071 -6.063,-0.214l-3.756 -0.143c-1.45,0 -2.877,-0.023 -4.327,-0.071 -1.475,0 -2.949,0.024 -4.375,0.071l-3.971 0.143c-2.568,0.143 -4.684,0.214 -6.348,0.214 -0.19,-0.761 -0.285,-1.474 -0.285,-2.164 0,-0.784 0.332,-1.26 0.975,-1.402z"/>
   <path class="fil3" d="M670.034 346.96c-0.959,-0.036 -1.664,-0.055 -2.118,-0.055 -0.469,0 -1.228,0.019 -2.273,0.055l-1.082 0.027c-0.037,-0.145 -0.055,-0.282 -0.055,-0.414 0,-0.09 0.014,-0.159 0.041,-0.209 0.027,-0.045 0.077,-0.086 0.15,-0.113l0.982 -0.159c0.409,-0.069 0.636,-0.332 0.686,-0.791 0.05,-0.46 0.073,-1.146 0.073,-2.073l0 -11.001c0,-0.886 -0.023,-1.514 -0.073,-1.882 -0.05,-0.368 -0.113,-0.618 -0.19,-0.755l-1.746 0c-1.377,0 -2.282,0.082 -2.718,0.242 -0.432,0.159 -0.741,0.55 -0.919,1.172l-0.213 0.759c-0.028,0.087 -0.059,0.155 -0.105,0.191 -0.045,0.041 -0.113,0.064 -0.2,0.064l-0.118 0.014c-0.127,0 -0.246,-0.023 -0.364,-0.069 0.046,-0.577 0.091,-1.3 0.141,-2.163 0.05,-0.869 0.073,-1.501 0.073,-1.9 0.055,-0.028 0.159,-0.041 0.323,-0.041 0.195,0 0.309,0.086 0.345,0.25 0.036,0.163 0.109,0.272 0.218,0.331 0.114,0.06 1.214,0.087 3.31,0.087l7.177 0c2.15,0 3.269,-0.027 3.351,-0.087 0.086,-0.059 0.154,-0.154 0.204,-0.286l0.068 -0.145c0.037,-0.101 0.128,-0.15 0.282,-0.15 0.159,0 0.255,0.013 0.291,0.041 0,2.018 0.027,3.372 0.082,4.063 -0.127,0.037 -0.245,0.055 -0.359,0.055l-0.123 0c-0.086,0 -0.155,-0.023 -0.2,-0.064 -0.041,-0.036 -0.077,-0.104 -0.104,-0.191l-0.214 -0.759c-0.177,-0.632 -0.455,-1.023 -0.832,-1.177 -0.377,-0.159 -1.255,-0.237 -2.632,-0.237l-1.691 0c-0.077,0.119 -0.141,0.369 -0.186,0.76 -0.046,0.391 -0.068,1.018 -0.068,1.877l0 11.001c0,0.863 0.022,1.536 0.068,2.018 0.045,0.487 0.282,0.768 0.704,0.846l0.973 0.159c0.073,0.027 0.123,0.068 0.155,0.113 0.032,0.05 0.045,0.119 0.045,0.209 0,0.16 -0.023,0.296 -0.064,0.414 -0.481,-0.018 -0.845,-0.027 -1.095,-0.027zm27.62 -0.041c-0.346,0 -0.741,-0.005 -1.182,-0.014 -0.473,0 -1.232,0.019 -2.277,0.055l-1.082 0.027c-0.032,-0.145 -0.05,-0.282 -0.05,-0.414 0,-0.159 0.05,-0.268 0.159,-0.322l0.986 -0.159c0.318,-0.05 0.527,-0.21 0.632,-0.473 0.1,-0.259 0.155,-0.7 0.155,-1.309 0,-0.169 -0.009,-0.532 -0.028,-1.082l-0.295 -10.892 -0.055 0 -6.246 14.783c-0.095,0.064 -0.263,0.091 -0.504,0.091 -0.241,0 -0.409,-0.027 -0.505,-0.091l-6.741 -14.637 -0.05 0 -0.109 9.214 0 0.695c0,1.391 0.068,2.332 0.2,2.823 0.132,0.487 0.45,0.782 0.945,0.878l0.932 0.159c0.073,0.027 0.123,0.068 0.15,0.113 0.023,0.05 0.037,0.119 0.037,0.209 0,0.132 -0.019,0.269 -0.051,0.414l-1.095 -0.041c-0.168,0 -0.418,-0.009 -0.759,-0.022 -0.336,-0.014 -0.655,-0.019 -0.959,-0.019 -0.227,0 -0.509,0.005 -0.846,0.014 -0.332,0.009 -0.613,0.018 -0.845,0.027l-1.009 0.041 -0.041 -0.164c-0.028,-0.077 -0.041,-0.163 -0.041,-0.25 0,-0.149 0.063,-0.259 0.186,-0.322l0.8 -0.132c0.4,-0.086 0.668,-0.405 0.805,-0.946 0.136,-0.54 0.232,-1.691 0.286,-3.45l0.268 -9.869c0,-0.859 -0.104,-1.509 -0.313,-1.95 -0.209,-0.436 -0.505,-0.682 -0.887,-0.723l-0.704 -0.081c-0.132,-0.028 -0.2,-0.128 -0.2,-0.305 0,-0.154 0.018,-0.309 0.054,-0.468l0.809 0.041c0.146,0 0.341,0.004 0.596,0.018 0.25,0.014 0.477,0.023 0.673,0.023 1.109,0 1.782,-0.023 2.023,-0.068 0.24,-0.046 0.431,0 0.572,0.131 0.577,1.441 1.014,2.491 1.305,3.159l5.287 11.92 0.054 0 4.941 -11.92c0.646,-1.59 1.023,-2.55 1.132,-2.877 0.105,-0.327 0.278,-0.468 0.514,-0.418 0.232,0.045 0.855,0.073 1.868,0.073 1.023,0 1.732,-0.028 2.132,-0.082 0.037,0.159 0.055,0.314 0.055,0.468 0,0.177 -0.064,0.277 -0.187,0.305l-0.732 0.081c-0.399,0.041 -0.668,0.241 -0.8,0.596 -0.136,0.355 -0.199,0.9 -0.199,1.627 0,0.25 0.004,0.441 0.013,0.587l0.346 11.237c0.018,0.927 0.063,1.613 0.14,2.073 0.073,0.459 0.328,0.722 0.764,0.791l0.878 0.159c0.072,0.027 0.122,0.068 0.149,0.113 0.028,0.05 0.037,0.119 0.037,0.209 0,0.132 -0.014,0.269 -0.05,0.414l-2.041 -0.068z"/>
  </g>
 </g>
</svg>
