<?xml version="1.0" encoding="UTF-8"?>
<!DOCTYPE svg PUBLIC "-//W3C//DTD SVG 1.1//EN" "http://www.w3.org/Graphics/SVG/1.1/DTD/svg11.dtd">
<!-- Creator: CorelDRAW 2019 (64-Bit) -->
<svg xmlns="http://www.w3.org/2000/svg" xml:space="preserve" width="512px" height="512px" version="1.1" style="shape-rendering:geometricPrecision; text-rendering:geometricPrecision; image-rendering:optimizeQuality; fill-rule:evenodd; clip-rule:evenodd"
viewBox="0 0 512 512"
 xmlns:xlink="http://www.w3.org/1999/xlink">
 <defs>
  <style type="text/css">
   <![CDATA[
    .fil0 {fill:none}
    .fil1 {fill:#293445}
   ]]>
  </style>
 </defs>
 <g id="Layer_x0020_1">
  <metadata id="CorelCorpID_0Corel-Layer"/>
  <rect class="fil0" width="512" height="512"/>
  <path class="fil1" d="M233.714 457.656c0,-18.053 23.255,-30.491 38.076,-15.67 20.621,20.621 -10.719,51.963 -31.34,31.341 -3.028,-3.029 -6.736,-10.057 -6.736,-15.671zm175.516 -97.094c0,-9.233 0.755,-18.987 12.493,-23.917 31.557,-13.252 45.245,37.836 11.404,42.28 -12.062,1.584 -23.897,-9.479 -23.897,-18.363zm-326.759 18.673c-24.739,0 -32.262,-32.943 -10.007,-42.683 26.948,-11.795 43.763,28.443 18.702,40.174 -1.201,0.563 -7.636,2.509 -8.695,2.509zm151.243 -123.235c0,-18.053 23.255,-30.491 38.076,-15.67 20.621,20.621 -10.719,51.961 -31.34,31.34 -3.028,-3.027 -6.736,-10.057 -6.736,-15.67zm-14.938 -2.801l0 5.602c0,15.128 15.637,33.292 29.875,33.609l0 128.837c-10.118,0.225 -16.457,8.47 -20.539,11.203l-111.098 -63.485c4.333,-18.597 -0.041,-35.469 -17.423,-45.128 -8.398,-4.667 -11.519,-1.998 -11.519,-6.219l0 -123.235c0,-3.282 1.939,-2.563 4.875,-3.529 5.862,-1.927 12.315,-5.472 15.665,-10.475 30.796,16.295 65.955,38.167 97.381,55.728 3.613,2.019 11.194,6.951 14.651,7.756 -1.152,2.401 -1.868,5.69 -1.868,9.336zm204.458 67.219c-14.265,1.187 -29.875,17.83 -29.875,34.543 0,5.097 -0.256,9.58 1.867,14.004l-111.098 63.485c-4.082,-2.733 -10.421,-10.978 -20.54,-11.203l0 -128.837c14.239,-0.317 29.876,-18.481 29.876,-33.609 0,-5.339 0.348,-10.321 -1.868,-14.938 4.996,-1.163 58.678,-33.348 69.731,-39.499l42.301 -23.985c6.228,9.3 16.829,10.356 20.54,12.137 0,21.543 -0.934,41.229 -0.934,63.484 0,21.473 0,42.946 0,64.418zm-364.102 -165.246c0,-9.151 5.85,-17.003 13.332,-20.277 16.719,-7.317 30.546,7.501 30.546,16.543 0,8.029 -0.149,14.267 -6.778,20.296 -13.869,12.612 -37.1,2.59 -37.1,-16.562zm370.637 -22.407c31.702,0 29.348,44.813 0.933,44.813 -22.755,0 -30.939,-32.328 -9.628,-42.304 1.202,-0.563 7.636,-2.509 8.695,-2.509zm-312.755 10.271c34.975,-18.507 76.294,-45.069 111.098,-63.486 9.358,6.267 9.618,12.137 30.809,12.137 5.608,0 10.742,-1.936 14.648,-4.023 5.471,-2.926 6.488,-5.387 10.559,-8.114 35.371,18.717 76.529,45.193 111.098,63.486 -2.611,11.205 -2.611,13.067 0,24.273l-111.098 63.484c-10.092,-6.757 -9.61,-12.137 -30.809,-12.137 -13.676,0 -20.091,8.711 -25.207,12.137 -35.442,-18.753 -75.984,-44.904 -111.098,-63.484 2.614,-5.446 2.614,-18.828 0,-24.273zm116.7 -88.692c0,-15.499 18.374,-29.451 34.967,-18.163 12.02,8.178 11.926,25.015 3.109,33.833 -8.817,8.817 -25.655,8.91 -33.832,-3.109 -1.816,-2.67 -4.244,-8.681 -4.244,-12.561zm-14.938 -2.8c0,5.339 -0.348,10.32 1.868,14.936 -5.399,1.258 -97.226,55.651 -112.032,63.485 -13.514,-20.183 -61.334,-17.349 -64.712,23.057 -0.763,9.14 2.851,19.111 7.949,25.305 2.721,3.308 5.062,5.522 8.744,8.059 3.181,2.192 8.061,4.823 12.543,5.196l0 128.836c-6.174,0.514 -12.786,4.903 -17.172,8.97 -24.988,23.165 -7.222,64.784 22.773,64.784 21.198,0 20.717,-5.379 30.809,-12.136 16.045,10.744 74.656,42.663 96.558,55.618 2.739,1.621 4.735,2.627 7.123,4.08 2.631,1.598 4.238,3.045 7.417,3.786 -2.216,4.616 -1.868,9.598 -1.868,14.937 0,17.223 17.321,34.544 34.543,34.544l5.602 0c17.223,0 34.543,-17.321 34.543,-34.544 0,-5.339 0.348,-10.321 -1.868,-14.937 3.926,-0.915 51.99,-29.034 56.196,-31.563 2.332,-1.402 4.207,-2.328 6.541,-3.728l49.295 -28.193c10.52,15.71 39.166,16.432 53.94,1.658 22.976,-22.975 4.715,-62.739 -19.397,-63.276 0,-11.541 0.937,-19.561 0.934,-30.808l0 -98.028c7.037,-0.586 15.319,-6.329 19.082,-10.792 3.311,-3.924 3.819,-4.005 6.149,-8.788 7.08,-14.532 4.21,-32.719 -6.768,-43.696 -14.516,-14.517 -43.387,-14.101 -53.94,1.659l-55.969 -31.79c-9.178,-5.25 -18.19,-10.759 -27.767,-16.112 -4.161,-2.325 -24.37,-14.668 -28.296,-15.583 2.216,-4.616 1.868,-9.597 1.868,-14.936 0,-17.223 -17.32,-34.544 -34.543,-34.544l-5.602 0c-17.222,0 -34.543,17.321 -34.543,34.544z"/>
 </g>
</svg>
