<?xml version="1.0" encoding="UTF-8"?>
<!DOCTYPE svg PUBLIC "-//W3C//DTD SVG 1.1//EN" "http://www.w3.org/Graphics/SVG/1.1/DTD/svg11.dtd">
<!-- Creator: CorelDRAW 2019 (64-Bit) -->
<svg xmlns="http://www.w3.org/2000/svg" xml:space="preserve" width="512px" height="512px" version="1.1" style="shape-rendering:geometricPrecision; text-rendering:geometricPrecision; image-rendering:optimizeQuality; fill-rule:evenodd; clip-rule:evenodd"
viewBox="0 0 512 512"
 xmlns:xlink="http://www.w3.org/1999/xlink">
 <defs>
  <style type="text/css">
   <![CDATA[
    .str0 {stroke:#999999;stroke-width:0.567;stroke-miterlimit:22.9256}
    .fil0 {fill:none}
    .fil2 {fill:#293445}
    .fil1 {fill:white}
   ]]>
  </style>
 </defs>
 <g id="Layer_x0020_1">
  <metadata id="CorelCorpID_0Corel-Layer"/>
  <rect class="fil0" width="512" height="512"/>
  <rect class="fil0" width="512" height="512"/>
  <circle class="fil1 str0" cx="256" cy="256" r="236.074"/>
  <path class="fil2" d="M237.76 421.042c0,-14.775 19.033,-24.955 31.163,-12.824 16.877,16.877 -8.773,42.528 -25.65,25.65 -2.478,-2.479 -5.513,-8.231 -5.513,-12.826zm143.649 -79.465c0,-7.557 0.618,-15.539 10.225,-19.574 25.827,-10.846 37.03,30.965 9.333,34.603 -9.872,1.296 -19.558,-7.758 -19.558,-15.029zm-267.432 15.283c-20.246,0 -26.404,-26.962 -8.189,-34.934 22.055,-9.653 35.817,23.279 15.306,32.881 -0.983,0.46 -6.249,2.053 -7.117,2.053zm123.783 -100.86c0,-14.775 19.033,-24.955 31.163,-12.825 16.877,16.877 -8.773,42.527 -25.65,25.65 -2.478,-2.478 -5.513,-8.231 -5.513,-12.825zm-12.226 -2.292l0 4.584c0,12.381 12.798,27.248 24.452,27.507l0 105.445c-8.281,0.184 -13.47,6.932 -16.811,9.169l-90.926 -51.959c3.546,-15.22 -0.033,-29.029 -14.26,-36.934 -6.873,-3.819 -9.427,-1.635 -9.427,-5.09l0 -100.86c0,-2.686 1.586,-2.097 3.99,-2.888 4.797,-1.577 10.079,-4.479 12.82,-8.573 25.205,13.336 53.981,31.237 79.701,45.61 2.956,1.652 9.161,5.689 11.99,6.348 -0.942,1.964 -1.529,4.656 -1.529,7.641zm167.336 55.014c-11.674,0.971 -24.45,14.592 -24.45,28.271 0,4.172 -0.21,7.841 1.527,11.461l-90.926 51.959c-3.341,-2.237 -8.529,-8.985 -16.81,-9.169l0 -105.445c11.653,-0.259 24.451,-15.126 24.451,-27.507 0,-4.37 0.284,-8.447 -1.529,-12.225 4.088,-0.953 48.024,-27.294 57.071,-32.328l34.62 -19.63c5.097,7.611 13.773,8.476 16.811,9.933 0,17.632 -0.765,33.743 -0.765,51.958 0,17.574 0,35.148 0,52.722zm-297.994 -135.244c0,-7.489 4.788,-13.915 10.912,-16.595 13.683,-5.988 25,6.139 25,13.54 0,6.57 -0.122,11.677 -5.548,16.61 -11.351,10.323 -30.364,2.12 -30.364,-13.555zm303.343 -18.338c25.946,0 24.019,36.677 0.763,36.677 -18.623,0 -25.321,-26.459 -7.88,-34.624 0.984,-0.46 6.25,-2.053 7.117,-2.053zm-255.97 8.406c28.625,-15.146 62.442,-36.886 90.926,-51.959 7.66,5.129 7.872,9.933 25.215,9.933 4.59,0 8.792,-1.584 11.989,-3.293 4.478,-2.394 5.31,-4.408 8.642,-6.64 28.949,15.318 62.634,36.988 90.926,51.959 -2.137,9.171 -2.137,10.695 0,19.866l-90.926 51.957c-8.26,-5.53 -7.865,-9.933 -25.215,-9.933 -11.193,0 -16.443,7.13 -20.631,9.933 -29.007,-15.348 -62.188,-36.751 -90.926,-51.957 2.139,-4.458 2.139,-15.41 0,-19.866zm95.511 -72.589c0,-12.685 15.039,-24.104 28.618,-14.865 9.838,6.694 9.761,20.473 2.545,27.69 -7.216,7.217 -20.997,7.292 -27.689,-2.545 -1.487,-2.185 -3.474,-7.104 -3.474,-10.28zm-12.226 -2.292c0,4.37 -0.284,8.447 1.529,12.225 -4.418,1.03 -79.573,45.547 -91.691,51.958 -11.06,-16.518 -50.198,-14.199 -52.962,18.87 -0.625,7.481 2.333,15.642 6.505,20.711 2.227,2.707 4.143,4.52 7.157,6.596 2.603,1.794 6.597,3.948 10.265,4.253l0 105.444c-5.053,0.421 -10.464,4.013 -14.054,7.341 -20.451,18.959 -5.91,53.022 18.639,53.022 17.349,0 16.955,-4.403 25.215,-9.933 13.131,8.794 61.101,34.918 79.026,45.52 2.242,1.326 3.875,2.15 5.83,3.339 2.153,1.308 3.468,2.493 6.07,3.099 -1.813,3.778 -1.529,7.855 -1.529,12.225 0,14.095 14.176,28.271 28.272,28.271l4.584 0c14.096,0 28.272,-14.176 28.272,-28.271 0,-4.37 0.284,-8.447 -1.529,-12.225 3.213,-0.749 42.551,-23.763 45.993,-25.832 1.909,-1.148 3.443,-1.905 5.353,-3.051l40.345 -23.075c8.61,12.858 32.055,13.449 44.146,1.357 18.805,-18.803 3.859,-51.347 -15.875,-51.787 0,-9.446 0.767,-16.01 0.764,-25.215l0 -80.229c5.76,-0.479 12.538,-5.18 15.618,-8.833 2.71,-3.212 3.126,-3.278 5.033,-7.192 5.794,-11.894 3.445,-26.778 -5.54,-35.762 -11.88,-11.882 -35.509,-11.541 -44.146,1.357l-45.807 -26.017c-7.512,-4.298 -14.887,-8.807 -22.725,-13.187 -3.406,-1.904 -19.946,-12.005 -23.159,-12.754 1.813,-3.778 1.529,-7.855 1.529,-12.225 0,-14.095 -14.176,-28.271 -28.272,-28.271l-4.584 0c-14.096,0 -28.272,14.176 -28.272,28.271z"/>
 </g>
</svg>
