<?xml version="1.0" encoding="UTF-8"?>
<!DOCTYPE svg PUBLIC "-//W3C//DTD SVG 1.1//EN" "http://www.w3.org/Graphics/SVG/1.1/DTD/svg11.dtd">
<!-- Creator: CorelDRAW 2019 (64-Bit) -->
<svg xmlns="http://www.w3.org/2000/svg" xml:space="preserve" width="512px" height="512px" version="1.1" style="shape-rendering:geometricPrecision; text-rendering:geometricPrecision; image-rendering:optimizeQuality; fill-rule:evenodd; clip-rule:evenodd"
viewBox="0 0 512 512"
 xmlns:xlink="http://www.w3.org/1999/xlink">
 <defs>
  <style type="text/css">
   <![CDATA[
    .str1 {stroke:#BABABD;stroke-width:0.225;stroke-miterlimit:22.9256}
    .str0 {stroke:#999999;stroke-width:0.567;stroke-miterlimit:22.9256}
    .fil0 {fill:none}
    .fil7 {fill:none;fill-rule:nonzero}
    .fil4 {fill:#2B2E34}
    .fil5 {fill:#47494F}
    .fil8 {fill:#6F7175}
    .fil3 {fill:#9A9B9F}
    .fil2 {fill:white}
    .fil1 {fill:white}
    .fil6 {fill:white;fill-rule:nonzero}
   ]]>
  </style>
     <clipPath id="id0">
      <path d="M256 81.489c76.195,0 137.643,61.448 137.643,137.642 0,76.195 -61.448,137.643 -137.643,137.643 -76.195,0 -137.642,-61.448 -137.642,-137.643 0,-76.195 61.447,-137.642 137.642,-137.642z"/>
     </clipPath>
     <clipPath id="id1">
      <path d="M256 81.489c76.195,0 137.643,61.448 137.643,137.642 0,76.195 -61.448,137.643 -137.643,137.643 -76.195,0 -137.642,-61.448 -137.642,-137.643 0,-76.195 61.447,-137.642 137.642,-137.642z"/>
     </clipPath>
 </defs>
 <g id="Layer_x0020_1">
  <metadata id="CorelCorpID_0Corel-Layer"/>
  <rect class="fil0" width="512" height="512"/>
  <circle class="fil1 str0" cx="256" cy="256" r="236.074"/>
  <g id="_1835927951280">
   <path class="fil2" d="M256 62.645c106.509,0 193.355,86.846 193.355,193.355 0,106.509 -86.845,193.355 -193.355,193.355 -106.509,0 -193.355,-86.845 -193.355,-193.355 0,-106.509 86.846,-193.355 193.355,-193.355z"/>
   <g>
    <g>
     <path class="fil0" d="M136.382 379.715c0,17.205 53.255,30.314 119.618,30.314 66.364,0 119.618,-13.109 119.618,-30.314l0 21.302c0,17.205 -53.254,29.494 -119.618,29.494 -66.363,0 -119.618,-13.928 -119.618,-30.314l0 -20.482z"/>
     <g>
      <g>
       <ellipse class="fil3" cx="256" cy="380.534" rx="119.618" ry="30.314"/>
       <path class="fil4" d="M335.472 402.655l0.82 0c24.579,-4.916 39.326,-13.109 39.326,-22.121l0 21.301c0,9.013 -15.567,16.387 -40.146,22.122l0 0 0 -21.302z"/>
       <path class="fil5" d="M283.856 410.029l0 0c19.663,-1.639 37.688,-4.097 51.616,-7.374l0 21.302c-13.928,2.458 -31.953,4.916 -51.616,5.735l0 0 0 -19.663z"/>
       <path class="fil4" d="M231.421 410.029l0.82 0c7.373,0 15.566,0.819 23.759,0.819 9.832,0 18.844,-0.819 27.856,-0.819l0 19.663c-9.012,0.819 -18.024,0.819 -27.856,0.819 -8.193,0 -16.386,0 -24.579,0l0 0 0 -20.482z"/>
       <path class="fil5" d="M180.624 403.474l0 0.82c14.748,2.458 31.953,4.915 50.797,5.735l0 20.482c-18.844,-1.638 -36.049,-3.277 -50.797,-6.554l0 0 0 -20.483z"/>
       <path class="fil4" d="M136.382 380.534c0,9.012 17.206,18.025 44.242,22.94l0 20.483c-27.037,-5.735 -44.242,-13.928 -44.242,-23.76l0 -19.663z"/>
      </g>
      <g>
       <path class="fil6" d="M157.684 411.667c-0.819,0 -1.639,0.82 -2.458,0.82 -1.639,0 -2.458,-0.82 -3.277,-1.639 -0.82,-1.639 -1.639,-2.458 -1.639,-4.916 0,-1.639 0.819,-3.277 1.639,-4.097 0.819,-1.638 1.639,-1.638 3.277,-1.638 1.639,0 2.458,0 2.458,0l0 2.458c0,0 -0.819,-0.82 -1.639,-0.82 -1.638,0 -1.638,0.82 -2.458,1.639 -0.819,0.82 -0.819,1.639 -0.819,2.458 0,1.639 0,2.458 0.819,2.458 0,0.82 0.82,1.639 1.639,1.639 0.819,0 1.639,-0.819 2.458,-0.819l0 2.458 0 -0.001z"/>
       <path class="fil6" d="M202.746 422.318l0 -2.458c0,0 0.819,0.819 1.638,0.819 0,0 0.82,0 0.82,0 0.819,0 0.819,0 0.819,0 0,0 0.819,0 0.819,0 0,0 0,0 0,0 0,-0.819 0,-0.819 0,-0.819 0,0 0,-0.819 0,-0.819 0,0 0,0 0,0 -0.819,-0.82 -0.819,-0.82 -0.819,-0.82 -0.819,0 -0.819,0 -0.819,0 -0.82,-0.819 -1.639,-1.638 -1.639,-1.638 -0.819,-0.82 -0.819,-1.639 -0.819,-2.459 0,0 0,-0.819 0,-1.638 0.819,0 0.819,-0.819 0.819,-0.819 0.819,0 0.819,0 1.639,-0.82 0,0 0.819,0 1.638,0 0,0 0.82,0 0.82,0 0.819,0 0.819,0 1.639,0.82l0 2.457c-0.82,-0.819 -0.82,-0.819 -0.82,-0.819 0,0 -0.819,0 -0.819,0 0,0 0,0 -0.82,0 0,0 0,0 0,0 -0.819,0 -0.819,0 -0.819,0 0,0 -0.819,0 -0.819,0 0,0 0,0 0,0.819 0,0 0,0 0,0 0,0 0,0.82 0,0.82 0,0 0,0 0,0 0.819,0 0.819,0.819 0.819,0.819 0,0 0.819,0 0.819,0 0.82,0.82 0.82,0.82 0.82,0.82 0.819,0 0.819,0.819 0.819,0.819 0.82,0 0.82,0.819 0.82,0.819 0,0.82 0,0.82 0,1.639 0,0 0,0.819 0,1.639 0,0 -0.82,0.819 -0.82,0.819 -0.819,0 -0.819,0.82 -1.639,0.82 0,0 -0.819,0 -1.638,0 0,0 -0.82,0 -0.82,0 -0.819,0 -1.638,-0.82 -1.638,-0.82z"/>
       <polygon class="fil6" points="260.916,416.583 256.819,416.583 256.819,419.86 260.097,419.86 260.097,421.499 256.819,421.499 256.819,426.415 255.181,426.415 255.181,414.125 260.916,414.125 "/>
       <path class="fil6" d="M306.797 422.318l0 -11.47 3.277 0c4.096,0 5.735,1.639 5.735,5.735 0,1.639 -0.819,3.277 -1.639,4.096 -0.819,0.82 -2.458,1.639 -4.096,1.639l-3.277 0zm2.458 -9.831l0 7.373 0.819 0c0.819,0 1.639,0 2.458,-0.819 0.819,-0.819 0.819,-1.639 0.819,-2.458 0,-1.639 0,-2.458 -0.819,-2.458 -0.819,-0.819 -1.639,-1.639 -2.458,-1.639l-0.819 0 0 0.001z"/>
       <polygon class="fil6" points="360.051,412.487 357.593,412.487 357.593,401.017 360.051,401.017 "/>
      </g>
     </g>
     <path class="fil7" d="M136.382 352.678c0,17.205 53.255,30.314 119.618,30.314 66.364,0 119.618,-13.109 119.618,-30.314l0 21.301c0,17.206 -53.254,29.495 -119.618,29.495 -66.363,0 -119.618,-13.928 -119.618,-30.314l0 -20.482z"/>
     <ellipse class="fil8" cx="256" cy="375.618" rx="119.618" ry="30.314"/>
     <ellipse class="fil3" cx="256" cy="353.497" rx="119.618" ry="30.314"/>
     <path class="fil5" d="M335.472 375.618l0.82 0c24.579,-4.916 39.326,-13.108 39.326,-22.121l0 21.302c0,9.012 -15.567,16.386 -40.146,21.302l0 0.819 0 -21.302z"/>
     <path class="fil4" d="M283.856 382.992l0 0c19.663,-1.639 37.688,-4.097 51.616,-7.374l0 21.302c-13.928,2.458 -31.953,4.915 -51.616,5.735l0 0 0 -19.663z"/>
     <path class="fil5" d="M231.421 382.992l0.82 0c7.373,0 15.566,0.819 23.759,0.819 9.832,0 18.844,-0.819 27.856,-0.819l0 19.663c-9.012,0.819 -18.024,0.819 -27.856,0.819 -8.193,0 -16.386,0 -24.579,0l0 0 0 -20.482z"/>
     <path class="fil4" d="M180.624 376.438l0 0.819c14.748,2.458 31.953,4.916 50.797,5.735l0 20.482c-18.844,-1.638 -36.049,-3.276 -50.797,-6.554l0 0 0 -20.482z"/>
     <path class="fil5" d="M136.382 353.497c0,9.012 17.206,18.024 44.242,22.94l0 20.483c-27.037,-5.735 -44.242,-13.928 -44.242,-23.76l0 -19.663z"/>
     <path class="fil0" d="M136.382 325.641c0,17.205 53.255,30.314 119.618,30.314 66.364,0 119.618,-13.109 119.618,-30.314l0 21.302c0,17.205 -53.254,29.495 -119.618,29.495 -66.363,0 -119.618,-13.928 -119.618,-30.315l0 -20.482z"/>
     <ellipse class="fil8" cx="256" cy="348.581" rx="119.618" ry="30.314"/>
     <ellipse class="fil3" cx="256" cy="326.46" rx="119.618" ry="30.314"/>
     <path class="fil4" d="M335.472 348.581l0.82 0c24.579,-4.916 39.326,-13.109 39.326,-22.121l0 21.302c0,9.012 -15.567,16.386 -40.146,21.302l0 0 0 -20.483z"/>
     <path class="fil5" d="M283.856 355.955l0 0c19.663,-1.639 37.688,-4.097 51.616,-7.374l0 20.483c-13.928,3.277 -31.953,5.735 -51.616,6.554l0 0 0 -19.663z"/>
     <path class="fil4" d="M231.421 355.955l0.82 0c7.373,0 15.566,0.819 23.759,0.819 9.832,0 18.844,-0.819 27.856,-0.819l0 19.663c-9.012,0.82 -18.024,0.82 -27.856,0.82 -8.193,0 -16.386,0 -24.579,0l0 -0.82 0 -19.663z"/>
     <path class="fil5" d="M180.624 349.4l0 0c14.748,3.278 31.953,5.736 50.797,6.555l0 19.663c-18.844,-0.819 -36.049,-2.458 -50.797,-5.735l0 0 0 -20.483z"/>
     <path class="fil4" d="M136.382 326.46c0,9.012 17.206,18.025 44.242,22.94l0 20.483c-27.037,-5.735 -44.242,-13.928 -44.242,-23.76l0 -19.663z"/>
     <path class="fil0" d="M136.382 298.604c0,17.205 53.255,30.314 119.618,30.314 66.364,0 119.618,-13.109 119.618,-30.314l0 21.302c0,17.205 -53.254,29.494 -119.618,29.494 -66.363,0 -119.618,-13.928 -119.618,-30.314l0 -20.482z"/>
    </g>
    <g>
    </g>
    <g style="clip-path:url(#id0)">
     <g>
      <polygon class="fil2" points="118.358,81.489 393.643,81.489 393.643,356.774 118.358,356.774 "/>
     </g>
    </g>
    <path class="fil0" d="M256 81.489c76.195,0 137.643,61.448 137.643,137.642 0,76.195 -61.448,137.643 -137.643,137.643 -76.195,0 -137.642,-61.448 -137.642,-137.643 0,-76.195 61.447,-137.642 137.642,-137.642z"/>
    <g>
    </g>
    <g style="clip-path:url(#id1)">
     <g id="_1999661103408">
      <path id="_1" class="fil3" d="M126.551 173.251c9.012,-1.639 13.108,17.205 13.108,22.94 0,31.953 -9.831,16.386 20.483,28.676 17.205,7.374 -9.013,25.398 40.965,22.94 4.916,0 4.916,6.555 19.663,7.374 13.109,0.819 4.916,14.747 0.82,20.482 -0.82,1.639 -5.736,22.941 0.819,22.941 13.928,0 35.23,6.554 35.23,22.94 0,2.458 4.916,28.675 5.735,28.675 15.567,12.29 6.555,4.916 26.218,-8.192 10.651,-7.374 11.47,-22.941 23.759,-31.134 12.29,-7.374 -8.193,-13.109 4.097,-22.94 0,0 9.831,-18.844 -13.928,-9.012 -17.206,6.554 -21.302,-26.218 -35.23,-16.387 -13.928,10.651 -18.025,-7.373 -26.218,-6.554 -4.096,0 -39.326,-17.206 -38.507,-25.398 0.819,-17.206 -20.483,26.217 -22.94,-13.109 -2.458,-31.134 17.205,-2.458 23.759,-2.458 27.037,0 -2.458,-23.76 22.122,-37.688 26.217,-14.747 -0.82,-31.953 31.133,-29.495 13.109,0.82 19.663,-15.567 0.819,-14.747 -3.277,0 -12.289,-20.483 -25.398,-4.097 -6.554,8.193 -18.844,-7.374 -19.663,-5.735 -4.096,8.193 -0.82,42.604 -19.663,16.386 -10.651,-13.928 -23.76,-9.831 4.915,-20.482 7.374,-3.277 -1.638,-14.748 7.374,-9.832 5.736,4.096 6.555,25.398 29.495,2.458 13.928,-13.928 -27.037,-9.831 -27.037,-13.109 -0.819,-11.47 4.916,-10.65 -14.747,-3.277 -19.663,7.374 6.554,10.651 0,21.302 0,0 -13.109,5.735 -12.29,-5.735 0.819,-7.374 -15.567,-4.096 -6.555,7.374 5.736,8.193 -9.012,14.747 -11.47,4.096 -13.108,-4.915 -36.868,40.966 -36.868,50.797l0 0z"/>
      <path class="fil3" d="M226.505 87.224c6.555,0 13.109,9.832 21.302,5.735 0.82,0 -0.819,6.555 4.916,12.29 9.832,10.651 7.374,0 16.386,11.47 0,0 9.012,5.735 9.012,-4.915 0,-4.097 -7.373,-14.748 2.458,-13.928 1.639,0 1.639,4.096 12.29,-8.193 3.277,-3.278 -1.639,-4.916 -14.747,-7.374 -12.29,-1.639 -40.146,-3.277 -50.797,3.277 0,0 -0.819,1.638 -0.819,1.638l-0.001 0z"/>
      <path class="fil3" d="M293.688 95.417c12.29,-4.916 1.638,0.82 16.386,0 1.639,0 4.096,9.832 -6.555,5.735 -2.457,0 -11.47,2.459 -10.65,-4.915l0.819 -0.82z"/>
      <path class="fil3" d="M324.822 118.358c6.554,-1.639 4.096,8.193 2.457,9.012 -6.554,2.458 -7.373,-10.651 -2.457,-9.012z"/>
      <path class="fil3" d="M328.099 114.261c3.277,1.639 7.373,6.555 7.373,10.651 0,4.097 3.278,4.097 5.735,2.458 0.82,-0.819 8.193,4.097 4.097,-4.916 -1.639,-6.554 -7.374,-4.915 -13.109,-8.193 0,0 -4.096,0 -4.096,0l0 0z"/>
      <path class="fil3" d="M337.93 106.887c-2.458,9.832 4.097,3.278 9.832,9.832 4.096,4.096 4.096,6.554 0.819,10.651 -4.096,4.916 -4.096,2.458 -9.012,3.277 0,1.639 10.651,9.012 0,9.832 -3.277,0 -1.639,5.735 -0.819,7.374 1.638,4.096 -3.278,9.012 4.096,4.915 5.735,-3.277 10.651,7.374 9.832,-9.012 0,-2.458 6.554,-7.374 9.012,-2.458 1.638,4.916 -3.277,6.555 7.374,9.831 3.277,1.639 4.915,5.736 9.012,1.639 1.639,-0.819 0.819,-3.277 -0.819,-4.915 -1.639,-0.82 -6.555,-9.832 -9.013,-12.29 -0.819,-1.639 -6.554,-10.651 -8.193,-13.109 -4.096,-5.735 -7.373,-7.374 -11.47,-11.47 -0.819,-1.639 -5.735,-0.819 -9.012,-4.097 0,0 -1.639,0 -1.639,0z"/>
      <path class="fil3" d="M341.207 164.239c0,-9.832 8.193,0.819 21.303,-6.555 8.192,-4.916 2.457,0.819 12.289,10.651 4.097,4.097 3.277,-13.109 9.012,-0.819 0.82,2.458 2.459,10.651 4.916,15.566 4.097,8.193 6.555,51.616 3.277,60.629 -0.819,2.458 -2.458,18.844 -6.554,15.567 -1.639,-1.639 -1.639,-16.387 0.819,-18.844 4.097,-2.458 -4.916,-8.193 -4.916,-13.928 0,-8.193 -5.735,-3.277 -8.193,-10.651 -3.277,-0.82 -15.566,13.108 -28.675,-0.82 -5.735,-5.735 -13.109,-4.915 -4.916,-13.928 4.097,-4.915 -4.096,-13.108 -4.096,-13.928 0,-4.096 5.735,-6.554 7.373,-13.928 0.82,-3.277 -1.638,-6.554 -1.638,-9.012l-0.001 0z"/>
      <path class="fil3" d="M225.686 227.325c1.639,-2.458 18.844,-3.277 18.844,-3.277 0,7.373 -8.193,6.554 -15.567,6.554 -1.639,0 -4.916,-2.458 -3.277,-3.277l0 0z"/>
     </g>
    </g>
    <path class="fil0" d="M256 81.489c76.195,0 137.643,61.448 137.643,137.642 0,76.195 -61.448,137.643 -137.643,137.643 -76.195,0 -137.642,-61.448 -137.642,-137.643 0,-76.195 61.447,-137.642 137.642,-137.642z"/>
    <path class="fil0 str1" d="M256 81.489c76.195,0 137.643,61.448 137.643,137.642 0,76.195 -61.448,137.643 -137.643,137.643 -76.195,0 -137.642,-61.448 -137.642,-137.643 0,-76.195 61.447,-137.642 137.642,-137.642z"/>
   </g>
  </g>
 </g>
</svg>
