<?xml version="1.0" encoding="UTF-8"?>
<!DOCTYPE svg PUBLIC "-//W3C//DTD SVG 1.1//EN" "http://www.w3.org/Graphics/SVG/1.1/DTD/svg11.dtd">
<!-- Creator: CorelDRAW 2019 (64-Bit) -->
<svg xmlns="http://www.w3.org/2000/svg" xml:space="preserve" width="396px" height="85px" version="1.1" style="shape-rendering:geometricPrecision; text-rendering:geometricPrecision; image-rendering:optimizeQuality; fill-rule:evenodd; clip-rule:evenodd"
viewBox="0 0 171.596 36.66"
 xmlns:xlink="http://www.w3.org/1999/xlink">
 <defs>
  <style type="text/css">
   <![CDATA[
    .fil0 {fill:black}
    .fil7 {fill:#00506D}
    .fil6 {fill:#006589}
    .fil10 {fill:#00B050}
    .fil3 {fill:#00B0F0}
    .fil12 {fill:#3E9C50}
    .fil11 {fill:#88C3D1}
    .fil4 {fill:#8FD4A6}
    .fil5 {fill:#B28A2C}
    .fil1 {fill:#EDE6DA}
    .fil2 {fill:#FAC13E}
    .fil8 {fill:white}
    .fil13 {fill:#010101;fill-rule:nonzero}
    .fil9 {fill:white;fill-rule:nonzero}
   ]]>
  </style>
 </defs>
 <g id="Layer_x0020_1">
  <metadata id="CorelCorpID_0Corel-Layer"/>
  <path class="fil0" d="M64.102 15.637c0.02,-2.159 -0.119,-4.06 2.402,-3.992 2.289,0.062 2.211,1.849 2.224,3.994l-4.626 -0.002zm-1.951 -0.11c-0.179,0.172 0.236,0.137 -0.32,0.155l-1.082 0.021 0.008 1.486 1.399 0.026 0.014 3.624 1.866 0.007 0.065 -3.687 4.29 -0.007c0.603,0.029 0.167,-0.018 0.336,0.187l0.006 3.505 1.959 -0.042c0.039,-2.055 -0.015,-4.144 -0.013,-6.203 0.006,-5.845 -5.466,-4.783 -7.089,-3.687 -1.559,1.052 -1.304,2.324 -1.439,4.615z"/>
  <path class="fil0" d="M132.834 16.49c-0.234,-1.852 0.019,-4.211 2.105,-4.712 2.428,-0.582 3.744,0.69 3.961,2.817 0.222,2.165 -0.139,4.361 -2.173,4.742 -2.484,0.464 -3.627,-0.734 -3.893,-2.847zm-2.051 0.334c0.586,3.541 3.184,4.541 6.376,4.043 3.12,-0.486 4.29,-3.112 3.828,-6.597 -0.423,-3.196 -2.801,-4.628 -6.381,-4.043 -1.583,0.259 -2.611,1.002 -3.175,2.043 -0.651,1.201 -0.913,2.956 -0.648,4.554z"/>
  <path class="fil0" d="M87.541 11.852c0.69,-0.109 2.67,-0.078 3.401,-0.007 2.02,0.194 2.059,3.438 -0.112,3.61 -0.759,0.06 -2.542,0.077 -3.289,-0.014l0 -3.589zm-0.047 9.001l0.016 -3.773 3.954 -0.078c2.882,-0.03 3.905,-3.401 2.343,-5.582 -0.787,-1.1 -1.754,-1.164 -3.514,-1.2 -1.545,-0.03 -3.168,-0.025 -4.713,0.003l-0.015 5.233 -1.488 0.049 0.017 1.527 1.495 0.056 0.011 3.755 1.894 0.01z"/>
  <path class="fil0" d="M108.402 19.268l0.004 1.555c1.476,0.113 6.37,0.192 7.453,-0.339 1.953,-0.956 2.035,-4.309 0.363,-5.352 -1.917,-1.196 -6.084,0.459 -5.974,-1.978 0.063,-1.394 1.363,-1.325 2.614,-1.344 1.307,-0.019 2.701,0.059 3.993,-0.018l0.017 -1.548c-1.649,-0.147 -6.255,-0.217 -7.34,0.581 -1.693,1.244 -1.737,4.248 0.313,5.119 2.025,0.862 6.289,-0.628 5.541,2.292 -0.289,1.129 -1.707,1.018 -2.969,1.018 -1.312,-0.001 -2.714,-0.047 -4.015,0.014z"/>
  <path class="fil1" d="M132.834 16.49c0.266,2.113 1.409,3.311 3.893,2.847 2.034,-0.381 2.395,-2.577 2.173,-4.742 -0.217,-2.127 -1.533,-3.399 -3.961,-2.817 -2.086,0.501 -2.339,2.86 -2.105,4.712z"/>
  <path class="fil0" d="M156.202 10.226c-0.006,1.889 -0.213,7.068 0.306,8.538 0.829,2.352 3.888,2.248 6.713,2.062l-0.006 -1.554c-1.064,-0.066 -2.451,0.094 -3.436,-0.105 -1.128,-0.227 -1.499,-0.727 -1.608,-1.945 -0.186,-2.067 -0.031,-4.856 -0.032,-7.005l-1.937 0.009z"/>
  <path class="fil2" d="M87.541 15.441c0.747,0.091 2.53,0.074 3.289,0.014 2.171,-0.172 2.132,-3.416 0.112,-3.61 -0.731,-0.071 -2.711,-0.102 -3.401,0.007l0 3.589z"/>
  <path class="fil3" d="M64.102 15.637l4.626 0.002c-0.013,-2.145 0.065,-3.932 -2.224,-3.994 -2.521,-0.068 -2.382,1.833 -2.402,3.992z"/>
  <path class="fil4" d="M147.467 24.495c0.144,0.225 -0.235,0.171 0.304,0.196l23.189 -0.001c0.173,-0.475 0.169,-16.054 0.103,-19.436 -0.002,-0.065 -0.008,-0.267 -0.019,-0.323 -0.043,-0.218 -0.06,-0.181 -0.104,-0.254l-0.027 19.869c-0.85,0.034 -22.719,0.128 -23.446,-0.051z"/>
  <path class="fil5" d="M87.494 20.853c0.264,-0.304 0.145,-1.404 0.145,-1.806 0,-0.636 0.028,-1.279 -0.031,-1.911 0.523,0.017 3.704,0.125 3.856,-0.134l-3.954 0.078 -0.016 3.773z"/>
  <path class="fil6" d="M64.036 20.846c0.148,-0.177 0.129,0.289 0.137,-0.354l-0.003 -3.225c0.934,-0.024 3.809,-0.125 4.557,0.072 -0.169,-0.205 0.267,-0.158 -0.336,-0.187l-4.29 0.007 -0.065 3.687z"/>
  <path class="fil7" d="M60.757 17.189l-0.008 -1.486 1.082 -0.021c0.556,-0.018 0.141,0.017 0.32,-0.155l-1.488 0.088c-0.03,0.302 -0.026,0.497 -0.029,0.763 -0.007,0.695 -0.039,0.539 0.123,0.811z"/>
  <g id="_1998827605616">
   <path class="fil8" d="M17.852 4.598c-5.576,0 -10.101,4.51 -10.101,10.07 0,5.56 4.525,10.07 10.101,10.07 5.576,0 10.101,-4.51 10.101,-10.07 0,-5.56 -4.525,-10.07 -10.101,-10.07l0 0zm0.402 19.816c-5.329,0 -9.654,-4.34 -9.654,-9.7 0,-5.344 4.325,-9.684 9.654,-9.684 5.344,0 9.668,4.34 9.668,9.684 0,5.36 -4.324,9.7 -9.668,9.7l0 0z"/>
   <path class="fil8" d="M21.59 8.428c-3.491,0 -6.333,2.842 -6.333,6.333 0,3.506 2.842,6.332 6.333,6.332 3.49,0 6.332,-2.826 6.332,-6.332 0,-3.491 -2.842,-6.333 -6.332,-6.333l0 0zm0.34 12.325c-3.29,0 -5.947,-2.687 -5.947,-5.992 0,-3.321 2.657,-6.009 5.947,-6.009 3.289,0 5.961,2.688 5.961,6.009 0,3.305 -2.672,5.992 -5.961,5.992l0 0z"/>
   <path class="fil8" d="M21.713 13.031c-2.208,0 -4,1.807 -4,4.031 0,2.224 1.792,4.031 4,4.031 2.209,0 4.001,-1.807 4.001,-4.031 0,-2.224 -1.792,-4.031 -4.001,-4.031l0 0zm0.325 7.661c-2.008,0 -3.645,-1.622 -3.645,-3.63 0,-2.008 1.637,-3.645 3.645,-3.645 2.023,0 3.66,1.637 3.66,3.645 0,2.008 -1.637,3.63 -3.66,3.63l0 0z"/>
   <path class="fil8" d="M20.184 14.467c-1.374,0 -2.471,1.128 -2.471,2.502 0,1.39 1.097,2.503 2.471,2.503 1.359,0 2.471,-1.113 2.471,-2.503 0,-1.374 -1.112,-2.502 -2.471,-2.502l0 0zm0.355 4.634c-1.158,0 -2.1,-0.958 -2.1,-2.147 0,-1.189 0.942,-2.162 2.1,-2.162 1.159,0 2.101,0.973 2.101,2.162 0,1.189 -0.942,2.147 -2.101,2.147l0 0z"/>
   <path class="fil8" d="M20.2 14.467c-0.942,0 -1.699,0.757 -1.699,1.699 0,0.927 0.757,1.684 1.699,1.684 0.926,0 1.683,-0.757 1.683,-1.684 0,-0.942 -0.757,-1.699 -1.683,-1.699l0 0zm0.37 2.997c-0.726,0 -1.312,-0.587 -1.312,-1.313 0,-0.726 0.586,-1.313 1.312,-1.313 0.726,0 1.298,0.587 1.298,1.313 0,0.726 -0.572,1.313 -1.298,1.313l0 0z"/>
   <path class="fil8" d="M20.771 15.054c-0.618,0 -1.112,0.494 -1.112,1.112 0,0.603 0.494,1.112 1.112,1.112 0.618,0 1.112,-0.509 1.112,-1.112 0,-0.618 -0.494,-1.112 -1.112,-1.112l0 0zm0.371 1.869c-0.402,0 -0.742,-0.324 -0.742,-0.741 0,-0.417 0.34,-0.742 0.742,-0.742 0.401,0 0.741,0.325 0.741,0.742 0,0.417 -0.34,0.741 -0.741,0.741l0 0z"/>
   <path class="fil8" d="M20.756 15.657c-0.433,0 -0.773,0.37 -0.773,0.803 0,0.448 0.34,0.818 0.773,0.818 0.432,0 0.787,-0.37 0.787,-0.818 0,-0.433 -0.355,-0.803 -0.787,-0.803l0 0zm0.37 1.251c-0.216,0 -0.401,-0.201 -0.401,-0.448 0,-0.247 0.185,-0.448 0.401,-0.448 0.232,0 0.402,0.201 0.402,0.448 0,0.247 -0.17,0.448 -0.402,0.448l0 0z"/>
  </g>
  <g id="_1998827606800">
   <path class="fil9" d="M10.82 34.247l0 -0.838c-0.211,-0.203 -0.46,-0.305 -0.748,-0.305 -0.225,0 -0.423,0.103 -0.593,0.311 -0.17,0.207 -0.255,0.45 -0.255,0.729 0,0.28 0.061,0.518 0.184,0.717 0.123,0.198 0.29,0.298 0.5,0.298 0.369,0 0.673,-0.304 0.912,-0.912zm0.559 0.864c0.091,0 0.136,0.027 0.136,0.079 0,0.067 -0.023,0.136 -0.071,0.206 -0.047,0.07 -0.122,0.105 -0.223,0.105 -0.102,0 -0.182,-0.056 -0.24,-0.168 -0.058,-0.113 -0.1,-0.292 -0.124,-0.538 -0.256,0.471 -0.581,0.706 -0.975,0.706 -0.228,0 -0.425,-0.074 -0.59,-0.221 -0.165,-0.148 -0.283,-0.318 -0.353,-0.511 -0.07,-0.193 -0.105,-0.387 -0.105,-0.58 0,-0.383 0.116,-0.716 0.347,-1.001 0.232,-0.284 0.529,-0.427 0.891,-0.427 0.263,0 0.513,0.086 0.748,0.258 0.007,-0.488 0.011,-0.845 0.011,-1.072 0,-0.226 0.016,-0.367 0.05,-0.421 0.033,-0.055 0.088,-0.082 0.163,-0.082 0.075,0 0.137,0.031 0.184,0.092 0.048,0.062 0.071,0.152 0.071,0.272 0,0.119 -0.007,0.266 -0.021,0.44 -0.014,0.174 -0.035,0.404 -0.063,0.69 -0.028,0.286 -0.051,0.545 -0.068,0.777 0,0.429 0.016,0.764 0.047,1.006 0.032,0.243 0.093,0.373 0.185,0.39zm4.112 -1.08c0.237,0 0.426,-0.04 0.569,-0.121 0.142,-0.081 0.213,-0.19 0.213,-0.327 0,-0.137 -0.046,-0.255 -0.14,-0.355 -0.093,-0.101 -0.225,-0.151 -0.397,-0.151 -0.232,0 -0.427,0.087 -0.585,0.261 -0.158,0.174 -0.26,0.377 -0.306,0.609 0.193,0.056 0.409,0.084 0.646,0.084zm0.2 -1.296c0.283,0 0.513,0.079 0.69,0.237 0.178,0.158 0.266,0.364 0.266,0.616 0,0.254 -0.11,0.446 -0.329,0.577 -0.22,0.132 -0.489,0.198 -0.809,0.198 -0.182,0 -0.405,-0.026 -0.669,-0.079 0.021,0.246 0.113,0.458 0.277,0.635 0.163,0.177 0.345,0.266 0.545,0.266 0.119,0 0.23,-0.017 0.332,-0.05 0.102,-0.033 0.179,-0.069 0.232,-0.108 0.14,-0.109 0.232,-0.163 0.276,-0.163 0.044,0 0.079,0.013 0.106,0.039 0.026,0.027 0.039,0.059 0.039,0.098 0,0.098 -0.101,0.21 -0.303,0.337 -0.202,0.126 -0.42,0.19 -0.656,0.19 -0.365,0 -0.655,-0.129 -0.869,-0.385 -0.214,-0.256 -0.33,-0.566 -0.348,-0.928 -0.186,-0.056 -0.279,-0.147 -0.279,-0.273 0,-0.053 0.015,-0.094 0.045,-0.124 0.03,-0.03 0.066,-0.045 0.108,-0.045 0.042,0 0.095,0.016 0.158,0.047 0.077,-0.316 0.224,-0.576 0.44,-0.78 0.216,-0.203 0.465,-0.305 0.748,-0.305zm7.806 1.054l-0.027 0.827c0,0.098 0.001,0.173 0.003,0.224 0.002,0.051 0.012,0.104 0.032,0.158 0.019,0.054 0.043,0.088 0.071,0.1 0.028,0.012 0.057,0.02 0.087,0.024 0.029,0.003 0.051,0.009 0.063,0.016 0.012,0.007 0.018,0.021 0.018,0.042 0,0.091 -0.029,0.168 -0.087,0.229 -0.058,0.061 -0.125,0.092 -0.202,0.092 -0.134,0 -0.226,-0.053 -0.277,-0.158 -0.051,-0.105 -0.077,-0.26 -0.077,-0.464l0.022 -0.969c0,-0.239 -0.047,-0.432 -0.14,-0.58 -0.093,-0.147 -0.223,-0.221 -0.39,-0.221 -0.167,0 -0.329,0.1 -0.487,0.3 -0.158,0.201 -0.269,0.427 -0.332,0.68l0.016 1.143c0,0.18 -0.067,0.269 -0.201,0.269 -0.161,0 -0.242,-0.124 -0.242,-0.371 0,-0.248 0.035,-0.595 0.105,-1.041 0,-0.653 -0.179,-0.98 -0.537,-0.98 -0.165,0 -0.327,0.1 -0.485,0.3 -0.158,0.201 -0.269,0.427 -0.332,0.68l0.016 1.143c0,0.18 -0.067,0.269 -0.2,0.269 -0.162,0 -0.243,-0.124 -0.243,-0.371 0,-0.248 0.036,-0.595 0.106,-1.041 0,-0.147 -0.015,-0.351 -0.045,-0.611 -0.03,-0.26 -0.045,-0.421 -0.045,-0.482 0,-0.062 0.019,-0.116 0.056,-0.164 0.036,-0.047 0.086,-0.071 0.15,-0.071 0.063,0 0.113,0.024 0.15,0.071 0.037,0.048 0.055,0.101 0.055,0.161 0,0.06 -0.001,0.133 -0.003,0.219 -0.001,0.086 -0.002,0.159 -0.002,0.218 0.239,-0.446 0.537,-0.669 0.896,-0.669 0.207,0 0.376,0.061 0.508,0.182 0.132,0.121 0.222,0.284 0.271,0.487 0.239,-0.446 0.538,-0.669 0.896,-0.669 0.264,0 0.468,0.1 0.614,0.301 0.146,0.2 0.219,0.442 0.219,0.727zm5.026 0.384l-0.016 -1.143c0,-0.179 0.067,-0.269 0.2,-0.269 0.162,0 0.243,0.132 0.243,0.395 0,0.208 -0.037,0.547 -0.111,1.017 0.042,0.429 0.063,0.749 0.063,0.959 0,0.46 -0.112,0.83 -0.337,1.109 -0.225,0.28 -0.541,0.419 -0.948,0.419 -0.218,0 -0.424,-0.044 -0.617,-0.134 -0.193,-0.09 -0.29,-0.179 -0.29,-0.269 0,-0.089 0.041,-0.134 0.122,-0.134 0.035,0 0.132,0.032 0.292,0.097 0.16,0.065 0.324,0.098 0.493,0.098 0.295,0 0.528,-0.106 0.7,-0.316 0.173,-0.211 0.259,-0.483 0.259,-0.817 0,-0.123 -0.006,-0.242 -0.016,-0.358 -0.26,0.449 -0.587,0.674 -0.98,0.674 -0.281,0 -0.499,-0.104 -0.654,-0.313 -0.154,-0.209 -0.231,-0.465 -0.231,-0.767l0.031 -0.796c0,-0.14 -0.014,-0.271 -0.042,-0.392 -0.028,-0.121 -0.042,-0.208 -0.042,-0.261 0,-0.053 0.021,-0.101 0.063,-0.145 0.042,-0.044 0.097,-0.066 0.163,-0.066 0.162,0 0.243,0.144 0.243,0.432l-0.042 1.16c0,0.238 0.051,0.432 0.152,0.582 0.102,0.149 0.244,0.224 0.425,0.224 0.181,0 0.355,-0.101 0.524,-0.303 0.168,-0.202 0.286,-0.43 0.353,-0.683zm5.385 0.517c0,0.239 -0.098,0.434 -0.293,0.585 -0.195,0.151 -0.429,0.226 -0.701,0.226 -0.272,0 -0.508,-0.062 -0.708,-0.187 -0.201,-0.125 -0.301,-0.248 -0.301,-0.371 0,-0.053 0.016,-0.096 0.048,-0.129 0.031,-0.034 0.067,-0.05 0.108,-0.05 0.04,0 0.073,0.007 0.097,0.023 0.025,0.016 0.058,0.047 0.1,0.092 0.042,0.046 0.08,0.085 0.114,0.116 0.033,0.032 0.101,0.067 0.205,0.106 0.104,0.038 0.2,0.058 0.287,0.058 0.193,0 0.352,-0.04 0.477,-0.119 0.125,-0.079 0.187,-0.194 0.187,-0.345 0,-0.183 -0.176,-0.335 -0.527,-0.458 -0.144,-0.05 -0.289,-0.103 -0.435,-0.161 -0.145,-0.058 -0.269,-0.138 -0.371,-0.24 -0.102,-0.102 -0.153,-0.223 -0.153,-0.363 0,-0.19 0.086,-0.356 0.258,-0.498 0.173,-0.143 0.383,-0.214 0.633,-0.214 0.249,0 0.447,0.043 0.592,0.129 0.146,0.086 0.219,0.177 0.219,0.272 0,0.116 -0.061,0.174 -0.184,0.174 -0.053,0 -0.106,-0.02 -0.158,-0.058 -0.165,-0.116 -0.323,-0.174 -0.475,-0.174 -0.15,0 -0.273,0.034 -0.368,0.102 -0.095,0.069 -0.143,0.148 -0.143,0.238 0,0.089 0.051,0.166 0.153,0.229 0.102,0.063 0.226,0.121 0.372,0.174 0.145,0.052 0.292,0.111 0.44,0.176 0.147,0.065 0.272,0.155 0.374,0.269 0.102,0.114 0.153,0.247 0.153,0.398zm3.577 -1.555l-0.011 1.249c0,0.32 0.013,0.529 0.04,0.627 0.026,0.099 0.096,0.148 0.208,0.148 0.053,0 0.117,-0.019 0.192,-0.056 0.076,-0.037 0.126,-0.055 0.15,-0.055 0.074,0 0.111,0.036 0.111,0.108 0,0.072 -0.065,0.147 -0.195,0.227 -0.13,0.079 -0.258,0.118 -0.384,0.118 -0.306,0 -0.459,-0.225 -0.459,-0.674l-0.005 -1.692c-0.116,0.011 -0.197,0.016 -0.243,0.016 -0.175,0 -0.263,-0.058 -0.263,-0.174 0,-0.116 0.088,-0.174 0.263,-0.174 0.014,0 0.092,0.004 0.232,0.011l-0.01 -0.59c0,-0.176 0.067,-0.264 0.2,-0.264 0.133,0 0.2,0.088 0.2,0.264l-0.016 0.595 0.427 -0.021c0.176,0 0.264,0.06 0.264,0.179 0,0.113 -0.088,0.169 -0.264,0.169 -0.031,0 -0.177,-0.004 -0.437,-0.011zm3.835 -1.506c0.074,0 0.129,0.023 0.164,0.071 0.035,0.047 0.052,0.107 0.052,0.179 0,0.072 -0.024,0.144 -0.073,0.216 -0.05,0.072 -0.111,0.108 -0.185,0.108 -0.074,0 -0.129,-0.025 -0.166,-0.074 -0.037,-0.049 -0.055,-0.114 -0.055,-0.195 0,-0.081 0.025,-0.152 0.076,-0.213 0.051,-0.062 0.114,-0.092 0.187,-0.092zm0.148 2.502l0.026 1.107c0,0.175 -0.066,0.263 -0.2,0.263 -0.133,0 -0.2,-0.088 -0.2,-0.263l0.026 -1.107 -0.026 -1.106c0,-0.176 0.067,-0.264 0.2,-0.264 0.134,0 0.2,0.088 0.2,0.264l-0.026 1.106zm3.746 -1.317l0.511 -0.011c0.056,0 0.104,0.014 0.142,0.043 0.039,0.028 0.058,0.07 0.058,0.126 0,0.105 -0.067,0.158 -0.2,0.158l-0.511 -0.01 0 0.353c0,0.484 0.005,0.892 0.016,1.222 0.01,0.33 0.015,0.522 0.015,0.577 0,0.054 -0.018,0.106 -0.055,0.155 -0.037,0.05 -0.087,0.074 -0.15,0.074 -0.063,0 -0.113,-0.024 -0.15,-0.074 -0.037,-0.049 -0.056,-0.101 -0.056,-0.155 0,-0.055 0.002,-0.164 0.006,-0.329 0.017,-0.496 0.026,-0.986 0.026,-1.47l0 -0.353 -0.269 0.01c-0.133,0 -0.2,-0.053 -0.2,-0.158 0,-0.056 0.019,-0.098 0.058,-0.126 0.039,-0.029 0.086,-0.043 0.142,-0.043l0.264 0.011 0 -0.448c0,-0.326 0.064,-0.562 0.192,-0.706 0.128,-0.144 0.277,-0.216 0.445,-0.216 0.169,0 0.309,0.033 0.419,0.098 0.111,0.065 0.166,0.134 0.166,0.208 0,0.116 -0.049,0.174 -0.147,0.174 -0.046,0 -0.106,-0.022 -0.179,-0.064 -0.074,-0.042 -0.146,-0.063 -0.216,-0.063 -0.218,0 -0.327,0.206 -0.327,0.616l0 0.401zm5.416 1.359l-0.016 -1.143c0,-0.179 0.067,-0.269 0.2,-0.269 0.162,0 0.243,0.132 0.243,0.395 0,0.208 -0.037,0.547 -0.111,1.017 0.042,0.429 0.063,0.749 0.063,0.959 0,0.46 -0.112,0.83 -0.337,1.109 -0.225,0.28 -0.541,0.419 -0.948,0.419 -0.218,0 -0.423,-0.044 -0.617,-0.134 -0.193,-0.09 -0.29,-0.179 -0.29,-0.269 0,-0.089 0.041,-0.134 0.122,-0.134 0.035,0 0.132,0.032 0.292,0.097 0.16,0.065 0.324,0.098 0.493,0.098 0.295,0 0.528,-0.106 0.701,-0.316 0.172,-0.211 0.258,-0.483 0.258,-0.817 0,-0.123 -0.006,-0.242 -0.016,-0.358 -0.26,0.449 -0.587,0.674 -0.98,0.674 -0.281,0 -0.499,-0.104 -0.654,-0.313 -0.154,-0.209 -0.231,-0.465 -0.231,-0.767l0.031 -0.796c0,-0.14 -0.014,-0.271 -0.042,-0.392 -0.028,-0.121 -0.042,-0.208 -0.042,-0.261 0,-0.053 0.021,-0.101 0.063,-0.145 0.042,-0.044 0.097,-0.066 0.164,-0.066 0.161,0 0.242,0.144 0.242,0.432l-0.042 1.16c0,0.238 0.051,0.432 0.153,0.582 0.101,0.149 0.243,0.224 0.424,0.224 0.181,0 0.355,-0.101 0.524,-0.303 0.169,-0.202 0.286,-0.43 0.353,-0.683zm3.809 -2.544c0.074,0 0.128,0.023 0.164,0.071 0.035,0.047 0.052,0.107 0.052,0.179 0,0.072 -0.024,0.144 -0.074,0.216 -0.049,0.072 -0.11,0.108 -0.184,0.108 -0.074,0 -0.129,-0.025 -0.166,-0.074 -0.037,-0.049 -0.055,-0.114 -0.055,-0.195 0,-0.081 0.025,-0.152 0.076,-0.213 0.051,-0.062 0.113,-0.092 0.187,-0.092zm0.148 2.502l0.026 1.107c0,0.175 -0.067,0.263 -0.2,0.263 -0.134,0 -0.2,-0.088 -0.2,-0.263l0.026 -1.107 -0.026 -1.106c0,-0.176 0.066,-0.264 0.2,-0.264 0.133,0 0.2,0.088 0.2,0.264l-0.026 1.106zm5.437 -0.342l-0.026 0.827c0,0.098 0.001,0.173 0.002,0.224 0.002,0.051 0.013,0.104 0.032,0.158 0.019,0.054 0.043,0.088 0.071,0.1 0.028,0.012 0.057,0.02 0.087,0.024 0.03,0.003 0.051,0.009 0.063,0.016 0.012,0.007 0.019,0.021 0.019,0.042 0,0.091 -0.029,0.168 -0.087,0.229 -0.058,0.061 -0.126,0.092 -0.203,0.092 -0.134,0 -0.226,-0.053 -0.277,-0.158 -0.051,-0.105 -0.076,-0.26 -0.076,-0.464l0.021 -0.969c0,-0.239 -0.051,-0.432 -0.153,-0.58 -0.102,-0.147 -0.243,-0.221 -0.424,-0.221 -0.181,0 -0.356,0.1 -0.524,0.3 -0.169,0.201 -0.286,0.427 -0.353,0.68l0.015 1.143c0,0.18 -0.066,0.269 -0.2,0.269 -0.161,0 -0.242,-0.124 -0.242,-0.371 0,-0.248 0.035,-0.595 0.105,-1.041 0,-0.147 -0.015,-0.351 -0.045,-0.611 -0.029,-0.26 -0.044,-0.421 -0.044,-0.482 0,-0.062 0.018,-0.116 0.055,-0.164 0.037,-0.047 0.087,-0.071 0.15,-0.071 0.064,0 0.114,0.024 0.15,0.071 0.037,0.048 0.056,0.101 0.056,0.161 0,0.06 -0.001,0.133 -0.003,0.219 -0.002,0.086 -0.003,0.159 -0.003,0.218 0.257,-0.446 0.573,-0.669 0.949,-0.669 0.281,0 0.499,0.1 0.653,0.301 0.155,0.2 0.232,0.442 0.232,0.727zm4.995 0.426l0 -0.806c-0.194,-0.203 -0.407,-0.305 -0.64,-0.305 -0.234,0 -0.438,0.104 -0.612,0.313 -0.174,0.209 -0.26,0.457 -0.26,0.743 0,0.286 0.054,0.525 0.163,0.714 0.109,0.19 0.259,0.285 0.45,0.285 0.192,0 0.368,-0.09 0.53,-0.269 0.161,-0.179 0.284,-0.404 0.369,-0.675zm-0.011 -1.206c0.007,-0.165 0.074,-0.248 0.2,-0.248 0.162,0 0.243,0.124 0.243,0.372 0,0.247 -0.035,0.594 -0.106,1.04 0.043,0.429 0.064,0.749 0.064,0.959 0,0.46 -0.108,0.83 -0.325,1.109 -0.216,0.28 -0.518,0.419 -0.908,0.419 -0.218,0 -0.424,-0.044 -0.617,-0.134 -0.193,-0.09 -0.29,-0.179 -0.29,-0.269 0,-0.089 0.041,-0.134 0.122,-0.134 0.031,0 0.122,0.032 0.271,0.097 0.149,0.065 0.32,0.098 0.514,0.098 0.281,0 0.502,-0.106 0.664,-0.316 0.161,-0.211 0.242,-0.483 0.242,-0.817 0,-0.137 -0.009,-0.263 -0.026,-0.379 -0.078,0.189 -0.203,0.353 -0.377,0.49 -0.174,0.137 -0.353,0.205 -0.538,0.205 -0.184,0 -0.341,-0.04 -0.471,-0.121 -0.13,-0.081 -0.236,-0.186 -0.316,-0.316 -0.158,-0.264 -0.237,-0.57 -0.237,-0.92 0,-0.349 0.118,-0.667 0.355,-0.953 0.237,-0.287 0.53,-0.43 0.878,-0.43 0.242,0 0.461,0.083 0.658,0.248zm8.39 1.164c0,0.264 0.02,0.479 0.059,0.646 0.038,0.167 0.084,0.261 0.136,0.282 0.021,0.01 0.047,0.017 0.077,0.021 0.03,0.003 0.051,0.009 0.063,0.016 0.012,0.007 0.019,0.021 0.019,0.042 0,0.095 -0.026,0.172 -0.077,0.232 -0.051,0.059 -0.127,0.089 -0.229,0.089 -0.102,0 -0.181,-0.065 -0.237,-0.195 -0.056,-0.13 -0.084,-0.297 -0.084,-0.5 -0.088,0.196 -0.217,0.361 -0.388,0.495 -0.17,0.133 -0.362,0.2 -0.574,0.2 -0.213,0 -0.396,-0.07 -0.551,-0.211 -0.281,-0.256 -0.421,-0.623 -0.421,-1.101 0,-0.383 0.11,-0.716 0.332,-1.001 0.221,-0.284 0.506,-0.427 0.853,-0.427 0.264,0 0.492,0.09 0.685,0.269 0,-0.179 0.067,-0.269 0.201,-0.269 0.161,0 0.242,0.124 0.242,0.372 0,0.247 -0.035,0.594 -0.106,1.04zm-0.305 0.048l-0.026 -0.812c-0.211,-0.203 -0.432,-0.305 -0.662,-0.305 -0.23,0 -0.427,0.103 -0.592,0.311 -0.166,0.207 -0.248,0.455 -0.248,0.745 0,0.29 0.054,0.529 0.161,0.717 0.107,0.188 0.259,0.282 0.455,0.282 0.197,0 0.376,-0.088 0.538,-0.264 0.161,-0.175 0.286,-0.4 0.374,-0.674zm5.874 -0.432l-0.026 0.827c0,0.098 0.001,0.173 0.003,0.224 0.002,0.051 0.012,0.104 0.031,0.158 0.02,0.054 0.043,0.088 0.071,0.1 0.028,0.012 0.058,0.02 0.087,0.024 0.03,0.003 0.051,0.009 0.064,0.016 0.012,0.007 0.018,0.021 0.018,0.042 0,0.091 -0.029,0.168 -0.087,0.229 -0.058,0.061 -0.125,0.092 -0.203,0.092 -0.133,0 -0.225,-0.053 -0.276,-0.158 -0.051,-0.105 -0.077,-0.26 -0.077,-0.464l0.021 -0.969c0,-0.239 -0.051,-0.432 -0.153,-0.58 -0.101,-0.147 -0.243,-0.221 -0.424,-0.221 -0.18,0 -0.355,0.1 -0.524,0.3 -0.168,0.201 -0.286,0.427 -0.353,0.68l0.016 1.143c0,0.18 -0.067,0.269 -0.2,0.269 -0.162,0 -0.243,-0.124 -0.243,-0.371 0,-0.248 0.035,-0.595 0.106,-1.041 0,-0.147 -0.015,-0.351 -0.045,-0.611 -0.03,-0.26 -0.045,-0.421 -0.045,-0.482 0,-0.062 0.019,-0.116 0.055,-0.164 0.037,-0.047 0.087,-0.071 0.151,-0.071 0.063,0 0.113,0.024 0.15,0.071 0.037,0.048 0.055,0.101 0.055,0.161 0,0.06 -0.001,0.133 -0.003,0.219 -0.001,0.086 -0.002,0.159 -0.002,0.218 0.256,-0.446 0.572,-0.669 0.948,-0.669 0.281,0 0.499,0.1 0.654,0.301 0.154,0.2 0.231,0.442 0.231,0.727zm5.079 0.458l0 -0.838c-0.21,-0.203 -0.46,-0.305 -0.748,-0.305 -0.225,0 -0.422,0.103 -0.593,0.311 -0.17,0.207 -0.255,0.45 -0.255,0.729 0,0.28 0.061,0.518 0.184,0.717 0.123,0.198 0.29,0.298 0.501,0.298 0.369,0 0.673,-0.304 0.911,-0.912zm0.559 0.864c0.091,0 0.137,0.027 0.137,0.079 0,0.067 -0.024,0.136 -0.071,0.206 -0.048,0.07 -0.122,0.105 -0.224,0.105 -0.102,0 -0.182,-0.056 -0.24,-0.168 -0.058,-0.113 -0.099,-0.292 -0.124,-0.538 -0.256,0.471 -0.581,0.706 -0.974,0.706 -0.229,0 -0.425,-0.074 -0.591,-0.221 -0.165,-0.148 -0.282,-0.318 -0.353,-0.511 -0.07,-0.193 -0.105,-0.387 -0.105,-0.58 0,-0.383 0.116,-0.716 0.348,-1.001 0.232,-0.284 0.528,-0.427 0.89,-0.427 0.264,0 0.513,0.086 0.748,0.258 0.008,-0.488 0.011,-0.845 0.011,-1.072 0,-0.226 0.017,-0.367 0.05,-0.421 0.033,-0.055 0.088,-0.082 0.163,-0.082 0.076,0 0.137,0.031 0.185,0.092 0.047,0.062 0.071,0.152 0.071,0.272 0,0.119 -0.007,0.266 -0.021,0.44 -0.014,0.174 -0.035,0.404 -0.063,0.69 -0.029,0.286 -0.051,0.545 -0.069,0.777 0,0.429 0.016,0.764 0.047,1.006 0.032,0.243 0.094,0.373 0.185,0.39zm7.668 -0.864l0 -0.838c-0.21,-0.203 -0.46,-0.305 -0.748,-0.305 -0.225,0 -0.422,0.103 -0.593,0.311 -0.17,0.207 -0.255,0.45 -0.255,0.729 0,0.28 0.062,0.518 0.184,0.717 0.123,0.198 0.29,0.298 0.501,0.298 0.369,0 0.673,-0.304 0.911,-0.912zm0.559 0.864c0.091,0 0.137,0.027 0.137,0.079 0,0.067 -0.024,0.136 -0.071,0.206 -0.048,0.07 -0.122,0.105 -0.224,0.105 -0.102,0 -0.182,-0.056 -0.24,-0.168 -0.058,-0.113 -0.099,-0.292 -0.124,-0.538 -0.256,0.471 -0.581,0.706 -0.974,0.706 -0.229,0 -0.425,-0.074 -0.59,-0.221 -0.166,-0.148 -0.283,-0.318 -0.354,-0.511 -0.07,-0.193 -0.105,-0.387 -0.105,-0.58 0,-0.383 0.116,-0.716 0.348,-1.001 0.232,-0.284 0.529,-0.427 0.89,-0.427 0.264,0 0.513,0.086 0.748,0.258 0.008,-0.488 0.011,-0.845 0.011,-1.072 0,-0.226 0.017,-0.367 0.05,-0.421 0.033,-0.055 0.088,-0.082 0.163,-0.082 0.076,0 0.137,0.031 0.185,0.092 0.047,0.062 0.071,0.152 0.071,0.272 0,0.119 -0.007,0.266 -0.021,0.44 -0.014,0.174 -0.035,0.404 -0.063,0.69 -0.028,0.286 -0.051,0.545 -0.069,0.777 0,0.429 0.016,0.764 0.048,1.006 0.031,0.243 0.093,0.373 0.184,0.39zm4.112 -1.08c0.237,0 0.427,-0.04 0.569,-0.121 0.143,-0.081 0.214,-0.19 0.214,-0.327 0,-0.137 -0.047,-0.255 -0.14,-0.355 -0.093,-0.101 -0.226,-0.151 -0.398,-0.151 -0.232,0 -0.427,0.087 -0.585,0.261 -0.158,0.174 -0.26,0.377 -0.305,0.609 0.193,0.056 0.408,0.084 0.645,0.084zm0.2 -1.296c0.283,0 0.513,0.079 0.691,0.237 0.177,0.158 0.266,0.364 0.266,0.616 0,0.254 -0.11,0.446 -0.33,0.577 -0.219,0.132 -0.489,0.198 -0.808,0.198 -0.183,0 -0.406,-0.026 -0.67,-0.079 0.021,0.246 0.114,0.458 0.277,0.635 0.164,0.177 0.345,0.266 0.545,0.266 0.12,0 0.23,-0.017 0.332,-0.05 0.102,-0.033 0.18,-0.069 0.232,-0.108 0.141,-0.109 0.233,-0.163 0.277,-0.163 0.044,0 0.079,0.013 0.105,0.039 0.027,0.027 0.04,0.059 0.04,0.098 0,0.098 -0.101,0.21 -0.303,0.337 -0.202,0.126 -0.421,0.19 -0.656,0.19 -0.365,0 -0.655,-0.129 -0.87,-0.385 -0.214,-0.256 -0.33,-0.566 -0.347,-0.928 -0.186,-0.056 -0.28,-0.147 -0.28,-0.273 0,-0.053 0.015,-0.094 0.045,-0.124 0.03,-0.03 0.066,-0.045 0.108,-0.045 0.042,0 0.095,0.016 0.158,0.047 0.078,-0.316 0.224,-0.576 0.44,-0.78 0.216,-0.203 0.466,-0.305 0.748,-0.305zm7.806 1.054l-0.026 0.827c0,0.098 0.001,0.173 0.002,0.224 0.002,0.051 0.013,0.104 0.032,0.158 0.019,0.054 0.043,0.088 0.071,0.1 0.028,0.012 0.057,0.02 0.087,0.024 0.03,0.003 0.051,0.009 0.063,0.016 0.013,0.007 0.019,0.021 0.019,0.042 0,0.091 -0.029,0.168 -0.087,0.229 -0.058,0.061 -0.126,0.092 -0.203,0.092 -0.134,0 -0.226,-0.053 -0.277,-0.158 -0.051,-0.105 -0.076,-0.26 -0.076,-0.464l0.021 -0.969c0,-0.239 -0.047,-0.432 -0.14,-0.58 -0.093,-0.147 -0.223,-0.221 -0.39,-0.221 -0.166,0 -0.329,0.1 -0.487,0.3 -0.158,0.201 -0.269,0.427 -0.332,0.68l0.016 1.143c0,0.18 -0.067,0.269 -0.2,0.269 -0.162,0 -0.243,-0.124 -0.243,-0.371 0,-0.248 0.036,-0.595 0.106,-1.041 0,-0.653 -0.179,-0.98 -0.538,-0.98 -0.165,0 -0.326,0.1 -0.484,0.3 -0.159,0.201 -0.269,0.427 -0.332,0.68l0.015 1.143c0,0.18 -0.066,0.269 -0.2,0.269 -0.161,0 -0.242,-0.124 -0.242,-0.371 0,-0.248 0.035,-0.595 0.105,-1.041 0,-0.147 -0.015,-0.351 -0.045,-0.611 -0.029,-0.26 -0.044,-0.421 -0.044,-0.482 0,-0.062 0.018,-0.116 0.055,-0.164 0.037,-0.047 0.087,-0.071 0.15,-0.071 0.063,0 0.113,0.024 0.15,0.071 0.037,0.048 0.056,0.101 0.056,0.161 0,0.06 -0.001,0.133 -0.003,0.219 -0.002,0.086 -0.003,0.159 -0.003,0.218 0.239,-0.446 0.538,-0.669 0.896,-0.669 0.207,0 0.377,0.061 0.508,0.182 0.132,0.121 0.223,0.284 0.272,0.487 0.239,-0.446 0.537,-0.669 0.896,-0.669 0.263,0 0.468,0.1 0.613,0.301 0.146,0.2 0.219,0.442 0.219,0.727zm4.934 1.085c0.171,-0.207 0.256,-0.457 0.256,-0.748 0,-0.292 -0.082,-0.539 -0.245,-0.743 -0.164,-0.204 -0.366,-0.306 -0.609,-0.306 -0.242,0 -0.448,0.104 -0.619,0.311 -0.17,0.208 -0.255,0.457 -0.255,0.749 0,0.291 0.081,0.539 0.245,0.742 0.163,0.204 0.366,0.306 0.608,0.306 0.243,0 0.449,-0.104 0.619,-0.311zm-0.606 -2.139c0.36,0 0.656,0.134 0.888,0.403 0.232,0.269 0.348,0.598 0.348,0.988 0,0.39 -0.118,0.721 -0.353,0.993 -0.235,0.272 -0.532,0.409 -0.891,0.409 -0.358,0 -0.653,-0.135 -0.885,-0.404 -0.232,-0.268 -0.348,-0.598 -0.348,-0.987 0,-0.39 0.117,-0.722 0.351,-0.994 0.233,-0.272 0.53,-0.408 0.89,-0.408z"/>
   <path class="fil9" d="M115.514 34.906c0.088,0 0.132,0.046 0.132,0.139 0,0.094 -0.102,0.197 -0.306,0.311 -0.204,0.114 -0.418,0.172 -0.643,0.172 -0.369,0 -0.676,-0.137 -0.922,-0.409 -0.246,-0.272 -0.369,-0.601 -0.369,-0.988 0,-0.386 0.124,-0.716 0.372,-0.988 0.247,-0.272 0.573,-0.408 0.977,-0.408 0.221,0 0.417,0.05 0.588,0.15 0.17,0.1 0.255,0.203 0.255,0.308 0,0.056 -0.017,0.103 -0.053,0.14 -0.035,0.037 -0.075,0.055 -0.121,0.055 -0.045,0 -0.098,-0.026 -0.158,-0.079 -0.182,-0.154 -0.369,-0.232 -0.558,-0.232 -0.243,0 -0.454,0.102 -0.635,0.306 -0.181,0.204 -0.271,0.451 -0.271,0.743 0,0.291 0.091,0.541 0.273,0.748 0.183,0.207 0.41,0.311 0.68,0.311 0.207,0 0.409,-0.07 0.606,-0.211 0.067,-0.045 0.118,-0.068 0.153,-0.068zm3.525 -0.664l0.015 0.99c0,0.18 -0.067,0.269 -0.2,0.269 -0.162,0 -0.242,-0.124 -0.242,-0.371 0,-0.248 0.035,-0.595 0.105,-1.041 0,-0.147 -0.015,-0.349 -0.045,-0.606 -0.03,-0.256 -0.044,-0.416 -0.044,-0.479 0,-0.064 0.018,-0.12 0.055,-0.169 0.037,-0.049 0.087,-0.074 0.15,-0.074 0.063,0 0.113,0.025 0.15,0.074 0.037,0.049 0.056,0.103 0.056,0.161 0,0.058 -0.001,0.131 -0.003,0.221 -0.002,0.09 -0.003,0.164 -0.003,0.224 0.07,-0.179 0.18,-0.337 0.329,-0.474 0.15,-0.137 0.304,-0.206 0.461,-0.206 0.159,0 0.281,0.033 0.367,0.098 0.086,0.065 0.129,0.134 0.129,0.208 0,0.074 -0.019,0.132 -0.058,0.174 -0.039,0.042 -0.089,0.063 -0.15,0.063 -0.062,0 -0.129,-0.032 -0.2,-0.098 -0.072,-0.064 -0.13,-0.097 -0.172,-0.097 -0.116,0 -0.251,0.125 -0.405,0.374 -0.155,0.25 -0.253,0.502 -0.295,0.759zm6.174 -0.069c0,0.264 0.02,0.479 0.058,0.646 0.039,0.167 0.085,0.261 0.137,0.282 0.021,0.01 0.047,0.017 0.077,0.021 0.03,0.003 0.051,0.009 0.063,0.016 0.012,0.007 0.018,0.021 0.018,0.042 0,0.095 -0.025,0.172 -0.076,0.232 -0.051,0.059 -0.127,0.089 -0.229,0.089 -0.102,0 -0.181,-0.065 -0.237,-0.195 -0.057,-0.13 -0.085,-0.297 -0.085,-0.5 -0.087,0.196 -0.217,0.361 -0.387,0.495 -0.17,0.133 -0.362,0.2 -0.574,0.2 -0.213,0 -0.396,-0.07 -0.551,-0.211 -0.281,-0.256 -0.421,-0.623 -0.421,-1.101 0,-0.383 0.11,-0.716 0.332,-1.001 0.221,-0.284 0.505,-0.427 0.853,-0.427 0.264,0 0.492,0.09 0.685,0.269 0,-0.179 0.067,-0.269 0.2,-0.269 0.162,0 0.243,0.124 0.243,0.372 0,0.247 -0.035,0.594 -0.106,1.04zm-0.305 0.048l-0.027 -0.812c-0.21,-0.203 -0.431,-0.305 -0.661,-0.305 -0.23,0 -0.428,0.103 -0.593,0.311 -0.165,0.207 -0.247,0.455 -0.247,0.745 0,0.29 0.053,0.529 0.16,0.717 0.108,0.188 0.259,0.282 0.456,0.282 0.197,0 0.376,-0.088 0.538,-0.264 0.161,-0.175 0.286,-0.4 0.374,-0.674zm4.225 -1.086l-0.01 1.249c0,0.32 0.013,0.529 0.039,0.627 0.026,0.099 0.096,0.148 0.208,0.148 0.053,0 0.117,-0.019 0.193,-0.056 0.075,-0.037 0.125,-0.055 0.15,-0.055 0.073,0 0.11,0.036 0.11,0.108 0,0.072 -0.065,0.147 -0.195,0.227 -0.13,0.079 -0.258,0.118 -0.384,0.118 -0.306,0 -0.459,-0.225 -0.459,-0.674l-0.005 -1.692c-0.116,0.011 -0.197,0.016 -0.242,0.016 -0.176,0 -0.264,-0.058 -0.264,-0.174 0,-0.116 0.088,-0.174 0.264,-0.174 0.014,0 0.091,0.004 0.232,0.011l-0.011 -0.59c0,-0.176 0.067,-0.264 0.2,-0.264 0.134,0 0.2,0.088 0.2,0.264l-0.015 0.595 0.426 -0.021c0.176,0 0.264,0.06 0.264,0.179 0,0.113 -0.088,0.169 -0.264,0.169 -0.031,0 -0.177,-0.004 -0.437,-0.011zm3.836 -1.506c0.073,0 0.128,0.023 0.163,0.071 0.035,0.047 0.053,0.107 0.053,0.179 0,0.072 -0.025,0.144 -0.074,0.216 -0.049,0.072 -0.111,0.108 -0.185,0.108 -0.073,0 -0.129,-0.025 -0.166,-0.074 -0.036,-0.049 -0.055,-0.114 -0.055,-0.195 0,-0.081 0.026,-0.152 0.077,-0.213 0.051,-0.062 0.113,-0.092 0.187,-0.092zm0.147 2.502l0.027 1.107c0,0.175 -0.067,0.263 -0.201,0.263 -0.133,0 -0.2,-0.088 -0.2,-0.263l0.027 -1.107 -0.027 -1.106c0,-0.176 0.067,-0.264 0.2,-0.264 0.134,0 0.201,0.088 0.201,0.264l-0.027 1.106zm4.115 1.001l0.79 -0.026c0.176,0 0.264,0.061 0.264,0.184 0,0.123 -0.088,0.185 -0.264,0.185l-0.79 -0.027c0,0 -0.284,0.009 -0.854,0.027 -0.168,0 -0.253,-0.062 -0.253,-0.185 0,-0.091 0.062,-0.207 0.185,-0.347 0.214,-0.25 0.403,-0.486 0.566,-0.709 0.164,-0.223 0.288,-0.39 0.372,-0.501 0.084,-0.11 0.147,-0.194 0.189,-0.25 0.113,-0.158 0.187,-0.27 0.222,-0.337 -0.264,-0.011 -0.413,-0.016 -0.448,-0.016l-0.769 0.026c-0.176,0 -0.264,-0.061 -0.264,-0.184 0,-0.123 0.088,-0.184 0.264,-0.184l0.769 0.026 0.748 -0.026c0.169,0 0.253,0.061 0.253,0.184 0,0.077 -0.033,0.158 -0.097,0.242 -0.065,0.085 -0.128,0.162 -0.188,0.232 -0.158,0.187 -0.367,0.454 -0.627,0.804 -0.259,0.349 -0.468,0.64 -0.627,0.872 0.211,0.007 0.397,0.01 0.559,0.01zm4.252 -3.503c0.074,0 0.128,0.023 0.163,0.071 0.035,0.047 0.053,0.107 0.053,0.179 0,0.072 -0.025,0.144 -0.074,0.216 -0.049,0.072 -0.111,0.108 -0.184,0.108 -0.074,0 -0.13,-0.025 -0.166,-0.074 -0.037,-0.049 -0.056,-0.114 -0.056,-0.195 0,-0.081 0.026,-0.152 0.077,-0.213 0.051,-0.062 0.113,-0.092 0.187,-0.092zm0.147 2.502l0.027 1.107c0,0.175 -0.067,0.263 -0.201,0.263 -0.133,0 -0.2,-0.088 -0.2,-0.263l0.027 -1.107 -0.027 -1.106c0,-0.176 0.067,-0.264 0.2,-0.264 0.134,0 0.201,0.088 0.201,0.264l-0.027 1.106zm5.438 -0.342l-0.027 0.827c0,0.098 0.001,0.173 0.003,0.224 0.002,0.051 0.012,0.104 0.031,0.158 0.02,0.054 0.043,0.088 0.072,0.1 0.028,0.012 0.057,0.02 0.087,0.024 0.029,0.003 0.05,0.009 0.063,0.016 0.012,0.007 0.018,0.021 0.018,0.042 0,0.091 -0.029,0.168 -0.087,0.229 -0.058,0.061 -0.125,0.092 -0.203,0.092 -0.133,0 -0.225,-0.053 -0.276,-0.158 -0.051,-0.105 -0.077,-0.26 -0.077,-0.464l0.021 -0.969c0,-0.239 -0.05,-0.432 -0.152,-0.58 -0.102,-0.147 -0.244,-0.221 -0.425,-0.221 -0.18,0 -0.355,0.1 -0.524,0.3 -0.168,0.201 -0.286,0.427 -0.353,0.68l0.016 1.143c0,0.18 -0.067,0.269 -0.2,0.269 -0.162,0 -0.243,-0.124 -0.243,-0.371 0,-0.248 0.036,-0.595 0.106,-1.041 0,-0.147 -0.015,-0.351 -0.045,-0.611 -0.03,-0.26 -0.045,-0.421 -0.045,-0.482 0,-0.062 0.019,-0.116 0.056,-0.164 0.037,-0.047 0.087,-0.071 0.15,-0.071 0.063,0 0.113,0.024 0.15,0.071 0.037,0.048 0.055,0.101 0.055,0.161 0,0.06 -0.001,0.133 -0.002,0.219 -0.002,0.086 -0.003,0.159 -0.003,0.218 0.257,-0.446 0.573,-0.669 0.948,-0.669 0.281,0 0.499,0.1 0.654,0.301 0.154,0.2 0.232,0.442 0.232,0.727zm4.994 0.426l0 -0.806c-0.193,-0.203 -0.406,-0.305 -0.64,-0.305 -0.233,0 -0.437,0.104 -0.611,0.313 -0.174,0.209 -0.261,0.457 -0.261,0.743 0,0.286 0.055,0.525 0.163,0.714 0.109,0.19 0.259,0.285 0.451,0.285 0.191,0 0.368,-0.09 0.529,-0.269 0.162,-0.179 0.285,-0.404 0.369,-0.675zm-0.01 -1.206c0.007,-0.165 0.073,-0.248 0.2,-0.248 0.162,0 0.242,0.124 0.242,0.372 0,0.247 -0.035,0.594 -0.105,1.04 0.042,0.429 0.063,0.749 0.063,0.959 0,0.46 -0.108,0.83 -0.324,1.109 -0.216,0.28 -0.519,0.419 -0.909,0.419 -0.218,0 -0.423,-0.044 -0.616,-0.134 -0.193,-0.09 -0.29,-0.179 -0.29,-0.269 0,-0.089 0.04,-0.134 0.121,-0.134 0.032,0 0.122,0.032 0.271,0.097 0.15,0.065 0.321,0.098 0.514,0.098 0.281,0 0.502,-0.106 0.664,-0.316 0.162,-0.211 0.242,-0.483 0.242,-0.817 0,-0.137 -0.008,-0.263 -0.026,-0.379 -0.077,0.189 -0.203,0.353 -0.377,0.49 -0.173,0.137 -0.353,0.205 -0.537,0.205 -0.184,0 -0.342,-0.04 -0.472,-0.121 -0.13,-0.081 -0.235,-0.186 -0.316,-0.316 -0.158,-0.264 -0.237,-0.57 -0.237,-0.92 0,-0.349 0.119,-0.667 0.356,-0.953 0.237,-0.287 0.529,-0.43 0.877,-0.43 0.242,0 0.462,0.083 0.659,0.248zm7.853 0.358l0.695 0.027c0.12,0 0.258,-0.006 0.416,-0.016 0.158,-0.011 0.246,-0.016 0.264,-0.016 0.179,0 0.269,0.077 0.269,0.232 0,0.593 -0.146,1.065 -0.438,1.414 -0.291,0.35 -0.673,0.525 -1.146,0.525 -0.472,0 -0.871,-0.2 -1.196,-0.601 -0.325,-0.4 -0.487,-0.888 -0.487,-1.462 0,-0.574 0.168,-1.06 0.503,-1.457 0.335,-0.397 0.758,-0.595 1.267,-0.595 0.316,0 0.602,0.061 0.856,0.184 0.255,0.123 0.382,0.257 0.382,0.401 0,0.056 -0.016,0.1 -0.05,0.131 -0.033,0.032 -0.078,0.048 -0.134,0.048 -0.056,0 -0.119,-0.021 -0.187,-0.061 -0.069,-0.04 -0.134,-0.086 -0.195,-0.137 -0.062,-0.051 -0.152,-0.096 -0.271,-0.137 -0.12,-0.04 -0.253,-0.061 -0.401,-0.061 -0.39,0 -0.711,0.166 -0.964,0.498 -0.253,0.332 -0.379,0.724 -0.379,1.175 0,0.452 0.121,0.848 0.363,1.189 0.243,0.34 0.55,0.511 0.922,0.511 0.316,0 0.579,-0.122 0.788,-0.367 0.209,-0.244 0.317,-0.587 0.324,-1.03 -0.176,-0.014 -0.344,-0.021 -0.506,-0.021l-0.695 0.027c-0.169,0 -0.253,-0.065 -0.253,-0.195 0,-0.063 0.023,-0.114 0.068,-0.151 0.046,-0.036 0.107,-0.055 0.185,-0.055zm5.658 1.734l0.464 -0.027c0.081,0 0.145,0.019 0.192,0.056 0.048,0.037 0.071,0.085 0.071,0.145 0,0.059 -0.024,0.108 -0.073,0.147 -0.05,0.039 -0.113,0.058 -0.19,0.058l-0.68 -0.032 -0.695 0.027c-0.176,0 -0.264,-0.067 -0.264,-0.2 0,-0.134 0.088,-0.201 0.264,-0.201 0.038,0 0.198,0.009 0.479,0.027 0.018,-0.791 0.027,-1.332 0.027,-1.626 0,-0.293 -0.009,-0.835 -0.027,-1.625 -0.309,0.014 -0.469,0.021 -0.479,0.021 -0.169,0 -0.253,-0.065 -0.253,-0.195 0,-0.063 0.023,-0.113 0.068,-0.15 0.046,-0.037 0.107,-0.056 0.185,-0.056l0.695 0.027c0.12,0 0.258,-0.006 0.416,-0.016 0.159,-0.011 0.261,-0.016 0.309,-0.016 0.047,0 0.096,0.02 0.147,0.061 0.051,0.04 0.077,0.09 0.077,0.15 0,0.06 -0.025,0.108 -0.074,0.145 -0.049,0.037 -0.101,0.055 -0.156,0.055 -0.054,0 -0.222,-0.009 -0.503,-0.026 -0.017,0.808 -0.026,1.354 -0.026,1.638 0,0.285 0.009,0.822 0.026,1.613zm6.033 -0.706c0,0.319 -0.12,0.588 -0.358,0.806 -0.239,0.218 -0.546,0.327 -0.922,0.327 -0.292,0 -0.564,-0.07 -0.817,-0.209 -0.253,-0.138 -0.379,-0.276 -0.379,-0.413 0,-0.053 0.016,-0.097 0.05,-0.132 0.033,-0.035 0.076,-0.053 0.129,-0.053 0.052,0 0.111,0.023 0.176,0.069 0.065,0.045 0.127,0.095 0.185,0.15 0.058,0.054 0.145,0.104 0.263,0.15 0.118,0.046 0.249,0.069 0.393,0.069 0.246,0 0.45,-0.07 0.613,-0.208 0.164,-0.139 0.245,-0.325 0.245,-0.556 0,-0.155 -0.065,-0.3 -0.197,-0.435 -0.132,-0.135 -0.292,-0.256 -0.48,-0.364 -0.187,-0.107 -0.375,-0.217 -0.563,-0.329 -0.188,-0.112 -0.348,-0.248 -0.48,-0.406 -0.132,-0.158 -0.197,-0.332 -0.197,-0.521 0,-0.25 0.108,-0.466 0.324,-0.648 0.216,-0.183 0.468,-0.274 0.756,-0.274 0.288,0 0.534,0.049 0.737,0.147 0.204,0.099 0.306,0.209 0.306,0.332 0,0.056 -0.017,0.1 -0.05,0.132 -0.033,0.032 -0.077,0.047 -0.129,0.047 -0.053,0 -0.106,-0.015 -0.158,-0.044 -0.053,-0.03 -0.101,-0.064 -0.145,-0.101 -0.044,-0.036 -0.112,-0.07 -0.203,-0.1 -0.091,-0.029 -0.213,-0.045 -0.366,-0.045 -0.153,0 -0.3,0.052 -0.44,0.156 -0.141,0.104 -0.211,0.228 -0.211,0.374 0,0.146 0.066,0.279 0.198,0.401 0.131,0.121 0.291,0.235 0.479,0.342 0.188,0.107 0.376,0.22 0.564,0.337 0.188,0.118 0.348,0.263 0.479,0.435 0.132,0.172 0.198,0.36 0.198,0.564z"/>
  </g>
  <rect class="fil10" x="30.503" y="4.7" width="23.326" height="19.936"/>
  <rect class="fil3" x="53.887" y="4.7" width="23.326" height="19.936"/>
  <rect class="fil2" x="77.275" y="4.7" width="23.326" height="19.936"/>
  <rect class="fil11" x="100.656" y="4.7" width="23.326" height="19.936"/>
  <rect class="fil1" x="124.082" y="4.7" width="23.326" height="19.936"/>
  <rect class="fil12" x="147.541" y="4.7" width="23.326" height="19.936"/>
  <path class="fil13" d="M155.706 9.366l0 6.185c0,1.78 0.27,2.734 0.97,3.418 0.763,0.747 1.638,1.001 3.513,1.001l2.512 0 0 -1.589 -2.241 0c-1.145,0 -1.876,-0.191 -2.321,-0.605 -0.35,-0.349 -0.509,-1.033 -0.509,-2.337l0 -6.073 -1.924 0z"/>
  <path class="fil13" d="M135.808 9.255c-1.653,0 -2.925,0.413 -3.847,1.288 -0.89,0.858 -1.399,2.337 -1.399,4.165 0,1.447 0.365,2.798 0.985,3.641 0.795,1.113 2.322,1.733 4.245,1.733 3.371,0 5.135,-1.829 5.135,-5.326 0,-3.72 -1.669,-5.501 -5.135,-5.501l0.016 0zm-0.016 1.542c2.099,0 3.021,1.192 3.021,3.911 0,2.655 -0.954,3.832 -3.068,3.832 -2.131,0 -3.069,-1.193 -3.069,-3.911 0,-2.64 0.97,-3.832 3.132,-3.832l-0.016 0z"/>
  <path class="fil13" d="M107.891 19.97l4.801 0c1.527,0 2.147,-0.095 2.719,-0.397 0.906,-0.477 1.463,-1.479 1.463,-2.687 0,-1.001 -0.35,-1.907 -0.938,-2.432 -0.588,-0.541 -1.431,-0.732 -3.116,-0.732l-0.97 0c-1.542,0 -2.131,-0.381 -2.131,-1.351 0,-0.556 0.255,-1.017 0.668,-1.208 0.318,-0.143 0.763,-0.207 1.574,-0.207l4.372 0 0 -1.59 -4.467 0c-1.209,0 -1.876,0.096 -2.433,0.35 -1.017,0.461 -1.669,1.542 -1.669,2.814 0,0.938 0.382,1.765 1.049,2.273 0.541,0.414 1.384,0.605 2.671,0.605l1.367 0c0.716,0 0.954,0.031 1.24,0.143 0.525,0.19 0.827,0.715 0.827,1.367 0,0.541 -0.206,0.938 -0.62,1.192 -0.286,0.191 -0.747,0.271 -1.574,0.271l-4.849 0 0.016 1.589z"/>
  <path class="fil13" d="M83.731 14.597l0 1.574 1.511 0 0 3.799 1.939 0 0 -3.783 3.101 0c1.367,0 2.082,-0.175 2.686,-0.652 0.716,-0.573 1.177,-1.622 1.177,-2.782 0,-1.002 -0.334,-1.86 -0.938,-2.48 -0.668,-0.7 -1.383,-0.907 -3.037,-0.907l-4.944 0 0 5.231 -1.495 0zm3.45 0l0 -3.641 2.894 0c0.668,0 1.033,0.08 1.303,0.27 0.43,0.318 0.668,0.827 0.668,1.479 0,0.62 -0.191,1.208 -0.509,1.494 -0.27,0.271 -0.731,0.398 -1.462,0.398l-2.894 0z"/>
  <path class="fil13" d="M60.558 14.819l0 1.574 1.478 0 0 3.641 1.94 0 0 -3.641 4.61 0 0 3.641 1.94 0 0.016 0 -0.016 -5.056 0 -1.287c0,-1.542 -0.191,-2.305 -0.779,-3.021 -0.763,-0.922 -1.637,-1.367 -3.339,-1.367 -1.605,0 -2.496,0.365 -3.322,1.113 -0.779,0.683 -1.05,1.558 -1.05,3.418l0 0.985 -1.478 0zm3.418 0l0 -1.033c0,-1.049 0.063,-1.542 0.254,-1.892 0.366,-0.667 0.907,-1.049 2.051,-1.049 0.906,0 1.304,0.254 1.749,0.731 0.413,0.43 0.556,0.986 0.556,2.131l0 1.112 -4.61 0z"/>
  <polygon class="fil13" points="39.121,9.366 36.244,9.366 36.244,19.97 38.136,19.97 38.136,11.433 41.188,19.97 43.16,19.97 46.212,11.433 46.212,19.97 48.088,19.97 48.088,9.366 45.21,9.366 42.206,17.84 "/>
  <path class="fil9" d="M2.484 2.8c0,0.383 -0.111,0.717 -0.332,1.001 -0.221,0.284 -0.506,0.427 -0.854,0.427 -0.263,0 -0.492,-0.09 -0.685,-0.269 0,0.179 -0.066,0.269 -0.2,0.269 -0.161,0 -0.242,-0.124 -0.242,-0.372 0,-0.247 0.035,-0.594 0.105,-1.04 0,-0.239 -0.016,-0.69 -0.047,-1.352 -0.032,-0.662 -0.048,-1.019 -0.048,-1.072 0,-0.053 0.019,-0.103 0.055,-0.15 0.037,-0.048 0.087,-0.071 0.151,-0.071 0.063,0 0.113,0.023 0.15,0.071 0.037,0.047 0.055,0.111 0.055,0.192l0 1.665c0.095,-0.179 0.222,-0.326 0.382,-0.44 0.16,-0.114 0.343,-0.171 0.548,-0.171 0.206,0 0.384,0.07 0.535,0.211 0.285,0.256 0.427,0.623 0.427,1.101zm-1.215 1.085c0.23,0 0.428,-0.103 0.593,-0.311 0.165,-0.207 0.248,-0.455 0.248,-0.745 0,-0.29 -0.054,-0.529 -0.161,-0.717 -0.107,-0.188 -0.259,-0.282 -0.456,-0.282 -0.196,0 -0.376,0.088 -0.537,0.264 -0.162,0.175 -0.286,0.4 -0.374,0.674l0.026 0.812c0.211,0.203 0.431,0.305 0.661,0.305zm6.078 -0.985l-0.016 -1.143c0,-0.18 0.067,-0.269 0.2,-0.269 0.162,0 0.243,0.132 0.243,0.395 0,0.207 -0.037,0.546 -0.111,1.017 0.042,0.429 0.063,0.748 0.063,0.959 0,0.46 -0.112,0.83 -0.337,1.109 -0.225,0.279 -0.541,0.419 -0.949,0.419 -0.217,0 -0.423,-0.045 -0.616,-0.134 -0.193,-0.09 -0.29,-0.18 -0.29,-0.269 0,-0.09 0.041,-0.134 0.121,-0.134 0.036,0 0.133,0.032 0.293,0.097 0.16,0.065 0.324,0.097 0.492,0.097 0.296,0 0.529,-0.105 0.701,-0.316 0.172,-0.21 0.258,-0.483 0.258,-0.816 0,-0.123 -0.005,-0.243 -0.015,-0.359 -0.26,0.45 -0.587,0.675 -0.98,0.675 -0.281,0 -0.499,-0.105 -0.654,-0.314 -0.154,-0.209 -0.232,-0.464 -0.232,-0.766l0.032 -0.796c0,-0.14 -0.014,-0.271 -0.042,-0.392 -0.028,-0.122 -0.042,-0.209 -0.042,-0.261 0,-0.053 0.021,-0.101 0.063,-0.145 0.042,-0.044 0.096,-0.066 0.163,-0.066 0.162,0 0.243,0.144 0.243,0.432l-0.042 1.159c0,0.239 0.05,0.433 0.152,0.582 0.102,0.15 0.244,0.224 0.424,0.224 0.181,0 0.356,-0.101 0.525,-0.303 0.168,-0.202 0.286,-0.429 0.353,-0.682z"/>
 </g>
</svg>
