<?xml version="1.0" encoding="UTF-8"?>
<!DOCTYPE svg PUBLIC "-//W3C//DTD SVG 1.1//EN" "http://www.w3.org/Graphics/SVG/1.1/DTD/svg11.dtd">
<!-- Creator: CorelDRAW 2019 (64-Bit) -->
<svg xmlns="http://www.w3.org/2000/svg" xml:space="preserve" width="512px" height="512px" version="1.1" style="shape-rendering:geometricPrecision; text-rendering:geometricPrecision; image-rendering:optimizeQuality; fill-rule:evenodd; clip-rule:evenodd"
viewBox="0 0 512 511.999"
 xmlns:xlink="http://www.w3.org/1999/xlink">
 <defs>
  <style type="text/css">
   <![CDATA[
    .str0 {stroke:#999999;stroke-width:0.567;stroke-miterlimit:22.9256}
    .fil0 {fill:none}
    .fil2 {fill:#293445}
    .fil1 {fill:white}
   ]]>
  </style>
 </defs>
 <g id="Layer_x0020_1">
  <metadata id="CorelCorpID_0Corel-Layer"/>
  <rect class="fil0" width="511.999" height="511.999"/>
  <rect class="fil0" width="511.999" height="511.999"/>
  <circle class="fil1 str0" cx="256" cy="256" r="236.074"/>
  <g id="_2000077473888">
   <path class="fil2" d="M386.813 362.618l33.185 32.844 -24.195 24.535 -33.183 -32.827 24.193 -24.552zm46.148 31.811l0 2.074c-0.641,2.183 -3.258,4.806 -8.122,9.671 -18.668,18.668 -24.565,26.273 -28.915,26.786l-0.945 0c-2.309,-0.282 -4.4,-2.635 -8.16,-6.394 -6.632,-6.633 -43.455,-44.111 -46.486,-46.14 -3.025,0.704 -6.804,3.971 -9.535,5.671 -22.859,14.239 -54.161,24.052 -81.019,24.052 -34.158,0 -46.724,-3.723 -74.753,-15.111 -11.864,-4.82 -33.542,-19.481 -42.589,-28.61 -15.057,-15.194 -29.953,-31.754 -38.287,-52.266 -5.505,-13.55 -6.463,-14.035 -10.413,-29.681 -4.405,-17.459 -4.689,-26.846 -4.698,-44.897l0 -0.866c0,-23.583 7.82,-48.329 15.435,-64.75 5.712,-12.318 11.478,-20.597 19.324,-31.138 4.859,-6.53 8.307,-9.168 11.35,-12.843 4.919,-5.939 2.577,-2.435 7.637,-7.571 9.651,-9.796 29.539,-22.763 41.657,-28.16 26.029,-11.594 43.889,-15.217 75.337,-15.217 37.216,0 73.661,15.52 101.828,39.188 4.1,3.445 6.603,5.994 10.327,9.718 1.896,1.896 3.287,3.297 5.191,5.179 6.691,6.614 16.113,20.507 21.042,28.728 7.458,12.438 13.946,28.568 17.288,42.85 6.446,27.536 6.536,56.225 -0.973,83.649 -1.019,3.722 -2.424,7.542 -3.754,11.453 -2.828,8.315 -5.696,14.043 -9.242,21.174l-11.06 19.354c2.016,3.012 39.906,40.253 46.487,46.833 3.403,3.404 5.483,5.394 6.048,7.264zm-183.182 4.66l0 -38.019c11.757,6.221 26.919,6.221 40.093,6.221l-9.464 12.657c-7.196,8.562 -18.521,18.133 -30.629,19.141zm31.106 -4.148c17.336,-15.068 19.136,-28.85 25.097,-30.894 5.224,-1.792 10.896,-3.285 15.827,-6.294 2.449,-1.495 5.054,-3.012 7.463,-4.287l9.845 9.511c-1.67,2.413 -4.197,3.877 -5.298,6.096 -1.577,3.18 1.654,1.029 -5.373,5.686 -7.599,5.037 -13.739,8.137 -21.995,11.877 -5.761,2.61 -19.868,7.831 -25.566,8.305zm74.13 -15.041l-8.295 -8.627 24.194 -24.554 8.987 8.655 -24.886 24.526zm-16.756 -34.038c2.311,-0.616 6.987,-5.293 7.604,-7.603 3.796,1.013 6.465,6.143 9.678,8.295l-8.45 8.833c-1.68,-1.076 -2.861,-2.52 -4.512,-4.167 -0.95,-0.947 -1.535,-1.42 -2.457,-2.382 -2.011,-2.102 -0.913,-1.169 -1.863,-2.976zm-155.531 -15.899l29.032 0c2.221,8.318 19.929,21.098 27.65,26.268l0 42.858c-22.136,-1.842 -38.791,-27.943 -47.932,-46.078 -2.375,-4.711 -8.064,-17.689 -8.75,-23.048zm171.263 0.167l19.522 -0.167c-2.524,4.772 -1.638,1.872 -5.328,4.351 -1.792,1.203 -2.917,3.214 -5.041,4.636l-9.153 -8.82zm-238.315 -0.167l55.3 0 6.612 18.273c2.344,5.879 5.116,12.222 8.196,17.382 13.67,22.898 17.18,22.381 21.829,29.323 -30.56,-7.119 -64.452,-28.019 -83.654,-53.214 -2.902,-3.807 -5.955,-7.363 -8.283,-11.764zm167.283 26.959c-26.006,0 -48.187,-13.105 -60.642,-29.911 -7.651,-10.324 -14.704,-25.673 -14.704,-39.905 0,-15.149 0.267,-23.975 7.133,-37.798 11.337,-22.826 36.606,-41.696 61.992,-41.696 16.327,0 23.543,0.037 38.71,7.603 7.479,3.731 14.212,8.57 19.976,14.587 47.559,49.648 9.845,127.12 -52.465,127.12zm78.112 -107.144l38.018 0c0,38.998 -17.606,65.276 -18.663,69.817l-21.429 0c0.652,-2.8 1.965,-4.228 3.037,-7.331 6.375,-18.447 8.373,-44.84 -0.963,-62.486zm-164.519 30.415c0,25.308 5.863,28.962 8.295,39.402l-25.576 0c-2.533,-10.872 -4.895,-20.475 -6.621,-32.78l-2.357 -27.368c0.035,-4.379 -0.699,-6.159 -0.699,-9.669l33.18 0c-3.153,6.572 -6.222,20.567 -6.222,30.415zm-107.144 -30.415l69.817 0c0,18.294 1.939,37.06 5.356,54.091l3.63 15.726 -59.447 0 -7.115 -15.006c-11.527,-26.461 -11.325,-52.902 -12.241,-54.811zm118.895 -10.368l-38.709 0 1.089 -18.266c1.967,-13.254 1.175,-17.606 4.726,-35.367 1.196,-5.982 2.582,-10.692 3.862,-16.184l60.139 0 0 38.71c-8.109,2.165 -28.941,22.998 -31.107,31.107zm41.476 -36.637l0 -33.18 60.139 0c1.259,5.406 2.572,10.405 3.747,16.299 0.645,3.237 2.405,15.987 3.165,17.573 -2.309,-0.193 -4.845,-1.506 -7.34,-2.338 -2.907,-0.969 -5.261,-1.701 -7.992,-2.376 -15.509,-3.835 -38.134,-2.496 -51.719,4.022zm71.198 -33.18l59.449 0c0.631,2.71 2.297,4.302 3.452,6.916 8.982,20.348 15.211,38.926 15.211,62.901l-41.474 0c-2.711,0 -5.547,-8.051 -11.919,-14.35 -23.635,-23.361 -15.437,-6.257 -19.969,-33.256 -0.597,-3.555 -1.332,-7.149 -2.153,-10.982 -0.429,-2.005 -1.855,-9.572 -2.597,-11.229zm-161.752 66.361l0 3.456 -69.125 0c0,-15.915 2.034,-26.148 6.306,-40.008 2.213,-7.179 5.279,-15.705 8.665,-22.44 1.08,-2.149 3.199,-5.521 3.693,-7.369l59.447 0c-1.984,4.134 -5.182,25.104 -6.222,31.105 -1.728,9.951 -2.764,23.821 -2.764,35.256zm90.554 -145.855c22.192,1.847 39.092,28.542 47.931,46.079 2.096,4.157 8.411,18.948 8.751,23.046l-56.682 0 0 -69.125zm-10.369 0l0 69.125 -56.682 0c0.789,-9.493 16.365,-39.25 23.342,-47.165 8.772,-9.951 19.039,-20.77 33.34,-21.96zm42.167 4.148c9.078,0.755 32.424,11.304 41.349,16.715 4.356,2.64 7.933,4.968 12.159,7.888 8.016,5.536 14.236,11.69 20.974,18.427 3.365,3.365 6.358,6.493 9.171,10.184 2.902,3.807 5.955,7.363 8.283,11.763l-55.3 0c-1.395,-2.907 -3.98,-12.214 -6.674,-18.211 -5.707,-12.706 -9.674,-21.58 -18.21,-32.942l-11.752 -13.824zm-110.601 64.977l-55.3 0c1.164,-4.359 14.437,-18.93 17.108,-21.601 11.944,-11.943 17.765,-17.189 32.622,-26.134 9.343,-5.626 31.5,-16.351 42.207,-17.242 -2.135,3.187 -10.229,9.776 -19.072,24.478 -5.962,9.914 -10.134,19.706 -14.221,30.709 -1.046,2.817 -2.063,7.121 -3.344,9.79z"/>
   <path class="fil2" d="M230.423 285.724c0,-16.961 2.665,-27.895 15.035,-40.266 24.983,-24.983 68.348,-19.22 84.506,16.763 3.821,8.507 5.269,21.342 2.471,32.195 -8.436,32.716 -43.576,47.509 -70.214,35.547 -9.284,-4.169 -15.47,-8.926 -21.54,-16.478 -4.532,-5.64 -10.258,-17.81 -10.258,-27.761zm-11.059 -4.839c0,22.138 6.708,30.772 17.559,44.653 2.962,3.789 13.145,10.438 17.692,12.724 23.706,11.922 53.376,6.442 71.732,-11.915 4.371,-4.372 9.777,-11.759 12.32,-17.404 7.561,-16.779 8.225,-37.213 -0.172,-53.871 -3.142,-6.232 -4.859,-8.876 -9.008,-13.803 -1.473,-1.748 -1.672,-2.514 -3.493,-4.111l-8.474 -6.733c-40.218,-28.471 -98.156,1.282 -98.156,50.46z"/>
  </g>
 </g>
</svg>
