<?xml version="1.0" encoding="UTF-8"?>
<!DOCTYPE svg PUBLIC "-//W3C//DTD SVG 1.1//EN" "http://www.w3.org/Graphics/SVG/1.1/DTD/svg11.dtd">
<!-- Creator: CorelDRAW 2019 (64-Bit) -->
<svg xmlns="http://www.w3.org/2000/svg" xml:space="preserve" width="512px" height="512px" version="1.1" style="shape-rendering:geometricPrecision; text-rendering:geometricPrecision; image-rendering:optimizeQuality; fill-rule:evenodd; clip-rule:evenodd"
viewBox="0 0 512 512"
 xmlns:xlink="http://www.w3.org/1999/xlink">
 <defs>
  <style type="text/css">
   <![CDATA[
    .str2 {stroke:#BABABD;stroke-width:0.75;stroke-miterlimit:22.9256}
    .str1 {stroke:white;stroke-width:2.083;stroke-miterlimit:22.9256}
    .str0 {stroke:#999999;stroke-width:0.567;stroke-miterlimit:22.9256}
    .fil0 {fill:none}
    .fil8 {fill:none;fill-rule:nonzero}
    .fil4 {fill:#47494F}
    .fil5 {fill:#6F7175}
    .fil3 {fill:#9A9B9F}
    .fil6 {fill:#BABABD}
    .fil2 {fill:white}
    .fil1 {fill:white}
    .fil7 {fill:#BABABD;fill-rule:nonzero}
   ]]>
  </style>
    <clipPath id="id0">
     <path d="M256 62.645c106.944,0 193.355,81.96 193.355,181.598 0,100.441 -86.411,181.598 -193.355,181.598 -106.944,0 -193.355,-81.157 -193.355,-181.598 0,-99.638 86.411,-181.598 193.355,-181.598z"/>
    </clipPath>
    <clipPath id="id1">
     <path d="M256 62.645c106.944,0 193.355,81.96 193.355,181.598 0,100.441 -86.411,181.598 -193.355,181.598 -106.944,0 -193.355,-81.157 -193.355,-181.598 0,-99.638 86.411,-181.598 193.355,-181.598z"/>
    </clipPath>
 </defs>
 <g id="Layer_x0020_1">
  <metadata id="CorelCorpID_0Corel-Layer"/>
  <rect class="fil0" width="512" height="512"/>
  <circle class="fil1 str0" cx="256" cy="256" r="236.074"/>
  <g id="_2077769218512">
   <path class="fil2" d="M256 62.645c106.944,0 193.355,81.96 193.355,181.598 0,100.441 -86.411,181.598 -193.355,181.598 -106.944,0 -193.355,-81.157 -193.355,-181.598 0,-99.638 86.411,-181.598 193.355,-181.598z"/>
   <g>
   </g>
   <g style="clip-path:url(#id0)">
    <g id="_1999677625680">
     <polygon class="fil2" points="62.645,62.645 449.355,62.645 449.355,425.841 62.645,425.841 "/>
    </g>
   </g>
   <path class="fil0" d="M256 62.645c106.944,0 193.355,81.96 193.355,181.598 0,100.441 -86.411,181.598 -193.355,181.598 -106.944,0 -193.355,-81.157 -193.355,-181.598 0,-99.638 86.411,-181.598 193.355,-181.598z"/>
   <g>
   </g>
   <g style="clip-path:url(#id1)">
    <g>
     <path id="_1" class="fil3" d="M72.912 183.978c12.833,-1.607 18.822,22.499 18.822,30.534 0,41.784 -13.689,20.892 29.089,37.766 23.955,9.643 -12.834,32.945 57.322,30.535 6.844,-0.804 7.7,8.035 28.233,9.642 17.967,1.607 7.7,20.089 1.711,27.32 -1.711,1.607 -8.555,30.534 0,30.534 19.678,0 50.478,8.839 50.478,29.731 0,3.214 6.845,38.569 7.7,38.569 21.389,16.071 8.556,6.429 36.789,-11.249 15.4,-8.839 16.256,-30.534 33.367,-40.98 17.966,-10.446 -11.122,-16.875 5.989,-29.731 0,0 13.688,-25.713 -19.678,-12.856 -23.956,8.839 -29.944,-34.552 -48.767,-21.696 -19.677,13.66 -25.666,-8.839 -38.5,-8.839 -4.278,0 -54.755,-23.302 -53.9,-33.748 1.711,-21.695 -28.233,35.356 -32.511,-16.874 -3.422,-40.98 24.811,-3.214 34.222,-3.214 37.644,0 -3.422,-31.338 30.8,-49.819 37.645,-20.089 -0.856,-42.587 43.633,-39.374 18.822,1.608 28.234,-20.088 1.712,-19.284 -4.278,0 -17.112,-27.32 -35.934,-5.625 -8.555,10.446 -26.522,-9.642 -27.377,-8.035 -5.989,10.446 -1.712,57.051 -28.234,21.695 -14.544,-17.677 -33.367,-12.856 6.844,-26.516 10.267,-4.018 -1.711,-20.089 11.123,-12.857 7.7,4.821 8.555,32.945 41.066,2.411 19.678,-17.678 -37.644,-12.856 -38.5,-16.874 0,-15.267 6.845,-14.464 -19.677,-4.821 -29.089,10.445 8.555,13.659 -0.856,28.927 0,0 -17.967,7.232 -17.111,-8.036 0.855,-8.839 -22.245,-5.624 -9.411,9.643 7.7,10.446 -12.834,19.284 -16.256,5.625 -18.822,-5.625 -52.189,54.64 -52.189,67.496l0.001 0z"/>
     <path class="fil3" d="M214.934 69.877c8.555,0.803 17.966,12.856 29.944,7.232 0.855,0 -0.856,8.839 6.845,16.874 12.833,14.463 9.411,0 23.1,15.267 0,0 12.833,7.232 12.833,-6.428 0,-5.625 -11.122,-20.089 2.567,-19.285 2.567,0 2.567,5.625 17.967,-10.446 4.277,-4.821 -2.567,-6.428 -20.534,-8.839 -17.966,-3.214 -57.322,-4.821 -72.722,4.018 0,0 -0.855,1.607 0,1.607l0 0z"/>
     <path class="fil3" d="M309.045 80.323c17.111,-6.429 2.567,0.803 23.1,0 2.567,0 5.989,12.856 -9.411,8.839 -3.422,-1.608 -16.256,2.41 -14.545,-8.036l0.856 -0.803 0 0z"/>
     <path class="fil3" d="M353.533 111.66c9.411,-2.41 5.989,10.446 3.422,11.25 -9.411,4.018 -11.122,-14.464 -3.422,-11.25z"/>
     <path class="fil3" d="M357.811 106.036c4.278,2.41 10.267,8.838 10.267,13.659 0,4.822 4.277,5.625 8.555,3.215 0.856,-0.804 11.122,5.624 5.989,-7.232 -3.422,-7.232 -10.267,-5.625 -18.822,-9.643 0,0 -5.989,-0.803 -5.989,0l0 0.001z"/>
     <path class="fil3" d="M371.5 96.393c-2.567,12.053 5.133,4.018 14.544,12.857 5.134,5.624 5.134,8.035 0,13.66 -5.133,7.231 -5.133,3.214 -11.977,4.821 0,1.607 14.544,12.053 0,12.856 -5.134,0 -2.567,8.035 -1.712,9.642 2.567,5.625 -3.422,12.054 6.845,6.429 7.7,-4.018 14.544,10.446 12.833,-12.053 0,-2.411 9.412,-9.643 12.834,-2.411 2.567,5.625 -4.278,8.035 10.267,12.856 5.133,1.608 7.7,6.429 13.688,1.608 0.856,-0.804 0.856,-4.822 -1.711,-6.429 -1.711,-1.607 -9.411,-12.856 -12.833,-16.874 -0.856,-1.607 -8.556,-12.856 -11.978,-16.874 -5.989,-8.036 -10.267,-9.643 -15.4,-15.267 -1.712,-2.411 -8.556,-1.608 -12.834,-4.822 0,0 -2.567,-0.803 -2.567,0l0.001 0.001z"/>
     <path class="fil3" d="M375.778 171.925c0.855,-12.856 12.833,0.804 29.944,-8.838 12.834,-5.625 4.278,1.607 17.967,14.463 5.989,5.625 5.133,-17.677 12.833,-1.607 0.856,3.214 3.422,14.464 6.845,21.695 5.989,9.643 9.411,68.301 5.133,78.747 -1.711,4.017 -4.278,25.713 -9.411,21.695 -3.422,-2.411 -3.422,-22.499 0.856,-24.909 5.989,-4.018 -7.7,-11.25 -7.7,-18.481 0,-11.25 -7.7,-4.018 -10.267,-13.661 -5.133,-2.41 -22.244,16.071 -41.066,-1.607 -7.701,-7.232 -18.823,-6.428 -6.845,-18.481 5.989,-6.428 -5.133,-17.678 -5.133,-18.481 0,-5.625 6.844,-8.839 9.411,-18.481 0.855,-4.821 -2.567,-8.839 -2.567,-12.053l0 -0.001z"/>
     <path class="fil3" d="M212.367 255.492c3.422,-2.41 26.522,-4.017 26.522,-4.017 0,8.838 -11.122,8.838 -20.533,8.838 -2.567,0 -6.845,-4.017 -5.989,-4.821z"/>
    </g>
   </g>
   <path class="fil0" d="M256 62.645c106.944,0 193.355,81.96 193.355,181.598 0,100.441 -86.411,181.598 -193.355,181.598 -106.944,0 -193.355,-81.157 -193.355,-181.598 0,-99.638 86.411,-181.598 193.355,-181.598z"/>
   <path class="fil0" d="M256 62.645c106.944,0 193.355,81.96 193.355,181.598 0,100.441 -86.411,181.598 -193.355,181.598 -106.944,0 -193.355,-81.157 -193.355,-181.598 0,-99.638 86.411,-181.598 193.355,-181.598z"/>
   <g>
    <g id="_1999677619792">
     <polygon class="fil4" points="216.645,352.72 151.622,366.38 151.622,252.278 216.645,237.815 279.1,252.278 344.122,237.815 344.122,352.72 279.1,367.183 "/>
    </g>
    <g id="_1999677619696">
     <g>
      <path class="fil4" d="M216.645 239.422l60.744 14.463 1.711 0.804 1.711 -0.804 60.745 -12.856 0 110.887 -62.456 13.66 -60.744 -14.463 -1.711 -0.804 -1.711 0.804 -60.745 12.856 0 -110.887 62.456 -13.66 0 0zm130.044 -4.018l-67.589 15.267 -62.456 -15.267 0 0 0 0 0 0 0 0 -67.588 15.267 0 118.923 67.588 -15.267 62.456 15.267 67.589 -15.267 0 -118.923 0 0z"/>
     </g>
    </g>
   </g>
   <polygon class="fil5" points="279.1,365.576 216.645,350.309 216.645,239.422 279.1,253.885 "/>
   <path class="fil4 str1" d="M302.2 388.075c-11.122,-8.838 -42.778,19.285 -47.911,-4.821 -5.133,-23.302 42.778,-27.32 80.422,-44.998 34.222,-6.428 49.622,18.481 77,32.945l-31.656 36.159c-33.366,-7.232 -80.422,68.3 -151.433,32.141 -22.244,-11.249 -56.467,-17.677 -80.422,-24.106 -8.555,-4.821 -15.4,-24.106 -4.278,-23.302 11.978,-1.607 55.611,11.249 65.878,12.856 41.066,6.429 90.689,-4.821 92.4,-16.874l0 0z"/>
   <g id="_2077769219504">
    <polygon class="fil6" points="314.178,320.579 306.478,325.4 315.033,309.329 322.733,325.4 "/>
    <polygon class="fil7" points="309.9,303.704 309.9,293.258 312.467,293.258 316.744,300.49 316.744,293.258 319.311,293.258 319.311,303.704 316.744,303.704 312.467,297.276 312.467,303.704 "/>
    <g id="_1999677614000">
     <line class="fil8 str2" x1="297.922" y1="333.435" x2="331.289" y2= "333.435" />
     <line class="fil8 str2" x1="315.033" y1="331.828" x2="315.033" y2= "335.042" />
     <line class="fil8 str2" x1="306.478" y1="331.828" x2="306.478" y2= "335.042" />
     <line class="fil8 str2" x1="298.778" y1="331.025" x2="298.778" y2= "335.042" />
     <line class="fil8 str2" x1="330.434" y1="331.025" x2="330.434" y2= "335.042" />
     <line class="fil8 str2" x1="322.733" y1="331.828" x2="322.733" y2= "335.042" />
    </g>
   </g>
  </g>
 </g>
</svg>
