<?xml version="1.0" encoding="UTF-8"?>
<!DOCTYPE svg PUBLIC "-//W3C//DTD SVG 1.1//EN" "http://www.w3.org/Graphics/SVG/1.1/DTD/svg11.dtd">
<!-- Creator: CorelDRAW 2019 (64-Bit) -->
<svg xmlns="http://www.w3.org/2000/svg" xml:space="preserve" width="512px" height="512px" version="1.1" style="shape-rendering:geometricPrecision; text-rendering:geometricPrecision; image-rendering:optimizeQuality; fill-rule:evenodd; clip-rule:evenodd"
viewBox="0 0 512 512"
 xmlns:xlink="http://www.w3.org/1999/xlink">
 <defs>
  <style type="text/css">
   <![CDATA[
    .str2 {stroke:#2B2E34;stroke-width:1.041;stroke-miterlimit:22.9256}
    .str0 {stroke:#999999;stroke-width:0.567;stroke-miterlimit:22.9256}
    .str1 {stroke:#2B2E34;stroke-width:1.041;stroke-miterlimit:22.9256;stroke-dasharray:2.082000 5.206000}
    .fil0 {fill:none}
    .fil4 {fill:#2B2E34}
    .fil3 {fill:#9A9B9F}
    .fil2 {fill:white}
    .fil1 {fill:white}
   ]]>
  </style>
    <clipPath id="id0">
     <path d="M256 62.645c106.707,0 193.355,86.649 193.355,193.355 0,106.707 -86.648,193.355 -193.355,193.355 -106.706,0 -193.355,-86.648 -193.355,-193.355 0,-106.706 86.649,-193.355 193.355,-193.355z"/>
    </clipPath>
    <clipPath id="id1">
     <path d="M256 62.645c106.707,0 193.355,86.649 193.355,193.355 0,106.707 -86.648,193.355 -193.355,193.355 -106.706,0 -193.355,-86.648 -193.355,-193.355 0,-106.706 86.649,-193.355 193.355,-193.355z"/>
    </clipPath>
 </defs>
 <g id="Layer_x0020_1">
  <metadata id="CorelCorpID_0Corel-Layer"/>
  <rect class="fil0" width="512" height="512"/>
  <circle class="fil1 str0" cx="256" cy="256" r="236.074"/>
  <g id="_2077777513552">
   <g>
   </g>
   <g style="clip-path:url(#id0)">
    <g id="_1999569118624">
     <polygon class="fil2" points="62.645,62.645 449.355,62.645 449.355,449.355 62.645,449.355 "/>
    </g>
   </g>
   <path class="fil0" d="M256 62.645c106.707,0 193.355,86.649 193.355,193.355 0,106.707 -86.648,193.355 -193.355,193.355 -106.706,0 -193.355,-86.648 -193.355,-193.355 0,-106.706 86.649,-193.355 193.355,-193.355z"/>
   <g>
   </g>
   <g style="clip-path:url(#id1)">
    <g>
     <path id="_1" class="fil3" d="M73.877 192.618c12.837,-2.407 18.453,23.267 18.453,32.092 0,44.127 -12.836,21.662 28.883,39.313 24.069,10.43 -12.837,35.301 57.766,32.895 6.418,-0.803 7.221,8.022 28.081,10.429 17.65,0.803 7.221,20.861 0.802,28.081 -1.605,2.407 -8.023,32.894 0.802,32.894 19.256,0 49.743,8.826 49.743,31.29 0,3.209 7.221,40.918 7.221,40.918 22.464,16.848 9.628,7.221 37.708,-11.232 14.442,-10.43 15.244,-32.895 32.895,-43.325 17.65,-11.232 -11.233,-19.255 6.418,-32.092 0,-0.802 12.837,-27.278 -20.057,-13.639 -24.069,8.825 -30.488,-36.906 -48.941,-23.266 -19.255,15.243 -25.674,-9.628 -37.708,-8.826 -4.814,0 -54.557,-24.871 -53.755,-36.104 1.605,-23.266 -28.08,37.709 -32.092,-17.65 -4.011,-43.325 24.069,-4.012 33.697,-4.012 37.709,0 -4.011,-32.894 30.488,-52.149 37.708,-20.86 -0.803,-45.732 43.324,-41.72 19.255,0.802 28.081,-21.662 1.605,-20.86 -4.012,0 -16.849,-28.883 -35.302,-5.616 -8.825,11.232 -26.476,-10.43 -27.278,-8.825 -5.616,11.232 -1.604,60.172 -28.883,23.266 -13.639,-19.255 -32.092,-13.639 7.221,-28.883 10.43,-4.011 -1.604,-20.859 11.233,-12.836 8.022,4.814 8.825,34.499 40.917,2.407 19.256,-19.256 -37.708,-13.639 -37.708,-17.651 -0.802,-16.848 6.418,-16.046 -20.058,-5.616 -28.883,11.232 8.023,15.244 -0.802,30.488 -0.802,0 -18.453,8.023 -17.65,-8.023 0.802,-9.628 -21.663,-6.419 -8.826,10.43 8.023,11.232 -12.837,20.057 -16.046,5.616 -18.453,-6.419 -52.15,57.766 -52.15,72.207l-0.001 -0.001z"/>
     <path class="fil3" d="M215.082 71.47c8.826,0 17.651,13.639 29.686,7.221 0.802,0 -0.802,9.628 6.418,18.453 13.639,14.442 9.628,-0.802 23.267,15.244 0,0 12.837,8.023 12.837,-6.418 0,-5.617 -11.233,-21.663 2.407,-20.058 3.209,0 2.407,5.616 18.453,-11.232 4.814,-4.814 -2.407,-6.419 -20.86,-9.628 -17.651,-3.209 -56.964,-4.814 -71.405,4.011 -0.803,0 -1.605,2.407 -0.803,2.407z"/>
     <path class="fil3" d="M308.952 82.703c16.849,-7.221 2.407,0.802 22.465,0 3.209,0 6.418,12.836 -8.826,8.825 -3.209,-1.605 -16.046,3.209 -14.441,-8.023l0.802 -0.802z"/>
     <path class="fil3" d="M353.079 114.795c9.628,-1.605 5.616,11.232 3.209,12.034 -9.628,4.814 -10.43,-14.441 -3.209,-12.034z"/>
     <path class="fil3" d="M357.09 109.179c4.814,2.407 10.43,8.825 10.43,14.441 0,5.617 4.814,6.419 8.023,4.012 1.605,-1.605 11.233,5.616 6.419,-7.221 -3.209,-8.825 -10.43,-7.221 -18.453,-11.232 0,0 -6.419,0 -6.419,0l0 0z"/>
     <path class="fil3" d="M371.532 98.749c-3.209,13.639 4.813,4.814 13.639,13.639 5.616,6.419 5.616,9.628 0.802,15.244 -5.616,7.221 -5.616,2.407 -12.034,4.814 0,1.604 14.441,12.836 -0.803,13.639 -4.814,0 -2.407,8.023 -0.802,10.43 1.605,5.616 -4.012,12.034 6.418,6.418 7.221,-4.814 13.64,11.232 12.837,-12.837 0,-2.407 9.628,-10.43 12.837,-2.407 2.407,5.617 -4.012,8.023 9.627,13.639 5.617,1.605 8.024,7.221 13.64,2.408 1.604,-1.605 0.802,-5.617 -1.605,-7.221 -1.605,-1.605 -8.826,-13.639 -12.837,-17.651 -0.802,-1.604 -8.023,-14.441 -11.232,-18.453 -5.616,-8.023 -10.43,-9.627 -16.047,-16.046 -1.604,-2.407 -8.022,-1.605 -12.836,-5.616 0,0 -1.605,0 -1.605,0l0.001 0z"/>
     <path class="fil3" d="M375.543 178.979c0,-13.639 12.035,0.802 29.686,-8.825 12.034,-6.419 4.011,0.802 17.65,15.243 5.616,5.617 4.814,-19.255 12.837,-1.604 1.604,3.209 3.209,15.244 7.221,22.464 5.616,10.43 8.825,72.208 4.011,84.242 -1.605,4.011 -3.209,26.476 -8.825,22.464 -3.209,-3.209 -3.209,-23.266 0.802,-26.476 5.616,-4.011 -7.221,-12.035 -7.221,-20.057 0,-11.233 -8.022,-4.012 -11.232,-14.442 -4.814,-1.605 -21.662,17.651 -40.115,-1.605 -8.023,-7.221 -18.453,-6.418 -7.221,-19.255 6.418,-6.419 -4.814,-18.453 -4.814,-19.255 0,-6.419 7.221,-9.628 8.825,-20.058 1.605,-4.814 -1.604,-8.825 -1.604,-12.837l0 0.001z"/>
     <path class="fil3" d="M212.676 267.233c3.209,-2.408 26.476,-4.012 26.476,-4.012 0,9.628 -11.232,9.628 -20.86,9.628 -2.407,0 -6.419,-4.012 -5.616,-5.616z"/>
     <polygon class="fil2" points="195.025,323.394 243.966,294.511 351.474,341.044 389.182,458.181 195.025,458.181 "/>
    </g>
   </g>
   <path class="fil0" d="M256 62.645c106.707,0 193.355,86.649 193.355,193.355 0,106.707 -86.648,193.355 -193.355,193.355 -106.706,0 -193.355,-86.648 -193.355,-193.355 0,-106.706 86.649,-193.355 193.355,-193.355z"/>
   <path class="fil0" d="M256 62.645c106.707,0 193.355,86.649 193.355,193.355 0,106.707 -86.648,193.355 -193.355,193.355 -106.706,0 -193.355,-86.648 -193.355,-193.355 0,-106.706 86.649,-193.355 193.355,-193.355z"/>
   <path class="fil0 str1" d="M215.885 312.161c0,6.419 -3.209,18.453 -6.419,23.267 -1.604,2.407 -8.825,32.894 0,32.894 20.058,0 50.546,8.826 50.546,31.29 0,3.209 7.221,39.313 7.221,40.116 21.662,16.848 8.825,7.221 36.905,-12.035 15.244,-9.628 16.047,-32.092 32.895,-42.522 18.453,-11.232 -10.43,-18.453 6.418,-32.092 0,0 13.639,-26.476 -20.057,-12.837 -23.267,8.825 -29.686,-36.906 -48.941,-22.464 -19.255,14.441 -24.871,-10.43 -37.708,-9.628 -0.802,0 -4.814,-1.605 -9.628,-3.209l-11.232 7.221 0 -0.001z"/>
   <polygon class="fil2" points="217.49,310.557 223.908,305.743 229.524,302.534 281.674,303.336 288.092,338.637 222.303,316.975 "/>
   <path class="fil0 str2" d="M256 298.522c-13.639,16.046 -6.418,17.651 0.802,21.663 3.21,3.209 7.221,4.813 12.837,3.209 6.419,-0.803 12.035,-6.419 13.639,-6.419"/>
   <g>
    <rect class="fil4" x="252.791" y="296.115" width="4.823" height="4.823"/>
    <rect class="fil2" x="253.593" y="296.918" width="3.115" height="3.115"/>
   </g>
   <g>
    <rect class="fil4" x="281.674" y="314.568" width="4.823" height="4.823"/>
    <rect class="fil2" x="282.476" y="315.371" width="3.115" height="3.115"/>
   </g>
   <line class="fil0" x1="310.557" y1="146.887" x2="350.672" y2= "168.549" />
   <line class="fil0" x1="283.278" y1="199.037" x2="321.789" y2= "221.501" />
   <path class="fil4" d="M264.825 280.069l-5.616 -2.407c-0.802,4.012 0.803,0.803 -1.604,16.849 10.429,-11.233 8.825,-8.825 12.034,-12.035l-4.814 -2.407 0 0zm73.01 -119.543l-9.627 -5.616 -10.431 -4.814c0.803,-2.407 4.012,-5.616 7.221,-6.418 3.21,-0.803 5.616,-0.803 8.826,0.802l0 0c2.407,1.605 4.011,3.209 4.813,6.418 1.605,3.21 0.803,8.024 -0.802,9.628zm-77.021 114.729l4.011 2.407 0.803 0.803 60.975 -120.346 0 0 10.43 4.814 -39.313 77.021c-1.605,3.209 -12.035,11.233 -20.058,27.279 -2.407,4.011 -5.616,11.232 -7.221,13.638l-4.011 -2.406 -0.802 0 60.975 -120.346 -0.803 0 -9.628 -5.616 -38.51 77.021c-1.605,3.209 -2.407,16.848 -10.43,32.092 -1.605,4.814 -5.616,11.232 -6.419,13.639l0.001 0z"/>
  </g>
 </g>
</svg>
