<?xml version="1.0" encoding="UTF-8"?>
<!DOCTYPE svg PUBLIC "-//W3C//DTD SVG 1.1//EN" "http://www.w3.org/Graphics/SVG/1.1/DTD/svg11.dtd">
<!-- Creator: CorelDRAW 2019 (64-Bit) -->
<svg xmlns="http://www.w3.org/2000/svg" xml:space="preserve" width="512px" height="512px" version="1.1" style="shape-rendering:geometricPrecision; text-rendering:geometricPrecision; image-rendering:optimizeQuality; fill-rule:evenodd; clip-rule:evenodd"
viewBox="0 0 512 512"
 xmlns:xlink="http://www.w3.org/1999/xlink">
 <defs>
  <style type="text/css">
   <![CDATA[
    .str3 {stroke:#2B2E34;stroke-width:0.225;stroke-miterlimit:22.9256}
    .str4 {stroke:white;stroke-width:0.225;stroke-miterlimit:22.9256}
    .str1 {stroke:white;stroke-width:0.521;stroke-miterlimit:22.9256}
    .str2 {stroke:white;stroke-width:1.041;stroke-miterlimit:22.9256}
    .str0 {stroke:#999999;stroke-width:0.567;stroke-miterlimit:22.9256}
    .fil0 {fill:none}
    .fil5 {fill:#2B2E34}
    .fil4 {fill:#9A9B9F}
    .fil3 {fill:white}
    .fil1 {fill:white}
    .fil2 {fill:url(#id2)}
   ]]>
  </style>
    <clipPath id="id0">
     <path d="M256 62.643c106.51,0 193.357,86.847 193.357,193.357 0,106.51 -86.847,193.357 -193.357,193.357 -106.51,0 -193.357,-86.847 -193.357,-193.357 0,-106.51 86.847,-193.357 193.357,-193.357z"/>
    </clipPath>
    <clipPath id="id1">
     <path d="M256 62.643c106.51,0 193.357,86.847 193.357,193.357 0,106.51 -86.847,193.357 -193.357,193.357 -106.51,0 -193.357,-86.847 -193.357,-193.357 0,-106.51 86.847,-193.357 193.357,-193.357z"/>
    </clipPath>
  <linearGradient id="id2" gradientUnits="userSpaceOnUse" x1="353.498" y1="421.5" x2="157.683" y2="89.681">
   <stop offset="0" style="stop-opacity:1; stop-color:#D4D2D2"/>
   <stop offset="0.231373" style="stop-opacity:1; stop-color:#DAD8D8"/>
   <stop offset="0.639216" style="stop-opacity:1; stop-color:#EFEEEE"/>
   <stop offset="1" style="stop-opacity:1; stop-color:white"/>
  </linearGradient>
 </defs>
 <g id="Layer_x0020_1">
  <metadata id="CorelCorpID_0Corel-Layer"/>
  <rect class="fil0" width="512" height="512"/>
  <circle class="fil1 str0" cx="256" cy="256" r="236.074"/>
  <g id="_1835962640480">
   <path class="fil2" d="M256 63.462c106.51,0 192.538,86.028 192.538,192.538 0,106.51 -86.028,192.537 -192.538,192.537 -106.51,0 -192.537,-86.027 -192.537,-192.537 0,-106.51 86.027,-192.538 192.537,-192.538z"/>
   <g>
   </g>
   <g style="clip-path:url(#id0)">
    <g id="_1999669997120">
     <polygon class="fil3" points="62.643,62.643 449.357,62.643 449.357,449.357 62.643,449.357 "/>
    </g>
   </g>
   <path class="fil0" d="M256 62.643c106.51,0 193.357,86.847 193.357,193.357 0,106.51 -86.847,193.357 -193.357,193.357 -106.51,0 -193.357,-86.847 -193.357,-193.357 0,-106.51 86.847,-193.357 193.357,-193.357z"/>
   <g>
   </g>
   <g style="clip-path:url(#id1)">
    <g>
     <path id="_1" class="fil4" d="M74.114 192.094c13.109,-1.639 18.024,23.76 18.024,32.772 0,44.243 -13.108,22.122 29.496,39.327 23.76,9.831 -13.109,35.23 57.351,32.772 6.554,-0.819 7.374,8.193 27.856,9.832 18.025,1.639 7.374,21.302 0.82,28.675 -0.82,2.459 -8.193,32.773 0.819,32.773 19.663,0 49.978,9.012 49.978,31.953 0,3.277 7.374,40.146 7.374,40.146 22.121,17.206 9.012,7.374 36.869,-11.471 14.747,-9.831 16.386,-32.772 33.591,-43.423 18.025,-10.651 -10.651,-18.024 5.736,-31.953 0,0 13.928,-26.218 -19.664,-13.109 -23.76,9.013 -30.314,-36.869 -48.339,-22.94 -19.663,14.747 -25.398,-9.832 -37.688,-9.832 -4.916,0.82 -55.713,-23.76 -54.074,-35.23 1.638,-23.76 -27.857,36.869 -32.773,-18.025 -3.277,-43.423 25.399,-4.096 34.411,-4.096 37.689,0 -4.096,-32.773 30.315,-52.436 37.688,-20.483 -0.819,-45.062 43.423,-41.785 18.844,1.639 27.857,-21.302 1.639,-20.482 -4.097,0.819 -17.206,-28.676 -35.23,-5.736 -9.013,11.471 -27.038,-9.831 -27.857,-8.193 -5.735,11.471 -0.819,59.81 -27.856,22.941 -14.748,-19.664 -32.772,-13.928 6.554,-28.676 10.652,-4.096 -1.638,-21.302 11.471,-13.109 7.374,4.916 9.012,34.411 40.965,2.458 19.664,-18.844 -37.688,-13.928 -38.507,-18.024 0,-16.387 7.374,-15.567 -19.663,-4.916 -28.676,10.651 8.193,14.747 -0.82,30.314 0,0 -18.024,7.374 -17.205,-8.193 0.819,-9.831 -22.122,-6.554 -9.832,10.651 8.193,10.651 -11.471,20.483 -14.748,5.736 -18.844,-6.555 -52.435,57.351 -52.435,71.279l-0.001 0z"/>
     <path class="fil4" d="M215.035 71.656c9.012,0 18.024,13.109 29.495,7.374 0.819,-0.82 -0.82,9.012 6.554,18.024 13.928,14.748 9.832,-0.819 22.941,15.567 0.819,0 13.109,8.193 13.109,-6.554 0,-5.736 -10.651,-21.302 3.277,-20.483 2.458,0 1.639,6.554 17.205,-10.651 4.916,-4.916 -2.458,-6.555 -20.482,-9.832 -17.206,-3.277 -56.533,-4.916 -71.28,4.097 -0.82,0 -1.639,1.638 -0.82,2.458l0.001 0z"/>
     <path class="fil4" d="M309.255 82.306c16.386,-7.374 2.458,0.82 22.122,0 3.277,0 6.554,13.929 -8.193,9.013 -4.097,-1.639 -16.387,3.277 -14.748,-8.193l0.819 -0.82 0 0z"/>
     <path class="fil4" d="M352.678 115.079c9.832,-2.458 6.555,10.651 3.278,12.29 -9.013,4.096 -10.652,-15.567 -3.278,-12.29z"/>
     <path class="fil4" d="M356.775 109.344c4.916,2.458 10.651,9.012 10.651,14.747 0,4.916 4.916,5.736 8.193,3.278 1.639,-0.82 11.471,5.735 6.555,-7.374 -3.277,-8.193 -10.651,-6.555 -18.844,-10.651 0,0 -5.735,-0.82 -6.555,0l0 0z"/>
     <path class="fil4" d="M371.523 98.693c-3.278,13.928 4.915,4.916 13.928,13.928 5.735,5.735 4.916,9.012 0,14.748 -4.916,7.373 -4.916,3.277 -11.47,4.915 0,1.639 13.928,13.109 -0.82,13.109 -4.916,0.819 -2.458,9.012 -0.819,11.471 1.639,4.915 -4.097,12.289 5.735,5.735 8.193,-4.097 14.747,11.47 13.109,-12.29 0,-3.277 9.831,-10.651 13.109,-3.277 2.458,6.555 -4.097,9.012 9.831,13.928 5.736,1.639 8.193,7.374 13.929,2.458 0.819,-1.639 0.819,-4.916 -1.639,-7.374 -2.458,-1.639 -9.013,-13.109 -13.109,-17.205 -0.82,-1.639 -8.193,-14.748 -11.47,-18.025 -5.736,-8.193 -10.652,-10.651 -15.567,-16.386 -1.639,-2.458 -8.193,-1.639 -13.109,-4.916 0,-0.82 -1.639,-0.82 -1.639,-0.82l0.001 0.001z"/>
     <path class="fil4" d="M375.619 178.985c0,-13.928 12.29,0.819 29.495,-9.012 12.29,-6.555 4.097,1.638 18.025,15.566 5.735,5.736 4.916,-18.843 12.29,-1.638 1.639,3.277 4.096,14.747 7.374,22.121 5.735,10.651 9.012,72.099 4.096,84.389 -1.638,4.097 -3.277,27.037 -8.193,22.121 -3.277,-2.457 -4.096,-22.94 0,-25.398 5.735,-4.916 -6.554,-12.29 -6.554,-20.483 0,-11.47 -8.193,-4.096 -11.471,-14.747 -4.916,-1.639 -21.302,18.024 -40.965,-1.639 -7.374,-7.374 -18.025,-6.555 -6.555,-18.844 6.555,-6.555 -4.916,-18.844 -4.916,-19.664 0,-5.735 7.374,-9.012 9.013,-19.663 1.638,-5.735 -1.639,-9.012 -1.639,-13.109l0 0z"/>
     <path class="fil4" d="M213.396 267.47c2.458,-2.458 26.218,-4.096 26.218,-4.096 0,9.831 -11.47,9.012 -21.302,9.012 -2.458,0 -6.555,-3.277 -4.916,-4.916z"/>
    </g>
   </g>
   <path class="fil0" d="M256 62.643c106.51,0 193.357,86.847 193.357,193.357 0,106.51 -86.847,193.357 -193.357,193.357 -106.51,0 -193.357,-86.847 -193.357,-193.357 0,-106.51 86.847,-193.357 193.357,-193.357z"/>
   <path class="fil0" d="M256 62.643c106.51,0 193.357,86.847 193.357,193.357 0,106.51 -86.847,193.357 -193.357,193.357 -106.51,0 -193.357,-86.847 -193.357,-193.357 0,-106.51 86.847,-193.357 193.357,-193.357z"/>
   <g>
    <ellipse class="fil3 str1" cx="286.315" cy="175.708" rx="6.554" ry="3.277"/>
    <line class="fil0 str2" x1="301.062" y1="158.502" x2="287.134" y2= "174.069" />
    <path class="fil3 str3" d="M333.015 203.564l0 0c0,0.82 0,0.82 0,0.82l-2.458 58.99c-7.374,28.676 -85.208,32.772 -95.859,-0.819l-2.458 -57.352c0,-0.819 0,-0.819 0,-1.639l0 0c0,-14.747 22.121,-26.218 49.977,-26.218 27.857,0 50.798,11.471 50.798,26.218 0,0 0,0 0,0l0 0 0 0z"/>
    <path class="fil5" d="M282.218 321.545l27.037 -38.508c-20.482,5.735 -32.772,5.735 -53.254,0l26.217 38.508 0 0z"/>
    <path class="fil0" d="M224.866 177.346c42.604,39.327 83.57,39.327 122.077,0"/>
    <ellipse class="fil3 str3" cx="282.218" cy="202.745" rx="50.797" ry="25.399"/>
    <ellipse class="fil5 str3" cx="282.218" cy="201.926" rx="33.592" ry="16.386"/>
    <ellipse class="fil3 str1" cx="282.218" cy="201.926" rx="5.735" ry="3.277"/>
    <line class="fil0 str4" x1="294.508" y1="189.636" x2="283.037" y2= "201.925" />
   </g>
  </g>
 </g>
</svg>
