<?xml version="1.0" encoding="UTF-8"?>
<!DOCTYPE svg PUBLIC "-//W3C//DTD SVG 1.1//EN" "http://www.w3.org/Graphics/SVG/1.1/DTD/svg11.dtd">
<!-- Creator: CorelDRAW 2019 (64-Bit) -->
<svg xmlns="http://www.w3.org/2000/svg" xml:space="preserve" width="512px" height="512px" version="1.1" style="shape-rendering:geometricPrecision; text-rendering:geometricPrecision; image-rendering:optimizeQuality; fill-rule:evenodd; clip-rule:evenodd"
viewBox="0 0 512 512"
 xmlns:xlink="http://www.w3.org/1999/xlink">
 <defs>
  <style type="text/css">
   <![CDATA[
    .fil0 {fill:none}
    .fil1 {fill:#A82054;fill-opacity:0.200000}
   ]]>
  </style>
 </defs>
 <g id="Layer_x0020_1">
  <metadata id="CorelCorpID_0Corel-Layer"/>
  <rect class="fil0" width="512" height="512"/>
  <g id="_2136334596928">
   <path class="fil1" d="M137.11 200.28c22.26,0.96 35.12,-5.59 61.09,-2.54 21.03,2.47 41.3,15.47 54.79,16.46 18.43,1.36 32.97,-11.07 53.46,-15.03 29.52,-5.7 41.87,0.63 67.81,2.47 16.53,-185.16 -255.84,-178.77 -237.15,-1.36z"/>
   <path class="fil1" d="M127.55 223.21c-133.02,59.73 -46.19,285.71 115.5,206.73 -31.15,-49.44 -45.04,-45.58 -43.16,-130.25 -48.91,-21.13 -42.61,-36.44 -72.34,-76.48z"/>
   <path class="fil1" d="M310.67 300.03c2.86,72.91 -8.32,89.08 -42.83,128.14 70.05,41.8 135.68,7.4 163.71,-38.54 42.14,-69.1 4.11,-146.64 -49.07,-165.79 -33.31,47.61 -18.93,50.31 -71.81,76.19z"/>
   <path class="fil1" d="M250.14 419.44c35.5,-18.49 54.84,-55.66 50.26,-107.94l-89.96 -3.63c-1.96,66.55 14.24,76.68 39.7,111.57z"/>
   <path class="fil1" d="M145.49 214.15c-5.97,27.41 30.85,60.68 53.96,73.01l43.63 -62.11c-31.53,-15.42 -60.28,-24.77 -97.59,-10.9z"/>
   <path class="fil1" d="M268.68 221.78c4.49,9.73 34.68,57.3 41.89,65.37 23.79,-12.88 57.24,-39.91 56.16,-74.43 -42.43,-9.22 -65.38,-1.03 -98.05,9.06z"/>
  </g>
 </g>
</svg>
