<?xml version="1.0" encoding="UTF-8"?>
<!DOCTYPE svg PUBLIC "-//W3C//DTD SVG 1.1//EN" "http://www.w3.org/Graphics/SVG/1.1/DTD/svg11.dtd">
<!-- Creator: CorelDRAW 2019 (64-Bit) -->
<svg xmlns="http://www.w3.org/2000/svg" xml:space="preserve" width="512px" height="512px" version="1.1" style="shape-rendering:geometricPrecision; text-rendering:geometricPrecision; image-rendering:optimizeQuality; fill-rule:evenodd; clip-rule:evenodd"
viewBox="0 0 512 512"
 xmlns:xlink="http://www.w3.org/1999/xlink">
 <defs>
  <style type="text/css">
   <![CDATA[
    .fil0 {fill:none}
    .fil1 {fill:#5E207B;fill-opacity:0.200000}
   ]]>
  </style>
 </defs>
 <g id="Layer_x0020_1">
  <metadata id="CorelCorpID_0Corel-Layer"/>
  <rect class="fil0" width="512" height="512"/>
  <g id="_2136381291312">
   <path class="fil1" d="M96.14 119.47c0,111.09 -4.43,96.51 75.15,96.51 9.27,10.85 5.24,6.51 5.71,23.32 14.94,-5.73 51.86,-53.91 71.31,0.74 20.85,-12.34 23.57,-50.82 75.96,-1.29 0.68,-1.1 1.48,-4.18 1.74,-3.49 3.33,8.57 0.47,-3.51 8.13,-19.44 86.71,0 81.71,17.15 81.71,-101.29 0,-28.38 -5.54,-33.77 -32.36,-33.77l-256.62 0c-29.34,0 -30.73,9.86 -30.73,38.71z"/>
   <path class="fil1" d="M323.78 385.52c-22.54,-16.2 -49.29,-31.97 -91.78,-22.8 -44.82,9.67 -46.43,20.26 -46.21,68.49l133.55 0.03 5.49 -0.03 -1.05 -45.69z"/>
   <path class="fil1" d="M166.35 405.69c19.77,-9.94 2.08,-14.71 20.95,-33.35 5.33,-5.26 12.94,-8.05 18.6,-11.18l14.45 -9.75c-40.68,-35.86 -87.27,-13.92 -123.52,7.84l-0.24 46.41 69.76 0.03z"/>
   <path class="fil1" d="M308.44 362.23c3.87,2.06 13.63,7.88 15.23,9.47 31.73,31.81 -31.79,34.08 90.1,33.9 0.78,-46.19 -1.01,-56.65 -41.55,-67.97 -29.86,-8.34 -57.96,-5.61 -81.64,13.78l17.86 10.82z"/>
   <path class="fil1" d="M248.51 284.57c-48.99,12.11 -26.79,79.33 13.86,69.51 42.62,-10.29 31.72,-80.77 -13.86,-69.51z"/>
   <path class="fil1" d="M378.27 276.28c-12.74,-9.93 -22.69,-24.43 -46.29,-16.32 -14.48,4.98 -27.1,22.45 -20.3,44.51 10.59,34.38 73.16,37.09 66.59,-28.19z"/>
   <path class="fil1" d="M181.74 326.24c10.09,-12.67 24.7,-22.44 16.81,-46.03 -4.92,-14.71 -22.09,-27.85 -44.35,-20.32 -32.01,10.83 -40.49,72.59 27.54,66.35z"/>
  </g>
 </g>
</svg>
