<?xml version="1.0" encoding="UTF-8"?>
<!DOCTYPE svg PUBLIC "-//W3C//DTD SVG 1.1//EN" "http://www.w3.org/Graphics/SVG/1.1/DTD/svg11.dtd">
<!-- Creator: CorelDRAW 2019 (64-Bit) -->
<svg xmlns="http://www.w3.org/2000/svg" xml:space="preserve" width="512px" height="512px" version="1.1" style="shape-rendering:geometricPrecision; text-rendering:geometricPrecision; image-rendering:optimizeQuality; fill-rule:evenodd; clip-rule:evenodd"
viewBox="0 0 512 512"
 xmlns:xlink="http://www.w3.org/1999/xlink">
 <defs>
  <style type="text/css">
   <![CDATA[
    .fil1 {fill:none}
    .fil0 {fill:#004671;fill-opacity:0.200000}
   ]]>
  </style>
 </defs>
 <g id="Layer_x0020_1">
  <metadata id="CorelCorpID_0Corel-Layer"/>
  <g id="_2136334589152">
   <path class="fil0" d="M84.39 428.67c35.6,6.27 212.83,2.03 273.02,2.18 61.95,0.15 72.25,9.03 72.25,-15.89 0,-17.57 0.12,-19.78 -15.88,-19.78l-294.97 0 0 -301.54c0,-11.68 -3.96,-14.15 -15.08,-14.15 -25.52,0 -20.92,5.35 -21.27,30.35l1.93 318.83z"/>
   <path class="fil0" d="M323.58 219.3c-16.41,4.86 -20.46,-2.15 -34.31,-12.03 -30.48,-21.78 -16.05,-4.61 -25.63,-37.4 -13.29,-45.46 -42.77,-32.61 -69.39,-10.32 -5.76,77.36 29.52,-16.71 -9.6,116.31 -13.55,46.09 -5.38,19.08 -32.62,41.1 -39.24,31.72 11.23,88.46 47.49,52.96 23.72,-23.22 6.3,-34.36 2.8,-52.74 -3.27,-17.21 7.45,-38.53 12.83,-55.62 2.91,-9.28 5.24,-20.85 9,-30.38 7.5,-19.01 -0.05,-15.23 21.19,-19.89 10.05,-3 40.16,13.19 49.04,35.97 8.26,21.19 -3.79,13.1 21.81,43.23 83.86,4.04 41.03,-62.65 42.54,-76.81 2.1,-19.68 14.38,-51.3 28.89,-61.79 6.5,-4.7 2.84,-0.36 10.63,-6.19 8.47,-6.34 13.32,-9.28 14.94,-24.84 4.96,-47.72 -67.56,-51.67 -71.8,-9.64 -3.18,31.49 17.24,18.76 6.73,56.82 -12.89,46.72 -11.06,42.31 -24.54,51.26z"/>
  </g>
  <rect class="fil1" width="512" height="512"/>
 </g>
</svg>
