<?xml version="1.0" encoding="UTF-8"?>
<!DOCTYPE svg PUBLIC "-//W3C//DTD SVG 1.1//EN" "http://www.w3.org/Graphics/SVG/1.1/DTD/svg11.dtd">
<!-- Creator: CorelDRAW 2019 (64-Bit) -->
<svg xmlns="http://www.w3.org/2000/svg" xml:space="preserve" width="512px" height="512px" version="1.1" style="shape-rendering:geometricPrecision; text-rendering:geometricPrecision; image-rendering:optimizeQuality; fill-rule:evenodd; clip-rule:evenodd"
viewBox="0 0 512 512"
 xmlns:xlink="http://www.w3.org/1999/xlink">
 <defs>
  <style type="text/css">
   <![CDATA[
    .fil0 {fill:none}
    .fil1 {fill:#8C6B56;fill-opacity:0.200000}
   ]]>
  </style>
 </defs>
 <g id="Layer_x0020_1">
  <metadata id="CorelCorpID_0Corel-Layer"/>
  <rect class="fil0" width="512" height="512"/>
  <path class="fil1" d="M109.92 128.53c0.9,1.68 1.6,2.5 1.84,5.43 4.38,52.26 17.48,53.97 48.01,94.54l10.25 -25.46c16.21,55.53 24.95,35.94 73.95,68.86 11.84,7.96 15.9,13.75 34.61,19.1 -32.51,91.48 42.62,21.3 21.77,150.61 -122.98,50.39 -296.74,-96.1 -225.22,-265.23 3.9,-9.22 8.06,-17.91 13.88,-26.18l20.91 -21.67zm170.14 90.51c13.69,-45.88 1.5,-41.4 63.49,-74.06 20.06,-10.57 -10.8,3.39 10.19,-3.97 11.69,-4.1 -0.16,5.56 12.27,-3.75 -1.09,-25.13 -5.24,-24.66 -24.24,-36.25 -81.22,-49.52 -51.43,39.83 -95.15,-10.74 15.94,-35.86 47.42,-16.94 47.62,-16.93 38.97,3.81 70.88,-1.96 121.5,67.95 50.12,69.22 42.37,127.58 12.93,206.68 0.62,-26.66 1.26,-23.31 -15.04,-36.25 -9.84,-7.81 -10.99,-5.2 -21.93,-12.07 -34.21,-21.45 -41.72,-48.31 -106.74,-25.23l-29.02 -40.74c-27.21,-21.07 -24.67,5.19 -38.01,-22.59 6.24,-11.15 2.59,-22.12 30.7,-14.2 19.29,5.43 13.39,14.67 31.43,22.15zm-67.54 -183.75c-298.22,66.7 -203,492.22 84.19,442.69 105.91,-18.27 207.17,-127.71 181.13,-265 -19.99,-105.45 -131.74,-207.56 -265.32,-177.69z"/>
 </g>
</svg>
