<?xml version="1.0" encoding="UTF-8"?>
<!DOCTYPE svg PUBLIC "-//W3C//DTD SVG 1.1//EN" "http://www.w3.org/Graphics/SVG/1.1/DTD/svg11.dtd">
<!-- Creator: CorelDRAW 2019 (64-Bit) -->
<svg xmlns="http://www.w3.org/2000/svg" xml:space="preserve" width="512px" height="512px" version="1.1" style="shape-rendering:geometricPrecision; text-rendering:geometricPrecision; image-rendering:optimizeQuality; fill-rule:evenodd; clip-rule:evenodd"
viewBox="0 0 512 512"
 xmlns:xlink="http://www.w3.org/1999/xlink">
 <defs>
  <style type="text/css">
   <![CDATA[
    .str0 {stroke:#E6E6E6;stroke-width:4;stroke-miterlimit:10}
    .str1 {stroke:#E6E6E6;stroke-width:8;stroke-miterlimit:22.912}
    .fil0 {fill:none}
    .fil1 {fill:#999999}
   ]]>
  </style>
 </defs>
 <g id="Layer_x0020_1">
  <metadata id="CorelCorpID_0Corel-Layer"/>
  <rect class="fil0" width="512" height="512"/>
  <g id="_2138882627936">
   <path class="fil1 str0" d="M328.86 406.43c-1.67,1.55 -4.61,3.73 -5.06,3.73 -0.22,-0.06 -0.55,-3.92 -0.49,-5.39l7.36 0 -1.81 1.66zm6.83 -0.76c-1.2,0.62 -2.91,1.43 -3.8,1.82 -1.93,0.81 -4.33,1.76 -4.16,1.64 0.3,-0.25 3.93,-3.73 4.85,-4.61 1.33,0.02 4,0.03 5.32,0.02l-2.21 1.13zm-17.18 -0.9l3.51 0c0.05,1 0.38,5.03 0.22,5.31 -0.2,0.2 -3.8,-2.08 -5.96,-3.77 -1.99,-1.54 -2.43,-1.99 -1.64,-1.69 0.22,0.07 1.96,0.15 3.87,0.15zm-5.83 0.19c0.64,0.52 4.08,3.3 4.75,3.8l0.61 0.44c-2.81,-0.73 -9.21,-3.3 -12.74,-4.92 1.51,0.09 7.17,0.14 7.38,0.68l0 0zm32.3 0.17c-3.75,1.25 -11.79,3.56 -12.35,3.56 0.08,-0.24 7.05,-3.65 8.46,-4.39l2.69 -0.22c5.54,-0.47 5.62,-0.39 1.2,1.05zm-41.32 -0.27c0.9,0.44 2.27,1.06 3.04,1.38 2.74,1.12 1.12,0.76 -3.41,-0.74 -2.53,-0.83 -4.66,-1.59 -4.73,-1.67 -0.08,-0.04 0.68,-0.04 1.66,0.05 1.3,0.1 2.23,0.37 3.44,0.98zm-34.94 -6.12c5.52,1.49 12.9,2.91 20.45,3.94 3.72,0.52 4.61,0.71 7.84,1.91 4.19,1.55 10.13,3.46 14.54,4.69 3.43,0.95 3.11,1.05 -1.72,0.51 -13.85,-1.52 -25.78,-4.46 -38.9,-9.58 -3.38,-1.33 -6.32,-2.63 -4.9,-2.21 0.22,0.07 1.44,0.42 2.69,0.74zm120.41 -2.58c-0.69,0.66 -11.08,4.88 -16.55,6.72 -13.12,4.51 -27.66,6.96 -40.93,7.67 -1.77,0.22 -1.01,-0.12 1.74,-0.78 5.39,-1.3 13.73,-3.88 18.51,-5.74 1.44,-0.56 2.89,-0.88 5.85,-1.25 10.62,-1.32 21.94,-3.65 28.81,-5.93 3.04,-1.01 2.84,-0.96 2.57,-0.69zm-42.85 -16.72c-3.32,7.72 -9.15,18.65 -14.56,24.1l-8.58 0c-0.49,-6.43 -1.1,-19.96 -1.05,-25.49 8.05,0.05 17.67,-0.27 24.98,-0.49l-0.79 1.88 0 0zm-41.72 -1.64c6.98,0.22 11.07,0.32 16.18,0.37 0.18,6.45 0.83,20.96 1.18,25.44 -2.31,-0.05 -6.96,-0.19 -9.27,-0.27 -4.63,-4.72 -9.18,-10.59 -12.79,-16.74 -1.6,-2.72 -4.39,-8.01 -4.61,-8.77 -0.15,-0.52 -0.12,-0.57 0.39,-0.44 0.32,0.07 4.34,0.27 8.92,0.41zm66.36 -1.54c-6.07,7.96 -17.83,19.16 -27.16,24.83 -3.19,2.01 -3.63,2.15 -7.89,2.18l-2.28 0.02c5.23,-5.7 11.03,-16.4 14.88,-25.86 4.61,-0.21 15.87,-1.19 19.46,-1.56 0.88,-0.13 2.01,-0.23 2.52,-0.25l0.93 -0.02 -0.46 0.66zm-98.52 -0.93c5.9,0.84 14.61,1.47 21.16,2.06 4.01,8.27 9.59,17.65 15.51,23.87 2.09,2.35 2.45,2.16 -3.21,1.77l-3.75 -0.25c-11.87,-6.28 -22.95,-14.35 -32.23,-24.19 -3.09,-3.24 -3.7,-3.97 -3.34,-3.97 0.1,0 2.73,0.32 5.86,0.71zm-25.56 -4.54c5.38,1.29 12.34,2.66 17.4,3.41 9.62,11.33 22.48,21.76 34.93,28.36 -6.19,-0.5 -7.9,-1.17 -19,-6.64 -13.9,-6.87 -26.81,-15.78 -37.26,-25.64 -0.54,-0.54 -0.56,-0.59 -0.12,-0.47 0.27,0.07 2.08,0.52 4.04,0.98l0.01 0zm157.27 0.15c-12.18,11.88 -34.36,25.21 -49.91,30.86 -0.86,0.27 -8.06,1.01 -9.88,1.01 -0.95,0 -0.93,-0.03 1.69,-1.75 3.12,-2.05 6.7,-4.73 9.78,-7.3 4.84,-3.96 13.81,-13.73 17.46,-18.31 0.17,-0.15 1.05,-0.34 1.98,-0.44 5.59,-0.57 21.11,-3.34 27.26,-4.91 3.36,-0.85 3.41,-0.83 1.62,0.84zm-193.48 -15.25c6.11,4.85 18.72,10.21 29.15,13.29 13.06,13.06 30.4,23.97 48.51,32.31 -0.69,0.22 -12.48,-2.01 -18.04,-3.44 -4.64,-1.17 -12.04,-3.58 -14.49,-4.7 -3.85,-1.79 -11.84,-6.72 -17.6,-10.89 -8.23,-5.77 -24.51,-20.91 -29.22,-27.75 0.07,0 0.83,0.54 1.69,1.18zm231.55 -1.49c-5.98,7.72 -21.79,23.21 -23.71,23.23 -0.27,0 -0.88,0.49 -1.39,1.11 -1.13,1.35 -4.12,3.6 -9.56,7.23 -5.59,3.7 -7.51,4.78 -11.4,6.37 -9.04,4.06 -27.29,8.23 -36.94,9.19 -0.25,0 0.93,-0.61 2.6,-1.34 17.43,-7.72 33.3,-18.44 46.72,-31.4 10.96,-2.87 25.28,-8.57 33.92,-14.78 0.05,-0.03 -0.07,0.17 -0.24,0.39zm-85.55 -8.83c-2.11,10.12 -5.72,22.63 -9.05,30.89 -5.96,0.33 -17.91,0.53 -25.66,0.64 -0.2,-9.91 -0.49,-21.96 -0.64,-32.39 11.67,-0.24 28.52,-0.77 35.03,-1.22l0.76 -0.05 -0.44 2.13zm-65.06 -1.76c4.77,0.31 24.64,0.76 28.46,0.93 0,-0.75 0.62,32.78 0.73,32.09 -0.4,0.43 -21.69,0.02 -26.37,-0.57 -3.68,-7.78 -7.2,-18.29 -9.93,-28.9 -0.98,-3.87 -1.03,-4.17 -0.41,-4.02 0.22,0.05 3.62,0.27 7.52,0.47zm99.89 -3.8c-2.51,7.64 -12.48,26.41 -17.82,32.89 -1.2,1.57 -0.69,1.42 -6.69,2.04 -8.04,0.81 -17.9,1.52 -17.9,1.25 3.45,-9.17 6.23,-18.5 9.19,-32.19 0.15,-0.63 0.3,-0.66 5.52,-1.05 8.7,-0.66 20.41,-1.95 27.53,-3.16 0.1,0 0.17,0.09 0.17,0.22zm-133.1 0.58c6.75,1.1 16.73,1.9 23.82,2.75 0.32,1.2 2.92,11.64 4.61,16.62 1.84,5.77 4.3,11.84 6.13,16.18 0,0.15 -0.54,0.1 -8.83,-0.61 -6.86,-0.57 -12.14,-1.22 -18.99,-2.19 -3.72,-3.86 -9.36,-12.12 -13.36,-18.87 -2.45,-4.22 -8.09,-15.57 -8.09,-16.28 3.1,0.54 10.22,1.79 14.71,2.4zm-39.59 -8.99c7.04,2.33 16.8,5 23.33,6.23 5.15,12.25 13.41,26.43 21.01,35.1 -4.95,-0.58 -16.14,-3.08 -22.53,-4.78 -9.67,-8.74 -22.22,-26.52 -27.57,-38.51 0,-0.07 0.41,0.02 0.93,0.24 0.49,0.22 2.67,0.98 4.83,1.72zm214.83 0.34c-5.76,11.52 -13.29,22.31 -22.63,32.38 -2.45,2.67 -3.28,3.41 -4.02,3.61 -8.64,2.39 -21.9,4.78 -31.59,6.05 -0.45,0.08 -0.81,0.05 -0.81,-0.02 6,-8.69 11.8,-18.32 16.25,-29.05 1,-2.35 1.89,-4.51 1.98,-4.8 0.15,-0.45 0.52,-0.59 2.8,-0.94 10.83,-1.76 26.17,-5.33 36.08,-8.77 1.69,-0.59 3.09,-1.06 3.14,-1.03 0.05,0.02 -0.49,1.17 -1.2,2.57l0 0zm-245.94 -17.16c5.08,4.94 15.19,10.86 23.56,14.03 6.07,12.89 14.3,25.3 24,35.66 1.42,1.5 2.54,2.75 2.47,2.75 -12.28,-3.57 -27.27,-11.25 -32.06,-17.43 -4.59,-4.61 -9.61,-12.97 -15,-23.44 -2.75,-5.44 -6.79,-14.75 -6.79,-15.59 0,-0.12 0.41,0.32 0.95,0.98 0.52,0.64 1.82,2.01 2.87,3.04zm174.7 -6.96c-1.08,11.02 -3.26,26.26 -5.02,34.34 -6.33,0.63 -34.83,1.44 -35.99,1.13 -0.17,-1.56 -0.24,-28.73 -0.29,-35.08 12.1,-0.12 32.34,-0.66 41.01,-1.52 0.34,-0.02 0.39,0.18 0.29,1.13zm-79.74 -0.91c8.93,0.75 26.05,1.21 37.26,1.3 0.03,9.63 -0.11,28.88 0.32,35.2 -10.23,-0.09 -33.32,-0.85 -36.28,-1.34 -0.76,-0.13 -0.78,-0.15 -1.27,-2.38 -2,-8.72 -4.16,-23.07 -5.07,-32.11l-0.15 -0.91c1.58,-0.02 2.71,0.07 5.19,0.24zm119.18 -4.24c-1.99,11.56 -5.71,25.08 -9.65,35.79 -7.96,1.36 -26.82,3.35 -33.46,3.65 1.63,-9.09 3.58,-20.98 4.56,-30.98 0.26,-2.33 0.51,-4.29 0.58,-4.36 5.63,-0.73 16.37,-1.51 21.75,-2.33 4.9,-0.61 15.29,-2.18 15.41,-2.33 0.05,-0.05 0.3,-0.1 0.52,-0.1 0.32,0 0.39,0.15 0.29,0.66zm-163.3 -1.42c10.4,2.19 24.57,3.96 37.68,5.27 1.13,10.45 3.54,25.77 5.61,35.38 -9.84,-0.55 -28.24,-2.98 -38.78,-5.13 -4.28,-10.29 -8.8,-26.31 -10.39,-36.52 0,-0.15 0.22,-0.2 0.56,-0.1 0.3,0.07 2.7,0.59 5.32,1.1zm208.85 -11.3c-1.62,9.68 -5.74,24.35 -10.1,34.08 -1.74,4.09 -1.08,3.6 -7.3,5.63 -10.61,3.48 -23.51,6.61 -36.23,8.51 -0.05,-0.05 0.68,-2.38 1.64,-5.2 3.37,-9.6 6.05,-21.48 7.94,-31.1 12.63,-2.4 32.27,-7.33 41.84,-11.35 2.04,-0.81 2.21,-0.86 2.21,-0.57zm-243.07 1.4c7.79,3.23 17.74,6.2 26.94,8.41 2.17,11.56 5.48,24.33 9.34,34.09 0.49,1.28 0.83,2.36 0.78,2.41 -0.17,0.17 -2.37,-0.32 -8.23,-1.77 -7.59,-1.86 -14.41,-4.05 -20.18,-6.3 -0.83,-0.29 -1.44,-1.49 -3.57,-6.76 -3.61,-8.95 -6.57,-19.05 -8.49,-28.81 -0.34,-1.88 -0.44,-2.86 -0.27,-2.79 0.15,0.07 1.82,0.76 3.68,1.52zm-28.46 -18.78c5.33,6.51 13.79,12.13 23.14,16.52 2.1,12.16 6.24,26.28 10.71,36.31 0.35,0.81 0.59,1.49 0.54,1.54 -0.29,0.32 -9.53,-4.29 -13.18,-6.57 -4.78,-2.99 -9.42,-6.91 -11.77,-9.95 -0.81,-1.08 -1.05,-1.25 -1.42,-1.05 -0.54,0.29 -0.79,-0.3 -2.67,-6.35 -2.77,-8.85 -4.74,-17.6 -5.91,-26.5 -0.79,-5.96 -0.76,-5.83 -0.42,-5.3 0.17,0.25 0.61,0.86 0.98,1.35zm188.92 -5.07c0.05,6.45 -1.28,27.85 -1.96,36.65 0,1.2 -0.22,1.29 -3.33,1.54 -8.58,0.72 -27.03,1.21 -38.34,1.3l0 -39.66c14.74,-0.08 27.65,-0.35 43.09,-1.33 0.52,-0.02 0.54,0.08 0.54,1.5zm-82.97 -1.4c11.74,0.83 25.22,1.09 37.99,1.23 0.04,9.88 0.1,29.78 0.12,39.66 -11.17,-0.03 -35.6,-0.81 -42.45,-1.77 -0.61,-1.13 -2.12,-29 -2.21,-39.49 1.16,-0.01 2.94,0.15 6.55,0.37zm124.05 -2.52c-0.38,11.23 -1.73,25.53 -3.58,36.94 -0.2,0.85 -28.09,4.11 -38.48,4.97 0.78,-2.77 1.98,-30.7 2.33,-39.46 0.05,-0.05 2.72,-0.3 5.93,-0.57 10.37,-0.8 23.17,-2.25 30.23,-3.38 4.14,-0.68 3.75,-0.86 3.57,1.5zm-173.2 -3.61c11.96,2.39 27.82,4.56 41.38,5.57 0.07,11.96 1.23,28.43 1.93,39.56 -4.06,0.32 -39.92,-4.88 -43.53,-6.42 -1.79,-8.83 -2.99,-22.79 -3.36,-34.74 -0.12,-3.77 -0.1,-4.58 0.17,-4.58 0.2,0 1.72,0.29 3.41,0.61zm217.6 -0.81c-0.17,9.79 -0.86,18.32 -2.16,26.67 -0.37,2.36 -0.34,2.36 -2.13,3.07 -10.42,4.39 -28.67,9.05 -41.94,11.52 -0.54,0.15 -0.57,0.1 -0.42,-0.66 1.62,-7.92 3.13,-27.32 3.65,-38.34 14.94,-2.73 32.36,-6.76 42.92,-10.86 0.13,0 0.15,3.58 0.08,8.6zm-249.42 -8.16c7.27,2.92 18.11,6.03 26.91,7.97 -0.04,3.91 0.47,14.09 0.86,19.27 0.4,6.55 1.71,14.31 2.26,20 -2.14,0.25 -25.79,-7.26 -30.74,-10.03 -1.94,-10.92 -2.96,-27.2 -2.4,-38.41 0.05,0 1.47,0.54 3.11,1.2zm275.45 -11.32c3.62,37.75 -6.31,75.73 -27.7,106.26 -2.84,4.02 -5.34,6.25 -10.84,9.66 -6.44,3.99 -17.77,8.72 -26.89,11.25 -0.68,0.19 -0.88,0.44 2.53,-3.26 8.94,-9.65 17.36,-22.56 23.29,-34.98 9.91,-3.57 22.19,-10.17 27.47,-15.47 1.65,-1.59 1.67,-1.62 1.16,-1.98 -0.52,-0.35 -0.61,-0.3 -1.94,1.03 -3.73,3.7 -11.67,8.7 -18.92,11.91 -3.09,1.35 -6.94,2.94 -6.99,2.87 4.19,-9.78 8.58,-22.86 10.54,-33.9 0.37,-1.89 0.74,-3.58 0.83,-3.76 0.08,-0.17 1.48,-0.9 3.09,-1.61 8.83,-3.9 16.92,-8.9 21.8,-13.48 1.66,-1.55 1.71,-1.62 1.27,-2.09 -0.44,-0.46 -0.47,-0.46 -1.81,0.88 -2.99,2.95 -7.19,5.94 -12.68,9.03 -3.41,1.93 -11.1,5.63 -11.3,5.44 1.17,-9.63 2.27,-17.62 2.33,-28.81 0,0 0.15,-8.67 0.15,-8.67 9.16,-3.42 19.37,-8.94 24.17,-13.44 0.07,0 0.27,1.4 0.44,3.12zm-295.13 0.95c3.96,2.95 10.28,6.32 15.22,8.56l0 7.23c-0.12,11.08 0.99,21.61 2.3,31.11 -0.12,0.14 -6.17,-3.14 -8.92,-4.83 -5.34,-3.31 -10.86,-7.99 -13.14,-11.2 -0.76,-1.06 -1.08,-1.33 -1.47,-1.23 -0.66,0.15 -0.71,-0.25 -1.1,-7.23 -0.42,-8.04 -0.01,-20.36 1.05,-27.85 1.72,1.72 4.22,4.1 6.06,5.44l0 0zm183.35 -7.74c0.29,7.74 0.44,31.52 0.2,31.77 -0.07,0.49 -30.94,1.47 -43.56,1.51 0.02,-10.1 0.08,-30.42 0.12,-40.51 14.04,-0.21 29.99,-0.72 42.65,-1.97l0.15 0.86c0.1,0.47 0.3,4.22 0.44,8.34l0 0zm-79.4 -8.61c11.64,0.98 22.78,1.23 34.81,1.38 0,7.29 0.03,38.48 -0.1,40.29 -1,0.6 -34.14,-0.73 -44.51,-1.44 -0.11,-12.72 0.32,-27.23 1.08,-40.99 2.19,0.28 4.13,0.39 8.72,0.76zm119.09 -4.46c0.32,2.5 0.9,8.75 1.3,13.68 0.27,3.82 0.46,20.39 0.54,26.77 -12.51,2.1 -28.01,3.47 -40.11,4.53 0.45,-9.44 -0.05,-31.41 -0.58,-41.15 9.52,-1.05 29.3,-3.74 37.16,-5.86 0.05,-0.05 0.39,-0.1 0.76,-0.1 0.66,0 0.68,0.05 0.93,2.13zm-169.68 -4.12c11.32,3.38 23.22,5.58 40.67,7.75 -0.76,11.42 -1.2,28.71 -1.11,40.89 -15.46,-1.24 -31.44,-3.47 -44.98,-6.33 -0.08,-13.62 0.84,-28.67 2.72,-41.74 0.1,-0.69 0.2,-1.28 0.22,-1.28 0.03,0 1.16,0.32 2.48,0.71zm209.68 -8.87c3.65,13.05 5.81,28.22 6.13,42.41 -12.93,4.67 -27.87,8.3 -43.02,10.86 -0.13,-10.36 -0.36,-30.73 -2.01,-41.58l-0.12 -1.25c12.56,-2.96 25.55,-7.25 35.1,-11.94 1.54,-0.73 2.89,-1.37 2.97,-1.37 0.09,0 0.51,1.3 0.95,2.87zm-236.18 -2.21c5.78,3.57 15.79,7.75 22.82,9.98 -1.47,9.59 -2.73,23.12 -2.99,36.06 -0.1,3.85 -0.24,6.98 -0.34,6.98 -6.89,-1.37 -23.61,-6.24 -29.93,-9.31 0.78,-16.64 3.12,-33.4 6.94,-45.86 0.99,0.66 1.79,1.14 3.5,2.15l0 0zm256.48 -11.37c4.95,11.79 8.33,23.56 10.44,36.33 0.91,5.49 0.96,6.08 0.66,5.88 -0.14,-0.07 -0.85,0.34 -1.54,0.98 -2.26,2.01 -6.57,4.83 -10.98,7.16 -3.29,1.71 -11.18,5.15 -11.38,4.95 -0.75,-13.79 -2.81,-30.66 -6.4,-42.31 -0.61,-2.16 -0.76,-2.94 -0.53,-3.09 4.49,-2.51 12.28,-7.65 15.46,-11.08 1.38,-1.34 2.55,-2.42 2.65,-2.4 0.07,0.05 0.81,1.64 1.62,3.58l0 0zm-274.47 -5.03c2.17,4.07 8.37,10.03 13.38,13.56 -3.16,10.83 -5.54,24.45 -6.42,37.11 -0.32,4.41 -0.45,6.37 -0.73,8.97l-4.05 -2.03c-8.11,-4.13 -12.86,-7.63 -16.94,-12.45 2.04,-13 5.16,-25.46 9.81,-37.02 1.42,-3.6 3.99,-9.31 4.17,-9.31 0.07,0 0.44,0.54 0.78,1.17l0 0zm168.94 -8.97c1.65,6.86 5.5,40.56 4.9,43.12 -6.98,1.05 -31.33,2.02 -42.6,2.01 0.04,-10.93 0.11,-32.94 0.12,-43.88l0.93 -0.17c6.76,-0.11 32,-0.91 33.61,-1.52 0.05,-0.05 0.74,-0.1 1.52,-0.1 1.25,0 1.4,0.05 1.52,0.54zm-70.91 -0.05c4.4,0.46 19.96,0.97 32.11,1.28l0 43.9c-11.68,-0.01 -35.39,-0.84 -43.59,-2.16 -0.46,-0.44 2.16,-25.73 3.66,-35.17 1.3,-8.26 1.3,-8.34 1.61,-8.34 0.1,0 2.9,0.22 6.21,0.49zm106.31 -2.81c3.4,8.54 9.19,33.11 9.21,39.85 -9.56,2.4 -22.74,4.46 -37.13,5.98 -0.86,0.1 -1.18,0.05 -1.18,-0.17 -0.4,-9.82 -3.4,-34.85 -5.1,-43.46 8.47,-1.1 20.29,-2.52 28.02,-4.29 2.43,-0.51 4.56,-0.9 4.76,-0.88 0.22,0 0.78,1.18 1.42,2.97zm-141.49 -2.46c7.21,1.77 15.12,3.17 23.97,4.22 3.02,0.34 3.58,0.47 3.49,0.78 -2.31,12.07 -4.04,29.7 -5.18,43.15 -6.13,-0.26 -27.77,-3.93 -35.44,-6.23 -6.67,-1.76 -7.5,-2.06 -7.41,-2.52 2.18,-13.57 6.83,-30.92 11.6,-41.92 2.81,0.94 5.23,1.61 8.97,2.52zm172.91 -7.4c7.01,10.25 13.89,24.83 17.11,36.11 -0.02,0.02 -1.17,0.61 -2.52,1.27 -7.51,4.12 -27.78,10.75 -35.3,11.99 -2.02,-12.79 -4.9,-26.88 -9.24,-38.98 -0.88,-2.52 -1.25,-3.92 -1.06,-3.97 8.33,-2.03 20.42,-5.87 26.5,-8.92 1.08,-0.51 2.06,-0.88 2.16,-0.83 0.1,0.07 1.15,1.57 2.35,3.33zm-199.87 -3.38c4.51,2.98 13.33,6.99 16.79,7.84 0,0.05 -0.59,1.6 -1.33,3.48 -4.21,10.65 -8.22,25.91 -10.07,37.63 -0.1,0.66 -0.25,1.18 -0.34,1.18 -0.4,0 -5.35,-1.77 -8.98,-3.21 -6.22,-2.46 -16.57,-7.92 -16.96,-8.95 -0.14,-0.42 2.89,-9.49 4.66,-13.83 3.21,-8.16 9.14,-19.6 13.65,-25.73 0.1,0 1.25,0.71 2.58,1.59zm216.67 -6.69c7.58,9.33 14.31,20.48 19.75,31.81l-2.5 2.53c-3.11,3.31 -12.21,9.73 -15.74,11.15 -4.07,-12.56 -9.77,-24.94 -17.38,-36.18 -1.2,-1.81 -2.13,-3.31 -2.08,-3.33 4.25,-2.2 11.21,-6.75 13.73,-10.32 0.32,-0.54 0.14,-0.74 4.22,4.34zm-227.88 -5.52c0.96,2.95 4.75,7.2 7.63,9.81 -6.72,9.74 -12.82,22.32 -16.94,34.8 -0.86,2.6 -1.64,4.74 -1.77,4.74 -0.39,0 -4.43,-3.31 -6.74,-5.52 -3.14,-3.07 -5.42,-6.14 -6.96,-9.31 4.44,-9.13 10.57,-19.08 17.14,-27.48 1.88,-2.43 6.91,-8.44 7.06,-8.44 0.05,0 0.31,0.64 0.58,1.4zm130.61 -17.4c4.94,10.32 11.6,32.5 13.21,43.83 -10.01,1.03 -26.26,1.72 -37.11,1.61 -0.22,-13.44 -0.4,-30.87 -0.57,-45.57 6.21,-0.32 17.12,-0.8 23.14,-1.74 0.3,-0.02 0.69,0.52 1.33,1.87zm-47.38 -1.77c3.7,0.84 17.12,1.41 21.66,1.69 0.15,0.15 0.52,45.4 0.37,45.55 -1.78,0.29 -36.26,-0.52 -38.04,-1.86 2.64,-14.89 7.05,-30.48 11.52,-41.36 0.69,-1.66 1.37,-3.33 1.52,-3.72 0.29,-0.79 0.1,-0.76 2.97,-0.3l0 0zm68.46 -2.28c7.23,7.36 14.76,18.19 20.44,29.39 2.7,5.32 6.03,12.92 5.76,13.17 -1.24,0.92 -29.99,5.41 -32.65,5.1 -3.09,-14.83 -8.11,-32.79 -13.41,-43.86 -0.46,-1.03 -0.78,-1.89 -0.68,-1.89 2.25,-0.04 14.36,-2.96 18.06,-4.14 0.15,-0.02 1.25,1.01 2.48,2.23zm-83.05 -1.17c2.62,0.9 8.97,2.59 9.83,2.59 0.27,0 0.56,0.1 0.64,0.25 -4.55,11.77 -9.29,25.65 -12.28,41.35 -0.89,4.46 -0.96,4.73 -1.5,4.73 -2.11,0 -14.78,-1.88 -20.66,-3.09 -4.78,-0.98 -14.51,-3.5 -14.88,-3.87 4.88,-13.04 16.75,-31.63 27.21,-41.74 0,0 3.62,-3.7 3.62,-3.7 2.36,1.13 5.67,2.66 8.02,3.48zm98.71 -3.58c15.41,9.53 29.75,22.57 40.03,36.52l0.59 0.79c-7.94,3.8 -17.52,7.1 -28.02,9.63 -0.56,0.15 -0.68,0.07 -0.98,-0.64 -5.65,-14.63 -15.82,-31.6 -26.1,-42.09 -1.13,-1.15 -2.06,-2.15 -2.06,-2.23 0,-0.07 0.46,-0.29 1.05,-0.44 2.09,-0.65 7.53,-3.11 10.34,-4.61 1.61,0.88 2.78,1.6 5.15,3.07zm-112.32 -3.97c1.37,1.24 3.08,2.43 4.56,3.38 -5.26,5.29 -9.58,9.77 -14.06,15.86 -6.59,8.49 -12.8,20.06 -17.04,29.71 -0.27,0.29 -5.91,-1.91 -10.18,-4 -3.13,-1.54 -6.69,-3.63 -8.79,-5.19 -0.3,-0.2 2.99,-4.79 6.39,-8.95 9.7,-12.24 24.46,-24.53 37.53,-32.16 0.05,-0.03 0.79,0.59 1.59,1.35zm-4.14 -4.81c0.62,0.97 1.25,1.71 1.94,2.43 -17.21,10 -33.43,25.01 -44.49,41.18 -3.14,-2.44 -6.2,-6.22 -7.43,-9.71 0,0 -0.56,-1.52 -0.56,-1.52 14.45,-15 30.66,-27.29 49.1,-35.52l0.36 1.01c0.22,0.56 0.71,1.52 1.08,2.13zm37.87 -11.42c-9.78,4.42 -21.36,12.16 -28.11,18.82l-1.79 -1.22c-1.61,-1.06 -3,-2.22 -4.24,-3.41 9.4,-5.62 26.55,-12.87 36.13,-15.27 0.2,0 -0.69,0.49 -1.99,1.08zm31.53 -0.47c12.67,3.46 29.26,10.22 40.64,16.87 -3.24,1.7 -7.44,3.52 -11.01,4.75 -10.27,-9.65 -19.34,-16.14 -33.19,-22.45 -0.78,-0.34 -0.41,-0.27 3.56,0.83zm-2.33 1.13c10.55,4.62 21.9,12.4 30.35,20.84 0.22,0.51 -15.01,4.14 -17.46,4.14 -0.41,0 -0.71,-0.37 -1.34,-1.67 -2.43,-5 -7.11,-12.35 -10.64,-16.71 -2.28,-2.85 -7.51,-8.02 -9.32,-9.27 -0.64,-0.44 -1.15,-0.86 -1.15,-0.88 0,-0.25 6.47,2.18 9.56,3.55l0 0zm-19 -2.67c-5.95,4.93 -12.03,13.24 -17.08,23.33 -1.08,2.19 -2.01,4 -2.06,4.05 -0.12,0.12 -4.63,-0.91 -7.45,-1.72 -4.61,-1.32 -10.72,-3.89 -10.42,-4.38 9,-8.56 24.19,-17.82 36.03,-21.67 2.33,-0.79 2.38,-0.79 0.98,0.39zm7.75 -0.52c3.6,2.33 8.53,7.06 11.98,11.53 4.34,5.58 10.79,16.42 10.05,16.88 -1.75,0.8 -21.56,1.82 -22.57,1.57 -0.36,-5.8 -0.68,-24.93 -1.18,-28.85 -0.1,-1.17 -0.1,-2.13 0,-2.13 0.08,0 0.86,0.46 1.72,1zm-2.75 4.15c0.54,9.29 0.98,25.59 0.71,25.86 -3.92,0.26 -23.49,-1.24 -23.38,-1.91 -0.15,-0.15 2.6,-5.72 4.26,-8.63 1.7,-2.99 5.45,-8.58 7.33,-10.91 0.91,-1.15 2.67,-3.09 3.88,-4.32 2.59,-2.62 6.52,-5.61 6.76,-5.17 0.1,0.17 0.3,2.45 0.44,5.08zm-9.16 -5.05c-14.43,3.55 -28.77,9.71 -40.97,16.57 -0.59,-0.15 -2.86,-3.81 -3.23,-5.35 12.98,-5.95 29.27,-10.27 44.93,-12.03 3.58,-0.39 3.46,-0.25 -0.73,0.81zm24.14 -1.33c37.87,1.36 81.53,22.74 104.15,51.46 -0.19,0.07 -1,0.85 -1.81,1.71 -2.11,2.55 -10.24,7.77 -12.04,8.36 -0.14,0 -1.25,-1.3 -2.47,-2.89 -11.33,-14.76 -26.34,-27.51 -43.24,-37.51 2.03,-1.07 6.36,-4.32 7.75,-5.66 0.66,-0.71 0.68,-0.81 0.31,-1.15 -0.36,-0.37 -0.56,-0.27 -2.32,1.25 -1.94,1.64 -5.28,3.99 -6.5,4.53 -0.59,0.27 -0.83,0.2 -2.85,-0.95 -14.08,-7.95 -36.39,-16.24 -50.66,-18.78 -1.2,-0.24 -2.26,-0.47 -2.31,-0.51 -0.19,-0.2 8.04,-0.1 11.99,0.14l0 0zm-17.16 -1.2c-123.43,8.5 -184.98,151.91 -113.49,250.47 9.19,12.95 21.43,24.27 33.48,34.1 3.07,2.87 7.13,5.66 11.74,8.04 28.68,15.31 57.47,23.06 90.21,20.3 20.08,-1.94 38.63,-7.33 55.62,-16.18 14.02,-7.28 16.52,-8.83 22.08,-13.66 38.67,-29.9 62.62,-77.13 62,-126.46 1.09,-87.81 -73.43,-162.27 -161.64,-156.61l0 0z"/>
   <g>
    <path class="fil0 str1" d="M49.71 331.89c19.73,-4.44 58.88,-14.56 78.25,-20.57 16.33,-5 26.58,-8.88 41.55,-12.04 12.96,-2.83 25.91,-3.66 39.49,-2.95 7.05,0.33 14.26,0.98 21.17,2.17 13.55,2.38 28.36,7.14 42.16,5.92 6.77,-0.62 12.69,-2.8 21.27,-4.97 8.58,-2.17 19.82,-4.33 28.18,-4.82 8.36,-0.49 13.83,0.68 17.63,2.91 6.4,3.87 9.49,11.48 7.33,18.04 -1.07,3.04 -3.36,5.98 -8.44,8.85 -12.9,6.79 -34.99,12.26 -50.85,14.67 -9.39,1.31 -17.84,1.48 -22.07,1.65 -4.23,0.16 -4.23,0.33 -3.32,1.93 0.91,1.6 2.75,4.63 4.96,7.89 2.22,3.25 4.81,6.72 6.97,8.56 2.16,1.84 3.9,2.05 6.58,2.15 7.55,-0.05 20.11,1.39 28.72,2.16 5.41,0.41 9.51,0.41 14.59,-0.74 5.08,-1.15 11.14,-3.44 17.04,-4.59 5.9,-1.15 11.64,-1.15 17.21,-2.87 5.57,-1.72 10.98,-5.16 16.73,-8 5.75,-2.84 11.83,-5.09 20.11,-8.78 8.27,-3.68 18.74,-8.81 25.85,-11.46 7.12,-2.65 10.89,-2.81 14.39,-1.99 3.51,0.83 6.74,2.64 11.05,2.83 4.3,0.19 9.68,-1.25 11.89,-0.82 2.22,0.42 1.29,2.7 -1.51,7.38 -19.23,31.18 -48.19,58.61 -85.63,69.52 -12.63,3.76 -28.89,7.01 -43.14,7.5 -14.25,0.48 -26.48,-1.8 -37.49,-4.46 -11.01,-2.66 -20.82,-5.69 -28.29,-9.61 -7.47,-3.92 -12.62,-8.71 -29.46,-11.33 -30.4,-3.6 -78.36,-5.18 -107.21,3.55 -13.27,3.77 -29.82,9.67 -42.44,14.26 -12.62,4.59 -21.31,7.87 -25.16,9.43 -3.85,1.55 -2.87,1.39 -6.14,-11.97 -3.28,-13.35 -10.82,-39.9 -14.59,-53.18 -3.77,-13.27 -3.77,-13.27 -2.21,-13.43 1.56,-0.17 4.67,-0.5 14.83,-2.79l0 0z"/>
    <path class="fil0 str1" d="M97.48 319.52c11.49,29.55 22.2,52.73 32.11,68.49"/>
    <path class="fil0 str1" d="M77.01 325.28c18.05,47.38 27.07,71.07 27.07,71.07"/>
    <path class="fil0 str1" d="M55.62 330.52c16.25,49.6 24.37,74.4 24.37,74.4"/>
    <path class="fil0 str1" d="M46.17 380.48c73.69,-25.22 132.41,-28.8 174.01,-12.64"/>
    <path class="fil0 str1" d="M255.8 393.77l0.01 0.01m-76.85 -96.21c11.55,41.12 39.36,75.59 72.31,93.81"/>
    <path class="fil0 str1" d="M321.76 411.46c-65.43,-16.16 -106.41,-53.9 -121.37,-115.36m31.32 2.68c12.69,63.54 40.73,95.89 90.36,112.69"/>
    <path class="fil0 str1" d="M276.5 303.84c1.6,14.69 3.51,26.65 5.74,35.89"/>
    <path class="fil0 str1" d="M287.95 361.54c8.01,26.6 26.24,47.28 34.78,49.28"/>
    <line class="fil0 str1" x1="320.52" y1="331.44" x2="320.61" y2= "294.7" />
    <path class="fil0 str1" d="M322.75 411.48l-1.64 -48.25m33.64 -7.14c-9.59,35.91 -20.83,48.44 -32,55.39"/>
    <path class="fil0 str1" d="M323.87 411.48c19.86,-5.09 50.36,-27.82 68.35,-71.81"/>
    <path class="fil0 str1" d="M323.92 411.48c55.09,-12.77 93.8,-40.92 113.17,-85.94"/>
    <path class="fil0 str1" d="M392.84 339.4c17.33,-3 33.33,-7.29 46.82,-12.99m-257.08 -17.58c10.97,15.29 43.31,26.35 82.86,31.91"/>
    <path class="fil0 str1" d="M202.6 347.02c27.44,37.61 179.91,43.53 241.53,5.4"/>
    <path class="fil0 str1" d="M255.81 393.78c47.4,15.15 99.14,13.84 145.12,-2.89"/>
    <path class="fil0 str1" d="M50.99 398.54c85.17,-33.64 149.76,-36.88 193.79,-9.73"/>
    <path class="fil0 str1" d="M346.96 306.69c-45.63,1.78 -91.77,-2.18 -104.89,-5.75"/>
    <path class="fil0 str1" d="M118.58 314.11c9.75,26.12 22.84,48.4 36.98,70.08"/>
    <path class="fil0 str1" d="M139.27 307.77c15.48,34.19 29.11,59.38 40.9,75.57"/>
    <path class="fil0 str1" d="M159.99 301.53c18.34,43.97 31.85,70.58 42.98,82.53"/>
    <path class="fil0 str1" d="M183.24 310.58c-9.28,13.92 -40.25,13.36 -145.58,39.55"/>
    <path class="fil0 str1" d="M41.89 365.09c91.61,-24.59 146.29,-29.09 164.06,-13.5"/>
   </g>
  </g>
 </g>
</svg>
