<?xml version="1.0" encoding="UTF-8"?>
<!DOCTYPE svg PUBLIC "-//W3C//DTD SVG 1.1//EN" "http://www.w3.org/Graphics/SVG/1.1/DTD/svg11.dtd">
<!-- Creator: CorelDRAW 2019 (64-Bit) -->
<svg xmlns="http://www.w3.org/2000/svg" xml:space="preserve" width="512px" height="512px" version="1.1" style="shape-rendering:geometricPrecision; text-rendering:geometricPrecision; image-rendering:optimizeQuality; fill-rule:evenodd; clip-rule:evenodd"
viewBox="0 0 512 512"
 xmlns:xlink="http://www.w3.org/1999/xlink">
 <defs>
  <style type="text/css">
   <![CDATA[
    .fil0 {fill:#CCCCCC}
   ]]>
  </style>
 </defs>
 <g id="Layer_x0020_1">
  <metadata id="CorelCorpID_0Corel-Layer"/>
  <path class="fil0" d="M256 36.87c-121,0 -220,98.79 -220,220.45 0,110 80.52,201.3 185.68,217.81l0 -154.01 -55.88 0 0 -63.8 55.88 0 0 -48.62c0,-55.22 32.78,-85.58 83.16,-85.58 23.98,0 49.06,4.18 49.06,4.18l0 54.34 -27.72 0c-27.28,0 -35.86,16.94 -35.86,34.32l0 41.36 61.16 0 -9.9 63.8 -51.26 0 0 154.01c106.9,-16.88 185.68,-109.09 185.68,-217.33 0,-0.15 0,-0.32 0,-0.48 0,-121.66 -99,-220.45 -220,-220.45z"/>
 </g>
</svg>
