<?xml version="1.0" encoding="UTF-8"?>
<!DOCTYPE svg PUBLIC "-//W3C//DTD SVG 1.1//EN" "http://www.w3.org/Graphics/SVG/1.1/DTD/svg11.dtd">
<!-- Creator: CorelDRAW 2019 (64-Bit) -->
<svg xmlns="http://www.w3.org/2000/svg" xml:space="preserve" width="512px" height="512px" version="1.1" style="shape-rendering:geometricPrecision; text-rendering:geometricPrecision; image-rendering:optimizeQuality; fill-rule:evenodd; clip-rule:evenodd"
viewBox="0 0 512 512"
 xmlns:xlink="http://www.w3.org/1999/xlink">
 <defs>
  <style type="text/css">
   <![CDATA[
    .fil0 {fill:#CCCCCC}
   ]]>
  </style>
 </defs>
 <g id="Layer_x0020_1">
  <metadata id="CorelCorpID_0Corel-Layer"/>
  <g>
   <path class="fil0" d="M435.21 76.8l0 295.01 -26.21 -26.21 -332.2 0 0 -268.8 358.41 0 0 0zm0 -44.79l-358.41 0c-24.64,0 -44.8,20.16 -44.8,44.8l0 268.8c0,24.64 20.16,44.8 44.8,44.8l313.6 -0.01 89.6 89.6 0 -403.2c0,-24.63 -20.16,-44.8 -44.8,-44.8l0.01 0.01zm-44.81 223.99l-268.8 0 0 44.81 268.8 0 0 -44.81zm0 -67.2l-268.8 0 0 44.8 268.8 0 0 -44.8zm0 -67.2l-268.8 0 0 44.81 268.8 0 0 -44.81z"/>
  </g>
 </g>
</svg>
