<?xml version="1.0" encoding="UTF-8"?>
<!DOCTYPE svg PUBLIC "-//W3C//DTD SVG 1.1//EN" "http://www.w3.org/Graphics/SVG/1.1/DTD/svg11.dtd">
<!-- Creator: CorelDRAW 2019 (64-Bit) -->
<svg xmlns="http://www.w3.org/2000/svg" xml:space="preserve" width="512px" height="512px" version="1.1" style="shape-rendering:geometricPrecision; text-rendering:geometricPrecision; image-rendering:optimizeQuality; fill-rule:evenodd; clip-rule:evenodd"
viewBox="0 0 512 512"
 xmlns:xlink="http://www.w3.org/1999/xlink">
 <defs>
  <style type="text/css">
   <![CDATA[
    .fil0 {fill:#CCCCCC}
   ]]>
  </style>
 </defs>
 <g id="Layer_x0020_1">
  <metadata id="CorelCorpID_0Corel-Layer"/>
  <g>
   <path class="fil0" d="M429.44 33c27.37,0 49.56,22.19 49.56,49.56l0 346.88c0,27.36 -22.19,49.55 -49.56,49.55l-346.88 0.01c-27.36,-0.01 -49.55,-22.2 -49.55,-49.57l-0.01 -346.87c0.01,-27.37 22.2,-49.56 49.57,-49.56l346.87 0 0 0zm-12.39 384.05l0 -131.32c0,-44.6 -36.16,-80.77 -80.77,-80.77 -21.06,0 -45.59,12.88 -57.49,32.21l0 -27.51 -69.13 0 0 207.39 69.13 0 0 -122.15c0,-19.08 15.37,-34.69 34.45,-34.69 19.15,-0.01 34.68,15.53 34.68,34.68l0 122.16 69.13 0 0 0zm-287.91 -246.29c22.99,0 41.63,-18.64 41.63,-41.62 -0.01,-23.04 -18.59,-41.87 -41.63,-41.87 -23.11,0 -41.86,18.75 -41.86,41.87 -0.01,23.04 18.82,41.62 41.86,41.62l0 0zm34.44 246.29l0 -207.39 -68.63 0 0 207.39 68.63 0z"/>
  </g>
 </g>
</svg>
