<?xml version="1.0" encoding="UTF-8"?>
<!DOCTYPE svg PUBLIC "-//W3C//DTD SVG 1.1//EN" "http://www.w3.org/Graphics/SVG/1.1/DTD/svg11.dtd">
<!-- Creator: CorelDRAW 2019 (64-Bit) -->
<svg xmlns="http://www.w3.org/2000/svg" xml:space="preserve" width="512px" height="512px" version="1.1" style="shape-rendering:geometricPrecision; text-rendering:geometricPrecision; image-rendering:optimizeQuality; fill-rule:evenodd; clip-rule:evenodd"
viewBox="0 0 512 512"
 xmlns:xlink="http://www.w3.org/1999/xlink">
 <defs>
  <style type="text/css">
   <![CDATA[
    .str0 {stroke:#EF4A19;stroke-width:2;stroke-miterlimit:22.9256;stroke-opacity:0.200000}
    .fil0 {fill:none}
    .fil1 {fill:#EF4A19;fill-opacity:0.200000}
   ]]>
  </style>
 </defs>
 <g id="Layer_x0020_1">
  <metadata id="CorelCorpID_0Corel-Layer"/>
  <rect class="fil0" width="512" height="512"/>
  <path class="fil1 str0" d="M228.9 452.23l0 0zm-5.04 -22.64l0 0zm0 0l-2.51 -2.52 2.51 2.52zm40.26 25.16l49.51 -78.79c4.12,-6.97 13.48,-23.26 18.42,-26.88l30.19 77.99c-9.52,0.8 -14.49,3.84 -23.71,6.49l-48.72 14.17c-7.79,2.19 -16.31,6.24 -25.69,7.02zm-42.77 -27.68l-7.55 -7.54c7.58,2.02 5.53,-0.04 7.55,7.54zm-7.55 -7.54l-2.51 -2.52 2.51 2.52zm-2.51 -2.52l-2.52 -2.51 2.52 2.51zm-2.52 -2.51l-2.51 -2.52 2.51 2.52zm-2.51 -2.52l0 0zm22.64 40.25c-8.19,-0.18 -99.12,-24.53 -105.67,-27.67 0,-28.22 -2.52,-50.07 -2.52,-75.48 11.38,3.04 54.15,50.97 67.25,63.58 6.21,5.97 9.07,6.84 15.18,12.5 8.42,7.78 19.8,18.18 25.76,27.07zm77.99 -88.05c-2.42,9.04 -8.27,14.47 -13.08,22.15 -4.9,7.83 -8.64,13.7 -13.53,21.68l-31.26 44.22c-2.29,-8.58 -13.16,-24.29 -17.61,-32.7 11.29,-3.02 64.48,-52.41 75.48,-55.35zm0 0l0 0zm-208.82 -7.55c0,-4.56 9.16,-8.25 12.58,-10.06l-1.81 42.06 -10.77 -32zm244.04 -12.58c27.7,0 60.19,12.78 88.06,15.1l-59.77 61c-1.35,-9.39 -10.06,-28.49 -13.57,-37.99l-14.72 -38.11zm-208.81 -5.03c63.27,0 119.85,2.51 181.14,2.51l-90.58 70.45 -90.56 -72.96zm80.5 -57.86l91.06 46.81 -169.05 0.98 77.99 -47.79zm223.91 67.92c-27.26,-2.26 -55.76,-12.82 -83.02,-15.09 0.5,-0.35 1.34,-1.41 1.59,-0.93l61.33 -24.21c6.98,-2.81 14.14,-6.86 22.62,-7.57 0,18.27 -2.52,27.9 -2.52,47.8zm-374.86 -37.73c8.62,2 33.26,17.6 42.77,22.64 -3.01,4.1 -10.65,9.6 -15.1,12.58 -8.4,-12.57 -19.26,-22.66 -27.67,-35.22zm0 0l0 0zm281.78 12.58c12.75,-24.1 23.37,-49.54 36.93,-73.77l38.54 -72.15c0.75,9.01 3.49,18.27 5.03,27.67l15.1 83.02c-9.51,2.22 -14.87,4.91 -24.07,8.64 -8.57,3.46 -15.93,5.9 -23.73,8.97l-47.8 17.62zm-274.23 -143.41c0.33,0.53 0.72,0.79 0.83,1.69 0.11,0.91 0.64,1.32 0.79,1.72l3.47 11.63c1.47,5.99 3.17,12.98 4.46,18.17l28.19 107.68c-8.78,-2.05 -25.11,-13.03 -32.84,-17.48 -11.12,-6.4 -21.21,-11.73 -32.57,-17.74 5.08,-10.6 10.5,-36.99 14.08,-51.33l13.59 -54.34zm155.98 -15.09c8.72,10.03 40.7,67.15 46.15,77.12 5.91,10.84 42.01,69.83 44.42,78.86l-97.64 -48.76 2.73 -53.7c1.55,-11.46 4.34,-40.63 4.34,-53.52zm-135.86 45.28c-0.9,-4.76 3.17,-8.95 1.59,-1.59 -0.03,0.17 0.08,10.38 -1.59,1.59zm-2.51 -17.61c2.98,4.7 2.83,-5.62 2.07,5.03 -0.38,5.37 -0.3,2.25 -2.07,5.03l0 -10.06zm45.29 123.28l77.3 -139.06c3.42,-4.99 0.7,-1.46 3.2,-4.35 0,29.88 -5.11,62.23 -5.01,78.02 0.17,26.85 -0.16,20.36 -39.19,43.84 -12.69,7.63 -23.97,15.02 -36.3,21.55zm-45.29 -123.28l0 0zm344.67 -12.58c2.61,1.91 35.16,39.35 35.83,41.61 2.56,8.57 -12.82,47.58 -13.19,64.06l-5.03 0c0,-17.56 -5.25,-34.69 -8.24,-52.15 -2.45,-14.34 -8.93,-37.5 -9.37,-53.52zm-90.57 120.76c1.24,-14.86 4.93,-36.96 6.79,-51.07 2.04,-15.47 5.79,-37.94 5.79,-52.08l52.85 -25.14c-3.82,16.29 -43.53,86.6 -56.19,112.37 -1.65,3.36 -2.7,5.8 -4.16,8.42 -0.28,0.49 -0.63,1.14 -0.91,1.61l-4.17 5.89zm-135.85 -143.4c-3.41,14.62 -65.26,118.53 -75.46,138.39l-12.6 20.11c0,-30.28 -15.1,-87.9 -15.1,-120.76 10.66,-0.89 40.25,-14.09 51.76,-18.69 11.37,-4.55 41.31,-18.21 51.4,-19.05zm30.19 0c10.12,0.84 43.07,15.72 53.19,19.77l52.47 20.48c0,40.09 -12.58,91.85 -12.58,118.25l-93.08 -158.5zm-30.19 0l0 0zm55.34 -5.03c22.12,0 45.76,4.97 67.93,5.03 22.6,0.06 47.9,5.03 70.45,5.03l-50.32 25.16 -76.64 -29.03c-1.86,-0.75 -3.45,-1.29 -5.31,-2.23 -5.97,-3.04 -2.62,-0.93 -6.11,-3.96zm-166.04 32.7c-3.08,-11.52 -9.54,-12.1 -12.58,-25.16 35.68,0 71.67,-7.54 98.12,-7.54 -7.32,6.35 -76.84,32.51 -85.54,32.7zm311.97 -47.8l0 0zm-90.58 -60.38c11.74,6.21 12.96,10.17 22.65,17.61l43.35 37.15c4.56,4.07 5.25,5.49 10.56,9.57 6.99,5.37 6.71,3.99 11.5,11.15l-166.05 -12.58c4.1,-6.13 65.89,-56.49 77.99,-62.9zm-228.94 70.45c7.39,-11.05 24.22,-25.43 34.59,-35.86l38.37 -34.59 25.16 30.19c8.15,10.44 17.77,21.69 25.16,32.71 -42.19,0 -79.63,7.55 -123.28,7.55zm319.52 -10.07l-75.48 -65.41c5.05,0.42 52.8,13.25 55.74,14.7 8.36,4.13 6.2,6.11 11.87,23.35 2.88,8.75 7.06,17.79 7.87,27.36zm-171.08 -12.58c2.31,-9.94 9.11,-24.03 13.3,-34.5 4.82,-12.04 9.23,-25.23 14.37,-35.94 10.17,2.37 31.86,10.65 40.25,15.09 -5.63,8.41 -57.21,48.18 -67.92,55.35zm-15.1 7.55c-4.93,-3.61 -20.53,-24.07 -25.19,-30.16 -8.02,-10.5 -17.95,-22.02 -25.13,-32.74 17.57,-0.39 60.45,-13.42 80.51,-15.09 -4.08,17.5 -26.05,60.22 -30.19,77.99zm30.19 337.12c14.54,0 34.45,-5.63 49.27,-8.59 72.22,-14.45 44.73,-1.13 111.11,-67.51 23.53,-23.52 33.6,-27.13 38.95,-49.11l29.61 -121.34c0,-15.82 -44.45,-42.37 -60.7,-87.73 -24.07,-67.17 -1.04,-53.48 -76.17,-72.26 -13.78,-3.45 -27.22,-7.13 -39.54,-10.78 -48,-14.24 -38.76,-12.37 -85.44,-3.03 -56.35,11.26 -53.32,4.65 -79.67,31.03l-69.29 69.09c-8.22,10.19 -26.42,91.62 -30.47,107.89 -10.89,43.75 -15.29,22.62 22.22,70.37 7.5,9.55 19.09,21.77 24,31.35 2.9,5.66 5.18,13.88 7.62,20.05l14.26 41.09c7.77,21.01 18.89,16.16 55.88,27.14 14.04,4.17 78.47,22.34 88.36,22.34z"/>
 </g>
</svg>
