<?xml version="1.0" encoding="UTF-8"?>
<!DOCTYPE svg PUBLIC "-//W3C//DTD SVG 1.1//EN" "http://www.w3.org/Graphics/SVG/1.1/DTD/svg11.dtd">
<!-- Creator: CorelDRAW 2019 (64-Bit) -->
<svg xmlns="http://www.w3.org/2000/svg" xml:space="preserve" width="512px" height="512px" version="1.1" style="shape-rendering:geometricPrecision; text-rendering:geometricPrecision; image-rendering:optimizeQuality; fill-rule:evenodd; clip-rule:evenodd"
viewBox="0 0 512 512"
 xmlns:xlink="http://www.w3.org/1999/xlink">
 <defs>
  <style type="text/css">
   <![CDATA[
    .fil0 {fill:#CCCCCC}
   ]]>
  </style>
 </defs>
 <g id="Layer_x0020_1">
  <metadata id="CorelCorpID_0Corel-Layer"/>
  <g id="_2138851637696">
   <path class="fil0" d="M439.08 93.26c-22.58,-7.12 -47.4,-10.18 -71.2,-10.18 -39.66,0 -82.39,8.14 -111.88,30.52 -29.49,-22.37 -72.22,-30.52 -111.88,-30.52 -39.67,0 -82.39,8.15 -111.89,30.52l0 298.02c0,5.08 5.09,10.17 10.18,10.17 2.03,0 3.05,-1.02 5.08,-1.02 27.46,-13.22 67.13,-22.37 96.63,-22.37 39.66,0 82.39,8.13 111.88,30.52 27.46,-17.3 77.3,-30.52 111.88,-30.52 33.57,0 68.15,6.1 96.63,21.36 2.04,1.01 3.05,1.01 5.08,1.01 5.09,0 10.18,-5.08 10.18,-10.17l0 -297c-12.21,-9.16 -25.43,-15.25 -40.69,-20.34zm0 274.62c-22.38,-7.12 -46.79,-10.17 -71.2,-10.17 -34.58,0 -84.42,13.23 -111.88,30.52l0 -233.94c27.46,-17.29 77.3,-30.52 111.88,-30.52 24.41,0 48.82,3.05 71.2,10.17l0 233.94z"/>
   <g>
    <path class="fil0" d="M367.88 205.14c17.9,0 35.19,1.83 50.86,5.29l0 -30.92c-16.07,-3.05 -33.37,-4.89 -50.86,-4.89 -34.58,0 -65.91,5.9 -91.54,16.89l0 33.77c22.99,-13.02 54.93,-20.14 91.54,-20.14z"/>
    <path class="fil0" d="M276.34 245.62l0 33.77c22.99,-13.02 54.93,-20.14 91.54,-20.14 17.9,0 35.19,1.83 50.86,5.29l0 -30.92c-16.07,-3.05 -33.36,-4.88 -50.86,-4.88 -34.58,0 -65.9,6.1 -91.54,16.88z"/>
    <path class="fil0" d="M367.88 283.06c-34.58,0 -65.91,5.89 -91.54,16.88l0 33.77c22.99,-13.02 54.93,-20.14 91.54,-20.14 17.9,0 35.19,1.83 50.86,5.29l0 -30.92c-16.07,-3.26 -33.37,-4.88 -50.86,-4.88z"/>
   </g>
  </g>
 </g>
</svg>
