<?xml version="1.0" encoding="UTF-8"?>
<!DOCTYPE svg PUBLIC "-//W3C//DTD SVG 1.1//EN" "http://www.w3.org/Graphics/SVG/1.1/DTD/svg11.dtd">
<!-- Creator: CorelDRAW 2019 (64-Bit) -->
<svg xmlns="http://www.w3.org/2000/svg" xml:space="preserve" width="512px" height="512px" version="1.1" style="shape-rendering:geometricPrecision; text-rendering:geometricPrecision; image-rendering:optimizeQuality; fill-rule:evenodd; clip-rule:evenodd"
viewBox="0 0 512 512"
 xmlns:xlink="http://www.w3.org/1999/xlink">
 <defs>
  <style type="text/css">
   <![CDATA[
    .fil0 {fill:#CCCCCC}
   ]]>
  </style>
 </defs>
 <g id="Layer_x0020_1">
  <metadata id="CorelCorpID_0Corel-Layer"/>
  <path class="fil0" d="M410.76 363.56c8.78,-15.36 15.37,-32.93 15.37,-52.68 0,-54.88 -43.91,-98.78 -98.78,-98.78 -54.88,0 -98.79,43.9 -98.79,98.78 0,54.88 43.9,98.78 98.78,98.78 19.75,0 37.32,-6.59 52.68,-15.37l70.25 70.25 30.73 -30.73 -70.24 -70.25zm-83.42 2.19c-30.73,0 -54.88,-24.14 -54.88,-54.88 0,-30.74 24.14,-54.88 54.88,-54.88 30.74,0 54.88,24.14 54.88,54.88 0,30.74 -24.14,54.88 -54.88,54.88zm-76.83 65.86l0 43.91c-121.17,-0.01 -219.51,-98.35 -219.51,-219.52 0,-121.18 98.34,-219.52 219.51,-219.52 106.25,0 194.71,75.52 215.13,175.62l-45.45 -0.01c-14.04,-54 -52.68,-98.13 -103.83,-118.76l0 9c0,24.15 -19.75,43.91 -43.9,43.91l-43.9 0 0 43.91c0,12.07 -9.88,21.95 -21.95,21.95l-43.9 -0.01 0 43.91 43.9 0 0 65.85 -21.96 0 -105.15 -105.16c-2.85,12.75 -4.6,25.7 -4.6,39.31 0,96.8 78.81,175.61 175.61,175.61z"/>
 </g>
</svg>
