<?xml version="1.0" encoding="UTF-8"?>
<!DOCTYPE svg PUBLIC "-//W3C//DTD SVG 1.1//EN" "http://www.w3.org/Graphics/SVG/1.1/DTD/svg11.dtd">
<!-- Creator: CorelDRAW 2019 (64-Bit) -->
<svg xmlns="http://www.w3.org/2000/svg" xml:space="preserve" width="512px" height="512px" version="1.1" style="shape-rendering:geometricPrecision; text-rendering:geometricPrecision; image-rendering:optimizeQuality; fill-rule:evenodd; clip-rule:evenodd"
viewBox="0 0 512 512"
 xmlns:xlink="http://www.w3.org/1999/xlink">
 <defs>
  <style type="text/css">
   <![CDATA[
    .fil0 {fill:#CCCCCC}
   ]]>
  </style>
 </defs>
 <g id="Layer_x0020_1">
  <metadata id="CorelCorpID_0Corel-Layer"/>
  <path class="fil0" d="M256 31c-124.56,0 -225.88,100.93 -225.88,225 0,124.07 101.32,225 225.88,225 124.55,0 225.88,-100.93 225.88,-225 0,-124.07 -101.33,-225 -225.88,-225zm110.35 181.21c0.1,2.31 0.16,4.66 0.16,7.02 0,71.59 -54.73,154.16 -154.79,154.16 -30.72,0 -59.33,-8.97 -83.39,-24.35 4.25,0.51 8.56,0.76 12.97,0.76 25.5,0 48.95,-8.65 67.56,-23.19 -23.81,-0.43 -43.88,-16.13 -50.82,-37.63 3.33,0.63 6.73,0.98 10.25,0.98 4.96,0 9.77,-0.66 14.32,-1.91 -24.87,-5 -43.62,-26.87 -43.62,-53.14 0,-0.24 0,-0.46 0,-0.68 7.34,4.06 15.72,6.5 24.64,6.78 -14.61,-9.73 -24.19,-26.3 -24.19,-45.1 0,-9.94 2.67,-19.24 7.35,-27.26 26.84,32.78 66.93,54.35 112.14,56.62 -0.94,-3.97 -1.43,-8.1 -1.43,-12.34 0,-29.93 24.36,-54.19 54.41,-54.19 15.64,0 29.78,6.58 39.69,17.11 12.39,-2.42 24.04,-6.93 34.55,-13.13 -4.06,12.64 -12.68,23.26 -23.93,29.97 11.02,-1.33 21.49,-4.22 31.26,-8.54 -7.29,10.86 -16.51,20.42 -27.13,28.06z"/>
 </g>
</svg>
