<?xml version="1.0" encoding="UTF-8"?>
<!DOCTYPE svg PUBLIC "-//W3C//DTD SVG 1.1//EN" "http://www.w3.org/Graphics/SVG/1.1/DTD/svg11.dtd">
<!-- Creator: CorelDRAW 2019 (64-Bit) -->
<svg xmlns="http://www.w3.org/2000/svg" xml:space="preserve" width="512px" height="512px" version="1.1" style="shape-rendering:geometricPrecision; text-rendering:geometricPrecision; image-rendering:optimizeQuality; fill-rule:evenodd; clip-rule:evenodd"
viewBox="0 0 512 512"
 xmlns:xlink="http://www.w3.org/1999/xlink">
 <defs>
  <style type="text/css">
   <![CDATA[
    .fil0 {fill:#CCCCCC}
   ]]>
  </style>
 </defs>
 <g id="Layer_x0020_1">
  <metadata id="CorelCorpID_0Corel-Layer"/>
  <path class="fil0" d="M211.06 357.12l134.82 -101.12 -134.82 -101.12 0 202.24zm44.94 -325.83c-124.04,0 -224.71,100.67 -224.71,224.71 0,124.04 100.67,224.71 224.71,224.71 124.04,0 224.71,-100.67 224.71,-224.71 0,-124.04 -100.67,-224.71 -224.71,-224.71zm0 404.48c-99.1,0 -179.77,-80.67 -179.77,-179.77 0,-99.1 80.67,-179.77 179.77,-179.77 99.1,0 179.77,80.67 179.77,179.77 0,99.1 -80.67,179.77 -179.77,179.77z"/>
 </g>
</svg>
