<?xml version="1.0" encoding="UTF-8"?>
<!DOCTYPE svg PUBLIC "-//W3C//DTD SVG 1.1//EN" "http://www.w3.org/Graphics/SVG/1.1/DTD/svg11.dtd">
<!-- Creator: CorelDRAW -->
<svg xmlns="http://www.w3.org/2000/svg" xml:space="preserve" width="180.622mm" height="180.622mm" version="1.1" style="shape-rendering:geometricPrecision; text-rendering:geometricPrecision; image-rendering:optimizeQuality; fill-rule:evenodd; clip-rule:evenodd"
viewBox="0 0 18062.22 18062.22"
 xmlns:xlink="http://www.w3.org/1999/xlink"
 xmlns:xodm="http://www.corel.com/coreldraw/odm/2003">
 <defs>
  <style type="text/css">
   <![CDATA[
    .fil0 {fill:none}
    .fil1 {fill:#47494F}
   ]]>
  </style>
 </defs>
 <g id="Layer_x0020_1">
  <metadata id="CorelCorpID_0Corel-Layer"/>
  <rect class="fil0" x="-0.01" y="-0.01" width="18062.22" height="18062.22"/>
  <path class="fil1" d="M15828.1 1834.76l-127.84 23.87 -4270.31 1655.24 -4797.67 -1679.11 -4509.66 1519.24c-168.03,55.91 -288.01,199.76 -288.01,383.81l0.3 12090.14c0,223.94 175.89,399.83 399.83,399.83l127.84 -23.88 4269.7 -1655.54 4797.67 1679.11 4509.66 -1519.23c168.04,-55.91 288.02,-199.77 288.02,-383.82l0 -12090.13c0,-223.95 -175.89,-399.83 -399.84,-399.83l0.31 0.3zm-8396.16 1974.98l3198.35 1119.4 0 9323.36 -3198.35 -1119.41 0 -9323.35zm-3998.01 791.5l2398.99 -807.52 0 9355.39 -2398.69 927.5 -0.3 -9475.37zm11194.67 8859.75l-2398.68 807.52 -0.31 -9347.53 2398.99 -927.5 0 9467.51z"/>
 </g>
</svg>
