<?xml version="1.0" encoding="UTF-8"?>
<!DOCTYPE svg PUBLIC "-//W3C//DTD SVG 1.1//EN" "http://www.w3.org/Graphics/SVG/1.1/DTD/svg11.dtd">
<!-- Creator: CorelDRAW -->
<svg xmlns="http://www.w3.org/2000/svg" xml:space="preserve" width="180.622mm" height="180.622mm" version="1.1" style="shape-rendering:geometricPrecision; text-rendering:geometricPrecision; image-rendering:optimizeQuality; fill-rule:evenodd; clip-rule:evenodd"
viewBox="0 0 18062.22 18062.22"
 xmlns:xlink="http://www.w3.org/1999/xlink"
 xmlns:xodm="http://www.corel.com/coreldraw/odm/2003">
 <defs>
  <style type="text/css">
   <![CDATA[
    .fil0 {fill:none}
    .fil1 {fill:white}
   ]]>
  </style>
 </defs>
 <g id="Layer_x0020_1">
  <metadata id="CorelCorpID_0Corel-Layer"/>
  <rect class="fil0" x="-0.01" y="-0.01" width="18062.22" height="18062.22"/>
  <g id="_2046206923136">
   <g>
    <g>
     <g>
      <path class="fil1" d="M16233.86 10208.9c0,720.3 -589.38,1309.56 -1309.56,1309.56 -117.92,0 -229.17,-13.12 -333.98,-45.78l-2331.04 2324.48c32.67,104.81 45.78,222.74 45.78,340.54 0,720.3 -589.38,1309.56 -1309.56,1309.56 -720.17,0 -1309.55,-589.38 -1309.55,-1309.56 0,-117.92 13.11,-235.73 45.78,-340.54l-1669.77 -1669.77c-104.69,32.8 -222.61,45.91 -340.41,45.91 -117.81,0 -235.73,-13.11 -340.54,-45.78l-2979.33 2985.88c32.79,104.81 45.79,216.06 45.79,333.98 0,720.3 -589.39,1309.56 -1309.56,1309.56 -720.18,0 -1309.56,-589.38 -1309.56,-1309.56 0,-720.17 589.38,-1309.55 1309.56,-1309.55 117.92,0 229.17,13.11 333.98,45.78l2985.88 -2979.33c-32.79,-104.81 -45.91,-222.73 -45.91,-340.54 0,-720.3 589.39,-1309.55 1309.56,-1309.55 720.18,0 1309.56,589.38 1309.56,1309.55 0,117.93 -13.12,235.73 -45.78,340.54l1669.77 1669.77c104.81,-32.79 222.61,-45.91 340.53,-45.91 117.93,0 235.73,13.12 340.54,45.79l2324.49 -2331.05c-32.79,-104.81 -45.79,-216.05 -45.79,-333.98 0,-720.3 589.39,-1309.56 1309.56,-1309.56 720.18,0 1309.56,589.39 1309.56,1309.56z"/>
     </g>
    </g>
   </g>
   <path class="fil1" d="M7837.94 4278.37c0,1004.13 139.09,1371.07 621.51,2232.79 439.58,785.56 1224.47,2371.01 1677.74,3277.78 176.41,352.59 785.11,1461.15 832.58,1664.93l79.26 0c68.22,-292.76 451.51,-899.47 608.04,-1215.42 77.5,-156.75 133.14,-267.15 211.29,-423.24l1255.17 -2471.02c413.75,-827.28 1057.33,-1798.96 1057.33,-2669.29 0,-671.19 -2.42,-949.38 -290.55,-1572.87 -448.85,-971.46 -1566.25,-1796.75 -2682.75,-1796.75 -1029.74,0 -1703.58,177.29 -2447.85,921.78 -516.19,515.97 -921.77,1251.18 -921.77,2051.31zm2973.31 -1664.94c604.06,0 1049.17,35.33 1537.54,523.7 709.16,709.16 709.16,1969.84 0,2679 -734.77,734.78 -2066.32,701.22 -2736.85,-60.93 -644.91,-733.23 -644.91,-1823.68 0,-2556.91 220.79,-250.81 745.37,-584.86 1199.31,-584.86z"/>
  </g>
 </g>
</svg>
