<?xml version="1.0" encoding="UTF-8"?>
<!DOCTYPE svg PUBLIC "-//W3C//DTD SVG 1.1//EN" "http://www.w3.org/Graphics/SVG/1.1/DTD/svg11.dtd">
<!-- Creator: CorelDRAW -->
<svg xmlns="http://www.w3.org/2000/svg" xml:space="preserve" width="180.622mm" height="180.622mm" version="1.1" style="shape-rendering:geometricPrecision; text-rendering:geometricPrecision; image-rendering:optimizeQuality; fill-rule:evenodd; clip-rule:evenodd"
viewBox="0 0 18062.22 18062.22"
 xmlns:xlink="http://www.w3.org/1999/xlink"
 xmlns:xodm="http://www.corel.com/coreldraw/odm/2003">
 <defs>
  <style type="text/css">
   <![CDATA[
    .fil0 {fill:none}
    .fil1 {fill:#47494F}
   ]]>
  </style>
 </defs>
 <g id="Layer_x0020_1">
  <metadata id="CorelCorpID_0Corel-Layer"/>
  <rect class="fil0" x="-0.01" y="-0.01" width="18062.22" height="18062.22"/>
  <path class="fil1" d="M8214.82 4949.94l4897.47 0 0 1632.59 -4897.47 -0.31 0 -1632.28zm0 3264.88l4897.47 0 0 1632.59 -4897.47 0 0 -1632.59zm0 3264.87l4897.47 0 0 1632.59 -4897.47 0 0 -1632.59zm-3264.87 -6529.75l1632.28 0 0 1632.59 -1632.28 -0.31 0 -1632.28zm0 3264.88l1632.28 0 0 1632.59 -1632.28 0 0 -1632.59zm0 3264.87l1632.28 0 0 1632.59 -1632.28 0 0 -1632.59zm10692.67 -9794.62l-13223.01 0c-408.14,0 -734.54,326.39 -734.54,734.54l0 13223c0,326.4 326.4,734.55 734.54,734.55l13223.01 0c326.39,0 734.54,-408.15 734.54,-734.55l0 -13223c0,-408.15 -408.15,-734.54 -734.54,-734.54zm-897.74 13059.8l-11427.53 0 0 -11427.52 11427.53 0 0 11427.52z"/>
 </g>
</svg>
