<?xml version="1.0" encoding="UTF-8"?>
<!DOCTYPE svg PUBLIC "-//W3C//DTD SVG 1.1//EN" "http://www.w3.org/Graphics/SVG/1.1/DTD/svg11.dtd">
<!-- Creator: CorelDRAW -->
<svg xmlns="http://www.w3.org/2000/svg" xml:space="preserve" width="180.622mm" height="180.622mm" version="1.1" style="shape-rendering:geometricPrecision; text-rendering:geometricPrecision; image-rendering:optimizeQuality; fill-rule:evenodd; clip-rule:evenodd"
viewBox="0 0 18062.22 18062.22"
 xmlns:xlink="http://www.w3.org/1999/xlink"
 xmlns:xodm="http://www.corel.com/coreldraw/odm/2003">
 <defs>
  <style type="text/css">
   <![CDATA[
    .fil0 {fill:none}
    .fil1 {fill:white}
   ]]>
  </style>
 </defs>
 <g id="Layer_x0020_1">
  <metadata id="CorelCorpID_0Corel-Layer"/>
  <rect class="fil0" x="-0.01" y="-0.01" width="18062.22" height="18062.22"/>
  <g id="_2046891166496">
   <path class="fil1" d="M2010.84 3755.84l0 10550.69c0,325.55 311.94,586 702.03,586l12636.49 0c311.94,0 702.04,-260.45 702.04,-586l0 -10550.69c0,-260.44 -390.1,-586.15 -702.04,-586.15l-12636.49 0c-390.09,0 -702.03,325.71 -702.03,586.15zm12480.69 716.23l0 9118.08 -10920.82 0 0 -9118.08 10920.82 0z"/>
   <g>
    <g>
     <g>
      <path class="fil1" d="M12865.67 7784.6c0,342.84 -313.77,623.31 -697.18,623.31 -62.78,0 -122,-6.25 -177.8,-21.8l-1241 1106.39c17.39,49.89 24.38,106.02 24.38,162.09 0,342.84 -313.78,623.31 -697.18,623.31 -383.41,0 -697.18,-280.53 -697.18,-623.31 0,-56.13 6.98,-112.2 24.37,-162.09l-888.95 -794.76c-55.73,15.61 -118.51,21.85 -181.22,21.85 -62.72,0 -125.5,-6.24 -181.3,-21.79l-1586.13 1421.19c17.46,49.89 24.38,102.84 24.38,158.96 0,342.85 -313.77,623.31 -697.18,623.31 -383.41,0 -697.18,-280.52 -697.18,-623.31 0,-342.78 313.77,-623.31 697.18,-623.31 62.78,0 122,6.25 177.8,21.8l1589.62 -1418.07c-17.46,-49.89 -24.44,-106.02 -24.44,-162.09 0,-342.84 313.77,-623.31 697.18,-623.31 383.41,0 697.18,280.53 697.18,623.31 0,56.13 -6.98,112.2 -24.37,162.09l888.94 794.76c55.8,-15.61 118.52,-21.85 181.3,-21.85 62.78,0 125.49,6.24 181.29,21.79l1237.51 -1109.51c-17.46,-49.89 -24.38,-102.83 -24.38,-158.96 0,-342.84 313.78,-623.31 697.18,-623.31 383.41,0 697.18,280.52 697.18,623.31z"/>
     </g>
    </g>
   </g>
  </g>
 </g>
</svg>
