<?xml version="1.0" encoding="UTF-8"?>
<!DOCTYPE svg PUBLIC "-//W3C//DTD SVG 1.1//EN" "http://www.w3.org/Graphics/SVG/1.1/DTD/svg11.dtd">
<!-- Creator: CorelDRAW -->
<svg xmlns="http://www.w3.org/2000/svg" xml:space="preserve" width="180.622mm" height="180.622mm" version="1.1" style="shape-rendering:geometricPrecision; text-rendering:geometricPrecision; image-rendering:optimizeQuality; fill-rule:evenodd; clip-rule:evenodd"
viewBox="0 0 18062.22 18062.22"
 xmlns:xlink="http://www.w3.org/1999/xlink"
 xmlns:xodm="http://www.corel.com/coreldraw/odm/2003">
 <defs>
  <style type="text/css">
   <![CDATA[
    .fil0 {fill:none}
    .fil1 {fill:#47494F}
   ]]>
  </style>
 </defs>
 <g id="Layer_x0020_1">
  <metadata id="CorelCorpID_0Corel-Layer"/>
  <rect class="fil0" x="-0.01" y="-0.01" width="18062.22" height="18062.22"/>
  <path class="fil1" d="M14299.42 6020.77l-752.66 0 0 -3762.99 -9031.29 0 0 3762.99 -752.66 0c-1249.31,0 -2257.68,1008.38 -2257.68,2257.97l0 4515.65 3010.34 -0.29 0 3010.34 9031.29 0 0 -3010.34 3010.34 0 0 -4515.65c0,-1249.3 -1008.38,-2257.68 -2257.68,-2257.68zm-8278.64 -2257.96l6020.67 0 0 2257.96 -6020.67 0 0 -2257.96zm6020.67 9031.29l0 1505.31 -6020.67 0 0 -3010.33 6020.67 -0.29 0 1505.31zm1505.31 -1505.31l0 -1505.31 -9031.29 0.29 0 1505.31 -1505.32 -0.29 0 -3010.34c0,-413.87 338.78,-752.65 752.66,-752.65l10536.61 0c413.87,0 752.65,338.78 752.65,752.65l0 3010.34 -1505.31 0z"/>
 </g>
</svg>
