<?xml version="1.0" encoding="UTF-8"?>
<!DOCTYPE svg PUBLIC "-//W3C//DTD SVG 1.1//EN" "http://www.w3.org/Graphics/SVG/1.1/DTD/svg11.dtd">
<!-- Creator: CorelDRAW 2019 (64-Bit) -->
<svg xmlns="http://www.w3.org/2000/svg" xml:space="preserve" width="512px" height="512px" version="1.1" style="shape-rendering:geometricPrecision; text-rendering:geometricPrecision; image-rendering:optimizeQuality; fill-rule:evenodd; clip-rule:evenodd"
viewBox="0 0 512 512"
 xmlns:xlink="http://www.w3.org/1999/xlink">
 <defs>
  <style type="text/css">
   <![CDATA[
    .fil0 {fill:none}
    .fil1 {fill:#DADADA}
    .fil3 {fill:#373435}
    .fil2 {fill:#CCCCCC;fill-rule:nonzero}
    .fil4 {fill:#373435;fill-rule:nonzero}
   ]]>
  </style>
 </defs>
 <g id="Layer_x0020_1">
  <metadata id="CorelCorpID_0Corel-Layer"/>
  <rect class="fil0" width="512" height="512"/>
  <g id="_2803014677120">
   <g>
    <path class="fil1" d="M256 31.501c125.449,0 227.143,100.51 227.143,224.499 0,123.989 -101.694,224.5 -227.143,224.5 -125.449,0 -227.143,-100.511 -227.143,-224.5 0,-123.989 101.694,-224.499 227.143,-224.499z"/>
    <path id="1" class="fil2" d="M490.455 256l-14.623 0 0 0 -0.287 -11.181 -0.848 -11.029 -1.397 -10.867 -1.932 -10.691 -2.453 -10.503 -2.959 -10.302 -3.454 -10.086 -3.933 -9.86 -4.399 -9.617 -4.852 -9.363 -5.291 -9.095 -5.716 -8.812 -6.127 -8.516 -6.525 -8.207 -6.909 -7.883 -7.279 -7.546 -7.635 -7.194 -7.977 -6.83 -8.306 -6.451 -8.619 -6.058 -8.92 -5.652 -9.206 -5.232 -9.479 -4.798 -9.737 -4.351 -9.983 -3.89 -10.214 -3.416 -10.431 -2.928 -10.637 -2.426 -10.827 -1.911 -11.006 -1.382 -11.17 -0.84 -11.324 -0.283 0 -14.599 12.054 0.301 11.9 0.894 11.73 1.473 11.544 2.038 11.343 2.587 11.126 3.123 10.894 3.643 10.647 4.149 10.386 4.641 10.109 5.117 9.818 5.579 9.512 6.027 9.192 6.46 8.856 6.879 8.506 7.283 8.142 7.672 7.763 8.048 7.37 8.408 6.961 8.755 6.538 9.088 6.1 9.404 5.648 9.709 5.18 9.997 4.699 10.271 4.201 10.531 3.688 10.775 3.162 11.006 2.62 11.22 2.063 11.419 1.492 11.605 0.906 11.772 0.305 11.925 0 0zm-234.455 231.8l0 -14.6 0 0 11.324 -0.283 11.17 -0.839 11.006 -1.382 10.827 -1.912 10.637 -2.426 10.431 -2.928 10.214 -3.415 9.983 -3.89 9.737 -4.352 9.479 -4.798 9.206 -5.232 8.92 -5.651 8.619 -6.059 8.306 -6.45 7.977 -6.83 7.635 -7.195 7.279 -7.545 6.909 -7.883 6.525 -8.207 6.127 -8.517 5.716 -8.812 5.291 -9.094 4.852 -9.363 4.399 -9.618 3.933 -9.859 3.454 -10.087 2.959 -10.301 2.453 -10.503 1.932 -10.692 1.397 -10.866 0.848 -11.03 0.287 -11.181 14.623 0 -0.305 11.925 -0.906 11.773 -1.492 11.604 -2.063 11.419 -2.62 11.221 -3.162 11.005 -3.688 10.776 -4.201 10.53 -4.699 10.271 -5.18 9.998 -5.648 9.708 -6.1 9.405 -6.538 9.087 -6.961 8.755 -7.37 8.409 -7.763 8.048 -8.142 7.672 -8.506 7.283 -8.856 6.878 -9.192 6.46 -9.512 6.027 -9.818 5.58 -10.109 5.117 -10.386 4.64 -10.647 4.149 -10.894 3.644 -11.126 3.123 -11.343 2.587 -11.544 2.037 -11.73 1.473 -11.9 0.894 -12.054 0.302 0 0zm-234.455 -231.8l14.623 0 0 0 0.287 11.181 0.848 11.03 1.397 10.866 1.932 10.692 2.453 10.503 2.959 10.301 3.454 10.087 3.933 9.859 4.399 9.618 4.852 9.363 5.291 9.094 5.716 8.812 6.127 8.517 6.525 8.207 6.909 7.883 7.279 7.545 7.635 7.195 7.977 6.83 8.306 6.45 8.619 6.059 8.92 5.651 9.206 5.232 9.479 4.798 9.737 4.352 9.983 3.89 10.214 3.415 10.431 2.928 10.637 2.426 10.827 1.912 11.006 1.382 11.17 0.839 11.324 0.283 0 14.6 -12.054 -0.302 -11.9 -0.894 -11.73 -1.473 -11.544 -2.037 -11.343 -2.587 -11.126 -3.123 -10.894 -3.644 -10.647 -4.149 -10.386 -4.64 -10.109 -5.117 -9.818 -5.58 -9.512 -6.027 -9.192 -6.46 -8.856 -6.878 -8.506 -7.283 -8.142 -7.672 -7.763 -8.048 -7.37 -8.409 -6.961 -8.755 -6.538 -9.087 -6.1 -9.405 -5.648 -9.708 -5.18 -9.998 -4.699 -10.271 -4.201 -10.53 -3.688 -10.776 -3.162 -11.005 -2.62 -11.221 -2.063 -11.419 -1.492 -11.604 -0.906 -11.773 -0.305 -11.925 0 0zm234.455 -231.799l0 14.599 0 0 -11.324 0.283 -11.17 0.84 -11.006 1.382 -10.827 1.911 -10.637 2.426 -10.431 2.928 -10.214 3.416 -9.983 3.89 -9.737 4.351 -9.479 4.798 -9.206 5.232 -8.92 5.652 -8.619 6.058 -8.306 6.451 -7.977 6.83 -7.635 7.194 -7.279 7.546 -6.909 7.883 -6.525 8.207 -6.127 8.516 -5.716 8.812 -5.291 9.095 -4.852 9.363 -4.399 9.617 -3.933 9.86 -3.454 10.086 -2.959 10.302 -2.453 10.503 -1.932 10.691 -1.397 10.867 -0.848 11.029 -0.287 11.181 -14.623 0 0.305 -11.925 0.906 -11.772 1.492 -11.605 2.063 -11.419 2.62 -11.22 3.162 -11.006 3.688 -10.775 4.201 -10.531 4.699 -10.271 5.18 -9.997 5.648 -9.709 6.1 -9.404 6.538 -9.088 6.961 -8.755 7.37 -8.408 7.763 -8.048 8.142 -7.672 8.506 -7.283 8.856 -6.879 9.192 -6.46 9.512 -6.027 9.818 -5.579 10.109 -5.117 10.386 -4.641 10.647 -4.149 10.894 -3.643 11.126 -3.123 11.343 -2.587 11.544 -2.038 11.73 -1.473 11.9 -0.894 12.054 -0.301 0 0z"/>
   </g>
   <g id="_2803014678496">
    <ellipse class="fil3" cx="256" cy="256" rx="40.104" ry="39.637"/>
    <g>
     <polygon class="fil4" points="263.321,66.582 263.321,256 248.679,256 248.679,66.582 "/>
    </g>
   </g>
  </g>
 </g>
</svg>
