<?xml version="1.0" encoding="UTF-8"?>
<!DOCTYPE svg PUBLIC "-//W3C//DTD SVG 1.1//EN" "http://www.w3.org/Graphics/SVG/1.1/DTD/svg11.dtd">
<!-- Creator: CorelDRAW -->
<svg xmlns="http://www.w3.org/2000/svg" xml:space="preserve" width="180.622mm" height="180.622mm" version="1.1" style="shape-rendering:geometricPrecision; text-rendering:geometricPrecision; image-rendering:optimizeQuality; fill-rule:evenodd; clip-rule:evenodd"
viewBox="0 0 18062.22 18062.22"
 xmlns:xlink="http://www.w3.org/1999/xlink"
 xmlns:xodm="http://www.corel.com/coreldraw/odm/2003">
 <defs>
  <style type="text/css">
   <![CDATA[
    .fil0 {fill:none}
    .fil1 {fill:white}
   ]]>
  </style>
 </defs>
 <g id="Layer_x0020_1">
  <metadata id="CorelCorpID_0Corel-Layer"/>
  <rect class="fil0" x="-0.01" y="-0.01" width="18062.22" height="18062.22"/>
  <path class="fil1" d="M14919.08 5105.59l-11775.94 0c-719.56,0 -1308.55,588.75 -1308.55,1308.55l0 5233.95c0,719.55 588.74,1308.54 1308.55,1308.54l11775.94 -0.24c719.55,0 1308.55,-588.75 1308.55,-1308.55l0 -5233.7c0,-719.55 -588.75,-1308.55 -1308.55,-1308.55zm0 6542.25l-11775.94 0 0 -5233.7 1308.3 0 0 2616.85 1308.54 0 0 -2616.85 1308.31 0 0 2616.85 1308.54 0 0 -2616.85 1308.55 0 0 2616.85 1308.3 0 0 -2616.85 1308.55 0 0 2616.85 1308.55 0 0 -2616.85 1308.3 0 0 5233.95 0 -0.25z"/>
 </g>
</svg>
