<?xml version="1.0" encoding="UTF-8"?>
<!DOCTYPE svg PUBLIC "-//W3C//DTD SVG 1.1//EN" "http://www.w3.org/Graphics/SVG/1.1/DTD/svg11.dtd">
<!-- Creator: CorelDRAW -->
<svg xmlns="http://www.w3.org/2000/svg" xml:space="preserve" width="180.622mm" height="180.622mm" version="1.1" style="shape-rendering:geometricPrecision; text-rendering:geometricPrecision; image-rendering:optimizeQuality; fill-rule:evenodd; clip-rule:evenodd"
viewBox="0 0 18062.22 18062.22"
 xmlns:xlink="http://www.w3.org/1999/xlink"
 xmlns:xodm="http://www.corel.com/coreldraw/odm/2003">
 <defs>
  <style type="text/css">
   <![CDATA[
    .fil0 {fill:none}
    .fil1 {fill:#47494F}
   ]]>
  </style>
 </defs>
 <g id="Layer_x0020_1">
  <metadata id="CorelCorpID_0Corel-Layer"/>
  <rect class="fil0" x="-0.01" y="-0.01" width="18062.22" height="18062.22"/>
  <path class="fil1" d="M8614.3 695.48l-4584.62 7502 9169.25 0 -4584.63 -7502zm0 3200.92l1608.66 2633.83 -3225.81 0 1617.15 -2633.83zm4584.63 5968.34c-2075.56,0 -3751,1675.44 -3751,3751 0,2075.56 1675.44,3751 3751,3751 2075.56,0 3751.01,-1675.44 3751.01,-3751 0,-2075.56 -1675.45,-3751 -3751.01,-3751zm0 5835.06c-1150.25,0 -2084.06,-933.49 -2084.06,-2084.06 0,-1150.57 933.5,-2084.07 2084.06,-2084.07 1150.57,0 2084.07,933.5 2084.07,2084.07 0,1150.57 -933.5,2084.06 -2084.07,2084.06zm-12086.63 1250.13l6668.38 0 0 -6668.7 -6668.38 0.32 0 6668.69 0 -0.31zm1666.94 -5001.44l3334.19 0 0 3334.19 -3334.19 0.31 0 -3334.19 0 -0.31z"/>
 </g>
</svg>
