<?xml version="1.0" encoding="UTF-8"?>
<!DOCTYPE svg PUBLIC "-//W3C//DTD SVG 1.1//EN" "http://www.w3.org/Graphics/SVG/1.1/DTD/svg11.dtd">
<!-- Creator: CorelDRAW 2019 (64-Bit) -->
<svg xmlns="http://www.w3.org/2000/svg" xml:space="preserve" width="512px" height="512px" version="1.1" style="shape-rendering:geometricPrecision; text-rendering:geometricPrecision; image-rendering:optimizeQuality; fill-rule:evenodd; clip-rule:evenodd"
viewBox="0 0 512 512"
 xmlns:xlink="http://www.w3.org/1999/xlink">
 <defs>
  <style type="text/css">
   <![CDATA[
    .fil1 {fill:none}
    .fil0 {fill:#5B5B5B}
   ]]>
  </style>
 </defs>
 <g id="Layer_x0020_1">
  <metadata id="CorelCorpID_0Corel-Layer"/>
  <path class="fil0" d="M140.174 221.114c-51.399,0 -93.032,-41.633 -93.032,-93.032 0,-51.399 41.633,-93.032 93.032,-93.032 51.399,0 93.032,41.633 93.032,93.032 0,51.399 -41.633,93.032 -93.032,93.032zm0 -139.552c-25.581,0 -46.521,20.93 -46.521,46.52 0,25.59 20.931,46.521 46.521,46.521 25.59,0 46.52,-20.931 46.52,-46.521 0,-25.59 -20.939,-46.52 -46.52,-46.52zm139.087 139.552l0 -186.073 186.064 0.009 0 186.073 -186.064 -0.009zm139.552 -139.552l-93.041 0 0 93.032 93.041 0.009 0 -93.041zm-279.105 395.397l-116.292 -209.324 232.584 0 -116.292 209.324zm0 -95.828l37.211 -66.976 -74.422 0 37.211 66.976zm284.916 84.198c-24.658,0 -42.099,-13.028 -52.332,-27.216 -10.232,14.188 -27.681,27.216 -52.33,27.216 -36.28,0 -63.962,-29.766 -63.962,-63.961 0,-46.521 56.287,-79.548 116.292,-133.742 60.006,54.194 116.293,87.221 116.293,133.742 0,34.195 -27.673,63.961 -63.961,63.961zm-52.332 -136.063c-33.72,28.377 -69.771,55.821 -69.771,72.102 0,10.003 8.14,17.44 17.441,17.44 7.208,0 12.096,-3.955 16.974,-8.606l35.356 -33.255 35.357 33.264c4.888,4.65 9.766,8.606 16.975,8.606 9.3,0 17.44,-7.446 17.44,-17.44 0.009,-16.29 -36.041,-43.734 -69.772,-72.111z"/>
  <rect class="fil1" width="512" height="512"/>
 </g>
</svg>
