<?xml version="1.0" encoding="UTF-8"?>
<!DOCTYPE svg PUBLIC "-//W3C//DTD SVG 1.1//EN" "http://www.w3.org/Graphics/SVG/1.1/DTD/svg11.dtd">
<!-- Creator: CorelDRAW -->
<svg xmlns="http://www.w3.org/2000/svg" xml:space="preserve" width="180.622mm" height="180.622mm" version="1.1" style="shape-rendering:geometricPrecision; text-rendering:geometricPrecision; image-rendering:optimizeQuality; fill-rule:evenodd; clip-rule:evenodd"
viewBox="0 0 18062.22 18062.22"
 xmlns:xlink="http://www.w3.org/1999/xlink"
 xmlns:xodm="http://www.corel.com/coreldraw/odm/2003">
 <defs>
  <style type="text/css">
   <![CDATA[
    .fil0 {fill:none}
    .fil1 {fill:#47494F}
   ]]>
  </style>
 </defs>
 <g id="Layer_x0020_1">
  <metadata id="CorelCorpID_0Corel-Layer"/>
  <rect class="fil0" x="-0.01" y="-0.01" width="18062.22" height="18062.22"/>
  <g id="_2047173923280">
   <g>
   </g>
   <g>
    <path class="fil1" d="M12831.85 15551.54l-10135.53 0 0 -10321.32 5912.45 0 0 -1689.36 -5912.45 0c-928.95,0 -1689.04,760.08 -1689.04,1689.36l0 10135.52c0,928.96 760.09,1689.36 1689.36,1689.36l10135.21 -0.31c928.96,0 1689.36,-760.09 1689.36,-1689.37l0 -5912.44 -1689.36 0.32 0 6098.24z"/>
    <path class="fil1" d="M14521.21 1007.14l-1689.36 0 0 2534.04 -2533.72 -0.32c8.3,8.3 0,1689.36 0,1689.36l2533.72 0 0 2525.42c8.3,8.3 1689.36,0 1689.36,0l0 -2525.42 2533.72 0 0 -1689.36 -2533.72 0 0 -2533.72z"/>
    <rect class="fil1" x="4385.52" y="6919.26" width="6757.12" height="1689.36"/>
    <polygon class="fil1" points="4385.68,9453.3 4385.68,11142.66 11142.49,11142.66 11142.49,9453.3 8608.77,9453.3 "/>
    <rect class="fil1" x="4385.52" y="11987.02" width="6757.12" height="1689.36"/>
   </g>
  </g>
 </g>
</svg>
