<?xml version="1.0" encoding="UTF-8"?>
<!DOCTYPE svg PUBLIC "-//W3C//DTD SVG 1.1//EN" "http://www.w3.org/Graphics/SVG/1.1/DTD/svg11.dtd">
<!-- Creator: CorelDRAW 2019 (64-Bit) -->
<svg xmlns="http://www.w3.org/2000/svg" xml:space="preserve" width="512px" height="512px" version="1.1" style="shape-rendering:geometricPrecision; text-rendering:geometricPrecision; image-rendering:optimizeQuality; fill-rule:evenodd; clip-rule:evenodd"
viewBox="0 0 512 512"
 xmlns:xlink="http://www.w3.org/1999/xlink">
 <defs>
  <style type="text/css">
   <![CDATA[
    .fil0 {fill:none}
    .fil1 {fill:#5B5B5B}
   ]]>
  </style>
 </defs>
 <g id="Layer_x0020_1">
  <metadata id="CorelCorpID_0Corel-Layer"/>
  <rect class="fil0" width="512" height="512"/>
  <g id="_2802950475728">
   <g>
    <path class="fil1" d="M124.897 152.111c0,18.95 15.496,33.803 33.021,33.803 26.906,0 44.258,-35.317 64.869,-48.957 0,41.188 0,82.373 0,123.562 0,20.431 -0.515,41.492 -0.054,61.837 0.221,9.702 4.611,16.75 9.733,21.855 17.682,17.625 51.415,10.158 56.42,-18.362 2.869,-16.363 1.13,-163.819 1.13,-187.729 6.637,4.395 21.236,20.407 28.01,27.105 10.464,10.34 19.705,20.689 35.679,20.689 29.975,0 44.111,-36.642 23.306,-56.838l-97.877 -96.771c-12.511,-12.394 -32.857,-12.233 -46.027,-0.558 -16.692,14.796 -63.036,62.31 -81.969,81.019 -9.699,9.586 -26.241,21.521 -26.241,39.345z"/>
    <path class="fil1" d="M148.483 489.001l214.657 0c66.784,0 99.291,-72.326 73.989,-102.273 -14.443,-17.09 -46.103,-13.875 -55.836,8.307 -4.329,9.87 0.194,27.519 -19.33,27.519l-209.939 0c-28.765,0 -9.478,-23.712 -31.453,-40.022 -18.836,-13.981 -47.702,-5.099 -53.001,18.368 -6.292,27.872 11.611,59.224 36.077,75.296 11.003,7.227 26.488,12.805 44.836,12.805z"/>
   </g>
  </g>
 </g>
</svg>
