<?xml version="1.0" encoding="UTF-8"?>
<!DOCTYPE svg PUBLIC "-//W3C//DTD SVG 1.1//EN" "http://www.w3.org/Graphics/SVG/1.1/DTD/svg11.dtd">
<!-- Creator: CorelDRAW 2019 (64-Bit) -->
<svg xmlns="http://www.w3.org/2000/svg" xml:space="preserve" width="512px" height="512px" version="1.1" style="shape-rendering:geometricPrecision; text-rendering:geometricPrecision; image-rendering:optimizeQuality; fill-rule:evenodd; clip-rule:evenodd"
viewBox="0 0 512 512"
 xmlns:xlink="http://www.w3.org/1999/xlink">
 <defs>
  <style type="text/css">
   <![CDATA[
    .fil0 {fill:none}
    .fil1 {fill:white}
   ]]>
  </style>
   <clipPath id="id0">
    <path d="M211.931 20.125c-130.269,24.338 -216.145,149.675 -191.806,279.944 24.338,130.269 149.675,216.145 279.944,191.806 130.269,-24.338 216.145,-149.675 191.806,-279.944 -24.338,-130.269 -149.675,-216.145 -279.944,-191.806z"/>
   </clipPath>
    <mask id="id1">
  <linearGradient id="id2" gradientUnits="userSpaceOnUse" x1="575.362" y1="358.149" x2="352.544" y2="297.989">
   <stop offset="0" style="stop-opacity:1; stop-color:white"/>
   <stop offset="0.141176" style="stop-opacity:0.27451; stop-color:white"/>
   <stop offset="1" style="stop-opacity:0.45098; stop-color:white"/>
  </linearGradient>
     <rect style="fill:url(#id2)" x="16" y="16" width="480" height="480"/>
    </mask>
   <clipPath id="id3">
    <path d="M211.931 20.125c-130.269,24.338 -216.145,149.675 -191.806,279.944 24.338,130.269 149.675,216.145 279.944,191.806 130.269,-24.338 216.145,-149.675 191.806,-279.944 -24.338,-130.269 -149.675,-216.145 -279.944,-191.806z"/>
   </clipPath>
    <clipPath id="id4">
     <path d="M211.931 20.125c-130.269,24.338 -216.145,149.675 -191.806,279.944 24.338,130.269 149.675,216.145 279.944,191.806 130.269,-24.338 216.145,-149.675 191.806,-279.944 -24.338,-130.269 -149.675,-216.145 -279.944,-191.806z"/>
    </clipPath>
    <clipPath id="id5">
     <path d="M211.931 20.125c-130.269,24.338 -216.145,149.675 -191.806,279.944 24.338,130.269 149.675,216.145 279.944,191.806 130.269,-24.338 216.145,-149.675 191.806,-279.944 -24.338,-130.269 -149.675,-216.145 -279.944,-191.806z"/>
    </clipPath>
 </defs>
 <g id="Layer_x0020_1">
  <metadata id="CorelCorpID_0Corel-Layer"/>
  <rect class="fil0" width="512" height="512"/>
  <g style="clip-path:url(#id0)">
   <polygon class="fil1" style="mask:url(#id1)" points="16,16 496,16 496,496 16,496 "/>
  </g>
  <g style="clip-path:url(#id3)">
   <g id="_3254283024256">
   </g>
   <g style="clip-path:url(#id4)">
    <image x="-171.81" y="-91.595" width="855.618" height="695.188" xlink:href="map-1.png"/>
   </g>
   <g style="clip-path:url(#id5)">
   </g>
  </g>
  <path class="fil0" d="M211.931 20.125c-130.269,24.338 -216.145,149.675 -191.806,279.944 24.338,130.269 149.675,216.145 279.944,191.806 130.269,-24.338 216.145,-149.675 191.806,-279.944 -24.338,-130.269 -149.675,-216.145 -279.944,-191.806z"/>
 </g>
</svg>
