<?xml version="1.0" encoding="UTF-8"?>
<!DOCTYPE svg PUBLIC "-//W3C//DTD SVG 1.1//EN" "http://www.w3.org/Graphics/SVG/1.1/DTD/svg11.dtd">
<!-- Creator: CorelDRAW 2019 (64-Bit) -->
<svg xmlns="http://www.w3.org/2000/svg" xml:space="preserve" width="512px" height="512px" version="1.1" style="shape-rendering:geometricPrecision; text-rendering:geometricPrecision; image-rendering:optimizeQuality; fill-rule:evenodd; clip-rule:evenodd"
viewBox="0 0 512 512"
 xmlns:xlink="http://www.w3.org/1999/xlink">
 <defs>
  <style type="text/css">
   <![CDATA[
    .fil0 {fill:none}
    .fil1 {fill:#6F7175}
   ]]>
  </style>
 </defs>
 <g id="Layer_x0020_1">
  <metadata id="CorelCorpID_0Corel-Layer"/>
  <rect class="fil0" width="512" height="512"/>
  <g id="_1568371090400">
   <g>
    <path class="fil1" d="M126.85 157.461c0,17.974 15.265,32.062 32.529,32.062 26.505,0 43.598,-33.498 63.903,-46.435 0,39.067 0,78.131 0,117.198 0,19.378 -0.507,39.356 -0.053,58.652 0.217,9.202 4.542,15.888 9.587,20.73 17.419,16.717 50.65,9.634 55.58,-17.417 2.826,-15.52 1.113,-155.381 1.113,-178.06 6.538,4.168 20.92,19.356 27.593,25.709 10.308,9.807 19.412,19.623 35.148,19.623 29.529,0 43.453,-34.754 22.958,-53.91l-96.419 -91.787c-12.324,-11.756 -32.368,-11.602 -45.341,-0.529 -16.444,14.034 -62.097,59.1 -80.748,76.846 -9.555,9.092 -25.85,20.412 -25.85,37.318z"/>
    <path class="fil1" d="M150.085 477l211.459 0c65.79,0 97.812,-68.6 72.887,-97.005 -14.228,-16.21 -45.417,-13.16 -55.004,7.879 -4.265,9.362 0.191,26.101 -19.043,26.101l-206.811 0c-28.337,0 -9.337,-22.49 -30.985,-37.961 -18.555,-13.26 -46.991,-4.836 -52.211,17.423 -6.198,26.437 11.438,56.174 35.539,71.418 10.839,6.854 26.094,12.145 44.169,12.145z"/>
   </g>
  </g>
 </g>
</svg>
