<?xml version="1.0" encoding="UTF-8"?>
<!DOCTYPE svg PUBLIC "-//W3C//DTD SVG 1.1//EN" "http://www.w3.org/Graphics/SVG/1.1/DTD/svg11.dtd">
<!-- Creator: CorelDRAW 2019 (64-Bit) -->
<svg xmlns="http://www.w3.org/2000/svg" xml:space="preserve" width="512px" height="512px" version="1.1" style="shape-rendering:geometricPrecision; text-rendering:geometricPrecision; image-rendering:optimizeQuality; fill-rule:evenodd; clip-rule:evenodd"
viewBox="0 0 512 512"
 xmlns:xlink="http://www.w3.org/1999/xlink">
 <defs>
  <style type="text/css">
   <![CDATA[
    .fil0 {fill:none}
    .fil1 {fill:#47494F}
   ]]>
  </style>
 </defs>
 <g id="Layer_x0020_1">
  <metadata id="CorelCorpID_0Corel-Layer"/>
  <rect class="fil0" width="512" height="512"/>
  <path class="fil1" d="M412.804 166.402l-22.402 0 0 -112 -268.804 0 0 112 -22.401 0c-37.184,0 -67.197,30.012 -67.197,67.205l0 134.401 89.598 -0.008 0 89.598 268.804 0 0 -89.598 89.598 0 0 -134.402c0,-37.184 -30.013,-67.196 -67.196,-67.196zm-246.402 -67.206l179.196 0 0 67.206 -179.196 0 0 -67.206zm179.196 268.804l0 44.803 -179.196 0 0 -89.598 179.196 -0.009 0 44.804zm44.804 -44.804l0 -44.803 -268.804 0.009 0 44.803 -44.803 -0.009 0 -89.598c0,-12.318 10.083,-22.402 22.402,-22.402l313.607 0c12.318,0 22.401,10.084 22.401,22.402l0 89.598 -44.803 0z"/>
 </g>
</svg>
