<?xml version="1.0" encoding="utf-8"?>
<!-- Generator: Adobe Illustrator 19.0.0, SVG Export Plug-In . SVG Version: 6.00 Build 0)  -->
<svg version="1.1" id="Layer_1" xmlns="http://www.w3.org/2000/svg" xmlns:xlink="http://www.w3.org/1999/xlink" x="0px" y="0px"
	 viewBox="150 -150 500 500" style="enable-background:new 150 -150 500 500;" xml:space="preserve">
<style type="text/css">
	.st0{fill:#FFFFFF;}
</style>
<g>
	<path class="st0" d="M607.8-85.6H300.3c-8-29.9-35.2-52-67.5-52.2c-38.8-0.2-70.6,32.4-70.6,71.2v333.7c0,37.9,29.8,69.6,67.7,70.7
		c0.7,0,1.3,0,2,0v0.1h375.9c16.6,0,30.1-13.5,30.1-30.1V-55.5C637.9-72.1,624.4-85.6,607.8-85.6z M326.8-62.2
		c0.9-0.2,2.3-0.4,4-0.7c3.4-0.6,8.3-1.3,14.2-1.9c5.9-0.6,12.7-1.2,20.1-1.5c1.8-0.1,3.7-0.2,5.6-0.2c1.9-0.1,3.8-0.1,5.7-0.2
		c3.9-0.1,7.8-0.1,11.7-0.1c3.9,0,7.8,0,11.7,0.2c1.9,0,3.8,0.1,5.7,0.2c1.9,0.1,3.8,0.1,5.6,0.2c7.4,0.4,14.2,0.9,20.1,1.5
		s10.8,1.3,14.2,1.9c1.7,0.3,3.1,0.6,4,0.7c1,0,1.4,0.1,1.4,0.1s-0.5,0.1-1.4,0.3s-2.3,0.4-4,0.7c-3.4,0.6-8.3,1.3-14.2,1.9
		c-5.9,0.6-12.7,1.2-20.1,1.5c-1.8,0.1-3.7,0.2-5.6,0.2c-1.9,0.1-3.8,0.1-5.7,0.2C395.9-57,392-57,388.1-57s-7.8,0-11.7-0.1
		c-1.9,0-3.8-0.1-5.7-0.2c-1.9-0.1-3.8-0.1-5.6-0.2c-7.4-0.4-14.2-0.9-20.1-1.5s-10.8-1.3-14.2-1.9c-1.7-0.3-3.1-0.6-4-0.7
		c-0.9-0.2-1.4-0.3-1.4-0.3S325.9-62,326.8-62.2z M213.2-67.6c0-5.5,2.4-10.7,6.5-14.4l0.5-0.4c2.4-2,6.4-4.5,12.1-4.5
		c3.5,0,6.8,0.9,9.7,2.7l0.1,0.1c5.8,3.5,9.4,9.8,9.4,16.5V200c-6.2-1.7-12.6-2.6-19.2-2.6c-2.2,0-4.6,0.1-7.1,0.4
		c-1,0.1-1.9,0.2-2.5,0.3l-1.5,0.2c-0.8,0.1-1.9,0.2-3.1,0.5c-1.2,0.3-2.3,0.6-3.1,0.8c-0.2,0.1-0.4,0.2-0.6,0.2l-0.5,0.1
		c-0.1,0.1-0.6,0.2-0.7,0.2L213.2-67.6L213.2-67.6z M586.9,286.9H232c-10.2,0-18.2-7.9-18.7-18.2c-0.5-10,6.4-18.6,16.3-20
		c11.8-1.7,22,7.4,22,18.9v2.5h51V-34.7h284.3V286.9z M618.3,206.2c0,2.6-0.1,5.1-0.2,7.6c-0.1,2.5-0.1,5-0.2,7.4
		c-0.4,9.7-0.9,18.8-1.5,26.6c-0.3,3.9-0.6,7.5-1,10.6c-0.3,3.2-0.7,5.9-0.9,8.2c-0.3,2.3-0.5,4.1-0.7,5.3s-0.3,1.9-0.3,1.9
		s-0.1-0.6-0.3-1.9c-0.2-1.2-0.5-3-0.7-5.3c-0.3-2.3-0.6-5-0.9-8.2c-0.3-3.2-0.7-6.7-1-10.6c-0.6-7.8-1.2-16.9-1.5-26.6
		c-0.1-2.4-0.2-4.9-0.2-7.4c-0.1-2.5-0.1-5-0.2-7.6c-0.1-5.1-0.1-10.3-0.1-15.5s0-10.4,0.2-15.5c0-2.6,0.1-5.1,0.2-7.6
		c0.1-2.5,0.1-5,0.2-7.4c0.4-9.7,0.9-18.8,1.5-26.6c0.3-3.9,0.6-7.5,1-10.6c0.3-3.2,0.7-5.9,0.9-8.2c0.3-2.3,0.5-4.1,0.7-5.3
		c0-1.3,0.1-1.9,0.1-1.9s0.1,0.6,0.3,1.9c0.2,1.2,0.5,3,0.7,5.3c0.3,2.3,0.6,5,0.9,8.2s0.6,6.7,1,10.6c0.6,7.8,1.2,16.9,1.5,26.6
		c0.1,2.4,0.2,4.9,0.2,7.4c0.1,2.5,0.1,5,0.2,7.6c0.1,5.1,0.1,10.3,0.2,15.5C618.4,195.9,618.4,201.1,618.3,206.2z"/>
	<g id="XMLID_249_">
		<path id="XMLID_349_" class="st0" d="M538.2-22.7h-18.6c-0.4,0-0.8,0.3-0.8,0.8v96.7c0,0.4,0.3,0.8,0.8,0.8h18.6
			c0.4,0,0.8-0.3,0.8-0.8V-22C539-22.4,538.7-22.7,538.2-22.7z"/>
		<path id="XMLID_250_" class="st0" d="M578,35.7V17.1c0-0.4-0.3-0.8-0.8-0.8h-96.7c-0.4,0-0.8,0.3-0.8,0.8v18.6
			c0,0.4,0.3,0.8,0.8,0.8h96.7C577.7,36.4,578,36.1,578,35.7z"/>
	</g>
	<path id="XMLID_248_" class="st0" d="M241.7-97.6h-18.6c-0.4,0-0.8,0.3-0.8,0.8v40.2c0,0.4,0.3,0.8,0.8,0.8h18.6
		c0.4,0,0.8-0.3,0.8-0.8v-40.2C242.5-97.3,242.1-97.6,241.7-97.6z"/>
	<path id="XMLID_246_" class="st0" d="M241.7-17.3h-18.6c-0.4,0-0.8,0.3-0.8,0.8v54.3c0,0.4,0.3,0.8,0.8,0.8h18.6
		c0.4,0,0.8-0.3,0.8-0.8v-54.3C242.5-17,242.1-17.3,241.7-17.3z"/>
	<path id="XMLID_81_" class="st0" d="M241.7,72.1h-18.6c-0.4,0-0.8,0.3-0.8,0.8v54.3c0,0.4,0.3,0.8,0.8,0.8h18.6
		c0.4,0,0.8-0.3,0.8-0.8V72.9C242.5,72.5,242.1,72.1,241.7,72.1z"/>
	<path id="XMLID_60_" class="st0" d="M241.7,170.9h-18.6c-0.4,0-0.8,0.3-0.8,0.8V234c0,0.4,0.3,0.8,0.8,0.8h18.6
		c0.4,0,0.8-0.3,0.8-0.8v-62.3C242.5,171.2,242.1,170.9,241.7,170.9z"/>
	<path id="XMLID_757_" class="st0" d="M325.7,267.3c-5.4,0-9.8-4.4-9.8-9.8c0-5.4,4.4-9.8,9.8-9.8l0,0v-39.9c0-2.6,1-5.1,2.8-6.9
		l37.6-37.6c1.8-1.8,4.3-2.9,6.9-2.9s5.1,1,6.9,2.9l37.6,37.6c1.8,1.8,2.9,4.3,2.9,6.9v39.9h0.3c5.4,0,9.8,4.4,9.8,9.8
		c0,5.4-4.4,9.8-9.8,9.8L325.7,267.3L325.7,267.3z M401,247.8v-30.1h-55.7v30.1H401z M387.1,198.1l-14-14l-14,14H387.1z"/>
	<g id="XMLID_58_">
		<path id="XMLID_356_" class="st0" d="M594.8,313.6l-10.1-12.3c-0.1-0.7-0.9-6.9-3.2-16.8l29.3-6.7c2.5,11,3.5,18.2,3.7,19.6
			l-14.9,2L594.8,313.6z M573.7,257c-3.1-9.2-6.7-18.1-10.5-26.5l27.3-12.7c4.4,9.3,8.3,19.3,11.8,29.5L573.7,257z M549.7,205.8
			c-5.1-8.1-10.7-15.5-16.6-22.1l22.4-20.1c7,7.8,13.6,16.5,19.6,26L549.7,205.8z M513.2,165.4c-7.2-5.4-14.9-10-22.9-13.6
			l12.3-27.4c10,4.5,19.7,10.2,28.7,17L513.2,165.4z M464.9,143.6c-6.5-1.3-13.3-2.2-20.3-2.5c-2.7-0.1-5.4-0.3-8-0.6l2.9-30
			c2.2,0.2,4.4,0.4,6.6,0.5c8.4,0.4,16.8,1.5,24.8,3.1L464.9,143.6z M404.2,134c-10.7-3.4-20.9-8-30.5-13.6L389,94.5
			c7.6,4.5,15.8,8.1,24.2,10.8L404.2,134z M347.1,100.3c-7.8-7.3-15.1-15.5-21.7-24.6l24.3-17.8c5.6,7.6,11.6,14.5,18,20.4
			L347.1,100.3z M308.3,48.2c-4.8-9.2-9.1-19-13-29.2l28.2-10.5c3.4,9.1,7.2,17.8,11.5,25.8L308.3,48.2z M285.9-11.3
			c-4.7-18.5-6.1-31.3-6.2-31.8l29.9-3.2l-15,1.6l15-1.6c0,0.1,1.3,11.3,5.4,27.6L285.9-11.3z"/>
	</g>
</g>
</svg>
