<?xml version="1.0" encoding="utf-8"?>
<!-- Generator: Adobe Illustrator 19.0.0, SVG Export Plug-In . SVG Version: 6.00 Build 0)  -->
<svg version="1.1" id="Layer_1" xmlns="http://www.w3.org/2000/svg" xmlns:xlink="http://www.w3.org/1999/xlink" x="0px" y="0px"
	 viewBox="150 -150 500 500" style="enable-background:new 150 -150 500 500;" xml:space="preserve">
<style type="text/css">
	.st0{fill:#FFFFFF;}
</style>
<g>
	<g id="XMLID_1198_">
		<path class="st0" d="M499-10.7c-11.2,0-21.4-7.6-24.2-18.9l-7.2-28.8c-3.3-13.4,4.8-27,18.2-30.3c13.4-3.4,27,4.8,30.3,18.2
			l7.2,28.8c3.3,13.4-4.8,27-18.2,30.3C503-10.9,501-10.7,499-10.7z"/>
	</g>
	<g id="XMLID_1199_">
		<path class="st0" d="M301.4-10.7c-2,0-4.1-0.2-6.2-0.8c-13.4-3.4-21.5-17-18.1-30.4l7.3-28.8c3.4-13.4,17-21.5,30.4-18.1
			s21.5,17,18.1,30.4l-7.3,28.8C322.8-18.2,312.6-10.7,301.4-10.7z"/>
	</g>
	<path class="st0" d="M644.5,146.1c0-0.1-0.1-0.2-0.1-0.3c-0.9-2.5-1.8-5-2.8-7.5l-55-144.7v-0.1c-0.2-0.7-0.4-1.5-0.7-2.2
		c-11.3-31.4-41.4-52.6-74.8-52.6c-43.3,0-78.6,34.8-79.4,77.8h-63.3c-0.8-43.1-36.1-77.9-79.4-77.9c-33.5,0-63.5,21.1-74.8,52.6
		v0.1c-0.2,0.6-0.4,1.1-0.5,1.7c-0.1,0.1-0.1,0.3-0.2,0.4l-54.9,144.4c-5.6,13.1-8.6,27.5-8.6,42.5c0,60.2,48.9,109.2,109.1,109.2
		s109.2-49,109.2-109.2v-13.1h63.2v13.1c0,60.2,49,109.2,109.3,109.2c60.2,0,109.2-49,109.2-109.2
		C650,168.4,648.1,156.9,644.5,146.1z M260.6,11.4c0.3-0.9,0.6-1.9,0.9-2.8c0-0.1,0.1-0.1,0.1-0.2c4.2-11.5,15.2-19.2,27.3-19.2
		c15.9,0,28.9,13,28.9,29v70c-17-10.8-37.1-17.1-58.7-17.1c-7.5,0-14.9,0.8-22,2.2L260.6,11.4z M199.2,237.1
		c-1.1-0.9-2.7-2.3-4.6-4.2c-1.9-1.9-4.2-4.3-6.5-7.3c-1.2-1.5-2.3-3.2-3.5-4.9c-1.1-1.8-2.3-3.7-3.4-5.8c-2.2-4.2-4.2-8.9-5.7-14.2
		c-1.5-5.2-2.6-10.9-3-16.9c0-0.7-0.1-1.5-0.1-2.3l-0.1-1.1v-1.2c0-0.7,0-1.4,0-2.2v-1.1l0.1-1.2c0.1-3.2,0.4-6.3,0.9-9.4
		c1-6.2,2.7-12.5,5.2-18.4s5.6-11.6,9.4-16.7l1.4-1.9l1.5-1.8c1-1.2,2-2.4,3.1-3.5c2.1-2.3,4.3-4.4,6.5-6.4
		c4.5-3.9,9.3-7.2,14.1-9.8c4.8-2.6,9.6-4.6,14.1-6s8.7-2.3,12.5-2.8c0.9-0.1,1.9-0.2,2.7-0.3c0.9-0.1,1.7-0.1,2.5-0.2
		c1.6,0,3.1-0.1,4.5-0.1c2.7,0,4.8,0.2,6.2,0.3c1.4,0.2,2.2,0.2,2.2,0.2s-0.8,0.1-2.2,0.3c-0.7,0.1-1.6,0.2-2.6,0.4
		s-2.2,0.4-3.5,0.7c-1.3,0.3-2.7,0.6-4.2,1c-1.5,0.5-3.2,0.8-4.9,1.4c-0.9,0.3-1.7,0.6-2.7,0.9c-0.9,0.3-1.8,0.7-2.8,1
		c-0.9,0.3-1.9,0.8-2.9,1.2c-1,0.4-2,0.8-2.9,1.3c-4,1.9-8.1,4.2-12.2,7c-4.1,2.8-8.2,6.1-12,9.9c-1.9,1.9-3.8,3.9-5.5,6
		c-0.9,1.1-1.8,2.1-2.6,3.3l-1.3,1.7l-1.2,1.7c-3.1,4.7-5.9,9.7-8.1,14.9c-2.2,5.3-3.8,10.7-4.9,16.3c-0.3,1.4-0.5,2.8-0.7,4.1
		c-0.2,1.4-0.3,2.7-0.5,4l-0.1,1l-0.1,1.1c0,0.7-0.1,1.4-0.1,2.2l-0.1,1v1c0,0.7,0,1.4,0,2c0,5.4,0.6,10.6,1.5,15.5
		s2.2,9.5,3.7,13.6c0.7,2.1,1.6,4,2.3,5.9c0.9,1.8,1.6,3.6,2.5,5.2c1.7,3.2,3.3,5.9,4.7,8.2c1.5,2.2,2.6,3.9,3.5,5
		c1.2,1.2,1.6,1.8,1.6,1.8S200.3,238,199.2,237.1z M259.1,238.9c-32.3,0-58.6-26.3-58.6-58.6c0-6.2,1-12.2,2.8-17.8l2.2-5.8
		c9.1-20.6,29.7-35.1,53.7-35.1c32.4,0,58.7,26.3,58.7,58.7C317.8,212.6,291.5,238.9,259.1,238.9z M431.6,116.7h-63.2V67.1h63.2
		V116.7z M482.1,41.9V18.2c0.1-16,13-29,29-29c12.2,0,23.1,7.7,27.2,19.1c0.1,0.2,0.2,0.4,0.2,0.6c0.2,0.9,0.5,1.7,0.8,2.5
		l23.5,61.9c-7.1-1.5-14.5-2.2-22-2.2c-21.6,0-41.7,6.3-58.7,17.1L482.1,41.9L482.1,41.9z M482.2,180.3c0-32.4,26.3-58.7,58.7-58.7
		c24,0,44.6,14.5,53.7,35.1l2.2,5.7c1.8,5.6,2.8,11.6,2.8,17.9c0,32.3-26.4,58.6-58.7,58.6C508.5,238.9,482.2,212.6,482.2,180.3z
		 M625.5,194.5c0,1.1-0.1,2.2-0.1,3.4c-0.1,1.2-0.3,2.4-0.5,3.6c-0.3,2.5-1,5.1-1.6,7.7c-0.4,1.3-0.8,2.6-1.3,4
		c-0.2,0.7-0.5,1.3-0.7,2c-0.3,0.7-0.6,1.3-0.9,2s-0.6,1.3-0.9,2s-0.6,1.3-0.9,2c-0.7,1.3-1.4,2.6-2.1,3.9s-1.6,2.5-2.4,3.7
		c-0.4,0.6-0.8,1.2-1.2,1.8c-0.5,0.6-0.9,1.1-1.4,1.7c-1.7,2.3-3.7,4.4-5.7,6.3c-0.5,0.5-1,0.9-1.5,1.4s-1,0.9-1.5,1.3
		c-1,0.8-2,1.7-3,2.4s-2,1.4-3,2.1s-2,1.2-2.9,1.8c-1,0.5-1.8,1.1-2.7,1.5s-1.8,0.8-2.6,1.2c-0.8,0.3-1.6,0.7-2.3,1
		c-0.7,0.3-1.4,0.5-2,0.7c-1.2,0.4-2.2,0.6-2.8,0.8s-1,0.3-1,0.3s0.3-0.3,0.7-0.8c0.5-0.5,1.2-1.2,2-2c0.4-0.4,0.9-0.9,1.5-1.4
		c0.5-0.5,1.1-1.1,1.7-1.7c0.6-0.6,1.2-1.2,1.9-1.9c0.6-0.7,1.3-1.4,2-2.2c1.4-1.4,2.8-3.1,4.3-4.8c0.8-0.8,1.5-1.8,2.2-2.7
		c0.7-1,1.6-1.8,2.3-2.8c0.7-1,1.5-2,2.3-3c0.4-0.5,0.7-1,1.1-1.6c0.4-0.5,0.7-1,1.1-1.6c0.4-0.5,0.7-1.1,1.1-1.6l1-1.7
		c0.7-1.1,1.4-2.2,2.1-3.3c0.7-1.1,1.3-2.3,2-3.4c0.6-1.1,1.2-2.3,1.8-3.4c0.3-0.6,0.6-1.1,0.9-1.7c0.3-0.6,0.5-1.2,0.8-1.7
		c0.5-1.1,1.1-2.3,1.6-3.4c0.9-2.3,2-4.5,2.7-6.6c0.4-1.1,0.8-2.1,1.2-3.1c0.3-1,0.6-2,1-3c0.7-1.9,1.2-3.7,1.7-5.3
		c0.3-0.8,0.5-1.6,0.7-2.3c0.2-0.7,0.4-1.4,0.5-2c0.3-1.2,0.6-2.1,0.8-2.8c0.1-0.7,0.3-1,0.3-1s0.1,0.4,0.3,1
		c0.1,0.7,0.4,1.6,0.6,2.8c0.1,0.6,0.2,1.3,0.4,2c0.1,0.8,0.1,1.6,0.2,2.5s0.1,1.8,0.2,2.8S625.5,193.4,625.5,194.5z"/>
</g>
</svg>
