<?xml version="1.0" encoding="utf-8"?>
<!-- Generator: Adobe Illustrator 19.0.0, SVG Export Plug-In . SVG Version: 6.00 Build 0)  -->
<svg version="1.1" id="Layer_1" xmlns="http://www.w3.org/2000/svg" xmlns:xlink="http://www.w3.org/1999/xlink" x="0px" y="0px"
	 viewBox="150 -150 500 500" style="enable-background:new 150 -150 500 500;" xml:space="preserve">
<style type="text/css">
	.st0{fill:#FFFFFF;}
</style>
<g>
	<path class="st0" d="M637.5,301.4L484.4,148.3l2.5-3.5c22.5-31.3,34.4-68.2,34.4-106.7c0-101-82.1-183.1-183.1-183.1
		c-48.8,0-94.8,19.1-129.4,53.7C174.2-56.7,155-10.7,155,38.1c0,101,82.2,183.1,183.1,183.2c38.5,0,75.4-11.9,106.7-34.4l3.5-2.5
		l153.1,153.1c4.9,4.8,11.3,7.5,18.1,7.5s13.2-2.7,17.9-7.5C647.5,327.6,647.5,311.4,637.5,301.4z M254,169.5
		c-1.3-0.7-2.9-1.6-4.7-2.7c-1.8-1.2-3.9-2.6-6.2-4.1c-0.6-0.4-1.2-0.8-1.8-1.2c-0.6-0.4-1.2-0.9-1.8-1.4c-1.2-0.9-2.5-1.9-3.8-2.9
		c-0.7-0.5-1.4-1-2.1-1.6c-0.7-0.5-1.3-1.2-2-1.7c-1.4-1.2-2.8-2.5-4.2-3.7c-1.5-1.3-2.9-2.7-4.4-4.2s-3-3-4.5-4.6
		c-1.4-1.7-2.9-3.4-4.4-5.1c-0.7-0.9-1.6-1.7-2.3-2.7c-0.7-0.9-1.4-1.9-2.2-2.9c-0.7-1-1.5-1.9-2.2-2.9c-0.4-0.5-0.7-1-1.1-1.5
		s-0.7-1-1.1-1.6c-1.4-2.1-2.8-4.2-4.3-6.4c-1.4-2.2-2.6-4.6-4-6.9c-1.4-2.3-2.5-4.8-3.7-7.3c-4.8-10-9-21.1-11.6-33
		c-2.6-11.9-3.9-24.6-3.7-37.4v-2.3v-1.2L178,29c0.1-1.6,0.2-3.3,0.3-4.9c0.1-0.8,0.1-1.6,0.2-2.5l0.3-2.4c0.2-1.6,0.4-3.2,0.6-4.8
		c0.2-1.6,0.5-3.2,0.8-4.8c0.3-1.6,0.5-3.2,0.9-4.8c0.8-3.2,1.4-6.4,2.3-9.5c3.5-12.6,8.5-24.7,15-35.8c0.8-1.4,1.6-2.8,2.4-4.1
		c0.9-1.3,1.7-2.7,2.6-4c1.7-2.7,3.6-5.2,5.5-7.8c0.9-1.3,1.9-2.5,2.9-3.7c1-1.2,2-2.4,2.9-3.6c1-1.2,2.1-2.3,3.1-3.5
		c1-1.1,2-2.3,3.1-3.4c8.4-8.8,17.6-16.3,26.9-22.4c1.1-0.8,2.3-1.5,3.5-2.2c1.2-0.7,2.3-1.4,3.5-2.1c2.3-1.4,4.7-2.6,7-3.8
		c2.3-1.2,4.7-2.2,6.9-3.3c2.3-1,4.6-1.9,6.8-2.9c4.5-1.7,8.9-3.3,13.1-4.5c1.1-0.3,2.1-0.6,3.1-0.9s2.1-0.5,3.1-0.7
		c2-0.5,4-1,5.9-1.3c1.9-0.4,3.8-0.7,5.6-1c1.8-0.3,3.5-0.5,5.2-0.7c0.8-0.1,1.7-0.2,2.5-0.3c0.8-0.1,1.6-0.1,2.4-0.2
		c1.5-0.1,3-0.2,4.4-0.3c2.8-0.2,5.3-0.2,7.4-0.2c2.2-0.1,4,0,5.5,0.1c3,0.1,4.6,0.2,4.6,0.2s-1.6,0.1-4.5,0.4
		c-3,0.2-7.3,0.8-12.7,1.6c-1.4,0.2-2.8,0.5-4.3,0.8c-0.7,0.1-1.5,0.3-2.3,0.4c-0.8,0.2-1.6,0.4-2.4,0.5c-1.6,0.4-3.3,0.7-5,1.1
		c-1.7,0.5-3.5,1-5.3,1.5c-7.3,2.1-15.4,5-23.8,9c-2.1,1-4.2,2-6.4,3.2c-2.1,1.2-4.3,2.3-6.4,3.6s-4.3,2.6-6.5,4
		c-1.1,0.7-2.1,1.4-3.2,2.2c-1.1,0.7-2.2,1.5-3.2,2.3c-8.6,6.2-16.9,13.7-24.7,22.3c-7.8,8.5-14.7,18.3-20.6,28.8
		c-5.9,10.5-10.6,21.9-13.8,33.7c-0.9,2.9-1.5,5.9-2.2,8.9c-0.4,1.5-0.6,3-0.9,4.5s-0.6,3-0.8,4.5c-0.2,1.5-0.4,3-0.6,4.5l-0.3,2.3
		c-0.1,0.8-0.1,1.5-0.2,2.2c-0.1,1.5-0.3,3-0.4,4.5l-0.1,1.1V32l-0.1,2.3c0,1.5-0.1,3-0.1,4.5s0.1,3,0.1,4.5s0.1,3,0.1,4.5v1.1
		l0.1,1.1l0.2,2.2c0.1,1.5,0.3,2.9,0.4,4.4l0.2,2.2L189,61c0.5,2.9,0.8,5.8,1.4,8.6c0.6,2.8,1.2,5.6,1.8,8.4
		c0.7,2.7,1.5,5.4,2.3,8.1c0.2,0.7,0.4,1.3,0.6,2c0.2,0.7,0.5,1.3,0.7,1.9c0.5,1.3,0.9,2.6,1.4,3.9s0.9,2.6,1.4,3.8
		c0.5,1.2,1.1,2.5,1.6,3.7c1,2.4,2,4.9,3.2,7.1c1.2,2.3,2.3,4.6,3.5,6.8c1.2,2.2,2.5,4.3,3.7,6.4c0.3,0.5,0.6,1.1,0.9,1.6
		s0.7,1,1,1.5c0.7,1,1.3,2,2,2.9c0.6,1,1.3,1.9,1.9,2.9c0.6,1,1.4,1.8,2,2.7c1.3,1.8,2.7,3.5,3.9,5.2c1.3,1.7,2.7,3.2,4,4.8
		c1.3,1.5,2.5,3.1,3.9,4.4c1.3,1.4,2.6,2.7,3.8,4c0.6,0.6,1.2,1.3,1.8,1.9c0.6,0.6,1.2,1.2,1.8,1.7c1.2,1.1,2.4,2.2,3.5,3.2
		c0.6,0.5,1.1,1,1.6,1.5c0.6,0.5,1.1,0.9,1.6,1.3c2.1,1.7,4,3.3,5.7,4.7c1.7,1.3,3.2,2.4,4.4,3.2c2.3,1.5,3.6,2.5,3.6,2.5
		S256.5,170.9,254,169.5z M204.7,38.1c0-73.6,59.9-133.5,133.5-133.5c35.6,0,69.2,13.9,94.4,39.1c25.3,25.3,39.2,58.8,39.2,94.4
		c0,73.6-60,133.5-133.6,133.5S204.7,111.7,204.7,38.1z M477.1,119.2c-1.2,2.3-2.8,4.3-4.2,6.4c-0.7,1-1.4,2.1-2.1,3.1
		s-1.5,2-2.3,2.9c-0.8,1-1.5,1.9-2.3,2.9c-0.8,0.9-1.5,1.9-2.3,2.7c-1.6,1.7-3.2,3.4-4.7,5.1c-0.7,0.8-1.6,1.6-2.3,2.3
		c-0.8,0.7-1.6,1.5-2.3,2.2c-1.6,1.4-3,2.9-4.5,4.1c-3,2.5-5.8,4.7-8.4,6.5c-2.6,1.8-4.8,3.4-6.8,4.4c-1.9,1.2-3.5,2-4.6,2.6
		c-1.1,0.6-1.6,0.9-1.6,0.9s0.4-0.5,1.3-1.3c0.9-0.8,2.1-2.1,3.7-3.7c1.6-1.5,3.4-3.6,5.5-5.8c2.2-2.2,4.4-4.9,6.9-7.7
		c1.3-1.4,2.5-2.9,3.7-4.5c0.6-0.8,1.3-1.6,1.9-2.4c0.7-0.8,1.3-1.6,1.9-2.5c1.3-1.7,2.6-3.5,3.9-5.3s2.5-3.7,3.8-5.7
		c0.6-1,1.3-1.9,1.9-2.9c0.6-1,1.2-2,1.8-3c1.2-2.1,2.5-4.1,3.6-6.2c1.1-2.1,2.3-4.3,3.5-6.4c1.1-2.2,2.1-4.4,3.2-6.6
		c2-4.5,4-9,5.6-13.6c0.4-1.1,0.8-2.3,1.3-3.4c0.4-1.1,0.7-2.3,1.1-3.4c0.4-1.1,0.7-2.3,1.1-3.4c0.3-1.1,0.8-2.2,1-3.4
		c0.6-2.2,1.2-4.5,1.8-6.6c0.6-2.2,0.9-4.3,1.4-6.4c0.2-1,0.5-2.1,0.7-3.1c0.3-1,0.3-2,0.5-3c0.3-2,0.7-3.9,1-5.7
		c0.1-0.5,0.2-0.9,0.2-1.4c0.1-0.5,0.1-0.9,0.2-1.4c0.1-0.9,0.2-1.8,0.3-2.7c0.2-1.7,0.4-3.4,0.6-4.9c0.4-3,0.6-5.7,0.8-7.9
		c0.3-4.5,0.5-7.1,0.5-7.1s0.2,0.6,0.4,1.8c0.3,1.2,0.7,2.9,1,5.1c0.4,2.2,0.8,4.9,1.1,8.1c0.1,1.6,0.2,3.2,0.3,5
		c0.1,0.9,0.1,1.8,0.2,2.7c0,0.5,0,0.9,0.1,1.4c0,0.5,0,1,0,1.4c-0.1,3.9,0,8.2-0.6,12.7c-0.1,1.1-0.2,2.2-0.3,3.4
		c-0.1,1.1-0.2,2.3-0.4,3.5c-0.4,2.3-0.8,4.7-1.2,7.1c-0.4,2.4-1.1,4.8-1.7,7.3c-0.3,1.2-0.6,2.5-1,3.7c-0.4,1.2-0.8,2.4-1.2,3.7
		c-1.5,5-3.6,9.8-5.6,14.6c-1.2,2.4-2.3,4.7-3.5,7S478.4,116.9,477.1,119.2z"/>
	<g id="XMLID_1384_">
		<path id="XMLID_1802_" class="st0" d="M254.2,174c-14.6,0-26.4-11.8-26.4-26.4s11.8-26.4,26.4-26.4s26.4,11.8,26.4,26.4
			C280.6,162.2,268.8,174,254.2,174z"/>
		<path id="XMLID_1801_" class="st0" d="M334.8,121.2c-14.6,0-26.4-11.8-26.4-26.4s11.8-26.4,26.4-26.4c14.6,0,26.4,11.8,26.4,26.4
			C361.3,109.4,349.3,121.2,334.8,121.2z"/>
		<path id="XMLID_1807_" class="st0" d="M338.3,26.3c-14.6,0-26.4-11.8-26.4-26.4c0-14.6,11.8-26.4,26.4-26.4
			c14.6,0,26.4,11.8,26.4,26.4C364.8,14.5,352.9,26.3,338.3,26.3z"/>
		<path id="XMLID_1808_" class="st0" d="M412.8-45c-14.6,0-26.4-11.8-26.4-26.4s11.8-26.4,26.4-26.4c14.6,0,26.4,11.8,26.4,26.4
			C439.3-56.8,427.4-45,412.8-45z"/>
		<g id="XMLID_1806_">
			<polygon id="XMLID_1190_" class="st0" points="259.8,156 248.7,139.3 326.3,88.5 327,-5.2 408.6,-78.8 422,-64 347,3.8 
				346.1,99.3 			"/>
		</g>
	</g>
</g>
</svg>
