<?xml version="1.0" encoding="utf-8"?>
<!-- Generator: Adobe Illustrator 19.0.0, SVG Export Plug-In . SVG Version: 6.00 Build 0)  -->
<svg version="1.1" id="Layer_1" xmlns="http://www.w3.org/2000/svg" xmlns:xlink="http://www.w3.org/1999/xlink" x="0px" y="0px"
	 viewBox="195 -150 590.9 500" style="enable-background:new 195 -150 590.9 500;" xml:space="preserve">
<style type="text/css">
	.st0{fill:#FFFFFF;}
</style>
<g>
	<path class="st0" d="M628.8,208.6L575,155.1l1.8-3.3c21.6-39.1,14.7-88.4-16.9-120c-19-18.9-44.3-29.4-71.2-29.4
		c-26.9,0-52.2,10.4-71.2,29.4c-39.2,39.3-39.2,103.2,0,142.4c15.6,15.6,35.4,25.5,57.2,28.5c21.1,2.9,43-1,61.7-11l3.3-1.8l54,53.8
		c9.7,9.7,25.4,9.7,35.1,0C638.5,234.1,638.5,218.3,628.8,208.6z M492.1,178.8c-1.3,0.2-3.3,0.5-5.9,0.7c-1.3,0-2.7,0.1-4.2,0.1
		c-0.8,0-1.6,0-2.4-0.1c-0.8,0-1.7-0.1-2.6-0.2c-3.6-0.2-7.6-0.9-11.9-1.9c-4.3-1.1-8.9-2.7-13.5-4.9c-4.6-2.3-9.3-5.1-13.7-8.7
		c-4.4-3.5-8.6-7.6-12.2-12.3c-3.7-4.7-6.9-9.9-9.4-15.4s-4.3-11.4-5.4-17.2c-0.3-1.5-0.5-2.9-0.7-4.4c-0.1-1.5-0.3-2.9-0.4-4.4
		c-0.2-2.9-0.2-5.8-0.1-8.6c0.3-5.6,1.2-11,2.5-16c1.4-5,3.2-9.5,5.2-13.4c2-4,4.2-7.4,6.4-10.2c1-1.5,2.1-2.7,3.1-3.9
		c1-1.2,2-2.2,2.9-3.1c1.8-1.8,3.3-3.1,4.4-4c0.6-0.9,1.2-1.3,1.2-1.3s-0.4,0.6-1.2,1.7c-0.4,0.5-0.9,1.2-1.5,2
		c-0.5,0.8-1.2,1.7-1.9,2.7c-0.7,1.1-1.4,2.2-2.2,3.5c-0.7,1.3-1.6,2.7-2.3,4.2c-1.6,3-3.1,6.6-4.5,10.5c-1.4,3.9-2.6,8.2-3.4,12.9
		c-0.8,4.6-1.2,9.6-1.2,14.7c0.1,5.1,0.6,10.3,1.8,15.5c1.2,5.2,2.8,10.3,5.1,15.2c2.2,4.9,5,9.5,8.1,13.8l1.2,1.6
		c0.4,0.5,0.8,1,1.3,1.5l1.2,1.5l1.3,1.5l0.7,0.7l0.3,0.4l0.1,0.1c0,0,0,0,0,0c0,0,0,0,0,0l0,0l0.2,0.2c0.5,0.5,1,1,1.5,1.4
		c0.5,0.5,1,1,1.4,1.4c0.5,0.4,0.9,0.8,1.4,1.2c3.7,3.3,7.7,6.3,11.7,8.8c4,2.4,8,4.4,11.9,5.9c1,0.4,1.9,0.7,2.9,1.1
		c0.9,0.3,1.9,0.7,2.8,0.9c0.9,0.3,1.8,0.6,2.7,0.8c0.9,0.2,1.7,0.4,2.6,0.7c1.7,0.5,3.2,0.7,4.7,1c1.5,0.2,2.8,0.5,4.1,0.7
		c1.2,0.1,2.3,0.3,3.3,0.4c1,0.1,1.8,0.2,2.5,0.2c1.3,0.1,2.1,0.2,2.1,0.2S493.4,178.7,492.1,178.8z M525,139.3
		c-20,19.9-52.4,19.9-72.3,0c-19.9-20-19.9-52.4,0-72.3C472.6,47,505,47,525,67c9.6,9.6,14.9,22.4,14.9,36.1
		C539.9,116.8,534.6,129.6,525,139.3z M566.6,94.8c0,1-0.1,2-0.2,2.9c-0.1,0.9-0.2,1.8-0.3,2.6c-0.3,1.7-0.5,3.1-0.8,4.2
		c-0.3,1.1-0.6,2-0.7,2.6c-0.2,0.7-0.3,1-0.3,1s-0.1-0.3-0.2-1c-0.1-0.6-0.3-1.5-0.5-2.7c-0.2-1.1-0.5-2.5-0.9-4
		c-0.2-0.8-0.4-1.6-0.6-2.5c-0.2-0.9-0.4-1.8-0.7-2.7c-0.3-0.9-0.5-1.9-0.8-2.9s-0.6-2-0.9-3s-0.7-2.1-1-3.2s-0.8-2.1-1.2-3.3
		c-0.8-2.2-1.7-4.4-2.7-6.6c-0.5-1.1-1-2.2-1.6-3.3c-0.5-1.1-1.1-2.2-1.7-3.3c-0.3-0.5-0.6-1.1-0.9-1.6l-0.9-1.6l-0.9-1.6
		c-0.3-0.5-0.7-1-1-1.5c-0.6-1-1.3-2.1-2-3c-0.7-1-1.3-2-2-2.9c-1.3-1.9-2.8-3.7-4.1-5.4c-0.7-0.8-1.4-1.7-2-2.5
		c-0.7-0.8-1.3-1.5-2-2.3c-2.5-2.9-4.8-5.2-6.4-6.9c-0.8-0.8-1.5-1.5-1.9-1.9c-0.4-0.5-0.7-0.7-0.7-0.7s1.3,0.3,3.6,1.1
		c2.2,0.8,5.4,2.2,8.8,4.4c0.9,0.5,1.8,1.2,2.7,1.8c0.9,0.6,1.9,1.4,2.7,2.1c1.8,1.6,3.7,3.2,5.5,5.1c0.9,0.9,1.8,1.9,2.6,3
		c0.4,0.5,0.9,1,1.3,1.6c0.4,0.5,0.8,1.1,1.2,1.7s0.8,1.1,1.2,1.7c0.4,0.6,0.7,1.2,1.1,1.8c0.7,1.2,1.5,2.4,2.1,3.6
		c0.6,1.2,1.3,2.5,1.8,3.7c0.6,1.3,1.1,2.5,1.6,3.8c0.5,1.3,0.9,2.6,1.3,3.9c0.4,1.3,0.8,2.5,1,3.8c0.6,2.5,0.9,5,1.2,7.4
		c0.1,1.2,0.2,2.3,0.2,3.4C566.6,92.7,566.6,93.8,566.6,94.8z"/>
	<g id="XMLID_799_">
		<path id="XMLID_947_" class="st0" d="M773.5,69.1C739,29.6,696.6-4.7,647.4-33.3c-52.3-30.3-103.5-45-156.6-45c-0.2,0-0.4,0-0.5,0
			c-29.7,0-58.6,4.5-85.8,13.5C333.6-41.5,270.1,1.1,210.3,65.6c-20.3,21.9-20.4,46.1-0.3,68.2c43.7,48.1,94.3,86.2,150.2,113.2
			c43.1,20.8,86.6,31.2,129.9,31.2c28,0,55.9-4.4,83.7-13.1c1.6-0.5,3.2-1,4.8-1.6c-0.8-0.7-1.6-1.5-2.4-2.2l-38.4-38.2
			c-51.7,11.4-102.9,4.4-155.9-21.1c-50.2-24.2-95.6-58.5-135-101.8c-0.1-0.1-0.3-0.3-0.4-0.4c0.1-0.1,0.2-0.3,0.4-0.4
			C300.7,41.3,357.4,3.1,420-17.5c22.2-7.3,45.9-11,70.3-11c0.2,0,0.3,0,0.5,0l0,0c44,0,87.1,12.6,131.6,38.3
			c43.5,25.2,81,55.4,111.6,89.8c-31.1,34-63.2,61.1-96.9,81.9l9.4,9.3c9.3,9.3,14.4,21.5,14.6,34.5c39.7-24.1,77.2-55.9,113.2-95.8
			C790.1,112.1,789.8,87.8,773.5,69.1z"/>
	</g>
</g>
</svg>
