<?xml version="1.0" encoding="utf-8"?>
<!-- Generator: Adobe Illustrator 19.0.0, SVG Export Plug-In . SVG Version: 6.00 Build 0)  -->
<svg version="1.1" id="Layer_1" xmlns="http://www.w3.org/2000/svg" xmlns:xlink="http://www.w3.org/1999/xlink" x="0px" y="0px"
	 viewBox="150 -150 500 500" style="enable-background:new 150 -150 500 500;" xml:space="preserve">
<style type="text/css">
	.st0{fill:#FFFFFF;}
</style>
<g>
	<path class="st0" d="M400-148.9L184.5-24.4v248.9l50,29.1V33.4L375,114.4v220l25,14.4l25-14.4v-220l140.5-81.1v220l50-28.8V-24.4
		L400-148.9z M323,57.6c-0.7-0.2-1.8-0.5-3-0.9c-2.6-0.8-6.3-2.1-10.5-3.9c-4.3-1.7-9.2-3.9-14.3-6.5c-1.3-0.6-2.6-1.3-3.9-2
		c-1.3-0.7-2.6-1.4-4-2.1c-2.7-1.4-5.3-2.9-8-4.4c-2.6-1.5-5.3-3.1-7.8-4.7c-1.3-0.8-2.5-1.6-3.8-2.4c-1.2-0.8-2.5-1.6-3.7-2.4
		c-4.8-3.2-9.1-6.3-12.8-9.1c-3.7-2.8-6.6-5.3-8.7-7.2c-1-0.9-1.8-1.7-2.3-2.2s-0.8-0.8-0.8-0.8s0.4,0.1,1.1,0.3s1.8,0.5,3,0.9
		c2.6,0.8,6.3,2.1,10.5,3.9c4.3,1.7,9.2,3.9,14.3,6.5c1.3,0.6,2.6,1.3,3.9,2s2.6,1.4,4,2.1c2.7,1.4,5.3,2.9,8,4.4
		c2.6,1.5,5.3,3.1,7.8,4.7c1.3,0.8,2.5,1.6,3.8,2.4c1.2,0.8,2.5,1.6,3.7,2.4c4.8,3.2,9.1,6.3,12.8,9.1c3.7,2.8,6.6,5.3,8.7,7.2
		c1,0.9,1.8,1.7,2.3,2.2s0.8,0.8,0.8,0.8S323.7,57.9,323,57.6z M400,71.1L259.5-9.9L400-91L540.5-9.9L400,71.1z M593.3,140.1
		c0,2.6-0.1,5.3-0.2,7.8c-0.1,2.6-0.1,5.1-0.2,7.6c-0.4,10-0.9,19.4-1.5,27.5c-0.3,4-0.6,7.7-1,11c-0.3,3.3-0.7,6.1-0.9,8.5
		c-0.3,2.3-0.5,4.2-0.7,5.4c-0.2,1.3-0.3,1.9-0.3,1.9s-0.1-0.7-0.3-1.9c-0.2-1.3-0.5-3.1-0.7-5.4c-0.3-2.3-0.6-5.2-0.9-8.5
		s-0.6-6.9-1-11c-0.6-8-1.2-17.4-1.5-27.5c-0.1-2.5-0.2-5.1-0.2-7.6c-0.1-2.6-0.1-5.2-0.2-7.8c-0.1-5.3-0.1-10.6-0.1-16
		c0-5.4,0-10.7,0.2-16c0-2.6,0.1-5.3,0.2-7.8c0.1-2.6,0.1-5.1,0.2-7.6c0.4-10,0.9-19.4,1.5-27.5c0.3-4,0.6-7.7,1-11
		c0.3-3.3,0.7-6.1,0.9-8.5c0.3-2.3,0.5-4.2,0.7-5.4c0-1.2,0.1-1.9,0.1-1.9s0.1,0.7,0.3,1.9c0.2,1.3,0.4,3.1,0.7,5.4
		c0.3,2.3,0.6,5.2,0.9,8.5c0.3,3.3,0.6,6.9,1,11c0.6,8,1.2,17.4,1.5,27.5c0.1,2.5,0.2,5.1,0.2,7.6c0.1,2.6,0.1,5.2,0.2,7.8
		c0.1,5.3,0.1,10.6,0.2,16C593.4,129.5,593.4,134.9,593.3,140.1z"/>
	<polygon id="XMLID_503_" class="st0" points="544.3,266.1 509.6,286.1 509.8,227.8 544.5,207.8 	"/>
	<polygon id="XMLID_506_" class="st0" points="485.6,299.9 450.9,319.9 451.2,261.7 485.8,241.7 	"/>
	<polygon id="XMLID_699_" class="st0" points="348.9,319.4 314.2,299.4 314.2,241.7 348.9,261.7 	"/>
	<polygon id="XMLID_700_" class="st0" points="287.3,283.4 252.7,263.4 252.7,205.6 287.3,225.6 	"/>
</g>
</svg>
