<?xml version="1.0" encoding="utf-8"?>
<!-- Generator: Adobe Illustrator 19.0.0, SVG Export Plug-In . SVG Version: 6.00 Build 0)  -->
<svg version="1.1" id="Layer_1" xmlns="http://www.w3.org/2000/svg" xmlns:xlink="http://www.w3.org/1999/xlink" x="0px" y="0px"
	 viewBox="150 -150 500 500" style="enable-background:new 150 -150 500 500;" xml:space="preserve">
<style type="text/css">
	.st0{fill:#FFFFFF;}
</style>
<path class="st0" d="M471.2-115.5c-19-19-44.3-29.5-71.1-29.5c-55.5,0-100.7,45.2-100.7,100.5c0,22.1,7,43,20.3,60.6
	C332.5,33.2,350.8,45.9,371,52l3.6,1.1v267.1c0,13.7,11.1,24.8,24.8,24.8c13.6,0,24.8-11.1,24.7-24.9V53.4l3.6-1
	c42.9-12.4,72.9-52.2,72.9-96.8C500.7-71.2,490.2-96.5,471.2-115.5z M348.6,11.3c-1.1-0.8-2.7-2-4.6-3.7c-0.9-0.9-2-1.8-3.1-2.9
	c-0.5-0.6-1.1-1.1-1.7-1.7c-0.6-0.6-1.2-1.2-1.7-1.9c-2.4-2.7-4.8-6-7.1-9.8c-2.3-3.8-4.4-8.2-6.1-13.1c-1.7-4.9-2.9-10.1-3.6-15.9
	c-0.6-5.5-0.7-11.5,0-17.4c0.7-5.9,2.1-11.9,4.3-17.5c2.2-5.7,5-11.1,8.4-16c0.8-1.2,1.7-2.4,2.6-3.6c0.9-1.1,1.8-2.3,2.8-3.4
	c1.9-2.2,3.9-4.3,6-6.1c4.2-3.8,8.6-7,13.1-9.5s8.9-4.4,13.2-5.8c4.2-1.4,8.2-2.2,11.8-2.7c1.8-0.3,3.4-0.4,5-0.5
	c1.5-0.1,3-0.1,4.2-0.2c2.6,0,4.5,0.1,5.9,0.3c1.4,0.1,2.1,0.1,2.1,0.1s-0.7,0.1-2,0.3c-0.7,0.1-1.5,0.2-2.5,0.4s-2,0.4-3.3,0.6
	c-1.2,0.3-2.6,0.6-4,0.9c-1.4,0.4-3,0.8-4.6,1.3c-3.3,1-6.8,2.4-10.6,4.2c-3.7,1.8-7.6,4-11.5,6.7c-3.9,2.7-7.6,5.9-11.2,9.5
	c-3.5,3.7-6.9,7.7-9.7,12.2c-2.8,4.5-5.3,9.3-7.2,14.3c-1.9,5-3.2,10.3-4,15.5l-0.3,2c-0.1,0.7-0.1,1.3-0.2,2
	c-0.1,0.7-0.1,1.3-0.2,2c0,0.7-0.1,1.3-0.1,2v1v0.5v0.1v0v0.1v0.2c0,0.7,0,1.4,0,2.1c0,0.7,0,1.4,0,2c0,0.6,0.1,1.2,0.1,1.9
	c0.3,5,1,9.9,2.1,14.5c1.1,4.6,2.6,8.8,4.2,12.6c0.4,1,0.8,1.9,1.3,2.8c0.4,0.9,0.8,1.8,1.3,2.6c0.4,0.8,0.9,1.7,1.3,2.5
	c0.5,0.8,0.9,1.5,1.3,2.3c0.8,1.5,1.8,2.8,2.6,4c0.9,1.2,1.7,2.3,2.4,3.3c0.8,1,1.5,1.8,2.1,2.6c0.6,0.8,1.2,1.4,1.6,1.9
	c0.9,1,1.3,1.6,1.3,1.6S349.7,12.1,348.6,11.3z M400,6.8c-28.2,0-51.1-22.9-51.1-51.1c0-28.2,22.9-51.1,51.1-51.1
	s51.1,22.9,51.1,51.1c0,13.6-5.3,26.4-15,36.1C426.5,1.5,413.7,6.8,400,6.8z M478.8-33.3c-0.1,0.7-0.1,1.3-0.2,2
	c-0.1,0.7-0.2,1.3-0.3,2c-0.1,0.7-0.2,1.4-0.3,2c-0.1,0.7-0.3,1.3-0.5,2c-0.3,1.3-0.6,2.7-1.1,4c-0.4,1.3-0.8,2.7-1.4,3.9
	c-0.5,1.3-1,2.6-1.6,3.8c-0.6,1.2-1.1,2.5-1.8,3.6c-0.7,1.2-1.3,2.3-2,3.4c-1.4,2.2-2.9,4.2-4.4,6c-0.8,0.9-1.5,1.8-2.3,2.6
	c-0.8,0.8-1.5,1.5-2.3,2.3c-0.7,0.7-1.5,1.4-2.2,2c-0.7,0.6-1.4,1.2-2.1,1.7c-1.4,1-2.6,1.8-3.6,2.4c-1,0.6-1.8,1-2.4,1.3
	c-0.2,0.7-0.5,0.8-0.5,0.8s0.2-0.3,0.5-0.8c0.4-0.5,0.8-1.3,1.5-2.3c0.6-1,1.4-2.1,2.2-3.5c0.4-0.7,0.9-1.4,1.3-2.2
	c0.5-0.7,1-1.5,1.4-2.4c0.5-0.8,1-1.7,1.5-2.6c0.5-0.9,1-1.8,1.5-2.8s1-2,1.5-3s1-2.1,1.5-3.1c1-2.1,1.9-4.3,2.8-6.6
	c0.5-1.1,0.8-2.3,1.2-3.5c0.4-1.1,0.8-2.3,1.1-3.5c0.2-0.6,0.4-1.2,0.6-1.8l0.5-1.8l0.5-1.8c0.1-0.6,0.3-1.2,0.4-1.8
	c0.3-1.2,0.5-2.4,0.8-3.5c0.2-1.2,0.5-2.3,0.6-3.5c0.4-2.3,0.6-4.6,0.9-6.7c0.1-1.1,0.2-2.2,0.3-3.2c0.1-1,0.2-2,0.2-3
	c0.2-3.8,0.3-7.1,0.3-9.4c0-1.2,0-2.1,0-2.7c0-0.6,0-1,0-1s0.7,1.2,1.7,3.3c1,2.2,2.2,5.4,3.1,9.4c0.2,1,0.4,2.1,0.6,3.2
	c0.2,1.1,0.3,2.3,0.5,3.4c0.2,2.4,0.4,4.9,0.2,7.5C479-35.9,479-34.6,478.8-33.3z"/>
</svg>
