<?xml version="1.0" encoding="utf-8"?>
<!-- Generator: Adobe Illustrator 19.0.0, SVG Export Plug-In . SVG Version: 6.00 Build 0)  -->
<svg version="1.1" id="Layer_1" xmlns="http://www.w3.org/2000/svg" xmlns:xlink="http://www.w3.org/1999/xlink" x="0px" y="0px"
	 viewBox="150 -150 500 500" style="enable-background:new 150 -150 500 500;" xml:space="preserve">
<style type="text/css">
	.st0{fill:#FFFFFF;}
</style>
<g>
	<g id="XMLID_851_">
		<path id="XMLID_671_" class="st0" d="M399.8,183.8c-46.2,0-83.8-37.6-83.8-83.8s37.6-83.8,83.8-83.8s83.8,37.6,83.8,83.8
			c0,22.3-8.7,43.4-24.6,59.2C443,175,422,183.8,399.8,183.8L399.8,183.8z M399.8,65.8c-18.9,0-34.2,15.3-34.2,34.2
			c0,9.1,3.6,17.7,10,24.2s15,10,24.2,10c18.9,0,34.2-15.3,34.2-34.2S418.5,65.8,399.8,65.8z"/>
	</g>
	<path class="st0" d="M620.3,74.9h-30.8l-0.7-4.2c-6.2-40.3-24.8-77-53.9-106c-29.1-29-65.8-47.6-106.1-53.8l-4.2-0.6v-30.5
		c0-13.7-11.1-24.8-24.8-24.8c-13.7,0-24.8,11.1-24.9,24.7v76.1c8.2-1.4,16.5-2.1,24.8-2.1c80.6,0,146.2,65.6,146.2,146.2
		s-65.6,146.2-146.2,146.2c-39,0-75.7-15.3-103.3-42.9c-27.7-27.6-42.9-64.3-42.9-103.3c0-43.1,18.8-83.7,51.8-111.6v-54.7
		c-50.8,28.9-85.9,79.7-94.7,137.5l-0.6,4.3h-30.2c-13.7,0-24.8,11.1-24.8,24.8c0,13.7,11.1,24.8,24.8,24.9h30.2l0.7,4.2
		c6.3,40.4,25,77.1,54,106.2c29.2,29,66,47.6,106.4,53.7l4.3,0.6v30.4c0,13.7,11.1,24.8,24.8,24.8s24.8-11.1,25-24.7v-30.6l4.2-0.7
		c40.3-6.3,76.9-25,105.9-54.1c29-29.1,47.6-65.8,53.7-106.1l0.6-4.3h30.7c13.7,0,24.8-11.1,24.8-24.8C645.1,86,634,74.9,620.3,74.9
		z M392,268.8c-3,0.1-7.4,0-13-0.3c-1.4-0.1-2.9-0.3-4.4-0.4c-1.5-0.2-3.2-0.2-4.9-0.5c-3.4-0.5-7-1-10.9-1.8
		c-1-0.2-1.9-0.4-2.9-0.6c-0.5-0.1-1-0.2-1.5-0.3s-1-0.3-1.5-0.4c-2-0.5-4.1-1.1-6.3-1.6c-4.2-1.3-8.7-2.7-13.2-4.5
		c-2.3-0.8-4.6-1.8-6.9-2.8c-1.2-0.5-2.3-1-3.5-1.5c-1.2-0.6-2.3-1.1-3.5-1.7c-1.2-0.6-2.4-1.2-3.6-1.8c-1.2-0.7-2.3-1.3-3.5-2
		c-1.2-0.7-2.4-1.3-3.6-2s-2.4-1.5-3.5-2.2c-9.5-5.9-19-13.1-27.8-21.7c-8.9-8.5-17-18.3-24.1-29.2c-7.1-10.8-13-22.6-17.4-35
		c-4.4-12.4-7.3-25.3-8.8-38.1c-0.4-3.2-0.6-6.5-0.8-9.7c0-0.8-0.1-1.6-0.1-2.4V106c0-1.5,0-3.1-0.1-4.6v-1.2v-0.4v-0.3v-0.6
		l0.1-2.4c0.1-1.6,0.1-3.1,0.2-4.7c0-1.6,0.2-3.1,0.4-4.6s0.3-3.1,0.5-4.6c1.4-12.2,4.1-23.8,7.7-34.4c3.6-10.6,8-20.3,12.9-28.7
		c4.9-8.4,10-15.8,15-21.8c1.2-1.6,2.5-3,3.7-4.4c1.2-1.4,2.4-2.7,3.5-4c2.4-2.4,4.6-4.6,6.6-6.6c2.1-1.9,3.9-3.6,5.6-5
		c1.6-1.5,3.1-2.5,4.3-3.5c2.2-1.7,3.5-2.7,3.5-2.7s-1.1,1.1-3.2,3.3c-0.5,0.5-1.1,1.1-1.8,1.8c-0.6,0.7-1.4,1.4-2.1,2.2
		c-1.4,1.6-3.1,3.5-5,5.5c-1.8,2.1-3.7,4.5-5.8,7.1c-1,1.3-2,2.7-3.1,4.2c-1.1,1.5-2.2,2.9-3.2,4.5c-1.1,1.6-2.2,3.3-3.3,5
		c-1.1,1.7-2.1,3.6-3.2,5.4c-0.5,0.9-1.1,1.9-1.7,2.8c-0.5,1-1,2-1.6,2.9c-1,2-2.2,4-3.2,6.1c-1,2.1-2,4.3-3,6.5s-1.9,4.6-2.8,6.9
		c-0.2,0.6-0.5,1.2-0.7,1.8c-0.2,0.6-0.4,1.2-0.6,1.8c-0.4,1.2-0.8,2.4-1.3,3.7c-0.4,1.2-0.9,2.5-1.3,3.7c-0.4,1.3-0.7,2.6-1.1,3.8
		c-3,10.3-5,21.4-6,33.1c-0.1,1.5-0.2,2.9-0.3,4.4c-0.1,1.5-0.2,2.9-0.2,4.4s0,3-0.1,4.4V99v0.6v0.3v0c0,0,0,0,0,0v0.1v1.2
		c0.1,1.5,0.1,3.1,0.2,4.6l0.1,2.3c0,0.8,0.1,1.5,0.2,2.2c0.3,3,0.4,5.9,0.9,9c1.5,12.1,4.4,24.2,8.5,35.9
		c4.1,11.7,9.7,22.8,16.2,33.1c3.2,5.2,6.8,10.1,10.4,14.8c1.9,2.3,3.8,4.6,5.7,6.8c1,1.1,2,2.2,3,3.3c1,1.1,2,2.2,3,3.2
		c8.2,8.3,16.8,15.6,25.7,21.7c1.1,0.8,2.2,1.5,3.3,2.3c1.1,0.7,2.2,1.4,3.3,2.1c1.1,0.7,2.2,1.4,3.3,2c1.1,0.6,2.2,1.3,3.3,1.9
		c1.1,0.6,2.2,1.2,3.3,1.9c1.1,0.6,2.2,1.1,3.3,1.7c2.2,1.1,4.3,2.2,6.5,3.1c1.1,0.5,2.1,1,3.2,1.4c0.5,0.2,1,0.5,1.6,0.7
		c0.5,0.2,1.1,0.4,1.6,0.6c2.1,0.8,4.2,1.6,6.2,2.4c2,0.7,4,1.4,5.9,2.1c0.5,0.2,1,0.3,1.4,0.5c0.5,0.1,1,0.3,1.4,0.4
		c1,0.3,1.9,0.5,2.8,0.8c3.7,1.2,7.2,1.9,10.4,2.7c1.6,0.4,3.2,0.7,4.7,1s2.9,0.6,4.3,0.8c2.8,0.4,5.2,0.8,7.3,1.1
		c0.5,0.1,1.1,0.2,1.5,0.2c0.5,0.1,1,0.1,1.4,0.1c0.9,0.1,1.7,0.2,2.5,0.3c3,0.3,4.6,0.5,4.6,0.5S395,268.7,392,268.8z M569.4,90.8
		c0,0.7,0,1.4-0.1,2.1c-0.1,0.6-0.1,1.3-0.2,1.8c-0.1,1.1-0.2,2.1-0.3,2.9c0.2,1.6,0.1,2.4,0.1,2.4s-0.1-0.8-0.3-2.4
		c-0.2-1.5-0.4-3.8-0.9-6.7c-0.2-1.4-0.5-3-0.7-4.7c-0.3-1.7-0.7-3.6-1-5.5c-0.8-3.9-1.8-8.3-3-13.1c-0.6-2.4-1.4-4.8-2.1-7.3
		c-0.8-2.5-1.6-5.1-2.6-7.7c-0.5-1.3-1-2.6-1.4-4c-0.5-1.4-1.1-2.7-1.6-4c-1.1-2.7-2.3-5.4-3.5-8.2c-2.6-5.5-5.4-11.1-8.6-16.5
		c-0.8-1.4-1.6-2.7-2.5-4.1c-0.8-1.4-1.7-2.7-2.6-4.1c-0.9-1.3-1.8-2.7-2.7-4l-2.8-3.9c-3.8-5.2-7.8-10.2-12.1-14.9
		c-4.3-4.7-8.6-9.2-13.1-13.3c-4.5-4.1-8.9-7.9-13.4-11.2c-4.4-3.4-8.8-6.4-12.9-9.1c-2.1-1.3-4.1-2.5-6-3.7
		c-1.9-1.1-3.8-2.2-5.5-3.2c-1.8-1-3.4-1.8-4.9-2.7c-1.5-0.8-3-1.5-4.3-2.2c-2.6-1.3-4.7-2.3-6.1-3c-1.4-0.7-2.2-1.1-2.2-1.1
		s0.8,0.2,2.3,0.5c1.5,0.4,3.8,0.8,6.6,1.6c1.4,0.4,3,0.8,4.7,1.4c1.7,0.5,3.5,1.2,5.4,1.9c1.9,0.7,3.9,1.6,6.1,2.4
		c2.1,0.9,4.3,1.9,6.6,3c2.2,1.2,4.6,2.3,7,3.7c2.4,1.4,4.9,2.7,7.3,4.3c5,3.1,9.9,6.7,14.9,10.7c1.2,1,2.5,2.1,3.7,3.1
		c1.2,1.1,2.4,2.2,3.6,3.3c0.6,0.6,1.2,1.1,1.8,1.7l1.8,1.7c1.2,1.2,2.4,2.3,3.5,3.6c4.7,4.8,9,10.2,13,15.6
		c4,5.5,7.6,11.3,10.9,17.2c0.8,1.5,1.6,3,2.3,4.4c0.7,1.5,1.4,3,2.1,4.5c0.3,0.7,0.7,1.5,1,2.2c0.3,0.8,0.6,1.5,1,2.2
		c0.6,1.5,1.3,3,1.8,4.5c1.1,3,2.2,5.9,3.1,8.9c1,2.9,1.7,5.8,2.5,8.6c0.4,1.4,0.7,2.8,1,4.2c0.3,1.4,0.6,2.7,0.9,4.1
		c0.2,1.3,0.5,2.7,0.7,4c0.2,1.3,0.5,2.6,0.6,3.8c0.7,5,1,9.7,1.2,13.7c0,2.1,0.1,4,0.1,5.7C569.5,87.7,569.5,89.3,569.4,90.8z"/>
</g>
</svg>
