<?xml version="1.0" encoding="utf-8"?>
<!-- Generator: Adobe Illustrator 19.0.0, SVG Export Plug-In . SVG Version: 6.00 Build 0)  -->
<svg version="1.1" id="Layer_1" xmlns="http://www.w3.org/2000/svg" xmlns:xlink="http://www.w3.org/1999/xlink" x="0px" y="0px"
	 viewBox="150 -150 500 500" style="enable-background:new 150 -150 500 500;" xml:space="preserve">
<style type="text/css">
	.st0{fill:#FFFFFF;}
</style>
<g>
	<g id="XMLID_770_">
		<g id="XMLID_1402_">
			<path id="XMLID_1406_" class="st0" d="M474.4,11c-13.7,0-24.8-11.1-24.8-24.8s11.1-24.8,24.8-24.8h40.2
				c13.7,0,24.8,11.1,24.8,24.8S528.2,11,514.6,11H474.4z"/>
		</g>
		<g id="XMLID_1401_">
			<path id="XMLID_1530_" class="st0" d="M474.4,72c-13.7,0-24.8-11.1-24.8-24.8s11.1-24.8,24.8-24.8h90.2
				c13.7,0,24.8,11.1,24.8,24.8S578.2,72,564.6,72H474.4z"/>
		</g>
		<g id="XMLID_1531_">
			<path id="XMLID_1532_" class="st0" d="M474.4,133.1c-13.7,0-24.8-11.1-24.8-24.8s11.1-24.8,24.8-24.8h130.2
				c13.7,0,24.8,11.1,24.8,24.8c0,13.7-11.1,24.8-24.8,24.8H474.4z"/>
		</g>
	</g>
	<path class="st0" d="M353.7-47.8c-47.4,0-85.9,38.5-85.9,85.9c0,47.4,38.6,85.9,85.9,85.9c22.9,0,44.5-9,60.7-25.2
		c16.3-16.2,25.2-37.8,25.2-60.7C439.6-9.3,401-47.8,353.7-47.8z M317.9,94.5c-0.6-0.3-1.3-0.6-2.1-1c-0.8-0.4-1.8-1-2.8-1.6
		c-2.1-1.2-4.6-2.9-7.2-5c-0.7-0.5-1.3-1.1-2-1.7c-0.7-0.6-1.4-1.2-2.1-1.9s-1.4-1.4-2.1-2.1s-1.4-1.5-2.1-2.3
		c-2.8-3.2-5.4-7.1-7.7-11.4c-2.3-4.4-4.3-9.2-5.5-14.5c-1.3-5.3-2-10.9-1.9-16.6c0-0.7,0-1.3,0-2l0.1-2.2c0.1-1.5,0.3-2.9,0.4-4.4
		c0.2-1.4,0.5-2.9,0.7-4.3c0.3-1.4,0.6-2.9,1-4.3c1.6-5.6,3.8-11.1,6.7-16c1.4-2.5,3-4.8,4.7-7c0.8-1.1,1.8-2.2,2.6-3.2
		c0.9-1,1.8-2,2.8-3c3.8-3.8,8-7.1,12.2-9.7s8.4-4.5,12.5-5.9c4-1.4,7.8-2.2,11.2-2.7c3.4-0.5,6.4-0.6,8.8-0.6s4.3,0.2,5.6,0.3
		c1.3,0.2,2,0.2,2,0.2s-0.7,0.1-1.9,0.3c-1.3,0.2-3.1,0.6-5.4,1.1c-1.1,0.3-2.4,0.6-3.8,1c-0.7,0.2-1.4,0.4-2.1,0.6
		c-0.7,0.2-1.5,0.5-2.2,0.8c-3,1.1-6.4,2.5-9.8,4.3c-6.9,3.6-14.2,9.1-20.4,16.3c-3.1,3.6-5.9,7.7-8.2,12c-2.4,4.3-4.2,9-5.6,13.9
		c-0.4,1.2-0.6,2.4-0.9,3.6c-0.2,1.2-0.5,2.5-0.7,3.7l-0.2,1.9c-0.1,0.6-0.2,1.2-0.2,1.8l-0.2,1.8c-0.1,0.6-0.1,1.3-0.1,2v1v0.5v0.1
		v0v0.1v0.1v1.8v1.8c0,0.6,0.1,1.2,0.1,1.8c0.1,2.4,0.5,4.8,0.8,7.2c0.8,4.7,2.1,9.1,3.7,13.2c1.6,4.1,3.5,7.9,5.5,11.2
		c1,1.7,2.1,3.2,3.1,4.7c1.1,1.4,2.1,2.8,3.1,4c2.1,2.5,4,4.6,5.7,6.2c0.9,0.8,1.6,1.5,2.3,2.2c0.7,0.6,1.3,1.1,1.8,1.5
		c1,0.8,1.6,1.2,1.6,1.2S319.1,95,317.9,94.5z M353.8,74.4c-9.7,0-18.8-3.8-25.7-10.7c-6.9-6.9-10.7-16-10.7-25.7
		c0-20,16.3-36.3,36.3-36.3c20.1,0,36.4,16.4,36.4,36.4C390.1,58.1,373.8,74.4,353.8,74.4z M425.4,40.4v1.1c0,0.4,0,0.8-0.1,1.2
		L425,45c-0.4,3.1-0.8,6.1-1.6,9.1c-0.7,2.9-1.8,5.8-2.9,8.4c-1.2,2.6-2.5,5.1-3.9,7.3c-0.7,1.1-1.4,2.2-2.2,3.1
		c-0.7,1-1.5,1.9-2.2,2.8c-0.7,0.9-1.5,1.7-2.2,2.4c-0.7,0.7-1.4,1.4-2.1,2c-1.3,1.2-2.6,2.2-3.7,3c-1,0.8-2,1.3-2.5,1.7
		c-0.6,0.4-0.9,0.5-0.9,0.5s0.2-0.3,0.5-0.9c0.3-0.6,0.8-1.5,1.4-2.6c0.6-1.1,1.4-2.4,2.1-4c0.2-0.4,0.4-0.8,0.6-1.2
		c0.2-0.4,0.4-0.8,0.6-1.3c0.4-0.9,0.9-1.7,1.3-2.7c0.4-1,0.9-1.9,1.3-3c0.2-0.5,0.4-1,0.6-1.6c0.2-0.5,0.4-1.1,0.6-1.6
		c0.9-2.2,1.6-4.5,2.3-6.9c0.3-1.2,0.7-2.4,1-3.7s0.6-2.5,0.8-3.8c0.5-2.6,0.9-5.2,1.1-7.8l0.2-1.9c0-0.3,0.1-0.6,0.1-1v-1.1v-1.1
		l0.1-0.9c0-0.7,0-1.3,0-2c0-0.7,0-1.3,0-2c0-0.7,0-1.3,0-1.9c0-1.3-0.2-2.6-0.2-3.8c-0.2-2.5-0.5-4.9-0.9-7.2
		c-0.4-2.3-0.8-4.5-1.3-6.5s-1-3.9-1.5-5.6c-0.2-0.8-0.5-1.6-0.7-2.3c-0.2-0.7-0.4-1.4-0.6-2c-0.4-1.2-0.7-2.2-0.9-2.8
		c-0.2-0.9-0.3-1.2-0.3-1.2s0.3,0.2,0.8,0.7s1.3,1.1,2.2,2.1c0.5,0.5,0.9,1,1.4,1.6c0.5,0.6,1,1.3,1.6,2c1.1,1.5,2.2,3.2,3.4,5.2
		c1.1,2,2.2,4.2,3.2,6.6c0.9,2.4,1.8,5.1,2.4,7.9c0.3,1.4,0.6,2.8,0.8,4.3c0.2,1.5,0.4,3,0.5,4.5c0,0.8,0.1,1.5,0.1,2.3v1.2V40.4z"
		/>
	<path id="XMLID_703_" class="st0" d="M444.8,144.1l-91.1,152.6L235.1,97.8l-0.1-0.2c-9.5-18.8-14.2-39.1-14.1-60.4
		c0.4-71.8,59.1-131,130.9-132c0.6,0,1.2,0,1.9,0c35.2,0,68.3,13.6,93.3,38.2c1.4,1.4,2.9,2.9,4.3,4.5h61.9
		c-8.3-14.7-18.7-28.2-30.9-40.3c-34.5-33.9-80.1-52.6-128.5-52.6c-0.9,0-1.8,0-2.6,0c-48,0.7-93.2,19.9-127.3,54.3
		C189.8-56.4,170.9-11,170.6,37c-0.2,29.3,6.8,58.5,20,84.5c0.2,0.5,0.5,1,0.8,1.4l117.3,196.6c9.5,16,26.4,25.5,45,25.5
		s35.4-9.5,45-25.5l104.7-175.4H444.8z"/>
</g>
</svg>
