<?xml version="1.0" encoding="utf-8"?>
<!-- Generator: Adobe Illustrator 19.0.0, SVG Export Plug-In . SVG Version: 6.00 Build 0)  -->
<svg version="1.1" id="Layer_1" xmlns="http://www.w3.org/2000/svg" xmlns:xlink="http://www.w3.org/1999/xlink" x="0px" y="0px"
	 viewBox="163 -150 525.2 500" style="enable-background:new 163 -150 525.2 500;" xml:space="preserve">
<style type="text/css">
	.st0{fill:#FFFFFF;}
</style>
<g>
	<g id="XMLID_667_">
		<path id="XMLID_750_" class="st0" d="M462.4-30.4c-13.7,0-24.8-11.1-24.8-24.8S448.8-80,462.4-80h114.9
			c13.7,0,24.8,11.1,24.8,24.8S591-30.4,577.3-30.4C577.3-30.4,462.4-30.4,462.4-30.4z"/>
	</g>
	<g id="XMLID_661_">
		<path id="XMLID_662_" class="st0" d="M519.9,27.1c-13.7,0-24.8-11.1-24.8-24.8v-114.9c0-13.7,11.1-24.8,24.8-24.8
			c13.7,0,24.8,11.1,24.8,24.8V2.3C544.8,16,533.6,27.1,519.9,27.1z"/>
	</g>
	<g id="XMLID_643_">
		<path id="XMLID_645_" class="st0" d="M297.7,107.7c-13.7,0-24.8-11.1-24.8-24.8s11.1-24.8,24.8-24.8h262.4
			c13.7,0,24.8,11.1,24.8,24.8s-11.1,24.8-24.8,24.8H297.7z"/>
	</g>
	<g id="XMLID_641_">
		<path id="XMLID_642_" class="st0" d="M297.7,180.9c-13.7,0-24.8-11.1-24.8-24.8s11.1-24.8,24.8-24.8h262.4
			c13.7,0,24.8,11.1,24.8,24.8s-11.1,24.8-24.8,24.8H297.7z"/>
	</g>
	<path class="st0" d="M645.3-36.3c-13.6,0-24.7,11.1-24.7,24.7v178.8c0,21.6-17.5,39.1-39.1,39.1H468.4c-5,0-9.9,1.4-14.2,4.2
		l-0.2,0.1l-0.2,0.1c-2.2,1.1-4.2,2.6-6,4.4l-62.6,62.6l-64.3-64.3c-4.7-4.6-10.9-7.2-17.5-7.2c-0.4,0-0.8,0-1.2,0h-0.2
		c0,0-0.6,0-0.8,0c-0.2,0-0.3,0-0.5,0h-30.9c-21.6,0-39.1-17.5-39.1-39.1V-47.4c0-21.6,17.5-39.1,39.1-39.1h126.6
		c13.6,0,24.7-11.1,24.7-24.7c0-13.6-11.1-24.7-24.7-24.7H269.6c-48.8,0-88.5,39.7-88.5,88.5v214.6c0,48.8,39.7,88.5,88.5,88.5h23.5
		l74.5,74.5c4.7,4.6,10.9,7.2,17.5,7.2c6.6,0,12.8-2.6,17.5-7.2l74.5-74.5h104.4c48.8,0,88.5-39.7,88.5-88.5V-11.6
		C670.1-25.2,658.9-36.3,645.3-36.3z M210.8,75.9c0,3.3-0.1,6.6-0.2,9.8c-0.1,3.2-0.1,6.4-0.2,9.6c-0.4,12.6-0.9,24.3-1.5,34.4
		c-0.3,5-0.6,9.7-1,13.7c-0.3,4.1-0.7,7.7-0.9,10.6c-0.3,2.9-0.5,5.2-0.7,6.8c0,1.5-0.1,2.4-0.1,2.4s-0.1-0.8-0.3-2.4
		c-0.2-1.6-0.4-3.9-0.7-6.8c-0.3-2.9-0.6-6.5-0.9-10.6c-0.3-4.1-0.6-8.7-1-13.7c-0.6-10.1-1.2-21.8-1.5-34.4
		c-0.1-3.1-0.2-6.3-0.2-9.6c-0.1-3.2-0.1-6.5-0.2-9.8c-0.1-6.6-0.1-13.3-0.2-20c0-6.7,0-13.4,0.1-20c0-3.3,0.1-6.6,0.2-9.8
		c0.1-3.2,0.1-6.4,0.2-9.6c0.4-12.6,0.9-24.3,1.5-34.4c0.3-5,0.6-9.7,1-13.7c0.3-4.1,0.7-7.7,0.9-10.6c0.3-2.9,0.5-5.2,0.7-6.8
		c0.2-1.6,0.3-2.4,0.3-2.4s0.1,0.8,0.3,2.4s0.5,3.9,0.7,6.8c0.3,2.9,0.6,6.5,0.9,10.6c0.3,4.1,0.6,8.7,1,13.7
		c0.6,10.1,1.2,21.8,1.5,34.4c0.1,3.1,0.2,6.3,0.2,9.6c0.1,3.2,0.1,6.5,0.2,9.8c0.1,6.6,0.1,13.3,0.1,20
		C211,62.6,211,69.3,210.8,75.9z M642.9,187.7v0.8c0,0.5,0,0.9,0,1.4c0,2.2-0.2,4.3-0.5,6.5c-0.4,2.1-0.9,4.3-1.6,6.5
		c-0.7,2.1-1.6,4.2-2.7,6.3c-2.2,4-5,7.9-8.5,11c-3.4,3.2-7.4,5.8-11.6,7.6c-4.2,1.8-8.7,2.9-13,3.2c-1.1,0.1-2.1,0.1-3.2,0.1
		c-1,0-2.1-0.1-3.1-0.1c-1.9-0.1-3.7-0.2-5.5-0.4c-3.6-0.3-7-0.5-10.1-0.8c-3.1-0.3-6-0.6-8.5-0.9s-4.7-0.6-6.6-0.8
		c-1.8-0.3-3.3-0.5-4.2-0.6c-1-0.2-1.5-0.2-1.5-0.2s0.5-0.1,1.5-0.2c1-0.1,2.4-0.3,4.2-0.6c1.8-0.2,4-0.5,6.6-0.8
		c2.5-0.3,5.4-0.6,8.5-0.9c3.1-0.3,6.5-0.6,10.1-0.8c1.8-0.1,3.6-0.2,5.5-0.4c1.8-0.2,3.5-0.3,5.2-0.7c3.4-0.7,6.8-1.9,10-3.6
		c1.6-0.9,3.1-1.8,4.6-2.8c1.5-1.1,2.9-2.2,4.2-3.5c5.3-5,9-11.6,10.6-18.3c0.4-1.7,0.7-3.4,0.9-4.9c0-0.5,0.1-0.9,0.1-1.4v-0.3
		v-0.2v-0.1v0v-0.6c0.1-0.9,0.1-1.8,0.2-2.7c0.3-3.6,0.6-7,0.9-10.1c0.3-3.1,0.7-6,1-8.5c0.3-2.5,0.7-4.7,1-6.6
		c0.8-3.8,1.3-5.9,1.3-5.9s0.5,2.1,1.1,5.7c0.3,1.8,0.6,4,1,6.6c0.3,2.5,0.7,5.4,1,8.5c0.3,3.1,0.6,6.5,0.9,10.1
		c0.1,0.9,0.1,1.8,0.2,2.7V187.7z"/>
</g>
</svg>
