<?xml version="1.0" encoding="utf-8"?>
<!-- Generator: Adobe Illustrator 19.0.0, SVG Export Plug-In . SVG Version: 6.00 Build 0)  -->
<svg version="1.1" id="Layer_1" xmlns="http://www.w3.org/2000/svg" xmlns:xlink="http://www.w3.org/1999/xlink" x="0px" y="0px"
	 viewBox="150 -150 500 500" style="enable-background:new 150 -150 500 500;" xml:space="preserve">
<style type="text/css">
	.st0{fill:none;}
	.st1{fill:#FFFFFF;}
</style>
<g id="XMLID_1201_">
	<path id="XMLID_1291_" class="st0" d="M-227.6,167.5"/>
</g>
<path class="st1" d="M621,161.8c1.9-11.6,2.8-23.5,2.8-35.6c0-96.4-61.3-178.6-147-209.8c-5.5-37.2-37.6-65.8-76.2-65.8
	c-38.7,0-70.7,28.7-76.2,65.8c-85.7,31.2-147,113.5-147,209.8c0,11.8,0.9,23.4,2.7,34.7c-17.3,14.1-28.3,35.6-28.3,59.5
	c0,42.4,34.5,76.9,76.9,76.9c8.4,0,16.6-1.4,24.2-3.9c39.4,34.8,91.1,56,147.7,56c56.4,0,108.1-21.1,147.4-55.7
	c7.4,2.3,15.2,3.6,23.3,3.6c42.4,0,76.9-34.5,76.9-76.9C648.2,196.9,637.6,175.9,621,161.8z M429.5-30.7c0.3-0.3,0.7-0.5,1-0.8
	s0.7-0.6,1-0.9c0.7-0.6,1.4-1.2,2.1-1.8c0.7-0.7,1.3-1.3,2-2c0.4-0.3,0.7-0.7,1-1.1c0.3-0.4,0.7-0.7,1-1.1l1-1.1
	c0.3-0.4,0.6-0.8,0.9-1.2c0.6-0.8,1.3-1.5,1.8-2.3c0.6-0.8,1.1-1.6,1.7-2.4c0.6-0.8,1-1.7,1.6-2.5c0.3-0.4,0.5-0.8,0.8-1.2
	c0.2-0.4,0.5-0.9,0.7-1.3c0.5-0.8,0.9-1.7,1.4-2.5c0.7-1.7,1.6-3.3,2.2-5c0.3-0.8,0.6-1.6,1-2.4c0.3-0.8,0.5-1.5,0.7-2.3
	c0.5-1.4,0.9-2.8,1.2-4c0.2-0.6,0.3-1.2,0.5-1.7c0.1-0.5,0.2-1,0.3-1.5c0.2-0.9,0.4-1.6,0.5-2.1c0.1-0.5,0.2-0.8,0.2-0.8
	s0,0.3,0.1,0.8c0.1,0.5,0.2,1.2,0.3,2.2c0.1,0.5,0.1,1,0.2,1.6c0,0.6,0,1.2,0.1,1.8c0,0.7,0,1.4,0,2.1c0,0.8-0.1,1.5-0.2,2.3
	c-0.1,0.8-0.2,1.7-0.3,2.6c-0.1,0.9-0.3,1.8-0.5,2.7c-0.3,1.9-1,3.8-1.6,5.7c-0.4,1-0.8,1.9-1.2,2.9c-0.2,0.5-0.4,1-0.7,1.5
	s-0.5,1-0.8,1.4c-0.5,0.9-1,2-1.7,2.9c-0.6,0.9-1.3,1.8-1.9,2.8c-0.7,0.9-1.4,1.7-2.1,2.6c-0.7,0.9-1.5,1.6-2.2,2.4
	c-1.5,1.6-3.2,2.9-4.8,4.2c-0.8,0.6-1.7,1.2-2.5,1.7s-1.6,1.1-2.5,1.5c-0.8,0.4-1.6,0.9-2.4,1.3s-1.6,0.7-2.4,1s-1.5,0.6-2.2,0.8
	s-1.4,0.4-2.1,0.6c-0.6,0.2-1.2,0.3-1.8,0.5c-0.6,0.1-1.1,0.2-1.5,0.3c-0.9,0.2-1.7,0.2-2.2,0.3c-0.3,0.2-0.5,0.2-0.5,0.2
	s0.2-0.1,0.7-0.4c0.4-0.3,1.1-0.7,1.9-1.1c0.4-0.2,0.9-0.5,1.3-0.8c0.5-0.3,1-0.6,1.5-1c0.5-0.3,1.1-0.7,1.7-1.1
	c0.6-0.4,1.2-0.8,1.8-1.3s1.3-0.9,1.9-1.4C428.1-29.6,428.8-30.1,429.5-30.7z M427.3-72.4c0,13-9.3,23.8-21.6,26.2c0,0,0,0-0.1,0
	c-0.5,0.1-1,0.2-1.4,0.2c-0.1,0-0.2,0-0.4,0c-0.4,0-0.8,0.1-1.2,0.1c-0.1,0-0.3,0-0.4,0c-0.5,0-1.1,0.1-1.6,0.1h0l0,0c0,0,0,0,0,0
	c-0.5,0-1.1,0-1.6-0.1c-0.1,0-0.3,0-0.4,0c-0.4,0-0.8-0.1-1.2-0.1c-0.1,0-0.2,0-0.4,0c-0.5-0.1-1-0.1-1.4-0.2c0,0,0,0-0.1,0
	c-12.3-2.4-21.6-13.2-21.6-26.2c0-13.7,10.4-25,23.7-26.5c0,0,0.1,0,0.1,0c0.4,0,0.8-0.1,1.2-0.1c0.1,0,0.2,0,0.2,0
	c0.5,0,0.9,0,1.4,0c0,0,0,0,0,0l0,0h0c0.5,0,1,0,1.4,0c0.1,0,0.2,0,0.2,0c0.4,0,0.8,0.1,1.2,0.1c0,0,0.1,0,0.1,0
	C416.9-97.4,427.3-86.1,427.3-72.4z M345.9-74.9c0-1,0.1-2,0.1-3c0.1-1,0.3-2,0.4-3c0.2-1,0.2-2,0.5-3c0.2-1,0.5-2,0.7-3
	c0.4-2,1.2-4,1.9-5.9c0.3-1,0.8-1.9,1.3-2.9l1.4-2.8c0.5-0.9,1.1-1.8,1.6-2.7c0.6-0.9,1.1-1.8,1.7-2.6c2.4-3.3,5.1-6.4,8-8.9
	c1.5-1.3,2.9-2.5,4.5-3.5c0.8-0.5,1.5-1,2.3-1.6c0.7-0.5,1.6-0.9,2.3-1.3c0.8-0.4,1.5-0.8,2.3-1.2c0.7-0.4,1.6-0.7,2.3-1
	c1.5-0.6,3-1.3,4.5-1.7c1.5-0.4,2.9-0.9,4.2-1.2c1.4-0.2,2.7-0.5,3.9-0.7c0.3-0.1,0.6-0.1,0.9-0.2c0.3,0,0.6,0,0.9-0.1
	c0.6,0,1.1-0.1,1.7-0.1c1.1-0.1,2-0.1,2.9-0.2c1.7,0.1,3.1,0.2,4,0.2c0.6-0.1,1.1-0.1,1.1-0.1s-0.5,0.1-1.4,0.2
	c-0.9,0.1-2.3,0.4-4,0.6c-0.8,0.2-1.7,0.4-2.7,0.7c-0.5,0.1-1,0.2-1.5,0.4c-0.3,0.1-0.5,0.1-0.8,0.2c-0.3,0.1-0.5,0.2-0.8,0.3
	c-1.1,0.4-2.3,0.8-3.5,1.2c-1.2,0.5-2.5,1.1-3.8,1.6c-1.3,0.5-2.6,1.3-3.9,2.1c-0.7,0.4-1.4,0.7-2,1.2c-0.7,0.4-1.3,0.9-2,1.4
	s-1.4,0.9-2,1.4c-0.6,0.5-1.3,1.1-2,1.6c-1.4,1-2.6,2.3-3.8,3.5l-0.9,0.9c-0.3,0.3-0.6,0.7-0.9,1c-0.6,0.7-1.2,1.3-1.8,2
	c-0.6,0.7-1.1,1.4-1.6,2.2c-0.5,0.7-1.1,1.5-1.6,2.2c-1,1.6-1.9,3.2-2.8,4.8l-1.2,2.5c-0.4,0.8-0.8,1.7-1.1,2.6
	c-0.6,1.8-1.4,3.5-1.8,5.3c-0.2,0.9-0.5,1.8-0.7,2.7c-0.2,0.9-0.3,1.8-0.5,2.7c-0.1,0.9-0.3,1.8-0.4,2.7c-0.1,0.9-0.1,1.8-0.2,2.7
	c-0.1,0.9-0.2,1.8-0.2,2.6c0,0.9,0,1.9,0,2.8c0.1,3.4,0.5,6.9,1.2,10c0.7,3.2,1.6,6.1,2.7,8.8c1.1,2.7,2.2,5.1,3.4,7.1
	c1.2,2.1,2.3,3.8,3.3,5.2c1,1.4,1.8,2.5,2.4,3.2c0.6,0.7,0.9,1.1,0.9,1.1s-0.4-0.3-1.1-0.9c-0.7-0.6-1.8-1.4-3.1-2.6
	c-1.2-1.2-2.8-2.7-4.3-4.7c-1.6-1.9-3.1-4.2-4.6-6.9s-2.8-5.7-3.9-9.1c-1.1-3.4-1.8-7-2.2-11c-0.1-1-0.1-1.9-0.2-2.8
	C345.9-73,345.9-73.9,345.9-74.9z M204.1,266.4c-0.5-0.1-1.2-0.3-2.1-0.6c-0.5-0.1-1-0.3-1.5-0.5s-1.1-0.5-1.7-0.7
	c-0.6-0.3-1.2-0.6-1.9-0.9s-1.3-0.7-2-1.1c-0.7-0.4-1.4-0.9-2.2-1.3c-0.7-0.5-1.4-1.1-2.2-1.6c-1.6-1.1-3-2.5-4.5-3.9
	c-0.7-0.7-1.4-1.6-2.1-2.4c-0.3-0.4-0.7-0.8-1.1-1.2c-0.3-0.4-0.6-0.9-1-1.3c-0.6-0.9-1.3-1.8-1.9-2.7c-0.6-1-1.1-1.9-1.7-2.9
	c-0.5-1-0.9-2-1.4-3s-0.9-2-1.2-3.1c-0.8-2-1.3-4.1-1.7-6.2c-0.2-1-0.3-2-0.5-3c-0.1-1-0.3-1.9-0.3-2.9c0-0.9-0.1-1.9-0.1-2.7
	c0-0.9,0.1-1.7,0.1-2.6c0.1-0.8,0.1-1.6,0.2-2.3c0.1-0.7,0.2-1.4,0.4-2.1c0.1-0.7,0.2-1.3,0.3-1.8c0.1-0.6,0.3-1,0.4-1.5
	c0.3-0.9,0.5-1.6,0.7-2.1c0.2-0.9,0.3-1.2,0.3-1.2s0,0.3,0.1,0.8c0,0.5,0.1,1.2,0.2,2.2c0,0.5,0,1,0.1,1.5c0.1,0.6,0.2,1.1,0.2,1.8
	c0.1,0.6,0.2,1.3,0.2,2c0.1,0.7,0.2,1.4,0.4,2.2c0.1,0.8,0.2,1.5,0.4,2.3s0.4,1.6,0.6,2.5c0.1,0.4,0.2,0.9,0.3,1.3
	c0.1,0.4,0.3,0.9,0.4,1.3c0.3,0.9,0.5,1.8,0.8,2.7c0.3,0.9,0.6,1.8,0.9,2.7c0.1,0.5,0.3,0.9,0.5,1.4c0.2,0.4,0.4,0.9,0.6,1.4
	l0.6,1.4c0.2,0.5,0.4,0.9,0.6,1.3c0.4,0.9,0.8,1.8,1.3,2.7s1,1.7,1.5,2.6c0.5,0.9,1.1,1.7,1.6,2.5c0.3,0.4,0.5,0.8,0.8,1.2
	c0.3,0.4,0.6,0.8,0.8,1.2c0.6,0.8,1.1,1.5,1.7,2.3c1.2,1.4,2.3,2.9,3.5,4.1c0.6,0.6,1.2,1.3,1.7,1.9c0.6,0.6,1.2,1.1,1.7,1.7
	c1.1,1.1,2.2,2,3.1,2.8c0.5,0.4,0.9,0.8,1.3,1.2c0.4,0.3,0.8,0.7,1.2,0.9c0.7,0.6,1.3,1.1,1.7,1.4s0.6,0.5,0.6,0.5
	S204.5,266.5,204.1,266.4z M255.4,220.4c0,14.7-12,26.7-26.7,26.7c-14.7,0-26.7-12-26.7-26.7c0-14.7,12-26.7,26.7-26.7
	c5.4,0,10.5,1.6,14.7,4.4c0,0,0,0,0-0.1c7.2,4.7,12,12.8,12.1,22c0-0.1-0.1-0.1-0.1-0.2C255.4,220.1,255.4,220.2,255.4,220.4z
	 M282.2,218.1c-0.1,1.7-0.1,3.2-0.4,4.8c-0.3,1.5-0.4,3-0.8,4.3s-0.7,2.6-1,3.8c-0.1,0.3-0.2,0.6-0.2,0.9c-0.1,0.3-0.2,0.6-0.3,0.8
	c-0.2,0.5-0.4,1.1-0.6,1.6c-0.4,1-0.8,1.9-1.1,2.7c-0.8,1.5-1.5,2.7-1.9,3.5c-0.3,0.6-0.6,1-0.6,1s0.1-0.5,0.4-1.4
	c0.3-0.9,0.6-2.2,1.2-3.9c0.2-0.8,0.4-1.8,0.6-2.8c0.1-0.5,0.2-1,0.3-1.5c0.1-0.3,0.1-0.5,0.2-0.8c0-0.3,0.1-0.6,0.1-0.9
	c0.1-1.2,0.3-2.4,0.4-3.7c0.1-1.3,0.1-2.7,0.1-4.1c0.1-1.4-0.1-2.9-0.2-4.4c-0.1-0.8,0-1.5-0.2-2.3c-0.1-0.8-0.2-1.6-0.4-2.4
	c-0.1-0.8-0.2-1.6-0.4-2.4s-0.4-1.6-0.6-2.4c-0.3-1.7-0.9-3.3-1.5-5c-0.1-0.4-0.3-0.8-0.4-1.3c-0.1-0.4-0.4-0.8-0.5-1.2
	c-0.4-0.8-0.7-1.6-1.1-2.5c-0.3-0.8-0.8-1.6-1.2-2.4c-0.4-0.8-0.9-1.6-1.3-2.4c-1-1.5-2-3.1-3.1-4.6L266,187
	c-0.6-0.7-1.2-1.5-1.8-2.1c-1.3-1.3-2.5-2.7-4-3.9c-0.7-0.6-1.4-1.2-2.1-1.8c-0.7-0.6-1.5-1.1-2.2-1.6c-0.8-0.5-1.5-1.1-2.2-1.6
	c-0.8-0.5-1.6-0.9-2.4-1.3c-0.8-0.4-1.6-0.9-2.3-1.3c-0.8-0.4-1.7-0.8-2.5-1.2c-3.1-1.4-6.4-2.5-9.6-3.2s-6.2-1.2-9.1-1.4
	c-2.9-0.2-5.5-0.2-7.9,0c-2.4,0.2-4.4,0.4-6.1,0.7c-1.7,0.3-3,0.6-3.9,0.8c-0.9,0.2-1.4,0.3-1.4,0.3s0.4-0.2,1.3-0.6
	c0.8-0.4,2.1-1,3.7-1.6c1.6-0.6,3.7-1.3,6.1-1.8c2.4-0.6,5.2-1,8.2-1.2c3.1-0.2,6.4-0.1,9.9,0.4s7.1,1.4,10.8,2.8
	c0.9,0.3,1.7,0.7,2.6,1.1c1,0.4,1.8,0.9,2.7,1.4c0.9,0.5,1.8,0.9,2.7,1.4c0.9,0.5,1.7,1.1,2.6,1.7c0.8,0.6,1.7,1.1,2.5,1.7
	c0.8,0.7,1.6,1.3,2.4,2c1.7,1.3,3,2.8,4.5,4.3c0.8,0.7,1.4,1.5,2,2.4l1.9,2.4c0.6,0.8,1.1,1.7,1.7,2.6c0.5,0.9,1.1,1.7,1.6,2.6
	c1.9,3.6,3.5,7.3,4.6,11c0.5,1.9,1.1,3.7,1.3,5.6c0.1,0.9,0.3,1.8,0.4,2.7c0.1,0.9,0.1,1.8,0.2,2.7c0,0.9,0.1,1.7,0.1,2.6
	C282.4,216.5,282.3,217.3,282.2,218.1z M400.6,299.1c-40.4,0-77.7-14-107.1-37.3c7.7-12,12.1-26.2,12.1-41.4
	c0-42.4-34.5-76.9-76.9-76.9c0,0-0.1,0-0.1,0c-0.6-5.7-0.9-11.5-0.9-17.3c0-71.8,44.1-133.6,106.6-159.6c13.4,22.7,38.1,38,66.3,38
	c28.3,0.1,53-15.2,66.4-38c62.5,26.1,106.5,87.8,106.5,159.6c0,5.8-0.3,11.6-0.9,17.3c-0.4,0-0.9,0-1.3,0
	c-42.4,0-76.9,34.5-76.9,76.9c0,15.5,4.6,29.9,12.5,42C477.6,285.4,440.7,299.1,400.6,299.1z M540.9,180.4c-1.4,1-2.6,2.3-3.8,3.5
	l-0.9,0.9c-0.3,0.3-0.6,0.7-0.9,1c-0.6,0.7-1.2,1.3-1.8,2s-1.1,1.4-1.6,2.2c-0.5,0.7-1.1,1.5-1.6,2.2c-1,1.6-1.9,3.2-2.8,4.8
	l-1.2,2.5c-0.4,0.8-0.8,1.7-1.1,2.6c-0.6,1.8-1.4,3.5-1.8,5.3c-0.2,0.9-0.5,1.8-0.7,2.7s-0.3,1.8-0.5,2.7c-0.1,0.9-0.3,1.8-0.4,2.7
	c-0.1,0.9-0.1,1.8-0.2,2.7c-0.1,0.9-0.2,1.8-0.2,2.6c0,0.9,0,1.9,0,2.8c0.1,3.4,0.5,6.9,1.2,10c0.7,3.2,1.6,6.1,2.7,8.8
	c1.1,2.7,2.2,5.1,3.4,7.1c1.2,2.1,2.3,3.8,3.3,5.2s1.8,2.5,2.4,3.2c0.6,0.7,0.9,1.1,0.9,1.1s-0.4-0.3-1.1-0.9
	c-0.7-0.6-1.8-1.4-3.1-2.6c-1.2-1.2-2.8-2.7-4.3-4.7c-1.6-1.9-3.1-4.2-4.6-6.9s-2.8-5.7-3.9-9.1c-1.1-3.4-1.8-7-2.2-11
	c-0.1-1-0.1-1.9-0.2-2.8c0-1.1,0-2,0-3s0.1-2,0.1-3c0.1-1,0.3-2,0.4-3c0.2-1,0.2-2,0.5-3c0.2-1,0.5-2,0.7-3c0.4-2,1.2-4,1.9-5.9
	c0.3-1,0.8-1.9,1.3-2.9l1.4-2.8c0.5-0.9,1.1-1.8,1.6-2.7c0.6-0.9,1.1-1.8,1.7-2.6c2.4-3.3,5.1-6.4,8-8.9c1.5-1.3,2.9-2.5,4.5-3.5
	c0.8-0.5,1.5-1,2.3-1.6c0.7-0.5,1.6-0.9,2.3-1.3c0.8-0.4,1.5-0.8,2.3-1.2c0.7-0.4,1.6-0.7,2.3-1c1.5-0.6,3-1.3,4.5-1.7
	c1.5-0.4,2.9-0.9,4.2-1.2c1.4-0.2,2.7-0.5,3.9-0.7c0.3-0.1,0.6-0.1,0.9-0.2c0.3,0,0.6,0,0.9-0.1c0.6,0,1.1-0.1,1.7-0.1
	c1.1-0.1,2-0.1,2.9-0.2c1.7,0.1,3.1,0.2,4,0.2c0.6-0.1,1.1-0.1,1.1-0.1s-0.5,0.1-1.4,0.2c-0.9,0.1-2.3,0.4-4,0.6
	c-0.8,0.2-1.7,0.4-2.7,0.7c-0.5,0.1-1,0.2-1.5,0.4c-0.3,0.1-0.5,0.1-0.8,0.2c-0.3,0.1-0.5,0.2-0.8,0.3c-1.1,0.4-2.3,0.8-3.5,1.2
	c-1.2,0.5-2.5,1.1-3.8,1.6s-2.6,1.3-3.9,2.1c-0.7,0.4-1.4,0.7-2,1.2c-0.7,0.4-1.3,0.9-2,1.4s-1.4,0.9-2,1.4
	C542.3,179.3,541.6,179.9,540.9,180.4z M571.3,247.1c-14.7,0-26.7-12-26.7-26.7c0-0.6,0-1.1,0.1-1.7c0-0.1,0-0.3,0-0.4
	c0-0.5,0.1-0.9,0.1-1.4c0-0.1,0-0.2,0-0.3c1.8-13,13-22.9,26.4-22.9c14.7,0,26.7,12,26.7,26.7C598,235.1,586,247.1,571.3,247.1z
	 M624.8,228.7c0,0.8-0.1,1.5-0.2,2.3c-0.1,0.8-0.2,1.7-0.3,2.6c-0.1,0.9-0.3,1.8-0.5,2.7c-0.3,1.9-1,3.8-1.6,5.7
	c-0.4,1-0.8,1.9-1.2,2.9c-0.2,0.5-0.4,1-0.7,1.5s-0.5,1-0.8,1.4c-0.5,0.9-1,2-1.7,2.9c-0.6,0.9-1.3,1.8-1.9,2.8
	c-0.7,0.9-1.4,1.7-2.1,2.6c-0.7,0.9-1.5,1.6-2.2,2.4c-1.5,1.6-3.2,2.9-4.8,4.2c-0.8,0.6-1.7,1.2-2.5,1.7s-1.6,1.1-2.5,1.5
	c-0.8,0.4-1.6,0.9-2.4,1.3c-0.8,0.4-1.6,0.7-2.4,1s-1.5,0.6-2.2,0.8c-0.7,0.2-1.4,0.4-2.1,0.6c-0.6,0.2-1.2,0.3-1.8,0.5
	c-0.6,0.1-1.1,0.2-1.5,0.3c-0.9,0.2-1.7,0.2-2.2,0.3c-0.2,0.2-0.5,0.2-0.5,0.2s0.2-0.1,0.7-0.4c0.4-0.3,1.1-0.7,1.9-1.1
	c0.4-0.2,0.9-0.5,1.3-0.8c0.5-0.3,1-0.6,1.5-1c0.5-0.3,1.1-0.7,1.7-1.1c0.6-0.4,1.2-0.8,1.8-1.3s1.3-0.9,1.9-1.4
	c0.6-0.5,1.3-1,2-1.6c0.3-0.3,0.7-0.5,1-0.8s0.7-0.6,1-0.9c0.7-0.6,1.4-1.2,2.1-1.8c0.7-0.7,1.3-1.3,2-2c0.4-0.3,0.7-0.7,1-1.1
	c0.3-0.4,0.7-0.7,1-1.1l1-1.1c0.3-0.4,0.6-0.8,0.9-1.2c0.6-0.8,1.3-1.5,1.8-2.3c0.6-0.8,1.1-1.6,1.7-2.4c0.6-0.8,1-1.7,1.6-2.5
	c0.3-0.4,0.5-0.8,0.8-1.2c0.2-0.4,0.5-0.9,0.7-1.3c0.5-0.8,0.9-1.7,1.4-2.5c0.7-1.7,1.6-3.3,2.2-5c0.3-0.8,0.6-1.6,1-2.4
	c0.3-0.8,0.5-1.5,0.7-2.3c0.5-1.4,0.9-2.8,1.2-4c0.2-0.6,0.3-1.2,0.5-1.7c0.1-0.5,0.2-1,0.3-1.5c0.2-0.9,0.4-1.6,0.5-2.1
	c0.1-0.5,0.2-0.8,0.2-0.8s0,0.3,0.1,0.8c0.1,0.5,0.2,1.2,0.3,2.2c0.1,0.5,0.1,1,0.2,1.6c0,0.6,0,1.2,0.1,1.8
	C624.8,227.3,624.8,228,624.8,228.7z"/>
</svg>
