<?xml version="1.0" encoding="utf-8"?>
<!-- Generator: Adobe Illustrator 19.0.0, SVG Export Plug-In . SVG Version: 6.00 Build 0)  -->
<svg version="1.1" id="Layer_1" xmlns="http://www.w3.org/2000/svg" xmlns:xlink="http://www.w3.org/1999/xlink" x="0px" y="0px"
	 viewBox="150 -150 500 500" style="enable-background:new 150 -150 500 500;" xml:space="preserve">
<style type="text/css">
	.st0{fill:#FFFFFF;}
</style>
<path class="st0" d="M598.9,33.6c-17.5-57.9-57.8-108.8-115.9-138.2c-112.8-57-251-11.6-308,101.2s-11.6,251,101.2,308
	c112.8,57.1,251,11.6,308-101.2c6.9-13.7,12.3-27.7,16.3-42c28.2-7.5,49-33.1,49-63.7C649.6,66.5,628,40.5,598.9,33.6z M198.1,19.5
	l-0.5,1.2l-1,2.4c-5.5,12.9-9.6,25.8-12.3,38.4c-2.7,12.6-4.1,24.8-4.4,36c0,1.4-0.2,2.8-0.1,4.2c0,1.4,0,2.7,0,4.1
	c0,2.7,0,5.3,0.2,7.9c0.1,2.6,0.3,5.1,0.4,7.5c0.2,2.4,0.5,4.8,0.7,7.1c0.1,1.1,0.2,2.3,0.4,3.4c0.2,1.1,0.3,2.2,0.5,3.2
	c0.3,2.1,0.6,4.2,0.9,6.2c0.7,3.9,1.5,7.5,2.1,10.8c0.8,3.2,1.5,6.1,2.2,8.6c0.2,0.6,0.3,1.2,0.5,1.8s0.3,1.1,0.5,1.7
	c0.3,1.1,0.6,2,0.9,2.9c0.8,4.3,1.3,6.1,1.3,6.1s-0.7-1.8-2.1-5.1c-0.3-0.8-0.7-1.8-1.1-2.8c-0.2-0.5-0.4-1-0.7-1.6
	c-0.2-0.6-0.4-1.2-0.6-1.8c-0.9-2.5-1.9-5.3-2.9-8.5c-0.9-3.2-2-6.8-3-10.7c-0.5-2-0.9-4-1.4-6.2c-0.2-1.1-0.5-2.2-0.7-3.3
	c-0.2-1.1-0.4-2.3-0.6-3.4c-1.8-9.2-2.9-19.8-3.2-31.4c0-1.5,0-2.9,0-4.4s0-3,0-4.5c0.1-3,0.3-6.1,0.4-9.2c0.3-3.1,0.6-6.3,0.9-9.5
	c0.4-3.2,1-6.5,1.5-9.8c2.3-13.1,6-26.9,11.5-40.4c0.3-0.8,0.7-1.7,1-2.6l0.5-1.3l0.6-1.3c0.8-1.7,1.5-3.4,2.3-5l1.2-2.5l0.6-1.3
	l0.1-0.2l0.1-0.3l0.2-0.3l0.3-0.6c0.8-1.6,1.7-3.2,2.5-4.9c1.6-3.3,3.7-6.6,5.6-9.9l1.5-2.5l1.6-2.4c1.1-1.6,2.1-3.2,3.2-4.8
	c1-1.6,2.2-3.1,3.4-4.7c1.2-1.5,2.3-3.1,3.5-4.7c2.4-3,4.9-6,7.4-9l4-4.3c1.3-1.4,2.6-2.9,4-4.2l4.2-4.1c0.7-0.7,1.4-1.4,2.1-2
	l2.2-2c11.6-10.5,24.4-19.6,37.9-27.1c1.7-0.9,3.4-1.8,5.1-2.7c1.7-0.9,3.4-1.8,5.1-2.6c1.7-0.8,3.5-1.6,5.2-2.4l2.6-1.2
	c0.9-0.4,1.8-0.7,2.6-1.1c3.5-1.4,7-2.8,10.5-4c1.8-0.6,3.5-1.2,5.2-1.8c1.8-0.6,3.5-1,5.3-1.6c14-4.1,28-6.4,41.3-7.4
	c0.8-0.1,1.7-0.1,2.5-0.2c0.8,0,1.7-0.1,2.5-0.1c1.6-0.1,3.3-0.1,4.9-0.2c1.6-0.1,3.2-0.1,4.8-0.1c1.6,0,3.2,0.1,4.7,0.1
	c3.1,0,6.2,0.3,9.2,0.5c1.5,0.1,3,0.2,4.5,0.3c1.5,0.2,2.9,0.3,4.4,0.5c1.4,0.2,2.9,0.3,4.3,0.5c1.4,0.2,2.8,0.4,4.2,0.7
	c1.4,0.2,2.7,0.5,4.1,0.7c1.3,0.2,2.7,0.4,3.9,0.8c2.6,0.6,5.1,1.2,7.5,1.7c2.4,0.6,4.7,1.3,7,1.9c1.1,0.3,2.2,0.6,3.3,0.9
	s2.1,0.7,3.2,1c2.1,0.7,4.1,1.4,6,2c3.8,1.4,7.2,2.9,10.3,4.1c3.1,1.4,5.8,2.7,8.1,3.8c1.2,0.5,2.3,1.1,3.2,1.6c1,0.5,1.9,1,2.6,1.4
	c3.2,1.7,4.8,2.6,4.8,2.6s-1.8-0.7-5.1-2.1c-0.8-0.3-1.7-0.7-2.8-1.1c-1-0.4-2.1-0.9-3.3-1.3c-2.4-0.9-5.2-1.9-8.4-3
	c-3.2-1-6.7-2.1-10.5-3.2c-1.9-0.5-3.9-1-6-1.6c-1-0.3-2.1-0.6-3.2-0.8c-1.1-0.2-2.2-0.5-3.3-0.7c-9-2-19.3-3.5-30.5-4.2
	c-1.4-0.1-2.8-0.2-4.3-0.3c-1.4-0.1-2.9-0.1-4.4-0.1c-2.9,0-5.9-0.2-8.9,0c-6.1,0.1-12.3,0.5-18.7,1.2c-12.8,1.4-26.1,4.2-39.5,8.4
	c-13.4,4.2-26.7,10-39.4,17.2c-12.7,7.3-24.9,16-35.9,26c-11.1,9.9-21,21.1-29.4,33.1c-1,1.5-2.1,3-3.1,4.5l-1.5,2.3l-1.4,2.3
	c-1.9,3.1-3.8,6-5.6,9.3c-0.9,1.6-1.8,3.2-2.7,4.8l-0.3,0.6l-0.2,0.3l0,0.1c0,0,0,0,0,0c0,0,0,0,0,0l-0.1,0.1l-0.6,1.2l-1.2,2.4
	c-0.8,1.6-1.6,3.2-2.3,4.8L198.1,19.5z M298.6,260.5c-88.5-44.7-124.1-153.1-79.4-241.6s153.1-124.1,241.6-79.4
	c43.4,21.9,74,59.1,88.8,101.8c-11.9,7.2-21.3,18-26.7,31H401.7c-4.5-3-9.9-4.8-15.7-4.8c-15.6,0-28.2,12.6-28.2,28.2
	c0,15.6,12.6,28.2,28.2,28.2c5.8,0,11.1-1.7,15.6-4.7h119.8c5.2,15.2,15.8,27.8,29.5,35.7c-2.8,8.9-6.4,17.6-10.8,26.2
	C495.5,269.6,387.1,305.2,298.6,260.5z M559.9,193.5c-0.5,1.3-1.2,3.2-2.2,5.6c-0.5,1.2-1,2.5-1.6,3.9c-0.7,1.4-1.4,2.9-2.3,4.5
	c-0.8,1.6-1.7,3.3-2.6,5.2c-0.2,0.5-0.5,0.9-0.7,1.4c-0.3,0.4-0.5,0.9-0.8,1.4c-0.6,0.9-1.1,1.8-1.7,2.8c-1.2,1.9-2.4,3.9-3.7,5.9
	c-1.3,2-2.8,4-4.3,6.1c-2.9,4.2-6.5,8.3-10.1,12.6c-1.8,2.1-3.9,4.1-5.9,6.2c-1,1-2,2.1-3,3.1c-1.1,1-2.2,2-3.3,3
	c-1.1,1-2.2,2-3.3,3s-2.2,2-3.4,2.9c-2.3,1.8-4.7,3.7-7.1,5.6c-1.2,0.9-2.4,1.8-3.7,2.6c-1.2,0.8-2.5,1.7-3.7,2.5s-2.5,1.7-3.7,2.5
	c-1.3,0.8-2.6,1.5-3.8,2.3c-2.6,1.5-5,3-7.6,4.3c-2.6,1.3-5.1,2.6-7.7,3.8c-0.6,0.3-1.3,0.6-1.9,0.9c-0.6,0.3-1.3,0.5-1.9,0.8
	c-1.3,0.5-2.5,1.1-3.8,1.6c-2.5,1-4.9,2.1-7.4,2.8c-2.4,0.8-4.8,1.6-7.1,2.4c-0.6,0.2-1.1,0.4-1.7,0.5c-0.6,0.2-1.1,0.3-1.7,0.4
	c-1.1,0.3-2.2,0.6-3.3,0.9c-2.2,0.5-4.2,1.1-6.2,1.6c-2,0.4-3.9,0.7-5.7,1s-3.4,0.6-5,0.8c-1.5,0.2-3,0.3-4.3,0.5
	c-2.6,0.3-4.6,0.4-6,0.5c-1.4,0.1-2.1,0.2-2.1,0.2s0.7-0.2,2-0.7c1.3-0.4,3.2-1.1,5.7-1.9c1.2-0.4,2.6-0.8,4-1.4
	c1.4-0.6,3-1.1,4.7-1.8c1.7-0.6,3.4-1.3,5.3-1.9c1.8-0.8,3.7-1.6,5.8-2.4c1-0.4,2-0.8,3.1-1.3c0.5-0.2,1-0.4,1.6-0.6
	c0.5-0.2,1-0.5,1.6-0.7c2.1-1,4.3-2,6.5-3c2.3-1,4.5-2.2,6.8-3.4c1.1-0.6,2.3-1.2,3.5-1.8c0.6-0.3,1.2-0.6,1.8-0.9s1.2-0.7,1.7-1
	c2.3-1.4,4.7-2.7,7.1-4.1c1.2-0.6,2.4-1.4,3.5-2.2c1.2-0.7,2.4-1.5,3.6-2.2s2.4-1.5,3.6-2.3s2.3-1.6,3.5-2.5
	c1.2-0.8,2.3-1.6,3.5-2.4s2.4-1.6,3.5-2.5c2.3-1.7,4.5-3.5,6.8-5.2c2.2-1.8,4.3-3.7,6.5-5.5c1.1-0.9,2.1-1.8,3.2-2.7
	c1-1,2-1.9,3-2.8c1-0.9,2-1.9,3-2.8c1-0.9,2-1.8,3-2.8c3.7-3.9,7.5-7.5,10.7-11.2c1.7-1.8,3.3-3.6,4.8-5.4s2.9-3.6,4.3-5.2
	c0.7-0.8,1.4-1.7,2-2.5c0.3-0.4,0.7-0.8,1-1.2c0.3-0.4,0.6-0.8,0.9-1.2c1.2-1.6,2.3-3.1,3.4-4.5c1.1-1.4,2.1-2.7,3-3.9
	c0.9-1.3,1.7-2.5,2.4-3.5c1.4-2.1,2.7-3.8,3.5-4.9c0.8-1.2,1.2-1.8,1.2-1.8S560.4,192.2,559.9,193.5z M583.7,114.3
	c-9.1,0-16.5-7.4-16.5-16.5s7.4-16.5,16.5-16.5s16.4,7.3,16.5,16.5C600.2,106.9,592.8,114.3,583.7,114.3z"/>
</svg>
