<?xml version="1.0" encoding="UTF-8"?>
<!DOCTYPE svg PUBLIC "-//W3C//DTD SVG 1.1//EN" "http://www.w3.org/Graphics/SVG/1.1/DTD/svg11.dtd">
<!-- Creator: CorelDRAW X8 -->
<svg xmlns="http://www.w3.org/2000/svg" xml:space="preserve" width="512px" height="512px" version="1.1" style="shape-rendering:geometricPrecision; text-rendering:geometricPrecision; image-rendering:optimizeQuality; fill-rule:evenodd; clip-rule:evenodd"
viewBox="0 0 512 512"
 xmlns:xlink="http://www.w3.org/1999/xlink">
 <defs>
  <style type="text/css">
   <![CDATA[
    .str0 {stroke:#317332 ;stroke-width:0.694489}
    .fil0 {fill:none}
    .fil1 {fill:#317332 }
   ]]>
  </style>
 </defs>
 <g id="Layer_x0020_1">
  <metadata id="CorelCorpID_0Corel-Layer"/>
  <rect class="fil0" width="512" height="512"/>
  <g id="_1700977070592">
   <path class="fil1" d="M387 391c15,-9 35,-35 46,-55 44,-81 14,-163 -45,-217l-1 -37c131,78 116,284 0,348l0 -39z"/>
   <path class="fil1" d="M311 355c39,-22 68,-96 34,-160 -13,-24 -32,-37 -34,-43l1 -25c95,58 88,207 -1,258l0 -30z"/>
   <path class="fil1" d="M252 170c32,13 66,84 33,138 -8,12 -20,29 -33,34 1,-30 5,-20 19,-40 19,-28 18,-63 0,-91 -12,-20 -20,-15 -19,-41z"/>
   <path class="fil1" d="M127 385c-27,-34 -26,-26 -25,-52l0 -156c-1,-18 1,-19 10,-29 6,-8 11,-13 17,-21l65 -81c6,-5 -2,1 6,-4l0 428 -73 -85z"/>
   <rect class="fil1 str0" x="32" y="159" width="53.928" height="196.723" rx="40" ry="40"/>
  </g>
 </g>
</svg>
