<?xml version="1.0" encoding="UTF-8"?>
<!DOCTYPE svg PUBLIC "-//W3C//DTD SVG 1.1//EN" "http://www.w3.org/Graphics/SVG/1.1/DTD/svg11.dtd">
<!-- Creator: CorelDRAW X8 -->
<svg xmlns="http://www.w3.org/2000/svg" xml:space="preserve" width="512px" height="512px" version="1.1" style="shape-rendering:geometricPrecision; text-rendering:geometricPrecision; image-rendering:optimizeQuality; fill-rule:evenodd; clip-rule:evenodd"
viewBox="0 0 512 512"
 xmlns:xlink="http://www.w3.org/1999/xlink">
 <defs>
  <style type="text/css">
   <![CDATA[
    .fil0 {fill:none}
    .fil1 {fill:black}
   ]]>
  </style>
 </defs>
 <g id="Layer_x0020_1">
  <metadata id="CorelCorpID_0Corel-Layer"/>
  <rect class="fil0" width="512" height="512"/>
  <g id="_1701289374592">
   <g>
    <path class="fil1" d="M119 305l220 0 0 11 -220 0 0 -11zm0 -55l220 0 0 11 -220 0 0 -11zm0 -55l220 0 0 11 -220 0 0 -11zm0 -55l220 0 0 11 -220 0 0 -11zm66 -55l88 0 0 11 -88 0 0 -11zm-80 -5l-51 0 0 387c0,5 4,10 7,12 7,5 46,2 56,2l232 0 -7 -4c-17,-12 -29,-29 -34,-51l-189 0 0 -11 188 0c-4,-15 4,-34 9,-44l-197 0 0 -11 205 0c1,-4 7,-9 11,-13 4,-4 10,-7 15,-10 11,-5 28,-12 44,-9l0 -271c0,-7 1,-14 -2,-18 -2,-3 -7,-8 -12,-8l-275 0 0 49z"/>
    <path class="fil1" d="M328 411c-1,-8 5,-26 10,-34 2,-3 4,-6 7,-9 31,-31 80,-21 97,15 7,16 8,33 1,49 -3,7 -7,14 -12,18 -14,15 -31,21 -54,18 -21,-3 -41,-22 -47,-44 0,-2 -1,-3 -1,-7 0,-4 0,-4 -1,-6zm-11 -6c0,24 6,40 21,55 46,46 121,9 121,-47 0,-23 -6,-39 -20,-54 -47,-47 -122,-9 -122,46z"/>
    <path class="fil1" d="M367 402c15,-3 16,-6 11,21 -3,11 -11,36 3,36 13,0 27,-10 27,-21 -9,6 -8,14 -22,14 0,-15 9,-49 13,-64 -4,0 -5,1 -9,2l-18 6c-4,1 -5,0 -5,6z"/>
    <path class="fil1" d="M53 74l46 0 0 -44c-4,3 -7,7 -11,11l-35 33z"/>
    <path class="fil1" d="M382 369c0,14 20,13 20,0 -1,-12 -20,-12 -20,0z"/>
   </g>
  </g>
 </g>
</svg>
