<?xml version="1.0" encoding="UTF-8"?>
<!DOCTYPE svg PUBLIC "-//W3C//DTD SVG 1.1//EN" "http://www.w3.org/Graphics/SVG/1.1/DTD/svg11.dtd">
<!-- Creator: CorelDRAW X8 -->
<svg xmlns="http://www.w3.org/2000/svg" xml:space="preserve" width="512px" height="512px" version="1.1" style="shape-rendering:geometricPrecision; text-rendering:geometricPrecision; image-rendering:optimizeQuality; fill-rule:evenodd; clip-rule:evenodd"
viewBox="0 0 512 512"
 xmlns:xlink="http://www.w3.org/1999/xlink">
 <defs>
  <style type="text/css">
   <![CDATA[
    .fil0 {fill:none}
    .fil1 {fill:#FFFFFF}
   ]]>
  </style>
 </defs>
 <g id="Layer_x0020_1">
  <metadata id="CorelCorpID_0Corel-Layer"/>
  <rect class="fil0" width="512" height="512"/>
  <g id="_1701183179056">
   <g>
    <path class="fil1" d="M305 156c-2,0 -1,0 -1,1 1,0 1,0 1,-1z"/>
    <path class="fil1" d="M292 168c-2,0 -1,0 -1,1 1,0 1,1 1,-1z"/>
    <path class="fil1" d="M279 180c-2,0 -2,0 -2,1 2,0 2,1 2,-1z"/>
    <path class="fil1" d="M249 323c-1,0 -1,0 -1,2 2,0 1,0 1,-2z"/>
    <polygon class="fil1" points="449,440 448,441 "/>
    <polygon class="fil1" points="425,463 425,464 "/>
   </g>
   <g>
    <path class="fil1" d="M226 346c-2,0 -1,-1 -1,1 1,0 1,1 1,-1z"/>
    <path class="fil1" d="M162 297c-1,0 -1,0 -1,2 2,0 1,0 1,-2z"/>
    <path class="fil1" d="M144 354c-2,0 -2,-1 -2,1 2,0 2,0 2,-1z"/>
    <path class="fil1" d="M198 355c-2,0 -2,0 -2,1 2,0 2,1 2,-1z"/>
    <path class="fil1" d="M170 365c-2,0 -2,-1 -2,1 2,0 2,0 2,-1z"/>
    <path class="fil1" d="M153 326c-2,0 -1,-1 -1,1 1,0 1,0 1,-1z"/>
    <path class="fil1" d="M142 374c-2,0 -2,0 -2,1 2,0 2,1 2,-1z"/>
   </g>
   <g>
    <path class="fil1" d="M425 464l0 -1c11,-2 21,-12 23,-22l1 -1c0,-5 2,-7 2,-12 1,-30 0,-71 0,-102 0,-38 0,-76 0,-115 -4,3 -19,19 -24,24 -4,3 -6,4 -6,10 -1,39 0,87 0,127 0,14 2,54 -2,62 -9,4 -72,2 -88,2l-180 0c-16,0 -79,2 -88,-2 -4,-9 -2,-71 -2,-88l0 -180c0,-16 -2,-79 2,-88 8,-4 62,-2 77,-2l157 0c4,0 16,1 19,0l30 -30c-9,0 -272,-1 -282,1 -5,1 -9,2 -13,4 -12,6 -19,17 -20,33l0 71 0 212 0 60c0,4 1,7 1,9 2,9 6,17 13,22 7,5 15,8 27,8l337 0c8,0 10,-1 16,-2z"/>
    <path class="fil1" d="M305 156c0,1 0,1 -1,1l-12 11c0,2 0,1 -1,1l-12 11c0,2 0,1 -2,1l-96 90 60 60 7 -6c0,-2 0,-2 1,-2l50 -46c18,-16 48,-43 63,-59l26 -23c4,-4 8,-7 12,-12l44 -41c4,-2 4,-2 7,-6l-60 -60 -75 69c-4,4 -7,8 -11,11z"/>
    <path class="fil1" d="M162 297c0,2 1,2 -1,2 -1,5 -2,8 -4,13 -1,4 -4,11 -4,14 0,1 0,1 -1,1 -2,5 -3,8 -4,13 -1,4 -4,11 -4,14 0,1 0,1 -2,1 -2,7 -4,14 -6,21 2,0 2,0 4,-1 0,-1 0,-1 2,-1 3,0 10,-3 13,-4 5,-2 9,-3 13,-4 0,-2 0,-1 2,-1 3,0 10,-3 13,-4 5,-2 9,-3 13,-5 0,-1 0,-1 2,-1 3,0 10,-3 13,-4 5,-1 9,-3 14,-4 0,-2 -1,-1 1,-1l-60 -60c-1,2 -4,9 -4,11z"/>
    <path class="fil1" d="M451 48c-2,0 -2,1 -2,-1 -4,0 -7,-1 -13,-1 -5,0 -9,1 -13,3 -6,2 -14,8 -17,12l60 61c9,-7 19,-26 14,-44 -4,-13 -16,-28 -29,-30z"/>
   </g>
   <path class="fil1" d="M451 48c0,-1 0,-1 -2,-1 0,2 0,1 2,1z"/>
  </g>
 </g>
</svg>
