<?xml version="1.0" encoding="UTF-8"?>
<!DOCTYPE svg PUBLIC "-//W3C//DTD SVG 1.1//EN" "http://www.w3.org/Graphics/SVG/1.1/DTD/svg11.dtd">
<!-- Creator: CorelDRAW X8 -->
<svg xmlns="http://www.w3.org/2000/svg" xml:space="preserve" width="512px" height="512px" version="1.1" style="shape-rendering:geometricPrecision; text-rendering:geometricPrecision; image-rendering:optimizeQuality; fill-rule:evenodd; clip-rule:evenodd"
viewBox="0 0 512 512"
 xmlns:xlink="http://www.w3.org/1999/xlink">
 <defs>
  <style type="text/css">
   <![CDATA[
    .str0 {stroke:#FFFFFF;stroke-width:0.999608}
    .fil0 {fill:none}
    .fil1 {fill:#FFFFFF}
   ]]>
  </style>
 </defs>
 <g id="Layer_x0020_1">
  <metadata id="CorelCorpID_0Corel-Layer"/>
  <rect class="fil0" width="512" height="512"/>
  <g id="_1700977042976">
   <g>
    <path class="fil1 str0" d="M211 147c0,9 8,17 18,17 36,0 82,-126 167,-90 43,17 64,72 36,114 -7,12 -46,49 -59,61 -11,11 -25,20 -25,37 0,7 10,15 17,15 15,0 58,-50 71,-62 33,-34 44,-51 44,-102 0,-50 -52,-105 -105,-105 -70,0 -84,26 -136,78 -8,8 -28,23 -28,37z"/>
    <path class="fil1 str0" d="M32 360c0,36 9,62 33,87 38,38 93,43 141,17 17,-10 51,-46 67,-62 11,-12 28,-22 28,-39 0,-5 -7,-15 -18,-15 -15,0 -69,61 -82,74 -72,71 -182,-39 -111,-111l59 -58c9,-9 15,-12 15,-27 0,-5 -7,-15 -17,-15 -14,0 -29,20 -37,28 -12,12 -22,22 -34,34 -21,21 -44,46 -44,87z"/>
    <path class="fil1 str0" d="M164 330c0,10 8,18 17,18 14,0 32,-23 46,-37l104 -104c10,-10 17,-13 17,-28 0,-5 -7,-15 -17,-15 -14,0 -32,23 -46,37l-104 104c-7,7 -17,13 -17,25z"/>
   </g>
  </g>
 </g>
</svg>
