<?xml version="1.0" encoding="UTF-8"?>
<!DOCTYPE svg PUBLIC "-//W3C//DTD SVG 1.1//EN" "http://www.w3.org/Graphics/SVG/1.1/DTD/svg11.dtd">
<!-- Creator: CorelDRAW X8 -->
<svg xmlns="http://www.w3.org/2000/svg" xml:space="preserve" width="512px" height="512px" version="1.1" style="shape-rendering:geometricPrecision; text-rendering:geometricPrecision; image-rendering:optimizeQuality; fill-rule:evenodd; clip-rule:evenodd"
viewBox="0 0 512 512"
 xmlns:xlink="http://www.w3.org/1999/xlink">
 <defs>
  <style type="text/css">
   <![CDATA[
    .str0 {stroke:#FEFEFE;stroke-width:0.3}
    .fil0 {fill:none}
    .fil3 {fill:#FEFEFE}
    .fil2 {fill:#FEFEFE}
    .fil1 {fill:#7E4C1E}
   ]]>
  </style>
 </defs>
 <g id="Layer_x0020_1">
  <metadata id="CorelCorpID_0Corel-Layer"/>
  <rect class="fil0" width="512" height="512"/>
  <g id="_1701203580208">
   <path class="fil1" d="M44 62l34 -13 203 -2 26 10 53 53 0 193 -27 33 20 16 8 -8 0 93 -16 27 -283 -2 -16 -26 -2 -374zm90 354c4,0 7,2 10,4l75 -5 -44 -46 -86 2c-4,0 -7,-5 -8,-12 0,-4 4,-9 8,-10l84 -2c2,0 4,0 7,0l0 0c4,0 7,3 8,7l52 55c0,0 1,0 1,0 8,0 15,7 15,15 0,8 -7,15 -15,15 -3,0 -7,-2 -9,-4l-87 7c-3,3 -7,4 -11,4 -8,0 -15,-6 -15,-15 0,-8 7,-15 15,-15zm202 -43l-20 -17 -6 7 -7 28 23 -8 10 -10zm-252 -251c0,8 4,15 12,15l135 0c15,0 15,-27 0,-27l-135 0c-6,0 -12,6 -12,12zm0 80c0,8 4,15 12,15l213 0c16,0 16,-27 0,-27l-213 0c-6,0 -12,6 -12,12zm0 79c0,8 4,14 12,14l213 0c16,0 16,-26 0,-26l-213 0c-6,0 -12,6 -12,12z"/>
   <path class="fil1" d="M303 391l7 -28 6 -7c4,3 15,13 20,17 -4,5 -8,8 -15,11l-18 7zm-19 37c5,0 41,-17 49,-20 11,-5 5,-2 14,-8 0,12 0,23 0,35 0,13 -3,19 -16,19l-257 0c-11,0 -16,-5 -16,-16l0 -364c0,-11 5,-16 16,-16l194 0 0 67c0,6 6,12 12,12l67 0 0 139c0,3 -5,7 -6,9l-45 53c-14,16 -14,26 -19,49 -3,12 -15,41 7,41zm69 -76c-4,-2 -15,-13 -20,-16l45 -53c3,-4 6,-8 9,-11 4,-4 6,-7 9,-11 2,-2 3,-3 5,-5 2,-3 3,-3 4,-6 7,5 16,14 20,17l-72 85zm90 -107c-3,0 -19,-14 -19,-15 0,-2 13,-23 25,-12 4,4 7,9 4,15 -1,3 -9,11 -10,12zm-148 -181c3,1 4,3 6,5l43 41 -49 0 0 -46zm-264 4l0 376c0,18 19,37 37,37l269 0c13,0 25,-10 30,-19 9,-13 7,-22 7,-43 0,-56 -6,-42 11,-63 2,-2 3,-4 5,-6 2,-2 4,-5 6,-7l17 -20c2,-2 4,-4 5,-6 10,-14 28,-33 40,-47 12,-15 23,-22 23,-43 0,-29 -35,-51 -64,-31 -6,5 -10,11 -15,17 -2,3 -4,5 -7,8l-14 17c-3,3 -5,5 -7,8l0 -113c0,-14 1,-24 -5,-33 -3,-5 -4,-6 -8,-10l-34 -32c-2,-2 -3,-4 -5,-5 -3,-3 -6,-7 -9,-10 -6,-5 -16,-12 -26,-12l-219 0c-18,0 -37,19 -37,37z"/>
   <circle class="fil2 str0" cx="92" cy="360" r="15"/>
   <circle class="fil2 str0" cx="178" cy="359" r="15"/>
   <path class="fil3" d="M424 230c27,-21 34,-16 19,15l-19 -15z"/>
  </g>
 </g>
</svg>
