<?xml version="1.0" encoding="UTF-8"?>
<!DOCTYPE svg PUBLIC "-//W3C//DTD SVG 1.1//EN" "http://www.w3.org/Graphics/SVG/1.1/DTD/svg11.dtd">
<!-- Creator: CorelDRAW X8 -->
<svg xmlns="http://www.w3.org/2000/svg" xml:space="preserve" width="512px" height="512px" version="1.1" style="shape-rendering:geometricPrecision; text-rendering:geometricPrecision; image-rendering:optimizeQuality; fill-rule:evenodd; clip-rule:evenodd"
viewBox="0 0 512 512"
 xmlns:xlink="http://www.w3.org/1999/xlink">
 <defs>
  <style type="text/css">
   <![CDATA[
    .fil0 {fill:none}
    .fil1 {fill:#FEFEFE;fill-rule:nonzero}
    .fil2 {fill:#EF4A19 ;fill-rule:nonzero}
   ]]>
  </style>
 </defs>
 <g id="Layer_x0020_1">
  <metadata id="CorelCorpID_0Corel-Layer"/>
  <rect class="fil0" width="512" height="512"/>
  <path class="fil1" d="M481 256c0,124 -101,225 -225,225 -124,0 -225,-101 -225,-225 0,-124 101,-225 225,-225 124,0 225,101 225,225z"/>
  <path class="fil2" d="M312 255c0,30 -25,55 -56,55 -30,0 -55,-25 -55,-55 0,-31 25,-56 55,-56 31,0 56,25 56,56z"/>
  <path class="fil2" d="M450 129l-109 0 -14 -33c-4,-11 -18,-21 -29,-21l-84 0c-12,0 -25,10 -30,21l-13 33 -110 0c-12,0 -30,7 -30,19l0 238c0,12 18,23 30,23l389 0c12,0 31,-11 31,-23l0 -238c0,-12 -19,-19 -31,-19zm-193 238l0 0c-59,0 -106,-47 -106,-106 0,-58 47,-105 106,-105 58,0 105,47 105,105 0,59 -47,106 -105,106zm162 -154l0 0c-15,0 -27,-13 -27,-28 0,-16 12,-28 27,-28 16,0 28,12 28,28 0,15 -12,28 -28,28z"/>
 </g>
</svg>
