<?xml version="1.0" encoding="UTF-8"?>
<!DOCTYPE svg PUBLIC "-//W3C//DTD SVG 1.1//EN" "http://www.w3.org/Graphics/SVG/1.1/DTD/svg11.dtd">
<!-- Creator: CorelDRAW X8 -->
<svg xmlns="http://www.w3.org/2000/svg" xml:space="preserve" width="512px" height="512px" version="1.1" style="shape-rendering:geometricPrecision; text-rendering:geometricPrecision; image-rendering:optimizeQuality; fill-rule:evenodd; clip-rule:evenodd"
viewBox="0 0 512 512"
 xmlns:xlink="http://www.w3.org/1999/xlink">
 <defs>
  <style type="text/css">
   <![CDATA[
    .fil0 {fill:none}
    .fil1 {fill:#FFFFFF}
   ]]>
  </style>
 </defs>
 <g id="Layer_x0020_1">
  <metadata id="CorelCorpID_0Corel-Layer"/>
  <rect class="fil0" width="512" height="512"/>
  <path class="fil1" d="M94 225c0,-28 -1,-39 12,-65 17,-35 58,-66 97,-66 40,0 66,4 97,34 78,79 13,206 -75,206 -28,0 -39,1 -65,-12 -6,-3 -11,-6 -16,-9 -27,-19 -50,-54 -50,-88zm219 145c14,0 62,54 74,66 24,24 53,65 84,34 31,-30 -13,-61 -35,-83 -95,-95 -65,-46 -43,-134 22,-86 -33,-184 -118,-212 -46,-15 -97,-14 -141,7 -48,24 -80,65 -96,116 -5,14 -5,19 -6,36 -10,88 54,173 143,193 79,18 132,-23 138,-23z"/>
 </g>
</svg>
