<?xml version="1.0" encoding="UTF-8"?>
<!DOCTYPE svg PUBLIC "-//W3C//DTD SVG 1.1//EN" "http://www.w3.org/Graphics/SVG/1.1/DTD/svg11.dtd">
<!-- Creator: CorelDRAW X8 -->
<svg xmlns="http://www.w3.org/2000/svg" xml:space="preserve" width="512px" height="512px" version="1.1" style="shape-rendering:geometricPrecision; text-rendering:geometricPrecision; image-rendering:optimizeQuality; fill-rule:evenodd; clip-rule:evenodd"
viewBox="0 0 512 512"
 xmlns:xlink="http://www.w3.org/1999/xlink">
 <defs>
  <style type="text/css">
   <![CDATA[
    .fil0 {fill:none}
    .fil1 {fill:#FFFFFF}
   ]]>
  </style>
 </defs>
 <g id="Layer_x0020_1">
  <metadata id="CorelCorpID_0Corel-Layer"/>
  <rect class="fil0" width="512" height="512"/>
  <path class="fil1" d="M293 324c6,-3 18,-12 24,-16l48 -32c8,-6 15,-10 23,-16l94 -64 -24 -16c-8,-6 -15,-11 -23,-16l-94 -64c-5,-4 -45,-31 -48,-32l0 58c-40,-1 -79,9 -111,24 -42,19 -70,42 -95,74 -46,58 -64,145 -54,220 2,-4 4,-18 5,-23 10,-34 27,-67 49,-93 10,-11 17,-18 29,-27 42,-34 100,-46 155,-37 3,0 22,3 22,6l0 54z"/>
 </g>
</svg>
