<?xml version="1.0" encoding="UTF-8"?>
<!DOCTYPE svg PUBLIC "-//W3C//DTD SVG 1.1//EN" "http://www.w3.org/Graphics/SVG/1.1/DTD/svg11.dtd">
<!-- Creator: CorelDRAW X8 -->
<svg xmlns="http://www.w3.org/2000/svg" xml:space="preserve" width="512px" height="512px" version="1.1" style="shape-rendering:geometricPrecision; text-rendering:geometricPrecision; image-rendering:optimizeQuality; fill-rule:evenodd; clip-rule:evenodd"
viewBox="0 0 512 512"
 xmlns:xlink="http://www.w3.org/1999/xlink">
 <defs>
  <style type="text/css">
   <![CDATA[
    .str0 {stroke:#5B5B5B;stroke-width:0.999608}
    .fil0 {fill:none}
    .fil1 {fill:black}
   ]]>
  </style>
 </defs>
 <g id="Layer_x0020_1">
  <metadata id="CorelCorpID_0Corel-Layer"/>
  <rect class="fil0" width="512" height="512"/>
  <g id="_1701289364672">
   <path class="fil1 str0" d="M481 262c4,-22 -11,-34 -21,-45l-34 -34c-7,-7 -14,-15 -22,-22 -4,-4 -7,-8 -11,-12 -4,-4 -7,-7 -11,-11 -9,-9 -11,-15 -30,-15 -30,0 -59,0 -89,0 -60,0 -120,0 -179,0 -10,0 -37,-1 -44,2 -12,6 -9,22 -9,35l0 202c0,8 -1,14 3,19 7,11 22,8 37,8l268 0c18,0 26,1 36,-9 8,-8 15,-15 22,-23 8,-7 15,-15 23,-22l44 -45c7,-7 15,-13 17,-28zm-18 -1c3,-19 -10,-30 -20,-39l-31 -30c-7,-7 -13,-14 -20,-20 -4,-4 -7,-7 -10,-10 -4,-4 -7,-7 -10,-11 -9,-8 -11,-13 -28,-13 -27,1 -55,0 -82,0 -55,0 -110,0 -165,0 -9,0 -34,-1 -40,2 -12,6 -9,20 -9,31l0 178c0,8 -1,13 3,18 6,9 20,7 34,7l247 0c17,0 24,1 34,-8 7,-7 13,-14 20,-20 7,-7 14,-14 21,-20l40 -40c7,-6 13,-12 16,-25z"/>
   <ellipse class="fil1 str0" cx="365" cy="256" rx="29" ry="31"/>
  </g>
 </g>
</svg>
