<?xml version="1.0" encoding="UTF-8"?>
<!DOCTYPE svg PUBLIC "-//W3C//DTD SVG 1.1//EN" "http://www.w3.org/Graphics/SVG/1.1/DTD/svg11.dtd">
<!-- Creator: CorelDRAW X8 -->
<svg xmlns="http://www.w3.org/2000/svg" xml:space="preserve" width="512px" height="512px" version="1.1" style="shape-rendering:geometricPrecision; text-rendering:geometricPrecision; image-rendering:optimizeQuality; fill-rule:evenodd; clip-rule:evenodd"
viewBox="0 0 512 512"
 xmlns:xlink="http://www.w3.org/1999/xlink">
 <defs>
  <style type="text/css">
   <![CDATA[
    .fil0 {fill:none}
    .fil1 {fill:#FFFFFF}
   ]]>
  </style>
 </defs>
 <g id="Layer_x0020_1">
  <metadata id="CorelCorpID_0Corel-Layer"/>
  <rect class="fil0" width="512" height="512"/>
  <path class="fil1" d="M179 314c-11,-8 -18,-19 -28,-27l-35 -35c-17,-20 -46,-23 -67,-6 -9,6 -18,20 -18,37 0,19 9,29 17,38l83 82c8,8 17,20 30,25 16,6 33,3 45,-5 6,-4 132,-131 137,-136 37,-37 74,-74 111,-111 7,-7 19,-17 24,-31 17,-46 -40,-87 -79,-50 -16,15 -39,38 -55,55 -12,11 -161,162 -165,164z"/>
 </g>
</svg>
