<?xml version="1.0" encoding="UTF-8"?>
<!DOCTYPE svg PUBLIC "-//W3C//DTD SVG 1.1//EN" "http://www.w3.org/Graphics/SVG/1.1/DTD/svg11.dtd">
<!-- Creator: CorelDRAW X8 -->
<svg xmlns="http://www.w3.org/2000/svg" xml:space="preserve" width="512px" height="512px" version="1.1" style="shape-rendering:geometricPrecision; text-rendering:geometricPrecision; image-rendering:optimizeQuality; fill-rule:evenodd; clip-rule:evenodd"
viewBox="0 0 512 512"
 xmlns:xlink="http://www.w3.org/1999/xlink">
 <defs>
  <style type="text/css">
   <![CDATA[
    .fil0 {fill:none}
    .fil1 {fill:#000000}
   ]]>
  </style>
 </defs>
 <g id="Layer_x0020_1">
  <metadata id="CorelCorpID_0Corel-Layer"/>
  <rect class="fil0" width="512" height="512"/>
  <g id="_1702915654976">
   <g>
    <path class="fil1" d="M130 155c0,18 15,33 32,33 25,0 42,-35 62,-48 0,40 0,80 0,120 0,20 0,41 0,61 0,9 4,16 9,21 17,17 50,10 55,-18 2,-16 1,-160 1,-183 6,4 20,20 27,27 10,10 19,20 34,20 29,0 43,-36 23,-56l-95 -94c-12,-12 -31,-12 -44,-1 -16,15 -61,61 -79,79 -9,10 -25,21 -25,39z"/>
    <path class="fil1" d="M152 483l207 0c65,0 96,-70 71,-100 -13,-16 -44,-13 -53,8 -4,10 0,27 -19,27l-202 0c-28,0 -9,-23 -30,-39 -19,-13 -46,-5 -51,18 -7,27 11,58 34,74 11,7 26,12 43,12z"/>
   </g>
  </g>
 </g>
</svg>
