<?xml version="1.0" encoding="utf-8"?>
<!-- Generator: Adobe Illustrator 19.0.0, SVG Export Plug-In . SVG Version: 6.00 Build 0)  -->
<svg version="1.1" id="Layer_1" xmlns="http://www.w3.org/2000/svg" xmlns:xlink="http://www.w3.org/1999/xlink" width='51px' height='51px' x="0px" y="0px"
	 viewBox="0 0 512 512" style="enable-background:new 0 0 512 512;" xml:space="preserve">
<style type="text/css">
	.st0{fill:#FFFFFF;}
</style>
<title>compass navigation</title>
<g>
	<line class="st0" x1="256" y1="82" x2="256" y2="417"/>
	<rect x="250.5" y="82" width="11" height="334.9"/>
</g>
<g>
	<line class="st0" x1="423.5" y1="249.5" x2="88.5" y2="249.5"/>
	<rect x="88.5" y="244" width="334.9" height="11"/>
</g>
<g>
	<g>
		<line class="st0" x1="94" y1="249.5" x2="94" y2="279.8"/>
		<rect x="88.5" y="249.5" width="11" height="30.3"/>
	</g>
	<g>
		<line class="st0" x1="126.3" y1="249.5" x2="126.3" y2="269.8"/>
		<rect x="120.8" y="249.5" width="11" height="20.3"/>
	</g>
	<g>
		<line class="st0" x1="158.6" y1="249.5" x2="158.6" y2="279.8"/>
		<rect x="153.1" y="249.5" width="11" height="30.3"/>
	</g>
	<g>
		<line class="st0" x1="190.8" y1="249.5" x2="190.8" y2="269.8"/>
		<rect x="185.3" y="249.5" width="11" height="20.3"/>
	</g>
	<g>
		<line class="st0" x1="223.1" y1="249.5" x2="223.1" y2="279.8"/>
		<rect x="217.6" y="249.5" width="11" height="30.3"/>
	</g>
</g>
<g>
	<g>
		<line class="st0" x1="254.7" y1="282.4" x2="234.4" y2="282.4"/>
		<rect x="234.4" y="276.9" width="20.3" height="11"/>
	</g>
	<g>
		<line class="st0" x1="254.7" y1="314.7" x2="224.4" y2="314.7"/>
		<rect x="224.4" y="309.2" width="30.3" height="11"/>
	</g>
	<g>
		<line class="st0" x1="254.7" y1="347" x2="234.4" y2="347"/>
		<rect x="234.4" y="341.5" width="20.3" height="11"/>
	</g>
	<g>
		<line class="st0" x1="254.7" y1="379.2" x2="224.4" y2="379.2"/>
		<rect x="224.4" y="373.7" width="30.3" height="11"/>
	</g>
	<g>
		<line class="st0" x1="254.7" y1="411.5" x2="234.4" y2="411.5"/>
		<rect x="234.4" y="406" width="20.3" height="11"/>
	</g>
</g>
</svg>
