<?xml version="1.0" encoding="utf-8"?>
<!-- Generator: Adobe Illustrator 19.0.0, SVG Export Plug-In . SVG Version: 6.00 Build 0)  -->
<svg version="1.1" id="Layer_1" xmlns="http://www.w3.org/2000/svg" xmlns:xlink="http://www.w3.org/1999/xlink" width='51px' height='51px' x="0px" y="0px"
	 viewBox="0 0 512 512" style="enable-background:new 0 0 512 512;" xml:space="preserve">
<title>compass navigation</title>
<g>
	<g>
		<g>
			<polygon points="256.1,430.2 148.2,317.2 156.2,309.6 256.1,414.3 355.8,309.6 363.8,317.2 			"/>
		</g>
		<g>
			<g>
				<path d="M256,366.7c-78.6,0-142.5-63.9-142.5-142.5c0-78.5,63.9-142.5,142.5-142.5s142.5,63.9,142.5,142.5
					C398.5,302.8,334.6,366.7,256,366.7z M256,92.8c-72.5,0-131.5,59-131.5,131.5c0,72.5,59,131.5,131.5,131.5s131.5-59,131.5-131.5
					C387.5,151.8,328.5,92.8,256,92.8z"/>
			</g>
		</g>
	</g>
	<g>
		<path d="M248.2,257l-0.4-5c-1.2-10.4,2.3-21.8,12-33.4c8.7-10.2,13.5-17.8,13.5-26.4c0-9.8-6.2-16.4-18.3-16.6
			c-6.9,0-14.7,2.3-19.5,6l-4.6-12.2c6.4-4.6,17.4-7.7,27.6-7.7c22.2,0,32.2,13.7,32.2,28.4c0,13.1-7.3,22.6-16.6,33.6
			c-8.5,10-11.6,18.5-11,28.4l0.2,5H248.2z M243.9,284c0-7.1,4.8-12.2,11.6-12.2s11.4,5,11.4,12.2c0,6.8-4.4,12-11.6,12
			C248.5,296,243.9,290.8,243.9,284z"/>
	</g>
</g>
</svg>
