<?xml version="1.0" encoding="utf-8"?>
<!-- Generator: Adobe Illustrator 19.0.0, SVG Export Plug-In . SVG Version: 6.00 Build 0)  -->
<svg version="1.1" id="Layer_1" xmlns="http://www.w3.org/2000/svg" xmlns:xlink="http://www.w3.org/1999/xlink" width='51px' height='51px' x="0px" y="0px"
	 viewBox="0 0 512 512" style="enable-background:new 0 0 512 512;" xml:space="preserve">
<style type="text/css">
	.st0{fill:#FFFFFF;}
</style>
<title>compass navigation</title>
<g>
	<g>
		<path class="st0" d="M313.5,354.1l25.4-88.7v-73.9c0,0-1.4-20.6-18.9-20.6s-18.7,18.7-18.7,18.7v27.7v-46.5
			c0,0-1.5-16.8-20.8-16.8c-19.3,0-19.4,19.4-19.4,19.4v33.5V154c0,0-1.5-12.7-21.8-12.7c-5.6,0-18.2,3.7-18.2,12.7V98.7
			c0,0-2.6-16.7-18.9-16.7s-18.9,15.1-18.9,17s0,143.5,0,143.5L144,201.8c0,0-13.1-14-24.9-2.2s-4,24-4,24l54.3,85.6l21.8,44.9
			H313.5z"/>
		<path d="M317.7,359.6h-130l-23.1-47.7l-54.1-85.3c-3.5-5.5-7-19.1,4.8-30.8c4.2-4.2,9.3-6.4,14.6-6.3c9.9,0.2,17.4,7.8,18.2,8.7
			l29.7,30.8V99.1c0-4.5,4.3-22.5,24.4-22.5c16.6,0,23.2,13.9,24.4,21.3l0.1,0.4v40.5c4.4-2.1,9.1-3.1,12.7-3.1
			c22,0,26.3,13.1,27.1,16.7c3.6-2.4,8.3-4,14.1-4c18.3,0,24.9,12.9,26.1,20.7c3.4-2.3,7.8-3.8,13.4-3.8c17.9,0,23.8,16.9,24.4,25.8
			l0,0.4v74.7L317.7,359.6z M194.6,348.6h114.8l24.1-84v-72.9c-0.2-2.1-1.8-15.3-13.4-15.3c-11.7,0-13.1,11.5-13.2,13.4v27.5h-11
			v-46.2c-0.3-2.3-2.4-11.7-15.3-11.7c-13.4,0-13.9,12.4-13.9,14v33.5h-11v-52.4c-0.4-1.5-2.8-7.8-16.3-7.8
			c-3.9,0-12.7,2.7-12.7,7.2h-11V99.2c-0.5-2.2-3-11.7-13.4-11.7c-11.9,0-13.3,10.9-13.4,11.6v157l-48.7-50.5
			c-1.4-1.5-5.9-5.2-10.4-5.3c-2.3,0-4.5,1-6.6,3.1c-8.6,8.6-3.5,16.8-3.3,17.2l54.5,85.8l0.1,0.3L194.6,348.6z"/>
	</g>
	<g>
		<line class="st0" x1="221.1" y1="153.9" x2="221.1" y2="193.9"/>
		<rect x="215.6" y="153.9" width="11" height="40"/>
	</g>
</g>
<g>
	<g>
		<circle class="st0" cx="326.5" cy="347.1" r="69.9"/>
		<path d="M326.5,422.5c-41.6,0-75.4-33.8-75.4-75.4c0-41.6,33.8-75.4,75.4-75.4s75.4,33.8,75.4,75.4
			C401.9,388.6,368,422.5,326.5,422.5z M326.5,282.6c-35.5,0-64.4,28.9-64.4,64.4c0,35.5,28.9,64.4,64.4,64.4s64.4-28.9,64.4-64.4
			C390.9,311.5,362,282.6,326.5,282.6z"/>
	</g>
	<g>
		<path d="M320,362.3l-0.2-2.6c-0.6-5.4,1.2-11.3,6.2-17.4c4.5-5.3,7-9.2,7-13.7c0-5.1-3.2-8.5-9.5-8.6c-3.6,0-7.6,1.2-10.1,3.1
			l-2.4-6.3c3.3-2.4,9-4,14.4-4c11.5,0,16.8,7.1,16.8,14.8c0,6.8-3.8,11.7-8.6,17.5c-4.4,5.2-6,9.6-5.7,14.8l0.1,2.6H320z
			 M317.8,376.3c0-3.7,2.5-6.3,6-6.3c3.5,0,5.9,2.6,5.9,6.3c0,3.5-2.3,6.2-6,6.2C320.2,382.6,317.8,379.9,317.8,376.3z"/>
	</g>
</g>
</svg>
