<?xml version="1.0" encoding="utf-8"?>
<!-- Generator: Adobe Illustrator 19.0.0, SVG Export Plug-In . SVG Version: 6.00 Build 0)  -->
<svg version="1.1" id="Layer_1" xmlns="http://www.w3.org/2000/svg" xmlns:xlink="http://www.w3.org/1999/xlink" width='51px' height='51px' x="0px" y="0px"
	 viewBox="0 0 512 512" style="enable-background:new 0 0 512 512;" xml:space="preserve">
<style type="text/css">
	.st0{fill:#FFFFFF;}
</style>
<title>compass navigation</title>
<g>
	<path class="st0" d="M263,97.2c88.3,0,159.9,71.6,159.9,159.9S351.3,417,263,417s-159.9-71.6-159.9-159.9"/>
	<path d="M263,426c-93.1,0-168.9-75.8-168.9-168.9h18c0,83.2,67.7,150.9,150.9,150.9s150.9-67.7,150.9-150.9
		c0-83.2-67.7-150.9-150.9-150.9v-18c93.1,0,168.9,75.8,168.9,168.9S356.1,426,263,426z"/>
</g>
<g>
	<line class="st0" x1="241" y1="234.5" x2="108.5" y2="102"/>
	<rect x="81.1" y="158.3" transform="matrix(0.7071 0.7071 -0.7071 0.7071 170.1738 -74.2938)" width="187.4" height="20"/>
</g>
<g>
	<line class="st0" x1="263.6" y1="257.1" x2="251.8" y2="245.3"/>
	<rect x="249.4" y="241.2" transform="matrix(0.7071 0.7071 -0.7071 0.7071 253.0811 -108.6409)" width="16.7" height="20"/>
</g>
<g>
	<polygon class="st0" points="103.1,200.3 206.1,97.2 103.1,96.6 	"/>
	<path d="M94.1,222.1V87.6l133.5,0.8L94.1,222.1z M112.1,105.7v72.9l72.3-72.5L112.1,105.7z"/>
</g>
</svg>
