<?xml version="1.0" encoding="UTF-8"?>
<!DOCTYPE svg PUBLIC "-//W3C//DTD SVG 1.1//EN" "http://www.w3.org/Graphics/SVG/1.1/DTD/svg11.dtd">
<!-- Creator: CorelDRAW 2019 (64-Bit) -->
<svg xmlns="http://www.w3.org/2000/svg" xml:space="preserve" width="512px" height="512px" version="1.1" style="shape-rendering:geometricPrecision; text-rendering:geometricPrecision; image-rendering:optimizeQuality; fill-rule:evenodd; clip-rule:evenodd"
viewBox="0 0 512 512"
 xmlns:xlink="http://www.w3.org/1999/xlink"
 xmlns:xodm="http://www.corel.com/coreldraw/odm/2003">
 <defs>
  <style type="text/css">
   <![CDATA[
    .fil2 {fill:#FEFEFE}
    .fil0 {fill:#D9DADA}
    .fil1 {fill:#2B2A29}
   ]]>
  </style>
 </defs>
 <g id="Layer_x0020_1">
  <metadata id="CorelCorpID_0Corel-Layer"/>
  <circle class="fil0" cx="256" cy="256" r="256"/>
  <circle class="fil1" cx="256" cy="256" r="233.5"/>
  <g id="_2006464704112">
   <path class="fil2" d="M264.114 162.121l-5.932 0.018 -3.794 1.727 -3.284 -0.047 -1.675 1.674 -2.138 -0.071 -2.226 0.264 -2.837 1.378 -2.258 0.297 -2.566 1.43 -1.372 0c0,2.519 0.542,1.766 -2.238,1.564l-2.365 0.313 -2.096 1.524 -1.675 0 -1.675 1.675 -1.674 0 -1.675 1.773 -1.4 0 -1.949 1.577c0,2.373 0.535,1.707 -2.008,1.55l-1.342 0 -1.733 1.783 -1.616 0 -1.675 1.691 -1.839 1.622 -1.51 0 -1.675 1.727 -1.731 1.737 -3.293 1.508 -1.675 1.779 -1.674 1.868 -6.699 4.638 -1.675 1.868 -1.674 1.674 -1.675 1.675 -1.675 1.674 -1.674 1.675 -1.675 1.675 -1.675 1.675 -1.675 1.674 -1.674 1.675 -1.675 1.675 -1.674 1.675 -1.675 1.674 -1.675 1.675 -1.868 1.675 -4.638 6.698 -2.06 1.675 -1.512 3.237c0.039,2.371 0.628,1.787 -1.727,1.787l0 1.361c0.104,2.527 0.77,1.989 -1.593,1.989l-0.052 5.023c2.362,0 1.749,-0.565 1.655,1.872 3.57,4.02 1.227,3.062 8.445,3.182l1.675 -1.87 11.632 -11.513 1.766 -1.719 1.675 -1.674 1.674 -1.675 1.675 -1.675 1.848 -1.674c5.925,-7.71 10.208,-12.698 18.248,-18.298l1.675 -1.799 1.675 -1.772 3.349 -1.413c0,-2.486 -0.606,-1.861 1.922,-1.767l1.427 0c0,-2.547 -0.548,-1.786 2.262,-1.583l3.136 -0.028c1.586,-2.467 -0.269,-0.862 3.013,-1.311 0.205,-0.028 1.006,0.774 1.165,0.362 0.178,-0.462 0.872,0.326 1.22,0.621l0.927 0.085 1.675 1.782 1.782 1.675 -0.037 1.348c1.084,1.556 1.242,0.43 1.374,3.567 0.234,5.564 0.284,1.922 -1.6,3.214l0.031 3.148c0.156,2.661 0.867,2.121 -1.579,2.121l0 1.515 -1.495 2.31 -0.324 2.328c0.216,2.769 0.957,2.22 -1.573,2.22l0 1.348c0.091,2.539 0.764,2.001 -1.603,2.001l0 1.675 0 1.675 -1.779 1.674 0 1.274c0.132,2.619 0.827,2.076 -1.6,2.076l0 1.504 -1.495 2.304 -0.314 2.328c0.203,2.779 0.956,2.237 -1.563,2.237l0 1.423 -1.583 2.061 -0.232 2.666c0.24,2.776 0.979,2.224 -1.564,2.224l0 1.341c0.104,2.551 0.776,2.008 -1.609,2.008l0 1.569 -1.466 2.339 -0.317 2.345c0.156,2.67 0.865,2.121 -1.602,2.121l0 1.41 -1.525 2.264 -0.291 2.453c0.24,2.793 0.99,2.246 -1.554,2.246l0 1.362c0.092,2.532 0.758,1.988 -1.619,1.988l0 1.56 0.016 1.789 -1.798 1.674 0 1.229c0.156,2.667 0.866,2.121 -1.594,2.121l0 1.444 -1.524 2.247 -0.281 2.462c0.216,2.763 0.959,2.22 -1.554,2.22l0 1.437c0.067,2.456 0.708,1.913 -1.622,1.913l0 1.675 0 1.675 -1.799 1.674 0 1.198c0.155,2.691 0.879,2.151 -1.58,2.151l0 1.505 -1.495 2.303 -0.314 2.36c0.204,2.746 0.943,2.206 -1.553,2.206l0 1.47 -1.632 1.879 0 1.675 0 1.675 -1.8 1.675 0 1.198c0.156,2.69 0.88,2.151 -1.579,2.151l0 1.504 -1.479 2.354 -0.291 2.395c0.156,2.656 0.868,2.12 -1.567,2.12l0 1.569 0.017 1.781 -1.756 1.674 0 1.303 -1.486 2.431 -0.271 2.339c0.201,2.827 0.985,2.301 -1.527,2.301l-0.177 2.656c0.235,2.89 1.044,2.368 -1.498,2.368l-0.177 2.657c0.235,2.883 1.045,2.367 -1.481,2.367l-0.174 2.643 -1.423 2.689 -0.183 2.474 0.105 2.242 -1.704 1.675 -0.134 2.563 0.163 2.461 -1.691 1.675 0.067 3.221 -1.737 3.791 0.017 6.012 -1.585 6.076 -0.175 7.515 1.867 5.217 -0.113 3.336c2.433,0 1.705,-0.528 1.551,2.151l0 1.198c2.476,0 1.83,-0.585 1.695,1.985l0 1.365 1.779 1.675 1.675 1.674 1.674 1.675 1.675 1.799 4.495 1.743c2.765,-0.242 2.204,-0.968 2.204,1.587l1.171 0 2.178 -0.105 1.675 1.704 2.096 -0.137 3.95 0.217 17.388 -0.384 6.3 0.26 3.802 -1.731 3.103 0.048 1.878 -1.652 2.139 0.072 2.275 -0.264 2.569 -1.43 1.391 0 1.675 -1.727 1.788 0.016 1.561 0c0,-2.425 -0.538,-1.717 2.101,-1.586l1.248 0c0,-2.573 -0.559,-1.827 2.247,-1.586l2.329 -0.353 2.123 -1.613 1.391 0 1.959 -1.655 1.455 0 1.894 -1.789 3.35 -1.319c0,-2.493 -0.605,-1.864 1.94,-1.756l1.409 0 1.674 -1.854 3.35 -1.404c0,-2.45 -0.618,-1.862 1.813,-1.805l1.536 0 1.675 -1.718 1.813 -1.632 3.211 -1.524 1.675 -1.966 3.349 -1.472 1.675 -1.779 1.674 -1.842 5.025 -3.019 1.674 -1.838 1.675 -1.675 1.723 -1.808c7.165,-4.438 16.936,-14.47 21.53,-21.637l1.867 -1.675 1.838 -1.674 1.541 -3.263 1.645 -1.762 1.727 -1.675 0 -1.487c-0.068,-2.449 -0.679,-1.862 1.727,-1.862l0 -1.299c-0.132,-2.596 -0.816,-2.05 1.6,-2.05l0 -1.421 -0.013 -5.419 0 -1.534 -1.691 -1.674 -1.675 -1.779 -0.823 -0.066 -3.917 0.411 -5.308 2.915 -1.674 1.868 -1.675 1.675 -1.675 1.674 -1.675 1.675 -1.847 1.675 -9.725 11.723 -1.825 1.675 -1.675 1.674 -1.675 1.675 -1.674 1.674 -1.675 1.675 -1.675 1.675 -1.723 1.851 -6.65 4.684 -1.675 1.838 -1.839 1.623 -1.51 0 -1.675 1.877 -1.253 0 -2.096 1.524 -1.97 -0.117c-1.803,1.79 -3.439,4.684 -5.858,-0.273l-2.047 -1.284 -1.848 -1.675 0.026 -1.76c-3.221,-2.432 -2.563,-2.663 -0.15,-5.636l0.248 -3.607 -0.124 -2.395 1.717 -1.674 0 -1.379 -0.042 -1.97 1.716 -1.675 0 -1.429 1.44 -2.51 0.317 -2.314c-0.156,-2.657 -0.868,-2.121 1.567,-2.121l0 -1.586 1.56 -2.074 0.291 -2.467c-0.24,-2.794 -0.989,-2.246 1.554,-2.246l0 -1.329 1.495 -2.39 0.271 -2.393c-0.202,-2.794 -0.967,-2.262 1.54,-2.262l0 -1.504 1.479 -2.354 0.271 -2.414c-0.13,-2.633 -0.84,-2.101 1.571,-2.101l0 -1.675 0 -1.674 1.756 -1.675 0 -1.282 1.485 -2.437 0.272 -2.417c-0.203,-2.772 -0.958,-2.238 1.54,-2.238l0 -1.504 1.486 -2.334 0.284 -2.354c-0.155,-2.708 -0.894,-2.181 1.55,-2.181l0 -1.675 0 -1.674 1.757 -1.675 0 -1.282 1.485 -2.437 0.281 -2.383c-0.214,-2.803 -0.983,-2.272 1.531,-2.272l0 -1.504 1.495 -2.305 0.274 -2.383c-0.154,-2.714 -0.893,-2.182 1.567,-2.182l0 -1.56 -0.016 -1.789 1.756 -1.674 0 -1.282 1.495 -2.403 0.271 -2.417c-0.213,-2.803 -0.982,-2.272 1.531,-2.272l0 -1.504 1.495 -2.305 0.274 -2.414c-0.154,-2.685 -0.88,-2.15 1.567,-2.15l0 -1.561 -0.016 -1.789 1.757 -1.674 0 -1.282 1.495 -2.404 0.271 -2.451c-0.215,-2.775 -0.967,-2.237 1.543,-2.237l0 -1.429 1.483 -2.379 0.274 -2.415c-0.155,-2.685 -0.88,-2.15 1.567,-2.15l0 -1.561 -0.016 -1.789 1.756 -1.675 0 -1.302 1.485 -2.431 0.271 -2.339c-0.2,-2.821 -0.986,-2.301 1.512,-2.301l0.163 -2.683 1.433 -2.649 -0.032 -3.16 1.91 -3.231 -0.137 -4.725 1.759 -5.625 -0.285 -10.316 -1.334 -3.356 -0.17 -2.689 -0.151 -2.845 -1.465 -2.358 0 -1.58 -1.675 -1.749 -1.498 -3.275 -1.868 -1.675 -1.674 -1.674 -1.675 -1.675 -1.675 -1.727 -1.494 0c-2.443,0.069 -1.855,0.677 -1.855,-1.727l-1.314 0c-2.581,0.133 -2.035,0.811 -2.035,-1.599l-1.486 0 -1.864 0.029 -1.675 -1.691 -3.349 0.122 -5.326 -1.853 -13.931 0.22 -6.251 1.504z"/>
   <path class="fil2" d="M297.996 58.313l-2.092 -0.072 -1.258 0 -1.675 1.747 -1.674 0.039 -1.551 0 -1.799 1.675 -1.564 0 -1.785 1.635 -1.801 1.633 -3.223 1.524 -1.675 1.867 -1.674 1.675 -1.675 1.675 -1.675 1.675 -1.756 1.674 0 1.456c0.105,2.437 0.73,1.894 -1.593,1.894l-1.704 1.674 0 1.541 -1.662 1.809 0 1.569 0.016 1.78 -1.727 1.675 0.152 1.872 -1.779 3.531 -0.099 14.762 1.8 3.568 -0.022 3.062c2.421,0 1.706,-0.53 1.551,2.12l0 1.229c2.545,0 1.846,-0.574 1.626,2.139l0 1.211c2.45,0 1.862,-0.619 1.805,1.813l1.544 3.21 1.848 1.675 1.675 1.868 5.024 2.963 1.674 1.885 1.586 0 2.012 1.579 2.435 0.242c2.86,-0.199 2.341,-1.002 2.341,1.512l3.58 -0.109 4.617 0.028 10.125 -0.03 4.163 0.239 4.31 -0.128 1.675 -1.675 1.949 0.042 1.4 0c0,-2.531 -0.535,-1.762 2.282,-1.524l2.321 -0.343 2.096 -1.691 3.349 -1.345 1.675 -1.916 5.024 -3.078 1.675 -1.868 1.848 -1.675 2.983 -5.024 1.94 -1.674 0 -1.442c-0.094,-2.482 -0.721,-1.908 1.684,-1.908l0 -1.361c-0.104,-2.533 -0.768,-1.988 1.609,-1.988l0.177 -2.657 1.374 -2.854 -0.033 -3.2 0 -14.398 0.033 -3.2 -1.374 -2.853 -0.193 -2.657 -1.645 -1.809 0 -1.541 -1.812 -1.674 -1.463 -3.35 -1.779 -1.675 -1.675 -1.675 -1.674 -1.867 -3.2 -1.534 -1.824 -1.622 -1.977 -1.567 -1.373 0 -1.674 -0.108 -1.675 -1.757 -1.262 0 -2.088 0.082 -1.674 -1.675 -4.414 -0.087 -15.266 0.315 -3.766 -0.228 -1.674 1.675z"/>
   <path class="fil2" d="M210.9 428.146l-17.388 0.384 0 1.88c7.171,-0.131 12.074,0.993 17.388,-2.264z"/>
   <polygon class="fil2" points="318.702,56.551 318.702,54.964 303.436,54.964 303.436,56.866 "/>
   <path class="fil2" d="M351.445 101.518c3.6,-3.14 2.702,-10.89 0,-14.398l0 14.398z"/>
   <polygon class="fil2" points="307.944,140.391 307.944,138.588 297.819,138.618 297.819,140.546 "/>
   <path class="fil2" d="M267.556 381.412l-5.858 -0.273c2.419,4.957 4.055,2.063 5.858,0.273z"/>
   <path class="fil2" d="M230.852 210.466c1.884,-1.292 1.834,2.35 1.6,-3.214 -0.132,-3.137 -0.29,-2.011 -1.374,-3.567l-0.226 6.781z"/>
   <path class="fil2" d="M329.844 344.94c3.271,-2.801 3.381,-2.702 -0.013,-5.419l0.013 5.419z"/>
   <path class="fil2" d="M325.642 334.468c0,-5.699 -3.32,-0.63 -3.917,0.411l3.917 -0.411z"/>
   <path class="fil2" d="M257.829 376.42l-0.15 -5.636c-2.413,2.973 -3.071,3.204 0.15,5.636z"/>
   <path class="fil2" d="M226.731 198.795c-0.348,-0.295 -1.042,-1.083 -1.22,-0.621 -0.159,0.412 -0.96,-0.39 -1.165,-0.362 -3.282,0.449 -1.427,-1.156 -3.013,1.311l5.398 -0.328z"/>
   <polygon class="fil2" points="297.819,140.546 297.819,138.618 293.202,138.59 "/>
   <polygon class="fil2" points="312.107,138.827 307.944,138.588 307.944,140.391 "/>
   <polygon class="fil2" points="193.512,430.41 193.512,428.53 189.562,428.313 "/>
   <polygon class="fil2" points="317.879,191.719 318.376,188.363 316.545,188.363 "/>
   <polygon class="fil2" points="316.545,188.363 318.376,188.363 316.375,185.674 "/>
   <path class="fil2" d="M232.966 423.449l-2.569 1.43c3.063,0.229 2.569,1.129 2.569,-1.43z"/>
   <path class="fil2" d="M239.97 167.361c-3.06,-0.23 -2.566,-1.129 -2.566,1.43l2.566 -1.43z"/>
   <path class="fil2" d="M262.634 354.145l-1.44 2.51c2.546,0 1.671,0.499 1.44,-2.51z"/>
   <path class="fil2" d="M175.55 349.017l-1.498 2.368c2.542,0 1.733,0.522 1.498,-2.368z"/>
   <path class="fil2" d="M173.875 354.042l-1.481 2.367c2.526,0 1.716,0.516 1.481,-2.367z"/>
   <path class="fil2" d="M244.977 418.566c-2.806,-0.241 -2.247,-0.987 -2.247,1.586l2.247 -1.586z"/>
   <path class="fil2" d="M218.197 199.151c-2.81,-0.203 -2.262,-0.964 -2.262,1.583l2.262 -1.583z"/>
   <path class="fil2" d="M289.622 138.699c0,-2.514 0.519,-1.711 -2.341,-1.512l2.341 1.512z"/>
   <path class="fil2" d="M316.224 182.829c0.235,-2.869 1.043,-2.358 -1.465,-2.358l1.465 2.358z"/>
   <path class="fil2" d="M323.723 135.542c-2.817,-0.238 -2.282,-1.007 -2.282,1.524l2.282 -1.524z"/>
   <path class="fil2" d="M306.219 242.071l-1.483 2.379c2.489,0 1.665,0.505 1.483,-2.379z"/>
   <path class="fil2" d="M267.923 341.337c-2.543,0 -1.794,-0.548 -1.554,2.246l1.554 -2.246z"/>
   <path class="fil2" d="M207.369 270.428l-1.554 2.246c2.544,0 1.794,0.547 1.554,-2.246z"/>
   <path class="fil2" d="M182.442 426.851c0,-2.555 0.561,-1.829 -2.204,-1.587l2.204 1.587z"/>
   <path class="fil2" d="M212.57 257.496c-2.501,0 -1.701,-0.511 -1.466,2.339l1.466 -2.339z"/>
   <path class="fil2" d="M177.254 344.06l-1.527 2.301c2.512,0 1.728,0.526 1.527,-2.301z"/>
   <path class="fil2" d="M184.087 326.094c-2.492,0 -1.682,-0.508 -1.479,2.354l1.479 -2.354z"/>
   <path class="fil2" d="M272.708 329.105l-1.479 2.354c2.493,0 1.682,0.508 1.479,-2.354z"/>
   <path class="fil2" d="M215.743 250.354l-1.564 2.224c2.543,0 1.804,0.552 1.564,-2.224z"/>
   <path class="fil2" d="M287.977 289.421c-2.514,0 -1.745,-0.531 -1.531,2.272l1.531 -2.272z"/>
   <path class="fil2" d="M296.35 267.65c-2.513,0 -1.744,-0.531 -1.531,2.272l1.531 -2.272z"/>
   <path class="fil2" d="M227.485 221.888l-1.573 2.22c2.53,0 1.789,0.549 1.573,-2.22z"/>
   <path class="fil2" d="M313.068 224.108c-2.498,0 -1.712,-0.52 -1.512,2.301l1.512 -2.301z"/>
   <path class="fil2" d="M281.089 307.354l-1.486 2.334c2.484,0 1.681,0.509 1.486,-2.334z"/>
   <path class="fil2" d="M219.121 241.967l-1.563 2.237c2.519,0 1.766,0.542 1.563,-2.237z"/>
   <path class="fil2" d="M236.032 168.791l-2.238 1.564c2.78,0.202 2.238,0.955 2.238,-1.564z"/>
   <path class="fil2" d="M271.229 332.963c-2.507,0 -1.742,-0.532 -1.54,2.262l1.54 -2.262z"/>
   <path class="fil2" d="M304.736 245.879c-2.51,0 -1.758,-0.538 -1.543,2.237l1.543 -2.237z"/>
   <path class="fil2" d="M199.015 290.55l-1.554 2.22c2.513,0 1.77,0.543 1.554,-2.22z"/>
   <path class="fil2" d="M328.14 133.508l-2.096 1.691c2.69,0.193 2.096,0.872 2.096,-1.691z"/>
   <path class="fil2" d="M267.678 120.741c0.22,-2.713 0.919,-2.139 -1.626,-2.139l1.626 2.139z"/>
   <polygon class="fil2" points="169.044,373.156 168.881,370.695 167.369,373.156 "/>
   <path class="fil2" d="M229.304 217.25c-2.473,0 -1.679,-0.511 -1.495,2.31l1.495 -2.31z"/>
   <path class="fil2" d="M279.603 311.192c-2.498,0 -1.743,-0.534 -1.54,2.238l1.54 -2.238z"/>
   <path class="fil2" d="M297.845 263.841l-1.495 2.305c2.47,0 1.679,0.511 1.495,-2.305z"/>
   <path class="fil2" d="M289.472 285.612l-1.495 2.305c2.47,0 1.678,0.511 1.495,-2.305z"/>
   <path class="fil2" d="M192.46 305.998c-2.47,0 -1.678,-0.511 -1.495,2.303l1.495 -2.303z"/>
   <path class="fil2" d="M220.93 237.335c-2.47,0 -1.679,-0.511 -1.495,2.304l1.495 -2.304z"/>
   <path class="fil2" d="M190.651 310.661l-1.553 2.206c2.496,0 1.757,0.54 1.553,-2.206z"/>
   <path class="fil2" d="M249.429 416.6l-2.123 1.613c2.688,0.203 2.123,0.9 2.123,-1.613z"/>
   <polygon class="fil2" points="259.478,364.782 257.803,364.782 257.927,367.177 "/>
   <path class="fil2" d="M209.185 265.711c-2.429,0 -1.645,-0.506 -1.525,2.264l1.525 -2.264z"/>
   <path class="fil2" d="M291.313 281.047c-2.46,0 -1.721,-0.532 -1.567,2.182l1.567 -2.182z"/>
   <path class="fil2" d="M200.82 285.841c-2.43,0 -1.656,-0.51 -1.524,2.247l1.524 -2.247z"/>
   <path class="fil2" d="M194.04 302.342l-1.58 2.151c2.459,0 1.735,0.54 1.58,-2.151z"/>
   <path class="fil2" d="M185.666 322.439l-1.579 2.151c2.459,0 1.735,0.539 1.579,-2.151z"/>
   <path class="fil2" d="M282.923 302.819c-2.444,0 -1.705,-0.527 -1.55,2.181l1.55 -2.181z"/>
   <path class="fil2" d="M210.787 262.18l-1.602 2.121c2.467,0 1.758,0.549 1.602,-2.121z"/>
   <path class="fil2" d="M299.686 259.277c-2.447,0 -1.721,-0.535 -1.567,2.15l1.567 -2.15z"/>
   <path class="fil2" d="M308.06 237.506c-2.447,0 -1.722,-0.535 -1.567,2.15l1.567 -2.15z"/>
   <path class="fil2" d="M202.414 282.276l-1.594 2.121c2.46,0 1.75,0.546 1.594,-2.121z"/>
   <path class="fil2" d="M230.883 213.614l-1.579 2.121c2.446,0 1.735,0.54 1.579,-2.121z"/>
   <path class="fil2" d="M167.245 412.15c0.154,-2.679 0.882,-2.151 -1.551,-2.151l1.551 2.151z"/>
   <path class="fil2" d="M264.518 349.71c-2.435,0 -1.723,-0.536 -1.567,2.121l1.567 -2.121z"/>
   <path class="fil2" d="M182.317 330.843l-1.567 2.12c2.435,0 1.723,0.536 1.567,-2.12z"/>
   <path class="fil2" d="M266.052 117.373c0.155,-2.65 0.87,-2.12 -1.551,-2.12l1.551 2.12z"/>
   <path class="fil2" d="M241.482 420.152c-2.639,-0.131 -2.101,-0.839 -2.101,1.586l2.101 -1.586z"/>
   <path class="fil2" d="M168.94 415.333c0.135,-2.57 0.781,-1.985 -1.695,-1.985l1.695 1.985z"/>
   <path class="fil2" d="M261.418 410.081c-2.545,-0.108 -1.94,-0.737 -1.94,1.756l1.94 -1.756z"/>
   <path class="fil2" d="M222.53 233.755l-1.6 2.076c2.427,0 1.732,0.543 1.6,-2.076z"/>
   <path class="fil2" d="M274.55 324.59c-2.411,0 -1.701,-0.532 -1.571,2.101l1.571 -2.101z"/>
   <path class="fil2" d="M256.128 413.156l-1.894 1.789c2.514,0.104 1.894,0.712 1.894,-1.789z"/>
   <path class="fil2" d="M271.622 380.005c-2.625,-0.188 -2.096,-0.887 -2.096,1.524l2.096 -1.524z"/>
   <path class="fil2" d="M214.508 200.734c-2.528,-0.094 -1.922,-0.719 -1.922,1.767l1.922 -1.767z"/>
   <path class="fil2" d="M231.429 170.668c-2.625,-0.188 -2.096,-0.887 -2.096,1.524l2.096 -1.524z"/>
   <polygon class="fil2" points="170.719,366.457 170.614,364.215 169.044,366.457 "/>
   <path class="fil2" d="M329.844 346.361c-2.416,0 -1.732,-0.546 -1.6,2.05l1.6 -2.05z"/>
   <path class="fil2" d="M300.031 165.389l-2.035 -1.599c0,2.41 -0.546,1.732 2.035,1.599z"/>
   <path class="fil2" d="M266.078 346.05l-1.56 2.074c2.383,0 1.683,0.527 1.56,-2.074z"/>
   <path class="fil2" d="M252.779 414.945l-1.959 1.655c2.528,0.126 1.959,0.768 1.959,-1.655z"/>
   <polygon class="fil2" points="185.791,428.42 185.791,426.746 183.613,426.851 "/>
   <path class="fil2" d="M214.179 253.919l-1.609 2.008c2.385,0 1.713,0.543 1.609,-2.008z"/>
   <path class="fil2" d="M219.285 177.217l-2.008 1.55c2.543,0.157 2.008,0.823 2.008,-1.55z"/>
   <path class="fil2" d="M205.815 274.036l-1.619 1.988c2.377,0 1.711,0.544 1.619,-1.988z"/>
   <path class="fil2" d="M349.927 110.229c-2.377,0 -1.713,-0.545 -1.609,1.988l1.609 -1.988z"/>
   <path class="fil2" d="M225.912 225.456l-1.603 2.001c2.367,0 1.694,0.538 1.603,-2.001z"/>
   <polygon class="fil2" points="228.122,425.143 225.983,425.071 225.983,426.746 "/>
   <polygon class="fil2" points="249.429,165.493 249.429,163.819 247.291,165.422 "/>
   <path class="fil2" d="M348.318 113.578c-2.405,0 -1.778,-0.574 -1.684,1.908l1.684 -1.908z"/>
   <path class="fil2" d="M284.846 136.945l-2.012 -1.579c0,2.357 -0.53,1.679 2.012,1.579z"/>
   <path class="fil2" d="M269.483 123.765c0.057,-2.432 0.645,-1.813 -1.805,-1.813l1.805 1.813z"/>
   <path class="fil2" d="M269.664 405.018c-2.431,-0.057 -1.813,-0.645 -1.813,1.805l1.813 -1.805z"/>
   <path class="fil2" d="M157.239 235.517l-1.593 1.989c2.363,0 1.697,0.538 1.593,-1.989z"/>
   <path class="fil2" d="M334.839 61.663c0,-2.36 0.537,-1.704 -1.977,-1.567l1.977 1.567z"/>
   <path class="fil2" d="M328.244 349.71c-2.406,0 -1.795,-0.587 -1.727,1.862l1.727 -1.862z"/>
   <path class="fil2" d="M303.2 167.116l-1.855 -1.727c0,2.404 -0.588,1.796 1.855,1.727z"/>
   <polygon class="fil2" points="297.996,58.313 297.996,56.638 295.904,58.241 "/>
   <polygon class="fil2" points="326.878,58.231 324.79,56.638 324.79,58.313 "/>
   <path class="fil2" d="M221.234 175.64c-2.489,-0.125 -1.949,-0.771 -1.949,1.577l1.949 -1.577z"/>
   <path class="fil2" d="M157.249 244.401c0.094,-2.437 0.707,-1.872 -1.655,-1.872l1.655 1.872z"/>
   <path class="fil2" d="M197.461 294.207l-1.622 1.913c2.33,0 1.689,0.543 1.622,-1.913z"/>
   <path class="fil2" d="M287.947 368.132c-2.349,0 -1.723,-0.567 -1.723,1.851l1.723 -1.851z"/>
   <path class="fil2" d="M271.119 76.516l-1.593 1.894c2.323,0 1.698,0.543 1.593,-1.894z"/>
   <path class="fil2" d="M158.966 232.369l-1.727 1.787c2.355,0 1.766,0.584 1.727,-1.787z"/>
   <polygon class="fil2" points="261.152,359.759 259.478,359.759 259.52,361.729 "/>
   <polygon class="fil2" points="320.041,137.066 318.092,137.024 318.092,138.699 "/>
   <polygon class="fil2" points="225.983,426.746 225.983,425.071 224.105,426.723 "/>
   <polygon class="fil2" points="296.51,163.79 294.646,162.144 294.646,163.819 "/>
   <polygon class="fil2" points="292.971,277.698 291.297,277.698 291.313,279.487 "/>
   <polygon class="fil2" points="237.82,421.738 236.032,421.722 236.032,423.397 "/>
   <polygon class="fil2" points="301.345,255.927 299.67,255.927 299.686,257.716 "/>
   <polygon class="fil2" points="204.212,279.373 204.196,277.584 202.538,279.373 "/>
   <polygon class="fil2" points="309.718,234.156 308.044,234.156 308.06,235.945 "/>
   <polygon class="fil2" points="266.176,86.783 266.16,85.003 264.501,86.783 "/>
   <polygon class="fil2" points="180.767,336.313 180.75,334.532 179.092,336.313 "/>
   <polygon class="fil2" points="266.176,86.783 264.501,86.783 264.449,88.458 "/>
   <polygon class="fil2" points="276.225,321.241 276.306,319.566 274.55,321.241 "/>
   <polygon class="fil2" points="299.67,56.638 297.996,56.638 297.996,58.313 "/>
   <polygon class="fil2" points="187.466,319.566 185.791,319.566 185.666,321.241 "/>
   <polygon class="fil2" points="284.598,299.47 284.68,297.795 282.923,299.47 "/>
   <polygon class="fil2" points="187.466,319.566 187.466,317.891 185.791,319.566 "/>
   <polygon class="fil2" points="318.092,138.699 318.092,137.024 316.417,138.699 "/>
   <polygon class="fil2" points="224.309,230.807 224.309,229.132 222.634,230.807 "/>
   <polygon class="fil2" points="261.152,359.759 261.194,358.084 259.478,359.759 "/>
   <polygon class="fil2" points="259.478,364.782 259.52,363.108 257.803,364.782 "/>
   <polygon class="fil2" points="169.044,373.156 167.369,373.156 167.353,374.831 "/>
   <polygon class="fil2" points="236.032,423.397 236.032,421.722 234.357,423.449 "/>
   <polygon class="fil2" points="170.719,366.457 169.044,366.457 169.015,368.132 "/>
   <polygon class="fil2" points="276.225,321.241 274.55,321.241 274.55,322.915 "/>
   <polygon class="fil2" points="284.598,299.47 282.923,299.47 282.923,301.144 "/>
   <polygon class="fil2" points="294.646,163.819 294.646,162.144 292.971,162.128 "/>
   <polygon class="fil2" points="224.309,230.807 222.634,230.807 222.53,232.481 "/>
   <polygon class="fil2" points="292.971,277.698 293.053,276.024 291.297,277.698 "/>
   <polygon class="fil2" points="204.212,279.373 202.538,279.373 202.414,281.047 "/>
   <polygon class="fil2" points="195.839,299.47 195.839,297.795 194.164,299.47 "/>
   <polygon class="fil2" points="324.79,58.313 324.79,56.638 323.116,56.638 "/>
   <polygon class="fil2" points="292.971,59.988 292.971,58.313 291.297,60.027 "/>
   <polygon class="fil2" points="329.815,59.988 329.815,58.313 328.14,58.231 "/>
   <polygon class="fil2" points="309.718,234.156 309.8,232.481 308.044,234.156 "/>
   <polygon class="fil2" points="251.104,163.819 249.429,163.819 249.429,165.493 "/>
   <polygon class="fil2" points="187.466,428.45 185.791,426.746 185.791,428.42 "/>
   <polygon class="fil2" points="180.767,336.313 179.092,336.313 179.011,337.987 "/>
   <polygon class="fil2" points="301.345,255.927 301.427,254.253 299.67,255.927 "/>
   <polygon class="fil2" points="294.646,58.241 292.971,58.313 292.971,59.988 "/>
   <polygon class="fil2" points="331.489,60.096 329.815,58.313 329.815,59.988 "/>
   <polygon class="fil2" points="195.839,299.47 194.164,299.47 194.04,301.144 "/>
   <polygon class="fil2" points="274.55,130.518 272.875,128.65 "/>
   <polygon class="fil2" points="333.164,130.247 331.489,132.163 "/>
   <polygon class="fil2" points="281.248,135.366 279.574,133.481 "/>
   <polygon class="fil2" points="270.365,160.617 264.114,162.121 "/>
   <polygon class="fil2" points="289.622,162.25 284.296,160.397 "/>
   <polygon class="fil2" points="258.182,162.139 254.388,163.866 "/>
   <polygon class="fil2" points="349.911,78.41 348.266,76.601 "/>
   <polygon class="fil2" points="351.478,83.92 350.104,81.067 "/>
   <polygon class="fil2" points="245.065,165.686 242.228,167.064 "/>
   <polygon class="fil2" points="306.369,168.843 304.694,167.116 "/>
   <polygon class="fil2" points="308.044,170.518 306.369,168.843 "/>
   <polygon class="fil2" points="309.718,172.192 308.044,170.518 "/>
   <polygon class="fil2" points="227.658,172.192 225.983,173.867 "/>
   <polygon class="fil2" points="311.586,173.867 309.718,172.192 "/>
   <polygon class="fil2" points="224.309,173.867 222.634,175.64 "/>
   <polygon class="fil2" points="314.759,178.891 313.084,177.142 "/>
   <polygon class="fil2" points="215.935,178.767 214.202,180.55 "/>
   <polygon class="fil2" points="212.586,180.55 210.911,182.241 "/>
   <polygon class="fil2" points="210.911,182.241 209.072,183.863 "/>
   <polygon class="fil2" points="207.562,183.863 205.887,185.59 "/>
   <polygon class="fil2" points="205.887,185.59 204.156,187.327 "/>
   <polygon class="fil2" points="200.863,188.835 199.188,190.614 "/>
   <polygon class="fil2" points="199.188,190.614 197.514,192.482 "/>
   <polygon class="fil2" points="217.558,245.627 215.975,247.688 "/>
   <polygon class="fil2" points="302.922,250.567 301.427,252.971 "/>
   <polygon class="fil2" points="167.369,245.713 165.694,247.583 "/>
   <polygon class="fil2" points="185.791,227.457 184.116,229.132 "/>
   <polygon class="fil2" points="162.538,227.457 160.478,229.132 "/>
   <polygon class="fil2" points="187.639,225.783 185.791,227.457 "/>
   <polygon class="fil2" points="189.098,314.337 187.466,316.216 "/>
   <polygon class="fil2" points="277.791,315.847 276.306,318.284 "/>
   <polygon class="fil2" points="314.664,218.776 313.231,221.425 "/>
   <polygon class="fil2" points="169.044,219.084 167.176,220.759 "/>
   <polygon class="fil2" points="170.719,217.409 169.044,219.084 "/>
   <polygon class="fil2" points="172.394,215.735 170.719,217.409 "/>
   <polygon class="fil2" points="314.632,215.616 316.542,212.385 "/>
   <polygon class="fil2" points="328.14,336.313 326.465,334.534 "/>
   <polygon class="fil2" points="289.746,60.027 287.947,61.702 "/>
   <polygon class="fil2" points="329.831,337.987 328.14,336.313 "/>
   <polygon class="fil2" points="269.418,337.618 267.923,340.008 "/>
   <polygon class="fil2" points="316.417,337.794 314.743,339.662 "/>
   <polygon class="fil2" points="179.011,339.29 177.525,341.721 "/>
   <polygon class="fil2" points="314.743,339.662 313.068,341.337 "/>
   <polygon class="fil2" points="286.383,61.702 284.598,63.337 "/>
   <polygon class="fil2" points="313.068,341.337 311.393,343.011 "/>
   <polygon class="fil2" points="311.393,343.011 309.718,344.686 "/>
   <polygon class="fil2" points="174.068,214.06 172.394,215.735 "/>
   <polygon class="fil2" points="175.743,212.385 174.068,214.06 "/>
   <polygon class="fil2" points="309.718,344.686 307.871,346.361 "/>
   <polygon class="fil2" points="286.165,294.076 284.68,296.513 "/>
   <polygon class="fil2" points="336.663,63.285 334.839,61.663 "/>
   <polygon class="fil2" points="177.417,210.71 175.743,212.385 "/>
   <polygon class="fil2" points="179.092,209.036 177.417,210.71 "/>
   <polygon class="fil2" points="284.598,63.337 282.797,64.97 "/>
   <polygon class="fil2" points="326.517,353.059 324.79,354.734 "/>
   <polygon class="fil2" points="180.767,207.361 179.092,209.036 "/>
   <polygon class="fil2" points="316.405,207.66 318.164,202.035 "/>
   <polygon class="fil2" points="324.79,354.734 323.145,356.496 "/>
   <polygon class="fil2" points="341.537,66.686 339.863,64.819 "/>
   <polygon class="fil2" points="298.146,358.084 296.321,359.759 "/>
   <polygon class="fil2" points="172.22,359.052 170.797,361.741 "/>
   <polygon class="fil2" points="279.574,66.494 277.899,68.361 "/>
   <polygon class="fil2" points="296.321,359.759 294.646,361.433 "/>
   <polygon class="fil2" points="321.604,359.759 319.766,361.433 "/>
   <polygon class="fil2" points="294.646,361.433 292.971,363.108 "/>
   <polygon class="fil2" points="319.766,361.433 317.899,363.108 "/>
   <polygon class="fil2" points="343.212,68.361 341.537,66.686 "/>
   <polygon class="fil2" points="292.971,363.108 291.297,364.782 "/>
   <polygon class="fil2" points="311.285,228.748 309.8,231.179 "/>
   <polygon class="fil2" points="207.562,205.686 205.887,207.485 "/>
   <polygon class="fil2" points="291.297,364.782 289.622,366.457 "/>
   <polygon class="fil2" points="277.899,68.361 276.225,70.036 "/>
   <polygon class="fil2" points="289.622,366.457 287.947,368.132 "/>
   <polygon class="fil2" points="344.991,70.036 343.212,68.361 "/>
   <polygon class="fil2" points="182.442,205.686 180.767,207.361 "/>
   <polygon class="fil2" points="276.225,70.036 274.55,71.711 "/>
   <polygon class="fil2" points="209.237,203.914 207.562,205.686 "/>
   <polygon class="fil2" points="279.574,374.667 277.899,376.505 "/>
   <polygon class="fil2" points="274.55,71.711 272.875,73.386 "/>
   <polygon class="fil2" points="259.651,379.855 257.803,378.18 "/>
   <polygon class="fil2" points="274.55,378.128 272.875,380.005 "/>
   <polygon class="fil2" points="165.683,381.843 167.42,378.052 "/>
   <polygon class="fil2" points="182.442,230.807 180.767,232.481 "/>
   <polygon class="fil2" points="184.116,204.011 182.442,205.686 "/>
   <polygon class="fil2" points="296.369,384.745 294.646,386.553 "/>
   <polygon class="fil2" points="294.646,386.553 292.971,388.228 "/>
   <polygon class="fil2" points="272.875,73.386 271.119,75.06 "/>
   <polygon class="fil2" points="164.115,393.931 165.7,387.855 "/>
   <polygon class="fil2" points="286.272,393.085 284.598,394.927 "/>
   <polygon class="fil2" points="284.598,394.927 282.923,396.706 "/>
   <polygon class="fil2" points="279.574,398.178 277.899,400.144 "/>
   <polygon class="fil2" points="274.688,401.668 272.875,403.3 "/>
   <polygon class="fil2" points="165.807,406.663 163.94,401.446 "/>
   <polygon class="fil2" points="272.875,403.3 271.2,405.018 "/>
   <polygon class="fil2" points="184.116,229.132 182.442,230.807 "/>
   <polygon class="fil2" points="264.501,408.227 262.827,410.081 "/>
   <polygon class="fil2" points="348.266,75.06 346.454,73.386 "/>
   <polygon class="fil2" points="269.526,78.41 267.822,80.084 "/>
   <polygon class="fil2" points="267.822,81.625 266.16,83.434 "/>
   <polygon class="fil2" points="277.899,376.505 276.06,378.128 "/>
   <polygon class="fil2" points="262.822,93.861 264.601,90.33 "/>
   <polygon class="fil2" points="170.719,418.373 168.94,416.698 "/>
   <polygon class="fil2" points="185.791,202.337 184.116,204.011 "/>
   <polygon class="fil2" points="172.394,420.047 170.719,418.373 "/>
   <polygon class="fil2" points="231.115,202.337 229.333,200.662 "/>
   <polygon class="fil2" points="174.068,421.722 172.394,420.047 "/>
   <polygon class="fil2" points="294.548,272.339 293.053,274.742 "/>
   <polygon class="fil2" points="175.743,423.521 174.068,421.722 "/>
   <polygon class="fil2" points="351.478,104.718 350.104,107.572 "/>
   <polygon class="fil2" points="264.523,112.191 262.723,108.623 "/>
   <polygon class="fil2" points="180.767,232.481 179.001,234.2 "/>
   <polygon class="fil2" points="187.466,200.662 185.791,202.337 "/>
   <polygon class="fil2" points="346.634,116.928 344.694,118.602 "/>
   <polygon class="fil2" points="341.711,123.626 339.863,125.301 "/>
   <polygon class="fil2" points="339.863,125.301 338.188,127.169 "/>
   <polygon class="fil2" points="272.875,128.65 271.027,126.975 "/>
   <polygon class="fil2" points="229.333,200.662 227.658,198.88 "/>
   <polygon class="fil2" points="221.002,426.675 217.2,428.406 "/>
   <polygon class="fil2" points="189.14,198.988 187.466,200.662 "/>
   <polygon class="fil2" points="190.815,197.12 189.14,198.988 "/>
   <polygon class="fil2" points="292.971,388.228 291.297,390.066 "/>
  </g>
 </g>
</svg>
