<?xml version="1.0" encoding="utf-8"?>
<!-- Generator: Adobe Illustrator 19.0.0, SVG Export Plug-In . SVG Version: 6.00 Build 0)  -->
<svg version="1.1" id="Layer_1" xmlns="http://www.w3.org/2000/svg" xmlns:xlink="http://www.w3.org/1999/xlink" x="0px" y="0px"
	 viewBox="0 0 500 500" style="enable-background:new 0 0 500 500;" xml:space="preserve">
<style type="text/css">
	.st0{fill:#FFFFFF;}
	.st1{fill:#41B147;}
</style>
<g id="XMLID_334_">
	<g id="XMLID_987_">
		<path id="XMLID_342_" class="st0" d="M462.8,257.6c0,0,0.1,0.6,0.3,1.9c0.2,1.2,0.4,3,0.7,5.3c0.3,2.3,0.6,5,0.9,8.2
			c0.3,3.2,0.6,6.7,1,10.6c0.6,7.8,1.2,16.8,1.5,26.6c0.1,2.4,0.2,4.9,0.2,7.4c0.1,2.5,0.1,5,0.2,7.6c0.1,5.1,0.1,10.3,0.2,15.5
			c0,5.2,0,10.4-0.1,15.5c0,2.6-0.1,5.1-0.2,7.6c-0.1,2.5-0.1,5-0.2,7.4c-0.4,9.7-0.9,18.8-1.5,26.6c-0.3,3.9-0.6,7.5-1,10.6
			c-0.3,3.2-0.7,5.9-0.9,8.2c-0.3,2.3-0.5,4-0.7,5.3c-0.2,1.2-0.3,1.9-0.3,1.9s-0.1-0.6-0.3-1.9c-0.2-1.2-0.5-3-0.7-5.3
			c-0.3-2.3-0.6-5-0.9-8.2c-0.3-3.2-0.6-6.7-1-10.6c-0.6-7.8-1.2-16.8-1.5-26.6c-0.1-2.4-0.2-4.9-0.2-7.4c-0.1-2.5-0.1-5-0.2-7.6
			c-0.1-5.1-0.1-10.3-0.1-15.5c0-5.2,0-10.4,0.2-15.5c0-2.6,0.1-5.1,0.2-7.6c0.1-2.5,0.1-5,0.2-7.4c0.4-9.7,0.9-18.8,1.5-26.6
			c0.3-3.9,0.6-7.5,1-10.6c0.3-3.2,0.7-5.9,0.9-8.2c0.3-2.3,0.5-4,0.7-5.3C462.7,258.2,462.8,257.6,462.8,257.6z"/>
	</g>
	<g id="XMLID_11_">
		<path id="XMLID_631_" class="st1" d="M81.9,487.8c-0.7,0-1.3,0-2,0C42,486.7,12.2,455,12.2,417.1l0-333.7
			c0-38.8,31.8-71.4,70.6-71.2c32.3,0.2,59.5,22.3,67.5,52.2h307.5c16.6,0,30.1,13.5,30.1,30.1v363.3c0,16.6-13.5,30.1-30.1,30.1
			H81.9z M79.6,398.7c-9.9,1.4-16.8,10-16.3,20c0.5,10.3,8.5,18.2,18.7,18.2h354.9V115.3H152.6v304.8h-51v-2.5
			C101.6,406.1,91.4,397,79.6,398.7z M69.7,68c-4.1,3.7-6.5,8.9-6.5,14.4v267.7c0.1,0,0.6-0.1,0.7-0.2l0.5-0.1
			c0.2,0,0.4-0.1,0.6-0.2c0.8-0.2,1.9-0.5,3.1-0.8c1.2-0.3,2.3-0.4,3.1-0.5l1.5-0.2c0.6-0.1,1.5-0.2,2.5-0.3
			c2.5-0.3,4.9-0.4,7.1-0.4c6.6,0,13,0.9,19.2,2.6V82.4c0-6.7-3.6-13-9.4-16.5L92,65.8c-2.9-1.8-6.2-2.7-9.7-2.7
			c-5.7,0-9.7,2.5-12.1,4.5L69.7,68L69.7,68z"/>
		<path id="XMLID_495_" class="st0" d="M463.4,257.6c0,0,0.1,0.6,0.3,1.9c0.2,1.2,0.5,3,0.7,5.3c0.3,2.3,0.6,5,0.9,8.2
			c0.3,3.2,0.6,6.7,1,10.6c0.6,7.8,1.2,16.9,1.5,26.6c0.1,2.4,0.2,4.9,0.2,7.4c0.1,2.5,0.1,5,0.2,7.6c0.1,5.1,0.1,10.3,0.2,15.5
			c0,5.2,0,10.4-0.1,15.5c0,2.6-0.1,5.1-0.2,7.6c-0.1,2.5-0.1,5-0.2,7.4c-0.4,9.7-0.9,18.8-1.5,26.6c-0.3,3.9-0.6,7.5-1,10.6
			c-0.3,3.2-0.7,5.9-0.9,8.2c-0.3,2.3-0.5,4.1-0.7,5.3c-0.2,1.2-0.3,1.9-0.3,1.9s-0.1-0.6-0.3-1.9c-0.2-1.2-0.5-3-0.7-5.3
			c-0.3-2.3-0.6-5-0.9-8.2c-0.3-3.2-0.7-6.7-1-10.6c-0.6-7.8-1.2-16.9-1.5-26.6c-0.1-2.4-0.2-4.9-0.2-7.4c-0.1-2.5-0.1-5-0.2-7.6
			c-0.1-5.1-0.1-10.3-0.1-15.5c0-5.2,0-10.4,0.2-15.5c0-2.6,0.1-5.1,0.2-7.6c0.1-2.5,0.1-5,0.2-7.4c0.4-9.7,0.9-18.8,1.5-26.6
			c0.3-3.9,0.6-7.5,1-10.6c0.3-3.2,0.7-5.9,0.9-8.2c0.3-2.3,0.5-4.1,0.7-5.3C463.3,258.2,463.4,257.6,463.4,257.6z"/>
		<path id="XMLID_491_" class="st0" d="M300.8,88c0,0-0.5,0.1-1.4,0.3c-0.9,0.2-2.3,0.4-4,0.7c-3.4,0.6-8.3,1.3-14.2,1.9
			c-5.9,0.6-12.7,1.2-20.1,1.5c-1.8,0.1-3.7,0.2-5.6,0.2c-1.9,0.1-3.8,0.1-5.7,0.2C245.9,93,242,93,238.1,93c-3.9,0-7.8,0-11.7-0.1
			c-1.9,0-3.8-0.1-5.7-0.2c-1.9-0.1-3.8-0.1-5.6-0.2c-7.4-0.4-14.2-0.9-20.1-1.5c-5.9-0.6-10.8-1.3-14.2-1.9c-1.7-0.3-3.1-0.6-4-0.7
			c-0.9-0.2-1.4-0.3-1.4-0.3s0.5-0.1,1.4-0.3c0.9-0.2,2.3-0.4,4-0.7c3.4-0.6,8.3-1.3,14.2-1.9c5.9-0.6,12.7-1.2,20.1-1.5
			c1.8-0.1,3.7-0.2,5.6-0.2c1.9-0.1,3.8-0.1,5.7-0.2c3.9-0.1,7.8-0.1,11.7-0.1c3.9,0,7.8,0,11.7,0.2c1.9,0,3.8,0.1,5.7,0.2
			c1.9,0.1,3.8,0.1,5.6,0.2c7.4,0.4,14.2,0.9,20.1,1.5c5.9,0.6,10.8,1.3,14.2,1.9c1.7,0.3,3.1,0.6,4,0.7
			C300.4,87.9,300.8,88,300.8,88z"/>
		<g id="XMLID_249_">
			<path id="XMLID_349_" class="st1" d="M388.2,127.3h-18.6c-0.4,0-0.8,0.3-0.8,0.8v96.7c0,0.4,0.3,0.8,0.8,0.8h18.6
				c0.4,0,0.8-0.3,0.8-0.8V128C389,127.6,388.7,127.3,388.2,127.3z"/>
			<path id="XMLID_250_" class="st1" d="M428,185.7v-18.6c0-0.4-0.3-0.8-0.8-0.8h-96.7c-0.4,0-0.8,0.3-0.8,0.8v18.6
				c0,0.4,0.3,0.8,0.8,0.8h96.7C427.7,186.4,428,186.1,428,185.7z"/>
		</g>
		<path id="XMLID_248_" class="st1" d="M91.7,52.4H73.1c-0.4,0-0.8,0.3-0.8,0.8v40.2c0,0.4,0.3,0.8,0.8,0.8h18.6
			c0.4,0,0.8-0.3,0.8-0.8l0-40.2C92.5,52.7,92.1,52.4,91.7,52.4z"/>
		<path id="XMLID_246_" class="st1" d="M91.7,132.7H73.1c-0.4,0-0.8,0.3-0.8,0.8v54.3c0,0.4,0.3,0.8,0.8,0.8h18.6
			c0.4,0,0.8-0.3,0.8-0.8v-54.3C92.5,133,92.1,132.7,91.7,132.7z"/>
		<path id="XMLID_81_" class="st1" d="M91.7,222.1H73.1c-0.4,0-0.8,0.3-0.8,0.8v54.3c0,0.4,0.3,0.8,0.8,0.8h18.6
			c0.4,0,0.8-0.3,0.8-0.8v-54.3C92.5,222.5,92.1,222.1,91.7,222.1z"/>
		<path id="XMLID_60_" class="st1" d="M91.7,320.9H73.1c-0.4,0-0.8,0.3-0.8,0.8V384c0,0.4,0.3,0.8,0.8,0.8h18.6
			c0.4,0,0.8-0.3,0.8-0.8l0-62.3C92.5,321.2,92.1,320.9,91.7,320.9z"/>
		<path id="XMLID_757_" class="st1" d="M175.7,417.3c-5.4,0-9.8-4.4-9.8-9.8c0-5.4,4.4-9.8,9.8-9.8h0v-39.9c0-2.6,1-5.1,2.8-6.9
			l37.6-37.6c1.8-1.8,4.3-2.9,6.9-2.9c2.6,0,5.1,1,6.9,2.9l37.6,37.6c1.8,1.8,2.9,4.3,2.9,6.9v39.9h0.3c5.4,0,9.8,4.4,9.8,9.8
			c0,5.4-4.4,9.8-9.8,9.8H175.7z M251,397.8v-30.1h-55.7v30.1H251z M237.1,348.1l-14-14l-14,14H237.1z"/>
		<g id="XMLID_58_">
			<path id="XMLID_356_" class="st1" d="M444.8,463.6l-10.1-12.3c-0.1-0.7-0.9-6.9-3.2-16.8l29.3-6.7c2.5,11,3.5,18.2,3.7,19.6
				l-14.9,2L444.8,463.6z M423.7,407c-3.1-9.2-6.7-18.1-10.5-26.5l27.3-12.7c4.4,9.3,8.3,19.3,11.8,29.5L423.7,407z M399.7,355.8
				c-5.1-8.1-10.7-15.5-16.6-22.1l22.4-20.1c7,7.8,13.6,16.5,19.6,26L399.7,355.8z M363.2,315.4c-7.2-5.4-14.9-10-22.9-13.6
				l12.3-27.4c10,4.5,19.7,10.2,28.7,17L363.2,315.4z M314.9,293.6c-6.5-1.3-13.3-2.2-20.3-2.5c-2.7-0.1-5.4-0.3-8-0.6l2.9-30
				c2.2,0.2,4.4,0.4,6.6,0.5c8.4,0.4,16.8,1.5,24.8,3.1L314.9,293.6z M254.2,284c-10.7-3.4-20.9-8-30.5-13.6l15.3-25.9
				c7.6,4.5,15.8,8.1,24.2,10.8L254.2,284z M197.1,250.3c-7.8-7.3-15.1-15.5-21.7-24.6l24.3-17.8c5.6,7.6,11.6,14.5,18,20.4
				L197.1,250.3z M158.3,198.2c-4.8-9.2-9.1-19-13-29.2l28.2-10.5c3.4,9.1,7.2,17.8,11.5,25.8L158.3,198.2z M135.9,138.7
				c-4.7-18.5-6.1-31.3-6.2-31.8l29.9-3.2l-15,1.6l15-1.6c0,0.1,1.3,11.3,5.4,27.6L135.9,138.7z"/>
		</g>
	</g>
</g>
</svg>
