<?xml version="1.0" encoding="utf-8"?>
<!-- Generator: Adobe Illustrator 19.0.0, SVG Export Plug-In . SVG Version: 6.00 Build 0)  -->
<svg version="1.1" id="Layer_1" xmlns="http://www.w3.org/2000/svg" xmlns:xlink="http://www.w3.org/1999/xlink" x="0px" y="0px"
	 viewBox="0 0 500 500" style="enable-background:new 0 0 500 500;" xml:space="preserve">
<style type="text/css">
	.st0{fill:#8345A3;}
	.st1{fill:#FFFFFF;}
</style>
<g id="XMLID_313_">
	<path id="XMLID_733_" class="st0" d="M469.5,495c-6.8,0-13.2-2.7-18.1-7.5L298.3,334.4l-3.5,2.5c-31.3,22.5-68.2,34.4-106.7,34.4
		C87.2,371.2,5,289.1,5,188.1c0-48.8,19.1-94.8,53.7-129.4C93.3,24.1,139.3,5,188.1,5c0,0,0,0,0,0c101,0,183.1,82.1,183.1,183.1
		c0,38.5-11.9,75.4-34.4,106.7l-2.5,3.5l153.1,153.1c10,10,10,26.2,0,36.1C482.7,492.3,476.3,495,469.5,495z M188.1,54.6
		c-73.6,0-133.5,59.9-133.5,133.5c0,73.6,59.9,133.5,133.5,133.5c73.6,0,133.6-59.9,133.6-133.5c0-35.6-13.9-69.1-39.2-94.4
		C257.3,68.5,223.7,54.6,188.1,54.6L188.1,54.6z"/>
	<g id="XMLID_816_">
		<path id="XMLID_323_" class="st1" d="M107.9,321.7c0,0-1.4-0.8-4-2.2c-1.3-0.7-2.9-1.6-4.7-2.7c-1.8-1.2-3.9-2.6-6.2-4.1
			c-0.6-0.4-1.2-0.8-1.8-1.2c-0.6-0.4-1.2-0.9-1.8-1.4c-1.2-0.9-2.5-1.9-3.8-2.9c-0.7-0.5-1.4-1-2.1-1.6c-0.7-0.5-1.3-1.2-2-1.7
			c-1.4-1.2-2.8-2.5-4.2-3.7c-1.5-1.3-2.9-2.7-4.4-4.2c-1.5-1.5-3-3-4.5-4.6c-1.4-1.7-2.9-3.4-4.4-5.1c-0.7-0.9-1.6-1.7-2.3-2.7
			c-0.7-0.9-1.4-1.9-2.2-2.9c-0.7-1-1.5-1.9-2.2-2.9c-0.4-0.5-0.7-1-1.1-1.5c-0.4-0.5-0.7-1-1.1-1.6c-1.4-2.1-2.8-4.2-4.3-6.4
			c-1.4-2.2-2.6-4.6-4-6.9c-1.4-2.3-2.5-4.8-3.7-7.3c-4.8-10-9-21.1-11.6-33c-2.6-11.9-3.9-24.6-3.7-37.4l0-2.3l0-1.2L28,179
			c0.1-1.6,0.2-3.3,0.3-4.9c0.1-0.8,0.1-1.6,0.2-2.5l0.3-2.4c0.2-1.6,0.4-3.2,0.6-4.8c0.2-1.6,0.5-3.2,0.8-4.8
			c0.3-1.6,0.5-3.2,0.9-4.8c0.8-3.2,1.4-6.4,2.3-9.5c3.5-12.6,8.5-24.7,15-35.8c0.8-1.4,1.6-2.8,2.4-4.1c0.9-1.3,1.7-2.7,2.6-4
			c1.7-2.7,3.6-5.2,5.5-7.8c0.9-1.3,1.9-2.5,2.9-3.7c1-1.2,2-2.4,2.9-3.6c1-1.2,2.1-2.3,3.1-3.5c1-1.1,2-2.3,3.1-3.4
			c8.4-8.8,17.6-16.3,26.9-22.4c1.1-0.8,2.3-1.5,3.5-2.2c1.2-0.7,2.3-1.4,3.5-2.1c2.3-1.4,4.7-2.6,7-3.8c2.3-1.2,4.7-2.2,6.9-3.3
			c2.3-1,4.6-1.9,6.8-2.9c4.5-1.7,8.9-3.3,13.1-4.5c1.1-0.3,2.1-0.6,3.1-0.9c1-0.3,2.1-0.5,3.1-0.7c2-0.5,4-1,5.9-1.3
			c1.9-0.4,3.8-0.7,5.6-1c1.8-0.3,3.5-0.5,5.2-0.7c0.8-0.1,1.7-0.2,2.5-0.3c0.8-0.1,1.6-0.1,2.4-0.2c1.5-0.1,3-0.2,4.4-0.3
			c2.8-0.2,5.3-0.2,7.4-0.2c2.2-0.1,4,0,5.5,0.1c3,0.1,4.6,0.2,4.6,0.2s-1.6,0.1-4.5,0.4c-3,0.2-7.3,0.8-12.7,1.6
			c-1.4,0.2-2.8,0.5-4.3,0.8c-0.7,0.1-1.5,0.3-2.3,0.4c-0.8,0.2-1.6,0.4-2.4,0.5c-1.6,0.4-3.3,0.7-5,1.1c-1.7,0.5-3.5,1-5.3,1.5
			c-7.3,2.1-15.4,5-23.8,9c-2.1,1-4.2,2-6.4,3.2c-2.1,1.2-4.3,2.3-6.4,3.6c-2.1,1.3-4.3,2.6-6.5,4c-1.1,0.7-2.1,1.4-3.2,2.2
			c-1.1,0.7-2.2,1.5-3.2,2.3c-8.6,6.2-16.9,13.7-24.7,22.3c-7.8,8.5-14.7,18.3-20.6,28.8c-5.9,10.5-10.6,21.9-13.8,33.7
			c-0.9,2.9-1.5,5.9-2.2,8.9c-0.4,1.5-0.6,3-0.9,4.5c-0.3,1.5-0.6,3-0.8,4.5c-0.2,1.5-0.4,3-0.6,4.5l-0.3,2.3
			c-0.1,0.8-0.1,1.5-0.2,2.2c-0.1,1.5-0.3,3-0.4,4.5l-0.1,1.1l0,1.2l-0.1,2.3c0,1.5-0.1,3-0.1,4.5c0,1.5,0.1,3,0.1,4.5
			c0,1.5,0.1,3,0.1,4.5l0,1.1l0.1,1.1l0.2,2.2c0.1,1.5,0.3,2.9,0.4,4.4l0.2,2.2l0.3,2.2c0.5,2.9,0.8,5.8,1.4,8.6
			c0.6,2.8,1.2,5.6,1.8,8.4c0.7,2.7,1.5,5.4,2.3,8.1c0.2,0.7,0.4,1.3,0.6,2c0.2,0.7,0.5,1.3,0.7,1.9c0.5,1.3,0.9,2.6,1.4,3.9
			c0.5,1.3,0.9,2.6,1.4,3.8c0.5,1.2,1.1,2.5,1.6,3.7c1,2.4,2,4.9,3.2,7.1c1.2,2.3,2.3,4.6,3.5,6.8c1.2,2.2,2.5,4.3,3.7,6.4
			c0.3,0.5,0.6,1.1,0.9,1.6c0.3,0.5,0.7,1,1,1.5c0.7,1,1.3,2,2,2.9c0.6,1,1.3,1.9,1.9,2.9c0.6,1,1.4,1.8,2,2.7
			c1.3,1.8,2.7,3.5,3.9,5.2c1.3,1.7,2.7,3.2,4,4.8c1.3,1.5,2.5,3.1,3.9,4.4c1.3,1.4,2.6,2.7,3.8,4c0.6,0.6,1.2,1.3,1.8,1.9
			c0.6,0.6,1.2,1.2,1.8,1.7c1.2,1.1,2.4,2.2,3.5,3.2c0.6,0.5,1.1,1,1.6,1.5c0.6,0.5,1.1,0.9,1.6,1.3c2.1,1.7,4,3.3,5.7,4.7
			c1.7,1.3,3.2,2.4,4.4,3.2C106.6,320.7,107.9,321.7,107.9,321.7z"/>
	</g>
	<g id="XMLID_841_">
		<path id="XMLID_321_" class="st1" d="M343.4,173.9c0,0,0.2,0.6,0.4,1.8c0.3,1.2,0.7,2.9,1,5.1c0.4,2.2,0.8,4.9,1.1,8.1
			c0.1,1.6,0.2,3.2,0.3,5c0.1,0.9,0.1,1.8,0.2,2.7c0,0.5,0,0.9,0.1,1.4c0,0.5,0,1,0,1.4c-0.1,3.9,0,8.2-0.6,12.7
			c-0.1,1.1-0.2,2.2-0.3,3.4c-0.1,1.1-0.2,2.3-0.4,3.5c-0.4,2.3-0.8,4.7-1.2,7.1c-0.4,2.4-1.1,4.8-1.7,7.3c-0.3,1.2-0.6,2.5-1,3.7
			c-0.4,1.2-0.8,2.4-1.2,3.7c-1.5,5-3.6,9.8-5.6,14.6c-1.2,2.4-2.3,4.7-3.5,7c-1.2,2.3-2.6,4.5-3.9,6.8c-1.2,2.3-2.8,4.3-4.2,6.4
			c-0.7,1-1.4,2.1-2.1,3.1c-0.7,1-1.5,2-2.3,2.9c-0.8,1-1.5,1.9-2.3,2.9c-0.8,0.9-1.5,1.9-2.3,2.7c-1.6,1.7-3.2,3.4-4.7,5.1
			c-0.7,0.8-1.6,1.6-2.3,2.3c-0.8,0.7-1.6,1.5-2.3,2.2c-1.6,1.4-3,2.9-4.5,4.1c-3,2.5-5.8,4.7-8.4,6.5c-2.6,1.8-4.8,3.4-6.8,4.4
			c-1.9,1.2-3.5,2-4.6,2.6c-1.1,0.6-1.6,0.9-1.6,0.9s0.4-0.5,1.3-1.3c0.9-0.8,2.1-2.1,3.7-3.7c1.6-1.5,3.4-3.6,5.5-5.8
			c2.2-2.2,4.4-4.9,6.9-7.7c1.3-1.4,2.5-2.9,3.7-4.5c0.6-0.8,1.3-1.6,1.9-2.4c0.7-0.8,1.3-1.6,1.9-2.5c1.3-1.7,2.6-3.5,3.9-5.3
			c1.3-1.8,2.5-3.7,3.8-5.7c0.6-1,1.3-1.9,1.9-2.9c0.6-1,1.2-2,1.8-3c1.2-2.1,2.5-4.1,3.6-6.2c1.1-2.1,2.3-4.3,3.5-6.4
			c1.1-2.2,2.1-4.4,3.2-6.6c2-4.5,4-9,5.6-13.6c0.4-1.1,0.8-2.3,1.3-3.4c0.4-1.1,0.7-2.3,1.1-3.4c0.4-1.1,0.7-2.3,1.1-3.4
			c0.3-1.1,0.8-2.2,1-3.4c0.6-2.2,1.2-4.5,1.8-6.6c0.6-2.2,0.9-4.3,1.4-6.4c0.2-1,0.5-2.1,0.7-3.1c0.3-1,0.3-2,0.5-3
			c0.3-2,0.7-3.9,1-5.7c0.1-0.5,0.2-0.9,0.2-1.4c0.1-0.5,0.1-0.9,0.2-1.4c0.1-0.9,0.2-1.8,0.3-2.7c0.2-1.7,0.4-3.4,0.6-4.9
			c0.4-3,0.6-5.7,0.8-7.9C343.2,176.5,343.4,173.9,343.4,173.9z"/>
	</g>
	<g id="XMLID_1384_">
		<path id="XMLID_1802_" class="st0" d="M104.2,324c-14.6,0-26.4-11.8-26.4-26.4c0-14.6,11.8-26.4,26.4-26.4s26.4,11.8,26.4,26.4
			C130.6,312.2,118.8,324,104.2,324z"/>
		<path id="XMLID_1801_" class="st0" d="M184.7,271.2c-14.6,0-26.4-11.8-26.4-26.4c0-14.6,11.8-26.4,26.4-26.4s26.4,11.8,26.4,26.4
			C211.2,259.4,199.3,271.2,184.7,271.2z"/>
		<path id="XMLID_1807_" class="st0" d="M188.3,176.3c-14.6,0-26.4-11.8-26.4-26.4c0-14.6,11.8-26.4,26.4-26.4s26.4,11.8,26.4,26.4
			C214.7,164.5,202.9,176.3,188.3,176.3z"/>
		<path id="XMLID_1808_" class="st0" d="M262.8,105c-14.6,0-26.4-11.8-26.4-26.4c0-14.6,11.8-26.4,26.4-26.4
			c14.6,0,26.4,11.8,26.4,26.4C289.2,93.2,277.4,105,262.8,105z"/>
		<g id="XMLID_1806_">
			<polygon id="XMLID_1190_" class="st0" points="109.7,306 98.7,289.3 176.2,238.5 177,144.8 258.6,71.2 272,86 197,153.8 
				196.1,249.3 			"/>
		</g>
	</g>
</g>
</svg>
