<?xml version="1.0" encoding="utf-8"?>
<!-- Generator: Adobe Illustrator 19.0.0, SVG Export Plug-In . SVG Version: 6.00 Build 0)  -->
<svg version="1.1" id="Layer_1" xmlns="http://www.w3.org/2000/svg" xmlns:xlink="http://www.w3.org/1999/xlink" x="0px" y="0px"
	 viewBox="0 0 500 500" style="enable-background:new 0 0 500 500;" xml:space="preserve">
<style type="text/css">
	.st0{fill:#6F7175;}
	.st1{fill:#FFFFFF;}
</style>
<g id="XMLID_25_">
	<path id="XMLID_793_" class="st0" d="M500,250C500,112.2,387.9,0,250,0C112.1,0,0,112.2,0,250s112.1,250,250,250
		C387.9,500,500,387.8,500,250z M49.6,250c0-110.5,89.9-200.4,200.4-200.4c110.5,0,200.4,89.9,200.4,200.4S360.5,450.4,250,450.4
		C139.5,450.4,49.6,360.5,49.6,250z"/>
	<g id="XMLID_1405_">
		<g id="XMLID_719_">
			<path id="XMLID_755_" class="st1" d="M100,416c0,0-1.6-1.4-4.6-4c-0.7-0.6-1.6-1.4-2.5-2.2c-0.5-0.4-0.9-0.8-1.4-1.3
				c-0.5-0.4-1-0.9-1.5-1.4c-2.1-2-4.4-4.3-7.1-6.9c-2.5-2.7-5.3-5.7-8.3-9c-1.4-1.7-2.9-3.5-4.4-5.4c-0.8-0.9-1.5-1.9-2.3-2.9
				c-0.7-1-1.5-2-2.3-3.1c-1.5-2.1-3.1-4.2-4.7-6.5c-1.5-2.3-3.1-4.7-4.7-7.1c-1.7-2.4-3.1-5-4.6-7.6c-0.8-1.3-1.5-2.7-2.3-4
				c-0.8-1.3-1.5-2.8-2.2-4.2c-0.7-1.4-1.5-2.9-2.2-4.3c-0.8-1.4-1.5-2.9-2.2-4.4c-1.4-3-2.8-6.1-4.2-9.3c-1.2-3.2-2.5-6.5-3.8-9.8
				c-1.2-3.4-2.2-6.8-3.4-10.3C27,298.3,23.9,283,22.6,267c-0.1-1-0.2-2-0.3-3l-0.1-1.5l-0.1-1.5c-0.1-2-0.2-4.1-0.2-6.1
				c0-1-0.1-2-0.1-3.1l-0.1-1.5l0-0.2l0-0.3l0-0.4l0-0.8c0-2,0.1-4,0.1-6.1c0-4,0.3-8.3,0.6-12.5l0.2-3.2c0.1-1,0.2-2.1,0.4-3.1
				c0.3-2.1,0.5-4.2,0.8-6.3c0.2-2.1,0.6-4.2,1-6.3c0.4-2.1,0.7-4.2,1.1-6.3c0.9-4.2,1.8-8.3,2.8-12.5c0.6-2.1,1.2-4.1,1.7-6.2
				c0.6-2.1,1.1-4.1,1.8-6.2l2.1-6.1c0.4-1,0.7-2,1.1-3l1.2-3c6.2-16,14.2-31.4,23.8-45.4c1.2-1.7,2.5-3.4,3.7-5.2l1.8-2.6
				c0.6-0.9,1.2-1.7,1.9-2.5c1.3-1.6,2.6-3.3,3.9-4.9l2-2.4c0.7-0.8,1.4-1.6,2.1-2.3c2.8-3.1,5.4-6.2,8.3-9.1
				c1.4-1.5,2.8-2.9,4.3-4.4c1.4-1.4,2.9-2.8,4.4-4.2c11.7-11,24.3-20.3,36.9-27.8c0.8-0.5,1.6-1,2.3-1.4c0.8-0.5,1.6-0.9,2.4-1.3
				c1.6-0.9,3.2-1.7,4.7-2.6c0.8-0.4,1.6-0.9,2.3-1.3c0.8-0.4,1.6-0.8,2.4-1.2c1.6-0.8,3.1-1.5,4.7-2.3c3.1-1.6,6.2-2.8,9.3-4.1
				c1.5-0.6,3-1.3,4.6-1.9c1.5-0.6,3-1.1,4.5-1.7c1.5-0.6,3-1.1,4.5-1.6c1.5-0.6,3-1,4.4-1.4c1.5-0.5,2.9-0.9,4.3-1.3
				c1.4-0.4,2.8-0.9,4.2-1.2c2.8-0.7,5.6-1.4,8.2-2.1c2.7-0.6,5.3-1.1,7.8-1.6c1.3-0.3,2.5-0.5,3.7-0.7c1.2-0.2,2.5-0.4,3.6-0.6
				c2.4-0.3,4.7-0.7,6.9-1c4.4-0.5,8.5-0.8,12.2-1.2c3.7-0.2,7-0.3,9.9-0.4c1.4-0.1,2.8-0.1,4,0c1.2,0,2.3,0,3.3,0.1
				c3.9,0.1,6.1,0.1,6.1,0.1s-2.1,0.2-6,0.4c-1,0.1-2.1,0.1-3.3,0.2c-1.2,0.1-2.5,0.2-3.9,0.4c-2.8,0.3-6.1,0.7-9.7,1.1
				c-3.6,0.6-7.6,1.2-12,2c-2.2,0.5-4.4,0.9-6.7,1.4c-1.2,0.3-2.4,0.5-3.5,0.8c-1.2,0.3-2.4,0.6-3.6,1c-9.9,2.4-20.8,6.1-32.2,10.9
				c-1.4,0.6-2.9,1.2-4.3,1.8c-1.5,0.6-2.9,1.4-4.3,2.1c-2.9,1.4-5.9,2.8-8.8,4.4c-5.9,3.1-11.9,6.6-17.9,10.5
				c-11.9,7.8-23.7,17.1-34.8,27.9c-11.1,10.8-21.3,23.1-30.4,36.6c-8.9,13.5-16.6,28.2-22.5,43.5c-6,15.3-10.2,31.3-12.5,47.4
				c-0.3,2-0.5,4-0.8,6c-0.1,1-0.3,2-0.4,3l-0.2,3c-0.3,4-0.8,7.8-0.8,12c-0.1,2-0.1,4.1-0.2,6.1l0,0.8l0,0.4c0,0,0,0.2,0,0.1l0,0.2
				l0,1.5c0,1,0,2,0,2.9c0,2,0.1,3.9,0.1,5.9l0,1.5l0.1,1.5c0.1,1,0.1,1.9,0.2,2.9c1,15.4,3.4,30.3,7.1,44
				c3.6,13.8,8.4,26.4,13.7,37.7c0.7,1.4,1.2,2.8,2,4.2c0.7,1.4,1.4,2.7,2.1,4c1.4,2.6,2.7,5.3,4.1,7.7c1.4,2.5,2.8,4.9,4.2,7.2
				c1.4,2.3,2.9,4.5,4.3,6.6c0.7,1.1,1.4,2.1,2,3.2c0.7,1,1.4,2,2.1,2.9c1.4,1.9,2.7,3.8,4,5.6c2.7,3.5,5.2,6.6,7.5,9.5
				c2.4,2.8,4.6,5.2,6.4,7.4c0.5,0.5,0.9,1.1,1.4,1.5c0.5,0.5,0.9,0.9,1.3,1.4c0.8,0.9,1.6,1.7,2.3,2.4C98.5,414.5,100,416,100,416z
				"/>
		</g>
		<g id="XMLID_722_">
			<path id="XMLID_761_" class="st1" d="M473.7,250c0,0,0.1,0.8,0.2,2.3c0.1,1.5,0.3,3.7,0.5,6.6c0.1,1.4,0.2,3,0.3,4.7
				c0,1.7,0,3.6,0,5.6c0,2-0.1,4.1-0.1,6.4c0,0.6,0,1.1,0,1.7c0,0.6-0.1,1.1-0.1,1.7c-0.1,1.2-0.2,2.4-0.3,3.6
				c-0.2,2.5-0.5,5-0.7,7.6c-0.3,2.6-0.8,5.3-1.3,8.1c-0.8,5.6-2.3,11.4-3.7,17.4c-0.8,3-1.8,6-2.7,9c-0.5,1.5-1,3-1.4,4.6
				c-0.6,1.5-1.2,3-1.7,4.5c-0.6,1.5-1.2,3-1.8,4.6c-0.6,1.5-1.1,3.1-1.9,4.5c-1.4,3-2.8,6-4.2,9c-0.7,1.5-1.5,2.9-2.3,4.4
				c-0.8,1.4-1.6,2.9-2.4,4.3c-0.8,1.4-1.6,2.9-2.4,4.3c-0.9,1.4-1.8,2.8-2.6,4.1c-1.8,2.7-3.4,5.5-5.3,8.1
				c-1.9,2.6-3.7,5.1-5.6,7.6c-0.5,0.6-0.9,1.2-1.4,1.8c-0.5,0.6-1,1.2-1.5,1.7c-1,1.2-2,2.3-2.9,3.4c-2,2.2-3.8,4.5-5.8,6.5
				c-2,2-3.9,4-5.8,5.9c-0.5,0.5-0.9,0.9-1.4,1.4c-0.5,0.4-1,0.9-1.4,1.3c-1,0.9-1.9,1.7-2.8,2.5c-1.8,1.6-3.6,3.2-5.3,4.6
				c-1.8,1.4-3.5,2.7-5,3.9c-1.6,1.2-3.1,2.3-4.4,3.3c-1.4,1-2.7,1.8-3.9,2.6c-2.4,1.6-4.3,2.7-5.6,3.6c-1.3,0.8-2,1.2-2,1.2
				s0.6-0.6,1.6-1.7c1.1-1.1,2.6-2.7,4.7-4.6c1-1,2.2-2,3.3-3.3c1.1-1.3,2.4-2.6,3.7-4c1.3-1.4,2.8-2.9,4.3-4.5
				c1.4-1.7,2.9-3.4,4.5-5.2c0.8-0.9,1.6-1.8,2.4-2.8c0.4-0.5,0.8-0.9,1.2-1.4c0.4-0.5,0.8-1,1.2-1.5c1.6-2,3.3-4.1,5-6.2
				c1.8-2.1,3.3-4.4,5-6.7c0.8-1.2,1.7-2.3,2.6-3.5c0.4-0.6,0.9-1.2,1.3-1.8c0.4-0.6,0.8-1.2,1.2-1.8c1.6-2.5,3.3-5,5-7.5
				c0.9-1.2,1.6-2.6,2.4-3.9c0.8-1.3,1.6-2.6,2.4-4c0.8-1.3,1.6-2.7,2.4-4c0.7-1.4,1.5-2.8,2.2-4.2c0.7-1.4,1.5-2.8,2.2-4.2
				c0.7-1.4,1.5-2.8,2.2-4.2c1.4-2.8,2.7-5.7,4.1-8.5c1.3-2.9,2.5-5.8,3.7-8.6c0.6-1.4,1.2-2.9,1.8-4.3c0.5-1.4,1.1-2.9,1.6-4.3
				c0.5-1.4,1-2.9,1.6-4.3c0.5-1.4,1.1-2.8,1.5-4.2c1.7-5.7,3.6-11.1,4.9-16.4c0.7-2.6,1.4-5.2,2-7.7c0.5-2.5,1.1-5,1.6-7.3
				c0.3-1.2,0.5-2.3,0.8-3.4c0.1-0.6,0.2-1.1,0.4-1.7c0.1-0.5,0.2-1.1,0.3-1.6c0.4-2.2,0.7-4.2,1-6.1c0.3-1.9,0.6-3.7,1-5.4
				c0.2-1.7,0.4-3.3,0.6-4.7c0.3-2.8,0.7-5,0.9-6.5C473.6,250.8,473.7,250,473.7,250z"/>
		</g>
	</g>
</g>
</svg>
