<?xml version="1.0" encoding="UTF-8"?>
<!DOCTYPE svg PUBLIC "-//W3C//DTD SVG 1.1//EN" "http://www.w3.org/Graphics/SVG/1.1/DTD/svg11.dtd">
<!-- Creator: CorelDRAW X8 -->
<svg xmlns="http://www.w3.org/2000/svg" xml:space="preserve" width="512px" height="512px" version="1.1" style="shape-rendering:geometricPrecision; text-rendering:geometricPrecision; image-rendering:optimizeQuality; fill-rule:evenodd; clip-rule:evenodd"
viewBox="0 0 512 512"
 xmlns:xlink="http://www.w3.org/1999/xlink">
 <defs>
  <style type="text/css">
   <![CDATA[
    .str1 {stroke:#2B2E34;stroke-width:6.99962}
    .str0 {stroke:#2B2E34;stroke-width:0.3}
    .fil0 {fill:none}
    .fil2 {fill:#2B2E34}
    .fil1 {fill:#2B2E34}
   ]]>
  </style>
 </defs>
 <g id="Layer_x0020_1">
  <metadata id="CorelCorpID_0Corel-Layer"/>
  <rect class="fil0" width="512" height="512"/>
  <path class="fil1 str0" d="M369 375l16 9c4,2 3,1 3,5l0 19c0,3 0,4 5,4 3,-1 2,-2 2,-4l0 -18c3,0 5,2 7,2l3 2 0 48c-2,-1 -5,-2 -7,-3 -3,-2 -6,-3 -8,-5l-14 -7c-1,-1 -2,-2 -4,-3 -4,-2 -3,-1 -3,-8 0,-8 0,-35 0,-41zm-148 -31c36,0 77,1 111,9 22,6 43,15 18,26 -48,21 -204,21 -239,-4 -9,-6 0,-12 8,-16 24,-10 73,-14 102,-15zm-113 36c3,1 6,3 11,5 4,1 9,3 13,4 0,3 0,6 0,10 0,2 -1,7 3,8 2,0 4,-1 4,-2 1,-1 1,-13 1,-14 3,0 7,1 11,2 3,0 7,1 10,2 0,3 0,6 0,9 0,3 -1,7 3,9 6,0 5,-4 5,-7 0,-3 0,-8 0,-10l22 2 0 17c0,2 0,3 3,3 6,1 4,-5 4,-8 0,-4 0,-8 0,-12 11,1 22,1 33,1 0,8 0,19 0,27 0,2 -1,6 4,6 4,0 3,-4 3,-6l0 -27 33 -1c0,4 0,8 0,11 0,4 -2,10 4,9 5,0 3,-4 3,-9 0,-4 0,-8 0,-11l22 -2c0,3 0,6 0,10 0,3 -1,7 5,7 4,-2 3,-6 3,-9 0,-3 0,-6 0,-9l21 -4 0 14c1,1 3,2 5,2 4,-1 3,-6 3,-8 0,-3 0,-7 0,-10 5,-2 9,-3 13,-4 2,-1 4,-2 6,-3 2,-1 4,-2 5,-2 0,4 1,43 0,45 -1,2 -4,5 -6,6 -26,14 -87,18 -120,18 -36,-1 -94,-4 -121,-18 -2,-1 -5,-3 -6,-5 -1,-2 0,-7 0,-9 0,-12 0,-25 0,-37zm297 8c-13,-6 -18,-9 -31,-16 0,-1 -4,-3 -5,-4 -1,-2 0,-7 -19,-14 -49,-19 -163,-18 -215,-5 -11,3 -21,6 -27,10 -10,6 -8,11 -8,21l0 40c0,5 0,7 4,11 10,9 34,14 57,18 44,6 109,6 153,-1 10,-2 22,-4 31,-7 5,-2 9,-4 13,-6 6,-2 6,-4 9,-7 3,1 7,4 9,5l8 5c2,1 4,2 6,3 5,2 10,5 15,7l0 0 6 2 1 -59 -7 -3z"/>
  <rect class="fil1" x="300" y="394" width="7.74945" height="33.5348" rx="20" ry="13"/>
  <rect class="fil0" x="161" y="394" width="7.74945" height="33.5348" rx="20" ry="13"/>
  <path class="fil1 str0" d="M278 369c-4,5 -33,7 -44,7 -8,0 -17,-1 -25,-2 -26,-3 -21,-7 1,-10 8,-1 17,-1 25,-1 11,0 40,1 43,6zm-51 -11c-10,0 -20,1 -29,3 -30,6 -15,21 44,19 12,0 32,-2 41,-7 6,-3 3,-7 -4,-10 -12,-5 -39,-5 -52,-5z"/>
  <path class="fil0 str1" d="M343 116l0 0c0,1 0,2 0,2l-6 126c-15,63 -184,72 -206,0l-7 -125c0,-1 0,-2 0,-3l0 0c0,-32 49,-57 110,-57 60,0 109,25 109,57 0,0 0,0 0,0l0 0z"/>
  <path class="fil2" d="M234 371l57 -83c-43,12 -70,12 -115,0l58 83z"/>
 </g>
</svg>
