<?xml version="1.0" encoding="utf-8"?>
<!-- Generator: Adobe Illustrator 19.0.0, SVG Export Plug-In . SVG Version: 6.00 Build 0)  -->
<svg version="1.1" id="Layer_1" xmlns="http://www.w3.org/2000/svg" xmlns:xlink="http://www.w3.org/1999/xlink" x="0px" y="0px"
	 viewBox="0 0 500 500" style="enable-background:new 0 0 500 500;" xml:space="preserve">
<style type="text/css">
	.st0{fill:#FF6920;}
	.st1{fill:#FFFFFF;}
</style>
<g id="XMLID_1_">
	<g id="XMLID_858_">
		<path id="XMLID_860_" class="st0" d="M358.3,293.2c9.1-0.3,17.7,1.2,25.3,4.1c4.8-88.8-3.9-177.6-26.1-266.3
			C354,17.7,342.3,4,331.8,1.1c-10.6-2.9-17.3,6.7-15.4,20.6c13.8,92.5,19.2,185.1,16.2,277.6C340.5,295.6,349.2,293.5,358.3,293.2z
			"/>
		<path id="XMLID_859_" class="st0" d="M347.2,414.5c-8.2,1.2-15.7,0.3-22.4-2.4c-2.3,22.1-5.1,44.2-8.4,66.3
			c-1.9,13.9,4.8,23.5,15.4,20.6c10.5-2.9,22.3-16.7,25.7-29.9c5.3-21.2,9.8-42.4,13.6-63.6C363.4,410.1,355.3,413.3,347.2,414.5z"
			/>
	</g>
	<g id="XMLID_844_">
		<path id="XMLID_850_" class="st0" d="M293.8,357.5c0.3-9.1,2.5-17.8,6.2-25.7c-92.6,2.7-185-2.8-277.4-16.5
			c-13.9-1.9-23.3,4.8-20.4,15.2v0c3,10.4,16.7,22.1,29.9,25.5c88.5,22.3,177.1,31.2,265.7,26.8C295,375.2,293.5,366.6,293.8,357.5z
			"/>
		<path id="XMLID_845_" class="st0" d="M478.4,316.4c-21.9,3.1-43.8,5.8-65.7,8c2.6,6.8,3.5,14.3,2.2,22.5
			c-1.3,8.2-4.5,16.3-9.1,23.9c21-3.6,41.9-7.9,62.9-13c13.2-3.3,27.1-15,30.1-25.7v0C501.8,321.5,492.3,314.6,478.4,316.4z"/>
	</g>
	<g id="XMLID_756_">
		<g id="XMLID_804_">
			<path id="XMLID_840_" class="st0" d="M343.6,437.2c-19.9,3.6-37.5-3.3-51.2-18.7c-28.4-32.2-29.8-88.1,4.8-122.1
				c16.5-16.6,38.5-25.6,61.7-26c23.2-0.4,45,7.8,60.4,21.5c32.7,28.5,21.6,72.3-16.9,110.4C384.1,420.5,363.6,433.7,343.6,437.2
				C343.7,437.2,343.7,437.2,343.6,437.2z M357,319.8c-9.3,0.5-18.2,4.5-25.1,11.4c-6.9,6.8-10.9,15.8-11.4,25.1
				c-0.6,9.3,2.3,17.8,8,23.8c5.7,6,13.5,8.7,22.3,7.7c8.7-1.1,17.4-5.7,24.6-12.8c7.1-7.1,11.8-15.8,12.9-24.6
				c1.1-8.8-1.6-16.6-7.5-22.4C374.8,322.3,366.3,319.3,357,319.8z"/>
		</g>
		<g id="XMLID_798_">
			<path id="XMLID_800_" class="st1" d="M402.8,307.1c0,0,0.6,0.4,1.7,1.2c0.5,0.4,1.2,0.9,2,1.4c0.4,0.3,0.8,0.6,1.2,0.9
				c0.4,0.4,0.8,0.8,1.3,1.2c0.9,0.9,1.9,1.8,2.9,2.9c0.9,1.1,1.9,2.4,2.9,3.8c0.6,0.7,0.9,1.5,1.4,2.2c0.4,0.8,0.9,1.6,1.4,2.4
				c0.5,0.8,0.8,1.8,1.2,2.7c0.4,0.9,0.7,1.9,1.1,2.9c0.3,1,0.5,2.1,0.8,3.1c0.2,1.1,0.6,2.2,0.7,3.3c0.2,2.3,0.5,4.7,0.3,7.3
				c0,5.1-1.3,10.7-3.3,16.6c-0.6,1.5-1.1,3-1.7,4.5c-0.6,1.5-1.4,3-2.2,4.5c-0.4,0.8-0.8,1.5-1.1,2.3c-0.4,0.8-0.9,1.5-1.3,2.3
				c-0.9,1.5-1.8,3.1-2.8,4.6c-1.1,1.5-2.1,3-3.2,4.5c-0.3,0.4-0.5,0.8-0.8,1.1c-0.3,0.4-0.6,0.7-0.9,1.1c-0.6,0.7-1.2,1.5-1.8,2.2
				c-0.6,0.7-1.2,1.5-1.8,2.2c-0.6,0.7-1.3,1.4-1.9,2.1c-0.7,0.7-1.3,1.4-2,2.1c-0.3,0.3-0.7,0.7-1,1.1c-0.2,0.2-0.3,0.3-0.5,0.5
				c-0.1,0.1-0.2,0.2-0.2,0.3c0,0-0.1,0.1-0.1,0.1c0,0,0,0-0.1,0.1c-0.1,0.1,0.2-0.2-0.3,0.3c-1.3,1.2-2.6,2.4-3.8,3.6
				c-0.3,0.3-0.6,0.6-1,0.9c-0.3,0.3-0.6,0.6-1,0.9c-0.8,0.6-1.5,1.3-2.3,1.9c-0.8,0.6-1.5,1.3-2.3,1.9c-0.4,0.3-0.8,0.6-1.1,0.9
				c-0.4,0.3-0.8,0.5-1.1,0.8c-1.5,1.1-3,2.1-4.5,3.2c-1.5,1-3.1,1.9-4.6,2.8c-0.8,0.4-1.5,0.9-2.3,1.3c-0.8,0.4-1.5,0.8-2.3,1.1
				c-1.5,0.7-3,1.5-4.5,2.2c-1.5,0.6-3,1.2-4.4,1.7c-5.9,1.9-11.5,3.2-16.5,3.2c-2.6,0.2-4.9-0.2-7.3-0.4c-1.2-0.1-2.2-0.5-3.3-0.7
				c-1.1-0.3-2.1-0.5-3.1-0.8c-1-0.4-1.9-0.8-2.9-1.1c-0.9-0.4-1.9-0.7-2.7-1.2c-0.8-0.5-1.6-0.9-2.4-1.4c-0.8-0.5-1.6-0.8-2.2-1.4
				c-1.3-1.1-2.6-2-3.7-3c-1.1-1-2-2.1-2.9-2.9c-0.4-0.4-0.8-0.9-1.2-1.3c-0.4-0.4-0.6-0.9-0.9-1.3c-0.6-0.8-1.1-1.5-1.5-2
				c-0.8-1.1-1.2-1.7-1.2-1.7c0,0,0.6,0.4,1.7,1.1c0.5,0.4,1.2,0.8,2,1.3c0.4,0.3,0.8,0.5,1.2,0.8c0.5,0.3,1,0.5,1.5,0.8
				c1.1,0.5,2.2,1.2,3.4,1.8c1.3,0.5,2.7,1.1,4.2,1.7c1.5,0.5,3.2,0.9,4.9,1.4c1.7,0.4,3.6,0.6,5.5,0.9c1,0.1,2,0.1,3,0.2
				c1,0,2,0.2,3.1,0.1c2.2-0.2,4.3-0.1,6.6-0.6c4.5-0.6,9.4-2.1,14.3-4c5-2,9.9-4.9,14.9-8.1c1.2-0.9,2.4-1.8,3.6-2.7
				c0.3-0.2,0.6-0.4,0.9-0.7c0.3-0.2,0.6-0.5,0.8-0.7c0.6-0.5,1.1-0.9,1.7-1.4c0.6-0.5,1.1-0.9,1.7-1.4c0.3-0.2,0.6-0.5,0.9-0.8
				c0.3-0.3,0.6-0.6,0.9-0.9c1.3-1.2,2.5-2.4,3.8-3.5c-0.5,0.5-0.1,0.1-0.2,0.2c0,0,0,0,0-0.1c0,0,0.1-0.1,0.1-0.1
				c0.1-0.1,0.1-0.1,0.2-0.2c0.1-0.1,0.3-0.3,0.4-0.4c0.3-0.3,0.5-0.6,0.8-0.8c0.5-0.6,1.1-1.1,1.6-1.7c0.5-0.6,1.1-1.1,1.6-1.7
				c0.5-0.6,1-1.2,1.5-1.8c0.5-0.6,1-1.2,1.5-1.8c0.2-0.3,0.5-0.6,0.7-0.9c0.2-0.3,0.4-0.6,0.7-0.9c0.9-1.2,1.8-2.4,2.7-3.6
				c3.3-4.9,6.2-9.9,8.2-14.9c2-4.9,3.6-9.8,4.1-14.4c0.5-2.3,0.5-4.5,0.7-6.6c0.1-1.1,0-2.1,0-3.1c-0.1-1-0.1-2-0.1-3
				c-0.3-1.9-0.5-3.8-0.9-5.5c-0.5-1.7-0.8-3.4-1.4-4.9c-0.6-1.5-1.1-2.9-1.6-4.2c-0.6-1.2-1.2-2.4-1.8-3.4c-0.3-0.5-0.5-1-0.8-1.5
				c-0.3-0.5-0.6-0.9-0.8-1.3c-0.5-0.8-1-1.5-1.3-2C403.2,307.7,402.8,307.1,402.8,307.1z"/>
		</g>
		<g id="XMLID_758_">
			<path id="XMLID_762_" class="st1" d="M292.2,357.6c0,0-0.1-0.4-0.3-1.1c-0.1-0.7-0.4-1.8-0.6-3.2c-0.1-0.7-0.3-1.5-0.4-2.3
				c-0.1-0.9-0.1-1.8-0.1-2.9c0-1,0-2.1,0-3.3c0-0.6,0-1.2,0.1-1.8c0.1-0.6,0.1-1.2,0.2-1.9c0.1-1.3,0.3-2.6,0.5-4
				c0.3-1.4,0.7-2.7,1-4.2c0.2-0.7,0.4-1.5,0.6-2.2c0.2-0.7,0.5-1.4,0.8-2.2c0.5-1.5,1.2-3,1.8-4.5c0.7-1.5,1.5-2.9,2.4-4.4
				c0.4-0.7,0.8-1.5,1.3-2.2c0.5-0.7,1-1.4,1.5-2.1c1.9-3,4.4-5.5,6.7-8.2c2.7-2.4,5.2-4.8,8.2-6.7c0.7-0.5,1.4-1,2.1-1.5
				c0.7-0.5,1.5-0.9,2.2-1.3c1.5-0.8,3-1.6,4.4-2.4c1.5-0.6,3-1.3,4.5-1.8c0.7-0.3,1.5-0.6,2.2-0.8c0.7-0.2,1.5-0.4,2.2-0.6
				c1.5-0.4,2.8-0.7,4.2-1c1.4-0.2,2.7-0.4,4-0.5c1.3-0.1,2.5-0.3,3.6-0.3c1.2,0,2.3,0,3.3,0.1c1,0,2,0.1,2.8,0.1
				c0.9,0.1,1.7,0.2,2.4,0.4c1.4,0.2,2.5,0.5,3.3,0.7c0.7,0.2,1.1,0.3,1.1,0.3c0,0-0.4,0.2-1.1,0.5c-0.7,0.3-1.8,0.7-3.2,1.2
				c-0.7,0.2-1.4,0.5-2.2,0.8c-0.8,0.4-1.6,0.7-2.5,1.1c-0.9,0.4-1.8,0.7-2.8,1.1c-1,0.4-2,0.9-3,1.4c-1,0.5-2.1,1-3.2,1.5
				c-1.1,0.6-2.2,1.2-3.3,1.9c-0.6,0.3-1.1,0.6-1.7,0.9c-0.6,0.3-1.1,0.7-1.7,1.1c-1.1,0.8-2.3,1.4-3.5,2.2
				c-2.2,1.7-4.6,3.2-6.8,5.1c-2.3,1.7-4.3,3.8-6.5,5.8c-2,2.1-4.1,4.2-5.8,6.5c-1.9,2.2-3.4,4.6-5.1,6.8c-0.7,1.2-1.4,2.3-2.2,3.5
				c-0.4,0.6-0.8,1.1-1.1,1.7c-0.3,0.6-0.6,1.2-0.9,1.7c-0.6,1.1-1.2,2.2-1.9,3.3c-0.5,1.1-1,2.2-1.5,3.2c-0.5,1-1.1,2.1-1.4,3
				c-0.4,1-0.8,1.9-1.1,2.8c-0.4,0.9-0.7,1.7-1.1,2.5c-0.3,0.8-0.5,1.6-0.8,2.3c-0.5,1.4-0.9,2.5-1.2,3.2
				C292.4,357.2,292.2,357.6,292.2,357.6z"/>
		</g>
	</g>
</g>
</svg>
