<?xml version="1.0" encoding="utf-8"?>
<!-- Generator: Adobe Illustrator 19.0.0, SVG Export Plug-In . SVG Version: 6.00 Build 0)  -->
<svg version="1.1" id="Layer_1" xmlns="http://www.w3.org/2000/svg" xmlns:xlink="http://www.w3.org/1999/xlink" x="0px" y="0px"
	 viewBox="0 0 525.2 500" style="enable-background:new 0 0 525.2 500;" xml:space="preserve">
<style type="text/css">
	.st0{fill:#007DC6;}
	.st1{fill:#FFFFFF;}
</style>
<g id="XMLID_375_">
	<g id="XMLID_667_">
		<path id="XMLID_750_" class="st0" d="M299.4,119.6c-13.7,0-24.8-11.1-24.8-24.8S285.8,70,299.4,70h114.9
			c13.7,0,24.8,11.1,24.8,24.8s-11.1,24.8-24.8,24.8H299.4z"/>
	</g>
	<g id="XMLID_661_">
		<path id="XMLID_662_" class="st0" d="M356.9,177.1c-13.7,0-24.8-11.1-24.8-24.8V37.4c0-13.7,11.1-24.8,24.8-24.8
			s24.8,11.1,24.8,24.8v114.9C381.7,166,370.6,177.1,356.9,177.1z"/>
	</g>
	<path id="XMLID_660_" class="st0" d="M222.1,487.4c-6.6,0-12.8-2.6-17.5-7.2l-74.5-74.5h-23.5c-48.8,0-88.5-39.7-88.5-88.5V102.6
		c0-48.8,39.7-88.5,88.5-88.5h126.7c13.6,0,24.7,11.1,24.7,24.7c0,13.6-11.1,24.7-24.7,24.7H106.7c-21.6,0-39.1,17.5-39.1,39.1
		v214.5c0,21.6,17.5,39.1,39.1,39.1h30.9c0.2,0,0.3,0,0.5,0c0.2,0,0.8,0,0.8,0l0.2,0c0.4,0,0.8,0,1.2,0c6.6,0,12.8,2.6,17.5,7.2
		l64.3,64.3l62.6-62.6c1.8-1.8,3.8-3.3,6-4.4l0.2-0.1l0.2-0.1c4.3-2.8,9.2-4.2,14.2-4.2h113.2c21.6,0,39.1-17.5,39.1-39.1V138.4
		c0-13.6,11.1-24.7,24.7-24.7s24.7,11.1,24.7,24.7v178.8c0,48.8-39.7,88.5-88.5,88.5H314.1l-74.5,74.5
		C234.9,484.8,228.7,487.4,222.1,487.4z"/>
	<g id="XMLID_643_">
		<path id="XMLID_645_" class="st0" d="M134.7,257.7c-13.7,0-24.8-11.1-24.8-24.8s11.1-24.8,24.8-24.8h262.4
			c13.7,0,24.8,11.1,24.8,24.8s-11.1,24.8-24.8,24.8H134.7z"/>
	</g>
	<g id="XMLID_641_">
		<path id="XMLID_642_" class="st0" d="M134.7,330.9c-13.7,0-24.8-11.1-24.8-24.8s11.1-24.8,24.8-24.8h262.4
			c13.7,0,24.8,11.1,24.8,24.8s-11.1,24.8-24.8,24.8H134.7z"/>
	</g>
	<g id="XMLID_458_">
		<path id="XMLID_791_" class="st1" d="M43.2,313.2c0,0-0.1-0.8-0.3-2.4c-0.2-1.6-0.4-3.9-0.7-6.8c-0.3-2.9-0.6-6.5-0.9-10.6
			c-0.3-4.1-0.6-8.7-1-13.7c-0.6-10.1-1.2-21.8-1.5-34.4c-0.1-3.1-0.2-6.3-0.2-9.6c-0.1-3.2-0.1-6.5-0.2-9.8
			c-0.1-6.6-0.1-13.3-0.2-20c0-6.7,0-13.4,0.1-20c0-3.3,0.1-6.6,0.2-9.8c0.1-3.2,0.1-6.4,0.2-9.6c0.4-12.6,0.9-24.3,1.5-34.4
			c0.3-5,0.6-9.7,1-13.7c0.3-4.1,0.7-7.7,0.9-10.6c0.3-2.9,0.5-5.2,0.7-6.8c0.2-1.6,0.3-2.4,0.3-2.4s0.1,0.8,0.3,2.4
			c0.2,1.6,0.5,3.9,0.7,6.8c0.3,2.9,0.6,6.5,0.9,10.6c0.3,4.1,0.6,8.7,1,13.7c0.6,10.1,1.2,21.8,1.5,34.4c0.1,3.1,0.2,6.3,0.2,9.6
			c0.1,3.2,0.1,6.5,0.2,9.8c0.1,6.6,0.1,13.3,0.1,20c0,6.7,0,13.4-0.2,20c0,3.3-0.1,6.6-0.2,9.8c-0.1,3.2-0.1,6.4-0.2,9.6
			c-0.4,12.6-0.9,24.3-1.5,34.4c-0.3,5-0.6,9.7-1,13.7c-0.3,4.1-0.7,7.7-0.9,10.6c-0.3,2.9-0.5,5.2-0.7,6.8
			C43.3,312.3,43.2,313.2,43.2,313.2z"/>
	</g>
	<g id="XMLID_376_">
		<path id="XMLID_796_" class="st1" d="M475.7,303.4c0,0,0.5,2.1,1.1,5.7c0.3,1.8,0.6,4,1,6.6c0.3,2.5,0.7,5.4,1,8.5
			c0.3,3.1,0.6,6.5,0.9,10.1c0.1,0.9,0.1,1.8,0.2,2.7l0,0.7l0,0.8c0,0.5,0,0.9,0,1.4c0,2.2-0.2,4.3-0.5,6.5
			c-0.4,2.1-0.9,4.3-1.6,6.5c-0.7,2.1-1.6,4.2-2.7,6.3c-2.2,4-5,7.9-8.5,11c-3.4,3.2-7.4,5.8-11.6,7.6c-4.2,1.8-8.7,2.9-13,3.2
			c-1.1,0.1-2.1,0.1-3.2,0.1c-1,0-2.1-0.1-3.1-0.1c-1.9-0.1-3.7-0.2-5.5-0.4c-3.6-0.3-7-0.5-10.1-0.8c-3.1-0.3-6-0.6-8.5-0.9
			c-2.5-0.3-4.7-0.6-6.6-0.8c-1.8-0.3-3.3-0.5-4.2-0.6c-1-0.2-1.5-0.2-1.5-0.2s0.5-0.1,1.5-0.2c1-0.1,2.4-0.3,4.2-0.6
			c1.8-0.2,4-0.5,6.6-0.8c2.5-0.3,5.4-0.6,8.5-0.9c3.1-0.3,6.5-0.6,10.1-0.8c1.8-0.1,3.6-0.2,5.5-0.4c1.8-0.2,3.5-0.3,5.2-0.7
			c3.4-0.7,6.8-1.9,10-3.6c1.6-0.9,3.1-1.8,4.6-2.8c1.5-1.1,2.9-2.2,4.2-3.5c5.3-5,9-11.6,10.6-18.3c0.4-1.7,0.7-3.4,0.9-4.9
			c0-0.5,0.1-0.9,0.1-1.4l0-0.3l0-0.2l0-0.1c0,0,0-0.1,0,0.1l0,0l0-0.7c0.1-0.9,0.1-1.8,0.2-2.7c0.3-3.6,0.6-7,0.9-10.1
			c0.3-3.1,0.7-6,1-8.5c0.3-2.5,0.7-4.7,1-6.6C475.2,305.5,475.7,303.4,475.7,303.4z"/>
	</g>
</g>
<image style="overflow:visible;" width="2422" height="282" id="XMLID_71_" xlink:href="411E0E76.jpg"  transform="matrix(1 0 0 1 -7965.8784 -302.6101)">
</image>
</svg>
